<svg id="logo_Image" data-name="logo Image" xmlns="http://www.w3.org/2000/svg" viewBox="0 0 232.49 230.04"><defs><style>.cls-1{fill:#ed4238;}</style></defs><title>logo</title><path class="cls-1" d="M229.37,107.87a12.54,12.54,0,0,0-18.52,2,10,10,0,0,1-8.53,4.18c-10.16,0-20.33-.16-30.49.08-3.73.09-3.85-1.72-3.91-4.54s.51-4.31,3.81-4c3.64.29,7.33.12,11,0,10.63-.17,16.93-6.42,17.45-17,.23-4.65-1-9.5,4-13.1,6.49-4.65,6.84-13.1,1.45-18.71-5-5.17-14.24-5.19-18.78,0-5.45,6.19-4.7,14.12,2.18,19.06,6.18,4.45,4.17,10.35,3.11,15.9-1,5.07-5.18,6.55-9.83,6.75-3.16.13-6.37-.22-9.49.14-4.07.48-5.4-1.14-4.81-5a18.77,18.77,0,0,0,0-3c-.06-11.2-6.76-19.55-17.66-22.37-3.32-.86-6.61-.43-9.92-.56-1.73-.06-3.25.05-3.57-2.34a34.66,34.66,0,0,1,1.55-16.65c1.25-3.44,4.47-4.82,8-5.18,5.75-.59,10.6.84,14.83,5.3a12.72,12.72,0,0,0,18.71-.24c4.59-5,4.27-13.63-.67-18.06-5.66-5.08-13.17-4.53-18.42,1.55-2.52,2.92-5.74,3.76-9.31,4-2.49.17-5,.19-7.47.51-7.35.95-12,5.33-13.89,12.42-1.31,4.95-.94,9.95-.79,14.91.1,3.25-1.11,3.89-4,3.83-2.75,0-4.24-.3-4.16-3.72q.36-14.23,0-28.5c-.11-4.19,1.08-7.18,4.43-9.88,5.94-4.79,6.44-12.46,1.87-18.17-2.21-2.76-5.57-3.28-8.34-4.94h-3c-.2.24-.38.66-.62.69-11.4,1.67-14.57,16.43-5.23,23.24,3.21,2.34,3.75,5.68,3.74,9.3,0,9-.11,18,.06,27,.06,3.27-.17,5.08-4.37,5.07s-3.87-2.24-3.73-5c.11-2.33.1-4.67,0-7-.58-13.6-6.71-19.62-20.31-19.73-4.38,0-8-1.08-11.2-4.37-5.62-5.73-14.2-5.81-19.14-.59a13.24,13.24,0,0,0,.21,17.72,12.7,12.7,0,0,0,19-.78c4.94-5.66,10.79-5.13,16.89-3.83,4.26.9,6.33,4.14,6.59,8.36.23,3.65,0,7.34.24,11,.21,3.29-1.08,4.33-4.32,4.08-8.28-.62-15.43,1.8-20.82,8.45-4.25,5.23-5.37,11.35-4.86,17.83.27,3.3-.54,4.93-4.26,4.61s-7.34.11-11-.21c-7-.63-9.67-3.59-10.05-10.6-.28-5.21-.12-9.68,5-13.53,5.6-4.24,5-12.87,0-17.76a13.26,13.26,0,0,0-18.44.2c-4.71,4.64-5.48,13.2-.37,17,5.45,4,6.05,8.78,6,14.69-.09,10.63,6.39,16.94,17.11,17.26,3.67.11,7.34.07,11,0,2.67,0,5.12-.58,5.11,3.78,0,4-1.63,4.74-5,4.7-10-.1-20-.07-30,0-3.89,0-6.81-1.07-9.3-4.52C20,103.87,12,103.32,6.35,107.7c-5.83,4.56-6.76,11.79-2.27,17.66,4.84,6.32,13.88,6.91,19.65.71,3.3-3.53,6.79-4.74,11.44-4.65,9.66.2,19.33,0,29-.11,2.8,0,4.31.48,4.2,3.8-.1,2.87-.77,4.36-3.93,4.29-4.32-.11-8.67-.15-13,.15-9.68.68-13.94,4.68-15.56,14.28a24,24,0,0,0-.62,5.43c.33,4.87-1.38,8.5-5.1,11.77-4.52,4-5.34,8.73-3.27,13.48a12.52,12.52,0,0,0,12.12,8,12.9,12.9,0,0,0,12.06-8.85c2.17-6.11-.57-10.53-4.88-14.53-3.83-3.55-4.95-11.05-2.63-16.75,2-5.06,6.43-5.74,11.12-5.77,3.5,0,7,.08,10.5-.12,2.44-.14,3.32.77,3.1,3.13-.13,1.49,0,3,0,4.5,0,12,7.68,21.07,19.3,23.15,3.48.62,8.3-1.83,10.17,1.38,1.57,2.72.38,7.11.24,10.75-.17,4.71-.34,9.52-5.81,11.6-5.72,2.18-13.71.44-16.88-3.64-4.54-5.83-14-6.65-19.63-1.71s-6.41,13-1.47,18.14c5.37,5.57,14.94,5.61,20-.25,2.92-3.4,6.32-4.3,10.59-4.25,14.33.17,21.15-6.69,21.23-21,0-2.49-.29-5-.35-7.47-.07-2.76,1.37-3.56,4.06-3.52,2.5.05,3.43.69,3.62,3.32.76,10.31.7,20.63.74,31a8.55,8.55,0,0,1-3.88,7.61,11.72,11.72,0,0,0-5,6.64c-1.72,6.66,1.48,13,8.12,15.78a12.11,12.11,0,0,0,15.15-5.13c3.63-6,2.6-12.55-3-16.86-2.38-1.84-4.23-3.75-4.24-6.88,0-10.84,0-21.67,0-32.5,0-2.18.8-2.79,2.9-2.91,3.47-.19,5.91.2,5.2,4.65a39,39,0,0,0-.19,6.49c.18,14,7,21.06,20.91,20.92a14.21,14.21,0,0,1,11.36,4.73c5.09,5.23,14.47,4.73,18.76-.49a12.89,12.89,0,0,0-1.7-18.28c-5.77-4.65-13.54-3.55-18.16,2.57-2.86,3.79-9.57,5.23-15.61,3.35-4.62-1.44-7.52-5.31-7.65-10.52-.09-3.33.29-6.68,0-10-.19-2.66.61-3.68,3.27-3.4a44.79,44.79,0,0,0,4.49,0c11.94,0,21.18-7.76,23-19.41a47.18,47.18,0,0,0,.15-8c0-1.94.49-3.31,2.65-3.43,5.15-.26,10.31-.48,15.37.78,3.38.85,5.3,3.2,6.2,6.52,1.75,6.46.72,11.93-4.43,16.77-6,5.65-6.08,11.69-1,17.66a12.43,12.43,0,0,0,17.84,1.09c5.31-4.79,6.8-13.68,2-17.27-5.62-4.2-6.51-9.35-6.59-15.65-.14-10.65-6.71-16.8-17.44-17.05-3.5-.08-7-.22-10.5.05-3.29.24-4.24-.88-4.22-4.18s1.07-3.88,4-3.82c8.66.19,17.34.29,26,0,5.64-.2,10.14,1,14.28,5.31a12.42,12.42,0,0,0,18.25-.53C235.23,120.57,234.76,112.38,229.37,107.87ZM191.28,65.71c-.1-3.74,2-6,5.71-6a5.27,5.27,0,0,1,5.67,5.62c0,3.37-2,5.48-5.54,5.87C193.75,70.88,191.38,69.35,191.28,65.71Zm-20.06-32c3.66.25,5.77,2.6,5.37,6.34-.37,3.45-2.74,5.07-5.75,5.17C167,44.53,165,42.52,165.29,39S167.75,33.45,171.22,33.69ZM64.8,45.17c-3.41-.49-5.53-2.2-5.55-5.82a5.57,5.57,0,0,1,6.1-5.71c3.44.45,5.51,2.59,5.3,6S68.32,45,64.8,45.17Zm-26.59,26c-3.53-.31-5.86-1.9-5.93-5.52s2-6,5.76-6c3.46,0,5.66,2.22,5.62,5.68S41.63,70.83,38.21,71.19Zm-24,52c-3.66-.38-5.88-2.07-5.9-5.68s1.93-5.75,5.42-5.85c3.73-.11,6,2.15,6,5.84C19.61,120.91,17.43,122.87,14.17,123.2Zm30.52,46.56c-.47,3.32-2.44,5.54-6,5.33s-5.37-2.26-5.47-6c.38-3.26,2.21-5.32,5.73-5.44A5.64,5.64,0,0,1,44.69,169.76Zm18.16,31.41c-3.45-.44-5.66-2.16-5.57-5.78.09-3.78,2.3-5.91,6-5.71a5.28,5.28,0,0,1,5.34,5.95C68.48,199,66.35,201,62.85,201.17Zm107.4-11.53c3.46.37,5.38,2.47,5.45,5.94.06,3-2.81,5.63-6.14,5.56-3.09-.39-5.23-2.07-5.31-5.7A5.53,5.53,0,0,1,170.25,189.64Zm-58-173.88c-.14-3.74,1.91-6.06,5.65-6.08a5.27,5.27,0,0,1,5.71,5.58c0,3.4-2,5.46-5.35,5.93C114.78,20.92,112.42,19.38,112.29,15.76Zm11.39,204.65c-.24,3.38-2.1,5.55-5.65,5.71-3.24.14-5.7-2.3-5.8-6,.14-3,1.89-5.15,5.37-5.5A5.61,5.61,0,0,1,123.68,220.41ZM151,136.77c-9.63-3.52-18.81-8.6-29.31-4.91-.11,1.91,3.61,2.62,1.88,5s-4,1.73-6.37,1.06c-1.1-.32-2.57-.81-3.4-.35-5.94,3.24-9.73-2.28-9.17-5,1.28-6.34-4.18-6.59-6.3-9.64s-3.7-6.08-2.55-9.71a17.76,17.76,0,0,0,.4-8,6.69,6.69,0,0,0-2-1.82L96,102.25h0l-1.79-.75a7.19,7.19,0,0,1,.47-.85,9,9,0,0,1,4.84-3.51,11.9,11.9,0,0,1,2.58-.69c5.35-.88,10,1.77,10.91,6.24,1.61,7.78,2.67,8.41,10.13,5.82,3.28-1.14,6.51-2.43,9.76-3.68.92-.36,1.88-1,2.79-.28,1.73,1.36-3.56,4.51,1.68,5.74,1.6.38-1.11,4.17-2.63,5.93-3.14,3.6-2.73,5.5,2.13,6.18,3.87.54,7.87.11,11.81.11C142.09,128.79,151.69,131.65,151,136.77Zm44.77,26.86a5.64,5.64,0,0,1,5.89,6c-.38,3.35-2.34,5.36-5.87,5.56-3.41-.46-5.61-2.16-5.56-5.78S192.32,163.86,195.81,163.63Zm25.32-40.46c-3.4-.28-5.75-1.83-5.85-5.46s2-6,5.72-6a5.27,5.27,0,0,1,5.66,5.65C226.65,120.68,224.68,122.81,221.13,123.17Z" transform="translate(-1.25 -2.48)"/><circle class="cls-1" cx="100.8" cy="100.55" r="0.67"/></svg>