<?xml version="1.0" encoding="utf-8"?>
<!-- Generator: Adobe Illustrator 23.0.4, SVG Export Plug-In . SVG Version: 6.00 Build 0)  -->
<svg version="1.1" id="Layer_1" xmlns="http://www.w3.org/2000/svg" xmlns:xlink="http://www.w3.org/1999/xlink" x="0px" y="0px"
	 viewBox="0 0 220 220" style="enable-background:new 0 0 220 220;" xml:space="preserve">
<style type="text/css">
	.st0{fill:none;stroke:url(#SVGID_1_);stroke-width:4;}
	.st1{fill:none;}
	.st2{enable-background:new    ;}
	.st3{fill:#FFFFFF;}
</style>
<linearGradient id="SVGID_1_" gradientUnits="userSpaceOnUse" x1="110" y1="-56" x2="110" y2="-276" gradientTransform="matrix(1 0 0 -1 0 -56)">
	<stop  offset="0" style="stop-color:#003399"/>
	<stop  offset="1" style="stop-color:#6E2F62"/>
</linearGradient>
<circle class="st0" cx="110" cy="110" r="108"/>
<rect x="-3.2" y="48" class="st1" width="230" height="124"/>
<g class="st2">
	<path class="st3" d="M143,115.8h-10.4v13.4h-19.3v-13.4h-37v-12.9l31.4-43.7h20.5l-28.5,40.9h14.2V88.2h18.7v11.9H143V115.8z"/>
</g>
<g class="st2">
	<path class="st3" d="M52.7,145.6c1,0.5,1.7,1.3,2.3,2.3c0.6,1,0.9,2.2,0.9,3.5c0,1.3-0.3,2.5-0.9,3.6c-0.6,1-1.3,1.8-2.3,2.4
		c-1,0.6-2,0.8-3.2,0.8c-1.7,0-3-0.5-3.8-1.5v1.3h-4.3v-17.8h4.6v5.9c0.9-0.9,2.1-1.3,3.6-1.3C50.6,144.8,51.7,145,52.7,145.6z
		 M50.5,153.8c0.5-0.6,0.8-1.3,0.8-2.3c0-1-0.3-1.7-0.8-2.3s-1.2-0.8-2-0.8c-0.8,0-1.5,0.3-2,0.8c-0.5,0.5-0.8,1.3-0.8,2.3
		c0,1,0.3,1.7,0.8,2.3c0.5,0.6,1.2,0.8,2,0.8C49.3,154.6,49.9,154.3,50.5,153.8z"/>
	<path class="st3" d="M60.7,157.4c-1.1-0.6-2-1.4-2.6-2.4c-0.6-1-0.9-2.2-0.9-3.5c0-1.3,0.3-2.4,0.9-3.5c0.6-1,1.5-1.8,2.6-2.4
		c1.1-0.6,2.4-0.9,3.8-0.9c1.4,0,2.7,0.3,3.8,0.9c1.1,0.6,2,1.4,2.6,2.4c0.6,1,0.9,2.2,0.9,3.5s-0.3,2.5-0.9,3.5
		c-0.6,1-1.5,1.8-2.6,2.4c-1.1,0.6-2.4,0.9-3.8,0.9C63.1,158.2,61.8,157.9,60.7,157.4z M66.4,153.8c0.5-0.6,0.8-1.3,0.8-2.3
		c0-1-0.3-1.7-0.8-2.3c-0.5-0.5-1.2-0.8-2-0.8c-0.8,0-1.5,0.3-2,0.8c-0.5,0.5-0.8,1.3-0.8,2.3c0,1,0.3,1.7,0.8,2.3
		c0.5,0.6,1.2,0.8,2,0.8C65.3,154.6,65.9,154.3,66.4,153.8z"/>
	<path class="st3" d="M76.7,157.4c-1.1-0.6-2-1.4-2.6-2.4c-0.6-1-0.9-2.2-0.9-3.5c0-1.3,0.3-2.4,0.9-3.5c0.6-1,1.5-1.8,2.6-2.4
		c1.1-0.6,2.4-0.9,3.8-0.9c1.4,0,2.7,0.3,3.8,0.9c1.1,0.6,2,1.4,2.6,2.4c0.6,1,0.9,2.2,0.9,3.5s-0.3,2.5-0.9,3.5
		c-0.6,1-1.5,1.8-2.6,2.4c-1.1,0.6-2.4,0.9-3.8,0.9C79.1,158.2,77.8,157.9,76.7,157.4z M82.4,153.8c0.5-0.6,0.8-1.3,0.8-2.3
		c0-1-0.3-1.7-0.8-2.3c-0.5-0.5-1.2-0.8-2-0.8c-0.8,0-1.5,0.3-2,0.8c-0.5,0.5-0.8,1.3-0.8,2.3c0,1,0.3,1.7,0.8,2.3
		c0.5,0.6,1.2,0.8,2,0.8C81.3,154.6,81.9,154.3,82.4,153.8z"/>
	<path class="st3" d="M98.9,157.5c-0.4,0.2-0.9,0.4-1.4,0.6c-0.6,0.1-1.1,0.2-1.8,0.2c-1.7,0-3-0.4-3.9-1.2
		c-0.9-0.8-1.4-2.1-1.4-3.7v-4.4h-1.9v-3.4h1.9v-3.4H95v3.4h3v3.4h-3v4.3c0,0.5,0.1,0.8,0.4,1.1s0.6,0.4,1,0.4c0.5,0,1-0.1,1.4-0.4
		L98.9,157.5z"/>
	<path class="st3" d="M103,157.4c-1.1-0.6-2-1.4-2.7-2.4c-0.6-1-0.9-2.2-0.9-3.5s0.3-2.5,0.9-3.5c0.6-1,1.5-1.8,2.7-2.4
		c1.1-0.6,2.4-0.9,3.9-0.9c1.5,0,2.7,0.3,3.8,0.9c1.1,0.6,1.8,1.5,2.3,2.6l-3.5,1.8c-0.6-1.2-1.5-1.8-2.6-1.8c-0.8,0-1.5,0.3-2,0.8
		c-0.5,0.5-0.8,1.3-0.8,2.3c0,1,0.3,1.7,0.8,2.3c0.5,0.6,1.2,0.8,2,0.8c1.1,0,2-0.6,2.6-1.8l3.5,1.8c-0.4,1.1-1.2,2-2.3,2.6
		c-1.1,0.6-2.3,0.9-3.8,0.9C105.5,158.2,104.2,157.9,103,157.4z"/>
	<path class="st3" d="M125.2,146.3c1.1,1,1.7,2.5,1.7,4.5v7.2h-4.2v-1.7c-0.7,1.3-1.9,1.9-3.8,1.9c-1,0-1.9-0.2-2.6-0.5
		c-0.7-0.4-1.3-0.8-1.7-1.4c-0.4-0.6-0.6-1.3-0.6-2.1c0-1.2,0.5-2.2,1.4-2.9c0.9-0.7,2.4-1,4.4-1h2.6c-0.1-1.4-1-2.1-2.8-2.1
		c-0.6,0-1.3,0.1-1.9,0.3c-0.6,0.2-1.2,0.5-1.6,0.8l-1.5-3.1c0.7-0.5,1.6-0.9,2.6-1.1s2.1-0.4,3.1-0.4
		C122.4,144.8,124.1,145.3,125.2,146.3z M121.5,155c0.4-0.3,0.7-0.6,0.9-1.1v-1.1h-2c-1.3,0-2,0.4-2,1.3c0,0.4,0.2,0.7,0.5,1
		c0.3,0.2,0.7,0.4,1.2,0.4C120.6,155.3,121.1,155.2,121.5,155z"/>
	<path class="st3" d="M150.6,146.2c1,1,1.4,2.4,1.4,4.3v7.4h-4.6v-6.7c0-0.9-0.2-1.6-0.5-2c-0.3-0.4-0.8-0.6-1.5-0.6
		c-0.7,0-1.2,0.2-1.7,0.7c-0.4,0.5-0.6,1.2-0.6,2.2v6.5h-4.6v-6.7c0-1.8-0.7-2.7-2-2.7c-0.7,0-1.3,0.2-1.7,0.7
		c-0.4,0.5-0.6,1.2-0.6,2.2v6.5h-4.6v-13h4.3v1.4c0.5-0.5,1.1-0.9,1.7-1.2s1.4-0.4,2.2-0.4c0.9,0,1.7,0.2,2.4,0.5s1.3,0.8,1.8,1.5
		c0.5-0.7,1.2-1.2,1.9-1.5c0.8-0.4,1.6-0.5,2.6-0.5C148.3,144.8,149.6,145.3,150.6,146.2z"/>
	<path class="st3" d="M166.3,145.6c1,0.6,1.7,1.3,2.3,2.4c0.6,1,0.9,2.2,0.9,3.5s-0.3,2.5-0.9,3.5c-0.6,1-1.3,1.8-2.3,2.4
		c-1,0.6-2,0.8-3.2,0.8c-1.5,0-2.7-0.5-3.6-1.4v5.8h-4.6V145h4.3v1.3c0.8-1,2.1-1.5,3.8-1.5C164.2,144.8,165.3,145.1,166.3,145.6z
		 M164.1,153.8c0.5-0.6,0.8-1.3,0.8-2.3s-0.3-1.7-0.8-2.3c-0.5-0.6-1.2-0.8-2-0.8s-1.5,0.3-2,0.8c-0.5,0.6-0.8,1.3-0.8,2.3
		s0.3,1.7,0.8,2.3c0.5,0.6,1.2,0.8,2,0.8S163.6,154.3,164.1,153.8z"/>
	<path class="st3" d="M173.1,157.8c-1.1-0.2-1.9-0.6-2.5-1l1.4-3.1c0.6,0.4,1.3,0.7,2.1,0.9c0.8,0.2,1.6,0.3,2.4,0.3
		c0.7,0,1.3-0.1,1.6-0.2c0.3-0.2,0.5-0.4,0.5-0.7c0-0.3-0.2-0.5-0.6-0.6s-1-0.2-1.8-0.3c-1-0.1-1.9-0.3-2.7-0.5
		c-0.7-0.2-1.4-0.6-1.9-1.2c-0.5-0.6-0.8-1.3-0.8-2.4c0-0.8,0.2-1.6,0.7-2.2s1.2-1.2,2.2-1.5s2.1-0.6,3.4-0.6c0.9,0,1.9,0.1,2.8,0.3
		c0.9,0.2,1.7,0.5,2.3,0.8l-1.4,3.1c-1.2-0.6-2.4-1-3.7-1c-0.7,0-1.2,0.1-1.6,0.3s-0.5,0.4-0.5,0.7c0,0.3,0.2,0.5,0.6,0.6
		c0.4,0.1,1,0.2,1.8,0.4c1.1,0.2,2,0.3,2.7,0.6s1.3,0.6,1.8,1.1c0.5,0.6,0.8,1.3,0.8,2.3c0,0.8-0.2,1.5-0.7,2.2
		c-0.5,0.6-1.2,1.2-2.2,1.5s-2.1,0.6-3.5,0.6C175.2,158.2,174.1,158.1,173.1,157.8z"/>
</g>
</svg>
