<?xml version="1.0" encoding="utf-8"?>
<!-- Generator: Adobe Illustrator 23.0.4, SVG Export Plug-In . SVG Version: 6.00 Build 0)  -->
<svg version="1.1" id="Layer_1" xmlns="http://www.w3.org/2000/svg" xmlns:xlink="http://www.w3.org/1999/xlink" x="0px" y="0px"
	 viewBox="0 0 220 220" style="enable-background:new 0 0 220 220;" xml:space="preserve">
<style type="text/css">
	.st0{fill:none;stroke:url(#SVGID_1_);stroke-width:4;}
	.st1{fill:#FFFFFF;}
</style>
<linearGradient id="SVGID_1_" gradientUnits="userSpaceOnUse" x1="110" y1="278" x2="110" y2="498" gradientTransform="matrix(1 0 0 1 0 -278)">
	<stop  offset="0" style="stop-color:#3399CC"/>
	<stop  offset="1" style="stop-color:#CC0000"/>
</linearGradient>
<circle class="st0" cx="110" cy="110" r="108"/>
<g>
	<path class="st1" d="M94.6,99.3c3.7,1.8,6.6,4.4,8.8,7.8c2.2,3.4,3.2,7.2,3.2,11.6c0,4.7-1.2,8.9-3.6,12.5
		c-2.4,3.6-5.7,6.4-9.9,8.4c-4.2,2-8.8,3-14,3c-10,0-17.9-3-23.7-8.9c-5.8-5.9-8.7-14.5-8.7-25.6c0-8,1.6-14.9,4.6-20.6
		c3.1-5.8,7.5-10.1,13.1-13.1s12.1-4.5,19.5-4.5c4,0,7.8,0.4,11.4,1.3c3.6,0.9,6.7,2.1,9.2,3.8l-7.2,14.2c-3.4-2.4-7.7-3.6-12.9-3.6
		c-5.1,0-9.2,1.4-12.3,4.2c-3.1,2.8-4.9,6.8-5.4,12.1c4-3.5,9.3-5.2,15.8-5.2C86.9,96.6,90.9,97.5,94.6,99.3z M84.8,126.1
		c1.8-1.6,2.6-3.8,2.6-6.5c0-2.7-0.9-4.8-2.6-6.4c-1.8-1.6-4.1-2.4-7-2.4c-2.9,0-5.2,0.8-7,2.4c-1.8,1.6-2.7,3.8-2.7,6.5
		c0,2.6,0.9,4.7,2.7,6.3c1.8,1.6,4.1,2.4,7.1,2.4C80.7,128.5,83,127.7,84.8,126.1z"/>
	<path class="st1" d="M126.5,138.3c-4.7-2.9-8.3-7.1-11-12.6c-2.6-5.5-3.9-12-3.9-19.5c0-7.5,1.3-14,3.9-19.5
		c2.6-5.5,6.3-9.7,11-12.6c4.7-2.9,10-4.3,16-4.3c5.9,0,11.2,1.4,15.9,4.3c4.7,2.9,8.3,7.1,11,12.6c2.6,5.5,3.9,12,3.9,19.5
		c0,7.5-1.3,14-3.9,19.5c-2.6,5.5-6.3,9.7-11,12.6c-4.7,2.9-10,4.3-15.9,4.3C136.5,142.6,131.2,141.2,126.5,138.3z M150.4,121.5
		c2-3.2,3-8.3,3-15.4c0-7-1-12.1-3-15.4c-2-3.2-4.6-4.9-8-4.9c-3.4,0-6.1,1.6-8,4.9c-2,3.2-3,8.4-3,15.4c0,7,1,12.1,3,15.4
		c2,3.2,4.7,4.8,8,4.8C145.8,126.4,148.5,124.8,150.4,121.5z"/>
	<path class="st1" d="M77.7,158.3c1.1,1,1.7,2.5,1.7,4.5v7.2h-4.2v-1.7c-0.7,1.3-1.9,1.9-3.8,1.9c-1,0-1.9-0.2-2.6-0.5
		c-0.7-0.4-1.3-0.8-1.7-1.4c-0.4-0.6-0.6-1.3-0.6-2.1c0-1.2,0.5-2.2,1.4-2.9c0.9-0.7,2.4-1,4.4-1h2.6c-0.1-1.4-1-2.1-2.8-2.1
		c-0.6,0-1.3,0.1-1.9,0.3c-0.6,0.2-1.2,0.5-1.6,0.8l-1.5-3.1c0.7-0.5,1.6-0.9,2.6-1.1c1-0.3,2.1-0.4,3.1-0.4
		C74.9,156.8,76.6,157.3,77.7,158.3z M74,167c0.4-0.3,0.7-0.6,0.9-1.1v-1.1h-2c-1.3,0-2,0.4-2,1.3c0,0.4,0.2,0.7,0.5,1
		s0.7,0.4,1.2,0.4C73.1,167.3,73.6,167.2,74,167z"/>
	<path class="st1" d="M82.3,152.2h4.6V170h-4.6V152.2z"/>
	<path class="st1" d="M103.5,157v13h-4.3v-1.4c-0.5,0.5-1.1,0.9-1.7,1.2c-0.7,0.3-1.4,0.4-2.1,0.4c-1.7,0-3-0.5-4-1.5
		c-1-1-1.5-2.5-1.5-4.5V157h4.6v6.5c0,1,0.2,1.7,0.6,2.1c0.4,0.4,0.9,0.7,1.6,0.7c0.7,0,1.3-0.3,1.8-0.8c0.5-0.5,0.7-1.3,0.7-2.3
		V157H103.5z"/>
	<path class="st1" d="M127.2,158.2c1,1,1.4,2.4,1.4,4.3v7.4h-4.6v-6.7c0-0.9-0.2-1.6-0.5-2c-0.3-0.4-0.8-0.6-1.5-0.6
		c-0.7,0-1.2,0.2-1.7,0.7c-0.4,0.5-0.6,1.2-0.6,2.2v6.5h-4.6v-6.7c0-1.8-0.7-2.7-2-2.7c-0.7,0-1.3,0.2-1.7,0.7
		c-0.4,0.5-0.6,1.2-0.6,2.2v6.5h-4.6v-13h4.3v1.4c0.5-0.5,1.1-0.9,1.7-1.2c0.7-0.3,1.4-0.4,2.2-0.4c0.9,0,1.7,0.2,2.4,0.5
		c0.7,0.3,1.3,0.8,1.8,1.5c0.5-0.7,1.2-1.2,1.9-1.5c0.8-0.4,1.6-0.5,2.6-0.5C125,156.8,126.2,157.3,127.2,158.2z"/>
	<path class="st1" d="M143.9,158.2c1,1,1.5,2.4,1.5,4.3v7.4h-4.6v-6.7c0-1.8-0.7-2.7-2.1-2.7c-0.8,0-1.4,0.3-1.9,0.8
		c-0.5,0.5-0.7,1.3-0.7,2.3v6.3h-4.6v-13h4.3v1.4c0.5-0.5,1.1-0.9,1.8-1.2c0.7-0.3,1.5-0.4,2.3-0.4
		C141.6,156.8,142.9,157.3,143.9,158.2z"/>
	<path class="st1" d="M148.5,154.9c-0.5-0.5-0.8-1-0.8-1.7s0.3-1.3,0.8-1.7c0.5-0.5,1.2-0.7,2-0.7s1.5,0.2,2,0.7s0.8,1,0.8,1.7
		c0,0.7-0.3,1.3-0.8,1.8c-0.5,0.5-1.2,0.7-2,0.7S149,155.3,148.5,154.9z M148.2,157h4.6v13h-4.6V157z"/>
</g>
</svg>
