<?xml version="1.0" encoding="utf-8"?>
<!-- Generator: Adobe Illustrator 23.0.4, SVG Export Plug-In . SVG Version: 6.00 Build 0)  -->
<svg version="1.1" id="Layer_1" xmlns="http://www.w3.org/2000/svg" xmlns:xlink="http://www.w3.org/1999/xlink" x="0px" y="0px"
	 viewBox="0 0 220 220" style="enable-background:new 0 0 220 220;" xml:space="preserve">
<style type="text/css">
	.st0{fill:none;stroke:url(#SVGID_1_);stroke-width:4;}
	.st1{fill:#FFFFFF;}
</style>
<linearGradient id="SVGID_1_" gradientUnits="userSpaceOnUse" x1="110" y1="222" x2="110" y2="2" gradientTransform="matrix(1 0 0 -1 0 222)">
	<stop  offset="0" style="stop-color:#6E2F62"/>
	<stop  offset="1" style="stop-color:#CC0000"/>
</linearGradient>
<circle class="st0" cx="110" cy="110" r="108"/>
<path class="st1" d="M144.9,101.9h-10.4V90h-18.7v11.9h-14.2L130.1,61h-20.5l-31.4,43.7v12.9h37V131h19.3v-13.4h10.4V101.9z
	 M79.6,146.8c-1.9,0-3.5,0.7-4.5,2c-0.9-1.4-2.4-2-4.2-2c-1.5,0-2.9,0.5-3.9,1.6V147h-4.3v13h4.6v-6.5c0-2,1-2.9,2.3-2.9
	c1.2,0,2,0.8,2,2.7v6.7h4.6v-6.5c0-2,1-2.9,2.3-2.9c1.2,0,2,0.8,2,2.7v6.7h4.6v-7.4C84.9,148.5,82.7,146.8,79.6,146.8z M94.5,160.2
	c4.3,0,7.3-2.8,7.3-6.7c0-3.9-3-6.7-7.3-6.7c-4.2,0-7.3,2.8-7.3,6.7C87.1,157.4,90.2,160.2,94.5,160.2z M94.5,156.6
	c-1.5,0-2.7-1.1-2.7-3.1c0-2,1.2-3.1,2.7-3.1c1.6,0,2.7,1.1,2.7,3.1C97.2,155.5,96.1,156.6,94.5,156.6z M112.4,146.8
	c-1.6,0-3.1,0.6-4.1,1.6V147h-4.3v13h4.6v-6.3c0-2.2,1.1-3.1,2.6-3.1c1.3,0,2.1,0.8,2.1,2.7v6.7h4.6v-7.4
	C117.8,148.5,115.5,146.8,112.4,146.8z M128.5,156.3c-0.4,0.3-0.9,0.4-1.4,0.4c-0.8,0-1.4-0.5-1.4-1.5v-4.3h3v-3.4h-3v-3.4h-4.6v3.4
	h-1.9v3.4h1.9v4.4c0,3.3,1.9,5,5.3,5c1.2,0,2.4-0.2,3.2-0.7L128.5,156.3z M139.9,146.8c-1.5,0-2.9,0.5-3.9,1.4v-6h-4.6V160h4.6v-6.3
	c0-2.2,1.1-3.1,2.6-3.1c1.3,0,2.1,0.8,2.1,2.7v6.7h4.6v-7.4C145.2,148.5,142.9,146.8,139.9,146.8z M152.8,160.2
	c4.2,0,6.4-1.9,6.4-4.3c0-5.2-7.7-3.2-7.7-5c0-0.5,0.6-0.9,2.1-0.9c1.2,0,2.4,0.2,3.7,1l1.4-3.1c-1.3-0.7-3.3-1.1-5.1-1.1
	c-4.1,0-6.3,1.9-6.3,4.3c0,5.2,7.7,3.2,7.7,5c0,0.6-0.5,0.9-2,0.9c-1.6,0-3.3-0.5-4.5-1.2l-1.4,3.1
	C148.3,159.7,150.6,160.2,152.8,160.2z"/>
</svg>
