<?xml version="1.0" encoding="utf-8"?>
<!-- Generator: Adobe Illustrator 23.0.4, SVG Export Plug-In . SVG Version: 6.00 Build 0)  -->
<svg version="1.1" id="Layer_1" xmlns="http://www.w3.org/2000/svg" xmlns:xlink="http://www.w3.org/1999/xlink" x="0px" y="0px"
	 viewBox="0 0 220 220" style="enable-background:new 0 0 220 220;" xml:space="preserve">
<style type="text/css">
	.st0{fill:none;stroke:url(#SVGID_1_);stroke-width:4;}
	.st1{fill:#FFFFFF;}
</style>
<linearGradient id="SVGID_1_" gradientUnits="userSpaceOnUse" x1="110" y1="278" x2="110" y2="498" gradientTransform="matrix(1 0 0 1 0 -278)">
	<stop  offset="0" style="stop-color:#003399"/>
	<stop  offset="1" style="stop-color:#6E2F62"/>
</linearGradient>
<circle class="st0" cx="110" cy="110" r="108"/>
<g>
	<path class="st1" d="M134.2,87.3c3.1,3.6,4.7,7.9,4.7,13c0,4.1-1.1,8-3.3,11.5c-2.2,3.5-5.6,6.4-10.2,8.5s-10.2,3.2-16.9,3.2
		c-4.9,0-9.8-0.6-14.6-1.8c-4.8-1.2-9-2.9-12.5-5.1l7.2-14.9c2.7,1.9,5.8,3.3,9.2,4.3c3.4,1,6.8,1.5,10.2,1.5c3.4,0,6.1-0.6,8.1-1.9
		c2-1.3,3-3.1,3-5.4c0-4.5-3.6-6.8-10.7-6.8h-8.3V81l12.5-13.5H84.8V52.2h50.6v12.4l-14.5,15.6C126.7,81.4,131.2,83.8,134.2,87.3z"
		/>
	<path class="st1" d="M52.9,138.6c1,0.5,1.7,1.3,2.3,2.3c0.6,1,0.9,2.2,0.9,3.5s-0.3,2.5-0.9,3.6c-0.6,1-1.3,1.8-2.3,2.4
		c-1,0.6-2,0.8-3.2,0.8c-1.7,0-3-0.5-3.8-1.5v1.3h-4.3v-17.8h4.6v5.9c0.9-0.9,2.1-1.3,3.6-1.3C50.9,137.8,51.9,138,52.9,138.6z
		 M50.7,146.8c0.5-0.6,0.8-1.3,0.8-2.3c0-1-0.3-1.7-0.8-2.3c-0.5-0.5-1.2-0.8-2-0.8c-0.8,0-1.5,0.3-2,0.8c-0.5,0.5-0.8,1.3-0.8,2.3
		c0,1,0.3,1.7,0.8,2.3c0.5,0.6,1.2,0.8,2,0.8C49.5,147.6,50.2,147.3,50.7,146.8z"/>
	<path class="st1" d="M60.9,150.4c-1.1-0.6-2-1.4-2.6-2.4c-0.6-1-0.9-2.2-0.9-3.5c0-1.3,0.3-2.4,0.9-3.5c0.6-1,1.5-1.8,2.6-2.4
		c1.1-0.6,2.4-0.9,3.8-0.9c1.4,0,2.7,0.3,3.8,0.9c1.1,0.6,2,1.4,2.6,2.4c0.6,1,0.9,2.2,0.9,3.5c0,1.3-0.3,2.5-0.9,3.5
		s-1.5,1.8-2.6,2.4c-1.1,0.6-2.4,0.9-3.8,0.9C63.3,151.2,62.1,150.9,60.9,150.4z M66.7,146.8c0.5-0.6,0.8-1.3,0.8-2.3
		c0-1-0.3-1.7-0.8-2.3c-0.5-0.5-1.2-0.8-2-0.8c-0.8,0-1.5,0.3-2,0.8c-0.5,0.5-0.8,1.3-0.8,2.3c0,1,0.3,1.7,0.8,2.3
		c0.5,0.6,1.2,0.8,2,0.8C65.5,147.6,66.2,147.3,66.7,146.8z"/>
	<path class="st1" d="M76.9,150.4c-1.1-0.6-2-1.4-2.6-2.4c-0.6-1-0.9-2.2-0.9-3.5c0-1.3,0.3-2.4,0.9-3.5c0.6-1,1.5-1.8,2.6-2.4
		c1.1-0.6,2.4-0.9,3.8-0.9c1.4,0,2.7,0.3,3.8,0.9c1.1,0.6,2,1.4,2.6,2.4c0.6,1,0.9,2.2,0.9,3.5c0,1.3-0.3,2.5-0.9,3.5
		s-1.5,1.8-2.6,2.4c-1.1,0.6-2.4,0.9-3.8,0.9C79.3,151.2,78,150.9,76.9,150.4z M82.7,146.8c0.5-0.6,0.8-1.3,0.8-2.3
		c0-1-0.3-1.7-0.8-2.3c-0.5-0.5-1.2-0.8-2-0.8c-0.8,0-1.5,0.3-2,0.8c-0.5,0.5-0.8,1.3-0.8,2.3c0,1,0.3,1.7,0.8,2.3
		c0.5,0.6,1.2,0.8,2,0.8C81.5,147.6,82.1,147.3,82.7,146.8z"/>
	<path class="st1" d="M99.1,150.5c-0.4,0.2-0.9,0.4-1.4,0.6c-0.6,0.1-1.1,0.2-1.8,0.2c-1.7,0-3-0.4-3.9-1.2
		c-0.9-0.8-1.4-2.1-1.4-3.7v-4.4h-1.9v-3.4h1.9v-3.4h4.6v3.4h3v3.4h-3v4.3c0,0.5,0.1,0.8,0.4,1.1s0.6,0.4,1,0.4c0.5,0,1-0.1,1.4-0.4
		L99.1,150.5z"/>
	<path class="st1" d="M103.3,150.4c-1.1-0.6-2-1.4-2.7-2.4c-0.6-1-0.9-2.2-0.9-3.5c0-1.3,0.3-2.5,0.9-3.5c0.6-1,1.5-1.8,2.7-2.4
		c1.1-0.6,2.4-0.9,3.9-0.9c1.5,0,2.7,0.3,3.8,0.9c1.1,0.6,1.8,1.5,2.3,2.6l-3.5,1.8c-0.6-1.2-1.5-1.8-2.6-1.8c-0.8,0-1.5,0.3-2,0.8
		c-0.5,0.5-0.8,1.3-0.8,2.3c0,1,0.3,1.7,0.8,2.3c0.5,0.6,1.2,0.8,2,0.8c1.1,0,2-0.6,2.6-1.8l3.5,1.8c-0.4,1.1-1.2,2-2.3,2.6
		c-1.1,0.6-2.3,0.9-3.8,0.9C105.7,151.2,104.4,150.9,103.3,150.4z"/>
	<path class="st1" d="M125.5,139.3c1.1,1,1.7,2.5,1.7,4.5v7.2h-4.2v-1.7c-0.7,1.3-1.9,1.9-3.8,1.9c-1,0-1.9-0.2-2.6-0.5
		s-1.3-0.8-1.7-1.4c-0.4-0.6-0.6-1.3-0.6-2.1c0-1.2,0.5-2.2,1.4-2.9c0.9-0.7,2.4-1,4.4-1h2.6c-0.1-1.4-1-2.1-2.8-2.1
		c-0.6,0-1.3,0.1-1.9,0.3c-0.6,0.2-1.2,0.5-1.6,0.8l-1.5-3.1c0.7-0.5,1.6-0.9,2.6-1.1c1-0.3,2.1-0.4,3.1-0.4
		C122.7,137.8,124.3,138.3,125.5,139.3z M121.7,148c0.4-0.3,0.7-0.6,0.9-1.1v-1.1h-2c-1.3,0-2,0.4-2,1.3c0,0.4,0.2,0.7,0.5,1
		s0.7,0.4,1.2,0.4S121.3,148.2,121.7,148z"/>
	<path class="st1" d="M150.8,139.2c1,1,1.4,2.4,1.4,4.3v7.4h-4.6v-6.7c0-0.9-0.2-1.6-0.5-2s-0.8-0.6-1.5-0.6c-0.7,0-1.2,0.2-1.7,0.7
		c-0.4,0.5-0.6,1.2-0.6,2.2v6.5h-4.6v-6.7c0-1.8-0.7-2.7-2-2.7c-0.7,0-1.3,0.2-1.7,0.7c-0.4,0.5-0.6,1.2-0.6,2.2v6.5H130v-13h4.3
		v1.4c0.5-0.5,1.1-0.9,1.7-1.2c0.7-0.3,1.4-0.4,2.2-0.4c0.9,0,1.7,0.2,2.4,0.5c0.7,0.3,1.3,0.8,1.8,1.5c0.5-0.7,1.2-1.2,1.9-1.5
		c0.8-0.4,1.6-0.5,2.6-0.5C148.6,137.8,149.9,138.3,150.8,139.2z"/>
	<path class="st1" d="M166.5,138.6c1,0.6,1.7,1.3,2.3,2.4c0.6,1,0.9,2.2,0.9,3.5c0,1.3-0.3,2.5-0.9,3.5c-0.6,1-1.3,1.8-2.3,2.4
		c-1,0.6-2,0.8-3.2,0.8c-1.5,0-2.7-0.5-3.6-1.4v5.8h-4.6V138h4.3v1.3c0.8-1,2.1-1.5,3.8-1.5C164.5,137.8,165.6,138.1,166.5,138.6z
		 M164.3,146.8c0.5-0.6,0.8-1.3,0.8-2.3s-0.3-1.7-0.8-2.3c-0.5-0.6-1.2-0.8-2-0.8s-1.5,0.3-2,0.8c-0.5,0.6-0.8,1.3-0.8,2.3
		s0.3,1.7,0.8,2.3c0.5,0.6,1.2,0.8,2,0.8S163.8,147.3,164.3,146.8z"/>
	<path class="st1" d="M173.3,150.8c-1.1-0.2-1.9-0.6-2.5-1l1.4-3.1c0.6,0.4,1.3,0.7,2.1,0.9c0.8,0.2,1.6,0.3,2.4,0.3
		c0.7,0,1.3-0.1,1.6-0.2c0.3-0.2,0.5-0.4,0.5-0.7c0-0.3-0.2-0.5-0.6-0.6c-0.4-0.1-1-0.2-1.8-0.3c-1-0.1-1.9-0.3-2.7-0.5
		c-0.7-0.2-1.4-0.6-1.9-1.2c-0.5-0.6-0.8-1.3-0.8-2.4c0-0.8,0.2-1.6,0.7-2.2c0.5-0.6,1.2-1.2,2.2-1.5s2.1-0.6,3.4-0.6
		c0.9,0,1.9,0.1,2.8,0.3c0.9,0.2,1.7,0.5,2.3,0.8l-1.4,3.1c-1.2-0.6-2.4-1-3.7-1c-0.7,0-1.2,0.1-1.6,0.3s-0.5,0.4-0.5,0.7
		c0,0.3,0.2,0.5,0.6,0.6c0.4,0.1,1,0.2,1.8,0.4c1.1,0.2,2,0.3,2.7,0.6c0.7,0.2,1.3,0.6,1.8,1.1c0.5,0.6,0.8,1.3,0.8,2.3
		c0,0.8-0.2,1.5-0.7,2.2c-0.5,0.6-1.2,1.2-2.2,1.5s-2.1,0.6-3.5,0.6C175.4,151.2,174.4,151.1,173.3,150.8z"/>
</g>
</svg>
