<?xml version="1.0" encoding="utf-8"?>
<!-- Generator: Adobe Illustrator 23.0.4, SVG Export Plug-In . SVG Version: 6.00 Build 0)  -->
<svg version="1.1" id="Layer_1" xmlns="http://www.w3.org/2000/svg" xmlns:xlink="http://www.w3.org/1999/xlink" x="0px" y="0px"
	 viewBox="0 0 220 220" style="enable-background:new 0 0 220 220;" xml:space="preserve">
<style type="text/css">
	.st0{fill:#FFFFFF;}
	.st1{fill:none;stroke:url(#SVGID_1_);stroke-width:4;}
</style>
<path class="st0" d="M80.2,124.3l13.2-12.2c10-9.2,11.9-15.4,11.9-22.2c0-13-11.1-21.3-27.2-21.3c-13.8,0-23.7,5.8-29,14.6l14.7,8.2
	c2.8-4.5,7.4-6.8,12.5-6.8c6,0,9,2.7,9,7.2c0,2.9-0.8,6.1-6.4,11.3l-26.2,24.5V140h54.5v-15.7H80.2z M139.2,95.5h-4.7l0.9-10.2h28.2
	V70H119l-3.5,40.9h19c10.7,0,13.6,2.8,13.6,7.1c0,4.7-4.5,7.4-11.2,7.4c-6.7,0-13.7-2-19.4-5.8l-7.1,14.9c7.1,4.5,17.4,6.9,27.1,6.9
	c21.1,0,30.5-11.4,30.5-23.9C168,105.1,159.9,95.5,139.2,95.5z M79,153c-1.7,0-3.5,0.4-4.8,1.3l1.3,2.6c0.7-0.6,1.9-0.9,2.9-0.9
	c1.5,0,2.2,0.6,2.3,1.7h-2.2c-3.4,0-4.8,1.2-4.8,3.2c0,1.9,1.4,3.3,4,3.3c1.6,0,2.7-0.5,3.2-1.6v1.4h3.5v-6
	C84.5,154.5,82.5,153,79,153z M78.8,161.8c-0.9,0-1.4-0.5-1.4-1.1c0-0.7,0.4-1.1,1.7-1.1h1.6v0.9C80.4,161.4,79.7,161.8,78.8,161.8z
	 M86.9,164h3.8v-14.8h-3.8V164z M100.8,153.2v5.2c0,1.8-0.9,2.6-2,2.6c-1.1,0-1.8-0.7-1.8-2.3v-5.4h-3.8v6.1c0,3.4,1.9,5,4.6,5
	c1.2,0,2.4-0.4,3.2-1.3v1.2h3.6v-10.8H100.8z M121.1,153c-1.6,0-2.9,0.6-3.8,1.7c-0.8-1.2-2-1.7-3.5-1.7c-1.3,0-2.4,0.4-3.2,1.3
	v-1.1H107V164h3.8v-5.4c0-1.7,0.8-2.4,1.9-2.4c1,0,1.6,0.7,1.6,2.2v5.6h3.8v-5.4c0-1.7,0.8-2.4,1.9-2.4c1,0,1.6,0.7,1.6,2.2v5.6h3.8
	v-6.2C125.5,154.4,123.7,153,121.1,153z M135,153c-1.4,0-2.6,0.5-3.4,1.4v-1.2h-3.6V164h3.8v-5.2c0-1.8,0.9-2.6,2.2-2.6
	c1.1,0,1.8,0.7,1.8,2.2v5.6h3.8v-6.2C139.4,154.4,137.5,153,135,153z M143.7,152c1.4,0,2.3-0.9,2.3-2.1c0-1.1-0.9-2-2.3-2
	s-2.3,0.9-2.3,2S142.3,152,143.7,152z M141.8,164h3.8v-10.8h-3.8V164z"/>
<linearGradient id="SVGID_1_" gradientUnits="userSpaceOnUse" x1="110" y1="222" x2="110" y2="2" gradientTransform="matrix(1 0 0 -1 0 222)">
	<stop  offset="0" style="stop-color:#3399CC"/>
	<stop  offset="1" style="stop-color:#CC0000"/>
</linearGradient>
<circle class="st1" cx="110" cy="110" r="108"/>
</svg>
