<?xml version="1.0" encoding="utf-8"?>
<!-- Generator: Adobe Illustrator 23.0.4, SVG Export Plug-In . SVG Version: 6.00 Build 0)  -->
<svg version="1.1" id="Layer_1" xmlns="http://www.w3.org/2000/svg" xmlns:xlink="http://www.w3.org/1999/xlink" x="0px" y="0px"
	 viewBox="0 0 220 220" style="enable-background:new 0 0 220 220;" xml:space="preserve">
<style type="text/css">
	.st0{fill:none;stroke:url(#SVGID_1_);stroke-width:4;}
	.st1{fill:#FFFFFF;}
</style>
<linearGradient id="SVGID_1_" gradientUnits="userSpaceOnUse" x1="110" y1="278" x2="110" y2="498" gradientTransform="matrix(1 0 0 1 0 -278)">
	<stop  offset="0" style="stop-color:#003399"/>
	<stop  offset="1" style="stop-color:#3399CC"/>
</linearGradient>
<circle class="st0" cx="110" cy="110" r="108"/>
<g>
	<path class="st1" d="M91.5,60.2v70H71.7V75.5h-13V60.2H91.5z"/>
	<path class="st1" d="M149.9,88.3c3.7,1.8,6.6,4.4,8.8,7.8c2.2,3.4,3.2,7.2,3.2,11.5c0,4.7-1.2,8.9-3.6,12.5
		c-2.4,3.6-5.7,6.4-9.9,8.4c-4.2,2-8.8,3-14,3c-10,0-17.9-3-23.7-8.9s-8.7-14.5-8.7-25.6c0-8,1.6-14.9,4.6-20.6
		c3.1-5.8,7.5-10.1,13-13.1c5.6-3,12.1-4.5,19.5-4.5c4,0,7.8,0.4,11.4,1.3c3.6,0.9,6.7,2.1,9.2,3.8l-7.2,14.2
		c-3.4-2.4-7.7-3.6-12.9-3.6c-5.1,0-9.2,1.4-12.3,4.2c-3.1,2.8-4.9,6.8-5.4,12.1c4-3.5,9.3-5.2,15.8-5.2
		C142.2,85.6,146.2,86.5,149.9,88.3z M140,115.1c1.8-1.6,2.6-3.8,2.6-6.5c0-2.7-0.9-4.8-2.6-6.4c-1.8-1.6-4.1-2.4-7-2.4
		c-2.9,0-5.2,0.8-7,2.4c-1.8,1.6-2.7,3.8-2.7,6.5c0,2.6,0.9,4.7,2.7,6.4c1.8,1.6,4.1,2.4,7.1,2.4C136,117.5,138.2,116.7,140,115.1z"
		/>
	<path class="st1" d="M64.7,158.5c-0.4,0.2-0.9,0.4-1.4,0.6c-0.6,0.1-1.1,0.2-1.8,0.2c-1.7,0-3-0.4-3.9-1.2
		c-0.9-0.8-1.4-2.1-1.4-3.7v-4.4h-1.9v-3.4h1.9v-3.4h4.6v3.4h3v3.4h-3v4.3c0,0.5,0.1,0.8,0.4,1.1s0.6,0.4,1,0.4c0.5,0,1-0.1,1.4-0.4
		L64.7,158.5z"/>
	<path class="st1" d="M79.3,153.6h-9.5c0.2,0.7,0.6,1.2,1.1,1.5c0.6,0.4,1.2,0.5,2.1,0.5c0.6,0,1.2-0.1,1.6-0.3
		c0.5-0.2,0.9-0.5,1.4-0.9l2.4,2.5c-1.3,1.4-3.1,2.1-5.5,2.1c-1.5,0-2.9-0.3-4-0.9s-2-1.4-2.7-2.4c-0.6-1-0.9-2.2-0.9-3.5
		c0-1.3,0.3-2.4,0.9-3.4c0.6-1,1.5-1.8,2.6-2.4c1.1-0.6,2.3-0.9,3.7-0.9c1.3,0,2.5,0.3,3.5,0.8c1.1,0.5,1.9,1.3,2.5,2.3
		c0.6,1,0.9,2.2,0.9,3.6C79.3,152.6,79.3,152.9,79.3,153.6z M70.6,149.6c-0.5,0.4-0.8,0.9-0.9,1.6h5.3c-0.1-0.7-0.4-1.2-0.9-1.6
		c-0.5-0.4-1.1-0.6-1.8-0.6C71.7,149,71.1,149.2,70.6,149.6z"/>
	<path class="st1" d="M91.6,147.3c1.1,1,1.7,2.5,1.7,4.5v7.2H89v-1.7c-0.7,1.3-1.9,1.9-3.8,1.9c-1,0-1.9-0.2-2.6-0.5
		c-0.7-0.4-1.3-0.8-1.7-1.4c-0.4-0.6-0.6-1.3-0.6-2.1c0-1.2,0.5-2.2,1.4-2.9c0.9-0.7,2.4-1,4.4-1h2.6c-0.1-1.4-1-2.1-2.8-2.1
		c-0.6,0-1.3,0.1-1.9,0.3c-0.6,0.2-1.2,0.5-1.6,0.8l-1.5-3.1c0.7-0.5,1.6-0.9,2.6-1.1c1-0.3,2.1-0.4,3.1-0.4
		C88.8,145.8,90.4,146.3,91.6,147.3z M87.8,156c0.4-0.3,0.7-0.6,0.9-1.1v-1.1h-2c-1.3,0-2,0.4-2,1.3c0,0.4,0.2,0.7,0.5,1
		s0.7,0.4,1.2,0.4C87,156.3,87.4,156.2,87.8,156z"/>
	<path class="st1" d="M99.1,158.4c-1.1-0.6-2-1.4-2.7-2.4c-0.6-1-0.9-2.2-0.9-3.5c0-1.3,0.3-2.5,0.9-3.5c0.6-1,1.5-1.8,2.7-2.4
		c1.1-0.6,2.4-0.9,3.9-0.9c1.5,0,2.7,0.3,3.8,0.9c1.1,0.6,1.8,1.5,2.3,2.6l-3.5,1.8c-0.6-1.2-1.5-1.8-2.6-1.8c-0.8,0-1.5,0.3-2,0.8
		c-0.5,0.5-0.8,1.3-0.8,2.3c0,1,0.3,1.7,0.8,2.3c0.5,0.6,1.2,0.8,2,0.8c1.1,0,2-0.6,2.6-1.8l3.5,1.8c-0.4,1.1-1.2,2-2.3,2.6
		c-1.1,0.6-2.3,0.9-3.8,0.9C101.5,159.2,100.2,158.9,99.1,158.4z"/>
	<path class="st1" d="M123.1,147.2c1,1,1.5,2.4,1.5,4.3v7.4H120v-6.7c0-1.8-0.7-2.7-2.1-2.7c-0.8,0-1.4,0.3-1.9,0.8
		c-0.5,0.5-0.7,1.3-0.7,2.3v6.3h-4.6v-17.8h4.6v6c0.5-0.5,1.1-0.8,1.8-1.1s1.4-0.4,2.2-0.4C120.8,145.8,122.1,146.3,123.1,147.2z"/>
	<path class="st1" d="M127.7,143.9c-0.5-0.5-0.8-1-0.8-1.7s0.3-1.3,0.8-1.7c0.5-0.5,1.2-0.7,2-0.7s1.5,0.2,2,0.7s0.8,1,0.8,1.7
		c0,0.7-0.3,1.3-0.8,1.8c-0.5,0.5-1.2,0.7-2,0.7S128.2,144.3,127.7,143.9z M127.4,146h4.6v13h-4.6V146z"/>
	<path class="st1" d="M147.3,147.2c1,1,1.5,2.4,1.5,4.3v7.4h-4.6v-6.7c0-1.8-0.7-2.7-2.1-2.7c-0.8,0-1.4,0.3-1.9,0.8
		c-0.5,0.5-0.7,1.3-0.7,2.3v6.3H135v-13h4.3v1.4c0.5-0.5,1.1-0.9,1.8-1.2c0.7-0.3,1.5-0.4,2.3-0.4
		C145,145.8,146.3,146.3,147.3,147.2z"/>
	<path class="st1" d="M165.8,146v10.6c0,2.4-0.7,4.2-2,5.4c-1.3,1.2-3.2,1.8-5.7,1.8c-1.3,0-2.5-0.1-3.6-0.4
		c-1.1-0.3-2.1-0.7-2.9-1.3l1.7-3.2c0.5,0.4,1.2,0.8,2,1c0.8,0.2,1.6,0.4,2.4,0.4c1.2,0,2.1-0.3,2.6-0.8s0.8-1.3,0.8-2.4v-0.4
		c-0.9,1-2.2,1.5-3.9,1.5c-1.2,0-2.2-0.3-3.2-0.8c-1-0.5-1.8-1.3-2.3-2.2c-0.6-1-0.9-2.1-0.9-3.3c0-1.2,0.3-2.3,0.9-3.3
		c0.6-1,1.4-1.7,2.3-2.2c1-0.5,2-0.8,3.2-0.8c1.9,0,3.2,0.6,4.1,1.8V146H165.8z M160.5,154c0.5-0.5,0.8-1.1,0.8-1.9
		c0-0.8-0.3-1.4-0.8-1.9c-0.5-0.5-1.2-0.7-2-0.7s-1.5,0.2-2.1,0.7c-0.5,0.5-0.8,1.1-0.8,1.9c0,0.8,0.3,1.4,0.8,1.9
		c0.5,0.5,1.2,0.7,2,0.7S160,154.5,160.5,154z"/>
	<path class="st1" d="M88,176c1,1,1.5,2.4,1.5,4.3v7.4h-4.6v-6.7c0-1.8-0.7-2.7-2.1-2.7c-0.8,0-1.4,0.3-1.9,0.8
		c-0.5,0.5-0.7,1.3-0.7,2.3v6.3h-4.6V170h4.6v6c0.5-0.5,1.1-0.8,1.8-1.1c0.7-0.2,1.4-0.4,2.2-0.4C85.7,174.6,87,175.1,88,176z"/>
	<path class="st1" d="M95.2,187.2c-1.1-0.6-2-1.4-2.6-2.4c-0.6-1-0.9-2.2-0.9-3.5c0-1.3,0.3-2.4,0.9-3.5c0.6-1,1.5-1.8,2.6-2.4
		c1.1-0.6,2.4-0.9,3.8-0.9c1.4,0,2.7,0.3,3.8,0.9c1.1,0.6,2,1.4,2.6,2.4s0.9,2.2,0.9,3.5c0,1.3-0.3,2.5-0.9,3.5s-1.5,1.8-2.6,2.4
		c-1.1,0.6-2.4,0.9-3.8,0.9C97.6,188,96.4,187.7,95.2,187.2z M101,183.6c0.5-0.6,0.8-1.3,0.8-2.3c0-1-0.3-1.7-0.8-2.3
		c-0.5-0.5-1.2-0.8-2-0.8c-0.8,0-1.5,0.3-2,0.8c-0.5,0.5-0.8,1.3-0.8,2.3c0,1,0.3,1.7,0.8,2.3c0.5,0.6,1.2,0.8,2,0.8
		C99.8,184.4,100.5,184.1,101,183.6z"/>
	<path class="st1" d="M122.1,174.8v13h-4.3v-1.4c-0.5,0.5-1.1,0.9-1.7,1.2c-0.7,0.3-1.4,0.4-2.1,0.4c-1.7,0-3-0.5-4-1.5
		c-1-1-1.5-2.5-1.5-4.5v-7.3h4.6v6.5c0,1,0.2,1.7,0.6,2.1c0.4,0.4,0.9,0.7,1.6,0.7c0.7,0,1.3-0.3,1.8-0.8c0.5-0.5,0.7-1.3,0.7-2.3
		v-6.3H122.1z"/>
	<path class="st1" d="M131.2,175c0.7-0.3,1.6-0.4,2.6-0.4v4.1c-0.4,0-0.8-0.1-1-0.1c-1,0-1.7,0.3-2.3,0.8c-0.6,0.5-0.8,1.3-0.8,2.4
		v6h-4.6v-13h4.3v1.6C129.9,175.8,130.5,175.3,131.2,175z"/>
	<path class="st1" d="M137.2,187.6c-1.1-0.2-1.9-0.6-2.5-1l1.4-3.1c0.6,0.4,1.3,0.7,2.1,0.9s1.6,0.3,2.4,0.3c0.7,0,1.3-0.1,1.6-0.2
		s0.5-0.4,0.5-0.7c0-0.3-0.2-0.5-0.6-0.6c-0.4-0.1-1-0.2-1.8-0.3c-1-0.1-1.9-0.3-2.7-0.5c-0.7-0.2-1.4-0.6-1.9-1.2
		c-0.5-0.6-0.8-1.3-0.8-2.4c0-0.8,0.2-1.6,0.7-2.2c0.5-0.6,1.2-1.2,2.2-1.5c1-0.4,2.1-0.6,3.4-0.6c0.9,0,1.9,0.1,2.8,0.3
		c0.9,0.2,1.7,0.5,2.3,0.8l-1.4,3.1c-1.2-0.6-2.4-1-3.7-1c-0.7,0-1.2,0.1-1.6,0.3s-0.5,0.4-0.5,0.7c0,0.3,0.2,0.5,0.6,0.6
		c0.4,0.1,1,0.2,1.8,0.4c1.1,0.2,2,0.3,2.7,0.6s1.3,0.6,1.8,1.1c0.5,0.6,0.8,1.3,0.8,2.3c0,0.8-0.2,1.5-0.7,2.2
		c-0.5,0.6-1.2,1.2-2.2,1.5c-1,0.4-2.1,0.6-3.5,0.6C139.3,188,138.3,187.9,137.2,187.6z"/>
</g>
</svg>
