<?xml version="1.0" encoding="utf-8"?>
<!-- Generator: Adobe Illustrator 23.0.4, SVG Export Plug-In . SVG Version: 6.00 Build 0)  -->
<svg version="1.1" id="Layer_1" xmlns="http://www.w3.org/2000/svg" xmlns:xlink="http://www.w3.org/1999/xlink" x="0px" y="0px"
	 viewBox="0 0 220 220" style="enable-background:new 0 0 220 220;" xml:space="preserve">
<style type="text/css">
	.st0{fill:none;stroke:url(#SVGID_1_);stroke-width:4;}
	.st1{fill:#FFFFFF;}
</style>
<linearGradient id="SVGID_1_" gradientUnits="userSpaceOnUse" x1="110" y1="222" x2="110" y2="2" gradientTransform="matrix(1 0 0 -1 0 222)">
	<stop  offset="0" style="stop-color:#3399CC"/>
	<stop  offset="1" style="stop-color:#CC0000"/>
</linearGradient>
<circle class="st0" cx="110" cy="110" r="108"/>
<path class="st1" d="M114.6,119.6h-10.4V133H84.9v-13.4h-37v-12.9L79.3,63h20.5l-28.5,40.9h14.2V92h18.7v11.9h10.4V119.6z
	 M144.7,88.5c9.8,0,17,2,21.7,6c4.7,4,7.1,9.3,7.1,16c0,4.3-1.1,8.3-3.4,12c-2.2,3.6-5.6,6.5-10.2,8.7c-4.5,2.1-10.2,3.2-16.9,3.2
	c-4.9,0-9.8-0.6-14.7-1.8c-4.8-1.2-8.9-2.9-12.4-5.1l7.1-14.9c2.8,1.9,5.9,3.3,9.2,4.3c3.4,1,6.8,1.5,10.2,1.5s6.1-0.6,8.1-1.9
	c2.1-1.3,3.1-3.2,3.1-5.5s-1-4.1-3-5.3c-2-1.2-5.5-1.8-10.6-1.8h-19l3.5-40.9h44.6v15.3h-28.2L140,88.5H144.7z M79.5,146
	c1.8,0,3.2,0.4,4.1,1.2c0.9,0.8,1.4,2.1,1.4,3.8v6h-3.5v-1.4c-0.5,1.1-1.6,1.6-3.2,1.6c-0.8,0-1.6-0.1-2.2-0.4
	c-0.6-0.3-1.1-0.7-1.4-1.2c-0.3-0.5-0.5-1.1-0.5-1.7c0-1,0.4-1.8,1.2-2.4c0.8-0.6,2-0.9,3.6-0.9h2.2c-0.1-1.1-0.8-1.7-2.3-1.7
	c-0.5,0-1,0.1-1.6,0.3c-0.5,0.2-1,0.4-1.4,0.7l-1.3-2.6c0.6-0.4,1.3-0.7,2.2-0.9C77.7,146.1,78.6,146,79.5,146z M79.3,154.8
	c0.4,0,0.8-0.1,1.2-0.3c0.3-0.2,0.6-0.5,0.7-0.9v-0.9h-1.6c-1.1,0-1.7,0.4-1.7,1.1c0,0.3,0.1,0.6,0.4,0.8
	C78.5,154.7,78.9,154.8,79.3,154.8z M87.4,142.2h3.8V157h-3.8V142.2z M105.1,146.2V157h-3.6v-1.2c-0.4,0.4-0.9,0.8-1.4,1
	c-0.6,0.2-1.2,0.3-1.8,0.3c-1.4,0-2.5-0.4-3.4-1.2c-0.8-0.8-1.2-2.1-1.2-3.7v-6.1h3.8v5.4c0,0.8,0.2,1.4,0.5,1.8
	c0.3,0.4,0.8,0.6,1.3,0.6c0.6,0,1.1-0.2,1.5-0.6c0.4-0.4,0.6-1.1,0.6-1.9v-5.2H105.1z M121.6,146c1.3,0,2.4,0.4,3.2,1.2
	c0.8,0.8,1.2,2,1.2,3.6v6.2h-3.8v-5.6c0-0.8-0.1-1.3-0.4-1.7c-0.3-0.4-0.7-0.5-1.2-0.5c-0.6,0-1,0.2-1.4,0.6c-0.3,0.4-0.5,1-0.5,1.8
	v5.4h-3.8v-5.6c0-1.5-0.5-2.2-1.6-2.2c-0.6,0-1.1,0.2-1.4,0.6c-0.3,0.4-0.5,1-0.5,1.8v5.4h-3.8v-10.8h3.6v1.1c0.4-0.4,0.9-0.8,1.4-1
	c0.6-0.2,1.2-0.3,1.8-0.3c0.8,0,1.4,0.1,2,0.4c0.6,0.3,1.1,0.7,1.5,1.3c0.4-0.5,1-1,1.6-1.3C120.1,146.1,120.9,146,121.6,146z
	 M135.5,146c1.3,0,2.4,0.4,3.2,1.2c0.8,0.8,1.2,2,1.2,3.6v6.2h-3.8v-5.6c0-1.5-0.6-2.2-1.8-2.2c-0.7,0-1.2,0.2-1.6,0.6
	c-0.4,0.4-0.6,1.1-0.6,1.9v5.2h-3.8v-10.8h3.6v1.2c0.4-0.4,0.9-0.8,1.5-1C134.1,146.1,134.8,146,135.5,146z M142.3,146.2h3.8V157
	h-3.8V146.2z M144.2,145c-0.7,0-1.3-0.2-1.7-0.6c-0.4-0.4-0.6-0.9-0.6-1.4s0.2-1.1,0.6-1.4c0.4-0.4,1-0.6,1.7-0.6
	c0.7,0,1.3,0.2,1.7,0.6c0.4,0.4,0.6,0.8,0.6,1.4c0,0.6-0.2,1.1-0.6,1.5C145.5,144.8,144.9,145,144.2,145z"/>
</svg>
