<?xml version="1.0" encoding="utf-8"?>
<!-- Generator: Adobe Illustrator 23.0.4, SVG Export Plug-In . SVG Version: 6.00 Build 0)  -->
<svg version="1.1" id="Layer_1" xmlns="http://www.w3.org/2000/svg" xmlns:xlink="http://www.w3.org/1999/xlink" x="0px" y="0px"
	 viewBox="0 0 220 220" style="enable-background:new 0 0 220 220;" xml:space="preserve">
<style type="text/css">
	.st0{fill:#FFFFFF;}
	.st1{fill:none;stroke:url(#SVGID_1_);stroke-width:4;}
</style>
<path class="st0" d="M57.9,57v15.3h13V127h19.8V57H57.9z M137,82.4c-6.6,0-11.9,1.8-15.8,5.2c1-10.7,7.7-16.3,17.7-16.3
	c4.5,0,8.9,0.8,12.9,3.6l7.2-14.2c-5.1-3.3-12.7-5.1-20.6-5.1c-22.1,0-37.2,13.9-37.2,38.3c0,22.7,12.8,34.5,32.4,34.5
	c15.3,0,27.5-9.3,27.5-23.9C161.1,91.1,150.2,82.4,137,82.4z M132.4,114.3c-6,0-9.8-3.6-9.8-8.8c0-5.3,4-8.9,9.7-8.9
	s9.6,3.4,9.6,8.8C141.9,110.9,138,114.3,132.4,114.3z M70.6,147.9c-0.3,0.2-0.7,0.3-1.2,0.3c-0.7,0-1.1-0.4-1.1-1.2v-3.6h2.5v-2.8
	h-2.5v-2.8h-3.8v2.8h-1.6v2.8h1.6v3.6c0,2.8,1.6,4.1,4.4,4.1c1,0,2-0.2,2.6-0.6L70.6,147.9z M83.8,145.6c0-3.6-2.6-5.6-5.8-5.6
	c-3.4,0-6,2.3-6,5.6c0,3.2,2.5,5.6,6.4,5.6c2.1,0,3.6-0.6,4.6-1.8l-2-2.1c-0.7,0.6-1.4,0.9-2.5,0.9c-1.4,0-2.3-0.6-2.7-1.7h7.9
	C83.8,146.2,83.8,145.9,83.8,145.6z M78,142.7c1.2,0,2,0.7,2.2,1.9h-4.4C76,143.4,76.8,142.7,78,142.7z M89.9,140
	c-1.7,0-3.5,0.4-4.8,1.3l1.3,2.6c0.7-0.6,1.9-0.9,2.9-0.9c1.5,0,2.2,0.6,2.3,1.7h-2.2c-3.4,0-4.8,1.2-4.8,3.2c0,1.9,1.4,3.3,4,3.3
	c1.6,0,2.7-0.5,3.2-1.6v1.4h3.5v-6C95.4,141.5,93.4,140,89.9,140z M89.7,148.8c-0.9,0-1.4-0.5-1.4-1.1c0-0.7,0.4-1.1,1.7-1.1h1.6
	v0.9C91.3,148.4,90.6,148.8,89.7,148.8z M103.5,151.2c2.5,0,4.3-1.1,5.1-3l-2.9-1.5c-0.5,1-1.3,1.5-2.2,1.5c-1.3,0-2.4-0.9-2.4-2.6
	c0-1.6,1-2.6,2.4-2.6c0.9,0,1.6,0.4,2.2,1.5l2.9-1.5c-0.7-1.9-2.6-3-5.1-3c-3.6,0-6.2,2.3-6.2,5.6
	C97.3,148.9,99.9,151.2,103.5,151.2z M117,140c-1.3,0-2.4,0.4-3.3,1.2v-5H110V151h3.8v-5.2c0-1.8,0.9-2.6,2.2-2.6
	c1.1,0,1.8,0.7,1.8,2.2v5.6h3.8v-6.2C121.5,141.4,119.6,140,117,140z M125.8,139c1.4,0,2.3-0.9,2.3-2.1c0-1.1-0.9-2-2.3-2
	s-2.3,0.9-2.3,2S124.4,139,125.8,139z M123.9,151h3.8v-10.8h-3.8V151z M137.2,140c-1.4,0-2.6,0.5-3.4,1.4v-1.2h-3.6V151h3.8v-5.2
	c0-1.8,0.9-2.6,2.2-2.6c1.1,0,1.8,0.7,1.8,2.2v5.6h3.8v-6.2C141.7,141.4,139.8,140,137.2,140z M152.3,140.2v1.3
	c-0.7-1-1.9-1.5-3.4-1.5c-2.9,0-5.3,2-5.3,5.2c0,3.2,2.4,5.2,5.3,5.2c1.4,0,2.5-0.4,3.2-1.3v0.4c0,1.7-0.9,2.6-2.9,2.6
	c-1.3,0-2.8-0.4-3.7-1.2l-1.4,2.7c1.3,0.9,3.3,1.4,5.4,1.4c4,0,6.4-1.9,6.4-6v-8.9H152.3z M149.8,147.4c-1.4,0-2.4-0.9-2.4-2.2
	c0-1.3,1-2.2,2.4-2.2s2.4,0.9,2.4,2.2C152.2,146.5,151.2,147.4,149.8,147.4z M87.8,164c-1.3,0-2.4,0.4-3.3,1.2v-5h-3.8V175h3.8v-5.2
	c0-1.8,0.9-2.6,2.2-2.6c1.1,0,1.8,0.7,1.8,2.2v5.6h3.8v-6.2C92.2,165.4,90.3,164,87.8,164z M100.2,175.2c3.6,0,6.1-2.3,6.1-5.6
	c0-3.3-2.5-5.6-6.1-5.6c-3.5,0-6.1,2.3-6.1,5.6C94.1,172.8,96.7,175.2,100.2,175.2z M100.2,172.2c-1.3,0-2.3-0.9-2.3-2.6
	c0-1.6,1-2.6,2.3-2.6c1.3,0,2.3,0.9,2.3,2.6C102.5,171.2,101.5,172.2,100.2,172.2z M115.7,164.2v5.2c0,1.8-0.9,2.6-2,2.6
	c-1.1,0-1.8-0.7-1.8-2.3v-5.4h-3.8v6.1c0,3.4,1.9,5,4.6,5c1.2,0,2.4-0.4,3.2-1.3v1.2h3.6v-10.8H115.7z M125.6,165.5v-1.3H122V175
	h3.8v-5c0-1.9,1.1-2.7,2.6-2.7c0.3,0,0.5,0,0.9,0.1V164C127.6,164,126.4,164.5,125.6,165.5z M134.7,175.2c3.5,0,5.4-1.6,5.4-3.6
	c0-4.3-6.4-2.7-6.4-4.2c0-0.4,0.5-0.8,1.7-0.8c1,0,2,0.2,3.1,0.8l1.1-2.6c-1.1-0.6-2.8-0.9-4.3-0.9c-3.4,0-5.3,1.6-5.3,3.6
	c0,4.3,6.4,2.7,6.4,4.1c0,0.5-0.4,0.7-1.7,0.7c-1.3,0-2.8-0.4-3.8-1l-1.1,2.6C131,174.7,132.9,175.2,134.7,175.2z"/>
<linearGradient id="SVGID_1_" gradientUnits="userSpaceOnUse" x1="110" y1="222" x2="110" y2="2" gradientTransform="matrix(1 0 0 -1 0 222)">
	<stop  offset="0" style="stop-color:#003399"/>
	<stop  offset="1" style="stop-color:#3399CC"/>
</linearGradient>
<circle class="st1" cx="110" cy="110" r="108"/>
</svg>
