<?xml version="1.0" encoding="utf-8"?>
<!-- Generator: Adobe Illustrator 23.0.4, SVG Export Plug-In . SVG Version: 6.00 Build 0)  -->
<svg version="1.1" id="Layer_1" xmlns="http://www.w3.org/2000/svg" xmlns:xlink="http://www.w3.org/1999/xlink" x="0px" y="0px"
	 viewBox="0 0 220 220" style="enable-background:new 0 0 220 220;" xml:space="preserve">
<style type="text/css">
	.st0{fill:none;stroke:url(#SVGID_1_);stroke-width:4;}
	.st1{fill:#FFFFFF;}
</style>
<linearGradient id="SVGID_1_" gradientUnits="userSpaceOnUse" x1="110" y1="222" x2="110" y2="2" gradientTransform="matrix(1 0 0 -1 0 222)">
	<stop  offset="0" style="stop-color:#003399"/>
	<stop  offset="1" style="stop-color:#6E2F62"/>
</linearGradient>
<circle class="st0" cx="110" cy="110" r="108"/>
<path class="st1" d="M110.6,113.3l13.2-12.2c10-9.2,11.9-15.4,11.9-22.2c0-13-11.1-21.3-27.2-21.3c-13.8,0-23.7,5.8-29,14.6
	l14.7,8.2c2.8-4.5,7.4-6.8,12.5-6.8c6,0,9,2.7,9,7.2c0,2.9-0.8,6.1-6.4,11.3l-26.2,24.5V129h54.5v-15.7H110.6z M47.9,144.8
	c-1.5,0-2.7,0.4-3.6,1.3v-5.9h-4.6V158h4.3v-1.3c0.9,1,2.1,1.5,3.8,1.5c3.5,0,6.4-2.6,6.4-6.7C54.3,147.3,51.5,144.8,47.9,144.8z
	 M47,154.6c-1.5,0-2.7-1.1-2.7-3.1c0-2,1.2-3.1,2.7-3.1s2.7,1.1,2.7,3.1C49.7,153.5,48.5,154.6,47,154.6z M63,158.2
	c4.3,0,7.3-2.8,7.3-6.7c0-3.9-3-6.7-7.3-6.7c-4.2,0-7.3,2.8-7.3,6.7C55.6,155.4,58.7,158.2,63,158.2z M63,154.6
	c-1.5,0-2.7-1.1-2.7-3.1c0-2,1.2-3.1,2.7-3.1c1.6,0,2.7,1.1,2.7,3.1C65.7,153.5,64.5,154.6,63,154.6z M78.9,158.2
	c4.3,0,7.3-2.8,7.3-6.7c0-3.9-3-6.7-7.3-6.7c-4.2,0-7.3,2.8-7.3,6.7C71.6,155.4,74.7,158.2,78.9,158.2z M78.9,154.6
	c-1.5,0-2.7-1.1-2.7-3.1c0-2,1.2-3.1,2.7-3.1c1.6,0,2.7,1.1,2.7,3.1C81.7,153.5,80.5,154.6,78.9,154.6z M96.2,154.3
	c-0.4,0.3-0.9,0.4-1.4,0.4c-0.8,0-1.4-0.5-1.4-1.5v-4.3h3v-3.4h-3v-3.4h-4.6v3.4H87v3.4h1.9v4.4c0,3.3,1.9,5,5.3,5
	c1.2,0,2.4-0.2,3.2-0.7L96.2,154.3z M105.4,158.2c3,0,5.2-1.3,6.1-3.6l-3.5-1.8c-0.6,1.2-1.5,1.8-2.6,1.8c-1.6,0-2.8-1.1-2.8-3.1
	c0-2,1.2-3.1,2.8-3.1c1.1,0,2,0.5,2.6,1.8l3.5-1.8c-0.9-2.3-3.1-3.6-6.1-3.6c-4.4,0-7.5,2.8-7.5,6.7
	C97.9,155.4,101,158.2,105.4,158.2z M118.8,144.8c-2,0-4.2,0.5-5.7,1.5l1.5,3.1c0.9-0.7,2.3-1.1,3.5-1.1c1.8,0,2.7,0.7,2.8,2.1h-2.6
	c-4,0-5.8,1.5-5.8,3.9c0,2.3,1.7,4,4.8,4c1.9,0,3.2-0.6,3.8-1.9v1.7h4.2v-7.2C125.4,146.6,123,144.8,118.8,144.8z M118.6,155.3
	c-1.1,0-1.7-0.6-1.7-1.3c0-0.8,0.5-1.3,2-1.3h2v1.1C120.5,154.9,119.6,155.3,118.6,155.3z M145.2,144.8c-1.9,0-3.5,0.7-4.5,2
	c-0.9-1.4-2.4-2-4.2-2c-1.5,0-2.9,0.5-3.9,1.6V145h-4.3v13h4.6v-6.5c0-2,1-2.9,2.3-2.9c1.2,0,2,0.8,2,2.7v6.7h4.6v-6.5
	c0-2,1-2.9,2.3-2.9c1.2,0,2,0.8,2,2.7v6.7h4.6v-7.4C150.5,146.5,148.3,144.8,145.2,144.8z M161.6,144.8c-1.7,0-3,0.5-3.8,1.5V145
	h-4.3v17.7h4.6v-5.8c0.9,0.9,2.1,1.4,3.6,1.4c3.5,0,6.4-2.6,6.4-6.7C167.9,147.4,165.1,144.8,161.6,144.8z M160.6,154.6
	c-1.5,0-2.7-1.1-2.7-3.1s1.2-3.1,2.7-3.1c1.5,0,2.7,1.1,2.7,3.1S162.1,154.6,160.6,154.6z M174.8,158.2c4.2,0,6.4-1.9,6.4-4.3
	c0-5.2-7.7-3.2-7.7-5c0-0.5,0.6-0.9,2.1-0.9c1.2,0,2.4,0.2,3.7,1l1.4-3.1c-1.3-0.7-3.3-1.1-5.1-1.1c-4.1,0-6.3,1.9-6.3,4.3
	c0,5.2,7.7,3.2,7.7,5c0,0.6-0.5,0.9-2,0.9c-1.6,0-3.3-0.5-4.5-1.2l-1.4,3.1C170.3,157.7,172.6,158.2,174.8,158.2z"/>
</svg>
