<?xml version="1.0" encoding="utf-8"?>
<svg viewBox="44.028 -0.829 220.836 222.82" fill="none" xmlns="http://www.w3.org/2000/svg">
  <defs>
    <linearGradient id="paint0_linear_9_15" x1="155" y1="0" x2="155" y2="220" gradientUnits="userSpaceOnUse">
      <stop stop-color="#3399CC"/>
      <stop offset="1" stop-color="#CC0000"/>
    </linearGradient>
  </defs>
  <path d="M96.398 70V140H76.598V85.3H63.598V70H96.398ZM172.925 126.6H162.525V140H143.225V126.6H106.225V113.7L137.625 70H158.125L129.625 110.9H143.825V99H162.525V110.9H172.925V126.6ZM207.845 141.4C201.845 141.4 196.512 139.967 191.845 137.1C187.178 134.233 183.512 130.067 180.845 124.6C178.245 119.067 176.945 112.533 176.945 105C176.945 97.4667 178.245 90.9667 180.845 85.5C183.512 79.9667 187.178 75.7667 191.845 72.9C196.512 70.0333 201.845 68.6 207.845 68.6C213.778 68.6 219.078 70.0333 223.745 72.9C228.412 75.7667 232.045 79.9667 234.645 85.5C237.312 90.9667 238.645 97.4667 238.645 105C238.645 112.533 237.312 119.067 234.645 124.6C232.045 130.067 228.412 134.233 223.745 137.1C219.078 139.967 213.778 141.4 207.845 141.4ZM207.845 125.2C211.178 125.2 213.812 123.6 215.745 120.4C217.745 117.133 218.745 112 218.745 105C218.745 98 217.745 92.9 215.745 89.7C213.812 86.4333 211.178 84.8 207.845 84.8C204.445 84.8 201.745 86.4333 199.745 89.7C197.812 92.9 196.845 98 196.845 105C196.845 112 197.812 117.133 199.745 120.4C201.745 123.6 204.445 125.2 207.845 125.2ZM121.455 152.98C123.255 152.98 124.629 153.393 125.575 154.22C126.522 155.033 126.995 156.287 126.995 157.98V164H123.455V162.6C122.909 163.653 121.842 164.18 120.255 164.18C119.415 164.18 118.689 164.033 118.075 163.74C117.462 163.447 116.995 163.053 116.675 162.56C116.369 162.053 116.215 161.48 116.215 160.84C116.215 159.813 116.609 159.02 117.395 158.46C118.182 157.887 119.395 157.6 121.035 157.6H123.195C123.129 156.453 122.362 155.88 120.895 155.88C120.375 155.88 119.849 155.967 119.315 156.14C118.782 156.3 118.329 156.527 117.955 156.82L116.675 154.24C117.275 153.84 118.002 153.533 118.855 153.32C119.722 153.093 120.589 152.98 121.455 152.98ZM121.315 161.78C121.755 161.78 122.142 161.673 122.475 161.46C122.809 161.247 123.049 160.933 123.195 160.52V159.58H121.555C120.449 159.58 119.895 159.947 119.895 160.68C119.895 161.013 120.022 161.28 120.275 161.48C120.529 161.68 120.875 161.78 121.315 161.78ZM129.394 149.16H133.194V164H129.394V149.16ZM147.063 153.16V164H143.443V162.84C143.043 163.28 142.563 163.613 142.003 163.84C141.443 164.067 140.85 164.18 140.223 164.18C138.823 164.18 137.703 163.767 136.863 162.94C136.037 162.113 135.623 160.873 135.623 159.22V153.16H139.423V158.6C139.423 159.413 139.577 160.007 139.883 160.38C140.19 160.753 140.637 160.94 141.223 160.94C141.823 160.94 142.31 160.733 142.683 160.32C143.07 159.893 143.263 159.247 143.263 158.38V153.16H147.063ZM163.631 152.98C164.964 152.98 166.024 153.38 166.811 154.18C167.611 154.98 168.011 156.187 168.011 157.8V164H164.211V158.42C164.211 157.66 164.064 157.1 163.771 156.74C163.491 156.38 163.091 156.2 162.571 156.2C161.998 156.2 161.538 156.4 161.191 156.8C160.844 157.2 160.671 157.807 160.671 158.62V164H156.871V158.42C156.871 156.94 156.324 156.2 155.231 156.2C154.644 156.2 154.178 156.4 153.831 156.8C153.484 157.2 153.311 157.807 153.311 158.62V164H149.511V153.16H153.131V154.3C153.531 153.86 154.004 153.533 154.551 153.32C155.111 153.093 155.718 152.98 156.371 152.98C157.131 152.98 157.811 153.12 158.411 153.4C159.011 153.68 159.498 154.107 159.871 154.68C160.298 154.133 160.838 153.713 161.491 153.42C162.144 153.127 162.858 152.98 163.631 152.98ZM177.469 152.98C178.816 152.98 179.896 153.38 180.709 154.18C181.536 154.98 181.949 156.187 181.949 157.8V164H178.149V158.42C178.149 156.94 177.556 156.2 176.369 156.2C175.716 156.2 175.189 156.413 174.789 156.84C174.403 157.267 174.209 157.907 174.209 158.76V164H170.409V153.16H174.029V154.34C174.456 153.9 174.963 153.567 175.549 153.34C176.136 153.1 176.776 152.98 177.469 152.98ZM184.335 153.16H188.135V164H184.335V153.16ZM186.235 151.96C185.542 151.96 184.982 151.767 184.555 151.38C184.129 150.993 183.915 150.513 183.915 149.94C183.915 149.367 184.129 148.887 184.555 148.5C184.982 148.113 185.542 147.92 186.235 147.92C186.929 147.92 187.489 148.107 187.915 148.48C188.342 148.84 188.555 149.307 188.555 149.88C188.555 150.48 188.342 150.98 187.915 151.38C187.489 151.767 186.929 151.96 186.235 151.96Z" fill="white"/>
  <circle cx="155" cy="110" r="108" stroke="url(#paint0_linear_9_15)" stroke-width="4"/>
</svg>