<svg width="220" height="220" viewBox="0 0 220 220" fill="none" xmlns="http://www.w3.org/2000/svg">
<circle cx="110" cy="110" r="108" stroke="url(#paint0_linear_408_26)" stroke-width="4"/>
<path d="M19.3808 137V125.22L44.2708 101.945C46.0441 100.298 47.3424 98.8417 48.1658 97.575C49.0524 96.3083 49.6224 95.1683 49.8758 94.155C50.1924 93.0783 50.3508 92.0967 50.3508 91.21C50.3508 89.0567 49.6224 87.3783 48.1658 86.175C46.7724 84.9717 44.6508 84.37 41.8008 84.37C39.3941 84.37 37.1458 84.9083 35.0558 85.985C32.9658 87.0617 31.2558 88.6767 29.9258 90.83L15.9608 83.04C18.4308 78.86 22.0091 75.5033 26.6958 72.97C31.3824 70.4367 36.9874 69.17 43.5108 69.17C48.6408 69.17 53.1374 69.9933 57.0008 71.64C60.8641 73.2867 63.8724 75.63 66.0258 78.67C68.2424 81.71 69.3508 85.2883 69.3508 89.405C69.3508 91.5583 69.0658 93.7117 68.4958 95.865C67.9258 97.955 66.8174 100.203 65.1708 102.61C63.5874 104.953 61.2124 107.582 58.0458 110.495L38.2858 128.735L35.1508 122.085H71.1558V137H19.3808ZM105.986 138.33C100.286 138.33 95.2192 136.968 90.7859 134.245C86.4159 131.522 82.9642 127.595 80.4309 122.465C77.8975 117.335 76.6309 111.097 76.6309 103.75C76.6309 96.4033 77.8975 90.165 80.4309 85.035C82.9642 79.905 86.4159 75.9783 90.7859 73.255C95.2192 70.5317 100.286 69.17 105.986 69.17C111.623 69.17 116.626 70.5317 120.996 73.255C125.429 75.9783 128.913 79.905 131.446 85.035C133.979 90.165 135.246 96.4033 135.246 103.75C135.246 111.097 133.979 117.335 131.446 122.465C128.913 127.595 125.429 131.522 120.996 134.245C116.626 136.968 111.623 138.33 105.986 138.33ZM105.986 122.94C108.013 122.94 109.786 122.307 111.306 121.04C112.889 119.773 114.124 117.747 115.011 114.96C115.898 112.11 116.341 108.373 116.341 103.75C116.341 99.0633 115.898 95.3267 115.011 92.54C114.124 89.7533 112.889 87.7267 111.306 86.46C109.786 85.1933 108.013 84.56 105.986 84.56C103.959 84.56 102.154 85.1933 100.571 86.46C99.0509 87.7267 97.8159 89.7533 96.8659 92.54C95.9792 95.3267 95.5359 99.0633 95.5359 103.75C95.5359 108.373 95.9792 112.11 96.8659 114.96C97.8159 117.747 99.0509 119.773 100.571 121.04C102.154 122.307 103.959 122.94 105.986 122.94ZM171.02 138.33C165.32 138.33 160.253 136.968 155.82 134.245C151.45 131.522 147.998 127.595 145.465 122.465C142.932 117.335 141.665 111.097 141.665 103.75C141.665 96.4033 142.932 90.165 145.465 85.035C147.998 79.905 151.45 75.9783 155.82 73.255C160.253 70.5317 165.32 69.17 171.02 69.17C176.657 69.17 181.66 70.5317 186.03 73.255C190.463 75.9783 193.947 79.905 196.48 85.035C199.013 90.165 200.28 96.4033 200.28 103.75C200.28 111.097 199.013 117.335 196.48 122.465C193.947 127.595 190.463 131.522 186.03 134.245C181.66 136.968 176.657 138.33 171.02 138.33ZM171.02 122.94C173.047 122.94 174.82 122.307 176.34 121.04C177.923 119.773 179.158 117.747 180.045 114.96C180.932 112.11 181.375 108.373 181.375 103.75C181.375 99.0633 180.932 95.3267 180.045 92.54C179.158 89.7533 177.923 87.7267 176.34 86.46C174.82 85.1933 173.047 84.56 171.02 84.56C168.993 84.56 167.188 85.1933 165.605 86.46C164.085 87.7267 162.85 89.7533 161.9 92.54C161.013 95.3267 160.57 99.0633 160.57 103.75C160.57 108.373 161.013 112.11 161.9 114.96C162.85 117.747 164.085 119.773 165.605 121.04C167.188 122.307 168.993 122.94 171.02 122.94ZM80.9552 161V158.98L80.6952 158.48V154.76C80.6952 154.16 80.5086 153.7 80.1352 153.38C79.7752 153.047 79.1952 152.88 78.3952 152.88C77.8752 152.88 77.3486 152.967 76.8152 153.14C76.2819 153.3 75.8286 153.527 75.4552 153.82L74.1752 151.24C74.7886 150.84 75.5219 150.533 76.3752 150.32C77.2419 150.093 78.1019 149.98 78.9552 149.98C80.7152 149.98 82.0752 150.387 83.0352 151.2C84.0086 152 84.4952 153.26 84.4952 154.98V161H80.9552ZM77.7552 161.18C76.8886 161.18 76.1552 161.033 75.5552 160.74C74.9552 160.447 74.4952 160.047 74.1752 159.54C73.8686 159.033 73.7152 158.467 73.7152 157.84C73.7152 157.173 73.8819 156.6 74.2152 156.12C74.5619 155.627 75.0886 155.253 75.7952 155C76.5019 154.733 77.4152 154.6 78.5352 154.6H81.0952V156.58H79.0552C78.4419 156.58 78.0086 156.68 77.7552 156.88C77.5152 157.08 77.3952 157.347 77.3952 157.68C77.3952 158.013 77.5219 158.28 77.7752 158.48C78.0286 158.68 78.3752 158.78 78.8152 158.78C79.2286 158.78 79.6019 158.68 79.9352 158.48C80.2819 158.267 80.5352 157.947 80.6952 157.52L81.2152 158.92C81.0152 159.667 80.6219 160.233 80.0352 160.62C79.4619 160.993 78.7019 161.18 77.7552 161.18ZM86.8938 161V146.16H90.6938V161H86.8938ZM97.7234 161.18C96.8434 161.18 96.05 161.007 95.3434 160.66C94.65 160.313 94.1034 159.773 93.7034 159.04C93.3167 158.293 93.1234 157.353 93.1234 156.22V150.16H96.9234V155.6C96.9234 156.44 97.0767 157.04 97.3834 157.4C97.7034 157.76 98.15 157.94 98.7234 157.94C99.0967 157.94 99.4367 157.853 99.7434 157.68C100.05 157.507 100.297 157.233 100.483 156.86C100.67 156.473 100.763 155.98 100.763 155.38V150.16H104.563V161H100.943V157.94L101.643 158.8C101.27 159.6 100.73 160.2 100.023 160.6C99.3167 160.987 98.55 161.18 97.7234 161.18ZM121.131 149.98C121.971 149.98 122.718 150.153 123.371 150.5C124.038 150.833 124.558 151.353 124.931 152.06C125.318 152.767 125.511 153.68 125.511 154.8V161H121.711V155.42C121.711 154.647 121.564 154.087 121.271 153.74C120.978 153.38 120.578 153.2 120.071 153.2C119.711 153.2 119.384 153.287 119.091 153.46C118.798 153.633 118.571 153.9 118.411 154.26C118.251 154.607 118.171 155.06 118.171 155.62V161H114.371V155.42C114.371 154.647 114.224 154.087 113.931 153.74C113.651 153.38 113.251 153.2 112.731 153.2C112.358 153.2 112.024 153.287 111.731 153.46C111.451 153.633 111.224 153.9 111.051 154.26C110.891 154.607 110.811 155.06 110.811 155.62V161H107.011V150.16H110.631V153.18L109.911 152.32C110.311 151.547 110.858 150.967 111.551 150.58C112.244 150.18 113.018 149.98 113.871 149.98C114.844 149.98 115.698 150.233 116.431 150.74C117.178 151.233 117.678 152.007 117.931 153.06L116.691 152.8C117.078 151.92 117.658 151.233 118.431 150.74C119.218 150.233 120.118 149.98 121.131 149.98ZM134.969 149.98C135.809 149.98 136.569 150.153 137.249 150.5C137.929 150.833 138.463 151.353 138.849 152.06C139.249 152.767 139.449 153.68 139.449 154.8V161H135.649V155.42C135.649 154.647 135.489 154.087 135.169 153.74C134.863 153.38 134.429 153.2 133.869 153.2C133.469 153.2 133.103 153.293 132.769 153.48C132.436 153.653 132.176 153.927 131.989 154.3C131.803 154.673 131.709 155.16 131.709 155.76V161H127.909V150.16H131.529V153.24L130.829 152.34C131.243 151.553 131.809 150.967 132.529 150.58C133.249 150.18 134.063 149.98 134.969 149.98ZM141.835 161V150.16H145.635V161H141.835ZM143.735 148.96C143.042 148.96 142.482 148.767 142.055 148.38C141.629 147.993 141.415 147.513 141.415 146.94C141.415 146.367 141.629 145.887 142.055 145.5C142.482 145.113 143.042 144.92 143.735 144.92C144.429 144.92 144.989 145.107 145.415 145.48C145.842 145.84 146.055 146.307 146.055 146.88C146.055 147.48 145.842 147.98 145.415 148.38C145.002 148.767 144.442 148.96 143.735 148.96Z" fill="white"/>
<defs>
<linearGradient id="paint0_linear_408_26" x1="110" y1="0" x2="110" y2="220" gradientUnits="userSpaceOnUse">
<stop stop-color="#3399CC"/>
<stop offset="1" stop-color="#CC0000"/>
</linearGradient>
</defs>
</svg>
