<svg width="220" height="220" viewBox="0 0 220 220" fill="none" xmlns="http://www.w3.org/2000/svg">
<path d="M218 110C218 169.647 169.647 218 110 218C50.3532 218 2 169.647 2 110C2 50.3532 50.3532 2 110 2C169.647 2 218 50.3532 218 110Z" stroke="url(#paint0_linear_408_8)" stroke-width="4"/>
<path d="M108.529 59.6C115.129 59.6 120.829 60.9 125.629 63.5C130.496 66.1 134.263 69.9667 136.929 75.1C139.663 80.1667 141.029 86.5 141.029 94.1C141.029 102.233 139.429 109.167 136.229 114.9C133.096 120.567 128.729 124.9 123.129 127.9C117.596 130.9 111.129 132.4 103.729 132.4C99.8626 132.4 96.1293 131.933 92.5293 131C88.9293 130.133 85.8293 128.9 83.2293 127.3L90.4293 113.1C92.4293 114.5 94.496 115.467 96.6293 116C98.8293 116.467 101.063 116.7 103.329 116.7C108.729 116.7 113.029 115.067 116.229 111.8C119.429 108.533 121.029 103.767 121.029 97.5C121.029 96.3667 121.029 95.2 121.029 94C121.029 92.7333 120.929 91.4667 120.729 90.2L125.629 94.3C124.429 96.7667 122.863 98.8333 120.929 100.5C118.996 102.167 116.729 103.433 114.129 104.3C111.529 105.167 108.563 105.6 105.229 105.6C100.829 105.6 96.796 104.7 93.1293 102.9C89.5293 101.033 86.6293 98.4667 84.4293 95.2C82.2293 91.8667 81.1293 87.9667 81.1293 83.5C81.1293 78.6333 82.3626 74.4333 84.8293 70.9C87.296 67.3 90.596 64.5333 94.7293 62.6C98.8626 60.6 103.463 59.6 108.529 59.6ZM109.829 73.7C107.963 73.7 106.329 74.0667 104.929 74.8C103.529 75.5333 102.396 76.5667 101.529 77.9C100.729 79.1667 100.329 80.7333 100.329 82.6C100.329 85.2667 101.196 87.4 102.929 89C104.729 90.6 107.063 91.4 109.929 91.4C111.863 91.4 113.563 91.0333 115.029 90.3C116.496 89.5667 117.629 88.5333 118.429 87.2C119.229 85.8667 119.629 84.3 119.629 82.5C119.629 80.7667 119.229 79.2667 118.429 78C117.629 76.6667 116.496 75.6333 115.029 74.9C113.563 74.1 111.829 73.7 109.829 73.7ZM49.9293 160.216C48.7613 160.216 47.7853 159.976 47.0013 159.496C46.2333 159.016 45.6573 158.28 45.2733 157.288C44.8893 156.296 44.6973 155.024 44.6973 153.472C44.6973 151.952 44.8973 150.696 45.2973 149.704C45.7133 148.712 46.3133 147.976 47.0973 147.496C47.8813 147.016 48.8253 146.776 49.9293 146.776C51.1133 146.776 52.1853 147.048 53.1453 147.592C54.1213 148.136 54.8893 148.912 55.4493 149.92C56.0253 150.912 56.3133 152.096 56.3133 153.472C56.3133 154.864 56.0253 156.064 55.4493 157.072C54.8893 158.064 54.1213 158.84 53.1453 159.4C52.1853 159.944 51.1133 160.216 49.9293 160.216ZM41.7453 160V142.192H46.3053V149.176L46.0653 153.472L46.0893 157.768V160H41.7453ZM48.9693 156.592C49.4813 156.592 49.9373 156.472 50.3373 156.232C50.7533 155.992 51.0813 155.64 51.3213 155.176C51.5773 154.696 51.7053 154.128 51.7053 153.472C51.7053 152.816 51.5773 152.264 51.3213 151.816C51.0813 151.352 50.7533 151 50.3373 150.76C49.9373 150.52 49.4813 150.4 48.9693 150.4C48.4573 150.4 47.9933 150.52 47.5773 150.76C47.1773 151 46.8493 151.352 46.5933 151.816C46.3533 152.264 46.2333 152.816 46.2333 153.472C46.2333 154.128 46.3533 154.696 46.5933 155.176C46.8493 155.64 47.1773 155.992 47.5773 156.232C47.9933 156.472 48.4573 156.592 48.9693 156.592ZM64.9608 160.216C63.5368 160.216 62.2728 159.928 61.1688 159.352C60.0648 158.776 59.1928 157.984 58.5527 156.976C57.9288 155.952 57.6168 154.784 57.6168 153.472C57.6168 152.16 57.9288 151 58.5527 149.992C59.1928 148.984 60.0648 148.2 61.1688 147.64C62.2728 147.064 63.5368 146.776 64.9608 146.776C66.3848 146.776 67.6488 147.064 68.7528 147.64C69.8728 148.2 70.7448 148.984 71.3688 149.992C71.9928 151 72.3048 152.16 72.3048 153.472C72.3048 154.784 71.9928 155.952 71.3688 156.976C70.7448 157.984 69.8728 158.776 68.7528 159.352C67.6488 159.928 66.3848 160.216 64.9608 160.216ZM64.9608 156.592C65.4888 156.592 65.9528 156.472 66.3528 156.232C66.7688 155.992 67.0968 155.64 67.3368 155.176C67.5768 154.696 67.6968 154.128 67.6968 153.472C67.6968 152.816 67.5768 152.264 67.3368 151.816C67.0968 151.352 66.7688 151 66.3528 150.76C65.9528 150.52 65.4888 150.4 64.9608 150.4C64.4488 150.4 63.9848 150.52 63.5688 150.76C63.1688 151 62.8408 151.352 62.5848 151.816C62.3448 152.264 62.2248 152.816 62.2248 153.472C62.2248 154.128 62.3448 154.696 62.5848 155.176C62.8408 155.64 63.1688 155.992 63.5688 156.232C63.9848 156.472 64.4488 156.592 64.9608 156.592ZM80.9451 160.216C79.5211 160.216 78.2571 159.928 77.1531 159.352C76.0491 158.776 75.1771 157.984 74.5371 156.976C73.9131 155.952 73.6011 154.784 73.6011 153.472C73.6011 152.16 73.9131 151 74.5371 149.992C75.1771 148.984 76.0491 148.2 77.1531 147.64C78.2571 147.064 79.5211 146.776 80.9451 146.776C82.3691 146.776 83.6331 147.064 84.7371 147.64C85.8571 148.2 86.7291 148.984 87.3531 149.992C87.9771 151 88.2891 152.16 88.2891 153.472C88.2891 154.784 87.9771 155.952 87.3531 156.976C86.7291 157.984 85.8571 158.776 84.7371 159.352C83.6331 159.928 82.3691 160.216 80.9451 160.216ZM80.9451 156.592C81.4731 156.592 81.9371 156.472 82.3371 156.232C82.7531 155.992 83.0811 155.64 83.3211 155.176C83.5611 154.696 83.6811 154.128 83.6811 153.472C83.6811 152.816 83.5611 152.264 83.3211 151.816C83.0811 151.352 82.7531 151 82.3371 150.76C81.9371 150.52 81.4731 150.4 80.9451 150.4C80.4331 150.4 79.9691 150.52 79.5531 150.76C79.1531 151 78.8251 151.352 78.5691 151.816C78.3291 152.264 78.2091 152.816 78.2091 153.472C78.2091 154.128 78.3291 154.696 78.5691 155.176C78.8251 155.64 79.1531 155.992 79.5531 156.232C79.9691 156.472 80.4331 156.592 80.9451 156.592ZM96.2095 160.216C94.5455 160.216 93.2495 159.808 92.3215 158.992C91.3935 158.16 90.9295 156.912 90.9295 155.248V144.088H95.4895V155.2C95.4895 155.664 95.6175 156.032 95.8735 156.304C96.1295 156.56 96.4575 156.688 96.8575 156.688C97.4015 156.688 97.8655 156.552 98.2495 156.28L99.3775 159.472C98.9935 159.728 98.5215 159.912 97.9615 160.024C97.4015 160.152 96.8175 160.216 96.2095 160.216ZM89.0335 150.88V147.472H98.4655V150.88H89.0335ZM107.409 160.216C105.969 160.216 104.681 159.928 103.545 159.352C102.425 158.776 101.545 157.984 100.905 156.976C100.265 155.952 99.9449 154.784 99.9449 153.472C99.9449 152.16 100.265 151 100.905 149.992C101.545 148.984 102.425 148.2 103.545 147.64C104.681 147.064 105.969 146.776 107.409 146.776C108.881 146.776 110.153 147.088 111.225 147.712C112.297 148.336 113.057 149.216 113.505 150.352L109.977 152.152C109.673 151.544 109.297 151.104 108.849 150.832C108.401 150.544 107.913 150.4 107.385 150.4C106.857 150.4 106.377 150.52 105.945 150.76C105.513 151 105.169 151.352 104.913 151.816C104.673 152.264 104.553 152.816 104.553 153.472C104.553 154.144 104.673 154.712 104.913 155.176C105.169 155.64 105.513 155.992 105.945 156.232C106.377 156.472 106.857 156.592 107.385 156.592C107.913 156.592 108.401 156.456 108.849 156.184C109.297 155.896 109.673 155.448 109.977 154.84L113.505 156.64C113.057 157.776 112.297 158.656 111.225 159.28C110.153 159.904 108.881 160.216 107.409 160.216ZM123.166 160V157.576L122.854 156.976V152.512C122.854 151.792 122.63 151.24 122.182 150.856C121.75 150.456 121.054 150.256 120.094 150.256C119.47 150.256 118.838 150.36 118.198 150.568C117.558 150.76 117.014 151.032 116.566 151.384L115.03 148.288C115.766 147.808 116.646 147.44 117.67 147.184C118.71 146.912 119.742 146.776 120.766 146.776C122.878 146.776 124.51 147.264 125.662 148.24C126.83 149.2 127.414 150.712 127.414 152.776V160H123.166ZM119.326 160.216C118.286 160.216 117.406 160.04 116.686 159.688C115.966 159.336 115.414 158.856 115.03 158.248C114.662 157.64 114.478 156.96 114.478 156.208C114.478 155.408 114.678 154.72 115.078 154.144C115.494 153.552 116.126 153.104 116.974 152.8C117.822 152.48 118.918 152.32 120.262 152.32H123.334V154.696H120.886C120.15 154.696 119.63 154.816 119.326 155.056C119.038 155.296 118.894 155.616 118.894 156.016C118.894 156.416 119.046 156.736 119.35 156.976C119.654 157.216 120.07 157.336 120.598 157.336C121.094 157.336 121.542 157.216 121.942 156.976C122.358 156.72 122.662 156.336 122.854 155.824L123.478 157.504C123.238 158.4 122.766 159.08 122.062 159.544C121.374 159.992 120.462 160.216 119.326 160.216ZM147.236 146.776C148.244 146.776 149.14 146.984 149.924 147.4C150.724 147.8 151.348 148.424 151.796 149.272C152.26 150.12 152.492 151.216 152.492 152.56V160H147.932V153.304C147.932 152.376 147.756 151.704 147.404 151.288C147.052 150.856 146.572 150.64 145.964 150.64C145.532 150.64 145.14 150.744 144.788 150.952C144.436 151.16 144.164 151.48 143.972 151.912C143.78 152.328 143.684 152.872 143.684 153.544V160H139.124V153.304C139.124 152.376 138.948 151.704 138.596 151.288C138.26 150.856 137.78 150.64 137.156 150.64C136.708 150.64 136.308 150.744 135.956 150.952C135.62 151.16 135.348 151.48 135.14 151.912C134.948 152.328 134.852 152.872 134.852 153.544V160H130.292V146.992H134.636V150.616L133.772 149.584C134.252 148.656 134.908 147.96 135.74 147.496C136.572 147.016 137.5 146.776 138.524 146.776C139.692 146.776 140.716 147.08 141.596 147.688C142.492 148.28 143.092 149.208 143.396 150.472L141.908 150.16C142.372 149.104 143.068 148.28 143.996 147.688C144.94 147.08 146.02 146.776 147.236 146.776ZM163.554 160.216C162.45 160.216 161.506 159.976 160.722 159.496C159.938 159 159.338 158.264 158.922 157.288C158.522 156.296 158.322 155.032 158.322 153.496C158.322 151.944 158.514 150.68 158.898 149.704C159.282 148.712 159.858 147.976 160.626 147.496C161.41 147.016 162.386 146.776 163.554 146.776C164.738 146.776 165.81 147.056 166.77 147.616C167.746 148.16 168.514 148.936 169.074 149.944C169.65 150.936 169.938 152.12 169.938 153.496C169.938 154.872 169.65 156.064 169.074 157.072C168.514 158.08 167.746 158.856 166.77 159.4C165.81 159.944 164.738 160.216 163.554 160.216ZM155.37 164.656V146.992H159.714V149.2L159.69 153.496L159.93 157.816V164.656H155.37ZM162.594 156.592C163.106 156.592 163.562 156.472 163.962 156.232C164.378 155.992 164.706 155.64 164.946 155.176C165.202 154.712 165.33 154.152 165.33 153.496C165.33 152.84 165.202 152.28 164.946 151.816C164.706 151.352 164.378 151 163.962 150.76C163.562 150.52 163.106 150.4 162.594 150.4C162.082 150.4 161.618 150.52 161.202 150.76C160.802 151 160.474 151.352 160.218 151.816C159.978 152.28 159.858 152.84 159.858 153.496C159.858 154.152 159.978 154.712 160.218 155.176C160.474 155.64 160.802 155.992 161.202 156.232C161.618 156.472 162.082 156.592 162.594 156.592ZM176.786 160.216C175.682 160.216 174.602 160.088 173.546 159.832C172.506 159.576 171.666 159.256 171.026 158.872L172.394 155.752C173.002 156.12 173.714 156.416 174.53 156.64C175.346 156.848 176.146 156.952 176.93 156.952C177.698 156.952 178.226 156.872 178.514 156.712C178.818 156.552 178.97 156.336 178.97 156.064C178.97 155.808 178.826 155.624 178.538 155.512C178.266 155.384 177.898 155.288 177.434 155.224C176.986 155.16 176.49 155.088 175.946 155.008C175.402 154.928 174.85 154.824 174.29 154.696C173.746 154.552 173.242 154.344 172.778 154.072C172.33 153.784 171.97 153.4 171.698 152.92C171.426 152.44 171.29 151.832 171.29 151.096C171.29 150.264 171.53 149.528 172.01 148.888C172.506 148.232 173.226 147.72 174.17 147.352C175.114 146.968 176.266 146.776 177.626 146.776C178.538 146.776 179.458 146.872 180.386 147.064C181.33 147.24 182.122 147.512 182.762 147.88L181.394 150.976C180.754 150.608 180.114 150.36 179.474 150.232C178.834 150.088 178.226 150.016 177.65 150.016C176.882 150.016 176.338 150.104 176.018 150.28C175.714 150.456 175.562 150.672 175.562 150.928C175.562 151.184 175.698 151.384 175.97 151.528C176.242 151.656 176.602 151.76 177.05 151.84C177.514 151.904 178.018 151.976 178.562 152.056C179.106 152.12 179.65 152.224 180.194 152.368C180.754 152.512 181.258 152.728 181.706 153.016C182.17 153.288 182.538 153.664 182.81 154.144C183.082 154.608 183.218 155.208 183.218 155.944C183.218 156.744 182.97 157.464 182.474 158.104C181.994 158.744 181.274 159.256 180.314 159.64C179.37 160.024 178.194 160.216 176.786 160.216Z" fill="white"/>
<defs>
<linearGradient id="paint0_linear_408_8" x1="110" y1="0" x2="110" y2="220" gradientUnits="userSpaceOnUse">
<stop stop-color="#003399"/>
<stop offset="1" stop-color="#6E2F62"/>
</linearGradient>
</defs>
</svg>
