<svg width="220" height="220" viewBox="0 0 220 220" fill="none" xmlns="http://www.w3.org/2000/svg">
<path d="M218 110C218 169.647 169.647 218 110 218C50.3532 218 2 169.647 2 110C2 50.3532 50.3532 2 110 2C169.647 2 218 50.3532 218 110Z" stroke="url(#paint0_linear_9_4)" stroke-width="4"/>
<path d="M118.729 86.4C123.129 86.4 127.163 87.3333 130.829 89.2C134.496 91 137.396 93.6 139.529 97C141.729 100.333 142.829 104.167 142.829 108.5C142.829 113.233 141.596 117.433 139.129 121.1C136.729 124.7 133.429 127.5 129.229 129.5C125.096 131.433 120.463 132.4 115.329 132.4C105.329 132.4 97.4293 129.433 91.6293 123.5C85.8293 117.567 82.9293 109.033 82.9293 97.9C82.9293 89.9 84.4626 83.0333 87.5293 77.3C90.6626 71.5 95.0293 67.1 100.629 64.1C106.229 61.1 112.729 59.6 120.129 59.6C124.129 59.6 127.929 60.0333 131.529 60.9C135.129 61.7667 138.196 63.0333 140.729 64.7L133.529 78.9C130.129 76.5 125.829 75.3 120.629 75.3C115.563 75.3 111.463 76.7 108.329 79.5C105.196 82.3 103.396 86.3333 102.929 91.6C106.929 88.1333 112.196 86.4 118.729 86.4ZM114.129 118.3C116.929 118.3 119.196 117.5 120.929 115.9C122.729 114.3 123.629 112.133 123.629 109.4C123.629 106.733 122.729 104.6 120.929 103C119.196 101.4 116.896 100.6 114.029 100.6C111.163 100.6 108.829 101.433 107.029 103.1C105.229 104.7 104.329 106.833 104.329 109.5C104.329 112.1 105.196 114.233 106.929 115.9C108.729 117.5 111.129 118.3 114.129 118.3ZM49.9293 146.776C51.1133 146.776 52.1853 147.048 53.1453 147.592C54.1213 148.136 54.8893 148.92 55.4493 149.944C56.0253 150.952 56.3133 152.128 56.3133 153.472C56.3133 154.816 56.0253 156 55.4493 157.024C54.8893 158.048 54.1213 158.84 53.1453 159.4C52.1853 159.944 51.1133 160.216 49.9293 160.216C48.2173 160.216 46.9373 159.712 46.0893 158.704V160H41.7453V142.192H46.3053V148.12C47.1853 147.224 48.3933 146.776 49.9293 146.776ZM48.9693 156.592C49.7693 156.592 50.4253 156.32 50.9373 155.776C51.4493 155.216 51.7053 154.448 51.7053 153.472C51.7053 152.512 51.4493 151.76 50.9373 151.216C50.4253 150.672 49.7693 150.4 48.9693 150.4C48.1693 150.4 47.5133 150.672 47.0013 151.216C46.4893 151.76 46.2333 152.512 46.2333 153.472C46.2333 154.448 46.4893 155.216 47.0013 155.776C47.5133 156.32 48.1693 156.592 48.9693 156.592ZM64.9608 160.216C63.5688 160.216 62.3128 159.928 61.1928 159.352C60.0728 158.776 59.1928 157.976 58.5527 156.952C57.9288 155.928 57.6168 154.768 57.6168 153.472C57.6168 152.192 57.9288 151.04 58.5527 150.016C59.1928 148.992 60.0648 148.2 61.1688 147.64C62.2888 147.064 63.5528 146.776 64.9608 146.776C66.3688 146.776 67.6328 147.064 68.7528 147.64C69.8728 148.2 70.7448 148.992 71.3688 150.016C71.9928 151.024 72.3048 152.176 72.3048 153.472C72.3048 154.768 71.9928 155.928 71.3688 156.952C70.7448 157.976 69.8728 158.776 68.7528 159.352C67.6328 159.928 66.3688 160.216 64.9608 160.216ZM64.9608 156.592C65.7608 156.592 66.4168 156.32 66.9288 155.776C67.4408 155.216 67.6968 154.448 67.6968 153.472C67.6968 152.512 67.4408 151.76 66.9288 151.216C66.4168 150.672 65.7608 150.4 64.9608 150.4C64.1608 150.4 63.5048 150.672 62.9928 151.216C62.4808 151.76 62.2248 152.512 62.2248 153.472C62.2248 154.448 62.4808 155.216 62.9928 155.776C63.5048 156.32 64.1608 156.592 64.9608 156.592ZM80.9451 160.216C79.5531 160.216 78.2971 159.928 77.1771 159.352C76.0571 158.776 75.1771 157.976 74.5371 156.952C73.9131 155.928 73.6011 154.768 73.6011 153.472C73.6011 152.192 73.9131 151.04 74.5371 150.016C75.1771 148.992 76.0491 148.2 77.1531 147.64C78.2731 147.064 79.5371 146.776 80.9451 146.776C82.3531 146.776 83.6171 147.064 84.7371 147.64C85.8571 148.2 86.7291 148.992 87.3531 150.016C87.9771 151.024 88.2891 152.176 88.2891 153.472C88.2891 154.768 87.9771 155.928 87.3531 156.952C86.7291 157.976 85.8571 158.776 84.7371 159.352C83.6171 159.928 82.3531 160.216 80.9451 160.216ZM80.9451 156.592C81.7451 156.592 82.4011 156.32 82.9131 155.776C83.4251 155.216 83.6811 154.448 83.6811 153.472C83.6811 152.512 83.4251 151.76 82.9131 151.216C82.4011 150.672 81.7451 150.4 80.9451 150.4C80.1451 150.4 79.4891 150.672 78.9771 151.216C78.4651 151.76 78.2091 152.512 78.2091 153.472C78.2091 154.448 78.4651 155.216 78.9771 155.776C79.4891 156.32 80.1451 156.592 80.9451 156.592ZM99.3775 159.472C98.9935 159.712 98.5215 159.896 97.9615 160.024C97.4175 160.152 96.8335 160.216 96.2095 160.216C94.5135 160.216 93.2095 159.8 92.2975 158.968C91.3855 158.136 90.9295 156.896 90.9295 155.248V150.88H89.0335V147.472H90.9295V144.088H95.4895V147.472H98.4655V150.88H95.4895V155.2C95.4895 155.664 95.6095 156.032 95.8495 156.304C96.1055 156.56 96.4415 156.688 96.8575 156.688C97.3855 156.688 97.8495 156.552 98.2495 156.28L99.3775 159.472ZM107.409 160.216C105.969 160.216 104.681 159.928 103.545 159.352C102.409 158.776 101.521 157.976 100.881 156.952C100.257 155.928 99.9449 154.768 99.9449 153.472C99.9449 152.176 100.257 151.024 100.881 150.016C101.521 148.992 102.409 148.2 103.545 147.64C104.681 147.064 105.969 146.776 107.409 146.776C108.881 146.776 110.153 147.096 111.225 147.736C112.297 148.36 113.057 149.232 113.505 150.352L109.977 152.152C109.385 150.984 108.521 150.4 107.385 150.4C106.569 150.4 105.889 150.672 105.345 151.216C104.817 151.76 104.553 152.512 104.553 153.472C104.553 154.448 104.817 155.216 105.345 155.776C105.889 156.32 106.569 156.592 107.385 156.592C108.521 156.592 109.385 156.008 109.977 154.84L113.505 156.64C113.057 157.76 112.297 158.64 111.225 159.28C110.153 159.904 108.881 160.216 107.409 160.216ZM120.766 146.776C122.926 146.776 124.574 147.272 125.71 148.264C126.846 149.24 127.414 150.744 127.414 152.776V160H123.166V158.32C122.51 159.584 121.23 160.216 119.326 160.216C118.318 160.216 117.446 160.04 116.71 159.688C115.974 159.336 115.414 158.864 115.03 158.272C114.662 157.664 114.478 156.976 114.478 156.208C114.478 154.976 114.95 154.024 115.894 153.352C116.838 152.664 118.294 152.32 120.262 152.32H122.854C122.774 150.944 121.854 150.256 120.094 150.256C119.47 150.256 118.838 150.36 118.198 150.568C117.558 150.76 117.014 151.032 116.566 151.384L115.03 148.288C115.75 147.808 116.622 147.44 117.646 147.184C118.686 146.912 119.726 146.776 120.766 146.776ZM120.598 157.336C121.126 157.336 121.59 157.208 121.99 156.952C122.39 156.696 122.678 156.32 122.854 155.824V154.696H120.886C119.558 154.696 118.894 155.136 118.894 156.016C118.894 156.416 119.046 156.736 119.35 156.976C119.654 157.216 120.07 157.336 120.598 157.336ZM147.236 146.776C148.836 146.776 150.108 147.256 151.052 148.216C152.012 149.176 152.492 150.624 152.492 152.56V160H147.932V153.304C147.932 152.392 147.756 151.72 147.404 151.288C147.068 150.856 146.588 150.64 145.964 150.64C145.276 150.64 144.724 150.88 144.308 151.36C143.892 151.84 143.684 152.568 143.684 153.544V160H139.124V153.304C139.124 151.528 138.468 150.64 137.156 150.64C136.452 150.64 135.892 150.88 135.476 151.36C135.06 151.84 134.852 152.568 134.852 153.544V160H130.292V146.992H134.636V148.36C135.116 147.832 135.684 147.44 136.34 147.184C137.012 146.912 137.74 146.776 138.524 146.776C139.436 146.776 140.252 146.944 140.972 147.28C141.692 147.616 142.276 148.128 142.724 148.816C143.236 148.16 143.884 147.656 144.668 147.304C145.452 146.952 146.308 146.776 147.236 146.776ZM163.554 146.776C164.738 146.776 165.81 147.056 166.77 147.616C167.746 148.16 168.514 148.944 169.074 149.968C169.65 150.976 169.938 152.152 169.938 153.496C169.938 154.84 169.65 156.024 169.074 157.048C168.514 158.056 167.746 158.84 166.77 159.4C165.81 159.944 164.738 160.216 163.554 160.216C162.034 160.216 160.826 159.76 159.93 158.848V164.656H155.37V146.992H159.714V148.288C160.562 147.28 161.842 146.776 163.554 146.776ZM162.594 156.592C163.394 156.592 164.05 156.32 164.562 155.776C165.074 155.216 165.33 154.456 165.33 153.496C165.33 152.536 165.074 151.784 164.562 151.24C164.05 150.68 163.394 150.4 162.594 150.4C161.794 150.4 161.138 150.68 160.626 151.24C160.114 151.784 159.858 152.536 159.858 153.496C159.858 154.456 160.114 155.216 160.626 155.776C161.138 156.32 161.794 156.592 162.594 156.592ZM176.786 160.216C175.698 160.216 174.626 160.096 173.57 159.856C172.514 159.6 171.666 159.272 171.026 158.872L172.394 155.752C172.986 156.12 173.69 156.416 174.506 156.64C175.322 156.848 176.13 156.952 176.93 156.952C177.666 156.952 178.186 156.88 178.49 156.736C178.81 156.576 178.97 156.352 178.97 156.064C178.97 155.776 178.778 155.576 178.394 155.464C178.026 155.336 177.434 155.216 176.618 155.104C175.578 154.976 174.69 154.808 173.954 154.6C173.234 154.392 172.61 154.008 172.082 153.448C171.554 152.888 171.29 152.104 171.29 151.096C171.29 150.264 171.538 149.528 172.034 148.888C172.53 148.232 173.25 147.72 174.194 147.352C175.154 146.968 176.298 146.776 177.626 146.776C178.57 146.776 179.506 146.872 180.434 147.064C181.362 147.256 182.138 147.528 182.762 147.88L181.394 150.976C180.242 150.336 178.994 150.016 177.65 150.016C176.93 150.016 176.402 150.104 176.066 150.28C175.73 150.44 175.562 150.656 175.562 150.928C175.562 151.232 175.746 151.448 176.114 151.576C176.482 151.688 177.09 151.808 177.938 151.936C179.01 152.096 179.898 152.28 180.602 152.488C181.306 152.696 181.914 153.08 182.426 153.64C182.954 154.184 183.218 154.952 183.218 155.944C183.218 156.76 182.97 157.496 182.474 158.152C181.978 158.792 181.242 159.296 180.266 159.664C179.306 160.032 178.146 160.216 176.786 160.216Z" fill="white"/>
<defs>
<linearGradient id="paint0_linear_9_4" x1="110" y1="0" x2="110" y2="220" gradientUnits="userSpaceOnUse">
<stop stop-color="#003399"/>
<stop offset="1" stop-color="#6E2F62"/>
</linearGradient>
</defs>
</svg>
