<?xml version="1.0" encoding="utf-8"?>
<!-- Generator: Adobe Illustrator 23.0.4, SVG Export Plug-In . SVG Version: 6.00 Build 0)  -->
<svg version="1.1" id="Layer_1" xmlns="http://www.w3.org/2000/svg" xmlns:xlink="http://www.w3.org/1999/xlink" x="0px" y="0px"
	 viewBox="0 0 220 220" style="enable-background:new 0 0 220 220;" xml:space="preserve">
<style type="text/css">
	.st0{fill:none;stroke:url(#SVGID_1_);stroke-width:4;}
	.st1{fill:#FFFFFF;}
</style>
<linearGradient id="SVGID_1_" gradientUnits="userSpaceOnUse" x1="110" y1="278" x2="110" y2="498" gradientTransform="matrix(1 0 0 1 0 -278)">
	<stop  offset="0" style="stop-color:#6E2F62"/>
	<stop  offset="1" style="stop-color:#CC0000"/>
</linearGradient>
<circle class="st0" cx="110" cy="110" r="108"/>
<g>
	<path class="st1" d="M145.2,116.8h-10.4v13.4h-19.3v-13.4h-37v-12.9l31.4-43.7h20.5l-28.5,40.9H116V89.2h18.7v11.9h10.4V116.8z"/>
	<path class="st1" d="M83.7,147.2c1,1,1.4,2.4,1.4,4.3v7.4h-4.6v-6.7c0-0.9-0.2-1.6-0.5-2c-0.3-0.4-0.8-0.6-1.5-0.6
		c-0.7,0-1.2,0.2-1.7,0.7c-0.4,0.5-0.6,1.2-0.6,2.2v6.5h-4.6v-6.7c0-1.8-0.7-2.7-2-2.7c-0.7,0-1.3,0.2-1.7,0.7
		c-0.4,0.5-0.6,1.2-0.6,2.2v6.5H63v-13h4.3v1.4c0.5-0.5,1.1-0.9,1.7-1.2c0.7-0.3,1.4-0.4,2.2-0.4c0.9,0,1.7,0.2,2.4,0.5
		c0.7,0.3,1.3,0.8,1.8,1.5c0.5-0.7,1.2-1.2,1.9-1.5c0.8-0.4,1.6-0.5,2.6-0.5C81.5,145.8,82.8,146.3,83.7,147.2z"/>
	<path class="st1" d="M91,158.4c-1.1-0.6-2-1.4-2.6-2.4c-0.6-1-0.9-2.2-0.9-3.5c0-1.3,0.3-2.4,0.9-3.5c0.6-1,1.5-1.8,2.6-2.4
		c1.1-0.6,2.4-0.9,3.8-0.9c1.4,0,2.7,0.3,3.8,0.9c1.1,0.6,2,1.4,2.6,2.4c0.6,1,0.9,2.2,0.9,3.5c0,1.3-0.3,2.5-0.9,3.5
		s-1.5,1.8-2.6,2.4c-1.1,0.6-2.4,0.9-3.8,0.9C93.4,159.2,92.1,158.9,91,158.4z M96.7,154.8c0.5-0.6,0.8-1.3,0.8-2.3
		c0-1-0.3-1.7-0.8-2.3c-0.5-0.5-1.2-0.8-2-0.8c-0.8,0-1.5,0.3-2,0.8c-0.5,0.5-0.8,1.3-0.8,2.3c0,1,0.3,1.7,0.8,2.3
		c0.5,0.6,1.2,0.8,2,0.8C95.5,155.6,96.2,155.3,96.7,154.8z"/>
	<path class="st1" d="M116.6,147.2c1,1,1.5,2.4,1.5,4.3v7.4h-4.6v-6.7c0-1.8-0.7-2.7-2.1-2.7c-0.8,0-1.4,0.3-1.9,0.8
		c-0.5,0.5-0.7,1.3-0.7,2.3v6.3h-4.6v-13h4.3v1.4c0.5-0.5,1.1-0.9,1.8-1.2c0.7-0.3,1.5-0.4,2.3-0.4
		C114.3,145.8,115.6,146.3,116.6,147.2z"/>
	<path class="st1" d="M129.9,158.5c-0.4,0.2-0.9,0.4-1.4,0.6c-0.6,0.1-1.1,0.2-1.8,0.2c-1.7,0-3-0.4-3.9-1.2s-1.4-2.1-1.4-3.7v-4.4
		h-1.9v-3.4h1.9v-3.4h4.6v3.4h3v3.4h-3v4.3c0,0.5,0.1,0.8,0.4,1.1s0.6,0.4,1,0.4c0.5,0,1-0.1,1.4-0.4L129.9,158.5z"/>
	<path class="st1" d="M144,147.2c1,1,1.5,2.4,1.5,4.3v7.4h-4.6v-6.7c0-1.8-0.7-2.7-2.1-2.7c-0.8,0-1.4,0.3-1.9,0.8
		c-0.5,0.5-0.7,1.3-0.7,2.3v6.3h-4.6v-17.8h4.6v6c0.5-0.5,1.1-0.8,1.8-1.1c0.7-0.2,1.4-0.4,2.2-0.4C141.7,145.8,143,146.3,144,147.2
		z"/>
	<path class="st1" d="M149.8,158.8c-1.1-0.2-1.9-0.6-2.5-1l1.4-3.1c0.6,0.4,1.3,0.7,2.1,0.9c0.8,0.2,1.6,0.3,2.4,0.3
		c0.7,0,1.3-0.1,1.6-0.2c0.3-0.2,0.5-0.4,0.5-0.7c0-0.3-0.2-0.5-0.6-0.6c-0.4-0.1-1-0.2-1.8-0.3c-1-0.1-1.9-0.3-2.7-0.5
		c-0.7-0.2-1.4-0.6-1.9-1.2c-0.5-0.6-0.8-1.3-0.8-2.4c0-0.8,0.2-1.6,0.7-2.2c0.5-0.6,1.2-1.2,2.2-1.5c1-0.4,2.1-0.6,3.4-0.6
		c0.9,0,1.9,0.1,2.8,0.3c0.9,0.2,1.7,0.5,2.3,0.8l-1.4,3.1c-1.2-0.6-2.4-1-3.7-1c-0.7,0-1.2,0.1-1.6,0.3s-0.5,0.4-0.5,0.7
		c0,0.3,0.2,0.5,0.6,0.6c0.4,0.1,1,0.2,1.8,0.4c1.1,0.2,2,0.3,2.7,0.6c0.7,0.2,1.3,0.6,1.8,1.1c0.5,0.6,0.8,1.3,0.8,2.3
		c0,0.8-0.2,1.5-0.7,2.2c-0.5,0.6-1.2,1.2-2.2,1.5c-1,0.4-2.1,0.6-3.5,0.6C152,159.2,150.9,159.1,149.8,158.8z"/>
</g>
</svg>
