<?xml version="1.0" encoding="utf-8"?>
<!-- Generator: Adobe Illustrator 23.0.4, SVG Export Plug-In . SVG Version: 6.00 Build 0)  -->
<svg version="1.1" id="Layer_1" xmlns="http://www.w3.org/2000/svg" xmlns:xlink="http://www.w3.org/1999/xlink" x="0px" y="0px"
	 viewBox="0 0 220 220" style="enable-background:new 0 0 220 220;" xml:space="preserve">
<style type="text/css">
	.st0{fill:none;stroke:url(#SVGID_1_);stroke-width:4;}
	.st1{fill:none;}
	.st2{enable-background:new    ;}
	.st3{fill:#FFFFFF;}
</style>
<linearGradient id="SVGID_1_" gradientUnits="userSpaceOnUse" x1="110" y1="-56" x2="110" y2="-276" gradientTransform="matrix(1 0 0 -1 0 -56)">
	<stop  offset="0" style="stop-color:#3399CC"/>
	<stop  offset="1" style="stop-color:#CC0000"/>
</linearGradient>
<circle class="st0" cx="110" cy="110" r="108"/>
<rect x="-5" y="67" class="st1" width="230" height="151"/>
<g class="st2">
	<path class="st3" d="M104.5,111.2c1.7,2.7,2.6,5.9,2.6,9.4c0,4.4-1.3,8.3-3.8,11.6c-2.5,3.3-6.1,5.9-10.7,7.7
		c-4.6,1.8-9.9,2.7-15.9,2.7s-11.3-0.9-15.9-2.7s-8.2-4.4-10.7-7.7c-2.5-3.3-3.8-7.2-3.8-11.6c0-3.5,0.9-6.7,2.6-9.4
		c1.7-2.7,4.2-5,7.4-6.9c-2.4-1.7-4.2-3.7-5.5-6.1c-1.3-2.4-2-5.1-2-8c0-4.1,1.2-7.7,3.5-10.8c2.3-3.1,5.6-5.5,9.9-7.2
		c4.2-1.7,9.1-2.5,14.5-2.5c5.5,0,10.3,0.8,14.6,2.5c4.2,1.7,7.5,4.1,9.8,7.2c2.3,3.1,3.5,6.7,3.5,10.8c0,2.9-0.6,5.6-1.9,8
		c-1.3,2.4-3.1,4.4-5.6,6.1C100.3,106.2,102.8,108.5,104.5,111.2z M84.4,126.3c1.9-1.6,2.9-3.7,2.9-6.4c0-2.7-0.9-4.8-2.9-6.3
		c-1.9-1.6-4.4-2.4-7.6-2.4c-3.2,0-5.8,0.8-7.6,2.4c-1.9,1.6-2.9,3.7-2.9,6.3c0,2.7,1,4.8,2.9,6.4s4.5,2.3,7.6,2.3
		C79.9,128.7,82.5,127.9,84.4,126.3z M70.7,85.6c-1.5,1.3-2.3,3.1-2.3,5.5c0,2.3,0.8,4,2.2,5.3s3.5,2,6,2c2.5,0,4.6-0.7,6.1-2
		c1.5-1.3,2.3-3.1,2.3-5.3c0-2.3-0.8-4.2-2.3-5.5c-1.5-1.3-3.6-2-6.1-2C74.2,83.7,72.2,84.3,70.7,85.6z"/>
	<path class="st3" d="M128.5,138.3c-4.7-2.9-8.3-7-11-12.5c-2.6-5.5-4-12-4-19.5c0-7.5,1.3-14,4-19.5c2.6-5.5,6.3-9.7,11-12.5
		c4.7-2.9,10-4.3,16-4.3c5.9,0,11.2,1.4,15.9,4.3c4.7,2.9,8.3,7,10.9,12.5c2.6,5.5,4,12,4,19.5c0,7.5-1.3,14-4,19.5
		c-2.6,5.5-6.3,9.7-10.9,12.5c-4.7,2.9-10,4.3-15.9,4.3C138.5,142.6,133.2,141.2,128.5,138.3z M152.5,121.5c2-3.2,3-8.3,3-15.3
		c0-7-1-12.1-3-15.3c-2-3.2-4.6-4.9-8-4.9c-3.4,0-6.1,1.6-8,4.9c-2,3.2-3,8.3-3,15.3c0,7,1,12.1,3,15.3c2,3.2,4.6,4.9,8,4.9
		C147.8,126.4,150.5,124.8,152.5,121.5z"/>
</g>
<g class="st2">
	<path class="st3" d="M77.8,158.3c1.1,1,1.7,2.5,1.7,4.5v7.2h-4.2v-1.7c-0.7,1.3-1.9,1.9-3.8,1.9c-1,0-1.9-0.2-2.6-0.5
		c-0.7-0.4-1.3-0.8-1.7-1.4c-0.4-0.6-0.6-1.3-0.6-2.1c0-1.2,0.5-2.2,1.4-2.9c0.9-0.7,2.4-1,4.4-1h2.6c-0.1-1.4-1-2.1-2.8-2.1
		c-0.6,0-1.3,0.1-1.9,0.3c-0.6,0.2-1.2,0.5-1.6,0.8l-1.5-3.1c0.7-0.5,1.6-0.9,2.6-1.1c1-0.3,2.1-0.4,3.1-0.4
		C75,156.8,76.6,157.3,77.8,158.3z M74,167c0.4-0.3,0.7-0.6,0.9-1.1v-1.1h-2c-1.3,0-2,0.4-2,1.3c0,0.4,0.2,0.7,0.5,1
		c0.3,0.2,0.7,0.4,1.2,0.4C73.2,167.3,73.6,167.2,74,167z"/>
	<path class="st3" d="M82.3,152.2h4.6V170h-4.6V152.2z"/>
	<path class="st3" d="M103.5,157v13h-4.3v-1.4c-0.5,0.5-1.1,0.9-1.7,1.2c-0.7,0.3-1.4,0.4-2.1,0.4c-1.7,0-3-0.5-4-1.5
		c-1-1-1.5-2.5-1.5-4.5V157h4.6v6.5c0,1,0.2,1.7,0.6,2.1s0.9,0.7,1.6,0.7c0.7,0,1.3-0.3,1.8-0.8s0.7-1.3,0.7-2.3V157H103.5z"/>
	<path class="st3" d="M127.2,158.2c1,1,1.4,2.4,1.4,4.3v7.4h-4.6v-6.7c0-0.9-0.2-1.6-0.5-2s-0.8-0.6-1.5-0.6c-0.7,0-1.2,0.2-1.7,0.7
		c-0.4,0.5-0.6,1.2-0.6,2.2v6.5h-4.6v-6.7c0-1.8-0.7-2.7-2-2.7c-0.7,0-1.3,0.2-1.7,0.7c-0.4,0.5-0.6,1.2-0.6,2.2v6.5h-4.6v-13h4.3
		v1.4c0.5-0.5,1.1-0.9,1.7-1.2s1.4-0.4,2.2-0.4c0.9,0,1.7,0.2,2.4,0.5c0.7,0.3,1.3,0.8,1.8,1.5c0.5-0.7,1.2-1.2,1.9-1.5
		c0.8-0.4,1.6-0.5,2.6-0.5C125,156.8,126.3,157.3,127.2,158.2z"/>
	<path class="st3" d="M143.9,158.2c1,1,1.5,2.4,1.5,4.3v7.4h-4.6v-6.7c0-1.8-0.7-2.7-2.1-2.7c-0.8,0-1.4,0.3-1.9,0.8
		s-0.7,1.3-0.7,2.3v6.3h-4.6v-13h4.3v1.4c0.5-0.5,1.1-0.9,1.8-1.2s1.5-0.4,2.3-0.4C141.6,156.8,142.9,157.3,143.9,158.2z"/>
	<path class="st3" d="M148.5,154.9c-0.5-0.5-0.8-1-0.8-1.7c0-0.7,0.3-1.3,0.8-1.7s1.2-0.7,2-0.7c0.8,0,1.5,0.2,2,0.7
		c0.5,0.4,0.8,1,0.8,1.7c0,0.7-0.3,1.3-0.8,1.8c-0.5,0.5-1.2,0.7-2,0.7C149.7,155.6,149,155.3,148.5,154.9z M148.2,157h4.6v13h-4.6
		V157z"/>
</g>
</svg>
