<svg width="930" height="624" viewBox="0 0 930 624" fill="none" xmlns="http://www.w3.org/2000/svg">
<path d="M541.842 500.058C542.942 500.263 543.778 500.696 544.35 501.356C544.937 502.016 545.23 502.874 545.23 503.93C545.23 505.235 544.753 506.24 543.8 506.944C542.847 507.648 541.431 508 539.554 508H532.69V492.6H539.114C540.786 492.6 542.084 492.945 543.008 493.634C543.947 494.309 544.416 495.277 544.416 496.538C544.416 497.418 544.181 498.159 543.712 498.76C543.257 499.361 542.634 499.794 541.842 500.058ZM533.812 493.568V499.706H539.07C540.419 499.706 541.453 499.449 542.172 498.936C542.905 498.408 543.272 497.638 543.272 496.626C543.272 495.629 542.905 494.873 542.172 494.36C541.453 493.832 540.419 493.568 539.07 493.568H533.812ZM539.554 507.032C541.05 507.032 542.179 506.775 542.942 506.262C543.719 505.734 544.108 504.927 544.108 503.842C544.108 502.757 543.719 501.957 542.942 501.444C542.179 500.931 541.05 500.674 539.554 500.674H533.812V507.032H539.554ZM553.369 508.088C552.283 508.088 551.301 507.839 550.421 507.34C549.555 506.841 548.873 506.152 548.375 505.272C547.876 504.377 547.627 503.373 547.627 502.258C547.627 501.143 547.876 500.146 548.375 499.266C548.873 498.371 549.555 497.675 550.421 497.176C551.301 496.677 552.283 496.428 553.369 496.428C554.454 496.428 555.429 496.677 556.295 497.176C557.175 497.675 557.864 498.371 558.363 499.266C558.861 500.146 559.111 501.143 559.111 502.258C559.111 503.373 558.861 504.377 558.363 505.272C557.864 506.152 557.175 506.841 556.295 507.34C555.429 507.839 554.454 508.088 553.369 508.088ZM553.369 507.098C554.249 507.098 555.033 506.893 555.723 506.482C556.427 506.071 556.977 505.499 557.373 504.766C557.783 504.033 557.989 503.197 557.989 502.258C557.989 501.319 557.783 500.483 557.373 499.75C556.977 499.017 556.427 498.445 555.723 498.034C555.033 497.623 554.249 497.418 553.369 497.418C552.489 497.418 551.697 497.623 550.993 498.034C550.303 498.445 549.753 499.017 549.343 499.75C548.947 500.483 548.749 501.319 548.749 502.258C548.749 503.197 548.947 504.033 549.343 504.766C549.753 505.499 550.303 506.071 550.993 506.482C551.697 506.893 552.489 507.098 553.369 507.098ZM567.011 508.088C565.926 508.088 564.943 507.839 564.063 507.34C563.198 506.841 562.516 506.152 562.017 505.272C561.519 504.377 561.269 503.373 561.269 502.258C561.269 501.143 561.519 500.146 562.017 499.266C562.516 498.371 563.198 497.675 564.063 497.176C564.943 496.677 565.926 496.428 567.011 496.428C568.097 496.428 569.072 496.677 569.937 497.176C570.817 497.675 571.507 498.371 572.005 499.266C572.504 500.146 572.753 501.143 572.753 502.258C572.753 503.373 572.504 504.377 572.005 505.272C571.507 506.152 570.817 506.841 569.937 507.34C569.072 507.839 568.097 508.088 567.011 508.088ZM567.011 507.098C567.891 507.098 568.676 506.893 569.365 506.482C570.069 506.071 570.619 505.499 571.015 504.766C571.426 504.033 571.631 503.197 571.631 502.258C571.631 501.319 571.426 500.483 571.015 499.75C570.619 499.017 570.069 498.445 569.365 498.034C568.676 497.623 567.891 497.418 567.011 497.418C566.131 497.418 565.339 497.623 564.635 498.034C563.946 498.445 563.396 499.017 562.985 499.75C562.589 500.483 562.391 501.319 562.391 502.258C562.391 503.197 562.589 504.033 562.985 504.766C563.396 505.499 563.946 506.071 564.635 506.482C565.339 506.893 566.131 507.098 567.011 507.098ZM581.864 507.274C581.585 507.538 581.233 507.743 580.808 507.89C580.397 508.022 579.965 508.088 579.51 508.088C578.513 508.088 577.743 507.817 577.2 507.274C576.657 506.717 576.386 505.947 576.386 504.964V497.462H574.274V496.516H576.386V494.008H577.486V496.516H581.138V497.462H577.486V504.854C577.486 505.602 577.662 506.174 578.014 506.57C578.381 506.951 578.916 507.142 579.62 507.142C580.339 507.142 580.933 506.929 581.402 506.504L581.864 507.274ZM589.077 508.088C587.963 508.088 586.965 507.839 586.085 507.34C585.205 506.841 584.516 506.152 584.017 505.272C583.519 504.377 583.269 503.373 583.269 502.258C583.269 501.129 583.519 500.124 584.017 499.244C584.516 498.349 585.205 497.66 586.085 497.176C586.965 496.677 587.963 496.428 589.077 496.428C590.001 496.428 590.837 496.611 591.585 496.978C592.348 497.33 592.964 497.851 593.433 498.54L592.619 499.134C592.209 498.562 591.695 498.137 591.079 497.858C590.478 497.565 589.811 497.418 589.077 497.418C588.183 497.418 587.376 497.623 586.657 498.034C585.953 498.43 585.396 498.995 584.985 499.728C584.589 500.461 584.391 501.305 584.391 502.258C584.391 503.211 584.589 504.055 584.985 504.788C585.396 505.521 585.953 506.093 586.657 506.504C587.376 506.9 588.183 507.098 589.077 507.098C589.811 507.098 590.478 506.959 591.079 506.68C591.695 506.387 592.209 505.954 592.619 505.382L593.433 505.976C592.964 506.665 592.348 507.193 591.585 507.56C590.837 507.912 590.001 508.088 589.077 508.088ZM600.599 496.428C602.021 496.428 603.114 496.795 603.877 497.528C604.639 498.247 605.021 499.31 605.021 500.718V508H603.965V505.954C603.598 506.629 603.063 507.157 602.359 507.538C601.655 507.905 600.811 508.088 599.829 508.088C598.553 508.088 597.541 507.787 596.793 507.186C596.059 506.585 595.693 505.793 595.693 504.81C595.693 503.857 596.03 503.087 596.705 502.5C597.394 501.899 598.487 501.598 599.983 501.598H603.921V500.674C603.921 499.603 603.627 498.789 603.041 498.232C602.469 497.675 601.625 497.396 600.511 497.396C599.748 497.396 599.015 497.528 598.311 497.792C597.621 498.056 597.035 498.408 596.551 498.848L596.001 498.056C596.573 497.543 597.262 497.147 598.069 496.868C598.875 496.575 599.719 496.428 600.599 496.428ZM599.983 507.186C600.936 507.186 601.743 506.966 602.403 506.526C603.077 506.086 603.583 505.448 603.921 504.612V502.456H600.005C598.875 502.456 598.054 502.661 597.541 503.072C597.042 503.483 596.793 504.047 596.793 504.766C596.793 505.514 597.071 506.108 597.629 506.548C598.186 506.973 598.971 507.186 599.983 507.186ZM623.853 496.428C625.275 496.428 626.39 496.846 627.197 497.682C628.018 498.518 628.429 499.721 628.429 501.29V508H627.329V501.378C627.329 500.087 627.013 499.105 626.383 498.43C625.752 497.755 624.872 497.418 623.743 497.418C622.452 497.418 621.425 497.821 620.663 498.628C619.915 499.435 619.541 500.52 619.541 501.884V508H618.441V501.378C618.441 500.087 618.125 499.105 617.495 498.43C616.864 497.755 615.984 497.418 614.855 497.418C613.564 497.418 612.537 497.821 611.775 498.628C611.027 499.435 610.653 500.52 610.653 501.884V508H609.553V496.516H610.609V498.98C610.99 498.173 611.555 497.55 612.303 497.11C613.065 496.655 613.967 496.428 615.009 496.428C616.05 496.428 616.93 496.663 617.649 497.132C618.382 497.601 618.903 498.291 619.211 499.2C619.592 498.349 620.186 497.675 620.993 497.176C621.814 496.677 622.767 496.428 623.853 496.428ZM638.735 496.428C639.805 496.428 640.773 496.677 641.639 497.176C642.504 497.675 643.179 498.364 643.663 499.244C644.161 500.124 644.411 501.129 644.411 502.258C644.411 503.387 644.161 504.399 643.663 505.294C643.179 506.174 642.504 506.863 641.639 507.362C640.773 507.846 639.805 508.088 638.735 508.088C637.723 508.088 636.806 507.853 635.985 507.384C635.163 506.9 634.525 506.233 634.071 505.382V512.268H632.971V496.516H634.027V499.222C634.481 498.342 635.119 497.66 635.941 497.176C636.777 496.677 637.708 496.428 638.735 496.428ZM638.669 507.098C639.549 507.098 640.341 506.893 641.045 506.482C641.749 506.071 642.299 505.499 642.695 504.766C643.105 504.033 643.311 503.197 643.311 502.258C643.311 501.319 643.105 500.483 642.695 499.75C642.299 499.017 641.749 498.445 641.045 498.034C640.341 497.623 639.549 497.418 638.669 497.418C637.789 497.418 636.997 497.623 636.293 498.034C635.603 498.445 635.053 499.017 634.643 499.75C634.247 500.483 634.049 501.319 634.049 502.258C634.049 503.197 634.247 504.033 634.643 504.766C635.053 505.499 635.603 506.071 636.293 506.482C636.997 506.893 637.789 507.098 638.669 507.098ZM650.72 508.088C649.796 508.088 648.916 507.949 648.08 507.67C647.244 507.391 646.592 507.039 646.122 506.614L646.628 505.734C647.098 506.13 647.699 506.46 648.432 506.724C649.18 506.988 649.958 507.12 650.764 507.12C651.923 507.12 652.774 506.929 653.316 506.548C653.874 506.167 654.152 505.639 654.152 504.964C654.152 504.48 653.998 504.099 653.69 503.82C653.397 503.541 653.03 503.336 652.59 503.204C652.15 503.072 651.542 502.933 650.764 502.786C649.855 502.625 649.122 502.449 648.564 502.258C648.007 502.067 647.53 501.759 647.134 501.334C646.738 500.909 646.54 500.322 646.54 499.574C646.54 498.665 646.914 497.917 647.662 497.33C648.425 496.729 649.503 496.428 650.896 496.428C651.63 496.428 652.356 496.531 653.074 496.736C653.793 496.941 654.38 497.213 654.834 497.55L654.328 498.43C653.859 498.093 653.324 497.836 652.722 497.66C652.121 497.484 651.505 497.396 650.874 497.396C649.804 497.396 648.997 497.594 648.454 497.99C647.912 498.386 647.64 498.907 647.64 499.552C647.64 500.065 647.794 500.469 648.102 500.762C648.41 501.041 648.784 501.253 649.224 501.4C649.679 501.532 650.31 501.679 651.116 501.84C652.011 502.001 652.73 502.177 653.272 502.368C653.83 502.544 654.299 502.837 654.68 503.248C655.062 503.659 655.252 504.223 655.252 504.942C655.252 505.895 654.856 506.658 654.064 507.23C653.272 507.802 652.158 508.088 650.72 508.088ZM675.017 508L671.343 502.852C670.8 502.925 670.301 502.962 669.847 502.962H665.447V508H664.325V492.6H669.847C671.783 492.6 673.301 493.062 674.401 493.986C675.501 494.895 676.051 496.164 676.051 497.792C676.051 499.009 675.735 500.036 675.105 500.872C674.489 501.693 673.601 502.273 672.443 502.61L676.293 508H675.017ZM669.847 501.972C671.489 501.972 672.743 501.613 673.609 500.894C674.474 500.161 674.907 499.127 674.907 497.792C674.907 496.457 674.474 495.431 673.609 494.712C672.743 493.979 671.489 493.612 669.847 493.612H665.447V501.972H669.847ZM689.861 496.516V508H688.805V505.536C688.423 506.343 687.859 506.973 687.111 507.428C686.363 507.868 685.483 508.088 684.471 508.088C682.975 508.088 681.801 507.67 680.951 506.834C680.1 505.998 679.675 504.795 679.675 503.226V496.516H680.775V503.138C680.775 504.429 681.105 505.411 681.765 506.086C682.425 506.761 683.356 507.098 684.559 507.098C685.849 507.098 686.869 506.695 687.617 505.888C688.379 505.081 688.761 503.996 688.761 502.632V496.516H689.861ZM700.133 496.428C701.571 496.428 702.707 496.846 703.543 497.682C704.379 498.518 704.797 499.721 704.797 501.29V508H703.697V501.378C703.697 500.087 703.367 499.105 702.707 498.43C702.062 497.755 701.153 497.418 699.979 497.418C698.63 497.418 697.567 497.821 696.789 498.628C696.012 499.435 695.623 500.52 695.623 501.884V508H694.523V496.516H695.579V499.002C695.975 498.195 696.562 497.565 697.339 497.11C698.131 496.655 699.063 496.428 700.133 496.428Z" fill="white"/>
<path d="M658.208 405V417.4L633.508 475H611.908L635.508 420.7H617.108V431.5H600.208V405H658.208Z" fill="white"/>
<path d="M192.965 498.272H183.221L181.085 503H179.765L187.493 486.2H188.717L196.445 503H195.125L192.965 498.272ZM192.509 497.24L188.093 487.544L183.701 497.24H192.509ZM203.961 503.096C202.745 503.096 201.657 502.824 200.697 502.28C199.737 501.736 198.985 500.984 198.441 500.024C197.897 499.048 197.625 497.952 197.625 496.736C197.625 495.504 197.897 494.408 198.441 493.448C198.985 492.472 199.737 491.72 200.697 491.192C201.657 490.648 202.745 490.376 203.961 490.376C204.969 490.376 205.881 490.576 206.697 490.976C207.529 491.36 208.201 491.928 208.713 492.68L207.825 493.328C207.377 492.704 206.817 492.24 206.145 491.936C205.489 491.616 204.761 491.456 203.961 491.456C202.985 491.456 202.105 491.68 201.321 492.128C200.553 492.56 199.945 493.176 199.497 493.976C199.065 494.776 198.849 495.696 198.849 496.736C198.849 497.776 199.065 498.696 199.497 499.496C199.945 500.296 200.553 500.92 201.321 501.368C202.105 501.8 202.985 502.016 203.961 502.016C204.761 502.016 205.489 501.864 206.145 501.56C206.817 501.24 207.377 500.768 207.825 500.144L208.713 500.792C208.201 501.544 207.529 502.12 206.697 502.52C205.881 502.904 204.969 503.096 203.961 503.096ZM216.53 490.376C218.082 490.376 219.274 490.776 220.106 491.576C220.938 492.36 221.354 493.52 221.354 495.056V503H220.202V500.768C219.802 501.504 219.218 502.08 218.45 502.496C217.682 502.896 216.762 503.096 215.69 503.096C214.298 503.096 213.194 502.768 212.378 502.112C211.578 501.456 211.178 500.592 211.178 499.52C211.178 498.48 211.546 497.64 212.282 497C213.034 496.344 214.226 496.016 215.858 496.016H220.154V495.008C220.154 493.84 219.834 492.952 219.194 492.344C218.57 491.736 217.65 491.432 216.434 491.432C215.602 491.432 214.802 491.576 214.034 491.864C213.282 492.152 212.642 492.536 212.114 493.016L211.514 492.152C212.138 491.592 212.89 491.16 213.77 490.856C214.65 490.536 215.57 490.376 216.53 490.376ZM215.858 502.112C216.898 502.112 217.778 501.872 218.498 501.392C219.234 500.912 219.786 500.216 220.154 499.304V496.952H215.882C214.65 496.952 213.754 497.176 213.194 497.624C212.65 498.072 212.378 498.688 212.378 499.472C212.378 500.288 212.682 500.936 213.29 501.416C213.898 501.88 214.754 502.112 215.858 502.112ZM237.457 485.192V503H236.281V500.048C235.785 501.024 235.089 501.776 234.193 502.304C233.297 502.832 232.281 503.096 231.145 503.096C229.977 503.096 228.921 502.824 227.977 502.28C227.033 501.736 226.289 500.984 225.745 500.024C225.217 499.064 224.953 497.968 224.953 496.736C224.953 495.504 225.217 494.408 225.745 493.448C226.289 492.472 227.033 491.72 227.977 491.192C228.921 490.648 229.977 490.376 231.145 490.376C232.265 490.376 233.265 490.64 234.145 491.168C235.041 491.696 235.745 492.432 236.257 493.376V485.192H237.457ZM231.217 502.016C232.177 502.016 233.033 501.792 233.785 501.344C234.553 500.896 235.153 500.272 235.585 499.472C236.033 498.672 236.257 497.76 236.257 496.736C236.257 495.712 236.033 494.8 235.585 494C235.153 493.2 234.553 492.576 233.785 492.128C233.033 491.68 232.177 491.456 231.217 491.456C230.257 491.456 229.393 491.68 228.625 492.128C227.873 492.576 227.273 493.2 226.825 494C226.393 494.8 226.177 495.712 226.177 496.736C226.177 497.76 226.393 498.672 226.825 499.472C227.273 500.272 227.873 500.896 228.625 501.344C229.393 501.792 230.257 502.016 231.217 502.016ZM253.101 497.024H242.325C242.357 498 242.605 498.872 243.069 499.64C243.533 500.392 244.157 500.976 244.941 501.392C245.741 501.808 246.637 502.016 247.629 502.016C248.445 502.016 249.197 501.872 249.885 501.584C250.589 501.28 251.173 500.84 251.637 500.264L252.333 501.056C251.789 501.712 251.101 502.216 250.269 502.568C249.453 502.92 248.565 503.096 247.605 503.096C246.357 503.096 245.245 502.824 244.269 502.28C243.293 501.736 242.525 500.984 241.965 500.024C241.421 499.064 241.149 497.968 241.149 496.736C241.149 495.52 241.405 494.432 241.917 493.472C242.445 492.496 243.165 491.736 244.077 491.192C244.989 490.648 246.013 490.376 247.149 490.376C248.285 490.376 249.301 490.648 250.197 491.192C251.109 491.72 251.821 492.464 252.333 493.424C252.861 494.384 253.125 495.472 253.125 496.688L253.101 497.024ZM247.149 491.432C246.269 491.432 245.477 491.632 244.773 492.032C244.069 492.416 243.501 492.968 243.069 493.688C242.653 494.392 242.413 495.192 242.349 496.088H251.949C251.901 495.192 251.661 494.392 251.229 493.688C250.797 492.984 250.229 492.432 249.525 492.032C248.821 491.632 248.029 491.432 247.149 491.432ZM272.437 490.376C273.989 490.376 275.205 490.832 276.085 491.744C276.981 492.656 277.429 493.968 277.429 495.68V503H276.229V495.776C276.229 494.368 275.885 493.296 275.197 492.56C274.509 491.824 273.549 491.456 272.317 491.456C270.909 491.456 269.789 491.896 268.957 492.776C268.141 493.656 267.733 494.84 267.733 496.328V503H266.533V495.776C266.533 494.368 266.189 493.296 265.501 492.56C264.813 491.824 263.853 491.456 262.621 491.456C261.213 491.456 260.093 491.896 259.261 492.776C258.445 493.656 258.037 494.84 258.037 496.328V503H256.837V490.472H257.989V493.16C258.405 492.28 259.021 491.6 259.837 491.12C260.669 490.624 261.653 490.376 262.789 490.376C263.925 490.376 264.885 490.632 265.669 491.144C266.469 491.656 267.037 492.408 267.373 493.4C267.789 492.472 268.437 491.736 269.317 491.192C270.213 490.648 271.253 490.376 272.437 490.376ZM282.384 490.472H283.584V503H282.384V490.472ZM282.984 487.424C282.712 487.424 282.48 487.336 282.288 487.16C282.096 486.968 282 486.736 282 486.464C282 486.192 282.096 485.96 282.288 485.768C282.48 485.576 282.712 485.48 282.984 485.48C283.256 485.48 283.488 485.576 283.68 485.768C283.872 485.944 283.968 486.168 283.968 486.44C283.968 486.712 283.872 486.944 283.68 487.136C283.488 487.328 283.256 487.424 282.984 487.424ZM293.61 503.096C292.394 503.096 291.306 502.824 290.346 502.28C289.386 501.736 288.634 500.984 288.09 500.024C287.546 499.048 287.274 497.952 287.274 496.736C287.274 495.504 287.546 494.408 288.09 493.448C288.634 492.472 289.386 491.72 290.346 491.192C291.306 490.648 292.394 490.376 293.61 490.376C294.618 490.376 295.53 490.576 296.346 490.976C297.178 491.36 297.85 491.928 298.362 492.68L297.474 493.328C297.026 492.704 296.466 492.24 295.794 491.936C295.138 491.616 294.41 491.456 293.61 491.456C292.634 491.456 291.754 491.68 290.97 492.128C290.202 492.56 289.594 493.176 289.146 493.976C288.714 494.776 288.498 495.696 288.498 496.736C288.498 497.776 288.714 498.696 289.146 499.496C289.594 500.296 290.202 500.92 290.97 501.368C291.754 501.8 292.634 502.016 293.61 502.016C294.41 502.016 295.138 501.864 295.794 501.56C296.466 501.24 297.026 500.768 297.474 500.144L298.362 500.792C297.85 501.544 297.178 502.12 296.346 502.52C295.53 502.904 294.618 503.096 293.61 503.096ZM308.502 486.2H315.15C316.894 486.2 318.438 486.56 319.782 487.28C321.142 488 322.198 489 322.95 490.28C323.702 491.544 324.078 492.984 324.078 494.6C324.078 496.216 323.702 497.664 322.95 498.944C322.198 500.208 321.142 501.2 319.782 501.92C318.438 502.64 316.894 503 315.15 503H308.502V486.2ZM315.054 501.896C316.606 501.896 317.974 501.592 319.158 500.984C320.342 500.36 321.254 499.496 321.894 498.392C322.534 497.288 322.854 496.024 322.854 494.6C322.854 493.176 322.534 491.912 321.894 490.808C321.254 489.704 320.342 488.848 319.158 488.24C317.974 487.616 316.606 487.304 315.054 487.304H309.726V501.896H315.054ZM327.946 490.472H329.146V503H327.946V490.472ZM328.546 487.424C328.274 487.424 328.042 487.336 327.85 487.16C327.658 486.968 327.562 486.736 327.562 486.464C327.562 486.192 327.658 485.96 327.85 485.768C328.042 485.576 328.274 485.48 328.546 485.48C328.818 485.48 329.05 485.576 329.242 485.768C329.434 485.944 329.53 486.168 329.53 486.44C329.53 486.712 329.434 486.944 329.242 487.136C329.05 487.328 328.818 487.424 328.546 487.424ZM337.372 503.096C336.364 503.096 335.404 502.944 334.492 502.64C333.58 502.336 332.868 501.952 332.356 501.488L332.908 500.528C333.42 500.96 334.076 501.32 334.876 501.608C335.692 501.896 336.54 502.04 337.42 502.04C338.684 502.04 339.612 501.832 340.204 501.416C340.812 501 341.116 500.424 341.116 499.688C341.116 499.16 340.948 498.744 340.612 498.44C340.292 498.136 339.892 497.912 339.412 497.768C338.932 497.624 338.268 497.472 337.42 497.312C336.428 497.136 335.628 496.944 335.02 496.736C334.412 496.528 333.892 496.192 333.46 495.728C333.028 495.264 332.812 494.624 332.812 493.808C332.812 492.816 333.22 492 334.036 491.36C334.868 490.704 336.044 490.376 337.564 490.376C338.364 490.376 339.156 490.488 339.94 490.712C340.724 490.936 341.364 491.232 341.86 491.6L341.308 492.56C340.796 492.192 340.212 491.912 339.556 491.72C338.9 491.528 338.228 491.432 337.54 491.432C336.372 491.432 335.492 491.648 334.9 492.08C334.308 492.512 334.012 493.08 334.012 493.784C334.012 494.344 334.18 494.784 334.516 495.104C334.852 495.408 335.26 495.64 335.74 495.8C336.236 495.944 336.924 496.104 337.804 496.28C338.78 496.456 339.564 496.648 340.156 496.856C340.764 497.048 341.276 497.368 341.692 497.816C342.108 498.264 342.316 498.88 342.316 499.664C342.316 500.704 341.884 501.536 341.02 502.16C340.156 502.784 338.94 503.096 337.372 503.096ZM350.633 503.096C349.417 503.096 348.329 502.824 347.369 502.28C346.409 501.736 345.657 500.984 345.113 500.024C344.569 499.048 344.297 497.952 344.297 496.736C344.297 495.504 344.569 494.408 345.113 493.448C345.657 492.472 346.409 491.72 347.369 491.192C348.329 490.648 349.417 490.376 350.633 490.376C351.641 490.376 352.553 490.576 353.369 490.976C354.201 491.36 354.873 491.928 355.385 492.68L354.497 493.328C354.049 492.704 353.489 492.24 352.817 491.936C352.161 491.616 351.433 491.456 350.633 491.456C349.657 491.456 348.777 491.68 347.993 492.128C347.225 492.56 346.617 493.176 346.169 493.976C345.737 494.776 345.521 495.696 345.521 496.736C345.521 497.776 345.737 498.696 346.169 499.496C346.617 500.296 347.225 500.92 347.993 501.368C348.777 501.8 349.657 502.016 350.633 502.016C351.433 502.016 352.161 501.864 352.817 501.56C353.489 501.24 354.049 500.768 354.497 500.144L355.385 500.792C354.873 501.544 354.201 502.12 353.369 502.52C352.553 502.904 351.641 503.096 350.633 503.096ZM358.978 490.472H360.178V503H358.978V490.472ZM359.578 487.424C359.306 487.424 359.074 487.336 358.882 487.16C358.69 486.968 358.594 486.736 358.594 486.464C358.594 486.192 358.69 485.96 358.882 485.768C359.074 485.576 359.306 485.48 359.578 485.48C359.85 485.48 360.082 485.576 360.274 485.768C360.466 485.944 360.562 486.168 360.562 486.44C360.562 486.712 360.466 486.944 360.274 487.136C360.082 487.328 359.85 487.424 359.578 487.424ZM371.523 490.376C372.691 490.376 373.747 490.648 374.691 491.192C375.635 491.736 376.371 492.488 376.899 493.448C377.443 494.408 377.715 495.504 377.715 496.736C377.715 497.968 377.443 499.072 376.899 500.048C376.371 501.008 375.635 501.76 374.691 502.304C373.747 502.832 372.691 503.096 371.523 503.096C370.419 503.096 369.419 502.84 368.523 502.328C367.627 501.8 366.931 501.072 366.435 500.144V507.656H365.235V490.472H366.387V493.424C366.883 492.464 367.579 491.72 368.475 491.192C369.387 490.648 370.403 490.376 371.523 490.376ZM371.451 502.016C372.411 502.016 373.275 501.792 374.043 501.344C374.811 500.896 375.411 500.272 375.843 499.472C376.291 498.672 376.515 497.76 376.515 496.736C376.515 495.712 376.291 494.8 375.843 494C375.411 493.2 374.811 492.576 374.043 492.128C373.275 491.68 372.411 491.456 371.451 491.456C370.491 491.456 369.627 491.68 368.859 492.128C368.107 492.576 367.507 493.2 367.059 494C366.627 494.8 366.411 495.712 366.411 496.736C366.411 497.76 366.627 498.672 367.059 499.472C367.507 500.272 368.107 500.896 368.859 501.344C369.627 501.792 370.491 502.016 371.451 502.016ZM381.431 485.192H382.631V503H381.431V485.192ZM387.689 490.472H388.889V503H387.689V490.472ZM388.289 487.424C388.017 487.424 387.785 487.336 387.593 487.16C387.401 486.968 387.305 486.736 387.305 486.464C387.305 486.192 387.401 485.96 387.593 485.768C387.785 485.576 388.017 485.48 388.289 485.48C388.561 485.48 388.793 485.576 388.985 485.768C389.177 485.944 389.273 486.168 389.273 486.44C389.273 486.712 389.177 486.944 388.985 487.136C388.793 487.328 388.561 487.424 388.289 487.424ZM400.066 490.376C401.634 490.376 402.874 490.832 403.786 491.744C404.698 492.656 405.154 493.968 405.154 495.68V503H403.954V495.776C403.954 494.368 403.594 493.296 402.874 492.56C402.17 491.824 401.178 491.456 399.898 491.456C398.426 491.456 397.266 491.896 396.418 492.776C395.57 493.656 395.146 494.84 395.146 496.328V503H393.946V490.472H395.098V493.184C395.53 492.304 396.17 491.616 397.018 491.12C397.882 490.624 398.898 490.376 400.066 490.376ZM420.702 497.024H409.926C409.958 498 410.206 498.872 410.67 499.64C411.134 500.392 411.758 500.976 412.542 501.392C413.342 501.808 414.238 502.016 415.23 502.016C416.046 502.016 416.798 501.872 417.486 501.584C418.19 501.28 418.774 500.84 419.238 500.264L419.934 501.056C419.39 501.712 418.702 502.216 417.87 502.568C417.054 502.92 416.166 503.096 415.206 503.096C413.958 503.096 412.846 502.824 411.87 502.28C410.894 501.736 410.126 500.984 409.566 500.024C409.022 499.064 408.75 497.968 408.75 496.736C408.75 495.52 409.006 494.432 409.518 493.472C410.046 492.496 410.766 491.736 411.678 491.192C412.59 490.648 413.614 490.376 414.75 490.376C415.886 490.376 416.902 490.648 417.798 491.192C418.71 491.72 419.422 492.464 419.934 493.424C420.462 494.384 420.726 495.472 420.726 496.688L420.702 497.024ZM414.75 491.432C413.87 491.432 413.078 491.632 412.374 492.032C411.67 492.416 411.102 492.968 410.67 493.688C410.254 494.392 410.014 495.192 409.95 496.088H419.55C419.502 495.192 419.262 494.392 418.83 493.688C418.398 492.984 417.83 492.432 417.126 492.032C416.422 491.632 415.63 491.432 414.75 491.432ZM427.607 503.096C426.599 503.096 425.639 502.944 424.727 502.64C423.815 502.336 423.103 501.952 422.591 501.488L423.143 500.528C423.655 500.96 424.311 501.32 425.111 501.608C425.927 501.896 426.775 502.04 427.655 502.04C428.919 502.04 429.847 501.832 430.439 501.416C431.047 501 431.351 500.424 431.351 499.688C431.351 499.16 431.183 498.744 430.847 498.44C430.527 498.136 430.127 497.912 429.647 497.768C429.167 497.624 428.503 497.472 427.655 497.312C426.663 497.136 425.863 496.944 425.255 496.736C424.647 496.528 424.127 496.192 423.695 495.728C423.263 495.264 423.047 494.624 423.047 493.808C423.047 492.816 423.455 492 424.271 491.36C425.103 490.704 426.279 490.376 427.799 490.376C428.599 490.376 429.391 490.488 430.175 490.712C430.959 490.936 431.599 491.232 432.095 491.6L431.543 492.56C431.031 492.192 430.447 491.912 429.791 491.72C429.135 491.528 428.463 491.432 427.775 491.432C426.607 491.432 425.727 491.648 425.135 492.08C424.543 492.512 424.247 493.08 424.247 493.784C424.247 494.344 424.415 494.784 424.751 495.104C425.087 495.408 425.495 495.64 425.975 495.8C426.471 495.944 427.159 496.104 428.039 496.28C429.015 496.456 429.799 496.648 430.391 496.856C430.999 497.048 431.511 497.368 431.927 497.816C432.343 498.264 432.551 498.88 432.551 499.664C432.551 500.704 432.119 501.536 431.255 502.16C430.391 502.784 429.175 503.096 427.607 503.096ZM244.697 532L240.689 526.384C240.097 526.464 239.553 526.504 239.057 526.504H234.257V532H233.033V515.2H239.057C241.169 515.2 242.825 515.704 244.025 516.712C245.225 517.704 245.825 519.088 245.825 520.864C245.825 522.192 245.481 523.312 244.793 524.224C244.121 525.12 243.153 525.752 241.889 526.12L246.089 532H244.697ZM239.057 525.424C240.849 525.424 242.217 525.032 243.161 524.248C244.105 523.448 244.577 522.32 244.577 520.864C244.577 519.408 244.105 518.288 243.161 517.504C242.217 516.704 240.849 516.304 239.057 516.304H234.257V525.424H239.057ZM260.507 526.024H249.731C249.763 527 250.011 527.872 250.475 528.64C250.939 529.392 251.563 529.976 252.347 530.392C253.147 530.808 254.043 531.016 255.035 531.016C255.851 531.016 256.603 530.872 257.291 530.584C257.995 530.28 258.579 529.84 259.043 529.264L259.739 530.056C259.195 530.712 258.507 531.216 257.675 531.568C256.859 531.92 255.971 532.096 255.011 532.096C253.763 532.096 252.651 531.824 251.675 531.28C250.699 530.736 249.931 529.984 249.371 529.024C248.827 528.064 248.555 526.968 248.555 525.736C248.555 524.52 248.811 523.432 249.323 522.472C249.851 521.496 250.571 520.736 251.483 520.192C252.395 519.648 253.419 519.376 254.555 519.376C255.691 519.376 256.707 519.648 257.603 520.192C258.515 520.72 259.227 521.464 259.739 522.424C260.267 523.384 260.531 524.472 260.531 525.688L260.507 526.024ZM254.555 520.432C253.675 520.432 252.883 520.632 252.179 521.032C251.475 521.416 250.907 521.968 250.475 522.688C250.059 523.392 249.819 524.192 249.755 525.088H259.355C259.307 524.192 259.067 523.392 258.635 522.688C258.203 521.984 257.635 521.432 256.931 521.032C256.227 520.632 255.435 520.432 254.555 520.432ZM270.531 519.376C271.699 519.376 272.755 519.648 273.699 520.192C274.643 520.736 275.379 521.488 275.907 522.448C276.451 523.408 276.723 524.504 276.723 525.736C276.723 526.968 276.451 528.072 275.907 529.048C275.379 530.008 274.643 530.76 273.699 531.304C272.755 531.832 271.699 532.096 270.531 532.096C269.427 532.096 268.427 531.84 267.531 531.328C266.635 530.8 265.939 530.072 265.443 529.144V536.656H264.243V519.472H265.395V522.424C265.891 521.464 266.587 520.72 267.483 520.192C268.395 519.648 269.411 519.376 270.531 519.376ZM270.459 531.016C271.419 531.016 272.283 530.792 273.051 530.344C273.819 529.896 274.419 529.272 274.851 528.472C275.299 527.672 275.523 526.76 275.523 525.736C275.523 524.712 275.299 523.8 274.851 523C274.419 522.2 273.819 521.576 273.051 521.128C272.283 520.68 271.419 520.456 270.459 520.456C269.499 520.456 268.635 520.68 267.867 521.128C267.115 521.576 266.515 522.2 266.067 523C265.635 523.8 265.419 524.712 265.419 525.736C265.419 526.76 265.635 527.672 266.067 528.472C266.515 529.272 267.115 529.896 267.867 530.344C268.635 530.792 269.499 531.016 270.459 531.016ZM281.591 522.208C281.975 521.296 282.575 520.6 283.391 520.12C284.207 519.624 285.199 519.376 286.367 519.376V520.552L286.079 520.528C284.687 520.528 283.599 520.968 282.815 521.848C282.031 522.712 281.639 523.92 281.639 525.472V532H280.439V519.472H281.591V522.208ZM300.14 526.024H289.364C289.396 527 289.644 527.872 290.108 528.64C290.572 529.392 291.196 529.976 291.98 530.392C292.78 530.808 293.676 531.016 294.668 531.016C295.484 531.016 296.236 530.872 296.924 530.584C297.628 530.28 298.212 529.84 298.676 529.264L299.372 530.056C298.828 530.712 298.14 531.216 297.308 531.568C296.492 531.92 295.604 532.096 294.644 532.096C293.396 532.096 292.284 531.824 291.308 531.28C290.332 530.736 289.564 529.984 289.004 529.024C288.46 528.064 288.188 526.968 288.188 525.736C288.188 524.52 288.444 523.432 288.956 522.472C289.484 521.496 290.204 520.736 291.116 520.192C292.028 519.648 293.052 519.376 294.188 519.376C295.324 519.376 296.34 519.648 297.236 520.192C298.148 520.72 298.86 521.464 299.372 522.424C299.9 523.384 300.164 524.472 300.164 525.688L300.14 526.024ZM294.188 520.432C293.308 520.432 292.516 520.632 291.812 521.032C291.108 521.416 290.54 521.968 290.108 522.688C289.692 523.392 289.452 524.192 289.388 525.088H298.988C298.94 524.192 298.7 523.392 298.268 522.688C297.836 521.984 297.268 521.432 296.564 521.032C295.86 520.632 295.068 520.432 294.188 520.432ZM307.044 532.096C306.036 532.096 305.076 531.944 304.164 531.64C303.252 531.336 302.54 530.952 302.028 530.488L302.58 529.528C303.092 529.96 303.748 530.32 304.548 530.608C305.364 530.896 306.212 531.04 307.092 531.04C308.356 531.04 309.284 530.832 309.876 530.416C310.484 530 310.788 529.424 310.788 528.688C310.788 528.16 310.62 527.744 310.284 527.44C309.964 527.136 309.564 526.912 309.084 526.768C308.604 526.624 307.94 526.472 307.092 526.312C306.1 526.136 305.3 525.944 304.692 525.736C304.084 525.528 303.564 525.192 303.132 524.728C302.7 524.264 302.484 523.624 302.484 522.808C302.484 521.816 302.892 521 303.708 520.36C304.54 519.704 305.716 519.376 307.236 519.376C308.036 519.376 308.828 519.488 309.612 519.712C310.396 519.936 311.036 520.232 311.532 520.6L310.98 521.56C310.468 521.192 309.884 520.912 309.228 520.72C308.572 520.528 307.9 520.432 307.212 520.432C306.044 520.432 305.164 520.648 304.572 521.08C303.98 521.512 303.684 522.08 303.684 522.784C303.684 523.344 303.852 523.784 304.188 524.104C304.524 524.408 304.932 524.64 305.412 524.8C305.908 524.944 306.596 525.104 307.476 525.28C308.452 525.456 309.236 525.648 309.828 525.856C310.436 526.048 310.948 526.368 311.364 526.816C311.78 527.264 311.988 527.88 311.988 528.664C311.988 529.704 311.556 530.536 310.692 531.16C309.828 531.784 308.612 532.096 307.044 532.096ZM325.921 526.024H315.145C315.177 527 315.425 527.872 315.889 528.64C316.353 529.392 316.977 529.976 317.761 530.392C318.561 530.808 319.457 531.016 320.449 531.016C321.265 531.016 322.017 530.872 322.705 530.584C323.409 530.28 323.993 529.84 324.457 529.264L325.153 530.056C324.609 530.712 323.921 531.216 323.089 531.568C322.273 531.92 321.385 532.096 320.425 532.096C319.177 532.096 318.065 531.824 317.089 531.28C316.113 530.736 315.345 529.984 314.785 529.024C314.241 528.064 313.969 526.968 313.969 525.736C313.969 524.52 314.225 523.432 314.737 522.472C315.265 521.496 315.985 520.736 316.897 520.192C317.809 519.648 318.833 519.376 319.969 519.376C321.105 519.376 322.121 519.648 323.017 520.192C323.929 520.72 324.641 521.464 325.153 522.424C325.681 523.384 325.945 524.472 325.945 525.688L325.921 526.024ZM319.969 520.432C319.089 520.432 318.297 520.632 317.593 521.032C316.889 521.416 316.321 521.968 315.889 522.688C315.473 523.392 315.233 524.192 315.169 525.088H324.769C324.721 524.192 324.481 523.392 324.049 522.688C323.617 521.984 323.049 521.432 322.345 521.032C321.641 520.632 320.849 520.432 319.969 520.432ZM335.777 519.376C337.345 519.376 338.585 519.832 339.497 520.744C340.409 521.656 340.865 522.968 340.865 524.68V532H339.665V524.776C339.665 523.368 339.305 522.296 338.585 521.56C337.881 520.824 336.889 520.456 335.609 520.456C334.137 520.456 332.977 520.896 332.129 521.776C331.281 522.656 330.857 523.84 330.857 525.328V532H329.657V519.472H330.809V522.184C331.241 521.304 331.881 520.616 332.729 520.12C333.593 519.624 334.609 519.376 335.777 519.376ZM352.022 531.208C351.718 531.496 351.334 531.72 350.87 531.88C350.422 532.024 349.95 532.096 349.454 532.096C348.366 532.096 347.526 531.8 346.934 531.208C346.342 530.6 346.046 529.76 346.046 528.688V520.504H343.742V519.472H346.046V516.736H347.246V519.472H351.23V520.504H347.246V528.568C347.246 529.384 347.438 530.008 347.822 530.44C348.222 530.856 348.806 531.064 349.574 531.064C350.358 531.064 351.006 530.832 351.518 530.368L352.022 531.208ZM365.507 526.024H354.731C354.763 527 355.011 527.872 355.475 528.64C355.939 529.392 356.563 529.976 357.347 530.392C358.147 530.808 359.043 531.016 360.035 531.016C360.851 531.016 361.603 530.872 362.291 530.584C362.995 530.28 363.579 529.84 364.043 529.264L364.739 530.056C364.195 530.712 363.507 531.216 362.675 531.568C361.859 531.92 360.971 532.096 360.011 532.096C358.763 532.096 357.651 531.824 356.675 531.28C355.699 530.736 354.931 529.984 354.371 529.024C353.827 528.064 353.555 526.968 353.555 525.736C353.555 524.52 353.811 523.432 354.323 522.472C354.851 521.496 355.571 520.736 356.483 520.192C357.395 519.648 358.419 519.376 359.555 519.376C360.691 519.376 361.707 519.648 362.603 520.192C363.515 520.72 364.227 521.464 364.739 522.424C365.267 523.384 365.531 524.472 365.531 525.688L365.507 526.024ZM359.555 520.432C358.675 520.432 357.883 520.632 357.179 521.032C356.475 521.416 355.907 521.968 355.475 522.688C355.059 523.392 354.819 524.192 354.755 525.088H364.355C364.307 524.192 364.067 523.392 363.635 522.688C363.203 521.984 362.635 521.432 361.931 521.032C361.227 520.632 360.435 520.432 359.555 520.432ZM380.379 514.192V532H379.203V529.048C378.707 530.024 378.011 530.776 377.115 531.304C376.219 531.832 375.203 532.096 374.067 532.096C372.899 532.096 371.843 531.824 370.899 531.28C369.955 530.736 369.211 529.984 368.667 529.024C368.139 528.064 367.875 526.968 367.875 525.736C367.875 524.504 368.139 523.408 368.667 522.448C369.211 521.472 369.955 520.72 370.899 520.192C371.843 519.648 372.899 519.376 374.067 519.376C375.187 519.376 376.187 519.64 377.067 520.168C377.963 520.696 378.667 521.432 379.179 522.376V514.192H380.379ZM374.139 531.016C375.099 531.016 375.955 530.792 376.707 530.344C377.475 529.896 378.075 529.272 378.507 528.472C378.955 527.672 379.179 526.76 379.179 525.736C379.179 524.712 378.955 523.8 378.507 523C378.075 522.2 377.475 521.576 376.707 521.128C375.955 520.68 375.099 520.456 374.139 520.456C373.179 520.456 372.315 520.68 371.547 521.128C370.795 521.576 370.195 522.2 369.747 523C369.315 523.8 369.099 524.712 369.099 525.736C369.099 526.76 369.315 527.672 369.747 528.472C370.195 529.272 370.795 529.896 371.547 530.344C372.315 530.792 373.179 531.016 374.139 531.016Z" fill="white"/>
<path d="M251.934 419.5H247.234L248.134 409.3H276.334V394H231.734L228.234 434.9H247.234C257.934 434.9 260.834 437.7 260.834 442C260.834 446.7 256.334 449.4 249.634 449.4C242.934 449.4 235.934 447.4 230.234 443.6L223.134 458.5C230.234 463 240.534 465.4 250.234 465.4C271.334 465.4 280.734 454 280.734 441.5C280.734 429.1 272.634 419.5 251.934 419.5ZM317.376 465.4C335.176 465.4 348.176 452.1 348.176 429C348.176 405.9 335.176 392.6 317.376 392.6C299.476 392.6 286.476 405.9 286.476 429C286.476 452.1 299.476 465.4 317.376 465.4ZM317.376 449.2C310.976 449.2 306.376 443.7 306.376 429C306.376 414.3 310.976 408.8 317.376 408.8C323.676 408.8 328.276 414.3 328.276 429C328.276 443.7 323.676 449.2 317.376 449.2ZM406.829 421.7H389.929V405.2H374.529V421.7H357.529V436.3H374.529V452.8H389.929V436.3H406.829V421.7Z" fill="white"/>
<path d="M716.61 236.12C720.762 236.12 722.658 234.056 722.658 231.68C722.658 225.584 712.17 228.56 712.17 223.52C712.17 221.672 713.634 220.16 716.898 220.16C718.41 220.16 720.114 220.616 721.506 221.576L721.962 220.592C720.666 219.656 718.746 219.08 716.898 219.08C712.77 219.08 710.946 221.168 710.946 223.544C710.946 229.736 721.434 226.712 721.434 231.752C721.434 233.576 719.946 235.04 716.586 235.04C714.33 235.04 712.194 234.128 711.042 232.928L710.49 233.84C711.714 235.184 714.114 236.12 716.61 236.12ZM736.203 223.472V230.144C736.203 233.12 734.451 235.016 731.619 235.016C729.003 235.016 727.491 233.528 727.491 230.696V223.472H726.291V230.792C726.291 234.296 728.331 236.096 731.523 236.096C733.731 236.096 735.435 235.064 736.251 233.312V236H737.403V223.472H736.203ZM748.777 223.376C746.569 223.376 744.697 224.456 743.689 226.328V218.192H742.489V236H743.641V233.048C744.625 234.968 746.521 236.096 748.777 236.096C752.305 236.096 754.969 233.48 754.969 229.736C754.969 225.968 752.305 223.376 748.777 223.376ZM748.705 235.016C745.825 235.016 743.665 232.88 743.665 229.736C743.665 226.592 745.825 224.456 748.705 224.456C751.585 224.456 753.769 226.592 753.769 229.736C753.769 232.88 751.585 235.016 748.705 235.016ZM761.853 236.096C765.045 236.096 766.797 234.704 766.797 232.664C766.797 227.888 758.493 230.552 758.493 226.784C758.493 225.44 759.573 224.432 762.021 224.432C763.365 224.432 764.733 224.792 765.789 225.56L766.341 224.6C765.357 223.856 763.629 223.376 762.045 223.376C758.877 223.376 757.293 224.912 757.293 226.808C757.293 231.728 765.597 229.04 765.597 232.688C765.597 234.104 764.541 235.04 761.901 235.04C760.053 235.04 758.349 234.344 757.389 233.528L756.837 234.488C757.821 235.4 759.789 236.096 761.853 236.096ZM775.114 236.096C777.106 236.096 778.834 235.304 779.866 233.792L778.978 233.144C778.066 234.416 776.674 235.016 775.114 235.016C772.162 235.016 770.002 232.904 770.002 229.736C770.002 226.568 772.162 224.456 775.114 224.456C776.674 224.456 778.066 225.056 778.978 226.328L779.866 225.68C778.834 224.144 777.106 223.376 775.114 223.376C771.442 223.376 768.778 225.992 768.778 229.736C768.778 233.456 771.442 236.096 775.114 236.096ZM784.61 226.208V223.472H783.458V236H784.658V229.472C784.658 226.376 786.314 224.528 789.098 224.528C789.194 224.528 789.29 224.552 789.386 224.552V223.376C787.034 223.376 785.378 224.384 784.61 226.208ZM793.292 220.424C793.844 220.424 794.276 219.992 794.276 219.44C794.276 218.912 793.844 218.48 793.292 218.48C792.74 218.48 792.308 218.936 792.308 219.464C792.308 219.992 792.74 220.424 793.292 220.424ZM792.692 236H793.892V223.472H792.692V236ZM805.238 223.376C803.03 223.376 801.158 224.456 800.15 226.328V218.192H798.95V236H800.102V233.048C801.086 234.968 802.982 236.096 805.238 236.096C808.766 236.096 811.43 233.48 811.43 229.736C811.43 225.968 808.766 223.376 805.238 223.376ZM805.166 235.016C802.286 235.016 800.126 232.88 800.126 229.736C800.126 226.592 802.286 224.456 805.166 224.456C808.046 224.456 810.23 226.592 810.23 229.736C810.23 232.88 808.046 235.016 805.166 235.016ZM825.754 229.688C825.754 225.968 823.21 223.376 819.778 223.376C816.346 223.376 813.778 226.016 813.778 229.736C813.778 233.456 816.442 236.096 820.234 236.096C822.13 236.096 823.858 235.4 824.962 234.056L824.266 233.264C823.306 234.44 821.842 235.016 820.258 235.016C817.258 235.016 815.074 233 814.954 230.024H825.73C825.73 229.904 825.754 229.784 825.754 229.688ZM819.778 224.432C822.442 224.432 824.41 226.376 824.578 229.088H814.978C815.17 226.352 817.114 224.432 819.778 224.432ZM830.618 226.208V223.472H829.466V236H830.666V229.472C830.666 226.376 832.322 224.528 835.106 224.528C835.202 224.528 835.298 224.552 835.394 224.552V223.376C833.042 223.376 831.386 224.384 830.618 226.208ZM841.985 236.096C845.177 236.096 846.929 234.704 846.929 232.664C846.929 227.888 838.625 230.552 838.625 226.784C838.625 225.44 839.705 224.432 842.153 224.432C843.497 224.432 844.865 224.792 845.921 225.56L846.473 224.6C845.489 223.856 843.761 223.376 842.177 223.376C839.009 223.376 837.425 224.912 837.425 226.808C837.425 231.728 845.729 229.04 845.729 232.688C845.729 234.104 844.673 235.04 842.033 235.04C840.185 235.04 838.481 234.344 837.521 233.528L836.969 234.488C837.953 235.4 839.921 236.096 841.985 236.096Z" fill="white"/>
<path d="M725.699 178.225V190H684.824V180.7L704.474 162.325C706.374 160.525 707.649 159 708.299 157.75C708.949 156.45 709.274 155.15 709.274 153.85C709.274 152.15 708.699 150.825 707.549 149.875C706.399 148.925 704.724 148.45 702.524 148.45C700.574 148.45 698.774 148.9 697.124 149.8C695.524 150.65 694.199 151.9 693.149 153.55L682.124 147.4C684.174 144 687.049 141.325 690.749 139.375C694.449 137.425 698.824 136.45 703.874 136.45C707.874 136.45 711.399 137.1 714.449 138.4C717.549 139.7 719.949 141.575 721.649 144.025C723.399 146.425 724.274 149.225 724.274 152.425C724.274 155.275 723.649 157.975 722.399 160.525C721.199 163.025 718.849 165.875 715.349 169.075L705.449 178.225H725.699ZM753.123 191.05C748.623 191.05 744.623 189.975 741.123 187.825C737.623 185.675 734.873 182.55 732.873 178.45C730.923 174.3 729.948 169.4 729.948 163.75C729.948 158.1 730.923 153.225 732.873 149.125C734.873 144.975 737.623 141.825 741.123 139.675C744.623 137.525 748.623 136.45 753.123 136.45C757.573 136.45 761.548 137.525 765.048 139.675C768.548 141.825 771.273 144.975 773.223 149.125C775.223 153.225 776.223 158.1 776.223 163.75C776.223 169.4 775.223 174.3 773.223 178.45C771.273 182.55 768.548 185.675 765.048 187.825C761.548 189.975 757.573 191.05 753.123 191.05ZM753.123 178.9C755.623 178.9 757.598 177.7 759.048 175.3C760.548 172.85 761.298 169 761.298 163.75C761.298 158.5 760.548 154.675 759.048 152.275C757.598 149.825 755.623 148.6 753.123 148.6C750.573 148.6 748.548 149.825 747.048 152.275C745.598 154.675 744.873 158.5 744.873 163.75C744.873 169 745.598 172.85 747.048 175.3C748.548 177.7 750.573 178.9 753.123 178.9ZM804.466 191.05C799.966 191.05 795.966 189.975 792.466 187.825C788.966 185.675 786.216 182.55 784.216 178.45C782.266 174.3 781.291 169.4 781.291 163.75C781.291 158.1 782.266 153.225 784.216 149.125C786.216 144.975 788.966 141.825 792.466 139.675C795.966 137.525 799.966 136.45 804.466 136.45C808.916 136.45 812.891 137.525 816.391 139.675C819.891 141.825 822.616 144.975 824.566 149.125C826.566 153.225 827.566 158.1 827.566 163.75C827.566 169.4 826.566 174.3 824.566 178.45C822.616 182.55 819.891 185.675 816.391 187.825C812.891 189.975 808.916 191.05 804.466 191.05ZM804.466 178.9C806.966 178.9 808.941 177.7 810.391 175.3C811.891 172.85 812.641 169 812.641 163.75C812.641 158.5 811.891 154.675 810.391 152.275C808.941 149.825 806.966 148.6 804.466 148.6C801.916 148.6 799.891 149.825 798.391 152.275C796.941 154.675 796.216 158.5 796.216 163.75C796.216 169 796.941 172.85 798.391 175.3C799.891 177.7 801.916 178.9 804.466 178.9ZM855.808 191.05C851.308 191.05 847.308 189.975 843.808 187.825C840.308 185.675 837.558 182.55 835.558 178.45C833.608 174.3 832.633 169.4 832.633 163.75C832.633 158.1 833.608 153.225 835.558 149.125C837.558 144.975 840.308 141.825 843.808 139.675C847.308 137.525 851.308 136.45 855.808 136.45C860.258 136.45 864.233 137.525 867.733 139.675C871.233 141.825 873.958 144.975 875.908 149.125C877.908 153.225 878.908 158.1 878.908 163.75C878.908 169.4 877.908 174.3 875.908 178.45C873.958 182.55 871.233 185.675 867.733 187.825C864.233 189.975 860.258 191.05 855.808 191.05ZM855.808 178.9C858.308 178.9 860.283 177.7 861.733 175.3C863.233 172.85 863.983 169 863.983 163.75C863.983 158.5 863.233 154.675 861.733 152.275C860.283 149.825 858.308 148.6 855.808 148.6C853.258 148.6 851.233 149.825 849.733 152.275C848.283 154.675 847.558 158.5 847.558 163.75C847.558 169 848.283 172.85 849.733 175.3C851.233 177.7 853.258 178.9 855.808 178.9Z" fill="white"/>
<path d="M339.928 219.612V226.19H348.134V227.202H339.928V234H338.806V218.6H349.102V219.612H339.928ZM361.627 228.522H351.749C351.778 229.417 352.005 230.216 352.431 230.92C352.856 231.609 353.428 232.145 354.147 232.526C354.88 232.907 355.701 233.098 356.611 233.098C357.359 233.098 358.048 232.966 358.679 232.702C359.324 232.423 359.859 232.02 360.285 231.492L360.923 232.218C360.424 232.819 359.793 233.281 359.031 233.604C358.283 233.927 357.469 234.088 356.589 234.088C355.445 234.088 354.425 233.839 353.531 233.34C352.636 232.841 351.932 232.152 351.419 231.272C350.92 230.392 350.671 229.387 350.671 228.258C350.671 227.143 350.905 226.146 351.375 225.266C351.859 224.371 352.519 223.675 353.355 223.176C354.191 222.677 355.129 222.428 356.171 222.428C357.212 222.428 358.143 222.677 358.965 223.176C359.801 223.66 360.453 224.342 360.923 225.222C361.407 226.102 361.649 227.099 361.649 228.214L361.627 228.522ZM356.171 223.396C355.364 223.396 354.638 223.579 353.993 223.946C353.347 224.298 352.827 224.804 352.431 225.464C352.049 226.109 351.829 226.843 351.771 227.664H360.571C360.527 226.843 360.307 226.109 359.911 225.464C359.515 224.819 358.994 224.313 358.349 223.946C357.703 223.579 356.977 223.396 356.171 223.396ZM379.352 222.428C380.774 222.428 381.889 222.846 382.696 223.682C383.517 224.518 383.928 225.721 383.928 227.29V234H382.828V227.378C382.828 226.087 382.512 225.105 381.882 224.43C381.251 223.755 380.371 223.418 379.242 223.418C377.951 223.418 376.924 223.821 376.162 224.628C375.414 225.435 375.04 226.52 375.04 227.884V234H373.94V227.378C373.94 226.087 373.624 225.105 372.994 224.43C372.363 223.755 371.483 223.418 370.354 223.418C369.063 223.418 368.036 223.821 367.274 224.628C366.526 225.435 366.152 226.52 366.152 227.884V234H365.052V222.516H366.108V224.98C366.489 224.173 367.054 223.55 367.802 223.11C368.564 222.655 369.466 222.428 370.508 222.428C371.549 222.428 372.429 222.663 373.148 223.132C373.881 223.601 374.402 224.291 374.71 225.2C375.091 224.349 375.685 223.675 376.492 223.176C377.313 222.677 378.266 222.428 379.352 222.428ZM392.342 222.428C393.764 222.428 394.857 222.795 395.62 223.528C396.382 224.247 396.764 225.31 396.764 226.718V234H395.708V231.954C395.341 232.629 394.806 233.157 394.102 233.538C393.398 233.905 392.554 234.088 391.572 234.088C390.296 234.088 389.284 233.787 388.536 233.186C387.802 232.585 387.436 231.793 387.436 230.81C387.436 229.857 387.773 229.087 388.448 228.5C389.137 227.899 390.23 227.598 391.726 227.598H395.664V226.674C395.664 225.603 395.37 224.789 394.784 224.232C394.212 223.675 393.368 223.396 392.254 223.396C391.491 223.396 390.758 223.528 390.054 223.792C389.364 224.056 388.778 224.408 388.294 224.848L387.744 224.056C388.316 223.543 389.005 223.147 389.812 222.868C390.618 222.575 391.462 222.428 392.342 222.428ZM391.726 233.186C392.679 233.186 393.486 232.966 394.146 232.526C394.82 232.086 395.326 231.448 395.664 230.612V228.456H391.748C390.618 228.456 389.797 228.661 389.284 229.072C388.785 229.483 388.536 230.047 388.536 230.766C388.536 231.514 388.814 232.108 389.372 232.548C389.929 232.973 390.714 233.186 391.726 233.186ZM401.296 217.676H402.396V234H401.296V217.676ZM416.734 228.522H406.856C406.886 229.417 407.113 230.216 407.538 230.92C407.964 231.609 408.536 232.145 409.254 232.526C409.988 232.907 410.809 233.098 411.718 233.098C412.466 233.098 413.156 232.966 413.786 232.702C414.432 232.423 414.967 232.02 415.392 231.492L416.03 232.218C415.532 232.819 414.901 233.281 414.138 233.604C413.39 233.927 412.576 234.088 411.696 234.088C410.552 234.088 409.533 233.839 408.638 233.34C407.744 232.841 407.04 232.152 406.526 231.272C406.028 230.392 405.778 229.387 405.778 228.258C405.778 227.143 406.013 226.146 406.482 225.266C406.966 224.371 407.626 223.675 408.462 223.176C409.298 222.677 410.237 222.428 411.278 222.428C412.32 222.428 413.251 222.677 414.072 223.176C414.908 223.66 415.561 224.342 416.03 225.222C416.514 226.102 416.756 227.099 416.756 228.214L416.734 228.522ZM411.278 223.396C410.472 223.396 409.746 223.579 409.1 223.946C408.455 224.298 407.934 224.804 407.538 225.464C407.157 226.109 406.937 226.843 406.878 227.664H415.678C415.634 226.843 415.414 226.109 415.018 225.464C414.622 224.819 414.102 224.313 413.456 223.946C412.811 223.579 412.085 223.396 411.278 223.396ZM429.682 222.428C431.104 222.428 432.197 222.795 432.96 223.528C433.722 224.247 434.104 225.31 434.104 226.718V234H433.048V231.954C432.681 232.629 432.146 233.157 431.442 233.538C430.738 233.905 429.894 234.088 428.912 234.088C427.636 234.088 426.624 233.787 425.876 233.186C425.142 232.585 424.776 231.793 424.776 230.81C424.776 229.857 425.113 229.087 425.788 228.5C426.477 227.899 427.57 227.598 429.066 227.598H433.004V226.674C433.004 225.603 432.71 224.789 432.124 224.232C431.552 223.675 430.708 223.396 429.594 223.396C428.831 223.396 428.098 223.528 427.394 223.792C426.704 224.056 426.118 224.408 425.634 224.848L425.084 224.056C425.656 223.543 426.345 223.147 427.152 222.868C427.958 222.575 428.802 222.428 429.682 222.428ZM429.066 233.186C430.019 233.186 430.826 232.966 431.486 232.526C432.16 232.086 432.666 231.448 433.004 230.612V228.456H429.088C427.958 228.456 427.137 228.661 426.624 229.072C426.125 229.483 425.876 230.047 425.876 230.766C425.876 231.514 426.154 232.108 426.712 232.548C427.269 232.973 428.054 233.186 429.066 233.186ZM444.246 222.428C445.683 222.428 446.82 222.846 447.656 223.682C448.492 224.518 448.91 225.721 448.91 227.29V234H447.81V227.378C447.81 226.087 447.48 225.105 446.82 224.43C446.174 223.755 445.265 223.418 444.092 223.418C442.742 223.418 441.679 223.821 440.902 224.628C440.124 225.435 439.736 226.52 439.736 227.884V234H438.636V222.516H439.692V225.002C440.088 224.195 440.674 223.565 441.452 223.11C442.244 222.655 443.175 222.428 444.246 222.428ZM463.668 217.676V234H462.59V231.294C462.135 232.189 461.497 232.878 460.676 233.362C459.855 233.846 458.923 234.088 457.882 234.088C456.811 234.088 455.843 233.839 454.978 233.34C454.113 232.841 453.431 232.152 452.932 231.272C452.448 230.392 452.206 229.387 452.206 228.258C452.206 227.129 452.448 226.124 452.932 225.244C453.431 224.349 454.113 223.66 454.978 223.176C455.843 222.677 456.811 222.428 457.882 222.428C458.909 222.428 459.825 222.67 460.632 223.154C461.453 223.638 462.099 224.313 462.568 225.178V217.676H463.668ZM457.948 233.098C458.828 233.098 459.613 232.893 460.302 232.482C461.006 232.071 461.556 231.499 461.952 230.766C462.363 230.033 462.568 229.197 462.568 228.258C462.568 227.319 462.363 226.483 461.952 225.75C461.556 225.017 461.006 224.445 460.302 224.034C459.613 223.623 458.828 223.418 457.948 223.418C457.068 223.418 456.276 223.623 455.572 224.034C454.883 224.445 454.333 225.017 453.922 225.75C453.526 226.483 453.328 227.319 453.328 228.258C453.328 229.197 453.526 230.033 453.922 230.766C454.333 231.499 454.883 232.071 455.572 232.482C456.276 232.893 457.068 233.098 457.948 233.098ZM486.848 218.6V234H485.924L475.43 220.624V234H474.308V218.6H475.254L485.726 231.976V218.6H486.848ZM496.362 234.088C495.277 234.088 494.294 233.839 493.414 233.34C492.549 232.841 491.867 232.152 491.368 231.272C490.869 230.377 490.62 229.373 490.62 228.258C490.62 227.143 490.869 226.146 491.368 225.266C491.867 224.371 492.549 223.675 493.414 223.176C494.294 222.677 495.277 222.428 496.362 222.428C497.447 222.428 498.423 222.677 499.288 223.176C500.168 223.675 500.857 224.371 501.356 225.266C501.855 226.146 502.104 227.143 502.104 228.258C502.104 229.373 501.855 230.377 501.356 231.272C500.857 232.152 500.168 232.841 499.288 233.34C498.423 233.839 497.447 234.088 496.362 234.088ZM496.362 233.098C497.242 233.098 498.027 232.893 498.716 232.482C499.42 232.071 499.97 231.499 500.366 230.766C500.777 230.033 500.982 229.197 500.982 228.258C500.982 227.319 500.777 226.483 500.366 225.75C499.97 225.017 499.42 224.445 498.716 224.034C498.027 223.623 497.242 223.418 496.362 223.418C495.482 223.418 494.69 223.623 493.986 224.034C493.297 224.445 492.747 225.017 492.336 225.75C491.94 226.483 491.742 227.319 491.742 228.258C491.742 229.197 491.94 230.033 492.336 230.766C492.747 231.499 493.297 232.071 493.986 232.482C494.69 232.893 495.482 233.098 496.362 233.098ZM511.127 222.428C512.564 222.428 513.701 222.846 514.537 223.682C515.373 224.518 515.791 225.721 515.791 227.29V234H514.691V227.378C514.691 226.087 514.361 225.105 513.701 224.43C513.055 223.755 512.146 223.418 510.973 223.418C509.623 223.418 508.56 223.821 507.783 224.628C507.005 225.435 506.617 226.52 506.617 227.884V234H505.517V222.516H506.573V225.002C506.969 224.195 507.555 223.565 508.333 223.11C509.125 222.655 510.056 222.428 511.127 222.428ZM519.351 227.598H525.005V228.588H519.351V227.598ZM538.202 226.058C539.302 226.263 540.138 226.696 540.71 227.356C541.297 228.016 541.59 228.874 541.59 229.93C541.59 231.235 541.114 232.24 540.16 232.944C539.207 233.648 537.792 234 535.914 234H529.05V218.6H535.474C537.146 218.6 538.444 218.945 539.368 219.634C540.307 220.309 540.776 221.277 540.776 222.538C540.776 223.418 540.542 224.159 540.072 224.76C539.618 225.361 538.994 225.794 538.202 226.058ZM530.172 219.568V225.706H535.43C536.78 225.706 537.814 225.449 538.532 224.936C539.266 224.408 539.632 223.638 539.632 222.626C539.632 221.629 539.266 220.873 538.532 220.36C537.814 219.832 536.78 219.568 535.43 219.568H530.172ZM535.914 233.032C537.41 233.032 538.54 232.775 539.302 232.262C540.08 231.734 540.468 230.927 540.468 229.842C540.468 228.757 540.08 227.957 539.302 227.444C538.54 226.931 537.41 226.674 535.914 226.674H530.172V233.032H535.914ZM545.241 222.516H546.341V234H545.241V222.516ZM545.791 219.722C545.542 219.722 545.329 219.641 545.153 219.48C544.977 219.304 544.889 219.091 544.889 218.842C544.889 218.593 544.977 218.38 545.153 218.204C545.329 218.028 545.542 217.94 545.791 217.94C546.041 217.94 546.253 218.028 546.429 218.204C546.605 218.365 546.693 218.571 546.693 218.82C546.693 219.069 546.605 219.282 546.429 219.458C546.253 219.634 546.041 219.722 545.791 219.722ZM556.588 222.428C558.025 222.428 559.162 222.846 559.998 223.682C560.834 224.518 561.252 225.721 561.252 227.29V234H560.152V227.378C560.152 226.087 559.822 225.105 559.162 224.43C558.516 223.755 557.607 223.418 556.434 223.418C555.084 223.418 554.021 223.821 553.244 224.628C552.466 225.435 552.078 226.52 552.078 227.884V234H550.978V222.516H552.034V225.002C552.43 224.195 553.016 223.565 553.794 223.11C554.586 222.655 555.517 222.428 556.588 222.428ZM569.652 222.428C571.075 222.428 572.168 222.795 572.93 223.528C573.693 224.247 574.074 225.31 574.074 226.718V234H573.018V231.954C572.652 232.629 572.116 233.157 571.412 233.538C570.708 233.905 569.865 234.088 568.882 234.088C567.606 234.088 566.594 233.787 565.846 233.186C565.113 232.585 564.746 231.793 564.746 230.81C564.746 229.857 565.084 229.087 565.758 228.5C566.448 227.899 567.54 227.598 569.036 227.598H572.974V226.674C572.974 225.603 572.681 224.789 572.094 224.232C571.522 223.675 570.679 223.396 569.564 223.396C568.802 223.396 568.068 223.528 567.364 223.792C566.675 224.056 566.088 224.408 565.604 224.848L565.054 224.056C565.626 223.543 566.316 223.147 567.122 222.868C567.929 222.575 568.772 222.428 569.652 222.428ZM569.036 233.186C569.99 233.186 570.796 232.966 571.456 232.526C572.131 232.086 572.637 231.448 572.974 230.612V228.456H569.058C567.929 228.456 567.108 228.661 566.594 229.072C566.096 229.483 565.846 230.047 565.846 230.766C565.846 231.514 566.125 232.108 566.682 232.548C567.24 232.973 568.024 233.186 569.036 233.186ZM579.662 225.024C580.014 224.188 580.564 223.55 581.312 223.11C582.06 222.655 582.97 222.428 584.04 222.428V223.506L583.776 223.484C582.5 223.484 581.503 223.887 580.784 224.694C580.066 225.486 579.706 226.593 579.706 228.016V234H578.606V222.516H579.662V225.024ZM596.805 222.516L590.909 235.562C590.469 236.574 589.956 237.293 589.369 237.718C588.797 238.143 588.115 238.356 587.323 238.356C586.795 238.356 586.296 238.268 585.827 238.092C585.372 237.916 584.984 237.659 584.661 237.322L585.211 236.486C585.798 237.087 586.509 237.388 587.345 237.388C587.902 237.388 588.379 237.234 588.775 236.926C589.171 236.618 589.538 236.09 589.875 235.342L590.491 233.956L585.321 222.516H586.487L591.085 232.79L595.683 222.516H596.805ZM350.913 245.6C352.849 245.6 354.367 246.062 355.467 246.986C356.567 247.895 357.117 249.164 357.117 250.792C357.117 252.405 356.567 253.674 355.467 254.598C354.367 255.507 352.849 255.962 350.913 255.962H346.513V261H345.391V245.6H350.913ZM350.913 254.95C352.556 254.95 353.81 254.591 354.675 253.872C355.54 253.153 355.973 252.127 355.973 250.792C355.973 249.457 355.54 248.431 354.675 247.712C353.81 246.979 352.556 246.612 350.913 246.612H346.513V254.95H350.913ZM364.315 249.428C365.738 249.428 366.831 249.795 367.593 250.528C368.356 251.247 368.737 252.31 368.737 253.718V261H367.681V258.954C367.315 259.629 366.779 260.157 366.075 260.538C365.371 260.905 364.528 261.088 363.545 261.088C362.269 261.088 361.257 260.787 360.509 260.186C359.776 259.585 359.409 258.793 359.409 257.81C359.409 256.857 359.747 256.087 360.421 255.5C361.111 254.899 362.203 254.598 363.699 254.598H367.637V253.674C367.637 252.603 367.344 251.789 366.757 251.232C366.185 250.675 365.342 250.396 364.227 250.396C363.465 250.396 362.731 250.528 362.027 250.792C361.338 251.056 360.751 251.408 360.267 251.848L359.717 251.056C360.289 250.543 360.979 250.147 361.785 249.868C362.592 249.575 363.435 249.428 364.315 249.428ZM363.699 260.186C364.653 260.186 365.459 259.966 366.119 259.526C366.794 259.086 367.3 258.448 367.637 257.612V255.456H363.721C362.592 255.456 361.771 255.661 361.257 256.072C360.759 256.483 360.509 257.047 360.509 257.766C360.509 258.514 360.788 259.108 361.345 259.548C361.903 259.973 362.687 260.186 363.699 260.186ZM374.326 252.024C374.678 251.188 375.228 250.55 375.976 250.11C376.724 249.655 377.633 249.428 378.704 249.428V250.506L378.44 250.484C377.164 250.484 376.166 250.887 375.448 251.694C374.729 252.486 374.37 253.593 374.37 255.016V261H373.27V249.516H374.326V252.024ZM387.948 260.274C387.669 260.538 387.317 260.743 386.892 260.89C386.481 261.022 386.049 261.088 385.594 261.088C384.597 261.088 383.827 260.817 383.284 260.274C382.741 259.717 382.47 258.947 382.47 257.964V250.462H380.358V249.516H382.47V247.008H383.57V249.516H387.222V250.462H383.57V257.854C383.57 258.602 383.746 259.174 384.098 259.57C384.465 259.951 385 260.142 385.704 260.142C386.423 260.142 387.017 259.929 387.486 259.504L387.948 260.274ZM391.016 249.516H392.116V261H391.016V249.516ZM391.566 246.722C391.316 246.722 391.104 246.641 390.928 246.48C390.752 246.304 390.664 246.091 390.664 245.842C390.664 245.593 390.752 245.38 390.928 245.204C391.104 245.028 391.316 244.94 391.566 244.94C391.815 244.94 392.028 245.028 392.204 245.204C392.38 245.365 392.468 245.571 392.468 245.82C392.468 246.069 392.38 246.282 392.204 246.458C392.028 246.634 391.815 246.722 391.566 246.722ZM401.306 261.088C400.191 261.088 399.194 260.839 398.314 260.34C397.434 259.841 396.745 259.152 396.246 258.272C395.747 257.377 395.498 256.373 395.498 255.258C395.498 254.129 395.747 253.124 396.246 252.244C396.745 251.349 397.434 250.66 398.314 250.176C399.194 249.677 400.191 249.428 401.306 249.428C402.23 249.428 403.066 249.611 403.814 249.978C404.577 250.33 405.193 250.851 405.662 251.54L404.848 252.134C404.437 251.562 403.924 251.137 403.308 250.858C402.707 250.565 402.039 250.418 401.306 250.418C400.411 250.418 399.605 250.623 398.886 251.034C398.182 251.43 397.625 251.995 397.214 252.728C396.818 253.461 396.62 254.305 396.62 255.258C396.62 256.211 396.818 257.055 397.214 257.788C397.625 258.521 398.182 259.093 398.886 259.504C399.605 259.9 400.411 260.098 401.306 260.098C402.039 260.098 402.707 259.959 403.308 259.68C403.924 259.387 404.437 258.954 404.848 258.382L405.662 258.976C405.193 259.665 404.577 260.193 403.814 260.56C403.066 260.912 402.23 261.088 401.306 261.088ZM408.955 249.516H410.055V261H408.955V249.516ZM409.505 246.722C409.256 246.722 409.043 246.641 408.867 246.48C408.691 246.304 408.603 246.091 408.603 245.842C408.603 245.593 408.691 245.38 408.867 245.204C409.043 245.028 409.256 244.94 409.505 244.94C409.754 244.94 409.967 245.028 410.143 245.204C410.319 245.365 410.407 245.571 410.407 245.82C410.407 246.069 410.319 246.282 410.143 246.458C409.967 246.634 409.754 246.722 409.505 246.722ZM420.455 249.428C421.526 249.428 422.494 249.677 423.359 250.176C424.225 250.675 424.899 251.364 425.383 252.244C425.882 253.124 426.131 254.129 426.131 255.258C426.131 256.387 425.882 257.399 425.383 258.294C424.899 259.174 424.225 259.863 423.359 260.362C422.494 260.846 421.526 261.088 420.455 261.088C419.443 261.088 418.527 260.853 417.705 260.384C416.884 259.9 416.246 259.233 415.791 258.382V265.268H414.691V249.516H415.747V252.222C416.202 251.342 416.84 250.66 417.661 250.176C418.497 249.677 419.429 249.428 420.455 249.428ZM420.389 260.098C421.269 260.098 422.061 259.893 422.765 259.482C423.469 259.071 424.019 258.499 424.415 257.766C424.826 257.033 425.031 256.197 425.031 255.258C425.031 254.319 424.826 253.483 424.415 252.75C424.019 252.017 423.469 251.445 422.765 251.034C422.061 250.623 421.269 250.418 420.389 250.418C419.509 250.418 418.717 250.623 418.013 251.034C417.324 251.445 416.774 252.017 416.363 252.75C415.967 253.483 415.769 254.319 415.769 255.258C415.769 256.197 415.967 257.033 416.363 257.766C416.774 258.499 417.324 259.071 418.013 259.482C418.717 259.893 419.509 260.098 420.389 260.098ZM433.366 249.428C434.789 249.428 435.881 249.795 436.644 250.528C437.407 251.247 437.788 252.31 437.788 253.718V261H436.732V258.954C436.365 259.629 435.83 260.157 435.126 260.538C434.422 260.905 433.579 261.088 432.596 261.088C431.32 261.088 430.308 260.787 429.56 260.186C428.827 259.585 428.46 258.793 428.46 257.81C428.46 256.857 428.797 256.087 429.472 255.5C430.161 254.899 431.254 254.598 432.75 254.598H436.688V253.674C436.688 252.603 436.395 251.789 435.808 251.232C435.236 250.675 434.393 250.396 433.278 250.396C432.515 250.396 431.782 250.528 431.078 250.792C430.389 251.056 429.802 251.408 429.318 251.848L428.768 251.056C429.34 250.543 430.029 250.147 430.836 249.868C431.643 249.575 432.486 249.428 433.366 249.428ZM432.75 260.186C433.703 260.186 434.51 259.966 435.17 259.526C435.845 259.086 436.351 258.448 436.688 257.612V255.456H432.772C431.643 255.456 430.821 255.661 430.308 256.072C429.809 256.483 429.56 257.047 429.56 257.766C429.56 258.514 429.839 259.108 430.396 259.548C430.953 259.973 431.738 260.186 432.75 260.186ZM447.93 249.428C449.368 249.428 450.504 249.846 451.34 250.682C452.176 251.518 452.594 252.721 452.594 254.29V261H451.494V254.378C451.494 253.087 451.164 252.105 450.504 251.43C449.859 250.755 448.95 250.418 447.776 250.418C446.427 250.418 445.364 250.821 444.586 251.628C443.809 252.435 443.42 253.52 443.42 254.884V261H442.32V249.516H443.376V252.002C443.772 251.195 444.359 250.565 445.136 250.11C445.928 249.655 446.86 249.428 447.93 249.428ZM462.821 260.274C462.542 260.538 462.19 260.743 461.765 260.89C461.354 261.022 460.922 261.088 460.467 261.088C459.47 261.088 458.7 260.817 458.157 260.274C457.614 259.717 457.343 258.947 457.343 257.964V250.462H455.231V249.516H457.343V247.008H458.443V249.516H462.095V250.462H458.443V257.854C458.443 258.602 458.619 259.174 458.971 259.57C459.338 259.951 459.873 260.142 460.577 260.142C461.296 260.142 461.89 259.929 462.359 259.504L462.821 260.274ZM468.793 261.088C467.869 261.088 466.989 260.949 466.153 260.67C465.317 260.391 464.664 260.039 464.195 259.614L464.701 258.734C465.17 259.13 465.771 259.46 466.505 259.724C467.253 259.988 468.03 260.12 468.837 260.12C469.995 260.12 470.846 259.929 471.389 259.548C471.946 259.167 472.225 258.639 472.225 257.964C472.225 257.48 472.071 257.099 471.763 256.82C471.469 256.541 471.103 256.336 470.663 256.204C470.223 256.072 469.614 255.933 468.837 255.786C467.927 255.625 467.194 255.449 466.637 255.258C466.079 255.067 465.603 254.759 465.207 254.334C464.811 253.909 464.613 253.322 464.613 252.574C464.613 251.665 464.987 250.917 465.735 250.33C466.497 249.729 467.575 249.428 468.969 249.428C469.702 249.428 470.428 249.531 471.147 249.736C471.865 249.941 472.452 250.213 472.907 250.55L472.401 251.43C471.931 251.093 471.396 250.836 470.795 250.66C470.193 250.484 469.577 250.396 468.947 250.396C467.876 250.396 467.069 250.594 466.527 250.99C465.984 251.386 465.713 251.907 465.713 252.552C465.713 253.065 465.867 253.469 466.175 253.762C466.483 254.041 466.857 254.253 467.297 254.4C467.751 254.532 468.382 254.679 469.189 254.84C470.083 255.001 470.802 255.177 471.345 255.368C471.902 255.544 472.371 255.837 472.753 256.248C473.134 256.659 473.325 257.223 473.325 257.942C473.325 258.895 472.929 259.658 472.137 260.23C471.345 260.802 470.23 261.088 468.793 261.088ZM491.923 256.666H482.991L481.033 261H479.823L486.907 245.6H488.029L495.113 261H493.903L491.923 256.666ZM491.505 255.72L487.457 246.832L483.431 255.72H491.505ZM503.147 260.274C502.869 260.538 502.517 260.743 502.091 260.89C501.681 261.022 501.248 261.088 500.793 261.088C499.796 261.088 499.026 260.817 498.483 260.274C497.941 259.717 497.669 258.947 497.669 257.964V250.462H495.557V249.516H497.669V247.008H498.769V249.516H502.421V250.462H498.769V257.854C498.769 258.602 498.945 259.174 499.297 259.57C499.664 259.951 500.199 260.142 500.903 260.142C501.622 260.142 502.216 259.929 502.685 259.504L503.147 260.274ZM511.612 260.274C511.333 260.538 510.981 260.743 510.556 260.89C510.145 261.022 509.713 261.088 509.258 261.088C508.261 261.088 507.491 260.817 506.948 260.274C506.405 259.717 506.134 258.947 506.134 257.964V250.462H504.022V249.516H506.134V247.008H507.234V249.516H510.886V250.462H507.234V257.854C507.234 258.602 507.41 259.174 507.762 259.57C508.129 259.951 508.664 260.142 509.368 260.142C510.087 260.142 510.681 259.929 511.15 259.504L511.612 260.274ZM523.973 255.522H514.095C514.125 256.417 514.352 257.216 514.777 257.92C515.203 258.609 515.775 259.145 516.493 259.526C517.227 259.907 518.048 260.098 518.957 260.098C519.705 260.098 520.395 259.966 521.025 259.702C521.671 259.423 522.206 259.02 522.631 258.492L523.269 259.218C522.771 259.819 522.14 260.281 521.377 260.604C520.629 260.927 519.815 261.088 518.935 261.088C517.791 261.088 516.772 260.839 515.877 260.34C514.983 259.841 514.279 259.152 513.765 258.272C513.267 257.392 513.017 256.387 513.017 255.258C513.017 254.143 513.252 253.146 513.721 252.266C514.205 251.371 514.865 250.675 515.701 250.176C516.537 249.677 517.476 249.428 518.517 249.428C519.559 249.428 520.49 249.677 521.311 250.176C522.147 250.66 522.8 251.342 523.269 252.222C523.753 253.102 523.995 254.099 523.995 255.214L523.973 255.522ZM518.517 250.396C517.711 250.396 516.985 250.579 516.339 250.946C515.694 251.298 515.173 251.804 514.777 252.464C514.396 253.109 514.176 253.843 514.117 254.664H522.917C522.873 253.843 522.653 253.109 522.257 252.464C521.861 251.819 521.341 251.313 520.695 250.946C520.05 250.579 519.324 250.396 518.517 250.396ZM533.008 249.428C534.446 249.428 535.582 249.846 536.418 250.682C537.254 251.518 537.672 252.721 537.672 254.29V261H536.572V254.378C536.572 253.087 536.242 252.105 535.582 251.43C534.937 250.755 534.028 250.418 532.854 250.418C531.505 250.418 530.442 250.821 529.664 251.628C528.887 252.435 528.498 253.52 528.498 254.884V261H527.398V249.516H528.454V252.002C528.85 251.195 529.437 250.565 530.214 250.11C531.006 249.655 531.938 249.428 533.008 249.428ZM552.431 244.676V261H551.353V258.294C550.898 259.189 550.26 259.878 549.439 260.362C548.617 260.846 547.686 261.088 546.645 261.088C545.574 261.088 544.606 260.839 543.741 260.34C542.875 259.841 542.193 259.152 541.695 258.272C541.211 257.392 540.969 256.387 540.969 255.258C540.969 254.129 541.211 253.124 541.695 252.244C542.193 251.349 542.875 250.66 543.741 250.176C544.606 249.677 545.574 249.428 546.645 249.428C547.671 249.428 548.588 249.67 549.395 250.154C550.216 250.638 550.861 251.313 551.331 252.178V244.676H552.431ZM546.711 260.098C547.591 260.098 548.375 259.893 549.065 259.482C549.769 259.071 550.319 258.499 550.715 257.766C551.125 257.033 551.331 256.197 551.331 255.258C551.331 254.319 551.125 253.483 550.715 252.75C550.319 252.017 549.769 251.445 549.065 251.034C548.375 250.623 547.591 250.418 546.711 250.418C545.831 250.418 545.039 250.623 544.335 251.034C543.645 251.445 543.095 252.017 542.685 252.75C542.289 253.483 542.091 254.319 542.091 255.258C542.091 256.197 542.289 257.033 542.685 257.766C543.095 258.499 543.645 259.071 544.335 259.482C545.039 259.893 545.831 260.098 546.711 260.098ZM557.068 249.516H558.168V261H557.068V249.516ZM557.618 246.722C557.369 246.722 557.156 246.641 556.98 246.48C556.804 246.304 556.716 246.091 556.716 245.842C556.716 245.593 556.804 245.38 556.98 245.204C557.156 245.028 557.369 244.94 557.618 244.94C557.868 244.94 558.08 245.028 558.256 245.204C558.432 245.365 558.52 245.571 558.52 245.82C558.52 246.069 558.432 246.282 558.256 246.458C558.08 246.634 557.868 246.722 557.618 246.722ZM568.415 249.428C569.852 249.428 570.989 249.846 571.825 250.682C572.661 251.518 573.079 252.721 573.079 254.29V261H571.979V254.378C571.979 253.087 571.649 252.105 570.989 251.43C570.343 250.755 569.434 250.418 568.261 250.418C566.911 250.418 565.848 250.821 565.071 251.628C564.293 252.435 563.905 253.52 563.905 254.884V261H562.805V249.516H563.861V252.002C564.257 251.195 564.843 250.565 565.621 250.11C566.413 249.655 567.344 249.428 568.415 249.428ZM587.969 249.516V259.768C587.969 261.675 587.507 263.083 586.583 263.992C585.659 264.901 584.266 265.356 582.403 265.356C581.347 265.356 580.35 265.195 579.411 264.872C578.472 264.549 577.717 264.102 577.145 263.53L577.739 262.694C578.311 263.222 579 263.633 579.807 263.926C580.614 264.219 581.472 264.366 582.381 264.366C583.906 264.366 585.036 263.999 585.769 263.266C586.502 262.547 586.869 261.425 586.869 259.9V257.964C586.4 258.8 585.747 259.445 584.911 259.9C584.075 260.355 583.136 260.582 582.095 260.582C581.024 260.582 580.049 260.347 579.169 259.878C578.304 259.394 577.622 258.727 577.123 257.876C576.624 257.025 576.375 256.065 576.375 254.994C576.375 253.923 576.624 252.963 577.123 252.112C577.622 251.261 578.304 250.601 579.169 250.132C580.049 249.663 581.024 249.428 582.095 249.428C583.151 249.428 584.104 249.663 584.955 250.132C585.806 250.601 586.458 251.261 586.913 252.112V249.516H587.969ZM582.183 259.592C583.078 259.592 583.884 259.401 584.603 259.02C585.322 258.624 585.879 258.081 586.275 257.392C586.686 256.688 586.891 255.889 586.891 254.994C586.891 254.099 586.686 253.307 586.275 252.618C585.879 251.929 585.322 251.393 584.603 251.012C583.884 250.616 583.078 250.418 582.183 250.418C581.288 250.418 580.482 250.616 579.763 251.012C579.059 251.393 578.502 251.929 578.091 252.618C577.695 253.307 577.497 254.099 577.497 254.994C577.497 255.889 577.695 256.688 578.091 257.392C578.502 258.081 579.059 258.624 579.763 259.02C580.482 259.401 581.288 259.592 582.183 259.592ZM421.546 272.6V288H420.424V280.674H410.128V288H409.006V272.6H410.128V279.684H420.424V272.6H421.546ZM430.444 276.428C431.867 276.428 432.96 276.795 433.722 277.528C434.485 278.247 434.866 279.31 434.866 280.718V288H433.81V285.954C433.444 286.629 432.908 287.157 432.204 287.538C431.5 287.905 430.657 288.088 429.674 288.088C428.398 288.088 427.386 287.787 426.638 287.186C425.905 286.585 425.538 285.793 425.538 284.81C425.538 283.857 425.876 283.087 426.55 282.5C427.24 281.899 428.332 281.598 429.828 281.598H433.766V280.674C433.766 279.603 433.473 278.789 432.886 278.232C432.314 277.675 431.471 277.396 430.356 277.396C429.594 277.396 428.86 277.528 428.156 277.792C427.467 278.056 426.88 278.408 426.396 278.848L425.846 278.056C426.418 277.543 427.108 277.147 427.914 276.868C428.721 276.575 429.564 276.428 430.444 276.428ZM429.828 287.186C430.782 287.186 431.588 286.966 432.248 286.526C432.923 286.086 433.429 285.448 433.766 284.612V282.456H429.85C428.721 282.456 427.9 282.661 427.386 283.072C426.888 283.483 426.638 284.047 426.638 284.766C426.638 285.514 426.917 286.108 427.474 286.548C428.032 286.973 428.816 287.186 429.828 287.186ZM443.974 288.088C442.859 288.088 441.862 287.839 440.982 287.34C440.102 286.841 439.413 286.152 438.914 285.272C438.415 284.377 438.166 283.373 438.166 282.258C438.166 281.129 438.415 280.124 438.914 279.244C439.413 278.349 440.102 277.66 440.982 277.176C441.862 276.677 442.859 276.428 443.974 276.428C444.898 276.428 445.734 276.611 446.482 276.978C447.245 277.33 447.861 277.851 448.33 278.54L447.516 279.134C447.105 278.562 446.592 278.137 445.976 277.858C445.375 277.565 444.707 277.418 443.974 277.418C443.079 277.418 442.273 277.623 441.554 278.034C440.85 278.43 440.293 278.995 439.882 279.728C439.486 280.461 439.288 281.305 439.288 282.258C439.288 283.211 439.486 284.055 439.882 284.788C440.293 285.521 440.85 286.093 441.554 286.504C442.273 286.9 443.079 287.098 443.974 287.098C444.707 287.098 445.375 286.959 445.976 286.68C446.592 286.387 447.105 285.954 447.516 285.382L448.33 285.976C447.861 286.665 447.245 287.193 446.482 287.56C445.734 287.912 444.898 288.088 443.974 288.088ZM455.522 281.862L452.53 284.59V288H451.43V271.676H452.53V283.226L459.878 276.516H461.286L456.336 281.158L461.77 288H460.406L455.522 281.862ZM468.02 276.428C469.443 276.428 470.536 276.795 471.298 277.528C472.061 278.247 472.442 279.31 472.442 280.718V288H471.386V285.954C471.02 286.629 470.484 287.157 469.78 287.538C469.076 287.905 468.233 288.088 467.25 288.088C465.974 288.088 464.962 287.787 464.214 287.186C463.481 286.585 463.114 285.793 463.114 284.81C463.114 283.857 463.452 283.087 464.126 282.5C464.816 281.899 465.908 281.598 467.404 281.598H471.342V280.674C471.342 279.603 471.049 278.789 470.462 278.232C469.89 277.675 469.047 277.396 467.932 277.396C467.17 277.396 466.436 277.528 465.732 277.792C465.043 278.056 464.456 278.408 463.972 278.848L463.422 278.056C463.994 277.543 464.684 277.147 465.49 276.868C466.297 276.575 467.14 276.428 468.02 276.428ZM467.404 287.186C468.358 287.186 469.164 286.966 469.824 286.526C470.499 286.086 471.005 285.448 471.342 284.612V282.456H467.426C466.297 282.456 465.476 282.661 464.962 283.072C464.464 283.483 464.214 284.047 464.214 284.766C464.214 285.514 464.493 286.108 465.05 286.548C465.608 286.973 466.392 287.186 467.404 287.186ZM482.673 287.274C482.394 287.538 482.042 287.743 481.617 287.89C481.206 288.022 480.773 288.088 480.319 288.088C479.321 288.088 478.551 287.817 478.009 287.274C477.466 286.717 477.195 285.947 477.195 284.964V277.462H475.083V276.516H477.195V274.008H478.295V276.516H481.947V277.462H478.295V284.854C478.295 285.602 478.471 286.174 478.823 286.57C479.189 286.951 479.725 287.142 480.429 287.142C481.147 287.142 481.741 286.929 482.211 286.504L482.673 287.274ZM491.35 276.428C492.788 276.428 493.924 276.846 494.76 277.682C495.596 278.518 496.014 279.721 496.014 281.29V288H494.914V281.378C494.914 280.087 494.584 279.105 493.924 278.43C493.279 277.755 492.37 277.418 491.196 277.418C489.847 277.418 488.784 277.821 488.006 278.628C487.229 279.435 486.84 280.52 486.84 281.884V288H485.74V271.676H486.84V278.914C487.236 278.122 487.823 277.513 488.6 277.088C489.378 276.648 490.294 276.428 491.35 276.428ZM505.052 288.088C503.967 288.088 502.984 287.839 502.104 287.34C501.239 286.841 500.557 286.152 500.058 285.272C499.56 284.377 499.31 283.373 499.31 282.258C499.31 281.143 499.56 280.146 500.058 279.266C500.557 278.371 501.239 277.675 502.104 277.176C502.984 276.677 503.967 276.428 505.052 276.428C506.138 276.428 507.113 276.677 507.978 277.176C508.858 277.675 509.548 278.371 510.046 279.266C510.545 280.146 510.794 281.143 510.794 282.258C510.794 283.373 510.545 284.377 510.046 285.272C509.548 286.152 508.858 286.841 507.978 287.34C507.113 287.839 506.138 288.088 505.052 288.088ZM505.052 287.098C505.932 287.098 506.717 286.893 507.406 286.482C508.11 286.071 508.66 285.499 509.056 284.766C509.467 284.033 509.672 283.197 509.672 282.258C509.672 281.319 509.467 280.483 509.056 279.75C508.66 279.017 508.11 278.445 507.406 278.034C506.717 277.623 505.932 277.418 505.052 277.418C504.172 277.418 503.38 277.623 502.676 278.034C501.987 278.445 501.437 279.017 501.026 279.75C500.63 280.483 500.432 281.319 500.432 282.258C500.432 283.197 500.63 284.033 501.026 284.766C501.437 285.499 501.987 286.071 502.676 286.482C503.38 286.893 504.172 287.098 505.052 287.098ZM519.817 276.428C521.254 276.428 522.391 276.846 523.227 277.682C524.063 278.518 524.481 279.721 524.481 281.29V288H523.381V281.378C523.381 280.087 523.051 279.105 522.391 278.43C521.746 277.755 520.836 277.418 519.663 277.418C518.314 277.418 517.25 277.821 516.473 278.628C515.696 279.435 515.307 280.52 515.307 281.884V288H514.207V276.516H515.263V279.002C515.659 278.195 516.246 277.565 517.023 277.11C517.815 276.655 518.746 276.428 519.817 276.428Z" fill="white"/>
<path d="M399.306 152C405.106 153.2 409.539 155.6 412.606 159.2C415.739 162.733 417.306 167.033 417.306 172.1C417.306 176.233 416.173 180.067 413.906 183.6C411.706 187.133 408.306 190 403.706 192.2C399.173 194.333 393.539 195.4 386.806 195.4C381.873 195.4 376.973 194.8 372.106 193.6C367.306 192.4 363.139 190.7 359.606 188.5L366.806 173.6C369.539 175.467 372.606 176.9 376.006 177.9C379.473 178.9 382.873 179.4 386.206 179.4C389.606 179.4 392.306 178.767 394.306 177.5C396.306 176.233 397.306 174.433 397.306 172.1C397.306 167.567 393.739 165.3 386.606 165.3H378.306V152.8L390.806 139.3H363.206V124H413.806V136.4L399.306 152ZM459.46 149.4C463.86 149.4 467.893 150.333 471.56 152.2C475.226 154 478.126 156.6 480.26 160C482.46 163.333 483.56 167.167 483.56 171.5C483.56 176.233 482.326 180.433 479.86 184.1C477.46 187.7 474.16 190.5 469.96 192.5C465.826 194.433 461.193 195.4 456.06 195.4C446.06 195.4 438.16 192.433 432.36 186.5C426.56 180.567 423.66 172.033 423.66 160.9C423.66 152.9 425.193 146.033 428.26 140.3C431.393 134.5 435.76 130.1 441.36 127.1C446.96 124.1 453.46 122.6 460.86 122.6C464.86 122.6 468.66 123.033 472.26 123.9C475.86 124.767 478.926 126.033 481.46 127.7L474.26 141.9C470.86 139.5 466.56 138.3 461.36 138.3C456.293 138.3 452.193 139.7 449.06 142.5C445.926 145.3 444.126 149.333 443.66 154.6C447.66 151.133 452.926 149.4 459.46 149.4ZM454.86 181.3C457.66 181.3 459.926 180.5 461.66 178.9C463.46 177.3 464.36 175.133 464.36 172.4C464.36 169.733 463.46 167.6 461.66 166C459.926 164.4 457.626 163.6 454.76 163.6C451.893 163.6 449.56 164.433 447.76 166.1C445.96 167.7 445.06 169.833 445.06 172.5C445.06 175.1 445.926 177.233 447.66 178.9C449.46 180.5 451.86 181.3 454.86 181.3ZM503.348 161.9C498.081 161.9 493.781 160.167 490.448 156.7C487.115 153.233 485.448 148.5 485.448 142.5C485.448 138.567 486.215 135.133 487.748 132.2C489.281 129.267 491.381 127.033 494.048 125.5C496.781 123.9 499.881 123.1 503.348 123.1C508.681 123.1 513.015 124.867 516.348 128.4C519.681 131.867 521.348 136.567 521.348 142.5C521.348 148.5 519.681 153.233 516.348 156.7C513.015 160.167 508.681 161.9 503.348 161.9ZM544.748 124H559.148L511.348 194H496.948L544.748 124ZM503.348 152.4C505.148 152.4 506.581 151.6 507.648 150C508.715 148.4 509.248 145.9 509.248 142.5C509.248 139.1 508.715 136.6 507.648 135C506.581 133.4 505.148 132.6 503.348 132.6C501.615 132.6 500.181 133.433 499.048 135.1C497.981 136.7 497.448 139.167 497.448 142.5C497.448 145.833 497.981 148.333 499.048 150C500.181 151.6 501.615 152.4 503.348 152.4ZM552.748 194.9C547.415 194.9 543.081 193.167 539.748 189.7C536.481 186.233 534.848 181.5 534.848 175.5C534.848 169.567 536.515 164.867 539.848 161.4C543.181 157.867 547.481 156.1 552.748 156.1C558.081 156.1 562.415 157.867 565.748 161.4C569.081 164.867 570.748 169.567 570.748 175.5C570.748 181.5 569.081 186.233 565.748 189.7C562.415 193.167 558.081 194.9 552.748 194.9ZM552.748 185.4C554.548 185.4 555.981 184.6 557.048 183C558.115 181.4 558.648 178.9 558.648 175.5C558.648 172.1 558.115 169.6 557.048 168C555.981 166.4 554.548 165.6 552.748 165.6C550.948 165.6 549.515 166.4 548.448 168C547.381 169.6 546.848 172.1 546.848 175.5C546.848 178.9 547.381 181.4 548.448 183C549.515 184.6 550.948 185.4 552.748 185.4Z" fill="white"/>
<path d="M77.9559 222.2C80.0679 222.2 81.7239 222.704 82.9239 223.712C84.1239 224.704 84.7239 226.088 84.7239 227.864C84.7239 229.624 84.1239 231.008 82.9239 232.016C81.7239 233.008 80.0679 233.504 77.9559 233.504H73.1559V239H71.9319V222.2H77.9559ZM77.9559 232.4C79.7479 232.4 81.1159 232.008 82.0599 231.224C83.0039 230.44 83.4759 229.32 83.4759 227.864C83.4759 226.408 83.0039 225.288 82.0599 224.504C81.1159 223.704 79.7479 223.304 77.9559 223.304H73.1559V232.4H77.9559ZM92.5766 226.376C94.1286 226.376 95.3206 226.776 96.1526 227.576C96.9846 228.36 97.4006 229.52 97.4006 231.056V239H96.2486V236.768C95.8486 237.504 95.2646 238.08 94.4966 238.496C93.7286 238.896 92.8086 239.096 91.7366 239.096C90.3446 239.096 89.2406 238.768 88.4246 238.112C87.6246 237.456 87.2246 236.592 87.2246 235.52C87.2246 234.48 87.5926 233.64 88.3286 233C89.0806 232.344 90.2726 232.016 91.9046 232.016H96.2006V231.008C96.2006 229.84 95.8806 228.952 95.2406 228.344C94.6166 227.736 93.6966 227.432 92.4806 227.432C91.6486 227.432 90.8486 227.576 90.0806 227.864C89.3286 228.152 88.6886 228.536 88.1606 229.016L87.5606 228.152C88.1846 227.592 88.9366 227.16 89.8166 226.856C90.6966 226.536 91.6166 226.376 92.5766 226.376ZM91.9046 238.112C92.9446 238.112 93.8246 237.872 94.5446 237.392C95.2806 236.912 95.8326 236.216 96.2006 235.304V232.952H91.9286C90.6966 232.952 89.8006 233.176 89.2406 233.624C88.6966 234.072 88.4246 234.688 88.4246 235.472C88.4246 236.288 88.7286 236.936 89.3366 237.416C89.9446 237.88 90.8006 238.112 91.9046 238.112ZM105.513 239.096C104.505 239.096 103.545 238.944 102.633 238.64C101.721 238.336 101.009 237.952 100.497 237.488L101.049 236.528C101.561 236.96 102.217 237.32 103.017 237.608C103.833 237.896 104.681 238.04 105.561 238.04C106.825 238.04 107.753 237.832 108.345 237.416C108.953 237 109.257 236.424 109.257 235.688C109.257 235.16 109.089 234.744 108.753 234.44C108.433 234.136 108.033 233.912 107.553 233.768C107.073 233.624 106.409 233.472 105.561 233.312C104.569 233.136 103.769 232.944 103.161 232.736C102.553 232.528 102.033 232.192 101.601 231.728C101.169 231.264 100.953 230.624 100.953 229.808C100.953 228.816 101.361 228 102.177 227.36C103.009 226.704 104.185 226.376 105.705 226.376C106.505 226.376 107.297 226.488 108.081 226.712C108.865 226.936 109.505 227.232 110.001 227.6L109.449 228.56C108.937 228.192 108.353 227.912 107.697 227.72C107.041 227.528 106.369 227.432 105.681 227.432C104.513 227.432 103.633 227.648 103.041 228.08C102.449 228.512 102.153 229.08 102.153 229.784C102.153 230.344 102.321 230.784 102.657 231.104C102.993 231.408 103.401 231.64 103.881 231.8C104.377 231.944 105.065 232.104 105.945 232.28C106.921 232.456 107.705 232.648 108.297 232.856C108.905 233.048 109.417 233.368 109.833 233.816C110.249 234.264 110.457 234.88 110.457 235.664C110.457 236.704 110.025 237.536 109.161 238.16C108.297 238.784 107.081 239.096 105.513 239.096ZM120.022 238.208C119.718 238.496 119.334 238.72 118.87 238.88C118.422 239.024 117.95 239.096 117.454 239.096C116.366 239.096 115.526 238.8 114.934 238.208C114.342 237.6 114.046 236.76 114.046 235.688V227.504H111.742V226.472H114.046V223.736H115.246V226.472H119.23V227.504H115.246V235.568C115.246 236.384 115.438 237.008 115.822 237.44C116.222 237.856 116.806 238.064 117.574 238.064C118.358 238.064 119.006 237.832 119.518 237.368L120.022 238.208ZM134.332 239.12C133.1 239.12 131.924 238.912 130.804 238.496C129.7 238.064 128.836 237.512 128.212 236.84L128.764 235.928C129.356 236.552 130.148 237.064 131.14 237.464C132.148 237.848 133.204 238.04 134.308 238.04C135.908 238.04 137.116 237.736 137.932 237.128C138.748 236.52 139.156 235.728 139.156 234.752C139.156 234 138.94 233.4 138.508 232.952C138.076 232.504 137.54 232.16 136.9 231.92C136.26 231.68 135.396 231.432 134.308 231.176C133.076 230.872 132.084 230.576 131.332 230.288C130.596 230 129.964 229.56 129.436 228.968C128.924 228.36 128.668 227.552 128.668 226.544C128.668 225.728 128.884 224.984 129.316 224.312C129.748 223.624 130.404 223.08 131.284 222.68C132.18 222.28 133.292 222.08 134.62 222.08C135.548 222.08 136.46 222.216 137.356 222.488C138.252 222.76 139.028 223.128 139.684 223.592L139.228 224.576C138.556 224.112 137.812 223.76 136.996 223.52C136.196 223.28 135.404 223.16 134.62 223.16C133.068 223.16 131.892 223.472 131.092 224.096C130.292 224.72 129.892 225.528 129.892 226.52C129.892 227.272 130.108 227.872 130.54 228.32C130.972 228.768 131.508 229.112 132.148 229.352C132.788 229.592 133.66 229.848 134.764 230.12C135.996 230.424 136.98 230.72 137.716 231.008C138.452 231.296 139.076 231.736 139.588 232.328C140.116 232.904 140.38 233.688 140.38 234.68C140.38 235.496 140.156 236.24 139.708 236.912C139.276 237.584 138.604 238.12 137.692 238.52C136.78 238.92 135.66 239.12 134.332 239.12ZM150.445 226.376C151.613 226.376 152.669 226.648 153.613 227.192C154.557 227.736 155.293 228.488 155.821 229.448C156.365 230.408 156.637 231.504 156.637 232.736C156.637 233.968 156.365 235.072 155.821 236.048C155.293 237.008 154.557 237.76 153.613 238.304C152.669 238.832 151.613 239.096 150.445 239.096C149.341 239.096 148.341 238.84 147.445 238.328C146.549 237.8 145.853 237.072 145.357 236.144V243.656H144.157V226.472H145.309V229.424C145.805 228.464 146.501 227.72 147.397 227.192C148.309 226.648 149.325 226.376 150.445 226.376ZM150.373 238.016C151.333 238.016 152.197 237.792 152.965 237.344C153.733 236.896 154.333 236.272 154.765 235.472C155.213 234.672 155.437 233.76 155.437 232.736C155.437 231.712 155.213 230.8 154.765 230C154.333 229.2 153.733 228.576 152.965 228.128C152.197 227.68 151.333 227.456 150.373 227.456C149.413 227.456 148.549 227.68 147.781 228.128C147.029 228.576 146.429 229.2 145.981 230C145.549 230.8 145.333 231.712 145.333 232.736C145.333 233.76 145.549 234.672 145.981 235.472C146.429 236.272 147.029 236.896 147.781 237.344C148.549 237.792 149.413 238.016 150.373 238.016ZM165.249 239.096C164.065 239.096 162.993 238.824 162.033 238.28C161.089 237.736 160.345 236.984 159.801 236.024C159.257 235.048 158.985 233.952 158.985 232.736C158.985 231.52 159.257 230.432 159.801 229.472C160.345 228.496 161.089 227.736 162.033 227.192C162.993 226.648 164.065 226.376 165.249 226.376C166.433 226.376 167.497 226.648 168.441 227.192C169.401 227.736 170.153 228.496 170.697 229.472C171.241 230.432 171.513 231.52 171.513 232.736C171.513 233.952 171.241 235.048 170.697 236.024C170.153 236.984 169.401 237.736 168.441 238.28C167.497 238.824 166.433 239.096 165.249 239.096ZM165.249 238.016C166.209 238.016 167.065 237.792 167.817 237.344C168.585 236.896 169.185 236.272 169.617 235.472C170.065 234.672 170.289 233.76 170.289 232.736C170.289 231.712 170.065 230.8 169.617 230C169.185 229.2 168.585 228.576 167.817 228.128C167.065 227.68 166.209 227.456 165.249 227.456C164.289 227.456 163.425 227.68 162.657 228.128C161.905 228.576 161.305 229.2 160.857 230C160.425 230.8 160.209 231.712 160.209 232.736C160.209 233.76 160.425 234.672 160.857 235.472C161.305 236.272 161.905 236.896 162.657 237.344C163.425 237.792 164.289 238.016 165.249 238.016ZM181.355 226.376C182.923 226.376 184.163 226.832 185.075 227.744C185.987 228.656 186.443 229.968 186.443 231.68V239H185.243V231.776C185.243 230.368 184.883 229.296 184.163 228.56C183.459 227.824 182.467 227.456 181.187 227.456C179.715 227.456 178.555 227.896 177.707 228.776C176.859 229.656 176.435 230.84 176.435 232.328V239H175.235V226.472H176.387V229.184C176.819 228.304 177.459 227.616 178.307 227.12C179.171 226.624 180.187 226.376 181.355 226.376ZM194.552 239.096C193.544 239.096 192.584 238.944 191.672 238.64C190.76 238.336 190.048 237.952 189.536 237.488L190.088 236.528C190.6 236.96 191.256 237.32 192.056 237.608C192.872 237.896 193.72 238.04 194.6 238.04C195.864 238.04 196.792 237.832 197.384 237.416C197.992 237 198.296 236.424 198.296 235.688C198.296 235.16 198.128 234.744 197.792 234.44C197.472 234.136 197.072 233.912 196.592 233.768C196.112 233.624 195.448 233.472 194.6 233.312C193.608 233.136 192.808 232.944 192.2 232.736C191.592 232.528 191.072 232.192 190.64 231.728C190.208 231.264 189.992 230.624 189.992 229.808C189.992 228.816 190.4 228 191.216 227.36C192.048 226.704 193.224 226.376 194.744 226.376C195.544 226.376 196.336 226.488 197.12 226.712C197.904 226.936 198.544 227.232 199.04 227.6L198.488 228.56C197.976 228.192 197.392 227.912 196.736 227.72C196.08 227.528 195.408 227.432 194.72 227.432C193.552 227.432 192.672 227.648 192.08 228.08C191.488 228.512 191.192 229.08 191.192 229.784C191.192 230.344 191.36 230.784 191.696 231.104C192.032 231.408 192.44 231.64 192.92 231.8C193.416 231.944 194.104 232.104 194.984 232.28C195.96 232.456 196.744 232.648 197.336 232.856C197.944 233.048 198.456 233.368 198.872 233.816C199.288 234.264 199.496 234.88 199.496 235.664C199.496 236.704 199.064 237.536 198.2 238.16C197.336 238.784 196.12 239.096 194.552 239.096ZM207.741 239.096C206.557 239.096 205.485 238.824 204.525 238.28C203.581 237.736 202.837 236.984 202.293 236.024C201.749 235.048 201.477 233.952 201.477 232.736C201.477 231.52 201.749 230.432 202.293 229.472C202.837 228.496 203.581 227.736 204.525 227.192C205.485 226.648 206.557 226.376 207.741 226.376C208.925 226.376 209.989 226.648 210.933 227.192C211.893 227.736 212.645 228.496 213.189 229.472C213.733 230.432 214.005 231.52 214.005 232.736C214.005 233.952 213.733 235.048 213.189 236.024C212.645 236.984 211.893 237.736 210.933 238.28C209.989 238.824 208.925 239.096 207.741 239.096ZM207.741 238.016C208.701 238.016 209.557 237.792 210.309 237.344C211.077 236.896 211.677 236.272 212.109 235.472C212.557 234.672 212.781 233.76 212.781 232.736C212.781 231.712 212.557 230.8 212.109 230C211.677 229.2 211.077 228.576 210.309 228.128C209.557 227.68 208.701 227.456 207.741 227.456C206.781 227.456 205.917 227.68 205.149 228.128C204.397 228.576 203.797 229.2 203.349 230C202.917 230.8 202.701 231.712 202.701 232.736C202.701 233.76 202.917 234.672 203.349 235.472C203.797 236.272 204.397 236.896 205.149 237.344C205.917 237.792 206.781 238.016 207.741 238.016ZM218.88 229.208C219.264 228.296 219.864 227.6 220.68 227.12C221.496 226.624 222.488 226.376 223.656 226.376V227.552L223.368 227.528C221.976 227.528 220.888 227.968 220.104 228.848C219.32 229.712 218.928 230.92 218.928 232.472V239H217.728V226.472H218.88V229.208ZM230.247 239.096C229.239 239.096 228.279 238.944 227.367 238.64C226.455 238.336 225.743 237.952 225.231 237.488L225.783 236.528C226.295 236.96 226.951 237.32 227.751 237.608C228.567 237.896 229.415 238.04 230.295 238.04C231.559 238.04 232.487 237.832 233.079 237.416C233.687 237 233.991 236.424 233.991 235.688C233.991 235.16 233.823 234.744 233.487 234.44C233.167 234.136 232.767 233.912 232.287 233.768C231.807 233.624 231.143 233.472 230.295 233.312C229.303 233.136 228.503 232.944 227.895 232.736C227.287 232.528 226.767 232.192 226.335 231.728C225.903 231.264 225.687 230.624 225.687 229.808C225.687 228.816 226.095 228 226.911 227.36C227.743 226.704 228.919 226.376 230.439 226.376C231.239 226.376 232.031 226.488 232.815 226.712C233.599 226.936 234.239 227.232 234.735 227.6L234.183 228.56C233.671 228.192 233.087 227.912 232.431 227.72C231.775 227.528 231.103 227.432 230.415 227.432C229.247 227.432 228.367 227.648 227.775 228.08C227.183 228.512 226.887 229.08 226.887 229.784C226.887 230.344 227.055 230.784 227.391 231.104C227.727 231.408 228.135 231.64 228.615 231.8C229.111 231.944 229.799 232.104 230.679 232.28C231.655 232.456 232.439 232.648 233.031 232.856C233.639 233.048 234.151 233.368 234.567 233.816C234.983 234.264 235.191 234.88 235.191 235.664C235.191 236.704 234.759 237.536 233.895 238.16C233.031 238.784 231.815 239.096 230.247 239.096Z" fill="white"/>
<path d="M135.689 130V200H115.889V145.3H102.889V130H135.689ZM196.616 163.1C199.816 164.967 202.283 167.267 204.016 170C205.75 172.733 206.616 175.867 206.616 179.4C206.616 183.8 205.35 187.667 202.816 191C200.283 194.333 196.716 196.9 192.116 198.7C187.516 200.5 182.216 201.4 176.216 201.4C170.216 201.4 164.916 200.5 160.316 198.7C155.716 196.9 152.15 194.333 149.616 191C147.083 187.667 145.816 183.8 145.816 179.4C145.816 175.867 146.683 172.733 148.416 170C150.15 167.267 152.616 164.967 155.816 163.1C153.416 161.433 151.55 159.4 150.216 157C148.95 154.6 148.316 151.933 148.316 149C148.316 144.933 149.483 141.367 151.816 138.3C154.15 135.167 157.416 132.767 161.616 131.1C165.883 129.433 170.75 128.6 176.216 128.6C181.683 128.6 186.516 129.433 190.716 131.1C194.983 132.767 198.283 135.167 200.616 138.3C202.95 141.367 204.116 144.933 204.116 149C204.116 151.933 203.45 154.6 202.116 157C200.85 159.4 199.016 161.433 196.616 163.1ZM176.216 142.5C173.75 142.5 171.75 143.167 170.216 144.5C168.683 145.767 167.916 147.567 167.916 149.9C167.916 152.167 168.65 153.967 170.116 155.3C171.65 156.567 173.683 157.2 176.216 157.2C178.75 157.2 180.783 156.567 182.316 155.3C183.85 153.967 184.616 152.167 184.616 149.9C184.616 147.567 183.85 145.767 182.316 144.5C180.783 143.167 178.75 142.5 176.216 142.5ZM176.216 187.5C179.416 187.5 181.95 186.733 183.816 185.2C185.75 183.6 186.716 181.467 186.716 178.8C186.716 176.133 185.75 174.033 183.816 172.5C181.95 170.9 179.416 170.1 176.216 170.1C173.016 170.1 170.45 170.9 168.516 172.5C166.65 174.033 165.716 176.133 165.716 178.8C165.716 181.467 166.65 183.6 168.516 185.2C170.45 186.733 173.016 187.5 176.216 187.5Z" fill="white"/>
<path d="M464.5 3L318 86.5V260.5L464.5 346.5L615.5 260.5V86.5L464.5 3Z" stroke="url(#paint0_linear_4_9)" stroke-width="5"/>
<path d="M776.5 3L630 86.5V260.5L776.5 346.5L927.5 260.5V86.5L776.5 3Z" stroke="url(#paint1_linear_4_9)" stroke-width="5"/>
<path d="M306.5 271L160 354.5V528.5L306.5 614.5L457.5 528.5V354.5L306.5 271Z" stroke="url(#paint2_linear_4_9)" stroke-width="5"/>
<path d="M149.5 3L3 86.5V260.5L149.5 346.5L300.5 260.5V86.5L149.5 3Z" stroke="url(#paint3_linear_4_9)" stroke-width="5"/>
<path d="M621.5 277L475 360.5V534.5L621.5 620.5L772.5 534.5V360.5L621.5 277Z" stroke="url(#paint4_linear_4_9)" stroke-width="5"/>
<defs>
<linearGradient id="paint0_linear_4_9" x1="466.75" y1="3" x2="466.75" y2="346.5" gradientUnits="userSpaceOnUse">
<stop stop-color="#6E2F62"/>
<stop offset="1" stop-color="#003399"/>
</linearGradient>
<linearGradient id="paint1_linear_4_9" x1="778.75" y1="3" x2="778.75" y2="346.5" gradientUnits="userSpaceOnUse">
<stop stop-color="#003399"/>
<stop offset="1" stop-color="#3399CC"/>
</linearGradient>
<linearGradient id="paint2_linear_4_9" x1="308.75" y1="271" x2="308.75" y2="614.5" gradientUnits="userSpaceOnUse">
<stop stop-color="#003399"/>
<stop offset="1" stop-color="#3399CC"/>
</linearGradient>
<linearGradient id="paint3_linear_4_9" x1="151.75" y1="3" x2="151.75" y2="346.5" gradientUnits="userSpaceOnUse">
<stop stop-color="#CC0000"/>
<stop offset="1" stop-color="#6E2F62"/>
</linearGradient>
<linearGradient id="paint4_linear_4_9" x1="623.75" y1="277" x2="623.75" y2="620.5" gradientUnits="userSpaceOnUse">
<stop stop-color="#CC0000"/>
<stop offset="1" stop-color="#6E2F62"/>
</linearGradient>
</defs>
</svg>
