<svg width="930" height="624" viewBox="0 0 930 624" fill="none" xmlns="http://www.w3.org/2000/svg">
<path d="M530.531 508V492.6H536.053C537.343 492.6 538.451 492.805 539.375 493.216C540.299 493.627 541.01 494.221 541.509 494.998C542.007 495.761 542.257 496.692 542.257 497.792C542.257 498.863 542.007 499.787 541.509 500.564C541.01 501.341 540.299 501.935 539.375 502.346C538.451 502.757 537.343 502.962 536.053 502.962H531.147L531.653 502.434V508H530.531ZM531.653 502.5L531.147 501.95H536.053C537.71 501.95 538.964 501.591 539.815 500.872C540.68 500.139 541.113 499.112 541.113 497.792C541.113 496.457 540.68 495.431 539.815 494.712C538.964 493.979 537.71 493.612 536.053 493.612H531.147L531.653 493.062V502.5ZM550.114 508.088C549.014 508.088 548.031 507.839 547.166 507.34C546.315 506.841 545.633 506.152 545.12 505.272C544.621 504.392 544.372 503.387 544.372 502.258C544.372 501.114 544.621 500.109 545.12 499.244C545.633 498.364 546.315 497.675 547.166 497.176C548.031 496.677 549.014 496.428 550.114 496.428C551.214 496.428 552.197 496.677 553.062 497.176C553.927 497.675 554.609 498.364 555.108 499.244C555.607 500.109 555.856 501.114 555.856 502.258C555.856 503.387 555.607 504.392 555.108 505.272C554.609 506.152 553.927 506.841 553.062 507.34C552.197 507.839 551.214 508.088 550.114 508.088ZM550.114 507.098C550.994 507.098 551.786 506.9 552.49 506.504C553.194 506.093 553.744 505.521 554.14 504.788C554.536 504.055 554.734 503.211 554.734 502.258C554.734 501.29 554.536 500.447 554.14 499.728C553.744 498.995 553.194 498.43 552.49 498.034C551.786 497.623 550.994 497.418 550.114 497.418C549.234 497.418 548.442 497.623 547.738 498.034C547.049 498.43 546.499 498.995 546.088 499.728C545.692 500.447 545.494 501.29 545.494 502.258C545.494 503.211 545.692 504.055 546.088 504.788C546.499 505.521 547.049 506.093 547.738 506.504C548.442 506.9 549.234 507.098 550.114 507.098ZM563.691 508.088C562.62 508.088 561.652 507.846 560.787 507.362C559.936 506.863 559.261 506.174 558.763 505.294C558.264 504.414 558.015 503.402 558.015 502.258C558.015 501.099 558.264 500.087 558.763 499.222C559.261 498.342 559.936 497.66 560.787 497.176C561.652 496.677 562.62 496.428 563.691 496.428C564.703 496.428 565.612 496.663 566.419 497.132C567.24 497.601 567.885 498.269 568.355 499.134C568.839 499.999 569.081 501.041 569.081 502.258C569.081 503.446 568.846 504.48 568.377 505.36C567.907 506.24 567.262 506.915 566.441 507.384C565.634 507.853 564.717 508.088 563.691 508.088ZM563.757 507.098C564.637 507.098 565.421 506.9 566.111 506.504C566.815 506.093 567.365 505.521 567.761 504.788C568.171 504.055 568.377 503.211 568.377 502.258C568.377 501.29 568.171 500.447 567.761 499.728C567.365 498.995 566.815 498.43 566.111 498.034C565.421 497.623 564.637 497.418 563.757 497.418C562.877 497.418 562.085 497.623 561.381 498.034C560.691 498.43 560.141 498.995 559.731 499.728C559.335 500.447 559.137 501.29 559.137 502.258C559.137 503.211 559.335 504.055 559.731 504.788C560.141 505.521 560.691 506.093 561.381 506.504C562.085 506.9 562.877 507.098 563.757 507.098ZM568.399 508V504.238L568.597 502.236L568.377 500.234V491.676H569.477V508H568.399ZM578.668 508.088C577.554 508.088 576.556 507.839 575.676 507.34C574.811 506.841 574.122 506.152 573.608 505.272C573.11 504.392 572.86 503.387 572.86 502.258C572.86 501.114 573.11 500.102 573.608 499.222C574.122 498.342 574.811 497.66 575.676 497.176C576.556 496.677 577.554 496.428 578.668 496.428C579.592 496.428 580.428 496.604 581.176 496.956C581.939 497.308 582.555 497.836 583.024 498.54L582.21 499.134C581.8 498.547 581.286 498.115 580.67 497.836C580.054 497.557 579.387 497.418 578.668 497.418C577.774 497.418 576.967 497.623 576.248 498.034C575.544 498.43 574.987 498.995 574.576 499.728C574.18 500.447 573.982 501.29 573.982 502.258C573.982 503.226 574.18 504.077 574.576 504.81C574.987 505.529 575.544 506.093 576.248 506.504C576.967 506.9 577.774 507.098 578.668 507.098C579.387 507.098 580.054 506.959 580.67 506.68C581.286 506.401 581.8 505.969 582.21 505.382L583.024 505.976C582.555 506.68 581.939 507.208 581.176 507.56C580.428 507.912 579.592 508.088 578.668 508.088ZM593.555 508V505.382L593.511 504.986V500.674C593.511 499.603 593.218 498.789 592.631 498.232C592.059 497.675 591.216 497.396 590.101 497.396C589.309 497.396 588.569 497.535 587.879 497.814C587.205 498.078 586.625 498.423 586.141 498.848L585.591 498.056C586.163 497.543 586.853 497.147 587.659 496.868C588.466 496.575 589.309 496.428 590.189 496.428C591.612 496.428 592.705 496.787 593.467 497.506C594.23 498.225 594.611 499.295 594.611 500.718V508H593.555ZM589.419 508.088C588.569 508.088 587.828 507.956 587.197 507.692C586.581 507.413 586.105 507.025 585.767 506.526C585.445 506.027 585.283 505.455 585.283 504.81C585.283 504.223 585.415 503.695 585.679 503.226C585.958 502.742 586.413 502.353 587.043 502.06C587.674 501.752 588.517 501.598 589.573 501.598H593.797V502.456H589.595C588.407 502.456 587.571 502.676 587.087 503.116C586.618 503.556 586.383 504.106 586.383 504.766C586.383 505.499 586.662 506.086 587.219 506.526C587.777 506.966 588.561 507.186 589.573 507.186C590.541 507.186 591.355 506.966 592.015 506.526C592.69 506.086 593.189 505.448 593.511 504.612L593.819 505.36C593.511 506.196 592.983 506.863 592.235 507.362C591.502 507.846 590.563 508.088 589.419 508.088ZM602.048 508.088C601.094 508.088 600.2 507.949 599.364 507.67C598.542 507.391 597.904 507.039 597.45 506.614L597.956 505.734C598.396 506.115 598.982 506.445 599.716 506.724C600.449 506.988 601.241 507.12 602.092 507.12C603.294 507.12 604.16 506.922 604.688 506.526C605.216 506.13 605.48 505.609 605.48 504.964C605.48 504.495 605.34 504.128 605.062 503.864C604.798 503.585 604.438 503.373 603.984 503.226C603.529 503.079 603.03 502.962 602.488 502.874C601.945 502.771 601.402 502.661 600.86 502.544C600.317 502.427 599.818 502.258 599.364 502.038C598.909 501.818 598.542 501.517 598.264 501.136C598 500.74 597.868 500.219 597.868 499.574C597.868 498.987 598.029 498.459 598.352 497.99C598.674 497.521 599.158 497.147 599.804 496.868C600.449 496.575 601.256 496.428 602.224 496.428C602.942 496.428 603.661 496.531 604.38 496.736C605.113 496.941 605.707 497.213 606.162 497.55L605.656 498.43C605.172 498.063 604.629 497.799 604.028 497.638C603.426 497.477 602.818 497.396 602.202 497.396C601.087 497.396 600.266 497.601 599.738 498.012C599.224 498.423 598.968 498.936 598.968 499.552C598.968 500.036 599.1 500.425 599.364 500.718C599.642 500.997 600.009 501.217 600.464 501.378C600.918 501.525 601.417 501.649 601.96 501.752C602.502 501.84 603.045 501.943 603.588 502.06C604.13 502.177 604.629 502.346 605.084 502.566C605.538 502.771 605.898 503.065 606.162 503.446C606.44 503.813 606.58 504.311 606.58 504.942C606.58 505.573 606.404 506.123 606.052 506.592C605.714 507.061 605.208 507.428 604.534 507.692C603.859 507.956 603.03 508.088 602.048 508.088ZM612.993 508.088C611.981 508.088 611.204 507.809 610.661 507.252C610.133 506.695 609.869 505.932 609.869 504.964V494.008H610.969V504.854C610.969 505.587 611.153 506.152 611.519 506.548C611.886 506.944 612.414 507.142 613.103 507.142C613.822 507.142 614.416 506.929 614.885 506.504L615.347 507.274C615.054 507.553 614.695 507.758 614.269 507.89C613.859 508.022 613.433 508.088 612.993 508.088ZM607.757 497.462V496.516H614.621V497.462H607.757ZM625.407 499.684H633.745V500.674H625.407V499.684ZM625.539 506.988H635.043V508H624.417V492.6H634.713V493.612H625.539V506.988ZM644.546 508.088C643.534 508.088 642.618 507.853 641.796 507.384C640.99 506.915 640.344 506.247 639.86 505.382C639.391 504.502 639.156 503.461 639.156 502.258C639.156 501.055 639.391 500.021 639.86 499.156C640.344 498.276 640.99 497.601 641.796 497.132C642.618 496.663 643.534 496.428 644.546 496.428C645.632 496.428 646.6 496.677 647.45 497.176C648.316 497.66 648.99 498.342 649.474 499.222C649.973 500.102 650.222 501.114 650.222 502.258C650.222 503.402 649.973 504.414 649.474 505.294C648.99 506.174 648.316 506.863 647.45 507.362C646.6 507.846 645.632 508.088 644.546 508.088ZM638.782 512.268V496.516H639.838V500.278L639.662 502.28L639.882 504.282V512.268H638.782ZM644.48 507.098C645.36 507.098 646.152 506.9 646.856 506.504C647.56 506.093 648.11 505.521 648.506 504.788C648.917 504.055 649.122 503.211 649.122 502.258C649.122 501.29 648.917 500.447 648.506 499.728C648.11 498.995 647.56 498.43 646.856 498.034C646.152 497.623 645.36 497.418 644.48 497.418C643.6 497.418 642.808 497.623 642.104 498.034C641.415 498.43 640.865 498.995 640.454 499.728C640.058 500.447 639.86 501.29 639.86 502.258C639.86 503.211 640.058 504.055 640.454 504.788C640.865 505.521 641.415 506.093 642.104 506.504C642.808 506.9 643.6 507.098 644.48 507.098ZM653.628 508V496.516H654.728V508H653.628ZM654.178 493.722C653.929 493.722 653.716 493.634 653.54 493.458C653.364 493.282 653.276 493.077 653.276 492.842C653.276 492.593 653.364 492.38 653.54 492.204C653.716 492.028 653.929 491.94 654.178 491.94C654.442 491.94 654.655 492.028 654.816 492.204C654.992 492.365 655.08 492.571 655.08 492.82C655.08 493.069 654.992 493.282 654.816 493.458C654.655 493.634 654.442 493.722 654.178 493.722ZM662.268 508.088C661.315 508.088 660.42 507.949 659.584 507.67C658.763 507.391 658.125 507.039 657.67 506.614L658.176 505.734C658.616 506.115 659.203 506.445 659.936 506.724C660.67 506.988 661.462 507.12 662.312 507.12C663.515 507.12 664.38 506.922 664.908 506.526C665.436 506.13 665.7 505.609 665.7 504.964C665.7 504.495 665.561 504.128 665.282 503.864C665.018 503.585 664.659 503.373 664.204 503.226C663.75 503.079 663.251 502.962 662.708 502.874C662.166 502.771 661.623 502.661 661.08 502.544C660.538 502.427 660.039 502.258 659.584 502.038C659.13 501.818 658.763 501.517 658.484 501.136C658.22 500.74 658.088 500.219 658.088 499.574C658.088 498.987 658.25 498.459 658.572 497.99C658.895 497.521 659.379 497.147 660.024 496.868C660.67 496.575 661.476 496.428 662.444 496.428C663.163 496.428 663.882 496.531 664.6 496.736C665.334 496.941 665.928 497.213 666.382 497.55L665.876 498.43C665.392 498.063 664.85 497.799 664.248 497.638C663.647 497.477 663.038 497.396 662.422 497.396C661.308 497.396 660.486 497.601 659.958 498.012C659.445 498.423 659.188 498.936 659.188 499.552C659.188 500.036 659.32 500.425 659.584 500.718C659.863 500.997 660.23 501.217 660.684 501.378C661.139 501.525 661.638 501.649 662.18 501.752C662.723 501.84 663.266 501.943 663.808 502.06C664.351 502.177 664.85 502.346 665.304 502.566C665.759 502.771 666.118 503.065 666.382 503.446C666.661 503.813 666.8 504.311 666.8 504.942C666.8 505.573 666.624 506.123 666.272 506.592C665.935 507.061 665.429 507.428 664.754 507.692C664.08 507.956 663.251 508.088 662.268 508.088ZM674.358 508.088C673.258 508.088 672.275 507.839 671.41 507.34C670.559 506.841 669.877 506.152 669.364 505.272C668.865 504.392 668.616 503.387 668.616 502.258C668.616 501.114 668.865 500.109 669.364 499.244C669.877 498.364 670.559 497.675 671.41 497.176C672.275 496.677 673.258 496.428 674.358 496.428C675.458 496.428 676.441 496.677 677.306 497.176C678.171 497.675 678.853 498.364 679.352 499.244C679.851 500.109 680.1 501.114 680.1 502.258C680.1 503.387 679.851 504.392 679.352 505.272C678.853 506.152 678.171 506.841 677.306 507.34C676.441 507.839 675.458 508.088 674.358 508.088ZM674.358 507.098C675.238 507.098 676.03 506.9 676.734 506.504C677.438 506.093 677.988 505.521 678.384 504.788C678.78 504.055 678.978 503.211 678.978 502.258C678.978 501.29 678.78 500.447 678.384 499.728C677.988 498.995 677.438 498.43 676.734 498.034C676.03 497.623 675.238 497.418 674.358 497.418C673.478 497.418 672.686 497.623 671.982 498.034C671.293 498.43 670.743 498.995 670.332 499.728C669.936 500.447 669.738 501.29 669.738 502.258C669.738 503.211 669.936 504.055 670.332 504.788C670.743 505.521 671.293 506.093 671.982 506.504C672.686 506.9 673.478 507.098 674.358 507.098ZM687.935 508.088C686.864 508.088 685.896 507.846 685.031 507.362C684.18 506.863 683.505 506.174 683.007 505.294C682.508 504.414 682.259 503.402 682.259 502.258C682.259 501.099 682.508 500.087 683.007 499.222C683.505 498.342 684.18 497.66 685.031 497.176C685.896 496.677 686.864 496.428 687.935 496.428C688.947 496.428 689.856 496.663 690.663 497.132C691.484 497.601 692.129 498.269 692.599 499.134C693.083 499.999 693.325 501.041 693.325 502.258C693.325 503.446 693.09 504.48 692.621 505.36C692.151 506.24 691.506 506.915 690.685 507.384C689.878 507.853 688.961 508.088 687.935 508.088ZM688.001 507.098C688.881 507.098 689.665 506.9 690.355 506.504C691.059 506.093 691.609 505.521 692.005 504.788C692.415 504.055 692.621 503.211 692.621 502.258C692.621 501.29 692.415 500.447 692.005 499.728C691.609 498.995 691.059 498.43 690.355 498.034C689.665 497.623 688.881 497.418 688.001 497.418C687.121 497.418 686.329 497.623 685.625 498.034C684.935 498.43 684.385 498.995 683.975 499.728C683.579 500.447 683.381 501.29 683.381 502.258C683.381 503.211 683.579 504.055 683.975 504.788C684.385 505.521 684.935 506.093 685.625 506.504C686.329 506.9 687.121 507.098 688.001 507.098ZM692.643 508V504.238L692.841 502.236L692.621 500.234V491.676H693.721V508H692.643ZM703.022 508.088C701.864 508.088 700.837 507.839 699.942 507.34C699.062 506.841 698.366 506.152 697.852 505.272C697.354 504.392 697.104 503.387 697.104 502.258C697.104 501.114 697.339 500.109 697.808 499.244C698.292 498.364 698.952 497.675 699.788 497.176C700.624 496.677 701.563 496.428 702.604 496.428C703.646 496.428 704.577 496.67 705.398 497.154C706.234 497.638 706.887 498.32 707.356 499.2C707.84 500.065 708.082 501.07 708.082 502.214C708.082 502.258 708.075 502.309 708.06 502.368C708.06 502.412 708.06 502.463 708.06 502.522H697.918V501.664H707.466L707.026 502.082C707.041 501.187 706.85 500.388 706.454 499.684C706.073 498.965 705.552 498.408 704.892 498.012C704.232 497.601 703.47 497.396 702.604 497.396C701.754 497.396 700.991 497.601 700.316 498.012C699.656 498.408 699.136 498.965 698.754 499.684C698.373 500.388 698.182 501.195 698.182 502.104V502.302C698.182 503.241 698.388 504.077 698.798 504.81C699.224 505.529 699.803 506.093 700.536 506.504C701.27 506.9 702.106 507.098 703.044 507.098C703.778 507.098 704.46 506.966 705.09 506.702C705.736 506.438 706.278 506.035 706.718 505.492L707.356 506.218C706.858 506.834 706.227 507.303 705.464 507.626C704.716 507.934 703.902 508.088 703.022 508.088ZM559.792 535V519.6H565.886C567.514 519.6 568.944 519.93 570.176 520.59C571.408 521.25 572.362 522.159 573.036 523.318C573.726 524.477 574.07 525.804 574.07 527.3C574.07 528.796 573.726 530.123 573.036 531.282C572.362 532.441 571.408 533.35 570.176 534.01C568.944 534.67 567.514 535 565.886 535H559.792ZM560.914 533.988H565.798C567.25 533.988 568.512 533.702 569.582 533.13C570.653 532.558 571.482 531.773 572.068 530.776C572.655 529.764 572.948 528.605 572.948 527.3C572.948 525.995 572.655 524.843 572.068 523.846C571.482 522.834 570.653 522.042 569.582 521.47C568.512 520.898 567.25 520.612 565.798 520.612H560.914V533.988ZM582.104 535.088C581.004 535.088 580.022 534.839 579.156 534.34C578.306 533.841 577.624 533.152 577.11 532.272C576.612 531.392 576.362 530.387 576.362 529.258C576.362 528.114 576.612 527.109 577.11 526.244C577.624 525.364 578.306 524.675 579.156 524.176C580.022 523.677 581.004 523.428 582.104 523.428C583.204 523.428 584.187 523.677 585.052 524.176C585.918 524.675 586.6 525.364 587.098 526.244C587.597 527.109 587.846 528.114 587.846 529.258C587.846 530.387 587.597 531.392 587.098 532.272C586.6 533.152 585.918 533.841 585.052 534.34C584.187 534.839 583.204 535.088 582.104 535.088ZM582.104 534.098C582.984 534.098 583.776 533.9 584.48 533.504C585.184 533.093 585.734 532.521 586.13 531.788C586.526 531.055 586.724 530.211 586.724 529.258C586.724 528.29 586.526 527.447 586.13 526.728C585.734 525.995 585.184 525.43 584.48 525.034C583.776 524.623 582.984 524.418 582.104 524.418C581.224 524.418 580.432 524.623 579.728 525.034C579.039 525.43 578.489 525.995 578.078 526.728C577.682 527.447 577.484 528.29 577.484 529.258C577.484 530.211 577.682 531.055 578.078 531.788C578.489 532.521 579.039 533.093 579.728 533.504C580.432 533.9 581.224 534.098 582.104 534.098ZM593.18 535L588.824 523.516H589.88L593.928 534.384H593.466L597.624 523.516H598.57L602.706 534.384H602.222L606.336 523.516H607.348L602.992 535H601.958L597.91 524.572H598.262L594.192 535H593.18ZM615.517 523.428C616.456 523.428 617.27 523.611 617.959 523.978C618.663 524.33 619.206 524.873 619.587 525.606C619.983 526.325 620.181 527.219 620.181 528.29V535H619.081V528.378C619.081 527.087 618.751 526.105 618.091 525.43C617.446 524.755 616.537 524.418 615.363 524.418C614.469 524.418 613.691 524.601 613.031 524.968C612.371 525.335 611.865 525.848 611.513 526.508C611.176 527.168 611.007 527.96 611.007 528.884V535H609.907V523.516H610.963V526.706L610.809 526.354C611.161 525.445 611.741 524.733 612.547 524.22C613.354 523.692 614.344 523.428 615.517 523.428ZM624.71 535V518.676H625.81V535H624.71ZM634.934 535.088C633.834 535.088 632.852 534.839 631.986 534.34C631.136 533.841 630.454 533.152 629.94 532.272C629.442 531.392 629.192 530.387 629.192 529.258C629.192 528.114 629.442 527.109 629.94 526.244C630.454 525.364 631.136 524.675 631.986 524.176C632.852 523.677 633.834 523.428 634.934 523.428C636.034 523.428 637.017 523.677 637.882 524.176C638.748 524.675 639.43 525.364 639.928 526.244C640.427 527.109 640.676 528.114 640.676 529.258C640.676 530.387 640.427 531.392 639.928 532.272C639.43 533.152 638.748 533.841 637.882 534.34C637.017 534.839 636.034 535.088 634.934 535.088ZM634.934 534.098C635.814 534.098 636.606 533.9 637.31 533.504C638.014 533.093 638.564 532.521 638.96 531.788C639.356 531.055 639.554 530.211 639.554 529.258C639.554 528.29 639.356 527.447 638.96 526.728C638.564 525.995 638.014 525.43 637.31 525.034C636.606 524.623 635.814 524.418 634.934 524.418C634.054 524.418 633.262 524.623 632.558 525.034C631.869 525.43 631.319 525.995 630.908 526.728C630.512 527.447 630.314 528.29 630.314 529.258C630.314 530.211 630.512 531.055 630.908 531.788C631.319 532.521 631.869 533.093 632.558 533.504C633.262 533.9 634.054 534.098 634.934 534.098ZM651.284 535V532.382L651.24 531.986V527.674C651.24 526.603 650.947 525.789 650.36 525.232C649.788 524.675 648.945 524.396 647.83 524.396C647.038 524.396 646.297 524.535 645.608 524.814C644.933 525.078 644.354 525.423 643.87 525.848L643.32 525.056C643.892 524.543 644.581 524.147 645.388 523.868C646.195 523.575 647.038 523.428 647.918 523.428C649.341 523.428 650.433 523.787 651.196 524.506C651.959 525.225 652.34 526.295 652.34 527.718V535H651.284ZM647.148 535.088C646.297 535.088 645.557 534.956 644.926 534.692C644.31 534.413 643.833 534.025 643.496 533.526C643.173 533.027 643.012 532.455 643.012 531.81C643.012 531.223 643.144 530.695 643.408 530.226C643.687 529.742 644.141 529.353 644.772 529.06C645.403 528.752 646.246 528.598 647.302 528.598H651.526V529.456H647.324C646.136 529.456 645.3 529.676 644.816 530.116C644.347 530.556 644.112 531.106 644.112 531.766C644.112 532.499 644.391 533.086 644.948 533.526C645.505 533.966 646.29 534.186 647.302 534.186C648.27 534.186 649.084 533.966 649.744 533.526C650.419 533.086 650.917 532.448 651.24 531.612L651.548 532.36C651.24 533.196 650.712 533.863 649.964 534.362C649.231 534.846 648.292 535.088 647.148 535.088ZM661.294 535.088C660.223 535.088 659.255 534.846 658.39 534.362C657.539 533.863 656.865 533.174 656.366 532.294C655.867 531.414 655.618 530.402 655.618 529.258C655.618 528.099 655.867 527.087 656.366 526.222C656.865 525.342 657.539 524.66 658.39 524.176C659.255 523.677 660.223 523.428 661.294 523.428C662.306 523.428 663.215 523.663 664.022 524.132C664.843 524.601 665.489 525.269 665.958 526.134C666.442 526.999 666.684 528.041 666.684 529.258C666.684 530.446 666.449 531.48 665.98 532.36C665.511 533.24 664.865 533.915 664.044 534.384C663.237 534.853 662.321 535.088 661.294 535.088ZM661.36 534.098C662.24 534.098 663.025 533.9 663.714 533.504C664.418 533.093 664.968 532.521 665.364 531.788C665.775 531.055 665.98 530.211 665.98 529.258C665.98 528.29 665.775 527.447 665.364 526.728C664.968 525.995 664.418 525.43 663.714 525.034C663.025 524.623 662.24 524.418 661.36 524.418C660.48 524.418 659.688 524.623 658.984 525.034C658.295 525.43 657.745 525.995 657.334 526.728C656.938 527.447 656.74 528.29 656.74 529.258C656.74 530.211 656.938 531.055 657.334 531.788C657.745 532.521 658.295 533.093 658.984 533.504C659.688 533.9 660.48 534.098 661.36 534.098ZM666.002 535V531.238L666.2 529.236L665.98 527.234V518.676H667.08V535H666.002ZM674.622 535.088C673.668 535.088 672.774 534.949 671.938 534.67C671.116 534.391 670.478 534.039 670.024 533.614L670.53 532.734C670.97 533.115 671.556 533.445 672.29 533.724C673.023 533.988 673.815 534.12 674.666 534.12C675.868 534.12 676.734 533.922 677.262 533.526C677.79 533.13 678.054 532.609 678.054 531.964C678.054 531.495 677.914 531.128 677.636 530.864C677.372 530.585 677.012 530.373 676.558 530.226C676.103 530.079 675.604 529.962 675.062 529.874C674.519 529.771 673.976 529.661 673.434 529.544C672.891 529.427 672.392 529.258 671.938 529.038C671.483 528.818 671.116 528.517 670.838 528.136C670.574 527.74 670.442 527.219 670.442 526.574C670.442 525.987 670.603 525.459 670.926 524.99C671.248 524.521 671.732 524.147 672.378 523.868C673.023 523.575 673.83 523.428 674.798 523.428C675.516 523.428 676.235 523.531 676.954 523.736C677.687 523.941 678.281 524.213 678.736 524.55L678.23 525.43C677.746 525.063 677.203 524.799 676.602 524.638C676 524.477 675.392 524.396 674.776 524.396C673.661 524.396 672.84 524.601 672.312 525.012C671.798 525.423 671.542 525.936 671.542 526.552C671.542 527.036 671.674 527.425 671.938 527.718C672.216 527.997 672.583 528.217 673.038 528.378C673.492 528.525 673.991 528.649 674.534 528.752C675.076 528.84 675.619 528.943 676.162 529.06C676.704 529.177 677.203 529.346 677.658 529.566C678.112 529.771 678.472 530.065 678.736 530.446C679.014 530.813 679.154 531.311 679.154 531.942C679.154 532.573 678.978 533.123 678.626 533.592C678.288 534.061 677.782 534.428 677.108 534.692C676.433 534.956 675.604 535.088 674.622 535.088Z" fill="white"/>
<path d="M515.644 454V397.39L523.294 404.77H503.944V391H533.464V454H515.644ZM552.119 454V397.39L559.769 404.77H540.419V391H569.939V454H552.119ZM607.224 455.26C601.824 455.26 597.024 453.97 592.824 451.39C588.684 448.81 585.414 445.09 583.014 440.23C580.614 435.37 579.414 429.46 579.414 422.5C579.414 415.54 580.614 409.63 583.014 404.77C585.414 399.91 588.684 396.19 592.824 393.61C597.024 391.03 601.824 389.74 607.224 389.74C612.564 389.74 617.304 391.03 621.444 393.61C625.644 396.19 628.944 399.91 631.344 404.77C633.744 409.63 634.944 415.54 634.944 422.5C634.944 429.46 633.744 435.37 631.344 440.23C628.944 445.09 625.644 448.81 621.444 451.39C617.304 453.97 612.564 455.26 607.224 455.26ZM607.224 440.68C609.144 440.68 610.824 440.08 612.264 438.88C613.764 437.68 614.934 435.76 615.774 433.12C616.614 430.42 617.034 426.88 617.034 422.5C617.034 418.06 616.614 414.52 615.774 411.88C614.934 409.24 613.764 407.32 612.264 406.12C610.824 404.92 609.144 404.32 607.224 404.32C605.304 404.32 603.594 404.92 602.094 406.12C600.654 407.32 599.484 409.24 598.584 411.88C597.744 414.52 597.324 418.06 597.324 422.5C597.324 426.88 597.744 430.42 598.584 433.12C599.484 435.76 600.654 437.68 602.094 438.88C603.594 440.08 605.304 440.68 607.224 440.68ZM668.835 455.26C663.435 455.26 658.635 453.97 654.435 451.39C650.295 448.81 647.025 445.09 644.625 440.23C642.225 435.37 641.025 429.46 641.025 422.5C641.025 415.54 642.225 409.63 644.625 404.77C647.025 399.91 650.295 396.19 654.435 393.61C658.635 391.03 663.435 389.74 668.835 389.74C674.175 389.74 678.915 391.03 683.055 393.61C687.255 396.19 690.555 399.91 692.955 404.77C695.355 409.63 696.555 415.54 696.555 422.5C696.555 429.46 695.355 435.37 692.955 440.23C690.555 445.09 687.255 448.81 683.055 451.39C678.915 453.97 674.175 455.26 668.835 455.26ZM668.835 440.68C670.755 440.68 672.435 440.08 673.875 438.88C675.375 437.68 676.545 435.76 677.385 433.12C678.225 430.42 678.645 426.88 678.645 422.5C678.645 418.06 678.225 414.52 677.385 411.88C676.545 409.24 675.375 407.32 673.875 406.12C672.435 404.92 670.755 404.32 668.835 404.32C666.915 404.32 665.205 404.92 663.705 406.12C662.265 407.32 661.095 409.24 660.195 411.88C659.355 414.52 658.935 418.06 658.935 422.5C658.935 426.88 659.355 430.42 660.195 433.12C661.095 435.76 662.265 437.68 663.705 438.88C665.205 440.08 666.915 440.68 668.835 440.68ZM720.272 443.92V401.08H734.132V443.92H720.272ZM704.972 429.07V415.93H749.342V429.07H704.972Z" fill="white"/>
<path d="M222.873 494.336C224.073 494.56 224.985 495.032 225.609 495.752C226.249 496.472 226.569 497.408 226.569 498.56C226.569 499.984 226.049 501.08 225.009 501.848C223.969 502.616 222.425 503 220.377 503H212.889V486.2H219.897C221.721 486.2 223.137 486.576 224.145 487.328C225.169 488.064 225.681 489.12 225.681 490.496C225.681 491.456 225.425 492.264 224.913 492.92C224.417 493.576 223.737 494.048 222.873 494.336ZM214.113 487.256V493.952H219.849C221.321 493.952 222.449 493.672 223.233 493.112C224.033 492.536 224.433 491.696 224.433 490.592C224.433 489.504 224.033 488.68 223.233 488.12C222.449 487.544 221.321 487.256 219.849 487.256H214.113ZM220.377 501.944C222.009 501.944 223.241 501.664 224.073 501.104C224.921 500.528 225.345 499.648 225.345 498.464C225.345 497.28 224.921 496.408 224.073 495.848C223.241 495.288 222.009 495.008 220.377 495.008H214.113V501.944H220.377ZM235.448 503.096C234.264 503.096 233.192 502.824 232.232 502.28C231.288 501.736 230.544 500.984 230 500.024C229.456 499.048 229.184 497.952 229.184 496.736C229.184 495.52 229.456 494.432 230 493.472C230.544 492.496 231.288 491.736 232.232 491.192C233.192 490.648 234.264 490.376 235.448 490.376C236.632 490.376 237.696 490.648 238.64 491.192C239.6 491.736 240.352 492.496 240.896 493.472C241.44 494.432 241.712 495.52 241.712 496.736C241.712 497.952 241.44 499.048 240.896 500.024C240.352 500.984 239.6 501.736 238.64 502.28C237.696 502.824 236.632 503.096 235.448 503.096ZM235.448 502.016C236.408 502.016 237.264 501.792 238.016 501.344C238.784 500.896 239.384 500.272 239.816 499.472C240.264 498.672 240.488 497.76 240.488 496.736C240.488 495.712 240.264 494.8 239.816 494C239.384 493.2 238.784 492.576 238.016 492.128C237.264 491.68 236.408 491.456 235.448 491.456C234.488 491.456 233.624 491.68 232.856 492.128C232.104 492.576 231.504 493.2 231.056 494C230.624 494.8 230.408 495.712 230.408 496.736C230.408 497.76 230.624 498.672 231.056 499.472C231.504 500.272 232.104 500.896 232.856 501.344C233.624 501.792 234.488 502.016 235.448 502.016ZM250.331 503.096C249.147 503.096 248.075 502.824 247.115 502.28C246.171 501.736 245.427 500.984 244.883 500.024C244.339 499.048 244.067 497.952 244.067 496.736C244.067 495.52 244.339 494.432 244.883 493.472C245.427 492.496 246.171 491.736 247.115 491.192C248.075 490.648 249.147 490.376 250.331 490.376C251.515 490.376 252.579 490.648 253.523 491.192C254.483 491.736 255.235 492.496 255.779 493.472C256.323 494.432 256.595 495.52 256.595 496.736C256.595 497.952 256.323 499.048 255.779 500.024C255.235 500.984 254.483 501.736 253.523 502.28C252.579 502.824 251.515 503.096 250.331 503.096ZM250.331 502.016C251.291 502.016 252.147 501.792 252.899 501.344C253.667 500.896 254.267 500.272 254.699 499.472C255.147 498.672 255.371 497.76 255.371 496.736C255.371 495.712 255.147 494.8 254.699 494C254.267 493.2 253.667 492.576 252.899 492.128C252.147 491.68 251.291 491.456 250.331 491.456C249.371 491.456 248.507 491.68 247.739 492.128C246.987 492.576 246.387 493.2 245.939 494C245.507 494.8 245.291 495.712 245.291 496.736C245.291 497.76 245.507 498.672 245.939 499.472C246.387 500.272 246.987 500.896 247.739 501.344C248.507 501.792 249.371 502.016 250.331 502.016ZM266.533 502.208C266.229 502.496 265.845 502.72 265.381 502.88C264.933 503.024 264.461 503.096 263.965 503.096C262.877 503.096 262.037 502.8 261.445 502.208C260.853 501.6 260.557 500.76 260.557 499.688V491.504H258.253V490.472H260.557V487.736H261.757V490.472H265.741V491.504H261.757V499.568C261.757 500.384 261.949 501.008 262.333 501.44C262.733 501.856 263.317 502.064 264.085 502.064C264.869 502.064 265.517 501.832 266.029 501.368L266.533 502.208ZM274.403 503.096C273.187 503.096 272.099 502.824 271.139 502.28C270.179 501.736 269.427 500.984 268.883 500.024C268.339 499.048 268.067 497.952 268.067 496.736C268.067 495.504 268.339 494.408 268.883 493.448C269.427 492.472 270.179 491.72 271.139 491.192C272.099 490.648 273.187 490.376 274.403 490.376C275.411 490.376 276.323 490.576 277.139 490.976C277.971 491.36 278.643 491.928 279.155 492.68L278.267 493.328C277.819 492.704 277.259 492.24 276.587 491.936C275.931 491.616 275.203 491.456 274.403 491.456C273.427 491.456 272.547 491.68 271.763 492.128C270.995 492.56 270.387 493.176 269.939 493.976C269.507 494.776 269.291 495.696 269.291 496.736C269.291 497.776 269.507 498.696 269.939 499.496C270.387 500.296 270.995 500.92 271.763 501.368C272.547 501.8 273.427 502.016 274.403 502.016C275.203 502.016 275.931 501.864 276.587 501.56C277.259 501.24 277.819 500.768 278.267 500.144L279.155 500.792C278.643 501.544 277.971 502.12 277.139 502.52C276.323 502.904 275.411 503.096 274.403 503.096ZM286.971 490.376C288.523 490.376 289.715 490.776 290.547 491.576C291.379 492.36 291.795 493.52 291.795 495.056V503H290.643V500.768C290.243 501.504 289.659 502.08 288.891 502.496C288.123 502.896 287.203 503.096 286.131 503.096C284.739 503.096 283.635 502.768 282.819 502.112C282.019 501.456 281.619 500.592 281.619 499.52C281.619 498.48 281.987 497.64 282.723 497C283.475 496.344 284.667 496.016 286.299 496.016H290.595V495.008C290.595 493.84 290.275 492.952 289.635 492.344C289.011 491.736 288.091 491.432 286.875 491.432C286.043 491.432 285.243 491.576 284.475 491.864C283.723 492.152 283.083 492.536 282.555 493.016L281.955 492.152C282.579 491.592 283.331 491.16 284.211 490.856C285.091 490.536 286.011 490.376 286.971 490.376ZM286.299 502.112C287.339 502.112 288.219 501.872 288.939 501.392C289.675 500.912 290.227 500.216 290.595 499.304V496.952H286.323C285.091 496.952 284.195 497.176 283.635 497.624C283.091 498.072 282.819 498.688 282.819 499.472C282.819 500.288 283.123 500.936 283.731 501.416C284.339 501.88 285.195 502.112 286.299 502.112ZM312.339 490.376C313.891 490.376 315.107 490.832 315.987 491.744C316.883 492.656 317.331 493.968 317.331 495.68V503H316.131V495.776C316.131 494.368 315.787 493.296 315.099 492.56C314.411 491.824 313.451 491.456 312.219 491.456C310.811 491.456 309.691 491.896 308.859 492.776C308.043 493.656 307.635 494.84 307.635 496.328V503H306.435V495.776C306.435 494.368 306.091 493.296 305.403 492.56C304.715 491.824 303.755 491.456 302.523 491.456C301.115 491.456 299.995 491.896 299.163 492.776C298.347 493.656 297.939 494.84 297.939 496.328V503H296.739V490.472H297.891V493.16C298.307 492.28 298.923 491.6 299.739 491.12C300.571 490.624 301.555 490.376 302.691 490.376C303.827 490.376 304.787 490.632 305.571 491.144C306.371 491.656 306.939 492.408 307.275 493.4C307.691 492.472 308.339 491.736 309.219 491.192C310.115 490.648 311.155 490.376 312.339 490.376ZM328.574 490.376C329.742 490.376 330.798 490.648 331.742 491.192C332.686 491.736 333.422 492.488 333.95 493.448C334.494 494.408 334.766 495.504 334.766 496.736C334.766 497.968 334.494 499.072 333.95 500.048C333.422 501.008 332.686 501.76 331.742 502.304C330.798 502.832 329.742 503.096 328.574 503.096C327.47 503.096 326.47 502.84 325.574 502.328C324.678 501.8 323.982 501.072 323.486 500.144V507.656H322.286V490.472H323.438V493.424C323.934 492.464 324.63 491.72 325.526 491.192C326.438 490.648 327.454 490.376 328.574 490.376ZM328.502 502.016C329.462 502.016 330.326 501.792 331.094 501.344C331.862 500.896 332.462 500.272 332.894 499.472C333.342 498.672 333.566 497.76 333.566 496.736C333.566 495.712 333.342 494.8 332.894 494C332.462 493.2 331.862 492.576 331.094 492.128C330.326 491.68 329.462 491.456 328.502 491.456C327.542 491.456 326.678 491.68 325.91 492.128C325.158 492.576 324.558 493.2 324.11 494C323.678 494.8 323.462 495.712 323.462 496.736C323.462 497.76 323.678 498.672 324.11 499.472C324.558 500.272 325.158 500.896 325.91 501.344C326.678 501.792 327.542 502.016 328.502 502.016ZM341.65 503.096C340.642 503.096 339.682 502.944 338.77 502.64C337.858 502.336 337.146 501.952 336.634 501.488L337.186 500.528C337.698 500.96 338.354 501.32 339.154 501.608C339.97 501.896 340.818 502.04 341.698 502.04C342.962 502.04 343.89 501.832 344.482 501.416C345.09 501 345.394 500.424 345.394 499.688C345.394 499.16 345.226 498.744 344.89 498.44C344.57 498.136 344.17 497.912 343.69 497.768C343.21 497.624 342.546 497.472 341.698 497.312C340.706 497.136 339.906 496.944 339.298 496.736C338.69 496.528 338.17 496.192 337.738 495.728C337.306 495.264 337.09 494.624 337.09 493.808C337.09 492.816 337.498 492 338.314 491.36C339.146 490.704 340.322 490.376 341.842 490.376C342.642 490.376 343.434 490.488 344.218 490.712C345.002 490.936 345.642 491.232 346.138 491.6L345.586 492.56C345.074 492.192 344.49 491.912 343.834 491.72C343.178 491.528 342.506 491.432 341.818 491.432C340.65 491.432 339.77 491.648 339.178 492.08C338.586 492.512 338.29 493.08 338.29 493.784C338.29 494.344 338.458 494.784 338.794 495.104C339.13 495.408 339.538 495.64 340.018 495.8C340.514 495.944 341.202 496.104 342.082 496.28C343.058 496.456 343.842 496.648 344.434 496.856C345.042 497.048 345.554 497.368 345.97 497.816C346.386 498.264 346.594 498.88 346.594 499.664C346.594 500.704 346.162 501.536 345.298 502.16C344.434 502.784 343.218 503.096 341.65 503.096ZM368.155 503L364.147 497.384C363.555 497.464 363.011 497.504 362.515 497.504H357.715V503H356.491V486.2H362.515C364.627 486.2 366.283 486.704 367.483 487.712C368.683 488.704 369.283 490.088 369.283 491.864C369.283 493.192 368.939 494.312 368.251 495.224C367.579 496.12 366.611 496.752 365.347 497.12L369.547 503H368.155ZM362.515 496.424C364.307 496.424 365.675 496.032 366.619 495.248C367.563 494.448 368.035 493.32 368.035 491.864C368.035 490.408 367.563 489.288 366.619 488.504C365.675 487.704 364.307 487.304 362.515 487.304H357.715V496.424H362.515ZM384.348 490.472V503H383.196V500.312C382.78 501.192 382.164 501.88 381.348 502.376C380.532 502.856 379.572 503.096 378.468 503.096C376.836 503.096 375.556 502.64 374.628 501.728C373.7 500.816 373.236 499.504 373.236 497.792V490.472H374.436V497.696C374.436 499.104 374.796 500.176 375.516 500.912C376.236 501.648 377.252 502.016 378.564 502.016C379.972 502.016 381.084 501.576 381.9 500.696C382.732 499.816 383.148 498.632 383.148 497.144V490.472H384.348ZM395.555 490.376C397.123 490.376 398.363 490.832 399.275 491.744C400.187 492.656 400.643 493.968 400.643 495.68V503H399.443V495.776C399.443 494.368 399.083 493.296 398.363 492.56C397.659 491.824 396.667 491.456 395.387 491.456C393.915 491.456 392.755 491.896 391.907 492.776C391.059 493.656 390.635 494.84 390.635 496.328V503H389.435V490.472H390.587V493.184C391.019 492.304 391.659 491.616 392.507 491.12C393.371 490.624 394.387 490.376 395.555 490.376Z" fill="white"/>
<path d="M314.376 389.74C320.316 389.74 325.446 390.91 329.766 393.25C334.146 395.59 337.536 399.07 339.936 403.69C342.396 408.25 343.626 413.95 343.626 420.79C343.626 428.11 342.186 434.35 339.306 439.51C336.486 444.61 332.556 448.51 327.516 451.21C322.536 453.91 316.716 455.26 310.056 455.26C306.576 455.26 303.216 454.84 299.976 454C296.736 453.22 293.946 452.11 291.606 450.67L298.086 437.89C299.886 439.15 301.746 440.02 303.666 440.5C305.646 440.92 307.656 441.13 309.696 441.13C314.556 441.13 318.426 439.66 321.306 436.72C324.186 433.78 325.626 429.49 325.626 423.85C325.626 422.83 325.626 421.78 325.626 420.7C325.626 419.56 325.536 418.42 325.356 417.28L329.766 420.97C328.686 423.19 327.276 425.05 325.536 426.55C323.796 428.05 321.756 429.19 319.416 429.97C317.076 430.75 314.406 431.14 311.406 431.14C307.446 431.14 303.816 430.33 300.516 428.71C297.276 427.03 294.666 424.72 292.686 421.78C290.706 418.78 289.716 415.27 289.716 411.25C289.716 406.87 290.826 403.09 293.046 399.91C295.266 396.67 298.236 394.18 301.956 392.44C305.676 390.64 309.816 389.74 314.376 389.74ZM315.546 402.43C313.866 402.43 312.396 402.76 311.136 403.42C309.876 404.08 308.856 405.01 308.076 406.21C307.356 407.35 306.996 408.76 306.996 410.44C306.996 412.84 307.776 414.76 309.336 416.2C310.956 417.64 313.056 418.36 315.636 418.36C317.376 418.36 318.906 418.03 320.226 417.37C321.546 416.71 322.566 415.78 323.286 414.58C324.006 413.38 324.366 411.97 324.366 410.35C324.366 408.79 324.006 407.44 323.286 406.3C322.566 405.1 321.546 404.17 320.226 403.51C318.906 402.79 317.346 402.43 315.546 402.43Z" fill="white"/>
<path d="M405.61 239.12C404.378 239.12 403.202 238.912 402.082 238.496C400.978 238.064 400.114 237.512 399.49 236.84L400.042 235.928C400.634 236.552 401.426 237.064 402.418 237.464C403.426 237.848 404.482 238.04 405.586 238.04C407.186 238.04 408.394 237.736 409.21 237.128C410.026 236.52 410.434 235.728 410.434 234.752C410.434 234 410.218 233.4 409.786 232.952C409.354 232.504 408.818 232.16 408.178 231.92C407.538 231.68 406.674 231.432 405.586 231.176C404.354 230.872 403.362 230.576 402.61 230.288C401.874 230 401.242 229.56 400.714 228.968C400.202 228.36 399.946 227.552 399.946 226.544C399.946 225.728 400.162 224.984 400.594 224.312C401.026 223.624 401.682 223.08 402.562 222.68C403.458 222.28 404.57 222.08 405.898 222.08C406.826 222.08 407.738 222.216 408.634 222.488C409.53 222.76 410.306 223.128 410.962 223.592L410.506 224.576C409.834 224.112 409.09 223.76 408.274 223.52C407.474 223.28 406.682 223.16 405.898 223.16C404.346 223.16 403.17 223.472 402.37 224.096C401.57 224.72 401.17 225.528 401.17 226.52C401.17 227.272 401.386 227.872 401.818 228.32C402.25 228.768 402.786 229.112 403.426 229.352C404.066 229.592 404.938 229.848 406.042 230.12C407.274 230.424 408.258 230.72 408.994 231.008C409.73 231.296 410.354 231.736 410.866 232.328C411.394 232.904 411.658 233.688 411.658 234.68C411.658 235.496 411.434 236.24 410.986 236.912C410.554 237.584 409.882 238.12 408.97 238.52C408.058 238.92 406.938 239.12 405.61 239.12ZM426.403 226.472V239H425.251V236.312C424.835 237.192 424.219 237.88 423.403 238.376C422.587 238.856 421.627 239.096 420.523 239.096C418.891 239.096 417.611 238.64 416.683 237.728C415.755 236.816 415.291 235.504 415.291 233.792V226.472H416.491V233.696C416.491 235.104 416.851 236.176 417.571 236.912C418.291 237.648 419.307 238.016 420.619 238.016C422.027 238.016 423.139 237.576 423.955 236.696C424.787 235.816 425.203 234.632 425.203 233.144V226.472H426.403ZM437.777 226.376C438.945 226.376 440.001 226.648 440.945 227.192C441.889 227.72 442.625 228.472 443.153 229.448C443.697 230.408 443.969 231.504 443.969 232.736C443.969 233.968 443.697 235.064 443.153 236.024C442.625 236.984 441.889 237.736 440.945 238.28C440.001 238.824 438.945 239.096 437.777 239.096C436.657 239.096 435.641 238.832 434.729 238.304C433.833 237.76 433.137 237.008 432.641 236.048V239H431.489V221.192H432.689V229.328C433.185 228.4 433.881 227.68 434.777 227.168C435.673 226.64 436.673 226.376 437.777 226.376ZM437.705 238.016C438.665 238.016 439.529 237.792 440.297 237.344C441.065 236.896 441.665 236.272 442.097 235.472C442.545 234.672 442.769 233.76 442.769 232.736C442.769 231.712 442.545 230.8 442.097 230C441.665 229.2 441.065 228.576 440.297 228.128C439.529 227.68 438.665 227.456 437.705 227.456C436.745 227.456 435.881 227.68 435.113 228.128C434.361 228.576 433.761 229.2 433.313 230C432.881 230.8 432.665 231.712 432.665 232.736C432.665 233.76 432.881 234.672 433.313 235.472C433.761 236.272 434.361 236.896 435.113 237.344C435.881 237.792 436.745 238.016 437.705 238.016ZM450.853 239.096C449.845 239.096 448.885 238.944 447.973 238.64C447.061 238.336 446.349 237.952 445.837 237.488L446.389 236.528C446.901 236.96 447.557 237.32 448.357 237.608C449.173 237.896 450.021 238.04 450.901 238.04C452.165 238.04 453.093 237.832 453.685 237.416C454.293 237 454.597 236.424 454.597 235.688C454.597 235.16 454.429 234.744 454.093 234.44C453.773 234.136 453.373 233.912 452.893 233.768C452.413 233.624 451.749 233.472 450.901 233.312C449.909 233.136 449.109 232.944 448.501 232.736C447.893 232.528 447.373 232.192 446.941 231.728C446.509 231.264 446.293 230.624 446.293 229.808C446.293 228.816 446.701 228 447.517 227.36C448.349 226.704 449.525 226.376 451.045 226.376C451.845 226.376 452.637 226.488 453.421 226.712C454.205 226.936 454.845 227.232 455.341 227.6L454.789 228.56C454.277 228.192 453.693 227.912 453.037 227.72C452.381 227.528 451.709 227.432 451.021 227.432C449.853 227.432 448.973 227.648 448.381 228.08C447.789 228.512 447.493 229.08 447.493 229.784C447.493 230.344 447.661 230.784 447.997 231.104C448.333 231.408 448.741 231.64 449.221 231.8C449.717 231.944 450.405 232.104 451.285 232.28C452.261 232.456 453.045 232.648 453.637 232.856C454.245 233.048 454.757 233.368 455.173 233.816C455.589 234.264 455.797 234.88 455.797 235.664C455.797 236.704 455.365 237.536 454.501 238.16C453.637 238.784 452.421 239.096 450.853 239.096ZM464.114 239.096C462.898 239.096 461.81 238.824 460.85 238.28C459.89 237.736 459.138 236.984 458.594 236.024C458.05 235.048 457.778 233.952 457.778 232.736C457.778 231.504 458.05 230.408 458.594 229.448C459.138 228.472 459.89 227.72 460.85 227.192C461.81 226.648 462.898 226.376 464.114 226.376C465.122 226.376 466.034 226.576 466.85 226.976C467.682 227.36 468.354 227.928 468.866 228.68L467.978 229.328C467.53 228.704 466.97 228.24 466.298 227.936C465.642 227.616 464.914 227.456 464.114 227.456C463.138 227.456 462.258 227.68 461.474 228.128C460.706 228.56 460.098 229.176 459.65 229.976C459.218 230.776 459.002 231.696 459.002 232.736C459.002 233.776 459.218 234.696 459.65 235.496C460.098 236.296 460.706 236.92 461.474 237.368C462.258 237.8 463.138 238.016 464.114 238.016C464.914 238.016 465.642 237.864 466.298 237.56C466.97 237.24 467.53 236.768 467.978 236.144L468.866 236.792C468.354 237.544 467.682 238.12 466.85 238.52C466.034 238.904 465.122 239.096 464.114 239.096ZM473.61 229.208C473.994 228.296 474.594 227.6 475.41 227.12C476.226 226.624 477.218 226.376 478.386 226.376V227.552L478.098 227.528C476.706 227.528 475.618 227.968 474.834 228.848C474.05 229.712 473.658 230.92 473.658 232.472V239H472.458V226.472H473.61V229.208ZM481.692 226.472H482.892V239H481.692V226.472ZM482.292 223.424C482.02 223.424 481.788 223.336 481.596 223.16C481.404 222.968 481.308 222.736 481.308 222.464C481.308 222.192 481.404 221.96 481.596 221.768C481.788 221.576 482.02 221.48 482.292 221.48C482.564 221.48 482.796 221.576 482.988 221.768C483.18 221.944 483.276 222.168 483.276 222.44C483.276 222.712 483.18 222.944 482.988 223.136C482.796 223.328 482.564 223.424 482.292 223.424ZM494.238 226.376C495.406 226.376 496.462 226.648 497.406 227.192C498.35 227.72 499.086 228.472 499.614 229.448C500.158 230.408 500.43 231.504 500.43 232.736C500.43 233.968 500.158 235.064 499.614 236.024C499.086 236.984 498.35 237.736 497.406 238.28C496.462 238.824 495.406 239.096 494.238 239.096C493.118 239.096 492.102 238.832 491.19 238.304C490.294 237.76 489.598 237.008 489.102 236.048V239H487.95V221.192H489.15V229.328C489.646 228.4 490.342 227.68 491.238 227.168C492.134 226.64 493.134 226.376 494.238 226.376ZM494.166 238.016C495.126 238.016 495.99 237.792 496.758 237.344C497.526 236.896 498.126 236.272 498.558 235.472C499.006 234.672 499.23 233.76 499.23 232.736C499.23 231.712 499.006 230.8 498.558 230C498.126 229.2 497.526 228.576 496.758 228.128C495.99 227.68 495.126 227.456 494.166 227.456C493.206 227.456 492.342 227.68 491.574 228.128C490.822 228.576 490.222 229.2 489.774 230C489.342 230.8 489.126 231.712 489.126 232.736C489.126 233.76 489.342 234.672 489.774 235.472C490.222 236.272 490.822 236.896 491.574 237.344C492.342 237.792 493.206 238.016 494.166 238.016ZM514.73 233.024H503.954C503.986 234 504.234 234.872 504.698 235.64C505.162 236.392 505.786 236.976 506.57 237.392C507.37 237.808 508.266 238.016 509.258 238.016C510.074 238.016 510.826 237.872 511.514 237.584C512.218 237.28 512.802 236.84 513.266 236.264L513.962 237.056C513.418 237.712 512.73 238.216 511.898 238.568C511.082 238.92 510.194 239.096 509.234 239.096C507.986 239.096 506.874 238.824 505.898 238.28C504.922 237.736 504.154 236.984 503.594 236.024C503.05 235.064 502.778 233.968 502.778 232.736C502.778 231.52 503.034 230.432 503.546 229.472C504.074 228.496 504.794 227.736 505.706 227.192C506.618 226.648 507.642 226.376 508.778 226.376C509.914 226.376 510.93 226.648 511.826 227.192C512.738 227.72 513.45 228.464 513.962 229.424C514.49 230.384 514.754 231.472 514.754 232.688L514.73 233.024ZM508.778 227.432C507.898 227.432 507.106 227.632 506.402 228.032C505.698 228.416 505.13 228.968 504.698 229.688C504.282 230.392 504.042 231.192 503.978 232.088H513.578C513.53 231.192 513.29 230.392 512.858 229.688C512.426 228.984 511.858 228.432 511.154 228.032C510.45 227.632 509.658 227.432 508.778 227.432ZM519.618 229.208C520.002 228.296 520.602 227.6 521.418 227.12C522.234 226.624 523.226 226.376 524.394 226.376V227.552L524.106 227.528C522.714 227.528 521.626 227.968 520.842 228.848C520.058 229.712 519.666 230.92 519.666 232.472V239H518.466V226.472H519.618V229.208ZM530.985 239.096C529.977 239.096 529.017 238.944 528.105 238.64C527.193 238.336 526.481 237.952 525.969 237.488L526.521 236.528C527.033 236.96 527.689 237.32 528.489 237.608C529.305 237.896 530.153 238.04 531.033 238.04C532.297 238.04 533.225 237.832 533.817 237.416C534.425 237 534.729 236.424 534.729 235.688C534.729 235.16 534.561 234.744 534.225 234.44C533.905 234.136 533.505 233.912 533.025 233.768C532.545 233.624 531.881 233.472 531.033 233.312C530.041 233.136 529.241 232.944 528.633 232.736C528.025 232.528 527.505 232.192 527.073 231.728C526.641 231.264 526.425 230.624 526.425 229.808C526.425 228.816 526.833 228 527.649 227.36C528.481 226.704 529.657 226.376 531.177 226.376C531.977 226.376 532.769 226.488 533.553 226.712C534.337 226.936 534.977 227.232 535.473 227.6L534.921 228.56C534.409 228.192 533.825 227.912 533.169 227.72C532.513 227.528 531.841 227.432 531.153 227.432C529.985 227.432 529.105 227.648 528.513 228.08C527.921 228.512 527.625 229.08 527.625 229.784C527.625 230.344 527.793 230.784 528.129 231.104C528.465 231.408 528.873 231.64 529.353 231.8C529.849 231.944 530.537 232.104 531.417 232.28C532.393 232.456 533.177 232.648 533.769 232.856C534.377 233.048 534.889 233.368 535.305 233.816C535.721 234.264 535.929 234.88 535.929 235.664C535.929 236.704 535.497 237.536 534.633 238.16C533.769 238.784 532.553 239.096 530.985 239.096Z" fill="white"/>
<path d="M669.043 225.6V241H667.921V233.674H657.625V241H656.503V225.6H657.625V232.684H667.921V225.6H669.043ZM677.941 229.428C679.364 229.428 680.457 229.795 681.219 230.528C681.982 231.247 682.363 232.31 682.363 233.718V241H681.307V238.954C680.941 239.629 680.405 240.157 679.701 240.538C678.997 240.905 678.154 241.088 677.171 241.088C675.895 241.088 674.883 240.787 674.135 240.186C673.402 239.585 673.035 238.793 673.035 237.81C673.035 236.857 673.373 236.087 674.047 235.5C674.737 234.899 675.829 234.598 677.325 234.598H681.263V233.674C681.263 232.603 680.97 231.789 680.383 231.232C679.811 230.675 678.968 230.396 677.853 230.396C677.091 230.396 676.357 230.528 675.653 230.792C674.964 231.056 674.377 231.408 673.893 231.848L673.343 231.056C673.915 230.543 674.605 230.147 675.411 229.868C676.218 229.575 677.061 229.428 677.941 229.428ZM677.325 240.186C678.279 240.186 679.085 239.966 679.745 239.526C680.42 239.086 680.926 238.448 681.263 237.612V235.456H677.347C676.218 235.456 675.397 235.661 674.883 236.072C674.385 236.483 674.135 237.047 674.135 237.766C674.135 238.514 674.414 239.108 674.971 239.548C675.529 239.973 676.313 240.186 677.325 240.186ZM691.471 241.088C690.356 241.088 689.359 240.839 688.479 240.34C687.599 239.841 686.91 239.152 686.411 238.272C685.912 237.377 685.663 236.373 685.663 235.258C685.663 234.129 685.912 233.124 686.411 232.244C686.91 231.349 687.599 230.66 688.479 230.176C689.359 229.677 690.356 229.428 691.471 229.428C692.395 229.428 693.231 229.611 693.979 229.978C694.742 230.33 695.358 230.851 695.827 231.54L695.013 232.134C694.602 231.562 694.089 231.137 693.473 230.858C692.872 230.565 692.204 230.418 691.471 230.418C690.576 230.418 689.77 230.623 689.051 231.034C688.347 231.43 687.79 231.995 687.379 232.728C686.983 233.461 686.785 234.305 686.785 235.258C686.785 236.211 686.983 237.055 687.379 237.788C687.79 238.521 688.347 239.093 689.051 239.504C689.77 239.9 690.576 240.098 691.471 240.098C692.204 240.098 692.872 239.959 693.473 239.68C694.089 239.387 694.602 238.954 695.013 238.382L695.827 238.976C695.358 239.665 694.742 240.193 693.979 240.56C693.231 240.912 692.395 241.088 691.471 241.088ZM703.019 234.862L700.027 237.59V241H698.927V224.676H700.027V236.226L707.375 229.516H708.783L703.833 234.158L709.267 241H707.903L703.019 234.862ZM715.517 229.428C716.94 229.428 718.033 229.795 718.795 230.528C719.558 231.247 719.939 232.31 719.939 233.718V241H718.883V238.954C718.517 239.629 717.981 240.157 717.277 240.538C716.573 240.905 715.73 241.088 714.747 241.088C713.471 241.088 712.459 240.787 711.711 240.186C710.978 239.585 710.611 238.793 710.611 237.81C710.611 236.857 710.949 236.087 711.623 235.5C712.313 234.899 713.405 234.598 714.901 234.598H718.839V233.674C718.839 232.603 718.546 231.789 717.959 231.232C717.387 230.675 716.544 230.396 715.429 230.396C714.667 230.396 713.933 230.528 713.229 230.792C712.54 231.056 711.953 231.408 711.469 231.848L710.919 231.056C711.491 230.543 712.181 230.147 712.987 229.868C713.794 229.575 714.637 229.428 715.517 229.428ZM714.901 240.186C715.855 240.186 716.661 239.966 717.321 239.526C717.996 239.086 718.502 238.448 718.839 237.612V235.456H714.923C713.794 235.456 712.973 235.661 712.459 236.072C711.961 236.483 711.711 237.047 711.711 237.766C711.711 238.514 711.99 239.108 712.547 239.548C713.105 239.973 713.889 240.186 714.901 240.186ZM730.17 240.274C729.891 240.538 729.539 240.743 729.114 240.89C728.703 241.022 728.27 241.088 727.816 241.088C726.818 241.088 726.048 240.817 725.506 240.274C724.963 239.717 724.692 238.947 724.692 237.964V230.462H722.58V229.516H724.692V227.008H725.792V229.516H729.444V230.462H725.792V237.854C725.792 238.602 725.968 239.174 726.32 239.57C726.686 239.951 727.222 240.142 727.926 240.142C728.644 240.142 729.238 239.929 729.708 239.504L730.17 240.274ZM738.847 229.428C740.285 229.428 741.421 229.846 742.257 230.682C743.093 231.518 743.511 232.721 743.511 234.29V241H742.411V234.378C742.411 233.087 742.081 232.105 741.421 231.43C740.776 230.755 739.867 230.418 738.693 230.418C737.344 230.418 736.281 230.821 735.503 231.628C734.726 232.435 734.337 233.52 734.337 234.884V241H733.237V224.676H734.337V231.914C734.733 231.122 735.32 230.513 736.097 230.088C736.875 229.648 737.791 229.428 738.847 229.428ZM752.549 241.088C751.464 241.088 750.481 240.839 749.601 240.34C748.736 239.841 748.054 239.152 747.555 238.272C747.057 237.377 746.807 236.373 746.807 235.258C746.807 234.143 747.057 233.146 747.555 232.266C748.054 231.371 748.736 230.675 749.601 230.176C750.481 229.677 751.464 229.428 752.549 229.428C753.635 229.428 754.61 229.677 755.475 230.176C756.355 230.675 757.045 231.371 757.543 232.266C758.042 233.146 758.291 234.143 758.291 235.258C758.291 236.373 758.042 237.377 757.543 238.272C757.045 239.152 756.355 239.841 755.475 240.34C754.61 240.839 753.635 241.088 752.549 241.088ZM752.549 240.098C753.429 240.098 754.214 239.893 754.903 239.482C755.607 239.071 756.157 238.499 756.553 237.766C756.964 237.033 757.169 236.197 757.169 235.258C757.169 234.319 756.964 233.483 756.553 232.75C756.157 232.017 755.607 231.445 754.903 231.034C754.214 230.623 753.429 230.418 752.549 230.418C751.669 230.418 750.877 230.623 750.173 231.034C749.484 231.445 748.934 232.017 748.523 232.75C748.127 233.483 747.929 234.319 747.929 235.258C747.929 236.197 748.127 237.033 748.523 237.766C748.934 238.499 749.484 239.071 750.173 239.482C750.877 239.893 751.669 240.098 752.549 240.098ZM767.314 229.428C768.751 229.428 769.888 229.846 770.724 230.682C771.56 231.518 771.978 232.721 771.978 234.29V241H770.878V234.378C770.878 233.087 770.548 232.105 769.888 231.43C769.243 230.755 768.333 230.418 767.16 230.418C765.811 230.418 764.747 230.821 763.97 231.628C763.193 232.435 762.804 233.52 762.804 234.884V241H761.704V229.516H762.76V232.002C763.156 231.195 763.743 230.565 764.52 230.11C765.312 229.655 766.243 229.428 767.314 229.428ZM788.031 225.6C789.967 225.6 791.485 226.062 792.585 226.986C793.685 227.895 794.235 229.164 794.235 230.792C794.235 232.405 793.685 233.674 792.585 234.598C791.485 235.507 789.967 235.962 788.031 235.962H783.631V241H782.509V225.6H788.031ZM788.031 234.95C789.674 234.95 790.928 234.591 791.793 233.872C792.659 233.153 793.091 232.127 793.091 230.792C793.091 229.457 792.659 228.431 791.793 227.712C790.928 226.979 789.674 226.612 788.031 226.612H783.631V234.95H788.031ZM801.433 229.428C802.856 229.428 803.949 229.795 804.711 230.528C805.474 231.247 805.855 232.31 805.855 233.718V241H804.799V238.954C804.433 239.629 803.897 240.157 803.193 240.538C802.489 240.905 801.646 241.088 800.663 241.088C799.387 241.088 798.375 240.787 797.627 240.186C796.894 239.585 796.527 238.793 796.527 237.81C796.527 236.857 796.865 236.087 797.539 235.5C798.229 234.899 799.321 234.598 800.817 234.598H804.755V233.674C804.755 232.603 804.462 231.789 803.875 231.232C803.303 230.675 802.46 230.396 801.345 230.396C800.583 230.396 799.849 230.528 799.145 230.792C798.456 231.056 797.869 231.408 797.385 231.848L796.835 231.056C797.407 230.543 798.097 230.147 798.903 229.868C799.71 229.575 800.553 229.428 801.433 229.428ZM800.817 240.186C801.771 240.186 802.577 239.966 803.237 239.526C803.912 239.086 804.418 238.448 804.755 237.612V235.456H800.839C799.71 235.456 798.889 235.661 798.375 236.072C797.877 236.483 797.627 237.047 797.627 237.766C797.627 238.514 797.906 239.108 798.463 239.548C799.021 239.973 799.805 240.186 800.817 240.186ZM811.444 232.024C811.796 231.188 812.346 230.55 813.094 230.11C813.842 229.655 814.751 229.428 815.822 229.428V230.506L815.558 230.484C814.282 230.484 813.284 230.887 812.566 231.694C811.847 232.486 811.488 233.593 811.488 235.016V241H810.388V229.516H811.444V232.024ZM825.066 240.274C824.787 240.538 824.435 240.743 824.01 240.89C823.599 241.022 823.167 241.088 822.712 241.088C821.715 241.088 820.945 240.817 820.402 240.274C819.859 239.717 819.588 238.947 819.588 237.964V230.462H817.476V229.516H819.588V227.008H820.688V229.516H824.34V230.462H820.688V237.854C820.688 238.602 820.864 239.174 821.216 239.57C821.583 239.951 822.118 240.142 822.822 240.142C823.541 240.142 824.135 239.929 824.604 239.504L825.066 240.274ZM828.134 229.516H829.234V241H828.134V229.516ZM828.684 226.722C828.434 226.722 828.222 226.641 828.046 226.48C827.87 226.304 827.782 226.091 827.782 225.842C827.782 225.593 827.87 225.38 828.046 225.204C828.222 225.028 828.434 224.94 828.684 224.94C828.933 224.94 829.146 225.028 829.322 225.204C829.498 225.365 829.586 225.571 829.586 225.82C829.586 226.069 829.498 226.282 829.322 226.458C829.146 226.634 828.933 226.722 828.684 226.722ZM838.424 241.088C837.309 241.088 836.312 240.839 835.432 240.34C834.552 239.841 833.863 239.152 833.364 238.272C832.865 237.377 832.616 236.373 832.616 235.258C832.616 234.129 832.865 233.124 833.364 232.244C833.863 231.349 834.552 230.66 835.432 230.176C836.312 229.677 837.309 229.428 838.424 229.428C839.348 229.428 840.184 229.611 840.932 229.978C841.695 230.33 842.311 230.851 842.78 231.54L841.966 232.134C841.555 231.562 841.042 231.137 840.426 230.858C839.825 230.565 839.157 230.418 838.424 230.418C837.529 230.418 836.723 230.623 836.004 231.034C835.3 231.43 834.743 231.995 834.332 232.728C833.936 233.461 833.738 234.305 833.738 235.258C833.738 236.211 833.936 237.055 834.332 237.788C834.743 238.521 835.3 239.093 836.004 239.504C836.723 239.9 837.529 240.098 838.424 240.098C839.157 240.098 839.825 239.959 840.426 239.68C841.042 239.387 841.555 238.954 841.966 238.382L842.78 238.976C842.311 239.665 841.695 240.193 840.932 240.56C840.184 240.912 839.348 241.088 838.424 241.088ZM846.073 229.516H847.173V241H846.073V229.516ZM846.623 226.722C846.374 226.722 846.161 226.641 845.985 226.48C845.809 226.304 845.721 226.091 845.721 225.842C845.721 225.593 845.809 225.38 845.985 225.204C846.161 225.028 846.374 224.94 846.623 224.94C846.873 224.94 847.085 225.028 847.261 225.204C847.437 225.365 847.525 225.571 847.525 225.82C847.525 226.069 847.437 226.282 847.261 226.458C847.085 226.634 846.873 226.722 846.623 226.722ZM857.574 229.428C858.644 229.428 859.612 229.677 860.478 230.176C861.343 230.675 862.018 231.364 862.502 232.244C863 233.124 863.25 234.129 863.25 235.258C863.25 236.387 863 237.399 862.502 238.294C862.018 239.174 861.343 239.863 860.478 240.362C859.612 240.846 858.644 241.088 857.574 241.088C856.562 241.088 855.645 240.853 854.824 240.384C854.002 239.9 853.364 239.233 852.91 238.382V245.268H851.81V229.516H852.866V232.222C853.32 231.342 853.958 230.66 854.78 230.176C855.616 229.677 856.547 229.428 857.574 229.428ZM857.508 240.098C858.388 240.098 859.18 239.893 859.884 239.482C860.588 239.071 861.138 238.499 861.534 237.766C861.944 237.033 862.15 236.197 862.15 235.258C862.15 234.319 861.944 233.483 861.534 232.75C861.138 232.017 860.588 231.445 859.884 231.034C859.18 230.623 858.388 230.418 857.508 230.418C856.628 230.418 855.836 230.623 855.132 231.034C854.442 231.445 853.892 232.017 853.482 232.75C853.086 233.483 852.888 234.319 852.888 235.258C852.888 236.197 853.086 237.033 853.482 237.766C853.892 238.499 854.442 239.071 855.132 239.482C855.836 239.893 856.628 240.098 857.508 240.098ZM870.484 229.428C871.907 229.428 873 229.795 873.762 230.528C874.525 231.247 874.906 232.31 874.906 233.718V241H873.85V238.954C873.484 239.629 872.948 240.157 872.244 240.538C871.54 240.905 870.697 241.088 869.714 241.088C868.438 241.088 867.426 240.787 866.678 240.186C865.945 239.585 865.578 238.793 865.578 237.81C865.578 236.857 865.916 236.087 866.59 235.5C867.28 234.899 868.372 234.598 869.868 234.598H873.806V233.674C873.806 232.603 873.513 231.789 872.926 231.232C872.354 230.675 871.511 230.396 870.396 230.396C869.634 230.396 868.9 230.528 868.196 230.792C867.507 231.056 866.92 231.408 866.436 231.848L865.886 231.056C866.458 230.543 867.148 230.147 867.954 229.868C868.761 229.575 869.604 229.428 870.484 229.428ZM869.868 240.186C870.822 240.186 871.628 239.966 872.288 239.526C872.963 239.086 873.469 238.448 873.806 237.612V235.456H869.89C868.761 235.456 867.94 235.661 867.426 236.072C866.928 236.483 866.678 237.047 866.678 237.766C866.678 238.514 866.957 239.108 867.514 239.548C868.072 239.973 868.856 240.186 869.868 240.186ZM885.048 229.428C886.486 229.428 887.622 229.846 888.458 230.682C889.294 231.518 889.712 232.721 889.712 234.29V241H888.612V234.378C888.612 233.087 888.282 232.105 887.622 231.43C886.977 230.755 886.068 230.418 884.894 230.418C883.545 230.418 882.482 230.821 881.704 231.628C880.927 232.435 880.538 233.52 880.538 234.884V241H879.438V229.516H880.494V232.002C880.89 231.195 881.477 230.565 882.254 230.11C883.046 229.655 883.978 229.428 885.048 229.428ZM899.939 240.274C899.661 240.538 899.309 240.743 898.883 240.89C898.473 241.022 898.04 241.088 897.585 241.088C896.588 241.088 895.818 240.817 895.275 240.274C894.733 239.717 894.461 238.947 894.461 237.964V230.462H892.349V229.516H894.461V227.008H895.561V229.516H899.213V230.462H895.561V237.854C895.561 238.602 895.737 239.174 896.089 239.57C896.456 239.951 896.991 240.142 897.695 240.142C898.414 240.142 899.008 239.929 899.477 239.504L899.939 240.274ZM905.911 241.088C904.987 241.088 904.107 240.949 903.271 240.67C902.435 240.391 901.782 240.039 901.313 239.614L901.819 238.734C902.288 239.13 902.889 239.46 903.623 239.724C904.371 239.988 905.148 240.12 905.955 240.12C907.113 240.12 907.964 239.929 908.507 239.548C909.064 239.167 909.343 238.639 909.343 237.964C909.343 237.48 909.189 237.099 908.881 236.82C908.587 236.541 908.221 236.336 907.781 236.204C907.341 236.072 906.732 235.933 905.955 235.786C905.045 235.625 904.312 235.449 903.755 235.258C903.197 235.067 902.721 234.759 902.325 234.334C901.929 233.909 901.731 233.322 901.731 232.574C901.731 231.665 902.105 230.917 902.853 230.33C903.615 229.729 904.693 229.428 906.087 229.428C906.82 229.428 907.546 229.531 908.265 229.736C908.983 229.941 909.57 230.213 910.025 230.55L909.519 231.43C909.049 231.093 908.514 230.836 907.913 230.66C907.311 230.484 906.695 230.396 906.065 230.396C904.994 230.396 904.187 230.594 903.645 230.99C903.102 231.386 902.831 231.907 902.831 232.552C902.831 233.065 902.985 233.469 903.293 233.762C903.601 234.041 903.975 234.253 904.415 234.4C904.869 234.532 905.5 234.679 906.307 234.84C907.201 235.001 907.92 235.177 908.463 235.368C909.02 235.544 909.489 235.837 909.871 236.248C910.252 236.659 910.443 237.223 910.443 237.942C910.443 238.895 910.047 239.658 909.255 240.23C908.463 240.802 907.348 241.088 905.911 241.088Z" fill="white"/>
<path d="M691.353 194V137.39L699.003 144.77H679.653V131H709.173V194H691.353ZM740.698 195.26C736.378 195.26 732.028 194.72 727.648 193.64C723.268 192.56 719.488 191.03 716.308 189.05L722.698 175.64C725.278 177.32 728.068 178.61 731.068 179.51C734.128 180.41 737.158 180.86 740.158 180.86C743.158 180.86 745.588 180.29 747.448 179.15C749.308 177.95 750.238 176.3 750.238 174.2C750.238 172.94 749.878 171.83 749.158 170.87C748.438 169.85 747.208 169.1 745.468 168.62C743.728 168.08 741.238 167.81 737.998 167.81H720.898L724.048 131H764.188V144.77H730.348L739.438 136.94L737.368 161.78L728.278 153.95H742.228C748.468 153.95 753.478 154.85 757.258 156.65C761.038 158.39 763.798 160.76 765.538 163.76C767.278 166.7 768.148 170.03 768.148 173.75C768.148 177.47 767.158 180.98 765.178 184.28C763.258 187.52 760.288 190.16 756.268 192.2C752.248 194.24 747.058 195.26 740.698 195.26ZM801.126 195.26C795.726 195.26 790.926 193.97 786.726 191.39C782.586 188.81 779.316 185.09 776.916 180.23C774.516 175.37 773.316 169.46 773.316 162.5C773.316 155.54 774.516 149.63 776.916 144.77C779.316 139.91 782.586 136.19 786.726 133.61C790.926 131.03 795.726 129.74 801.126 129.74C806.466 129.74 811.206 131.03 815.346 133.61C819.546 136.19 822.846 139.91 825.246 144.77C827.646 149.63 828.846 155.54 828.846 162.5C828.846 169.46 827.646 175.37 825.246 180.23C822.846 185.09 819.546 188.81 815.346 191.39C811.206 193.97 806.466 195.26 801.126 195.26ZM801.126 180.68C803.046 180.68 804.726 180.08 806.166 178.88C807.666 177.68 808.836 175.76 809.676 173.12C810.516 170.42 810.936 166.88 810.936 162.5C810.936 158.06 810.516 154.52 809.676 151.88C808.836 149.24 807.666 147.32 806.166 146.12C804.726 144.92 803.046 144.32 801.126 144.32C799.206 144.32 797.496 144.92 795.996 146.12C794.556 147.32 793.386 149.24 792.486 151.88C791.646 154.52 791.226 158.06 791.226 162.5C791.226 166.88 791.646 170.42 792.486 173.12C793.386 175.76 794.556 177.68 795.996 178.88C797.496 180.08 799.206 180.68 801.126 180.68ZM852.563 183.92V141.08H866.423V183.92H852.563ZM837.263 169.07V155.93H881.633V169.07H837.263Z" fill="white"/>
<path d="M38.9645 234.272H29.2205L27.0845 239H25.7645L33.4925 222.2H34.7165L42.4445 239H41.1245L38.9645 234.272ZM38.5085 233.24L34.0925 223.544L29.7005 233.24H38.5085ZM49.9612 239.096C48.7452 239.096 47.6572 238.824 46.6972 238.28C45.7372 237.736 44.9852 236.984 44.4412 236.024C43.8972 235.048 43.6252 233.952 43.6252 232.736C43.6252 231.504 43.8972 230.408 44.4412 229.448C44.9852 228.472 45.7372 227.72 46.6972 227.192C47.6572 226.648 48.7452 226.376 49.9612 226.376C50.9692 226.376 51.8812 226.576 52.6972 226.976C53.5292 227.36 54.2012 227.928 54.7132 228.68L53.8252 229.328C53.3772 228.704 52.8172 228.24 52.1452 227.936C51.4892 227.616 50.7612 227.456 49.9612 227.456C48.9852 227.456 48.1052 227.68 47.3212 228.128C46.5532 228.56 45.9452 229.176 45.4972 229.976C45.0652 230.776 44.8492 231.696 44.8492 232.736C44.8492 233.776 45.0652 234.696 45.4972 235.496C45.9452 236.296 46.5532 236.92 47.3212 237.368C48.1052 237.8 48.9852 238.016 49.9612 238.016C50.7612 238.016 51.4892 237.864 52.1452 237.56C52.8172 237.24 53.3772 236.768 53.8252 236.144L54.7132 236.792C54.2012 237.544 53.5292 238.12 52.6972 238.52C51.8812 238.904 50.9692 239.096 49.9612 239.096ZM62.5297 226.376C64.0817 226.376 65.2737 226.776 66.1057 227.576C66.9377 228.36 67.3537 229.52 67.3537 231.056V239H66.2017V236.768C65.8017 237.504 65.2177 238.08 64.4497 238.496C63.6817 238.896 62.7617 239.096 61.6897 239.096C60.2977 239.096 59.1937 238.768 58.3777 238.112C57.5777 237.456 57.1777 236.592 57.1777 235.52C57.1777 234.48 57.5457 233.64 58.2817 233C59.0337 232.344 60.2257 232.016 61.8577 232.016H66.1537V231.008C66.1537 229.84 65.8337 228.952 65.1937 228.344C64.5697 227.736 63.6497 227.432 62.4337 227.432C61.6017 227.432 60.8017 227.576 60.0337 227.864C59.2817 228.152 58.6417 228.536 58.1137 229.016L57.5137 228.152C58.1377 227.592 58.8897 227.16 59.7697 226.856C60.6497 226.536 61.5697 226.376 62.5297 226.376ZM61.8577 238.112C62.8977 238.112 63.7777 237.872 64.4977 237.392C65.2337 236.912 65.7857 236.216 66.1537 235.304V232.952H61.8817C60.6497 232.952 59.7537 233.176 59.1937 233.624C58.6497 234.072 58.3777 234.688 58.3777 235.472C58.3777 236.288 58.6817 236.936 59.2897 237.416C59.8977 237.88 60.7537 238.112 61.8577 238.112ZM83.4573 221.192V239H82.2813V236.048C81.7853 237.024 81.0893 237.776 80.1933 238.304C79.2973 238.832 78.2813 239.096 77.1453 239.096C75.9773 239.096 74.9213 238.824 73.9773 238.28C73.0333 237.736 72.2893 236.984 71.7453 236.024C71.2173 235.064 70.9533 233.968 70.9533 232.736C70.9533 231.504 71.2173 230.408 71.7453 229.448C72.2893 228.472 73.0333 227.72 73.9773 227.192C74.9213 226.648 75.9773 226.376 77.1453 226.376C78.2653 226.376 79.2653 226.64 80.1453 227.168C81.0413 227.696 81.7453 228.432 82.2573 229.376V221.192H83.4573ZM77.2173 238.016C78.1773 238.016 79.0333 237.792 79.7853 237.344C80.5533 236.896 81.1533 236.272 81.5853 235.472C82.0333 234.672 82.2573 233.76 82.2573 232.736C82.2573 231.712 82.0333 230.8 81.5853 230C81.1533 229.2 80.5533 228.576 79.7853 228.128C79.0333 227.68 78.1773 227.456 77.2173 227.456C76.2573 227.456 75.3933 227.68 74.6253 228.128C73.8733 228.576 73.2733 229.2 72.8253 230C72.3933 230.8 72.1773 231.712 72.1773 232.736C72.1773 233.76 72.3933 234.672 72.8253 235.472C73.2733 236.272 73.8733 236.896 74.6253 237.344C75.3933 237.792 76.2573 238.016 77.2173 238.016ZM99.1007 233.024H88.3247C88.3567 234 88.6047 234.872 89.0687 235.64C89.5327 236.392 90.1567 236.976 90.9407 237.392C91.7407 237.808 92.6367 238.016 93.6287 238.016C94.4447 238.016 95.1967 237.872 95.8847 237.584C96.5887 237.28 97.1727 236.84 97.6367 236.264L98.3327 237.056C97.7887 237.712 97.1007 238.216 96.2687 238.568C95.4527 238.92 94.5647 239.096 93.6047 239.096C92.3567 239.096 91.2447 238.824 90.2687 238.28C89.2927 237.736 88.5247 236.984 87.9647 236.024C87.4207 235.064 87.1487 233.968 87.1487 232.736C87.1487 231.52 87.4047 230.432 87.9167 229.472C88.4447 228.496 89.1647 227.736 90.0767 227.192C90.9887 226.648 92.0127 226.376 93.1487 226.376C94.2847 226.376 95.3007 226.648 96.1967 227.192C97.1087 227.72 97.8207 228.464 98.3327 229.424C98.8607 230.384 99.1247 231.472 99.1247 232.688L99.1007 233.024ZM93.1487 227.432C92.2687 227.432 91.4767 227.632 90.7727 228.032C90.0687 228.416 89.5007 228.968 89.0687 229.688C88.6527 230.392 88.4127 231.192 88.3487 232.088H97.9487C97.9007 231.192 97.6607 230.392 97.2287 229.688C96.7967 228.984 96.2287 228.432 95.5247 228.032C94.8207 227.632 94.0287 227.432 93.1487 227.432ZM118.437 226.376C119.989 226.376 121.205 226.832 122.085 227.744C122.981 228.656 123.429 229.968 123.429 231.68V239H122.229V231.776C122.229 230.368 121.885 229.296 121.197 228.56C120.509 227.824 119.549 227.456 118.317 227.456C116.909 227.456 115.789 227.896 114.957 228.776C114.141 229.656 113.733 230.84 113.733 232.328V239H112.533V231.776C112.533 230.368 112.189 229.296 111.501 228.56C110.813 227.824 109.853 227.456 108.621 227.456C107.213 227.456 106.093 227.896 105.261 228.776C104.445 229.656 104.037 230.84 104.037 232.328V239H102.837V226.472H103.989V229.16C104.405 228.28 105.021 227.6 105.837 227.12C106.669 226.624 107.653 226.376 108.789 226.376C109.925 226.376 110.885 226.632 111.669 227.144C112.469 227.656 113.037 228.408 113.373 229.4C113.789 228.472 114.437 227.736 115.317 227.192C116.213 226.648 117.253 226.376 118.437 226.376ZM128.384 226.472H129.584V239H128.384V226.472ZM128.984 223.424C128.712 223.424 128.48 223.336 128.288 223.16C128.096 222.968 128 222.736 128 222.464C128 222.192 128.096 221.96 128.288 221.768C128.48 221.576 128.712 221.48 128.984 221.48C129.256 221.48 129.488 221.576 129.68 221.768C129.872 221.944 129.968 222.168 129.968 222.44C129.968 222.712 129.872 222.944 129.68 223.136C129.488 223.328 129.256 223.424 128.984 223.424ZM139.61 239.096C138.394 239.096 137.306 238.824 136.346 238.28C135.386 237.736 134.634 236.984 134.09 236.024C133.546 235.048 133.274 233.952 133.274 232.736C133.274 231.504 133.546 230.408 134.09 229.448C134.634 228.472 135.386 227.72 136.346 227.192C137.306 226.648 138.394 226.376 139.61 226.376C140.618 226.376 141.53 226.576 142.346 226.976C143.178 227.36 143.85 227.928 144.362 228.68L143.474 229.328C143.026 228.704 142.466 228.24 141.794 227.936C141.138 227.616 140.41 227.456 139.61 227.456C138.634 227.456 137.754 227.68 136.97 228.128C136.202 228.56 135.594 229.176 135.146 229.976C134.714 230.776 134.498 231.696 134.498 232.736C134.498 233.776 134.714 234.696 135.146 235.496C135.594 236.296 136.202 236.92 136.97 237.368C137.754 237.8 138.634 238.016 139.61 238.016C140.41 238.016 141.138 237.864 141.794 237.56C142.466 237.24 143.026 236.768 143.474 236.144L144.362 236.792C143.85 237.544 143.178 238.12 142.346 238.52C141.53 238.904 140.618 239.096 139.61 239.096ZM154.502 222.2H161.15C162.894 222.2 164.438 222.56 165.782 223.28C167.142 224 168.198 225 168.95 226.28C169.702 227.544 170.078 228.984 170.078 230.6C170.078 232.216 169.702 233.664 168.95 234.944C168.198 236.208 167.142 237.2 165.782 237.92C164.438 238.64 162.894 239 161.15 239H154.502V222.2ZM161.054 237.896C162.606 237.896 163.974 237.592 165.158 236.984C166.342 236.36 167.254 235.496 167.894 234.392C168.534 233.288 168.854 232.024 168.854 230.6C168.854 229.176 168.534 227.912 167.894 226.808C167.254 225.704 166.342 224.848 165.158 224.24C163.974 223.616 162.606 223.304 161.054 223.304H155.726V237.896H161.054ZM173.946 226.472H175.146V239H173.946V226.472ZM174.546 223.424C174.274 223.424 174.042 223.336 173.85 223.16C173.658 222.968 173.562 222.736 173.562 222.464C173.562 222.192 173.658 221.96 173.85 221.768C174.042 221.576 174.274 221.48 174.546 221.48C174.818 221.48 175.05 221.576 175.242 221.768C175.434 221.944 175.53 222.168 175.53 222.44C175.53 222.712 175.434 222.944 175.242 223.136C175.05 223.328 174.818 223.424 174.546 223.424ZM183.372 239.096C182.364 239.096 181.404 238.944 180.492 238.64C179.58 238.336 178.868 237.952 178.356 237.488L178.908 236.528C179.42 236.96 180.076 237.32 180.876 237.608C181.692 237.896 182.54 238.04 183.42 238.04C184.684 238.04 185.612 237.832 186.204 237.416C186.812 237 187.116 236.424 187.116 235.688C187.116 235.16 186.948 234.744 186.612 234.44C186.292 234.136 185.892 233.912 185.412 233.768C184.932 233.624 184.268 233.472 183.42 233.312C182.428 233.136 181.628 232.944 181.02 232.736C180.412 232.528 179.892 232.192 179.46 231.728C179.028 231.264 178.812 230.624 178.812 229.808C178.812 228.816 179.22 228 180.036 227.36C180.868 226.704 182.044 226.376 183.564 226.376C184.364 226.376 185.156 226.488 185.94 226.712C186.724 226.936 187.364 227.232 187.86 227.6L187.308 228.56C186.796 228.192 186.212 227.912 185.556 227.72C184.9 227.528 184.228 227.432 183.54 227.432C182.372 227.432 181.492 227.648 180.9 228.08C180.308 228.512 180.012 229.08 180.012 229.784C180.012 230.344 180.18 230.784 180.516 231.104C180.852 231.408 181.26 231.64 181.74 231.8C182.236 231.944 182.924 232.104 183.804 232.28C184.78 232.456 185.564 232.648 186.156 232.856C186.764 233.048 187.276 233.368 187.692 233.816C188.108 234.264 188.316 234.88 188.316 235.664C188.316 236.704 187.884 237.536 187.02 238.16C186.156 238.784 184.94 239.096 183.372 239.096ZM196.633 239.096C195.417 239.096 194.329 238.824 193.369 238.28C192.409 237.736 191.657 236.984 191.113 236.024C190.569 235.048 190.297 233.952 190.297 232.736C190.297 231.504 190.569 230.408 191.113 229.448C191.657 228.472 192.409 227.72 193.369 227.192C194.329 226.648 195.417 226.376 196.633 226.376C197.641 226.376 198.553 226.576 199.369 226.976C200.201 227.36 200.873 227.928 201.385 228.68L200.497 229.328C200.049 228.704 199.489 228.24 198.817 227.936C198.161 227.616 197.433 227.456 196.633 227.456C195.657 227.456 194.777 227.68 193.993 228.128C193.225 228.56 192.617 229.176 192.169 229.976C191.737 230.776 191.521 231.696 191.521 232.736C191.521 233.776 191.737 234.696 192.169 235.496C192.617 236.296 193.225 236.92 193.993 237.368C194.777 237.8 195.657 238.016 196.633 238.016C197.433 238.016 198.161 237.864 198.817 237.56C199.489 237.24 200.049 236.768 200.497 236.144L201.385 236.792C200.873 237.544 200.201 238.12 199.369 238.52C198.553 238.904 197.641 239.096 196.633 239.096ZM204.978 226.472H206.178V239H204.978V226.472ZM205.578 223.424C205.306 223.424 205.074 223.336 204.882 223.16C204.69 222.968 204.594 222.736 204.594 222.464C204.594 222.192 204.69 221.96 204.882 221.768C205.074 221.576 205.306 221.48 205.578 221.48C205.85 221.48 206.082 221.576 206.274 221.768C206.466 221.944 206.562 222.168 206.562 222.44C206.562 222.712 206.466 222.944 206.274 223.136C206.082 223.328 205.85 223.424 205.578 223.424ZM217.523 226.376C218.691 226.376 219.747 226.648 220.691 227.192C221.635 227.736 222.371 228.488 222.899 229.448C223.443 230.408 223.715 231.504 223.715 232.736C223.715 233.968 223.443 235.072 222.899 236.048C222.371 237.008 221.635 237.76 220.691 238.304C219.747 238.832 218.691 239.096 217.523 239.096C216.419 239.096 215.419 238.84 214.523 238.328C213.627 237.8 212.931 237.072 212.435 236.144V243.656H211.235V226.472H212.387V229.424C212.883 228.464 213.579 227.72 214.475 227.192C215.387 226.648 216.403 226.376 217.523 226.376ZM217.451 238.016C218.411 238.016 219.275 237.792 220.043 237.344C220.811 236.896 221.411 236.272 221.843 235.472C222.291 234.672 222.515 233.76 222.515 232.736C222.515 231.712 222.291 230.8 221.843 230C221.411 229.2 220.811 228.576 220.043 228.128C219.275 227.68 218.411 227.456 217.451 227.456C216.491 227.456 215.627 227.68 214.859 228.128C214.107 228.576 213.507 229.2 213.059 230C212.627 230.8 212.411 231.712 212.411 232.736C212.411 233.76 212.627 234.672 213.059 235.472C213.507 236.272 214.107 236.896 214.859 237.344C215.627 237.792 216.491 238.016 217.451 238.016ZM227.431 221.192H228.631V239H227.431V221.192ZM233.689 226.472H234.889V239H233.689V226.472ZM234.289 223.424C234.017 223.424 233.785 223.336 233.593 223.16C233.401 222.968 233.305 222.736 233.305 222.464C233.305 222.192 233.401 221.96 233.593 221.768C233.785 221.576 234.017 221.48 234.289 221.48C234.561 221.48 234.793 221.576 234.985 221.768C235.177 221.944 235.273 222.168 235.273 222.44C235.273 222.712 235.177 222.944 234.985 223.136C234.793 223.328 234.561 223.424 234.289 223.424ZM246.066 226.376C247.634 226.376 248.874 226.832 249.786 227.744C250.698 228.656 251.154 229.968 251.154 231.68V239H249.954V231.776C249.954 230.368 249.594 229.296 248.874 228.56C248.17 227.824 247.178 227.456 245.898 227.456C244.426 227.456 243.266 227.896 242.418 228.776C241.57 229.656 241.146 230.84 241.146 232.328V239H239.946V226.472H241.098V229.184C241.53 228.304 242.17 227.616 243.018 227.12C243.882 226.624 244.898 226.376 246.066 226.376ZM266.702 233.024H255.926C255.958 234 256.206 234.872 256.67 235.64C257.134 236.392 257.758 236.976 258.542 237.392C259.342 237.808 260.238 238.016 261.23 238.016C262.046 238.016 262.798 237.872 263.486 237.584C264.19 237.28 264.774 236.84 265.238 236.264L265.934 237.056C265.39 237.712 264.702 238.216 263.87 238.568C263.054 238.92 262.166 239.096 261.206 239.096C259.958 239.096 258.846 238.824 257.87 238.28C256.894 237.736 256.126 236.984 255.566 236.024C255.022 235.064 254.75 233.968 254.75 232.736C254.75 231.52 255.006 230.432 255.518 229.472C256.046 228.496 256.766 227.736 257.678 227.192C258.59 226.648 259.614 226.376 260.75 226.376C261.886 226.376 262.902 226.648 263.798 227.192C264.71 227.72 265.422 228.464 265.934 229.424C266.462 230.384 266.726 231.472 266.726 232.688L266.702 233.024ZM260.75 227.432C259.87 227.432 259.078 227.632 258.374 228.032C257.67 228.416 257.102 228.968 256.67 229.688C256.254 230.392 256.014 231.192 255.95 232.088H265.55C265.502 231.192 265.262 230.392 264.83 229.688C264.398 228.984 263.83 228.432 263.126 228.032C262.422 227.632 261.63 227.432 260.75 227.432ZM273.607 239.096C272.599 239.096 271.639 238.944 270.727 238.64C269.815 238.336 269.103 237.952 268.591 237.488L269.143 236.528C269.655 236.96 270.311 237.32 271.111 237.608C271.927 237.896 272.775 238.04 273.655 238.04C274.919 238.04 275.847 237.832 276.439 237.416C277.047 237 277.351 236.424 277.351 235.688C277.351 235.16 277.183 234.744 276.847 234.44C276.527 234.136 276.127 233.912 275.647 233.768C275.167 233.624 274.503 233.472 273.655 233.312C272.663 233.136 271.863 232.944 271.255 232.736C270.647 232.528 270.127 232.192 269.695 231.728C269.263 231.264 269.047 230.624 269.047 229.808C269.047 228.816 269.455 228 270.271 227.36C271.103 226.704 272.279 226.376 273.799 226.376C274.599 226.376 275.391 226.488 276.175 226.712C276.959 226.936 277.599 227.232 278.095 227.6L277.543 228.56C277.031 228.192 276.447 227.912 275.791 227.72C275.135 227.528 274.463 227.432 273.775 227.432C272.607 227.432 271.727 227.648 271.135 228.08C270.543 228.512 270.247 229.08 270.247 229.784C270.247 230.344 270.415 230.784 270.751 231.104C271.087 231.408 271.495 231.64 271.975 231.8C272.471 231.944 273.159 232.104 274.039 232.28C275.015 232.456 275.799 232.648 276.391 232.856C276.999 233.048 277.511 233.368 277.927 233.816C278.343 234.264 278.551 234.88 278.551 235.664C278.551 236.704 278.119 237.536 277.255 238.16C276.391 238.784 275.175 239.096 273.607 239.096ZM90.6975 268L86.6895 262.384C86.0975 262.464 85.5535 262.504 85.0575 262.504H80.2575V268H79.0335V251.2H85.0575C87.1695 251.2 88.8255 251.704 90.0255 252.712C91.2255 253.704 91.8255 255.088 91.8255 256.864C91.8255 258.192 91.4815 259.312 90.7935 260.224C90.1215 261.12 89.1535 261.752 87.8895 262.12L92.0895 268H90.6975ZM85.0575 261.424C86.8495 261.424 88.2175 261.032 89.1615 260.248C90.1055 259.448 90.5775 258.32 90.5775 256.864C90.5775 255.408 90.1055 254.288 89.1615 253.504C88.2175 252.704 86.8495 252.304 85.0575 252.304H80.2575V261.424H85.0575ZM106.507 262.024H95.7309C95.7629 263 96.0109 263.872 96.4749 264.64C96.9389 265.392 97.5629 265.976 98.3469 266.392C99.1469 266.808 100.043 267.016 101.035 267.016C101.851 267.016 102.603 266.872 103.291 266.584C103.995 266.28 104.579 265.84 105.043 265.264L105.739 266.056C105.195 266.712 104.507 267.216 103.675 267.568C102.859 267.92 101.971 268.096 101.011 268.096C99.7629 268.096 98.6509 267.824 97.6749 267.28C96.6989 266.736 95.9309 265.984 95.3709 265.024C94.8269 264.064 94.5549 262.968 94.5549 261.736C94.5549 260.52 94.8109 259.432 95.3229 258.472C95.8509 257.496 96.5709 256.736 97.4829 256.192C98.3949 255.648 99.4189 255.376 100.555 255.376C101.691 255.376 102.707 255.648 103.603 256.192C104.515 256.72 105.227 257.464 105.739 258.424C106.267 259.384 106.531 260.472 106.531 261.688L106.507 262.024ZM100.555 256.432C99.6749 256.432 98.8829 256.632 98.1789 257.032C97.4749 257.416 96.9069 257.968 96.4749 258.688C96.0589 259.392 95.8189 260.192 95.7549 261.088H105.355C105.307 260.192 105.067 259.392 104.635 258.688C104.203 257.984 103.635 257.432 102.931 257.032C102.227 256.632 101.435 256.432 100.555 256.432ZM116.531 255.376C117.699 255.376 118.755 255.648 119.699 256.192C120.643 256.736 121.379 257.488 121.907 258.448C122.451 259.408 122.723 260.504 122.723 261.736C122.723 262.968 122.451 264.072 121.907 265.048C121.379 266.008 120.643 266.76 119.699 267.304C118.755 267.832 117.699 268.096 116.531 268.096C115.427 268.096 114.427 267.84 113.531 267.328C112.635 266.8 111.939 266.072 111.443 265.144V272.656H110.243V255.472H111.395V258.424C111.891 257.464 112.587 256.72 113.483 256.192C114.395 255.648 115.411 255.376 116.531 255.376ZM116.459 267.016C117.419 267.016 118.283 266.792 119.051 266.344C119.819 265.896 120.419 265.272 120.851 264.472C121.299 263.672 121.523 262.76 121.523 261.736C121.523 260.712 121.299 259.8 120.851 259C120.419 258.2 119.819 257.576 119.051 257.128C118.283 256.68 117.419 256.456 116.459 256.456C115.499 256.456 114.635 256.68 113.867 257.128C113.115 257.576 112.515 258.2 112.067 259C111.635 259.8 111.419 260.712 111.419 261.736C111.419 262.76 111.635 263.672 112.067 264.472C112.515 265.272 113.115 265.896 113.867 266.344C114.635 266.792 115.499 267.016 116.459 267.016ZM127.591 258.208C127.975 257.296 128.575 256.6 129.391 256.12C130.207 255.624 131.199 255.376 132.367 255.376V256.552L132.079 256.528C130.687 256.528 129.599 256.968 128.815 257.848C128.031 258.712 127.639 259.92 127.639 261.472V268H126.439V255.472H127.591V258.208ZM146.14 262.024H135.364C135.396 263 135.644 263.872 136.108 264.64C136.572 265.392 137.196 265.976 137.98 266.392C138.78 266.808 139.676 267.016 140.668 267.016C141.484 267.016 142.236 266.872 142.924 266.584C143.628 266.28 144.212 265.84 144.676 265.264L145.372 266.056C144.828 266.712 144.14 267.216 143.308 267.568C142.492 267.92 141.604 268.096 140.644 268.096C139.396 268.096 138.284 267.824 137.308 267.28C136.332 266.736 135.564 265.984 135.004 265.024C134.46 264.064 134.188 262.968 134.188 261.736C134.188 260.52 134.444 259.432 134.956 258.472C135.484 257.496 136.204 256.736 137.116 256.192C138.028 255.648 139.052 255.376 140.188 255.376C141.324 255.376 142.34 255.648 143.236 256.192C144.148 256.72 144.86 257.464 145.372 258.424C145.9 259.384 146.164 260.472 146.164 261.688L146.14 262.024ZM140.188 256.432C139.308 256.432 138.516 256.632 137.812 257.032C137.108 257.416 136.54 257.968 136.108 258.688C135.692 259.392 135.452 260.192 135.388 261.088H144.988C144.94 260.192 144.7 259.392 144.268 258.688C143.836 257.984 143.268 257.432 142.564 257.032C141.86 256.632 141.068 256.432 140.188 256.432ZM153.044 268.096C152.036 268.096 151.076 267.944 150.164 267.64C149.252 267.336 148.54 266.952 148.028 266.488L148.58 265.528C149.092 265.96 149.748 266.32 150.548 266.608C151.364 266.896 152.212 267.04 153.092 267.04C154.356 267.04 155.284 266.832 155.876 266.416C156.484 266 156.788 265.424 156.788 264.688C156.788 264.16 156.62 263.744 156.284 263.44C155.964 263.136 155.564 262.912 155.084 262.768C154.604 262.624 153.94 262.472 153.092 262.312C152.1 262.136 151.3 261.944 150.692 261.736C150.084 261.528 149.564 261.192 149.132 260.728C148.7 260.264 148.484 259.624 148.484 258.808C148.484 257.816 148.892 257 149.708 256.36C150.54 255.704 151.716 255.376 153.236 255.376C154.036 255.376 154.828 255.488 155.612 255.712C156.396 255.936 157.036 256.232 157.532 256.6L156.98 257.56C156.468 257.192 155.884 256.912 155.228 256.72C154.572 256.528 153.9 256.432 153.212 256.432C152.044 256.432 151.164 256.648 150.572 257.08C149.98 257.512 149.684 258.08 149.684 258.784C149.684 259.344 149.852 259.784 150.188 260.104C150.524 260.408 150.932 260.64 151.412 260.8C151.908 260.944 152.596 261.104 153.476 261.28C154.452 261.456 155.236 261.648 155.828 261.856C156.436 262.048 156.948 262.368 157.364 262.816C157.78 263.264 157.988 263.88 157.988 264.664C157.988 265.704 157.556 266.536 156.692 267.16C155.828 267.784 154.612 268.096 153.044 268.096ZM171.921 262.024H161.145C161.177 263 161.425 263.872 161.889 264.64C162.353 265.392 162.977 265.976 163.761 266.392C164.561 266.808 165.457 267.016 166.449 267.016C167.265 267.016 168.017 266.872 168.705 266.584C169.409 266.28 169.993 265.84 170.457 265.264L171.153 266.056C170.609 266.712 169.921 267.216 169.089 267.568C168.273 267.92 167.385 268.096 166.425 268.096C165.177 268.096 164.065 267.824 163.089 267.28C162.113 266.736 161.345 265.984 160.785 265.024C160.241 264.064 159.969 262.968 159.969 261.736C159.969 260.52 160.225 259.432 160.737 258.472C161.265 257.496 161.985 256.736 162.897 256.192C163.809 255.648 164.833 255.376 165.969 255.376C167.105 255.376 168.121 255.648 169.017 256.192C169.929 256.72 170.641 257.464 171.153 258.424C171.681 259.384 171.945 260.472 171.945 261.688L171.921 262.024ZM165.969 256.432C165.089 256.432 164.297 256.632 163.593 257.032C162.889 257.416 162.321 257.968 161.889 258.688C161.473 259.392 161.233 260.192 161.169 261.088H170.769C170.721 260.192 170.481 259.392 170.049 258.688C169.617 257.984 169.049 257.432 168.345 257.032C167.641 256.632 166.849 256.432 165.969 256.432ZM181.777 255.376C183.345 255.376 184.585 255.832 185.497 256.744C186.409 257.656 186.865 258.968 186.865 260.68V268H185.665V260.776C185.665 259.368 185.305 258.296 184.585 257.56C183.881 256.824 182.889 256.456 181.609 256.456C180.137 256.456 178.977 256.896 178.129 257.776C177.281 258.656 176.857 259.84 176.857 261.328V268H175.657V255.472H176.809V258.184C177.241 257.304 177.881 256.616 178.729 256.12C179.593 255.624 180.609 255.376 181.777 255.376ZM198.022 267.208C197.718 267.496 197.334 267.72 196.87 267.88C196.422 268.024 195.95 268.096 195.454 268.096C194.366 268.096 193.526 267.8 192.934 267.208C192.342 266.6 192.046 265.76 192.046 264.688V256.504H189.742V255.472H192.046V252.736H193.246V255.472H197.23V256.504H193.246V264.568C193.246 265.384 193.438 266.008 193.822 266.44C194.222 266.856 194.806 267.064 195.574 267.064C196.358 267.064 197.006 266.832 197.518 266.368L198.022 267.208ZM211.507 262.024H200.731C200.763 263 201.011 263.872 201.475 264.64C201.939 265.392 202.563 265.976 203.347 266.392C204.147 266.808 205.043 267.016 206.035 267.016C206.851 267.016 207.603 266.872 208.291 266.584C208.995 266.28 209.579 265.84 210.043 265.264L210.739 266.056C210.195 266.712 209.507 267.216 208.675 267.568C207.859 267.92 206.971 268.096 206.011 268.096C204.763 268.096 203.651 267.824 202.675 267.28C201.699 266.736 200.931 265.984 200.371 265.024C199.827 264.064 199.555 262.968 199.555 261.736C199.555 260.52 199.811 259.432 200.323 258.472C200.851 257.496 201.571 256.736 202.483 256.192C203.395 255.648 204.419 255.376 205.555 255.376C206.691 255.376 207.707 255.648 208.603 256.192C209.515 256.72 210.227 257.464 210.739 258.424C211.267 259.384 211.531 260.472 211.531 261.688L211.507 262.024ZM205.555 256.432C204.675 256.432 203.883 256.632 203.179 257.032C202.475 257.416 201.907 257.968 201.475 258.688C201.059 259.392 200.819 260.192 200.755 261.088H210.355C210.307 260.192 210.067 259.392 209.635 258.688C209.203 257.984 208.635 257.432 207.931 257.032C207.227 256.632 206.435 256.432 205.555 256.432ZM226.379 250.192V268H225.203V265.048C224.707 266.024 224.011 266.776 223.115 267.304C222.219 267.832 221.203 268.096 220.067 268.096C218.899 268.096 217.843 267.824 216.899 267.28C215.955 266.736 215.211 265.984 214.667 265.024C214.139 264.064 213.875 262.968 213.875 261.736C213.875 260.504 214.139 259.408 214.667 258.448C215.211 257.472 215.955 256.72 216.899 256.192C217.843 255.648 218.899 255.376 220.067 255.376C221.187 255.376 222.187 255.64 223.067 256.168C223.963 256.696 224.667 257.432 225.179 258.376V250.192H226.379ZM220.139 267.016C221.099 267.016 221.955 266.792 222.707 266.344C223.475 265.896 224.075 265.272 224.507 264.472C224.955 263.672 225.179 262.76 225.179 261.736C225.179 260.712 224.955 259.8 224.507 259C224.075 258.2 223.475 257.576 222.707 257.128C221.955 256.68 221.099 256.456 220.139 256.456C219.179 256.456 218.315 256.68 217.547 257.128C216.795 257.576 216.195 258.2 215.747 259C215.315 259.8 215.099 260.712 215.099 261.736C215.099 262.76 215.315 263.672 215.747 264.472C216.195 265.272 216.795 265.896 217.547 266.344C218.315 266.792 219.179 267.016 220.139 267.016Z" fill="white"/>
<path d="M91.4606 201.26C87.1406 201.26 82.7906 200.72 78.4106 199.64C74.0306 198.56 70.2506 197.03 67.0706 195.05L73.4606 181.64C76.0406 183.32 78.8306 184.61 81.8306 185.51C84.8906 186.41 87.9206 186.86 90.9206 186.86C93.9206 186.86 96.3506 186.29 98.2106 185.15C100.071 183.95 101.001 182.3 101.001 180.2C101.001 178.94 100.641 177.83 99.9206 176.87C99.2006 175.85 97.9706 175.1 96.2306 174.62C94.4906 174.08 92.0006 173.81 88.7606 173.81H71.6606L74.8106 137H114.951V150.77H81.1106L90.2006 142.94L88.1306 167.78L79.0406 159.95H92.9906C99.2306 159.95 104.241 160.85 108.021 162.65C111.801 164.39 114.561 166.76 116.301 169.76C118.041 172.7 118.911 176.03 118.911 179.75C118.911 183.47 117.921 186.98 115.941 190.28C114.021 193.52 111.051 196.16 107.031 198.2C103.011 200.24 97.8206 201.26 91.4606 201.26ZM151.889 201.26C146.489 201.26 141.689 199.97 137.489 197.39C133.349 194.81 130.079 191.09 127.679 186.23C125.279 181.37 124.079 175.46 124.079 168.5C124.079 161.54 125.279 155.63 127.679 150.77C130.079 145.91 133.349 142.19 137.489 139.61C141.689 137.03 146.489 135.74 151.889 135.74C157.229 135.74 161.969 137.03 166.109 139.61C170.309 142.19 173.609 145.91 176.009 150.77C178.409 155.63 179.609 161.54 179.609 168.5C179.609 175.46 178.409 181.37 176.009 186.23C173.609 191.09 170.309 194.81 166.109 197.39C161.969 199.97 157.229 201.26 151.889 201.26ZM151.889 186.68C153.809 186.68 155.489 186.08 156.929 184.88C158.429 183.68 159.599 181.76 160.439 179.12C161.279 176.42 161.699 172.88 161.699 168.5C161.699 164.06 161.279 160.52 160.439 157.88C159.599 155.24 158.429 153.32 156.929 152.12C155.489 150.92 153.809 150.32 151.889 150.32C149.969 150.32 148.259 150.92 146.759 152.12C145.319 153.32 144.149 155.24 143.249 157.88C142.409 160.52 141.989 164.06 141.989 168.5C141.989 172.88 142.409 176.42 143.249 179.12C144.149 181.76 145.319 183.68 146.759 184.88C148.259 186.08 149.969 186.68 151.889 186.68ZM203.326 189.92V147.08H217.186V189.92H203.326ZM188.026 175.07V161.93H232.396V175.07H188.026Z" fill="white"/>
<path d="M368.586 200V143.39L376.236 150.77H356.886V137H386.406V200H368.586ZM423.69 201.26C418.29 201.26 413.49 199.97 409.29 197.39C405.15 194.81 401.88 191.09 399.48 186.23C397.08 181.37 395.88 175.46 395.88 168.5C395.88 161.54 397.08 155.63 399.48 150.77C401.88 145.91 405.15 142.19 409.29 139.61C413.49 137.03 418.29 135.74 423.69 135.74C429.03 135.74 433.77 137.03 437.91 139.61C442.11 142.19 445.41 145.91 447.81 150.77C450.21 155.63 451.41 161.54 451.41 168.5C451.41 175.46 450.21 181.37 447.81 186.23C445.41 191.09 442.11 194.81 437.91 197.39C433.77 199.97 429.03 201.26 423.69 201.26ZM423.69 186.68C425.61 186.68 427.29 186.08 428.73 184.88C430.23 183.68 431.4 181.76 432.24 179.12C433.08 176.42 433.5 172.88 433.5 168.5C433.5 164.06 433.08 160.52 432.24 157.88C431.4 155.24 430.23 153.32 428.73 152.12C427.29 150.92 425.61 150.32 423.69 150.32C421.77 150.32 420.06 150.92 418.56 152.12C417.12 153.32 415.95 155.24 415.05 157.88C414.21 160.52 413.79 164.06 413.79 168.5C413.79 172.88 414.21 176.42 415.05 179.12C415.95 181.76 417.12 183.68 418.56 184.88C420.06 186.08 421.77 186.68 423.69 186.68ZM485.302 201.26C479.902 201.26 475.102 199.97 470.902 197.39C466.762 194.81 463.492 191.09 461.092 186.23C458.692 181.37 457.492 175.46 457.492 168.5C457.492 161.54 458.692 155.63 461.092 150.77C463.492 145.91 466.762 142.19 470.902 139.61C475.102 137.03 479.902 135.74 485.302 135.74C490.642 135.74 495.382 137.03 499.522 139.61C503.722 142.19 507.022 145.91 509.422 150.77C511.822 155.63 513.022 161.54 513.022 168.5C513.022 175.46 511.822 181.37 509.422 186.23C507.022 191.09 503.722 194.81 499.522 197.39C495.382 199.97 490.642 201.26 485.302 201.26ZM485.302 186.68C487.222 186.68 488.902 186.08 490.342 184.88C491.842 183.68 493.012 181.76 493.852 179.12C494.692 176.42 495.112 172.88 495.112 168.5C495.112 164.06 494.692 160.52 493.852 157.88C493.012 155.24 491.842 153.32 490.342 152.12C488.902 150.92 487.222 150.32 485.302 150.32C483.382 150.32 481.672 150.92 480.172 152.12C478.732 153.32 477.562 155.24 476.662 157.88C475.822 160.52 475.402 164.06 475.402 168.5C475.402 172.88 475.822 176.42 476.662 179.12C477.562 181.76 478.732 183.68 480.172 184.88C481.672 186.08 483.382 186.68 485.302 186.68ZM546.913 201.26C541.513 201.26 536.713 199.97 532.513 197.39C528.373 194.81 525.103 191.09 522.703 186.23C520.303 181.37 519.103 175.46 519.103 168.5C519.103 161.54 520.303 155.63 522.703 150.77C525.103 145.91 528.373 142.19 532.513 139.61C536.713 137.03 541.513 135.74 546.913 135.74C552.253 135.74 556.993 137.03 561.133 139.61C565.333 142.19 568.633 145.91 571.033 150.77C573.433 155.63 574.633 161.54 574.633 168.5C574.633 175.46 573.433 181.37 571.033 186.23C568.633 191.09 565.333 194.81 561.133 197.39C556.993 199.97 552.253 201.26 546.913 201.26ZM546.913 186.68C548.833 186.68 550.513 186.08 551.953 184.88C553.453 183.68 554.623 181.76 555.463 179.12C556.303 176.42 556.723 172.88 556.723 168.5C556.723 164.06 556.303 160.52 555.463 157.88C554.623 155.24 553.453 153.32 551.953 152.12C550.513 150.92 548.833 150.32 546.913 150.32C544.993 150.32 543.283 150.92 541.783 152.12C540.343 153.32 539.173 155.24 538.273 157.88C537.433 160.52 537.013 164.06 537.013 168.5C537.013 172.88 537.433 176.42 538.273 179.12C539.173 181.76 540.343 183.68 541.783 184.88C543.283 186.08 544.993 186.68 546.913 186.68Z" fill="white"/>
<path d="M464.5 3L318 86.5V260.5L464.5 346.5L615.5 260.5V86.5L464.5 3Z" stroke="url(#paint0_linear_404_3)" stroke-width="5"/>
<path d="M776.5 3L630 86.5V260.5L776.5 346.5L927.5 260.5V86.5L776.5 3Z" stroke="url(#paint1_linear_404_3)" stroke-width="5"/>
<path d="M306.5 271L160 354.5V528.5L306.5 614.5L457.5 528.5V354.5L306.5 271Z" stroke="url(#paint2_linear_404_3)" stroke-width="5"/>
<path d="M149.5 3L3 86.5V260.5L149.5 346.5L300.5 260.5V86.5L149.5 3Z" stroke="url(#paint3_linear_404_3)" stroke-width="5"/>
<path d="M621.5 277L475 360.5V534.5L621.5 620.5L772.5 534.5V360.5L621.5 277Z" stroke="url(#paint4_linear_404_3)" stroke-width="5"/>
<defs>
<linearGradient id="paint0_linear_404_3" x1="466.75" y1="3" x2="466.75" y2="346.5" gradientUnits="userSpaceOnUse">
<stop stop-color="#6E2F62"/>
<stop offset="1" stop-color="#003399"/>
</linearGradient>
<linearGradient id="paint1_linear_404_3" x1="778.75" y1="3" x2="778.75" y2="346.5" gradientUnits="userSpaceOnUse">
<stop stop-color="#003399"/>
<stop offset="1" stop-color="#3399CC"/>
</linearGradient>
<linearGradient id="paint2_linear_404_3" x1="308.75" y1="271" x2="308.75" y2="614.5" gradientUnits="userSpaceOnUse">
<stop stop-color="#003399"/>
<stop offset="1" stop-color="#3399CC"/>
</linearGradient>
<linearGradient id="paint3_linear_404_3" x1="151.75" y1="3" x2="151.75" y2="346.5" gradientUnits="userSpaceOnUse">
<stop stop-color="#CC0000"/>
<stop offset="1" stop-color="#6E2F62"/>
</linearGradient>
<linearGradient id="paint4_linear_404_3" x1="623.75" y1="277" x2="623.75" y2="620.5" gradientUnits="userSpaceOnUse">
<stop stop-color="#CC0000"/>
<stop offset="1" stop-color="#6E2F62"/>
</linearGradient>
</defs>
</svg>
