<svg width="930" height="624" viewBox="0 0 930 624" fill="none" xmlns="http://www.w3.org/2000/svg">
<path d="M530.031 507.867V492.467H535.553C536.843 492.467 537.951 492.672 538.875 493.083C539.799 493.494 540.51 494.088 541.009 494.865C541.507 495.628 541.757 496.559 541.757 497.659C541.757 498.73 541.507 499.654 541.009 500.431C540.51 501.208 539.799 501.802 538.875 502.213C537.951 502.624 536.843 502.829 535.553 502.829H530.647L531.153 502.301V507.867H530.031ZM531.153 502.367L530.647 501.817H535.553C537.21 501.817 538.464 501.458 539.315 500.739C540.18 500.006 540.613 498.979 540.613 497.659C540.613 496.324 540.18 495.298 539.315 494.579C538.464 493.846 537.21 493.479 535.553 493.479H530.647L531.153 492.929V502.367ZM549.614 507.955C548.514 507.955 547.531 507.706 546.666 507.207C545.815 506.708 545.133 506.019 544.62 505.139C544.121 504.259 543.872 503.254 543.872 502.125C543.872 500.981 544.121 499.976 544.62 499.111C545.133 498.231 545.815 497.542 546.666 497.043C547.531 496.544 548.514 496.295 549.614 496.295C550.714 496.295 551.697 496.544 552.562 497.043C553.427 497.542 554.109 498.231 554.608 499.111C555.107 499.976 555.356 500.981 555.356 502.125C555.356 503.254 555.107 504.259 554.608 505.139C554.109 506.019 553.427 506.708 552.562 507.207C551.697 507.706 550.714 507.955 549.614 507.955ZM549.614 506.965C550.494 506.965 551.286 506.767 551.99 506.371C552.694 505.96 553.244 505.388 553.64 504.655C554.036 503.922 554.234 503.078 554.234 502.125C554.234 501.157 554.036 500.314 553.64 499.595C553.244 498.862 552.694 498.297 551.99 497.901C551.286 497.49 550.494 497.285 549.614 497.285C548.734 497.285 547.942 497.49 547.238 497.901C546.549 498.297 545.999 498.862 545.588 499.595C545.192 500.314 544.994 501.157 544.994 502.125C544.994 503.078 545.192 503.922 545.588 504.655C545.999 505.388 546.549 505.96 547.238 506.371C547.942 506.767 548.734 506.965 549.614 506.965ZM563.191 507.955C562.12 507.955 561.152 507.713 560.287 507.229C559.436 506.73 558.761 506.041 558.263 505.161C557.764 504.281 557.515 503.269 557.515 502.125C557.515 500.966 557.764 499.954 558.263 499.089C558.761 498.209 559.436 497.527 560.287 497.043C561.152 496.544 562.12 496.295 563.191 496.295C564.203 496.295 565.112 496.53 565.919 496.999C566.74 497.468 567.385 498.136 567.855 499.001C568.339 499.866 568.581 500.908 568.581 502.125C568.581 503.313 568.346 504.347 567.877 505.227C567.407 506.107 566.762 506.782 565.941 507.251C565.134 507.72 564.217 507.955 563.191 507.955ZM563.257 506.965C564.137 506.965 564.921 506.767 565.611 506.371C566.315 505.96 566.865 505.388 567.261 504.655C567.671 503.922 567.877 503.078 567.877 502.125C567.877 501.157 567.671 500.314 567.261 499.595C566.865 498.862 566.315 498.297 565.611 497.901C564.921 497.49 564.137 497.285 563.257 497.285C562.377 497.285 561.585 497.49 560.881 497.901C560.191 498.297 559.641 498.862 559.231 499.595C558.835 500.314 558.637 501.157 558.637 502.125C558.637 503.078 558.835 503.922 559.231 504.655C559.641 505.388 560.191 505.96 560.881 506.371C561.585 506.767 562.377 506.965 563.257 506.965ZM567.899 507.867V504.105L568.097 502.103L567.877 500.101V491.543H568.977V507.867H567.899ZM578.168 507.955C577.054 507.955 576.056 507.706 575.176 507.207C574.311 506.708 573.622 506.019 573.108 505.139C572.61 504.259 572.36 503.254 572.36 502.125C572.36 500.981 572.61 499.969 573.108 499.089C573.622 498.209 574.311 497.527 575.176 497.043C576.056 496.544 577.054 496.295 578.168 496.295C579.092 496.295 579.928 496.471 580.676 496.823C581.439 497.175 582.055 497.703 582.524 498.407L581.71 499.001C581.3 498.414 580.786 497.982 580.17 497.703C579.554 497.424 578.887 497.285 578.168 497.285C577.274 497.285 576.467 497.49 575.748 497.901C575.044 498.297 574.487 498.862 574.076 499.595C573.68 500.314 573.482 501.157 573.482 502.125C573.482 503.093 573.68 503.944 574.076 504.677C574.487 505.396 575.044 505.96 575.748 506.371C576.467 506.767 577.274 506.965 578.168 506.965C578.887 506.965 579.554 506.826 580.17 506.547C580.786 506.268 581.3 505.836 581.71 505.249L582.524 505.843C582.055 506.547 581.439 507.075 580.676 507.427C579.928 507.779 579.092 507.955 578.168 507.955ZM593.055 507.867V505.249L593.011 504.853V500.541C593.011 499.47 592.718 498.656 592.131 498.099C591.559 497.542 590.716 497.263 589.601 497.263C588.809 497.263 588.069 497.402 587.379 497.681C586.705 497.945 586.125 498.29 585.641 498.715L585.091 497.923C585.663 497.41 586.353 497.014 587.159 496.735C587.966 496.442 588.809 496.295 589.689 496.295C591.112 496.295 592.205 496.654 592.967 497.373C593.73 498.092 594.111 499.162 594.111 500.585V507.867H593.055ZM588.919 507.955C588.069 507.955 587.328 507.823 586.697 507.559C586.081 507.28 585.605 506.892 585.267 506.393C584.945 505.894 584.783 505.322 584.783 504.677C584.783 504.09 584.915 503.562 585.179 503.093C585.458 502.609 585.913 502.22 586.543 501.927C587.174 501.619 588.017 501.465 589.073 501.465H593.297V502.323H589.095C587.907 502.323 587.071 502.543 586.587 502.983C586.118 503.423 585.883 503.973 585.883 504.633C585.883 505.366 586.162 505.953 586.719 506.393C587.277 506.833 588.061 507.053 589.073 507.053C590.041 507.053 590.855 506.833 591.515 506.393C592.19 505.953 592.689 505.315 593.011 504.479L593.319 505.227C593.011 506.063 592.483 506.73 591.735 507.229C591.002 507.713 590.063 507.955 588.919 507.955ZM601.548 507.955C600.594 507.955 599.7 507.816 598.864 507.537C598.042 507.258 597.404 506.906 596.95 506.481L597.456 505.601C597.896 505.982 598.482 506.312 599.216 506.591C599.949 506.855 600.741 506.987 601.592 506.987C602.794 506.987 603.66 506.789 604.188 506.393C604.716 505.997 604.98 505.476 604.98 504.831C604.98 504.362 604.84 503.995 604.562 503.731C604.298 503.452 603.938 503.24 603.484 503.093C603.029 502.946 602.53 502.829 601.988 502.741C601.445 502.638 600.902 502.528 600.36 502.411C599.817 502.294 599.318 502.125 598.864 501.905C598.409 501.685 598.042 501.384 597.764 501.003C597.5 500.607 597.368 500.086 597.368 499.441C597.368 498.854 597.529 498.326 597.852 497.857C598.174 497.388 598.658 497.014 599.304 496.735C599.949 496.442 600.756 496.295 601.724 496.295C602.442 496.295 603.161 496.398 603.88 496.603C604.613 496.808 605.207 497.08 605.662 497.417L605.156 498.297C604.672 497.93 604.129 497.666 603.528 497.505C602.926 497.344 602.318 497.263 601.702 497.263C600.587 497.263 599.766 497.468 599.238 497.879C598.724 498.29 598.468 498.803 598.468 499.419C598.468 499.903 598.6 500.292 598.864 500.585C599.142 500.864 599.509 501.084 599.964 501.245C600.418 501.392 600.917 501.516 601.46 501.619C602.002 501.707 602.545 501.81 603.088 501.927C603.63 502.044 604.129 502.213 604.584 502.433C605.038 502.638 605.398 502.932 605.662 503.313C605.94 503.68 606.08 504.178 606.08 504.809C606.08 505.44 605.904 505.99 605.552 506.459C605.214 506.928 604.708 507.295 604.034 507.559C603.359 507.823 602.53 507.955 601.548 507.955ZM612.493 507.955C611.481 507.955 610.704 507.676 610.161 507.119C609.633 506.562 609.369 505.799 609.369 504.831V493.875H610.469V504.721C610.469 505.454 610.653 506.019 611.019 506.415C611.386 506.811 611.914 507.009 612.603 507.009C613.322 507.009 613.916 506.796 614.385 506.371L614.847 507.141C614.554 507.42 614.195 507.625 613.769 507.757C613.359 507.889 612.933 507.955 612.493 507.955ZM607.257 497.329V496.383H614.121V497.329H607.257ZM624.907 499.551H633.245V500.541H624.907V499.551ZM625.039 506.855H634.543V507.867H623.917V492.467H634.213V493.479H625.039V506.855ZM644.046 507.955C643.034 507.955 642.118 507.72 641.296 507.251C640.49 506.782 639.844 506.114 639.36 505.249C638.891 504.369 638.656 503.328 638.656 502.125C638.656 500.922 638.891 499.888 639.36 499.023C639.844 498.143 640.49 497.468 641.296 496.999C642.118 496.53 643.034 496.295 644.046 496.295C645.132 496.295 646.1 496.544 646.95 497.043C647.816 497.527 648.49 498.209 648.974 499.089C649.473 499.969 649.722 500.981 649.722 502.125C649.722 503.269 649.473 504.281 648.974 505.161C648.49 506.041 647.816 506.73 646.95 507.229C646.1 507.713 645.132 507.955 644.046 507.955ZM638.282 512.135V496.383H639.338V500.145L639.162 502.147L639.382 504.149V512.135H638.282ZM643.98 506.965C644.86 506.965 645.652 506.767 646.356 506.371C647.06 505.96 647.61 505.388 648.006 504.655C648.417 503.922 648.622 503.078 648.622 502.125C648.622 501.157 648.417 500.314 648.006 499.595C647.61 498.862 647.06 498.297 646.356 497.901C645.652 497.49 644.86 497.285 643.98 497.285C643.1 497.285 642.308 497.49 641.604 497.901C640.915 498.297 640.365 498.862 639.954 499.595C639.558 500.314 639.36 501.157 639.36 502.125C639.36 503.078 639.558 503.922 639.954 504.655C640.365 505.388 640.915 505.96 641.604 506.371C642.308 506.767 643.1 506.965 643.98 506.965ZM653.128 507.867V496.383H654.228V507.867H653.128ZM653.678 493.589C653.429 493.589 653.216 493.501 653.04 493.325C652.864 493.149 652.776 492.944 652.776 492.709C652.776 492.46 652.864 492.247 653.04 492.071C653.216 491.895 653.429 491.807 653.678 491.807C653.942 491.807 654.155 491.895 654.316 492.071C654.492 492.232 654.58 492.438 654.58 492.687C654.58 492.936 654.492 493.149 654.316 493.325C654.155 493.501 653.942 493.589 653.678 493.589ZM661.768 507.955C660.815 507.955 659.92 507.816 659.084 507.537C658.263 507.258 657.625 506.906 657.17 506.481L657.676 505.601C658.116 505.982 658.703 506.312 659.436 506.591C660.17 506.855 660.962 506.987 661.812 506.987C663.015 506.987 663.88 506.789 664.408 506.393C664.936 505.997 665.2 505.476 665.2 504.831C665.2 504.362 665.061 503.995 664.782 503.731C664.518 503.452 664.159 503.24 663.704 503.093C663.25 502.946 662.751 502.829 662.208 502.741C661.666 502.638 661.123 502.528 660.58 502.411C660.038 502.294 659.539 502.125 659.084 501.905C658.63 501.685 658.263 501.384 657.984 501.003C657.72 500.607 657.588 500.086 657.588 499.441C657.588 498.854 657.75 498.326 658.072 497.857C658.395 497.388 658.879 497.014 659.524 496.735C660.17 496.442 660.976 496.295 661.944 496.295C662.663 496.295 663.382 496.398 664.1 496.603C664.834 496.808 665.428 497.08 665.882 497.417L665.376 498.297C664.892 497.93 664.35 497.666 663.748 497.505C663.147 497.344 662.538 497.263 661.922 497.263C660.808 497.263 659.986 497.468 659.458 497.879C658.945 498.29 658.688 498.803 658.688 499.419C658.688 499.903 658.82 500.292 659.084 500.585C659.363 500.864 659.73 501.084 660.184 501.245C660.639 501.392 661.138 501.516 661.68 501.619C662.223 501.707 662.766 501.81 663.308 501.927C663.851 502.044 664.35 502.213 664.804 502.433C665.259 502.638 665.618 502.932 665.882 503.313C666.161 503.68 666.3 504.178 666.3 504.809C666.3 505.44 666.124 505.99 665.772 506.459C665.435 506.928 664.929 507.295 664.254 507.559C663.58 507.823 662.751 507.955 661.768 507.955ZM673.858 507.955C672.758 507.955 671.775 507.706 670.91 507.207C670.059 506.708 669.377 506.019 668.864 505.139C668.365 504.259 668.116 503.254 668.116 502.125C668.116 500.981 668.365 499.976 668.864 499.111C669.377 498.231 670.059 497.542 670.91 497.043C671.775 496.544 672.758 496.295 673.858 496.295C674.958 496.295 675.941 496.544 676.806 497.043C677.671 497.542 678.353 498.231 678.852 499.111C679.351 499.976 679.6 500.981 679.6 502.125C679.6 503.254 679.351 504.259 678.852 505.139C678.353 506.019 677.671 506.708 676.806 507.207C675.941 507.706 674.958 507.955 673.858 507.955ZM673.858 506.965C674.738 506.965 675.53 506.767 676.234 506.371C676.938 505.96 677.488 505.388 677.884 504.655C678.28 503.922 678.478 503.078 678.478 502.125C678.478 501.157 678.28 500.314 677.884 499.595C677.488 498.862 676.938 498.297 676.234 497.901C675.53 497.49 674.738 497.285 673.858 497.285C672.978 497.285 672.186 497.49 671.482 497.901C670.793 498.297 670.243 498.862 669.832 499.595C669.436 500.314 669.238 501.157 669.238 502.125C669.238 503.078 669.436 503.922 669.832 504.655C670.243 505.388 670.793 505.96 671.482 506.371C672.186 506.767 672.978 506.965 673.858 506.965ZM687.435 507.955C686.364 507.955 685.396 507.713 684.531 507.229C683.68 506.73 683.005 506.041 682.507 505.161C682.008 504.281 681.759 503.269 681.759 502.125C681.759 500.966 682.008 499.954 682.507 499.089C683.005 498.209 683.68 497.527 684.531 497.043C685.396 496.544 686.364 496.295 687.435 496.295C688.447 496.295 689.356 496.53 690.163 496.999C690.984 497.468 691.629 498.136 692.099 499.001C692.583 499.866 692.825 500.908 692.825 502.125C692.825 503.313 692.59 504.347 692.121 505.227C691.651 506.107 691.006 506.782 690.185 507.251C689.378 507.72 688.461 507.955 687.435 507.955ZM687.501 506.965C688.381 506.965 689.165 506.767 689.855 506.371C690.559 505.96 691.109 505.388 691.505 504.655C691.915 503.922 692.121 503.078 692.121 502.125C692.121 501.157 691.915 500.314 691.505 499.595C691.109 498.862 690.559 498.297 689.855 497.901C689.165 497.49 688.381 497.285 687.501 497.285C686.621 497.285 685.829 497.49 685.125 497.901C684.435 498.297 683.885 498.862 683.475 499.595C683.079 500.314 682.881 501.157 682.881 502.125C682.881 503.078 683.079 503.922 683.475 504.655C683.885 505.388 684.435 505.96 685.125 506.371C685.829 506.767 686.621 506.965 687.501 506.965ZM692.143 507.867V504.105L692.341 502.103L692.121 500.101V491.543H693.221V507.867H692.143ZM702.522 507.955C701.364 507.955 700.337 507.706 699.442 507.207C698.562 506.708 697.866 506.019 697.352 505.139C696.854 504.259 696.604 503.254 696.604 502.125C696.604 500.981 696.839 499.976 697.308 499.111C697.792 498.231 698.452 497.542 699.288 497.043C700.124 496.544 701.063 496.295 702.104 496.295C703.146 496.295 704.077 496.537 704.898 497.021C705.734 497.505 706.387 498.187 706.856 499.067C707.34 499.932 707.582 500.937 707.582 502.081C707.582 502.125 707.575 502.176 707.56 502.235C707.56 502.279 707.56 502.33 707.56 502.389H697.418V501.531H706.966L706.526 501.949C706.541 501.054 706.35 500.255 705.954 499.551C705.573 498.832 705.052 498.275 704.392 497.879C703.732 497.468 702.97 497.263 702.104 497.263C701.254 497.263 700.491 497.468 699.816 497.879C699.156 498.275 698.636 498.832 698.254 499.551C697.873 500.255 697.682 501.062 697.682 501.971V502.169C697.682 503.108 697.888 503.944 698.298 504.677C698.724 505.396 699.303 505.96 700.036 506.371C700.77 506.767 701.606 506.965 702.544 506.965C703.278 506.965 703.96 506.833 704.59 506.569C705.236 506.305 705.778 505.902 706.218 505.359L706.856 506.085C706.358 506.701 705.727 507.17 704.964 507.493C704.216 507.801 703.402 507.955 702.522 507.955ZM559.292 534.867V519.467H565.386C567.014 519.467 568.444 519.797 569.676 520.457C570.908 521.117 571.862 522.026 572.536 523.185C573.226 524.344 573.57 525.671 573.57 527.167C573.57 528.663 573.226 529.99 572.536 531.149C571.862 532.308 570.908 533.217 569.676 533.877C568.444 534.537 567.014 534.867 565.386 534.867H559.292ZM560.414 533.855H565.298C566.75 533.855 568.012 533.569 569.082 532.997C570.153 532.425 570.982 531.64 571.568 530.643C572.155 529.631 572.448 528.472 572.448 527.167C572.448 525.862 572.155 524.71 571.568 523.713C570.982 522.701 570.153 521.909 569.082 521.337C568.012 520.765 566.75 520.479 565.298 520.479H560.414V533.855ZM581.604 534.955C580.504 534.955 579.522 534.706 578.656 534.207C577.806 533.708 577.124 533.019 576.61 532.139C576.112 531.259 575.862 530.254 575.862 529.125C575.862 527.981 576.112 526.976 576.61 526.111C577.124 525.231 577.806 524.542 578.656 524.043C579.522 523.544 580.504 523.295 581.604 523.295C582.704 523.295 583.687 523.544 584.552 524.043C585.418 524.542 586.1 525.231 586.598 526.111C587.097 526.976 587.346 527.981 587.346 529.125C587.346 530.254 587.097 531.259 586.598 532.139C586.1 533.019 585.418 533.708 584.552 534.207C583.687 534.706 582.704 534.955 581.604 534.955ZM581.604 533.965C582.484 533.965 583.276 533.767 583.98 533.371C584.684 532.96 585.234 532.388 585.63 531.655C586.026 530.922 586.224 530.078 586.224 529.125C586.224 528.157 586.026 527.314 585.63 526.595C585.234 525.862 584.684 525.297 583.98 524.901C583.276 524.49 582.484 524.285 581.604 524.285C580.724 524.285 579.932 524.49 579.228 524.901C578.539 525.297 577.989 525.862 577.578 526.595C577.182 527.314 576.984 528.157 576.984 529.125C576.984 530.078 577.182 530.922 577.578 531.655C577.989 532.388 578.539 532.96 579.228 533.371C579.932 533.767 580.724 533.965 581.604 533.965ZM592.68 534.867L588.324 523.383H589.38L593.428 534.251H592.966L597.124 523.383H598.07L602.206 534.251H601.722L605.836 523.383H606.848L602.492 534.867H601.458L597.41 524.439H597.762L593.692 534.867H592.68ZM615.017 523.295C615.956 523.295 616.77 523.478 617.459 523.845C618.163 524.197 618.706 524.74 619.087 525.473C619.483 526.192 619.681 527.086 619.681 528.157V534.867H618.581V528.245C618.581 526.954 618.251 525.972 617.591 525.297C616.946 524.622 616.037 524.285 614.863 524.285C613.969 524.285 613.191 524.468 612.531 524.835C611.871 525.202 611.365 525.715 611.013 526.375C610.676 527.035 610.507 527.827 610.507 528.751V534.867H609.407V523.383H610.463V526.573L610.309 526.221C610.661 525.312 611.241 524.6 612.047 524.087C612.854 523.559 613.844 523.295 615.017 523.295ZM624.21 534.867V518.543H625.31V534.867H624.21ZM634.434 534.955C633.334 534.955 632.352 534.706 631.486 534.207C630.636 533.708 629.954 533.019 629.44 532.139C628.942 531.259 628.692 530.254 628.692 529.125C628.692 527.981 628.942 526.976 629.44 526.111C629.954 525.231 630.636 524.542 631.486 524.043C632.352 523.544 633.334 523.295 634.434 523.295C635.534 523.295 636.517 523.544 637.382 524.043C638.248 524.542 638.93 525.231 639.428 526.111C639.927 526.976 640.176 527.981 640.176 529.125C640.176 530.254 639.927 531.259 639.428 532.139C638.93 533.019 638.248 533.708 637.382 534.207C636.517 534.706 635.534 534.955 634.434 534.955ZM634.434 533.965C635.314 533.965 636.106 533.767 636.81 533.371C637.514 532.96 638.064 532.388 638.46 531.655C638.856 530.922 639.054 530.078 639.054 529.125C639.054 528.157 638.856 527.314 638.46 526.595C638.064 525.862 637.514 525.297 636.81 524.901C636.106 524.49 635.314 524.285 634.434 524.285C633.554 524.285 632.762 524.49 632.058 524.901C631.369 525.297 630.819 525.862 630.408 526.595C630.012 527.314 629.814 528.157 629.814 529.125C629.814 530.078 630.012 530.922 630.408 531.655C630.819 532.388 631.369 532.96 632.058 533.371C632.762 533.767 633.554 533.965 634.434 533.965ZM650.784 534.867V532.249L650.74 531.853V527.541C650.74 526.47 650.447 525.656 649.86 525.099C649.288 524.542 648.445 524.263 647.33 524.263C646.538 524.263 645.797 524.402 645.108 524.681C644.433 524.945 643.854 525.29 643.37 525.715L642.82 524.923C643.392 524.41 644.081 524.014 644.888 523.735C645.695 523.442 646.538 523.295 647.418 523.295C648.841 523.295 649.933 523.654 650.696 524.373C651.459 525.092 651.84 526.162 651.84 527.585V534.867H650.784ZM646.648 534.955C645.797 534.955 645.057 534.823 644.426 534.559C643.81 534.28 643.333 533.892 642.996 533.393C642.673 532.894 642.512 532.322 642.512 531.677C642.512 531.09 642.644 530.562 642.908 530.093C643.187 529.609 643.641 529.22 644.272 528.927C644.903 528.619 645.746 528.465 646.802 528.465H651.026V529.323H646.824C645.636 529.323 644.8 529.543 644.316 529.983C643.847 530.423 643.612 530.973 643.612 531.633C643.612 532.366 643.891 532.953 644.448 533.393C645.005 533.833 645.79 534.053 646.802 534.053C647.77 534.053 648.584 533.833 649.244 533.393C649.919 532.953 650.417 532.315 650.74 531.479L651.048 532.227C650.74 533.063 650.212 533.73 649.464 534.229C648.731 534.713 647.792 534.955 646.648 534.955ZM660.794 534.955C659.723 534.955 658.755 534.713 657.89 534.229C657.039 533.73 656.365 533.041 655.866 532.161C655.367 531.281 655.118 530.269 655.118 529.125C655.118 527.966 655.367 526.954 655.866 526.089C656.365 525.209 657.039 524.527 657.89 524.043C658.755 523.544 659.723 523.295 660.794 523.295C661.806 523.295 662.715 523.53 663.522 523.999C664.343 524.468 664.989 525.136 665.458 526.001C665.942 526.866 666.184 527.908 666.184 529.125C666.184 530.313 665.949 531.347 665.48 532.227C665.011 533.107 664.365 533.782 663.544 534.251C662.737 534.72 661.821 534.955 660.794 534.955ZM660.86 533.965C661.74 533.965 662.525 533.767 663.214 533.371C663.918 532.96 664.468 532.388 664.864 531.655C665.275 530.922 665.48 530.078 665.48 529.125C665.48 528.157 665.275 527.314 664.864 526.595C664.468 525.862 663.918 525.297 663.214 524.901C662.525 524.49 661.74 524.285 660.86 524.285C659.98 524.285 659.188 524.49 658.484 524.901C657.795 525.297 657.245 525.862 656.834 526.595C656.438 527.314 656.24 528.157 656.24 529.125C656.24 530.078 656.438 530.922 656.834 531.655C657.245 532.388 657.795 532.96 658.484 533.371C659.188 533.767 659.98 533.965 660.86 533.965ZM665.502 534.867V531.105L665.7 529.103L665.48 527.101V518.543H666.58V534.867H665.502ZM674.122 534.955C673.168 534.955 672.274 534.816 671.438 534.537C670.616 534.258 669.978 533.906 669.524 533.481L670.03 532.601C670.47 532.982 671.056 533.312 671.79 533.591C672.523 533.855 673.315 533.987 674.166 533.987C675.368 533.987 676.234 533.789 676.762 533.393C677.29 532.997 677.554 532.476 677.554 531.831C677.554 531.362 677.414 530.995 677.136 530.731C676.872 530.452 676.512 530.24 676.058 530.093C675.603 529.946 675.104 529.829 674.562 529.741C674.019 529.638 673.476 529.528 672.934 529.411C672.391 529.294 671.892 529.125 671.438 528.905C670.983 528.685 670.616 528.384 670.338 528.003C670.074 527.607 669.942 527.086 669.942 526.441C669.942 525.854 670.103 525.326 670.426 524.857C670.748 524.388 671.232 524.014 671.878 523.735C672.523 523.442 673.33 523.295 674.298 523.295C675.016 523.295 675.735 523.398 676.454 523.603C677.187 523.808 677.781 524.08 678.236 524.417L677.73 525.297C677.246 524.93 676.703 524.666 676.102 524.505C675.5 524.344 674.892 524.263 674.276 524.263C673.161 524.263 672.34 524.468 671.812 524.879C671.298 525.29 671.042 525.803 671.042 526.419C671.042 526.903 671.174 527.292 671.438 527.585C671.716 527.864 672.083 528.084 672.538 528.245C672.992 528.392 673.491 528.516 674.034 528.619C674.576 528.707 675.119 528.81 675.662 528.927C676.204 529.044 676.703 529.213 677.158 529.433C677.612 529.638 677.972 529.932 678.236 530.313C678.514 530.68 678.654 531.178 678.654 531.809C678.654 532.44 678.478 532.99 678.126 533.459C677.788 533.928 677.282 534.295 676.608 534.559C675.933 534.823 675.104 534.955 674.122 534.955Z" fill="white"/>
<path d="M515.144 453.867V397.257L522.794 404.637H503.444V390.867H532.964V453.867H515.144ZM551.619 453.867V397.257L559.269 404.637H539.919V390.867H569.439V453.867H551.619ZM606.724 455.127C601.324 455.127 596.524 453.837 592.324 451.257C588.184 448.677 584.914 444.957 582.514 440.097C580.114 435.237 578.914 429.327 578.914 422.367C578.914 415.407 580.114 409.497 582.514 404.637C584.914 399.777 588.184 396.057 592.324 393.477C596.524 390.897 601.324 389.607 606.724 389.607C612.064 389.607 616.804 390.897 620.944 393.477C625.144 396.057 628.444 399.777 630.844 404.637C633.244 409.497 634.444 415.407 634.444 422.367C634.444 429.327 633.244 435.237 630.844 440.097C628.444 444.957 625.144 448.677 620.944 451.257C616.804 453.837 612.064 455.127 606.724 455.127ZM606.724 440.547C608.644 440.547 610.324 439.947 611.764 438.747C613.264 437.547 614.434 435.627 615.274 432.987C616.114 430.287 616.534 426.747 616.534 422.367C616.534 417.927 616.114 414.387 615.274 411.747C614.434 409.107 613.264 407.187 611.764 405.987C610.324 404.787 608.644 404.187 606.724 404.187C604.804 404.187 603.094 404.787 601.594 405.987C600.154 407.187 598.984 409.107 598.084 411.747C597.244 414.387 596.824 417.927 596.824 422.367C596.824 426.747 597.244 430.287 598.084 432.987C598.984 435.627 600.154 437.547 601.594 438.747C603.094 439.947 604.804 440.547 606.724 440.547ZM668.335 455.127C662.935 455.127 658.135 453.837 653.935 451.257C649.795 448.677 646.525 444.957 644.125 440.097C641.725 435.237 640.525 429.327 640.525 422.367C640.525 415.407 641.725 409.497 644.125 404.637C646.525 399.777 649.795 396.057 653.935 393.477C658.135 390.897 662.935 389.607 668.335 389.607C673.675 389.607 678.415 390.897 682.555 393.477C686.755 396.057 690.055 399.777 692.455 404.637C694.855 409.497 696.055 415.407 696.055 422.367C696.055 429.327 694.855 435.237 692.455 440.097C690.055 444.957 686.755 448.677 682.555 451.257C678.415 453.837 673.675 455.127 668.335 455.127ZM668.335 440.547C670.255 440.547 671.935 439.947 673.375 438.747C674.875 437.547 676.045 435.627 676.885 432.987C677.725 430.287 678.145 426.747 678.145 422.367C678.145 417.927 677.725 414.387 676.885 411.747C676.045 409.107 674.875 407.187 673.375 405.987C671.935 404.787 670.255 404.187 668.335 404.187C666.415 404.187 664.705 404.787 663.205 405.987C661.765 407.187 660.595 409.107 659.695 411.747C658.855 414.387 658.435 417.927 658.435 422.367C658.435 426.747 658.855 430.287 659.695 432.987C660.595 435.627 661.765 437.547 663.205 438.747C664.705 439.947 666.415 440.547 668.335 440.547ZM719.772 443.787V400.947H733.632V443.787H719.772ZM704.472 428.937V415.797H748.842V428.937H704.472Z" fill="white"/>
<path d="M222.373 494.203C223.573 494.427 224.485 494.899 225.109 495.619C225.749 496.339 226.069 497.275 226.069 498.427C226.069 499.851 225.549 500.947 224.509 501.715C223.469 502.483 221.925 502.867 219.877 502.867H212.389V486.067H219.397C221.221 486.067 222.637 486.443 223.645 487.195C224.669 487.931 225.181 488.987 225.181 490.363C225.181 491.323 224.925 492.131 224.413 492.787C223.917 493.443 223.237 493.915 222.373 494.203ZM213.613 487.123V493.819H219.349C220.821 493.819 221.949 493.539 222.733 492.979C223.533 492.403 223.933 491.563 223.933 490.459C223.933 489.371 223.533 488.547 222.733 487.987C221.949 487.411 220.821 487.123 219.349 487.123H213.613ZM219.877 501.811C221.509 501.811 222.741 501.531 223.573 500.971C224.421 500.395 224.845 499.515 224.845 498.331C224.845 497.147 224.421 496.275 223.573 495.715C222.741 495.155 221.509 494.875 219.877 494.875H213.613V501.811H219.877ZM234.948 502.963C233.764 502.963 232.692 502.691 231.732 502.147C230.788 501.603 230.044 500.851 229.5 499.891C228.956 498.915 228.684 497.819 228.684 496.603C228.684 495.387 228.956 494.299 229.5 493.339C230.044 492.363 230.788 491.603 231.732 491.059C232.692 490.515 233.764 490.243 234.948 490.243C236.132 490.243 237.196 490.515 238.14 491.059C239.1 491.603 239.852 492.363 240.396 493.339C240.94 494.299 241.212 495.387 241.212 496.603C241.212 497.819 240.94 498.915 240.396 499.891C239.852 500.851 239.1 501.603 238.14 502.147C237.196 502.691 236.132 502.963 234.948 502.963ZM234.948 501.883C235.908 501.883 236.764 501.659 237.516 501.211C238.284 500.763 238.884 500.139 239.316 499.339C239.764 498.539 239.988 497.627 239.988 496.603C239.988 495.579 239.764 494.667 239.316 493.867C238.884 493.067 238.284 492.443 237.516 491.995C236.764 491.547 235.908 491.323 234.948 491.323C233.988 491.323 233.124 491.547 232.356 491.995C231.604 492.443 231.004 493.067 230.556 493.867C230.124 494.667 229.908 495.579 229.908 496.603C229.908 497.627 230.124 498.539 230.556 499.339C231.004 500.139 231.604 500.763 232.356 501.211C233.124 501.659 233.988 501.883 234.948 501.883ZM249.831 502.963C248.647 502.963 247.575 502.691 246.615 502.147C245.671 501.603 244.927 500.851 244.383 499.891C243.839 498.915 243.567 497.819 243.567 496.603C243.567 495.387 243.839 494.299 244.383 493.339C244.927 492.363 245.671 491.603 246.615 491.059C247.575 490.515 248.647 490.243 249.831 490.243C251.015 490.243 252.079 490.515 253.023 491.059C253.983 491.603 254.735 492.363 255.279 493.339C255.823 494.299 256.095 495.387 256.095 496.603C256.095 497.819 255.823 498.915 255.279 499.891C254.735 500.851 253.983 501.603 253.023 502.147C252.079 502.691 251.015 502.963 249.831 502.963ZM249.831 501.883C250.791 501.883 251.647 501.659 252.399 501.211C253.167 500.763 253.767 500.139 254.199 499.339C254.647 498.539 254.871 497.627 254.871 496.603C254.871 495.579 254.647 494.667 254.199 493.867C253.767 493.067 253.167 492.443 252.399 491.995C251.647 491.547 250.791 491.323 249.831 491.323C248.871 491.323 248.007 491.547 247.239 491.995C246.487 492.443 245.887 493.067 245.439 493.867C245.007 494.667 244.791 495.579 244.791 496.603C244.791 497.627 245.007 498.539 245.439 499.339C245.887 500.139 246.487 500.763 247.239 501.211C248.007 501.659 248.871 501.883 249.831 501.883ZM266.033 502.075C265.729 502.363 265.345 502.587 264.881 502.747C264.433 502.891 263.961 502.963 263.465 502.963C262.377 502.963 261.537 502.667 260.945 502.075C260.353 501.467 260.057 500.627 260.057 499.555V491.371H257.753V490.339H260.057V487.603H261.257V490.339H265.241V491.371H261.257V499.435C261.257 500.251 261.449 500.875 261.833 501.307C262.233 501.723 262.817 501.931 263.585 501.931C264.369 501.931 265.017 501.699 265.529 501.235L266.033 502.075ZM273.903 502.963C272.687 502.963 271.599 502.691 270.639 502.147C269.679 501.603 268.927 500.851 268.383 499.891C267.839 498.915 267.567 497.819 267.567 496.603C267.567 495.371 267.839 494.275 268.383 493.315C268.927 492.339 269.679 491.587 270.639 491.059C271.599 490.515 272.687 490.243 273.903 490.243C274.911 490.243 275.823 490.443 276.639 490.843C277.471 491.227 278.143 491.795 278.655 492.547L277.767 493.195C277.319 492.571 276.759 492.107 276.087 491.803C275.431 491.483 274.703 491.323 273.903 491.323C272.927 491.323 272.047 491.547 271.263 491.995C270.495 492.427 269.887 493.043 269.439 493.843C269.007 494.643 268.791 495.563 268.791 496.603C268.791 497.643 269.007 498.563 269.439 499.363C269.887 500.163 270.495 500.787 271.263 501.235C272.047 501.667 272.927 501.883 273.903 501.883C274.703 501.883 275.431 501.731 276.087 501.427C276.759 501.107 277.319 500.635 277.767 500.011L278.655 500.659C278.143 501.411 277.471 501.987 276.639 502.387C275.823 502.771 274.911 502.963 273.903 502.963ZM286.471 490.243C288.023 490.243 289.215 490.643 290.047 491.443C290.879 492.227 291.295 493.387 291.295 494.923V502.867H290.143V500.635C289.743 501.371 289.159 501.947 288.391 502.363C287.623 502.763 286.703 502.963 285.631 502.963C284.239 502.963 283.135 502.635 282.319 501.979C281.519 501.323 281.119 500.459 281.119 499.387C281.119 498.347 281.487 497.507 282.223 496.867C282.975 496.211 284.167 495.883 285.799 495.883H290.095V494.875C290.095 493.707 289.775 492.819 289.135 492.211C288.511 491.603 287.591 491.299 286.375 491.299C285.543 491.299 284.743 491.443 283.975 491.731C283.223 492.019 282.583 492.403 282.055 492.883L281.455 492.019C282.079 491.459 282.831 491.027 283.711 490.723C284.591 490.403 285.511 490.243 286.471 490.243ZM285.799 501.979C286.839 501.979 287.719 501.739 288.439 501.259C289.175 500.779 289.727 500.083 290.095 499.171V496.819H285.823C284.591 496.819 283.695 497.043 283.135 497.491C282.591 497.939 282.319 498.555 282.319 499.339C282.319 500.155 282.623 500.803 283.231 501.283C283.839 501.747 284.695 501.979 285.799 501.979ZM311.839 490.243C313.391 490.243 314.607 490.699 315.487 491.611C316.383 492.523 316.831 493.835 316.831 495.547V502.867H315.631V495.643C315.631 494.235 315.287 493.163 314.599 492.427C313.911 491.691 312.951 491.323 311.719 491.323C310.311 491.323 309.191 491.763 308.359 492.643C307.543 493.523 307.135 494.707 307.135 496.195V502.867H305.935V495.643C305.935 494.235 305.591 493.163 304.903 492.427C304.215 491.691 303.255 491.323 302.023 491.323C300.615 491.323 299.495 491.763 298.663 492.643C297.847 493.523 297.439 494.707 297.439 496.195V502.867H296.239V490.339H297.391V493.027C297.807 492.147 298.423 491.467 299.239 490.987C300.071 490.491 301.055 490.243 302.191 490.243C303.327 490.243 304.287 490.499 305.071 491.011C305.871 491.523 306.439 492.275 306.775 493.267C307.191 492.339 307.839 491.603 308.719 491.059C309.615 490.515 310.655 490.243 311.839 490.243ZM328.074 490.243C329.242 490.243 330.298 490.515 331.242 491.059C332.186 491.603 332.922 492.355 333.45 493.315C333.994 494.275 334.266 495.371 334.266 496.603C334.266 497.835 333.994 498.939 333.45 499.915C332.922 500.875 332.186 501.627 331.242 502.171C330.298 502.699 329.242 502.963 328.074 502.963C326.97 502.963 325.97 502.707 325.074 502.195C324.178 501.667 323.482 500.939 322.986 500.011V507.523H321.786V490.339H322.938V493.291C323.434 492.331 324.13 491.587 325.026 491.059C325.938 490.515 326.954 490.243 328.074 490.243ZM328.002 501.883C328.962 501.883 329.826 501.659 330.594 501.211C331.362 500.763 331.962 500.139 332.394 499.339C332.842 498.539 333.066 497.627 333.066 496.603C333.066 495.579 332.842 494.667 332.394 493.867C331.962 493.067 331.362 492.443 330.594 491.995C329.826 491.547 328.962 491.323 328.002 491.323C327.042 491.323 326.178 491.547 325.41 491.995C324.658 492.443 324.058 493.067 323.61 493.867C323.178 494.667 322.962 495.579 322.962 496.603C322.962 497.627 323.178 498.539 323.61 499.339C324.058 500.139 324.658 500.763 325.41 501.211C326.178 501.659 327.042 501.883 328.002 501.883ZM341.15 502.963C340.142 502.963 339.182 502.811 338.27 502.507C337.358 502.203 336.646 501.819 336.134 501.355L336.686 500.395C337.198 500.827 337.854 501.187 338.654 501.475C339.47 501.763 340.318 501.907 341.198 501.907C342.462 501.907 343.39 501.699 343.982 501.283C344.59 500.867 344.894 500.291 344.894 499.555C344.894 499.027 344.726 498.611 344.39 498.307C344.07 498.003 343.67 497.779 343.19 497.635C342.71 497.491 342.046 497.339 341.198 497.179C340.206 497.003 339.406 496.811 338.798 496.603C338.19 496.395 337.67 496.059 337.238 495.595C336.806 495.131 336.59 494.491 336.59 493.675C336.59 492.683 336.998 491.867 337.814 491.227C338.646 490.571 339.822 490.243 341.342 490.243C342.142 490.243 342.934 490.355 343.718 490.579C344.502 490.803 345.142 491.099 345.638 491.467L345.086 492.427C344.574 492.059 343.99 491.779 343.334 491.587C342.678 491.395 342.006 491.299 341.318 491.299C340.15 491.299 339.27 491.515 338.678 491.947C338.086 492.379 337.79 492.947 337.79 493.651C337.79 494.211 337.958 494.651 338.294 494.971C338.63 495.275 339.038 495.507 339.518 495.667C340.014 495.811 340.702 495.971 341.582 496.147C342.558 496.323 343.342 496.515 343.934 496.723C344.542 496.915 345.054 497.235 345.47 497.683C345.886 498.131 346.094 498.747 346.094 499.531C346.094 500.571 345.662 501.403 344.798 502.027C343.934 502.651 342.718 502.963 341.15 502.963ZM367.655 502.867L363.647 497.251C363.055 497.331 362.511 497.371 362.015 497.371H357.215V502.867H355.991V486.067H362.015C364.127 486.067 365.783 486.571 366.983 487.579C368.183 488.571 368.783 489.955 368.783 491.731C368.783 493.059 368.439 494.179 367.751 495.091C367.079 495.987 366.111 496.619 364.847 496.987L369.047 502.867H367.655ZM362.015 496.291C363.807 496.291 365.175 495.899 366.119 495.115C367.063 494.315 367.535 493.187 367.535 491.731C367.535 490.275 367.063 489.155 366.119 488.371C365.175 487.571 363.807 487.171 362.015 487.171H357.215V496.291H362.015ZM383.848 490.339V502.867H382.696V500.179C382.28 501.059 381.664 501.747 380.848 502.243C380.032 502.723 379.072 502.963 377.968 502.963C376.336 502.963 375.056 502.507 374.128 501.595C373.2 500.683 372.736 499.371 372.736 497.659V490.339H373.936V497.563C373.936 498.971 374.296 500.043 375.016 500.779C375.736 501.515 376.752 501.883 378.064 501.883C379.472 501.883 380.584 501.443 381.4 500.563C382.232 499.683 382.648 498.499 382.648 497.011V490.339H383.848ZM395.055 490.243C396.623 490.243 397.863 490.699 398.775 491.611C399.687 492.523 400.143 493.835 400.143 495.547V502.867H398.943V495.643C398.943 494.235 398.583 493.163 397.863 492.427C397.159 491.691 396.167 491.323 394.887 491.323C393.415 491.323 392.255 491.763 391.407 492.643C390.559 493.523 390.135 494.707 390.135 496.195V502.867H388.935V490.339H390.087V493.051C390.519 492.171 391.159 491.483 392.007 490.987C392.871 490.491 393.887 490.243 395.055 490.243Z" fill="white"/>
<path d="M292.765 453.867V397.257L300.415 404.637H281.065V390.867H310.585V453.867H292.765ZM329.24 453.867V397.257L336.89 404.637H317.54V390.867H347.06V453.867H329.24Z" fill="white"/>
<path d="M405.11 238.987C403.878 238.987 402.702 238.779 401.582 238.363C400.478 237.931 399.614 237.379 398.99 236.707L399.542 235.795C400.134 236.419 400.926 236.931 401.918 237.331C402.926 237.715 403.982 237.907 405.086 237.907C406.686 237.907 407.894 237.603 408.71 236.995C409.526 236.387 409.934 235.595 409.934 234.619C409.934 233.867 409.718 233.267 409.286 232.819C408.854 232.371 408.318 232.027 407.678 231.787C407.038 231.547 406.174 231.299 405.086 231.043C403.854 230.739 402.862 230.443 402.11 230.155C401.374 229.867 400.742 229.427 400.214 228.835C399.702 228.227 399.446 227.419 399.446 226.411C399.446 225.595 399.662 224.851 400.094 224.179C400.526 223.491 401.182 222.947 402.062 222.547C402.958 222.147 404.07 221.947 405.398 221.947C406.326 221.947 407.238 222.083 408.134 222.355C409.03 222.627 409.806 222.995 410.462 223.459L410.006 224.443C409.334 223.979 408.59 223.627 407.774 223.387C406.974 223.147 406.182 223.027 405.398 223.027C403.846 223.027 402.67 223.339 401.87 223.963C401.07 224.587 400.67 225.395 400.67 226.387C400.67 227.139 400.886 227.739 401.318 228.187C401.75 228.635 402.286 228.979 402.926 229.219C403.566 229.459 404.438 229.715 405.542 229.987C406.774 230.291 407.758 230.587 408.494 230.875C409.23 231.163 409.854 231.603 410.366 232.195C410.894 232.771 411.158 233.555 411.158 234.547C411.158 235.363 410.934 236.107 410.486 236.779C410.054 237.451 409.382 237.987 408.47 238.387C407.558 238.787 406.438 238.987 405.11 238.987ZM425.903 226.339V238.867H424.751V236.179C424.335 237.059 423.719 237.747 422.903 238.243C422.087 238.723 421.127 238.963 420.023 238.963C418.391 238.963 417.111 238.507 416.183 237.595C415.255 236.683 414.791 235.371 414.791 233.659V226.339H415.991V233.563C415.991 234.971 416.351 236.043 417.071 236.779C417.791 237.515 418.807 237.883 420.119 237.883C421.527 237.883 422.639 237.443 423.455 236.563C424.287 235.683 424.703 234.499 424.703 233.011V226.339H425.903ZM437.277 226.243C438.445 226.243 439.501 226.515 440.445 227.059C441.389 227.587 442.125 228.339 442.653 229.315C443.197 230.275 443.469 231.371 443.469 232.603C443.469 233.835 443.197 234.931 442.653 235.891C442.125 236.851 441.389 237.603 440.445 238.147C439.501 238.691 438.445 238.963 437.277 238.963C436.157 238.963 435.141 238.699 434.229 238.171C433.333 237.627 432.637 236.875 432.141 235.915V238.867H430.989V221.059H432.189V229.195C432.685 228.267 433.381 227.547 434.277 227.035C435.173 226.507 436.173 226.243 437.277 226.243ZM437.205 237.883C438.165 237.883 439.029 237.659 439.797 237.211C440.565 236.763 441.165 236.139 441.597 235.339C442.045 234.539 442.269 233.627 442.269 232.603C442.269 231.579 442.045 230.667 441.597 229.867C441.165 229.067 440.565 228.443 439.797 227.995C439.029 227.547 438.165 227.323 437.205 227.323C436.245 227.323 435.381 227.547 434.613 227.995C433.861 228.443 433.261 229.067 432.813 229.867C432.381 230.667 432.165 231.579 432.165 232.603C432.165 233.627 432.381 234.539 432.813 235.339C433.261 236.139 433.861 236.763 434.613 237.211C435.381 237.659 436.245 237.883 437.205 237.883ZM450.353 238.963C449.345 238.963 448.385 238.811 447.473 238.507C446.561 238.203 445.849 237.819 445.337 237.355L445.889 236.395C446.401 236.827 447.057 237.187 447.857 237.475C448.673 237.763 449.521 237.907 450.401 237.907C451.665 237.907 452.593 237.699 453.185 237.283C453.793 236.867 454.097 236.291 454.097 235.555C454.097 235.027 453.929 234.611 453.593 234.307C453.273 234.003 452.873 233.779 452.393 233.635C451.913 233.491 451.249 233.339 450.401 233.179C449.409 233.003 448.609 232.811 448.001 232.603C447.393 232.395 446.873 232.059 446.441 231.595C446.009 231.131 445.793 230.491 445.793 229.675C445.793 228.683 446.201 227.867 447.017 227.227C447.849 226.571 449.025 226.243 450.545 226.243C451.345 226.243 452.137 226.355 452.921 226.579C453.705 226.803 454.345 227.099 454.841 227.467L454.289 228.427C453.777 228.059 453.193 227.779 452.537 227.587C451.881 227.395 451.209 227.299 450.521 227.299C449.353 227.299 448.473 227.515 447.881 227.947C447.289 228.379 446.993 228.947 446.993 229.651C446.993 230.211 447.161 230.651 447.497 230.971C447.833 231.275 448.241 231.507 448.721 231.667C449.217 231.811 449.905 231.971 450.785 232.147C451.761 232.323 452.545 232.515 453.137 232.723C453.745 232.915 454.257 233.235 454.673 233.683C455.089 234.131 455.297 234.747 455.297 235.531C455.297 236.571 454.865 237.403 454.001 238.027C453.137 238.651 451.921 238.963 450.353 238.963ZM463.614 238.963C462.398 238.963 461.31 238.691 460.35 238.147C459.39 237.603 458.638 236.851 458.094 235.891C457.55 234.915 457.278 233.819 457.278 232.603C457.278 231.371 457.55 230.275 458.094 229.315C458.638 228.339 459.39 227.587 460.35 227.059C461.31 226.515 462.398 226.243 463.614 226.243C464.622 226.243 465.534 226.443 466.35 226.843C467.182 227.227 467.854 227.795 468.366 228.547L467.478 229.195C467.03 228.571 466.47 228.107 465.798 227.803C465.142 227.483 464.414 227.323 463.614 227.323C462.638 227.323 461.758 227.547 460.974 227.995C460.206 228.427 459.598 229.043 459.15 229.843C458.718 230.643 458.502 231.563 458.502 232.603C458.502 233.643 458.718 234.563 459.15 235.363C459.598 236.163 460.206 236.787 460.974 237.235C461.758 237.667 462.638 237.883 463.614 237.883C464.414 237.883 465.142 237.731 465.798 237.427C466.47 237.107 467.03 236.635 467.478 236.011L468.366 236.659C467.854 237.411 467.182 237.987 466.35 238.387C465.534 238.771 464.622 238.963 463.614 238.963ZM473.11 229.075C473.494 228.163 474.094 227.467 474.91 226.987C475.726 226.491 476.718 226.243 477.886 226.243V227.419L477.598 227.395C476.206 227.395 475.118 227.835 474.334 228.715C473.55 229.579 473.158 230.787 473.158 232.339V238.867H471.958V226.339H473.11V229.075ZM481.192 226.339H482.392V238.867H481.192V226.339ZM481.792 223.291C481.52 223.291 481.288 223.203 481.096 223.027C480.904 222.835 480.808 222.603 480.808 222.331C480.808 222.059 480.904 221.827 481.096 221.635C481.288 221.443 481.52 221.347 481.792 221.347C482.064 221.347 482.296 221.443 482.488 221.635C482.68 221.811 482.776 222.035 482.776 222.307C482.776 222.579 482.68 222.811 482.488 223.003C482.296 223.195 482.064 223.291 481.792 223.291ZM493.738 226.243C494.906 226.243 495.962 226.515 496.906 227.059C497.85 227.587 498.586 228.339 499.114 229.315C499.658 230.275 499.93 231.371 499.93 232.603C499.93 233.835 499.658 234.931 499.114 235.891C498.586 236.851 497.85 237.603 496.906 238.147C495.962 238.691 494.906 238.963 493.738 238.963C492.618 238.963 491.602 238.699 490.69 238.171C489.794 237.627 489.098 236.875 488.602 235.915V238.867H487.45V221.059H488.65V229.195C489.146 228.267 489.842 227.547 490.738 227.035C491.634 226.507 492.634 226.243 493.738 226.243ZM493.666 237.883C494.626 237.883 495.49 237.659 496.258 237.211C497.026 236.763 497.626 236.139 498.058 235.339C498.506 234.539 498.73 233.627 498.73 232.603C498.73 231.579 498.506 230.667 498.058 229.867C497.626 229.067 497.026 228.443 496.258 227.995C495.49 227.547 494.626 227.323 493.666 227.323C492.706 227.323 491.842 227.547 491.074 227.995C490.322 228.443 489.722 229.067 489.274 229.867C488.842 230.667 488.626 231.579 488.626 232.603C488.626 233.627 488.842 234.539 489.274 235.339C489.722 236.139 490.322 236.763 491.074 237.211C491.842 237.659 492.706 237.883 493.666 237.883ZM514.23 232.891H503.454C503.486 233.867 503.734 234.739 504.198 235.507C504.662 236.259 505.286 236.843 506.07 237.259C506.87 237.675 507.766 237.883 508.758 237.883C509.574 237.883 510.326 237.739 511.014 237.451C511.718 237.147 512.302 236.707 512.766 236.131L513.462 236.923C512.918 237.579 512.23 238.083 511.398 238.435C510.582 238.787 509.694 238.963 508.734 238.963C507.486 238.963 506.374 238.691 505.398 238.147C504.422 237.603 503.654 236.851 503.094 235.891C502.55 234.931 502.278 233.835 502.278 232.603C502.278 231.387 502.534 230.299 503.046 229.339C503.574 228.363 504.294 227.603 505.206 227.059C506.118 226.515 507.142 226.243 508.278 226.243C509.414 226.243 510.43 226.515 511.326 227.059C512.238 227.587 512.95 228.331 513.462 229.291C513.99 230.251 514.254 231.339 514.254 232.555L514.23 232.891ZM508.278 227.299C507.398 227.299 506.606 227.499 505.902 227.899C505.198 228.283 504.63 228.835 504.198 229.555C503.782 230.259 503.542 231.059 503.478 231.955H513.078C513.03 231.059 512.79 230.259 512.358 229.555C511.926 228.851 511.358 228.299 510.654 227.899C509.95 227.499 509.158 227.299 508.278 227.299ZM519.118 229.075C519.502 228.163 520.102 227.467 520.918 226.987C521.734 226.491 522.726 226.243 523.894 226.243V227.419L523.606 227.395C522.214 227.395 521.126 227.835 520.342 228.715C519.558 229.579 519.166 230.787 519.166 232.339V238.867H517.966V226.339H519.118V229.075ZM530.485 238.963C529.477 238.963 528.517 238.811 527.605 238.507C526.693 238.203 525.981 237.819 525.469 237.355L526.021 236.395C526.533 236.827 527.189 237.187 527.989 237.475C528.805 237.763 529.653 237.907 530.533 237.907C531.797 237.907 532.725 237.699 533.317 237.283C533.925 236.867 534.229 236.291 534.229 235.555C534.229 235.027 534.061 234.611 533.725 234.307C533.405 234.003 533.005 233.779 532.525 233.635C532.045 233.491 531.381 233.339 530.533 233.179C529.541 233.003 528.741 232.811 528.133 232.603C527.525 232.395 527.005 232.059 526.573 231.595C526.141 231.131 525.925 230.491 525.925 229.675C525.925 228.683 526.333 227.867 527.149 227.227C527.981 226.571 529.157 226.243 530.677 226.243C531.477 226.243 532.269 226.355 533.053 226.579C533.837 226.803 534.477 227.099 534.973 227.467L534.421 228.427C533.909 228.059 533.325 227.779 532.669 227.587C532.013 227.395 531.341 227.299 530.653 227.299C529.485 227.299 528.605 227.515 528.013 227.947C527.421 228.379 527.125 228.947 527.125 229.651C527.125 230.211 527.293 230.651 527.629 230.971C527.965 231.275 528.373 231.507 528.853 231.667C529.349 231.811 530.037 231.971 530.917 232.147C531.893 232.323 532.677 232.515 533.269 232.723C533.877 232.915 534.389 233.235 534.805 233.683C535.221 234.131 535.429 234.747 535.429 235.531C535.429 236.571 534.997 237.403 534.133 238.027C533.269 238.651 532.053 238.963 530.485 238.963Z" fill="white"/>
<path d="M668.543 225.467V240.867H667.421V233.541H657.125V240.867H656.003V225.467H657.125V232.551H667.421V225.467H668.543ZM677.441 229.295C678.864 229.295 679.957 229.662 680.719 230.395C681.482 231.114 681.863 232.177 681.863 233.585V240.867H680.807V238.821C680.441 239.496 679.905 240.024 679.201 240.405C678.497 240.772 677.654 240.955 676.671 240.955C675.395 240.955 674.383 240.654 673.635 240.053C672.902 239.452 672.535 238.66 672.535 237.677C672.535 236.724 672.873 235.954 673.547 235.367C674.237 234.766 675.329 234.465 676.825 234.465H680.763V233.541C680.763 232.47 680.47 231.656 679.883 231.099C679.311 230.542 678.468 230.263 677.353 230.263C676.591 230.263 675.857 230.395 675.153 230.659C674.464 230.923 673.877 231.275 673.393 231.715L672.843 230.923C673.415 230.41 674.105 230.014 674.911 229.735C675.718 229.442 676.561 229.295 677.441 229.295ZM676.825 240.053C677.779 240.053 678.585 239.833 679.245 239.393C679.92 238.953 680.426 238.315 680.763 237.479V235.323H676.847C675.718 235.323 674.897 235.528 674.383 235.939C673.885 236.35 673.635 236.914 673.635 237.633C673.635 238.381 673.914 238.975 674.471 239.415C675.029 239.84 675.813 240.053 676.825 240.053ZM690.971 240.955C689.856 240.955 688.859 240.706 687.979 240.207C687.099 239.708 686.41 239.019 685.911 238.139C685.412 237.244 685.163 236.24 685.163 235.125C685.163 233.996 685.412 232.991 685.911 232.111C686.41 231.216 687.099 230.527 687.979 230.043C688.859 229.544 689.856 229.295 690.971 229.295C691.895 229.295 692.731 229.478 693.479 229.845C694.242 230.197 694.858 230.718 695.327 231.407L694.513 232.001C694.102 231.429 693.589 231.004 692.973 230.725C692.372 230.432 691.704 230.285 690.971 230.285C690.076 230.285 689.27 230.49 688.551 230.901C687.847 231.297 687.29 231.862 686.879 232.595C686.483 233.328 686.285 234.172 686.285 235.125C686.285 236.078 686.483 236.922 686.879 237.655C687.29 238.388 687.847 238.96 688.551 239.371C689.27 239.767 690.076 239.965 690.971 239.965C691.704 239.965 692.372 239.826 692.973 239.547C693.589 239.254 694.102 238.821 694.513 238.249L695.327 238.843C694.858 239.532 694.242 240.06 693.479 240.427C692.731 240.779 691.895 240.955 690.971 240.955ZM702.519 234.729L699.527 237.457V240.867H698.427V224.543H699.527V236.093L706.875 229.383H708.283L703.333 234.025L708.767 240.867H707.403L702.519 234.729ZM715.017 229.295C716.44 229.295 717.533 229.662 718.295 230.395C719.058 231.114 719.439 232.177 719.439 233.585V240.867H718.383V238.821C718.017 239.496 717.481 240.024 716.777 240.405C716.073 240.772 715.23 240.955 714.247 240.955C712.971 240.955 711.959 240.654 711.211 240.053C710.478 239.452 710.111 238.66 710.111 237.677C710.111 236.724 710.449 235.954 711.123 235.367C711.813 234.766 712.905 234.465 714.401 234.465H718.339V233.541C718.339 232.47 718.046 231.656 717.459 231.099C716.887 230.542 716.044 230.263 714.929 230.263C714.167 230.263 713.433 230.395 712.729 230.659C712.04 230.923 711.453 231.275 710.969 231.715L710.419 230.923C710.991 230.41 711.681 230.014 712.487 229.735C713.294 229.442 714.137 229.295 715.017 229.295ZM714.401 240.053C715.355 240.053 716.161 239.833 716.821 239.393C717.496 238.953 718.002 238.315 718.339 237.479V235.323H714.423C713.294 235.323 712.473 235.528 711.959 235.939C711.461 236.35 711.211 236.914 711.211 237.633C711.211 238.381 711.49 238.975 712.047 239.415C712.605 239.84 713.389 240.053 714.401 240.053ZM729.67 240.141C729.391 240.405 729.039 240.61 728.614 240.757C728.203 240.889 727.77 240.955 727.316 240.955C726.318 240.955 725.548 240.684 725.006 240.141C724.463 239.584 724.192 238.814 724.192 237.831V230.329H722.08V229.383H724.192V226.875H725.292V229.383H728.944V230.329H725.292V237.721C725.292 238.469 725.468 239.041 725.82 239.437C726.186 239.818 726.722 240.009 727.426 240.009C728.144 240.009 728.738 239.796 729.208 239.371L729.67 240.141ZM738.347 229.295C739.785 229.295 740.921 229.713 741.757 230.549C742.593 231.385 743.011 232.588 743.011 234.157V240.867H741.911V234.245C741.911 232.954 741.581 231.972 740.921 231.297C740.276 230.622 739.367 230.285 738.193 230.285C736.844 230.285 735.781 230.688 735.003 231.495C734.226 232.302 733.837 233.387 733.837 234.751V240.867H732.737V224.543H733.837V231.781C734.233 230.989 734.82 230.38 735.597 229.955C736.375 229.515 737.291 229.295 738.347 229.295ZM752.049 240.955C750.964 240.955 749.981 240.706 749.101 240.207C748.236 239.708 747.554 239.019 747.055 238.139C746.557 237.244 746.307 236.24 746.307 235.125C746.307 234.01 746.557 233.013 747.055 232.133C747.554 231.238 748.236 230.542 749.101 230.043C749.981 229.544 750.964 229.295 752.049 229.295C753.135 229.295 754.11 229.544 754.975 230.043C755.855 230.542 756.545 231.238 757.043 232.133C757.542 233.013 757.791 234.01 757.791 235.125C757.791 236.24 757.542 237.244 757.043 238.139C756.545 239.019 755.855 239.708 754.975 240.207C754.11 240.706 753.135 240.955 752.049 240.955ZM752.049 239.965C752.929 239.965 753.714 239.76 754.403 239.349C755.107 238.938 755.657 238.366 756.053 237.633C756.464 236.9 756.669 236.064 756.669 235.125C756.669 234.186 756.464 233.35 756.053 232.617C755.657 231.884 755.107 231.312 754.403 230.901C753.714 230.49 752.929 230.285 752.049 230.285C751.169 230.285 750.377 230.49 749.673 230.901C748.984 231.312 748.434 231.884 748.023 232.617C747.627 233.35 747.429 234.186 747.429 235.125C747.429 236.064 747.627 236.9 748.023 237.633C748.434 238.366 748.984 238.938 749.673 239.349C750.377 239.76 751.169 239.965 752.049 239.965ZM766.814 229.295C768.251 229.295 769.388 229.713 770.224 230.549C771.06 231.385 771.478 232.588 771.478 234.157V240.867H770.378V234.245C770.378 232.954 770.048 231.972 769.388 231.297C768.743 230.622 767.833 230.285 766.66 230.285C765.311 230.285 764.247 230.688 763.47 231.495C762.693 232.302 762.304 233.387 762.304 234.751V240.867H761.204V229.383H762.26V231.869C762.656 231.062 763.243 230.432 764.02 229.977C764.812 229.522 765.743 229.295 766.814 229.295ZM787.531 225.467C789.467 225.467 790.985 225.929 792.085 226.853C793.185 227.762 793.735 229.031 793.735 230.659C793.735 232.272 793.185 233.541 792.085 234.465C790.985 235.374 789.467 235.829 787.531 235.829H783.131V240.867H782.009V225.467H787.531ZM787.531 234.817C789.174 234.817 790.428 234.458 791.293 233.739C792.159 233.02 792.591 231.994 792.591 230.659C792.591 229.324 792.159 228.298 791.293 227.579C790.428 226.846 789.174 226.479 787.531 226.479H783.131V234.817H787.531ZM800.933 229.295C802.356 229.295 803.449 229.662 804.211 230.395C804.974 231.114 805.355 232.177 805.355 233.585V240.867H804.299V238.821C803.933 239.496 803.397 240.024 802.693 240.405C801.989 240.772 801.146 240.955 800.163 240.955C798.887 240.955 797.875 240.654 797.127 240.053C796.394 239.452 796.027 238.66 796.027 237.677C796.027 236.724 796.365 235.954 797.039 235.367C797.729 234.766 798.821 234.465 800.317 234.465H804.255V233.541C804.255 232.47 803.962 231.656 803.375 231.099C802.803 230.542 801.96 230.263 800.845 230.263C800.083 230.263 799.349 230.395 798.645 230.659C797.956 230.923 797.369 231.275 796.885 231.715L796.335 230.923C796.907 230.41 797.597 230.014 798.403 229.735C799.21 229.442 800.053 229.295 800.933 229.295ZM800.317 240.053C801.271 240.053 802.077 239.833 802.737 239.393C803.412 238.953 803.918 238.315 804.255 237.479V235.323H800.339C799.21 235.323 798.389 235.528 797.875 235.939C797.377 236.35 797.127 236.914 797.127 237.633C797.127 238.381 797.406 238.975 797.963 239.415C798.521 239.84 799.305 240.053 800.317 240.053ZM810.944 231.891C811.296 231.055 811.846 230.417 812.594 229.977C813.342 229.522 814.251 229.295 815.322 229.295V230.373L815.058 230.351C813.782 230.351 812.784 230.754 812.066 231.561C811.347 232.353 810.988 233.46 810.988 234.883V240.867H809.888V229.383H810.944V231.891ZM824.566 240.141C824.287 240.405 823.935 240.61 823.51 240.757C823.099 240.889 822.667 240.955 822.212 240.955C821.215 240.955 820.445 240.684 819.902 240.141C819.359 239.584 819.088 238.814 819.088 237.831V230.329H816.976V229.383H819.088V226.875H820.188V229.383H823.84V230.329H820.188V237.721C820.188 238.469 820.364 239.041 820.716 239.437C821.083 239.818 821.618 240.009 822.322 240.009C823.041 240.009 823.635 239.796 824.104 239.371L824.566 240.141ZM827.634 229.383H828.734V240.867H827.634V229.383ZM828.184 226.589C827.934 226.589 827.722 226.508 827.546 226.347C827.37 226.171 827.282 225.958 827.282 225.709C827.282 225.46 827.37 225.247 827.546 225.071C827.722 224.895 827.934 224.807 828.184 224.807C828.433 224.807 828.646 224.895 828.822 225.071C828.998 225.232 829.086 225.438 829.086 225.687C829.086 225.936 828.998 226.149 828.822 226.325C828.646 226.501 828.433 226.589 828.184 226.589ZM837.924 240.955C836.809 240.955 835.812 240.706 834.932 240.207C834.052 239.708 833.363 239.019 832.864 238.139C832.365 237.244 832.116 236.24 832.116 235.125C832.116 233.996 832.365 232.991 832.864 232.111C833.363 231.216 834.052 230.527 834.932 230.043C835.812 229.544 836.809 229.295 837.924 229.295C838.848 229.295 839.684 229.478 840.432 229.845C841.195 230.197 841.811 230.718 842.28 231.407L841.466 232.001C841.055 231.429 840.542 231.004 839.926 230.725C839.325 230.432 838.657 230.285 837.924 230.285C837.029 230.285 836.223 230.49 835.504 230.901C834.8 231.297 834.243 231.862 833.832 232.595C833.436 233.328 833.238 234.172 833.238 235.125C833.238 236.078 833.436 236.922 833.832 237.655C834.243 238.388 834.8 238.96 835.504 239.371C836.223 239.767 837.029 239.965 837.924 239.965C838.657 239.965 839.325 239.826 839.926 239.547C840.542 239.254 841.055 238.821 841.466 238.249L842.28 238.843C841.811 239.532 841.195 240.06 840.432 240.427C839.684 240.779 838.848 240.955 837.924 240.955ZM845.573 229.383H846.673V240.867H845.573V229.383ZM846.123 226.589C845.874 226.589 845.661 226.508 845.485 226.347C845.309 226.171 845.221 225.958 845.221 225.709C845.221 225.46 845.309 225.247 845.485 225.071C845.661 224.895 845.874 224.807 846.123 224.807C846.373 224.807 846.585 224.895 846.761 225.071C846.937 225.232 847.025 225.438 847.025 225.687C847.025 225.936 846.937 226.149 846.761 226.325C846.585 226.501 846.373 226.589 846.123 226.589ZM857.074 229.295C858.144 229.295 859.112 229.544 859.978 230.043C860.843 230.542 861.518 231.231 862.002 232.111C862.5 232.991 862.75 233.996 862.75 235.125C862.75 236.254 862.5 237.266 862.002 238.161C861.518 239.041 860.843 239.73 859.978 240.229C859.112 240.713 858.144 240.955 857.074 240.955C856.062 240.955 855.145 240.72 854.324 240.251C853.502 239.767 852.864 239.1 852.41 238.249V245.135H851.31V229.383H852.366V232.089C852.82 231.209 853.458 230.527 854.28 230.043C855.116 229.544 856.047 229.295 857.074 229.295ZM857.008 239.965C857.888 239.965 858.68 239.76 859.384 239.349C860.088 238.938 860.638 238.366 861.034 237.633C861.444 236.9 861.65 236.064 861.65 235.125C861.65 234.186 861.444 233.35 861.034 232.617C860.638 231.884 860.088 231.312 859.384 230.901C858.68 230.49 857.888 230.285 857.008 230.285C856.128 230.285 855.336 230.49 854.632 230.901C853.942 231.312 853.392 231.884 852.982 232.617C852.586 233.35 852.388 234.186 852.388 235.125C852.388 236.064 852.586 236.9 852.982 237.633C853.392 238.366 853.942 238.938 854.632 239.349C855.336 239.76 856.128 239.965 857.008 239.965ZM869.984 229.295C871.407 229.295 872.5 229.662 873.262 230.395C874.025 231.114 874.406 232.177 874.406 233.585V240.867H873.35V238.821C872.984 239.496 872.448 240.024 871.744 240.405C871.04 240.772 870.197 240.955 869.214 240.955C867.938 240.955 866.926 240.654 866.178 240.053C865.445 239.452 865.078 238.66 865.078 237.677C865.078 236.724 865.416 235.954 866.09 235.367C866.78 234.766 867.872 234.465 869.368 234.465H873.306V233.541C873.306 232.47 873.013 231.656 872.426 231.099C871.854 230.542 871.011 230.263 869.896 230.263C869.134 230.263 868.4 230.395 867.696 230.659C867.007 230.923 866.42 231.275 865.936 231.715L865.386 230.923C865.958 230.41 866.648 230.014 867.454 229.735C868.261 229.442 869.104 229.295 869.984 229.295ZM869.368 240.053C870.322 240.053 871.128 239.833 871.788 239.393C872.463 238.953 872.969 238.315 873.306 237.479V235.323H869.39C868.261 235.323 867.44 235.528 866.926 235.939C866.428 236.35 866.178 236.914 866.178 237.633C866.178 238.381 866.457 238.975 867.014 239.415C867.572 239.84 868.356 240.053 869.368 240.053ZM884.548 229.295C885.986 229.295 887.122 229.713 887.958 230.549C888.794 231.385 889.212 232.588 889.212 234.157V240.867H888.112V234.245C888.112 232.954 887.782 231.972 887.122 231.297C886.477 230.622 885.568 230.285 884.394 230.285C883.045 230.285 881.982 230.688 881.204 231.495C880.427 232.302 880.038 233.387 880.038 234.751V240.867H878.938V229.383H879.994V231.869C880.39 231.062 880.977 230.432 881.754 229.977C882.546 229.522 883.478 229.295 884.548 229.295ZM899.439 240.141C899.161 240.405 898.809 240.61 898.383 240.757C897.973 240.889 897.54 240.955 897.085 240.955C896.088 240.955 895.318 240.684 894.775 240.141C894.233 239.584 893.961 238.814 893.961 237.831V230.329H891.849V229.383H893.961V226.875H895.061V229.383H898.713V230.329H895.061V237.721C895.061 238.469 895.237 239.041 895.589 239.437C895.956 239.818 896.491 240.009 897.195 240.009C897.914 240.009 898.508 239.796 898.977 239.371L899.439 240.141ZM905.411 240.955C904.487 240.955 903.607 240.816 902.771 240.537C901.935 240.258 901.282 239.906 900.813 239.481L901.319 238.601C901.788 238.997 902.389 239.327 903.123 239.591C903.871 239.855 904.648 239.987 905.455 239.987C906.613 239.987 907.464 239.796 908.007 239.415C908.564 239.034 908.843 238.506 908.843 237.831C908.843 237.347 908.689 236.966 908.381 236.687C908.087 236.408 907.721 236.203 907.281 236.071C906.841 235.939 906.232 235.8 905.455 235.653C904.545 235.492 903.812 235.316 903.255 235.125C902.697 234.934 902.221 234.626 901.825 234.201C901.429 233.776 901.231 233.189 901.231 232.441C901.231 231.532 901.605 230.784 902.353 230.197C903.115 229.596 904.193 229.295 905.587 229.295C906.32 229.295 907.046 229.398 907.765 229.603C908.483 229.808 909.07 230.08 909.525 230.417L909.019 231.297C908.549 230.96 908.014 230.703 907.413 230.527C906.811 230.351 906.195 230.263 905.565 230.263C904.494 230.263 903.687 230.461 903.145 230.857C902.602 231.253 902.331 231.774 902.331 232.419C902.331 232.932 902.485 233.336 902.793 233.629C903.101 233.908 903.475 234.12 903.915 234.267C904.369 234.399 905 234.546 905.807 234.707C906.701 234.868 907.42 235.044 907.963 235.235C908.52 235.411 908.989 235.704 909.371 236.115C909.752 236.526 909.943 237.09 909.943 237.809C909.943 238.762 909.547 239.525 908.755 240.097C907.963 240.669 906.848 240.955 905.411 240.955Z" fill="white"/>
<path d="M690.853 193.867V137.257L698.503 144.637H679.153V130.867H708.673V193.867H690.853ZM740.198 195.127C735.878 195.127 731.528 194.587 727.148 193.507C722.768 192.427 718.988 190.897 715.808 188.917L722.198 175.507C724.778 177.187 727.568 178.477 730.568 179.377C733.628 180.277 736.658 180.727 739.658 180.727C742.658 180.727 745.088 180.157 746.948 179.017C748.808 177.817 749.738 176.167 749.738 174.067C749.738 172.807 749.378 171.697 748.658 170.737C747.938 169.717 746.708 168.967 744.968 168.487C743.228 167.947 740.738 167.677 737.498 167.677H720.398L723.548 130.867H763.688V144.637H729.848L738.938 136.807L736.868 161.647L727.778 153.817H741.728C747.968 153.817 752.978 154.717 756.758 156.517C760.538 158.257 763.298 160.627 765.038 163.627C766.778 166.567 767.648 169.897 767.648 173.617C767.648 177.337 766.658 180.847 764.678 184.147C762.758 187.387 759.788 190.027 755.768 192.067C751.748 194.107 746.558 195.127 740.198 195.127ZM800.626 195.127C795.226 195.127 790.426 193.837 786.226 191.257C782.086 188.677 778.816 184.957 776.416 180.097C774.016 175.237 772.816 169.327 772.816 162.367C772.816 155.407 774.016 149.497 776.416 144.637C778.816 139.777 782.086 136.057 786.226 133.477C790.426 130.897 795.226 129.607 800.626 129.607C805.966 129.607 810.706 130.897 814.846 133.477C819.046 136.057 822.346 139.777 824.746 144.637C827.146 149.497 828.346 155.407 828.346 162.367C828.346 169.327 827.146 175.237 824.746 180.097C822.346 184.957 819.046 188.677 814.846 191.257C810.706 193.837 805.966 195.127 800.626 195.127ZM800.626 180.547C802.546 180.547 804.226 179.947 805.666 178.747C807.166 177.547 808.336 175.627 809.176 172.987C810.016 170.287 810.436 166.747 810.436 162.367C810.436 157.927 810.016 154.387 809.176 151.747C808.336 149.107 807.166 147.187 805.666 145.987C804.226 144.787 802.546 144.187 800.626 144.187C798.706 144.187 796.996 144.787 795.496 145.987C794.056 147.187 792.886 149.107 791.986 151.747C791.146 154.387 790.726 157.927 790.726 162.367C790.726 166.747 791.146 170.287 791.986 172.987C792.886 175.627 794.056 177.547 795.496 178.747C796.996 179.947 798.706 180.547 800.626 180.547ZM852.063 183.787V140.947H865.923V183.787H852.063ZM836.763 168.937V155.797H881.133V168.937H836.763Z" fill="white"/>
<path d="M38.4645 234.139H28.7205L26.5845 238.867H25.2645L32.9925 222.067H34.2165L41.9445 238.867H40.6245L38.4645 234.139ZM38.0085 233.107L33.5925 223.411L29.2005 233.107H38.0085ZM49.4612 238.963C48.2452 238.963 47.1572 238.691 46.1972 238.147C45.2372 237.603 44.4852 236.851 43.9412 235.891C43.3972 234.915 43.1252 233.819 43.1252 232.603C43.1252 231.371 43.3972 230.275 43.9412 229.315C44.4852 228.339 45.2372 227.587 46.1972 227.059C47.1572 226.515 48.2452 226.243 49.4612 226.243C50.4692 226.243 51.3812 226.443 52.1972 226.843C53.0292 227.227 53.7012 227.795 54.2132 228.547L53.3252 229.195C52.8772 228.571 52.3172 228.107 51.6452 227.803C50.9892 227.483 50.2612 227.323 49.4612 227.323C48.4852 227.323 47.6052 227.547 46.8212 227.995C46.0532 228.427 45.4452 229.043 44.9972 229.843C44.5652 230.643 44.3492 231.563 44.3492 232.603C44.3492 233.643 44.5652 234.563 44.9972 235.363C45.4452 236.163 46.0532 236.787 46.8212 237.235C47.6052 237.667 48.4852 237.883 49.4612 237.883C50.2612 237.883 50.9892 237.731 51.6452 237.427C52.3172 237.107 52.8772 236.635 53.3252 236.011L54.2132 236.659C53.7012 237.411 53.0292 237.987 52.1972 238.387C51.3812 238.771 50.4692 238.963 49.4612 238.963ZM62.0297 226.243C63.5817 226.243 64.7737 226.643 65.6057 227.443C66.4377 228.227 66.8537 229.387 66.8537 230.923V238.867H65.7017V236.635C65.3017 237.371 64.7177 237.947 63.9497 238.363C63.1817 238.763 62.2617 238.963 61.1897 238.963C59.7977 238.963 58.6937 238.635 57.8777 237.979C57.0777 237.323 56.6777 236.459 56.6777 235.387C56.6777 234.347 57.0457 233.507 57.7817 232.867C58.5337 232.211 59.7257 231.883 61.3577 231.883H65.6537V230.875C65.6537 229.707 65.3337 228.819 64.6937 228.211C64.0697 227.603 63.1497 227.299 61.9337 227.299C61.1017 227.299 60.3017 227.443 59.5337 227.731C58.7817 228.019 58.1417 228.403 57.6137 228.883L57.0137 228.019C57.6377 227.459 58.3897 227.027 59.2697 226.723C60.1497 226.403 61.0697 226.243 62.0297 226.243ZM61.3577 237.979C62.3977 237.979 63.2777 237.739 63.9977 237.259C64.7337 236.779 65.2857 236.083 65.6537 235.171V232.819H61.3817C60.1497 232.819 59.2537 233.043 58.6937 233.491C58.1497 233.939 57.8777 234.555 57.8777 235.339C57.8777 236.155 58.1817 236.803 58.7897 237.283C59.3977 237.747 60.2537 237.979 61.3577 237.979ZM82.9573 221.059V238.867H81.7813V235.915C81.2853 236.891 80.5893 237.643 79.6933 238.171C78.7973 238.699 77.7813 238.963 76.6453 238.963C75.4773 238.963 74.4213 238.691 73.4773 238.147C72.5333 237.603 71.7893 236.851 71.2453 235.891C70.7173 234.931 70.4533 233.835 70.4533 232.603C70.4533 231.371 70.7173 230.275 71.2453 229.315C71.7893 228.339 72.5333 227.587 73.4773 227.059C74.4213 226.515 75.4773 226.243 76.6453 226.243C77.7653 226.243 78.7653 226.507 79.6453 227.035C80.5413 227.563 81.2453 228.299 81.7573 229.243V221.059H82.9573ZM76.7173 237.883C77.6773 237.883 78.5333 237.659 79.2853 237.211C80.0533 236.763 80.6533 236.139 81.0853 235.339C81.5333 234.539 81.7573 233.627 81.7573 232.603C81.7573 231.579 81.5333 230.667 81.0853 229.867C80.6533 229.067 80.0533 228.443 79.2853 227.995C78.5333 227.547 77.6773 227.323 76.7173 227.323C75.7573 227.323 74.8933 227.547 74.1253 227.995C73.3733 228.443 72.7733 229.067 72.3253 229.867C71.8933 230.667 71.6773 231.579 71.6773 232.603C71.6773 233.627 71.8933 234.539 72.3253 235.339C72.7733 236.139 73.3733 236.763 74.1253 237.211C74.8933 237.659 75.7573 237.883 76.7173 237.883ZM98.6007 232.891H87.8247C87.8567 233.867 88.1047 234.739 88.5687 235.507C89.0327 236.259 89.6567 236.843 90.4407 237.259C91.2407 237.675 92.1367 237.883 93.1287 237.883C93.9447 237.883 94.6967 237.739 95.3847 237.451C96.0887 237.147 96.6727 236.707 97.1367 236.131L97.8327 236.923C97.2887 237.579 96.6007 238.083 95.7687 238.435C94.9527 238.787 94.0647 238.963 93.1047 238.963C91.8567 238.963 90.7447 238.691 89.7687 238.147C88.7927 237.603 88.0247 236.851 87.4647 235.891C86.9207 234.931 86.6487 233.835 86.6487 232.603C86.6487 231.387 86.9047 230.299 87.4167 229.339C87.9447 228.363 88.6647 227.603 89.5767 227.059C90.4887 226.515 91.5127 226.243 92.6487 226.243C93.7847 226.243 94.8007 226.515 95.6967 227.059C96.6087 227.587 97.3207 228.331 97.8327 229.291C98.3607 230.251 98.6247 231.339 98.6247 232.555L98.6007 232.891ZM92.6487 227.299C91.7687 227.299 90.9767 227.499 90.2727 227.899C89.5687 228.283 89.0007 228.835 88.5687 229.555C88.1527 230.259 87.9127 231.059 87.8487 231.955H97.4487C97.4007 231.059 97.1607 230.259 96.7287 229.555C96.2967 228.851 95.7287 228.299 95.0247 227.899C94.3207 227.499 93.5287 227.299 92.6487 227.299ZM117.937 226.243C119.489 226.243 120.705 226.699 121.585 227.611C122.481 228.523 122.929 229.835 122.929 231.547V238.867H121.729V231.643C121.729 230.235 121.385 229.163 120.697 228.427C120.009 227.691 119.049 227.323 117.817 227.323C116.409 227.323 115.289 227.763 114.457 228.643C113.641 229.523 113.233 230.707 113.233 232.195V238.867H112.033V231.643C112.033 230.235 111.689 229.163 111.001 228.427C110.313 227.691 109.353 227.323 108.121 227.323C106.713 227.323 105.593 227.763 104.761 228.643C103.945 229.523 103.537 230.707 103.537 232.195V238.867H102.337V226.339H103.489V229.027C103.905 228.147 104.521 227.467 105.337 226.987C106.169 226.491 107.153 226.243 108.289 226.243C109.425 226.243 110.385 226.499 111.169 227.011C111.969 227.523 112.537 228.275 112.873 229.267C113.289 228.339 113.937 227.603 114.817 227.059C115.713 226.515 116.753 226.243 117.937 226.243ZM127.884 226.339H129.084V238.867H127.884V226.339ZM128.484 223.291C128.212 223.291 127.98 223.203 127.788 223.027C127.596 222.835 127.5 222.603 127.5 222.331C127.5 222.059 127.596 221.827 127.788 221.635C127.98 221.443 128.212 221.347 128.484 221.347C128.756 221.347 128.988 221.443 129.18 221.635C129.372 221.811 129.468 222.035 129.468 222.307C129.468 222.579 129.372 222.811 129.18 223.003C128.988 223.195 128.756 223.291 128.484 223.291ZM139.11 238.963C137.894 238.963 136.806 238.691 135.846 238.147C134.886 237.603 134.134 236.851 133.59 235.891C133.046 234.915 132.774 233.819 132.774 232.603C132.774 231.371 133.046 230.275 133.59 229.315C134.134 228.339 134.886 227.587 135.846 227.059C136.806 226.515 137.894 226.243 139.11 226.243C140.118 226.243 141.03 226.443 141.846 226.843C142.678 227.227 143.35 227.795 143.862 228.547L142.974 229.195C142.526 228.571 141.966 228.107 141.294 227.803C140.638 227.483 139.91 227.323 139.11 227.323C138.134 227.323 137.254 227.547 136.47 227.995C135.702 228.427 135.094 229.043 134.646 229.843C134.214 230.643 133.998 231.563 133.998 232.603C133.998 233.643 134.214 234.563 134.646 235.363C135.094 236.163 135.702 236.787 136.47 237.235C137.254 237.667 138.134 237.883 139.11 237.883C139.91 237.883 140.638 237.731 141.294 237.427C141.966 237.107 142.526 236.635 142.974 236.011L143.862 236.659C143.35 237.411 142.678 237.987 141.846 238.387C141.03 238.771 140.118 238.963 139.11 238.963ZM154.002 222.067H160.65C162.394 222.067 163.938 222.427 165.282 223.147C166.642 223.867 167.698 224.867 168.45 226.147C169.202 227.411 169.578 228.851 169.578 230.467C169.578 232.083 169.202 233.531 168.45 234.811C167.698 236.075 166.642 237.067 165.282 237.787C163.938 238.507 162.394 238.867 160.65 238.867H154.002V222.067ZM160.554 237.763C162.106 237.763 163.474 237.459 164.658 236.851C165.842 236.227 166.754 235.363 167.394 234.259C168.034 233.155 168.354 231.891 168.354 230.467C168.354 229.043 168.034 227.779 167.394 226.675C166.754 225.571 165.842 224.715 164.658 224.107C163.474 223.483 162.106 223.171 160.554 223.171H155.226V237.763H160.554ZM173.446 226.339H174.646V238.867H173.446V226.339ZM174.046 223.291C173.774 223.291 173.542 223.203 173.35 223.027C173.158 222.835 173.062 222.603 173.062 222.331C173.062 222.059 173.158 221.827 173.35 221.635C173.542 221.443 173.774 221.347 174.046 221.347C174.318 221.347 174.55 221.443 174.742 221.635C174.934 221.811 175.03 222.035 175.03 222.307C175.03 222.579 174.934 222.811 174.742 223.003C174.55 223.195 174.318 223.291 174.046 223.291ZM182.872 238.963C181.864 238.963 180.904 238.811 179.992 238.507C179.08 238.203 178.368 237.819 177.856 237.355L178.408 236.395C178.92 236.827 179.576 237.187 180.376 237.475C181.192 237.763 182.04 237.907 182.92 237.907C184.184 237.907 185.112 237.699 185.704 237.283C186.312 236.867 186.616 236.291 186.616 235.555C186.616 235.027 186.448 234.611 186.112 234.307C185.792 234.003 185.392 233.779 184.912 233.635C184.432 233.491 183.768 233.339 182.92 233.179C181.928 233.003 181.128 232.811 180.52 232.603C179.912 232.395 179.392 232.059 178.96 231.595C178.528 231.131 178.312 230.491 178.312 229.675C178.312 228.683 178.72 227.867 179.536 227.227C180.368 226.571 181.544 226.243 183.064 226.243C183.864 226.243 184.656 226.355 185.44 226.579C186.224 226.803 186.864 227.099 187.36 227.467L186.808 228.427C186.296 228.059 185.712 227.779 185.056 227.587C184.4 227.395 183.728 227.299 183.04 227.299C181.872 227.299 180.992 227.515 180.4 227.947C179.808 228.379 179.512 228.947 179.512 229.651C179.512 230.211 179.68 230.651 180.016 230.971C180.352 231.275 180.76 231.507 181.24 231.667C181.736 231.811 182.424 231.971 183.304 232.147C184.28 232.323 185.064 232.515 185.656 232.723C186.264 232.915 186.776 233.235 187.192 233.683C187.608 234.131 187.816 234.747 187.816 235.531C187.816 236.571 187.384 237.403 186.52 238.027C185.656 238.651 184.44 238.963 182.872 238.963ZM196.133 238.963C194.917 238.963 193.829 238.691 192.869 238.147C191.909 237.603 191.157 236.851 190.613 235.891C190.069 234.915 189.797 233.819 189.797 232.603C189.797 231.371 190.069 230.275 190.613 229.315C191.157 228.339 191.909 227.587 192.869 227.059C193.829 226.515 194.917 226.243 196.133 226.243C197.141 226.243 198.053 226.443 198.869 226.843C199.701 227.227 200.373 227.795 200.885 228.547L199.997 229.195C199.549 228.571 198.989 228.107 198.317 227.803C197.661 227.483 196.933 227.323 196.133 227.323C195.157 227.323 194.277 227.547 193.493 227.995C192.725 228.427 192.117 229.043 191.669 229.843C191.237 230.643 191.021 231.563 191.021 232.603C191.021 233.643 191.237 234.563 191.669 235.363C192.117 236.163 192.725 236.787 193.493 237.235C194.277 237.667 195.157 237.883 196.133 237.883C196.933 237.883 197.661 237.731 198.317 237.427C198.989 237.107 199.549 236.635 199.997 236.011L200.885 236.659C200.373 237.411 199.701 237.987 198.869 238.387C198.053 238.771 197.141 238.963 196.133 238.963ZM204.478 226.339H205.678V238.867H204.478V226.339ZM205.078 223.291C204.806 223.291 204.574 223.203 204.382 223.027C204.19 222.835 204.094 222.603 204.094 222.331C204.094 222.059 204.19 221.827 204.382 221.635C204.574 221.443 204.806 221.347 205.078 221.347C205.35 221.347 205.582 221.443 205.774 221.635C205.966 221.811 206.062 222.035 206.062 222.307C206.062 222.579 205.966 222.811 205.774 223.003C205.582 223.195 205.35 223.291 205.078 223.291ZM217.023 226.243C218.191 226.243 219.247 226.515 220.191 227.059C221.135 227.603 221.871 228.355 222.399 229.315C222.943 230.275 223.215 231.371 223.215 232.603C223.215 233.835 222.943 234.939 222.399 235.915C221.871 236.875 221.135 237.627 220.191 238.171C219.247 238.699 218.191 238.963 217.023 238.963C215.919 238.963 214.919 238.707 214.023 238.195C213.127 237.667 212.431 236.939 211.935 236.011V243.523H210.735V226.339H211.887V229.291C212.383 228.331 213.079 227.587 213.975 227.059C214.887 226.515 215.903 226.243 217.023 226.243ZM216.951 237.883C217.911 237.883 218.775 237.659 219.543 237.211C220.311 236.763 220.911 236.139 221.343 235.339C221.791 234.539 222.015 233.627 222.015 232.603C222.015 231.579 221.791 230.667 221.343 229.867C220.911 229.067 220.311 228.443 219.543 227.995C218.775 227.547 217.911 227.323 216.951 227.323C215.991 227.323 215.127 227.547 214.359 227.995C213.607 228.443 213.007 229.067 212.559 229.867C212.127 230.667 211.911 231.579 211.911 232.603C211.911 233.627 212.127 234.539 212.559 235.339C213.007 236.139 213.607 236.763 214.359 237.211C215.127 237.659 215.991 237.883 216.951 237.883ZM226.931 221.059H228.131V238.867H226.931V221.059ZM233.189 226.339H234.389V238.867H233.189V226.339ZM233.789 223.291C233.517 223.291 233.285 223.203 233.093 223.027C232.901 222.835 232.805 222.603 232.805 222.331C232.805 222.059 232.901 221.827 233.093 221.635C233.285 221.443 233.517 221.347 233.789 221.347C234.061 221.347 234.293 221.443 234.485 221.635C234.677 221.811 234.773 222.035 234.773 222.307C234.773 222.579 234.677 222.811 234.485 223.003C234.293 223.195 234.061 223.291 233.789 223.291ZM245.566 226.243C247.134 226.243 248.374 226.699 249.286 227.611C250.198 228.523 250.654 229.835 250.654 231.547V238.867H249.454V231.643C249.454 230.235 249.094 229.163 248.374 228.427C247.67 227.691 246.678 227.323 245.398 227.323C243.926 227.323 242.766 227.763 241.918 228.643C241.07 229.523 240.646 230.707 240.646 232.195V238.867H239.446V226.339H240.598V229.051C241.03 228.171 241.67 227.483 242.518 226.987C243.382 226.491 244.398 226.243 245.566 226.243ZM266.202 232.891H255.426C255.458 233.867 255.706 234.739 256.17 235.507C256.634 236.259 257.258 236.843 258.042 237.259C258.842 237.675 259.738 237.883 260.73 237.883C261.546 237.883 262.298 237.739 262.986 237.451C263.69 237.147 264.274 236.707 264.738 236.131L265.434 236.923C264.89 237.579 264.202 238.083 263.37 238.435C262.554 238.787 261.666 238.963 260.706 238.963C259.458 238.963 258.346 238.691 257.37 238.147C256.394 237.603 255.626 236.851 255.066 235.891C254.522 234.931 254.25 233.835 254.25 232.603C254.25 231.387 254.506 230.299 255.018 229.339C255.546 228.363 256.266 227.603 257.178 227.059C258.09 226.515 259.114 226.243 260.25 226.243C261.386 226.243 262.402 226.515 263.298 227.059C264.21 227.587 264.922 228.331 265.434 229.291C265.962 230.251 266.226 231.339 266.226 232.555L266.202 232.891ZM260.25 227.299C259.37 227.299 258.578 227.499 257.874 227.899C257.17 228.283 256.602 228.835 256.17 229.555C255.754 230.259 255.514 231.059 255.45 231.955H265.05C265.002 231.059 264.762 230.259 264.33 229.555C263.898 228.851 263.33 228.299 262.626 227.899C261.922 227.499 261.13 227.299 260.25 227.299ZM273.107 238.963C272.099 238.963 271.139 238.811 270.227 238.507C269.315 238.203 268.603 237.819 268.091 237.355L268.643 236.395C269.155 236.827 269.811 237.187 270.611 237.475C271.427 237.763 272.275 237.907 273.155 237.907C274.419 237.907 275.347 237.699 275.939 237.283C276.547 236.867 276.851 236.291 276.851 235.555C276.851 235.027 276.683 234.611 276.347 234.307C276.027 234.003 275.627 233.779 275.147 233.635C274.667 233.491 274.003 233.339 273.155 233.179C272.163 233.003 271.363 232.811 270.755 232.603C270.147 232.395 269.627 232.059 269.195 231.595C268.763 231.131 268.547 230.491 268.547 229.675C268.547 228.683 268.955 227.867 269.771 227.227C270.603 226.571 271.779 226.243 273.299 226.243C274.099 226.243 274.891 226.355 275.675 226.579C276.459 226.803 277.099 227.099 277.595 227.467L277.043 228.427C276.531 228.059 275.947 227.779 275.291 227.587C274.635 227.395 273.963 227.299 273.275 227.299C272.107 227.299 271.227 227.515 270.635 227.947C270.043 228.379 269.747 228.947 269.747 229.651C269.747 230.211 269.915 230.651 270.251 230.971C270.587 231.275 270.995 231.507 271.475 231.667C271.971 231.811 272.659 231.971 273.539 232.147C274.515 232.323 275.299 232.515 275.891 232.723C276.499 232.915 277.011 233.235 277.427 233.683C277.843 234.131 278.051 234.747 278.051 235.531C278.051 236.571 277.619 237.403 276.755 238.027C275.891 238.651 274.675 238.963 273.107 238.963ZM90.1975 267.867L86.1895 262.251C85.5975 262.331 85.0535 262.371 84.5575 262.371H79.7575V267.867H78.5335V251.067H84.5575C86.6695 251.067 88.3255 251.571 89.5255 252.579C90.7255 253.571 91.3255 254.955 91.3255 256.731C91.3255 258.059 90.9815 259.179 90.2935 260.091C89.6215 260.987 88.6535 261.619 87.3895 261.987L91.5895 267.867H90.1975ZM84.5575 261.291C86.3495 261.291 87.7175 260.899 88.6615 260.115C89.6055 259.315 90.0775 258.187 90.0775 256.731C90.0775 255.275 89.6055 254.155 88.6615 253.371C87.7175 252.571 86.3495 252.171 84.5575 252.171H79.7575V261.291H84.5575ZM106.007 261.891H95.2309C95.2629 262.867 95.5109 263.739 95.9749 264.507C96.4389 265.259 97.0629 265.843 97.8469 266.259C98.6469 266.675 99.5429 266.883 100.535 266.883C101.351 266.883 102.103 266.739 102.791 266.451C103.495 266.147 104.079 265.707 104.543 265.131L105.239 265.923C104.695 266.579 104.007 267.083 103.175 267.435C102.359 267.787 101.471 267.963 100.511 267.963C99.2629 267.963 98.1509 267.691 97.1749 267.147C96.1989 266.603 95.4309 265.851 94.8709 264.891C94.3269 263.931 94.0549 262.835 94.0549 261.603C94.0549 260.387 94.3109 259.299 94.8229 258.339C95.3509 257.363 96.0709 256.603 96.9829 256.059C97.8949 255.515 98.9189 255.243 100.055 255.243C101.191 255.243 102.207 255.515 103.103 256.059C104.015 256.587 104.727 257.331 105.239 258.291C105.767 259.251 106.031 260.339 106.031 261.555L106.007 261.891ZM100.055 256.299C99.1749 256.299 98.3829 256.499 97.6789 256.899C96.9749 257.283 96.4069 257.835 95.9749 258.555C95.5589 259.259 95.3189 260.059 95.2549 260.955H104.855C104.807 260.059 104.567 259.259 104.135 258.555C103.703 257.851 103.135 257.299 102.431 256.899C101.727 256.499 100.935 256.299 100.055 256.299ZM116.031 255.243C117.199 255.243 118.255 255.515 119.199 256.059C120.143 256.603 120.879 257.355 121.407 258.315C121.951 259.275 122.223 260.371 122.223 261.603C122.223 262.835 121.951 263.939 121.407 264.915C120.879 265.875 120.143 266.627 119.199 267.171C118.255 267.699 117.199 267.963 116.031 267.963C114.927 267.963 113.927 267.707 113.031 267.195C112.135 266.667 111.439 265.939 110.943 265.011V272.523H109.743V255.339H110.895V258.291C111.391 257.331 112.087 256.587 112.983 256.059C113.895 255.515 114.911 255.243 116.031 255.243ZM115.959 266.883C116.919 266.883 117.783 266.659 118.551 266.211C119.319 265.763 119.919 265.139 120.351 264.339C120.799 263.539 121.023 262.627 121.023 261.603C121.023 260.579 120.799 259.667 120.351 258.867C119.919 258.067 119.319 257.443 118.551 256.995C117.783 256.547 116.919 256.323 115.959 256.323C114.999 256.323 114.135 256.547 113.367 256.995C112.615 257.443 112.015 258.067 111.567 258.867C111.135 259.667 110.919 260.579 110.919 261.603C110.919 262.627 111.135 263.539 111.567 264.339C112.015 265.139 112.615 265.763 113.367 266.211C114.135 266.659 114.999 266.883 115.959 266.883ZM127.091 258.075C127.475 257.163 128.075 256.467 128.891 255.987C129.707 255.491 130.699 255.243 131.867 255.243V256.419L131.579 256.395C130.187 256.395 129.099 256.835 128.315 257.715C127.531 258.579 127.139 259.787 127.139 261.339V267.867H125.939V255.339H127.091V258.075ZM145.64 261.891H134.864C134.896 262.867 135.144 263.739 135.608 264.507C136.072 265.259 136.696 265.843 137.48 266.259C138.28 266.675 139.176 266.883 140.168 266.883C140.984 266.883 141.736 266.739 142.424 266.451C143.128 266.147 143.712 265.707 144.176 265.131L144.872 265.923C144.328 266.579 143.64 267.083 142.808 267.435C141.992 267.787 141.104 267.963 140.144 267.963C138.896 267.963 137.784 267.691 136.808 267.147C135.832 266.603 135.064 265.851 134.504 264.891C133.96 263.931 133.688 262.835 133.688 261.603C133.688 260.387 133.944 259.299 134.456 258.339C134.984 257.363 135.704 256.603 136.616 256.059C137.528 255.515 138.552 255.243 139.688 255.243C140.824 255.243 141.84 255.515 142.736 256.059C143.648 256.587 144.36 257.331 144.872 258.291C145.4 259.251 145.664 260.339 145.664 261.555L145.64 261.891ZM139.688 256.299C138.808 256.299 138.016 256.499 137.312 256.899C136.608 257.283 136.04 257.835 135.608 258.555C135.192 259.259 134.952 260.059 134.888 260.955H144.488C144.44 260.059 144.2 259.259 143.768 258.555C143.336 257.851 142.768 257.299 142.064 256.899C141.36 256.499 140.568 256.299 139.688 256.299ZM152.544 267.963C151.536 267.963 150.576 267.811 149.664 267.507C148.752 267.203 148.04 266.819 147.528 266.355L148.08 265.395C148.592 265.827 149.248 266.187 150.048 266.475C150.864 266.763 151.712 266.907 152.592 266.907C153.856 266.907 154.784 266.699 155.376 266.283C155.984 265.867 156.288 265.291 156.288 264.555C156.288 264.027 156.12 263.611 155.784 263.307C155.464 263.003 155.064 262.779 154.584 262.635C154.104 262.491 153.44 262.339 152.592 262.179C151.6 262.003 150.8 261.811 150.192 261.603C149.584 261.395 149.064 261.059 148.632 260.595C148.2 260.131 147.984 259.491 147.984 258.675C147.984 257.683 148.392 256.867 149.208 256.227C150.04 255.571 151.216 255.243 152.736 255.243C153.536 255.243 154.328 255.355 155.112 255.579C155.896 255.803 156.536 256.099 157.032 256.467L156.48 257.427C155.968 257.059 155.384 256.779 154.728 256.587C154.072 256.395 153.4 256.299 152.712 256.299C151.544 256.299 150.664 256.515 150.072 256.947C149.48 257.379 149.184 257.947 149.184 258.651C149.184 259.211 149.352 259.651 149.688 259.971C150.024 260.275 150.432 260.507 150.912 260.667C151.408 260.811 152.096 260.971 152.976 261.147C153.952 261.323 154.736 261.515 155.328 261.723C155.936 261.915 156.448 262.235 156.864 262.683C157.28 263.131 157.488 263.747 157.488 264.531C157.488 265.571 157.056 266.403 156.192 267.027C155.328 267.651 154.112 267.963 152.544 267.963ZM171.421 261.891H160.645C160.677 262.867 160.925 263.739 161.389 264.507C161.853 265.259 162.477 265.843 163.261 266.259C164.061 266.675 164.957 266.883 165.949 266.883C166.765 266.883 167.517 266.739 168.205 266.451C168.909 266.147 169.493 265.707 169.957 265.131L170.653 265.923C170.109 266.579 169.421 267.083 168.589 267.435C167.773 267.787 166.885 267.963 165.925 267.963C164.677 267.963 163.565 267.691 162.589 267.147C161.613 266.603 160.845 265.851 160.285 264.891C159.741 263.931 159.469 262.835 159.469 261.603C159.469 260.387 159.725 259.299 160.237 258.339C160.765 257.363 161.485 256.603 162.397 256.059C163.309 255.515 164.333 255.243 165.469 255.243C166.605 255.243 167.621 255.515 168.517 256.059C169.429 256.587 170.141 257.331 170.653 258.291C171.181 259.251 171.445 260.339 171.445 261.555L171.421 261.891ZM165.469 256.299C164.589 256.299 163.797 256.499 163.093 256.899C162.389 257.283 161.821 257.835 161.389 258.555C160.973 259.259 160.733 260.059 160.669 260.955H170.269C170.221 260.059 169.981 259.259 169.549 258.555C169.117 257.851 168.549 257.299 167.845 256.899C167.141 256.499 166.349 256.299 165.469 256.299ZM181.277 255.243C182.845 255.243 184.085 255.699 184.997 256.611C185.909 257.523 186.365 258.835 186.365 260.547V267.867H185.165V260.643C185.165 259.235 184.805 258.163 184.085 257.427C183.381 256.691 182.389 256.323 181.109 256.323C179.637 256.323 178.477 256.763 177.629 257.643C176.781 258.523 176.357 259.707 176.357 261.195V267.867H175.157V255.339H176.309V258.051C176.741 257.171 177.381 256.483 178.229 255.987C179.093 255.491 180.109 255.243 181.277 255.243ZM197.522 267.075C197.218 267.363 196.834 267.587 196.37 267.747C195.922 267.891 195.45 267.963 194.954 267.963C193.866 267.963 193.026 267.667 192.434 267.075C191.842 266.467 191.546 265.627 191.546 264.555V256.371H189.242V255.339H191.546V252.603H192.746V255.339H196.73V256.371H192.746V264.435C192.746 265.251 192.938 265.875 193.322 266.307C193.722 266.723 194.306 266.931 195.074 266.931C195.858 266.931 196.506 266.699 197.018 266.235L197.522 267.075ZM211.007 261.891H200.231C200.263 262.867 200.511 263.739 200.975 264.507C201.439 265.259 202.063 265.843 202.847 266.259C203.647 266.675 204.543 266.883 205.535 266.883C206.351 266.883 207.103 266.739 207.791 266.451C208.495 266.147 209.079 265.707 209.543 265.131L210.239 265.923C209.695 266.579 209.007 267.083 208.175 267.435C207.359 267.787 206.471 267.963 205.511 267.963C204.263 267.963 203.151 267.691 202.175 267.147C201.199 266.603 200.431 265.851 199.871 264.891C199.327 263.931 199.055 262.835 199.055 261.603C199.055 260.387 199.311 259.299 199.823 258.339C200.351 257.363 201.071 256.603 201.983 256.059C202.895 255.515 203.919 255.243 205.055 255.243C206.191 255.243 207.207 255.515 208.103 256.059C209.015 256.587 209.727 257.331 210.239 258.291C210.767 259.251 211.031 260.339 211.031 261.555L211.007 261.891ZM205.055 256.299C204.175 256.299 203.383 256.499 202.679 256.899C201.975 257.283 201.407 257.835 200.975 258.555C200.559 259.259 200.319 260.059 200.255 260.955H209.855C209.807 260.059 209.567 259.259 209.135 258.555C208.703 257.851 208.135 257.299 207.431 256.899C206.727 256.499 205.935 256.299 205.055 256.299ZM225.879 250.059V267.867H224.703V264.915C224.207 265.891 223.511 266.643 222.615 267.171C221.719 267.699 220.703 267.963 219.567 267.963C218.399 267.963 217.343 267.691 216.399 267.147C215.455 266.603 214.711 265.851 214.167 264.891C213.639 263.931 213.375 262.835 213.375 261.603C213.375 260.371 213.639 259.275 214.167 258.315C214.711 257.339 215.455 256.587 216.399 256.059C217.343 255.515 218.399 255.243 219.567 255.243C220.687 255.243 221.687 255.507 222.567 256.035C223.463 256.563 224.167 257.299 224.679 258.243V250.059H225.879ZM219.639 266.883C220.599 266.883 221.455 266.659 222.207 266.211C222.975 265.763 223.575 265.139 224.007 264.339C224.455 263.539 224.679 262.627 224.679 261.603C224.679 260.579 224.455 259.667 224.007 258.867C223.575 258.067 222.975 257.443 222.207 256.995C221.455 256.547 220.599 256.323 219.639 256.323C218.679 256.323 217.815 256.547 217.047 256.995C216.295 257.443 215.695 258.067 215.247 258.867C214.815 259.667 214.599 260.579 214.599 261.603C214.599 262.627 214.815 263.539 215.247 264.339C215.695 265.139 216.295 265.763 217.047 266.211C217.815 266.659 218.679 266.883 219.639 266.883Z" fill="white"/>
<path d="M90.9606 201.127C86.6406 201.127 82.2906 200.587 77.9106 199.507C73.5306 198.427 69.7506 196.897 66.5706 194.917L72.9606 181.507C75.5406 183.187 78.3306 184.477 81.3306 185.377C84.3906 186.277 87.4206 186.727 90.4206 186.727C93.4206 186.727 95.8506 186.157 97.7106 185.017C99.5706 183.817 100.501 182.167 100.501 180.067C100.501 178.807 100.141 177.697 99.4206 176.737C98.7006 175.717 97.4706 174.967 95.7306 174.487C93.9906 173.947 91.5006 173.677 88.2606 173.677H71.1606L74.3106 136.867H114.451V150.637H80.6106L89.7006 142.807L87.6306 167.647L78.5406 159.817H92.4906C98.7306 159.817 103.741 160.717 107.521 162.517C111.301 164.257 114.061 166.627 115.801 169.627C117.541 172.567 118.411 175.897 118.411 179.617C118.411 183.337 117.421 186.847 115.441 190.147C113.521 193.387 110.551 196.027 106.531 198.067C102.511 200.107 97.3206 201.127 90.9606 201.127ZM151.389 201.127C145.989 201.127 141.189 199.837 136.989 197.257C132.849 194.677 129.579 190.957 127.179 186.097C124.779 181.237 123.579 175.327 123.579 168.367C123.579 161.407 124.779 155.497 127.179 150.637C129.579 145.777 132.849 142.057 136.989 139.477C141.189 136.897 145.989 135.607 151.389 135.607C156.729 135.607 161.469 136.897 165.609 139.477C169.809 142.057 173.109 145.777 175.509 150.637C177.909 155.497 179.109 161.407 179.109 168.367C179.109 175.327 177.909 181.237 175.509 186.097C173.109 190.957 169.809 194.677 165.609 197.257C161.469 199.837 156.729 201.127 151.389 201.127ZM151.389 186.547C153.309 186.547 154.989 185.947 156.429 184.747C157.929 183.547 159.099 181.627 159.939 178.987C160.779 176.287 161.199 172.747 161.199 168.367C161.199 163.927 160.779 160.387 159.939 157.747C159.099 155.107 157.929 153.187 156.429 151.987C154.989 150.787 153.309 150.187 151.389 150.187C149.469 150.187 147.759 150.787 146.259 151.987C144.819 153.187 143.649 155.107 142.749 157.747C141.909 160.387 141.489 163.927 141.489 168.367C141.489 172.747 141.909 176.287 142.749 178.987C143.649 181.627 144.819 183.547 146.259 184.747C147.759 185.947 149.469 186.547 151.389 186.547ZM202.826 189.787V146.947H216.686V189.787H202.826ZM187.526 174.937V161.797H231.896V174.937H187.526Z" fill="white"/>
<path d="M368.086 199.867V143.257L375.736 150.637H356.386V136.867H385.906V199.867H368.086ZM423.19 201.127C417.79 201.127 412.99 199.837 408.79 197.257C404.65 194.677 401.38 190.957 398.98 186.097C396.58 181.237 395.38 175.327 395.38 168.367C395.38 161.407 396.58 155.497 398.98 150.637C401.38 145.777 404.65 142.057 408.79 139.477C412.99 136.897 417.79 135.607 423.19 135.607C428.53 135.607 433.27 136.897 437.41 139.477C441.61 142.057 444.91 145.777 447.31 150.637C449.71 155.497 450.91 161.407 450.91 168.367C450.91 175.327 449.71 181.237 447.31 186.097C444.91 190.957 441.61 194.677 437.41 197.257C433.27 199.837 428.53 201.127 423.19 201.127ZM423.19 186.547C425.11 186.547 426.79 185.947 428.23 184.747C429.73 183.547 430.9 181.627 431.74 178.987C432.58 176.287 433 172.747 433 168.367C433 163.927 432.58 160.387 431.74 157.747C430.9 155.107 429.73 153.187 428.23 151.987C426.79 150.787 425.11 150.187 423.19 150.187C421.27 150.187 419.56 150.787 418.06 151.987C416.62 153.187 415.45 155.107 414.55 157.747C413.71 160.387 413.29 163.927 413.29 168.367C413.29 172.747 413.71 176.287 414.55 178.987C415.45 181.627 416.62 183.547 418.06 184.747C419.56 185.947 421.27 186.547 423.19 186.547ZM484.802 201.127C479.402 201.127 474.602 199.837 470.402 197.257C466.262 194.677 462.992 190.957 460.592 186.097C458.192 181.237 456.992 175.327 456.992 168.367C456.992 161.407 458.192 155.497 460.592 150.637C462.992 145.777 466.262 142.057 470.402 139.477C474.602 136.897 479.402 135.607 484.802 135.607C490.142 135.607 494.882 136.897 499.022 139.477C503.222 142.057 506.522 145.777 508.922 150.637C511.322 155.497 512.522 161.407 512.522 168.367C512.522 175.327 511.322 181.237 508.922 186.097C506.522 190.957 503.222 194.677 499.022 197.257C494.882 199.837 490.142 201.127 484.802 201.127ZM484.802 186.547C486.722 186.547 488.402 185.947 489.842 184.747C491.342 183.547 492.512 181.627 493.352 178.987C494.192 176.287 494.612 172.747 494.612 168.367C494.612 163.927 494.192 160.387 493.352 157.747C492.512 155.107 491.342 153.187 489.842 151.987C488.402 150.787 486.722 150.187 484.802 150.187C482.882 150.187 481.172 150.787 479.672 151.987C478.232 153.187 477.062 155.107 476.162 157.747C475.322 160.387 474.902 163.927 474.902 168.367C474.902 172.747 475.322 176.287 476.162 178.987C477.062 181.627 478.232 183.547 479.672 184.747C481.172 185.947 482.882 186.547 484.802 186.547ZM546.413 201.127C541.013 201.127 536.213 199.837 532.013 197.257C527.873 194.677 524.603 190.957 522.203 186.097C519.803 181.237 518.603 175.327 518.603 168.367C518.603 161.407 519.803 155.497 522.203 150.637C524.603 145.777 527.873 142.057 532.013 139.477C536.213 136.897 541.013 135.607 546.413 135.607C551.753 135.607 556.493 136.897 560.633 139.477C564.833 142.057 568.133 145.777 570.533 150.637C572.933 155.497 574.133 161.407 574.133 168.367C574.133 175.327 572.933 181.237 570.533 186.097C568.133 190.957 564.833 194.677 560.633 197.257C556.493 199.837 551.753 201.127 546.413 201.127ZM546.413 186.547C548.333 186.547 550.013 185.947 551.453 184.747C552.953 183.547 554.123 181.627 554.963 178.987C555.803 176.287 556.223 172.747 556.223 168.367C556.223 163.927 555.803 160.387 554.963 157.747C554.123 155.107 552.953 153.187 551.453 151.987C550.013 150.787 548.333 150.187 546.413 150.187C544.493 150.187 542.783 150.787 541.283 151.987C539.843 153.187 538.673 155.107 537.773 157.747C536.933 160.387 536.513 163.927 536.513 168.367C536.513 172.747 536.933 176.287 537.773 178.987C538.673 181.627 539.843 183.547 541.283 184.747C542.783 185.947 544.493 186.547 546.413 186.547Z" fill="white"/>
<path d="M464 2.86707L317.5 86.3671V260.367L464 346.367L615 260.367V86.3671L464 2.86707Z" stroke="url(#paint0_linear_404_3)" stroke-width="5"/>
<path d="M776 2.86707L629.5 86.3671V260.367L776 346.367L927 260.367V86.3671L776 2.86707Z" stroke="url(#paint1_linear_404_3)" stroke-width="5"/>
<path d="M306 270.867L159.5 354.367V528.367L306 614.367L457 528.367V354.367L306 270.867Z" stroke="url(#paint2_linear_404_3)" stroke-width="5"/>
<path d="M149 2.86707L2.5 86.3671V260.367L149 346.367L300 260.367V86.3671L149 2.86707Z" stroke="url(#paint3_linear_404_3)" stroke-width="5"/>
<path d="M621 276.867L474.5 360.367V534.367L621 620.367L772 534.367V360.367L621 276.867Z" stroke="url(#paint4_linear_404_3)" stroke-width="5"/>
<defs>
<linearGradient id="paint0_linear_404_3" x1="466.25" y1="2.86707" x2="466.25" y2="346.367" gradientUnits="userSpaceOnUse">
<stop stop-color="#6E2F62"/>
<stop offset="1" stop-color="#003399"/>
</linearGradient>
<linearGradient id="paint1_linear_404_3" x1="778.25" y1="2.86707" x2="778.25" y2="346.367" gradientUnits="userSpaceOnUse">
<stop stop-color="#003399"/>
<stop offset="1" stop-color="#3399CC"/>
</linearGradient>
<linearGradient id="paint2_linear_404_3" x1="308.25" y1="270.867" x2="308.25" y2="614.367" gradientUnits="userSpaceOnUse">
<stop stop-color="#003399"/>
<stop offset="1" stop-color="#3399CC"/>
</linearGradient>
<linearGradient id="paint3_linear_404_3" x1="151.25" y1="2.86707" x2="151.25" y2="346.367" gradientUnits="userSpaceOnUse">
<stop stop-color="#CC0000"/>
<stop offset="1" stop-color="#6E2F62"/>
</linearGradient>
<linearGradient id="paint4_linear_404_3" x1="623.25" y1="276.867" x2="623.25" y2="620.367" gradientUnits="userSpaceOnUse">
<stop stop-color="#CC0000"/>
<stop offset="1" stop-color="#6E2F62"/>
</linearGradient>
</defs>
</svg>
