<svg width="930" height="624" viewBox="0 0 930 624" fill="none" xmlns="http://www.w3.org/2000/svg">
<path d="M520.889 493.612V500.19H529.095V501.202H520.889V508H519.767V492.6H530.063V493.612H520.889ZM542.588 502.522H532.71C532.739 503.417 532.966 504.216 533.392 504.92C533.817 505.609 534.389 506.145 535.108 506.526C535.841 506.907 536.662 507.098 537.572 507.098C538.32 507.098 539.009 506.966 539.64 506.702C540.285 506.423 540.82 506.02 541.246 505.492L541.884 506.218C541.385 506.819 540.754 507.281 539.992 507.604C539.244 507.927 538.43 508.088 537.55 508.088C536.406 508.088 535.386 507.839 534.492 507.34C533.597 506.841 532.893 506.152 532.38 505.272C531.881 504.392 531.632 503.387 531.632 502.258C531.632 501.143 531.866 500.146 532.336 499.266C532.82 498.371 533.48 497.675 534.316 497.176C535.152 496.677 536.09 496.428 537.132 496.428C538.173 496.428 539.104 496.677 539.926 497.176C540.762 497.66 541.414 498.342 541.884 499.222C542.368 500.102 542.61 501.099 542.61 502.214L542.588 502.522ZM537.132 497.396C536.325 497.396 535.599 497.579 534.954 497.946C534.308 498.298 533.788 498.804 533.392 499.464C533.01 500.109 532.79 500.843 532.732 501.664H541.532C541.488 500.843 541.268 500.109 540.872 499.464C540.476 498.819 539.955 498.313 539.31 497.946C538.664 497.579 537.938 497.396 537.132 497.396ZM560.313 496.428C561.735 496.428 562.85 496.846 563.657 497.682C564.478 498.518 564.889 499.721 564.889 501.29V508H563.789V501.378C563.789 500.087 563.473 499.105 562.843 498.43C562.212 497.755 561.332 497.418 560.203 497.418C558.912 497.418 557.885 497.821 557.123 498.628C556.375 499.435 556.001 500.52 556.001 501.884V508H554.901V501.378C554.901 500.087 554.585 499.105 553.955 498.43C553.324 497.755 552.444 497.418 551.315 497.418C550.024 497.418 548.997 497.821 548.235 498.628C547.487 499.435 547.113 500.52 547.113 501.884V508H546.013V496.516H547.069V498.98C547.45 498.173 548.015 497.55 548.763 497.11C549.525 496.655 550.427 496.428 551.469 496.428C552.51 496.428 553.39 496.663 554.109 497.132C554.842 497.601 555.363 498.291 555.671 499.2C556.052 498.349 556.646 497.675 557.453 497.176C558.274 496.677 559.227 496.428 560.313 496.428ZM573.303 496.428C574.725 496.428 575.818 496.795 576.581 497.528C577.343 498.247 577.725 499.31 577.725 500.718V508H576.669V505.954C576.302 506.629 575.767 507.157 575.063 507.538C574.359 507.905 573.515 508.088 572.533 508.088C571.257 508.088 570.245 507.787 569.497 507.186C568.763 506.585 568.397 505.793 568.397 504.81C568.397 503.857 568.734 503.087 569.409 502.5C570.098 501.899 571.191 501.598 572.687 501.598H576.625V500.674C576.625 499.603 576.331 498.789 575.745 498.232C575.173 497.675 574.329 497.396 573.215 497.396C572.452 497.396 571.719 497.528 571.015 497.792C570.325 498.056 569.739 498.408 569.255 498.848L568.705 498.056C569.277 497.543 569.966 497.147 570.773 496.868C571.579 496.575 572.423 496.428 573.303 496.428ZM572.687 507.186C573.64 507.186 574.447 506.966 575.107 506.526C575.781 506.086 576.287 505.448 576.625 504.612V502.456H572.709C571.579 502.456 570.758 502.661 570.245 503.072C569.746 503.483 569.497 504.047 569.497 504.766C569.497 505.514 569.775 506.108 570.333 506.548C570.89 506.973 571.675 507.186 572.687 507.186ZM582.257 491.676H583.357V508H582.257V491.676ZM597.695 502.522H587.817C587.846 503.417 588.074 504.216 588.499 504.92C588.924 505.609 589.496 506.145 590.215 506.526C590.948 506.907 591.77 507.098 592.679 507.098C593.427 507.098 594.116 506.966 594.747 506.702C595.392 506.423 595.928 506.02 596.353 505.492L596.991 506.218C596.492 506.819 595.862 507.281 595.099 507.604C594.351 507.927 593.537 508.088 592.657 508.088C591.513 508.088 590.494 507.839 589.599 507.34C588.704 506.841 588 506.152 587.487 505.272C586.988 504.392 586.739 503.387 586.739 502.258C586.739 501.143 586.974 500.146 587.443 499.266C587.927 498.371 588.587 497.675 589.423 497.176C590.259 496.677 591.198 496.428 592.239 496.428C593.28 496.428 594.212 496.677 595.033 497.176C595.869 497.66 596.522 498.342 596.991 499.222C597.475 500.102 597.717 501.099 597.717 502.214L597.695 502.522ZM592.239 497.396C591.432 497.396 590.706 497.579 590.061 497.946C589.416 498.298 588.895 498.804 588.499 499.464C588.118 500.109 587.898 500.843 587.839 501.664H596.639C596.595 500.843 596.375 500.109 595.979 499.464C595.583 498.819 595.062 498.313 594.417 497.946C593.772 497.579 593.046 497.396 592.239 497.396ZM616.274 500.058C617.374 500.263 618.21 500.696 618.782 501.356C619.369 502.016 619.662 502.874 619.662 503.93C619.662 505.235 619.186 506.24 618.232 506.944C617.279 507.648 615.864 508 613.986 508H607.122V492.6H613.546C615.218 492.6 616.516 492.945 617.44 493.634C618.379 494.309 618.848 495.277 618.848 496.538C618.848 497.418 618.614 498.159 618.144 498.76C617.69 499.361 617.066 499.794 616.274 500.058ZM608.244 493.568V499.706H613.502C614.852 499.706 615.886 499.449 616.604 498.936C617.338 498.408 617.704 497.638 617.704 496.626C617.704 495.629 617.338 494.873 616.604 494.36C615.886 493.832 614.852 493.568 613.502 493.568H608.244ZM613.986 507.032C615.482 507.032 616.612 506.775 617.374 506.262C618.152 505.734 618.54 504.927 618.54 503.842C618.54 502.757 618.152 501.957 617.374 501.444C616.612 500.931 615.482 500.674 613.986 500.674H608.244V507.032H613.986ZM627.801 508.088C626.716 508.088 625.733 507.839 624.853 507.34C623.988 506.841 623.306 506.152 622.807 505.272C622.309 504.377 622.059 503.373 622.059 502.258C622.059 501.143 622.309 500.146 622.807 499.266C623.306 498.371 623.988 497.675 624.853 497.176C625.733 496.677 626.716 496.428 627.801 496.428C628.887 496.428 629.862 496.677 630.727 497.176C631.607 497.675 632.297 498.371 632.795 499.266C633.294 500.146 633.543 501.143 633.543 502.258C633.543 503.373 633.294 504.377 632.795 505.272C632.297 506.152 631.607 506.841 630.727 507.34C629.862 507.839 628.887 508.088 627.801 508.088ZM627.801 507.098C628.681 507.098 629.466 506.893 630.155 506.482C630.859 506.071 631.409 505.499 631.805 504.766C632.216 504.033 632.421 503.197 632.421 502.258C632.421 501.319 632.216 500.483 631.805 499.75C631.409 499.017 630.859 498.445 630.155 498.034C629.466 497.623 628.681 497.418 627.801 497.418C626.921 497.418 626.129 497.623 625.425 498.034C624.736 498.445 624.186 499.017 623.775 499.75C623.379 500.483 623.181 501.319 623.181 502.258C623.181 503.197 623.379 504.033 623.775 504.766C624.186 505.499 624.736 506.071 625.425 506.482C626.129 506.893 626.921 507.098 627.801 507.098ZM641.444 508.088C640.359 508.088 639.376 507.839 638.496 507.34C637.631 506.841 636.949 506.152 636.45 505.272C635.951 504.377 635.702 503.373 635.702 502.258C635.702 501.143 635.951 500.146 636.45 499.266C636.949 498.371 637.631 497.675 638.496 497.176C639.376 496.677 640.359 496.428 641.444 496.428C642.529 496.428 643.505 496.677 644.37 497.176C645.25 497.675 645.939 498.371 646.438 499.266C646.937 500.146 647.186 501.143 647.186 502.258C647.186 503.373 646.937 504.377 646.438 505.272C645.939 506.152 645.25 506.841 644.37 507.34C643.505 507.839 642.529 508.088 641.444 508.088ZM641.444 507.098C642.324 507.098 643.109 506.893 643.798 506.482C644.502 506.071 645.052 505.499 645.448 504.766C645.859 504.033 646.064 503.197 646.064 502.258C646.064 501.319 645.859 500.483 645.448 499.75C645.052 499.017 644.502 498.445 643.798 498.034C643.109 497.623 642.324 497.418 641.444 497.418C640.564 497.418 639.772 497.623 639.068 498.034C638.379 498.445 637.829 499.017 637.418 499.75C637.022 500.483 636.824 501.319 636.824 502.258C636.824 503.197 637.022 504.033 637.418 504.766C637.829 505.499 638.379 506.071 639.068 506.482C639.772 506.893 640.564 507.098 641.444 507.098ZM656.297 507.274C656.018 507.538 655.666 507.743 655.241 507.89C654.83 508.022 654.397 508.088 653.943 508.088C652.945 508.088 652.175 507.817 651.633 507.274C651.09 506.717 650.819 505.947 650.819 504.964V497.462H648.707V496.516H650.819V494.008H651.919V496.516H655.571V497.462H651.919V504.854C651.919 505.602 652.095 506.174 652.447 506.57C652.813 506.951 653.349 507.142 654.053 507.142C654.771 507.142 655.365 506.929 655.835 506.504L656.297 507.274ZM663.51 508.088C662.395 508.088 661.398 507.839 660.518 507.34C659.638 506.841 658.949 506.152 658.45 505.272C657.951 504.377 657.702 503.373 657.702 502.258C657.702 501.129 657.951 500.124 658.45 499.244C658.949 498.349 659.638 497.66 660.518 497.176C661.398 496.677 662.395 496.428 663.51 496.428C664.434 496.428 665.27 496.611 666.018 496.978C666.781 497.33 667.397 497.851 667.866 498.54L667.052 499.134C666.641 498.562 666.128 498.137 665.512 497.858C664.911 497.565 664.243 497.418 663.51 497.418C662.615 497.418 661.809 497.623 661.09 498.034C660.386 498.43 659.829 498.995 659.418 499.728C659.022 500.461 658.824 501.305 658.824 502.258C658.824 503.211 659.022 504.055 659.418 504.788C659.829 505.521 660.386 506.093 661.09 506.504C661.809 506.9 662.615 507.098 663.51 507.098C664.243 507.098 664.911 506.959 665.512 506.68C666.128 506.387 666.641 505.954 667.052 505.382L667.866 505.976C667.397 506.665 666.781 507.193 666.018 507.56C665.27 507.912 664.434 508.088 663.51 508.088ZM675.031 496.428C676.454 496.428 677.546 496.795 678.309 497.528C679.072 498.247 679.453 499.31 679.453 500.718V508H678.397V505.954C678.03 506.629 677.495 507.157 676.791 507.538C676.087 507.905 675.244 508.088 674.261 508.088C672.985 508.088 671.973 507.787 671.225 507.186C670.492 506.585 670.125 505.793 670.125 504.81C670.125 503.857 670.462 503.087 671.137 502.5C671.826 501.899 672.919 501.598 674.415 501.598H678.353V500.674C678.353 499.603 678.06 498.789 677.473 498.232C676.901 497.675 676.058 497.396 674.943 497.396C674.18 497.396 673.447 497.528 672.743 497.792C672.054 498.056 671.467 498.408 670.983 498.848L670.433 498.056C671.005 497.543 671.694 497.147 672.501 496.868C673.308 496.575 674.151 496.428 675.031 496.428ZM674.415 507.186C675.368 507.186 676.175 506.966 676.835 506.526C677.51 506.086 678.016 505.448 678.353 504.612V502.456H674.437C673.308 502.456 672.486 502.661 671.973 503.072C671.474 503.483 671.225 504.047 671.225 504.766C671.225 505.514 671.504 506.108 672.061 506.548C672.618 506.973 673.403 507.186 674.415 507.186ZM698.285 496.428C699.708 496.428 700.823 496.846 701.629 497.682C702.451 498.518 702.861 499.721 702.861 501.29V508H701.761V501.378C701.761 500.087 701.446 499.105 700.815 498.43C700.185 497.755 699.305 497.418 698.175 497.418C696.885 497.418 695.858 497.821 695.095 498.628C694.347 499.435 693.973 500.52 693.973 501.884V508H692.873V501.378C692.873 500.087 692.558 499.105 691.927 498.43C691.297 497.755 690.417 497.418 689.287 497.418C687.997 497.418 686.97 497.821 686.207 498.628C685.459 499.435 685.085 500.52 685.085 501.884V508H683.985V496.516H685.041V498.98C685.423 498.173 685.987 497.55 686.735 497.11C687.498 496.655 688.4 496.428 689.441 496.428C690.483 496.428 691.363 496.663 692.081 497.132C692.815 497.601 693.335 498.291 693.643 499.2C694.025 498.349 694.619 497.675 695.425 497.176C696.247 496.677 697.2 496.428 698.285 496.428ZM713.167 496.428C714.238 496.428 715.206 496.677 716.071 497.176C716.937 497.675 717.611 498.364 718.095 499.244C718.594 500.124 718.843 501.129 718.843 502.258C718.843 503.387 718.594 504.399 718.095 505.294C717.611 506.174 716.937 506.863 716.071 507.362C715.206 507.846 714.238 508.088 713.167 508.088C712.155 508.088 711.239 507.853 710.417 507.384C709.596 506.9 708.958 506.233 708.503 505.382V512.268H707.403V496.516H708.459V499.222C708.914 498.342 709.552 497.66 710.373 497.176C711.209 496.677 712.141 496.428 713.167 496.428ZM713.101 507.098C713.981 507.098 714.773 506.893 715.477 506.482C716.181 506.071 716.731 505.499 717.127 504.766C717.538 504.033 717.743 503.197 717.743 502.258C717.743 501.319 717.538 500.483 717.127 499.75C716.731 499.017 716.181 498.445 715.477 498.034C714.773 497.623 713.981 497.418 713.101 497.418C712.221 497.418 711.429 497.623 710.725 498.034C710.036 498.445 709.486 499.017 709.075 499.75C708.679 500.483 708.481 501.319 708.481 502.258C708.481 503.197 708.679 504.033 709.075 504.766C709.486 505.499 710.036 506.071 710.725 506.482C711.429 506.893 712.221 507.098 713.101 507.098ZM561.028 519.6C562.964 519.6 564.482 520.062 565.582 520.986C566.682 521.895 567.232 523.164 567.232 524.792C567.232 526.405 566.682 527.674 565.582 528.598C564.482 529.507 562.964 529.962 561.028 529.962H556.628V535H555.506V519.6H561.028ZM561.028 528.95C562.671 528.95 563.925 528.591 564.79 527.872C565.656 527.153 566.088 526.127 566.088 524.792C566.088 523.457 565.656 522.431 564.79 521.712C563.925 520.979 562.671 520.612 561.028 520.612H556.628V528.95H561.028ZM574.431 523.428C575.853 523.428 576.946 523.795 577.709 524.528C578.471 525.247 578.853 526.31 578.853 527.718V535H577.797V532.954C577.43 533.629 576.895 534.157 576.191 534.538C575.487 534.905 574.643 535.088 573.661 535.088C572.385 535.088 571.373 534.787 570.625 534.186C569.891 533.585 569.525 532.793 569.525 531.81C569.525 530.857 569.862 530.087 570.537 529.5C571.226 528.899 572.319 528.598 573.815 528.598H577.753V527.674C577.753 526.603 577.459 525.789 576.873 525.232C576.301 524.675 575.457 524.396 574.343 524.396C573.58 524.396 572.847 524.528 572.143 524.792C571.453 525.056 570.867 525.408 570.383 525.848L569.833 525.056C570.405 524.543 571.094 524.147 571.901 523.868C572.707 523.575 573.551 523.428 574.431 523.428ZM573.815 534.186C574.768 534.186 575.575 533.966 576.235 533.526C576.909 533.086 577.415 532.448 577.753 531.612V529.456H573.837C572.707 529.456 571.886 529.661 571.373 530.072C570.874 530.483 570.625 531.047 570.625 531.766C570.625 532.514 570.903 533.108 571.461 533.548C572.018 533.973 572.803 534.186 573.815 534.186ZM584.441 526.024C584.793 525.188 585.343 524.55 586.091 524.11C586.839 523.655 587.748 523.428 588.819 523.428V524.506L588.555 524.484C587.279 524.484 586.281 524.887 585.563 525.694C584.844 526.486 584.485 527.593 584.485 529.016V535H583.385V523.516H584.441V526.024ZM598.063 534.274C597.785 534.538 597.433 534.743 597.007 534.89C596.597 535.022 596.164 535.088 595.709 535.088C594.712 535.088 593.942 534.817 593.399 534.274C592.857 533.717 592.585 532.947 592.585 531.964V524.462H590.473V523.516H592.585V521.008H593.685V523.516H597.337V524.462H593.685V531.854C593.685 532.602 593.861 533.174 594.213 533.57C594.58 533.951 595.115 534.142 595.819 534.142C596.538 534.142 597.132 533.929 597.601 533.504L598.063 534.274ZM601.131 523.516H602.231V535H601.131V523.516ZM601.681 520.722C601.431 520.722 601.219 520.641 601.043 520.48C600.867 520.304 600.779 520.091 600.779 519.842C600.779 519.593 600.867 519.38 601.043 519.204C601.219 519.028 601.431 518.94 601.681 518.94C601.93 518.94 602.143 519.028 602.319 519.204C602.495 519.365 602.583 519.571 602.583 519.82C602.583 520.069 602.495 520.282 602.319 520.458C602.143 520.634 601.93 520.722 601.681 520.722ZM611.421 535.088C610.306 535.088 609.309 534.839 608.429 534.34C607.549 533.841 606.86 533.152 606.361 532.272C605.862 531.377 605.613 530.373 605.613 529.258C605.613 528.129 605.862 527.124 606.361 526.244C606.86 525.349 607.549 524.66 608.429 524.176C609.309 523.677 610.306 523.428 611.421 523.428C612.345 523.428 613.181 523.611 613.929 523.978C614.692 524.33 615.308 524.851 615.777 525.54L614.963 526.134C614.552 525.562 614.039 525.137 613.423 524.858C612.822 524.565 612.154 524.418 611.421 524.418C610.526 524.418 609.72 524.623 609.001 525.034C608.297 525.43 607.74 525.995 607.329 526.728C606.933 527.461 606.735 528.305 606.735 529.258C606.735 530.211 606.933 531.055 607.329 531.788C607.74 532.521 608.297 533.093 609.001 533.504C609.72 533.9 610.526 534.098 611.421 534.098C612.154 534.098 612.822 533.959 613.423 533.68C614.039 533.387 614.552 532.954 614.963 532.382L615.777 532.976C615.308 533.665 614.692 534.193 613.929 534.56C613.181 534.912 612.345 535.088 611.421 535.088ZM619.07 523.516H620.17V535H619.07V523.516ZM619.62 520.722C619.371 520.722 619.158 520.641 618.982 520.48C618.806 520.304 618.718 520.091 618.718 519.842C618.718 519.593 618.806 519.38 618.982 519.204C619.158 519.028 619.371 518.94 619.62 518.94C619.87 518.94 620.082 519.028 620.258 519.204C620.434 519.365 620.522 519.571 620.522 519.82C620.522 520.069 620.434 520.282 620.258 520.458C620.082 520.634 619.87 520.722 619.62 520.722ZM630.571 523.428C631.641 523.428 632.609 523.677 633.475 524.176C634.34 524.675 635.015 525.364 635.499 526.244C635.997 527.124 636.247 528.129 636.247 529.258C636.247 530.387 635.997 531.399 635.499 532.294C635.015 533.174 634.34 533.863 633.475 534.362C632.609 534.846 631.641 535.088 630.571 535.088C629.559 535.088 628.642 534.853 627.821 534.384C626.999 533.9 626.361 533.233 625.907 532.382V539.268H624.807V523.516H625.863V526.222C626.317 525.342 626.955 524.66 627.777 524.176C628.613 523.677 629.544 523.428 630.571 523.428ZM630.505 534.098C631.385 534.098 632.177 533.893 632.881 533.482C633.585 533.071 634.135 532.499 634.531 531.766C634.941 531.033 635.147 530.197 635.147 529.258C635.147 528.319 634.941 527.483 634.531 526.75C634.135 526.017 633.585 525.445 632.881 525.034C632.177 524.623 631.385 524.418 630.505 524.418C629.625 524.418 628.833 524.623 628.129 525.034C627.439 525.445 626.889 526.017 626.479 526.75C626.083 527.483 625.885 528.319 625.885 529.258C625.885 530.197 626.083 531.033 626.479 531.766C626.889 532.499 627.439 533.071 628.129 533.482C628.833 533.893 629.625 534.098 630.505 534.098ZM643.481 523.428C644.904 523.428 645.997 523.795 646.759 524.528C647.522 525.247 647.903 526.31 647.903 527.718V535H646.847V532.954C646.481 533.629 645.945 534.157 645.241 534.538C644.537 534.905 643.694 535.088 642.711 535.088C641.435 535.088 640.423 534.787 639.675 534.186C638.942 533.585 638.575 532.793 638.575 531.81C638.575 530.857 638.913 530.087 639.587 529.5C640.277 528.899 641.369 528.598 642.865 528.598H646.803V527.674C646.803 526.603 646.51 525.789 645.923 525.232C645.351 524.675 644.508 524.396 643.393 524.396C642.631 524.396 641.897 524.528 641.193 524.792C640.504 525.056 639.917 525.408 639.433 525.848L638.883 525.056C639.455 524.543 640.145 524.147 640.951 523.868C641.758 523.575 642.601 523.428 643.481 523.428ZM642.865 534.186C643.819 534.186 644.625 533.966 645.285 533.526C645.96 533.086 646.466 532.448 646.803 531.612V529.456H642.887C641.758 529.456 640.937 529.661 640.423 530.072C639.925 530.483 639.675 531.047 639.675 531.766C639.675 532.514 639.954 533.108 640.511 533.548C641.069 533.973 641.853 534.186 642.865 534.186ZM658.046 523.428C659.483 523.428 660.62 523.846 661.456 524.682C662.292 525.518 662.71 526.721 662.71 528.29V535H661.61V528.378C661.61 527.087 661.28 526.105 660.62 525.43C659.974 524.755 659.065 524.418 657.892 524.418C656.542 524.418 655.479 524.821 654.702 525.628C653.924 526.435 653.536 527.52 653.536 528.884V535H652.436V523.516H653.492V526.002C653.888 525.195 654.474 524.565 655.252 524.11C656.044 523.655 656.975 523.428 658.046 523.428ZM672.936 534.274C672.658 534.538 672.306 534.743 671.88 534.89C671.47 535.022 671.037 535.088 670.582 535.088C669.585 535.088 668.815 534.817 668.272 534.274C667.73 533.717 667.458 532.947 667.458 531.964V524.462H665.346V523.516H667.458V521.008H668.558V523.516H672.21V524.462H668.558V531.854C668.558 532.602 668.734 533.174 669.086 533.57C669.453 533.951 669.988 534.142 670.692 534.142C671.411 534.142 672.005 533.929 672.474 533.504L672.936 534.274ZM678.908 535.088C677.984 535.088 677.104 534.949 676.268 534.67C675.432 534.391 674.779 534.039 674.31 533.614L674.816 532.734C675.285 533.13 675.887 533.46 676.62 533.724C677.368 533.988 678.145 534.12 678.952 534.12C680.111 534.12 680.961 533.929 681.504 533.548C682.061 533.167 682.34 532.639 682.34 531.964C682.34 531.48 682.186 531.099 681.878 530.82C681.585 530.541 681.218 530.336 680.778 530.204C680.338 530.072 679.729 529.933 678.952 529.786C678.043 529.625 677.309 529.449 676.752 529.258C676.195 529.067 675.718 528.759 675.322 528.334C674.926 527.909 674.728 527.322 674.728 526.574C674.728 525.665 675.102 524.917 675.85 524.33C676.613 523.729 677.691 523.428 679.084 523.428C679.817 523.428 680.543 523.531 681.262 523.736C681.981 523.941 682.567 524.213 683.022 524.55L682.516 525.43C682.047 525.093 681.511 524.836 680.91 524.66C680.309 524.484 679.693 524.396 679.062 524.396C677.991 524.396 677.185 524.594 676.642 524.99C676.099 525.386 675.828 525.907 675.828 526.552C675.828 527.065 675.982 527.469 676.29 527.762C676.598 528.041 676.972 528.253 677.412 528.4C677.867 528.532 678.497 528.679 679.304 528.84C680.199 529.001 680.917 529.177 681.46 529.368C682.017 529.544 682.487 529.837 682.868 530.248C683.249 530.659 683.44 531.223 683.44 531.942C683.44 532.895 683.044 533.658 682.252 534.23C681.46 534.802 680.345 535.088 678.908 535.088Z" fill="white"/>
<path d="M549.627 419.5C559.427 419.5 566.661 421.5 571.327 425.5C576.061 429.5 578.427 434.833 578.427 441.5C578.427 445.833 577.294 449.833 575.027 453.5C572.827 457.1 569.427 460 564.827 462.2C560.294 464.333 554.661 465.4 547.927 465.4C542.994 465.4 538.094 464.8 533.227 463.6C528.427 462.4 524.294 460.7 520.827 458.5L527.927 443.6C530.727 445.467 533.794 446.9 537.127 447.9C540.527 448.9 543.927 449.4 547.327 449.4C550.727 449.4 553.427 448.767 555.427 447.5C557.494 446.167 558.527 444.333 558.527 442C558.527 439.667 557.527 437.9 555.527 436.7C553.527 435.5 549.994 434.9 544.927 434.9H525.927L529.427 394H574.027V409.3H545.827L544.927 419.5H549.627ZM615.07 465.4C609.07 465.4 603.736 463.967 599.07 461.1C594.403 458.233 590.736 454.067 588.07 448.6C585.47 443.067 584.17 436.533 584.17 429C584.17 421.467 585.47 414.967 588.07 409.5C590.736 403.967 594.403 399.767 599.07 396.9C603.736 394.033 609.07 392.6 615.07 392.6C621.003 392.6 626.303 394.033 630.97 396.9C635.636 399.767 639.27 403.967 641.87 409.5C644.536 414.967 645.87 421.467 645.87 429C645.87 436.533 644.536 443.067 641.87 448.6C639.27 454.067 635.636 458.233 630.97 461.1C626.303 463.967 621.003 465.4 615.07 465.4ZM615.07 449.2C618.403 449.2 621.036 447.6 622.97 444.4C624.97 441.133 625.97 436 625.97 429C625.97 422 624.97 416.9 622.97 413.7C621.036 410.433 618.403 408.8 615.07 408.8C611.67 408.8 608.97 410.433 606.97 413.7C605.036 416.9 604.07 422 604.07 429C604.07 436 605.036 441.133 606.97 444.4C608.97 447.6 611.67 449.2 615.07 449.2ZM669.327 431.9C664.06 431.9 659.76 430.167 656.427 426.7C653.093 423.233 651.427 418.5 651.427 412.5C651.427 408.567 652.193 405.133 653.727 402.2C655.26 399.267 657.36 397.033 660.027 395.5C662.76 393.9 665.86 393.1 669.327 393.1C674.66 393.1 678.993 394.867 682.327 398.4C685.66 401.867 687.327 406.567 687.327 412.5C687.327 418.5 685.66 423.233 682.327 426.7C678.993 430.167 674.66 431.9 669.327 431.9ZM710.727 394H725.127L677.327 464H662.927L710.727 394ZM669.327 422.4C671.127 422.4 672.56 421.6 673.627 420C674.693 418.4 675.227 415.9 675.227 412.5C675.227 409.1 674.693 406.6 673.627 405C672.56 403.4 671.127 402.6 669.327 402.6C667.593 402.6 666.16 403.433 665.027 405.1C663.96 406.7 663.427 409.167 663.427 412.5C663.427 415.833 663.96 418.333 665.027 420C666.16 421.6 667.593 422.4 669.327 422.4ZM718.727 464.9C713.393 464.9 709.06 463.167 705.727 459.7C702.46 456.233 700.827 451.5 700.827 445.5C700.827 439.567 702.493 434.867 705.827 431.4C709.16 427.867 713.46 426.1 718.727 426.1C724.06 426.1 728.393 427.867 731.727 431.4C735.06 434.867 736.727 439.567 736.727 445.5C736.727 451.5 735.06 456.233 731.727 459.7C728.393 463.167 724.06 464.9 718.727 464.9ZM718.727 455.4C720.527 455.4 721.96 454.6 723.027 453C724.093 451.4 724.627 448.9 724.627 445.5C724.627 442.1 724.093 439.6 723.027 438C721.96 436.4 720.527 435.6 718.727 435.6C716.927 435.6 715.493 436.4 714.427 438C713.36 439.6 712.827 442.1 712.827 445.5C712.827 448.9 713.36 451.4 714.427 453C715.493 454.6 716.927 455.4 718.727 455.4Z" fill="white"/>
<path d="M222.873 494.336C224.073 494.56 224.985 495.032 225.609 495.752C226.249 496.472 226.569 497.408 226.569 498.56C226.569 499.984 226.049 501.08 225.009 501.848C223.969 502.616 222.425 503 220.377 503H212.889V486.2H219.897C221.721 486.2 223.137 486.576 224.145 487.328C225.169 488.064 225.681 489.12 225.681 490.496C225.681 491.456 225.425 492.264 224.913 492.92C224.417 493.576 223.737 494.048 222.873 494.336ZM214.113 487.256V493.952H219.849C221.321 493.952 222.449 493.672 223.233 493.112C224.033 492.536 224.433 491.696 224.433 490.592C224.433 489.504 224.033 488.68 223.233 488.12C222.449 487.544 221.321 487.256 219.849 487.256H214.113ZM220.377 501.944C222.009 501.944 223.241 501.664 224.073 501.104C224.921 500.528 225.345 499.648 225.345 498.464C225.345 497.28 224.921 496.408 224.073 495.848C223.241 495.288 222.009 495.008 220.377 495.008H214.113V501.944H220.377ZM235.448 503.096C234.264 503.096 233.192 502.824 232.232 502.28C231.288 501.736 230.544 500.984 230 500.024C229.456 499.048 229.184 497.952 229.184 496.736C229.184 495.52 229.456 494.432 230 493.472C230.544 492.496 231.288 491.736 232.232 491.192C233.192 490.648 234.264 490.376 235.448 490.376C236.632 490.376 237.696 490.648 238.64 491.192C239.6 491.736 240.352 492.496 240.896 493.472C241.44 494.432 241.712 495.52 241.712 496.736C241.712 497.952 241.44 499.048 240.896 500.024C240.352 500.984 239.6 501.736 238.64 502.28C237.696 502.824 236.632 503.096 235.448 503.096ZM235.448 502.016C236.408 502.016 237.264 501.792 238.016 501.344C238.784 500.896 239.384 500.272 239.816 499.472C240.264 498.672 240.488 497.76 240.488 496.736C240.488 495.712 240.264 494.8 239.816 494C239.384 493.2 238.784 492.576 238.016 492.128C237.264 491.68 236.408 491.456 235.448 491.456C234.488 491.456 233.624 491.68 232.856 492.128C232.104 492.576 231.504 493.2 231.056 494C230.624 494.8 230.408 495.712 230.408 496.736C230.408 497.76 230.624 498.672 231.056 499.472C231.504 500.272 232.104 500.896 232.856 501.344C233.624 501.792 234.488 502.016 235.448 502.016ZM250.331 503.096C249.147 503.096 248.075 502.824 247.115 502.28C246.171 501.736 245.427 500.984 244.883 500.024C244.339 499.048 244.067 497.952 244.067 496.736C244.067 495.52 244.339 494.432 244.883 493.472C245.427 492.496 246.171 491.736 247.115 491.192C248.075 490.648 249.147 490.376 250.331 490.376C251.515 490.376 252.579 490.648 253.523 491.192C254.483 491.736 255.235 492.496 255.779 493.472C256.323 494.432 256.595 495.52 256.595 496.736C256.595 497.952 256.323 499.048 255.779 500.024C255.235 500.984 254.483 501.736 253.523 502.28C252.579 502.824 251.515 503.096 250.331 503.096ZM250.331 502.016C251.291 502.016 252.147 501.792 252.899 501.344C253.667 500.896 254.267 500.272 254.699 499.472C255.147 498.672 255.371 497.76 255.371 496.736C255.371 495.712 255.147 494.8 254.699 494C254.267 493.2 253.667 492.576 252.899 492.128C252.147 491.68 251.291 491.456 250.331 491.456C249.371 491.456 248.507 491.68 247.739 492.128C246.987 492.576 246.387 493.2 245.939 494C245.507 494.8 245.291 495.712 245.291 496.736C245.291 497.76 245.507 498.672 245.939 499.472C246.387 500.272 246.987 500.896 247.739 501.344C248.507 501.792 249.371 502.016 250.331 502.016ZM266.533 502.208C266.229 502.496 265.845 502.72 265.381 502.88C264.933 503.024 264.461 503.096 263.965 503.096C262.877 503.096 262.037 502.8 261.445 502.208C260.853 501.6 260.557 500.76 260.557 499.688V491.504H258.253V490.472H260.557V487.736H261.757V490.472H265.741V491.504H261.757V499.568C261.757 500.384 261.949 501.008 262.333 501.44C262.733 501.856 263.317 502.064 264.085 502.064C264.869 502.064 265.517 501.832 266.029 501.368L266.533 502.208ZM274.403 503.096C273.187 503.096 272.099 502.824 271.139 502.28C270.179 501.736 269.427 500.984 268.883 500.024C268.339 499.048 268.067 497.952 268.067 496.736C268.067 495.504 268.339 494.408 268.883 493.448C269.427 492.472 270.179 491.72 271.139 491.192C272.099 490.648 273.187 490.376 274.403 490.376C275.411 490.376 276.323 490.576 277.139 490.976C277.971 491.36 278.643 491.928 279.155 492.68L278.267 493.328C277.819 492.704 277.259 492.24 276.587 491.936C275.931 491.616 275.203 491.456 274.403 491.456C273.427 491.456 272.547 491.68 271.763 492.128C270.995 492.56 270.387 493.176 269.939 493.976C269.507 494.776 269.291 495.696 269.291 496.736C269.291 497.776 269.507 498.696 269.939 499.496C270.387 500.296 270.995 500.92 271.763 501.368C272.547 501.8 273.427 502.016 274.403 502.016C275.203 502.016 275.931 501.864 276.587 501.56C277.259 501.24 277.819 500.768 278.267 500.144L279.155 500.792C278.643 501.544 277.971 502.12 277.139 502.52C276.323 502.904 275.411 503.096 274.403 503.096ZM286.971 490.376C288.523 490.376 289.715 490.776 290.547 491.576C291.379 492.36 291.795 493.52 291.795 495.056V503H290.643V500.768C290.243 501.504 289.659 502.08 288.891 502.496C288.123 502.896 287.203 503.096 286.131 503.096C284.739 503.096 283.635 502.768 282.819 502.112C282.019 501.456 281.619 500.592 281.619 499.52C281.619 498.48 281.987 497.64 282.723 497C283.475 496.344 284.667 496.016 286.299 496.016H290.595V495.008C290.595 493.84 290.275 492.952 289.635 492.344C289.011 491.736 288.091 491.432 286.875 491.432C286.043 491.432 285.243 491.576 284.475 491.864C283.723 492.152 283.083 492.536 282.555 493.016L281.955 492.152C282.579 491.592 283.331 491.16 284.211 490.856C285.091 490.536 286.011 490.376 286.971 490.376ZM286.299 502.112C287.339 502.112 288.219 501.872 288.939 501.392C289.675 500.912 290.227 500.216 290.595 499.304V496.952H286.323C285.091 496.952 284.195 497.176 283.635 497.624C283.091 498.072 282.819 498.688 282.819 499.472C282.819 500.288 283.123 500.936 283.731 501.416C284.339 501.88 285.195 502.112 286.299 502.112ZM312.339 490.376C313.891 490.376 315.107 490.832 315.987 491.744C316.883 492.656 317.331 493.968 317.331 495.68V503H316.131V495.776C316.131 494.368 315.787 493.296 315.099 492.56C314.411 491.824 313.451 491.456 312.219 491.456C310.811 491.456 309.691 491.896 308.859 492.776C308.043 493.656 307.635 494.84 307.635 496.328V503H306.435V495.776C306.435 494.368 306.091 493.296 305.403 492.56C304.715 491.824 303.755 491.456 302.523 491.456C301.115 491.456 299.995 491.896 299.163 492.776C298.347 493.656 297.939 494.84 297.939 496.328V503H296.739V490.472H297.891V493.16C298.307 492.28 298.923 491.6 299.739 491.12C300.571 490.624 301.555 490.376 302.691 490.376C303.827 490.376 304.787 490.632 305.571 491.144C306.371 491.656 306.939 492.408 307.275 493.4C307.691 492.472 308.339 491.736 309.219 491.192C310.115 490.648 311.155 490.376 312.339 490.376ZM328.574 490.376C329.742 490.376 330.798 490.648 331.742 491.192C332.686 491.736 333.422 492.488 333.95 493.448C334.494 494.408 334.766 495.504 334.766 496.736C334.766 497.968 334.494 499.072 333.95 500.048C333.422 501.008 332.686 501.76 331.742 502.304C330.798 502.832 329.742 503.096 328.574 503.096C327.47 503.096 326.47 502.84 325.574 502.328C324.678 501.8 323.982 501.072 323.486 500.144V507.656H322.286V490.472H323.438V493.424C323.934 492.464 324.63 491.72 325.526 491.192C326.438 490.648 327.454 490.376 328.574 490.376ZM328.502 502.016C329.462 502.016 330.326 501.792 331.094 501.344C331.862 500.896 332.462 500.272 332.894 499.472C333.342 498.672 333.566 497.76 333.566 496.736C333.566 495.712 333.342 494.8 332.894 494C332.462 493.2 331.862 492.576 331.094 492.128C330.326 491.68 329.462 491.456 328.502 491.456C327.542 491.456 326.678 491.68 325.91 492.128C325.158 492.576 324.558 493.2 324.11 494C323.678 494.8 323.462 495.712 323.462 496.736C323.462 497.76 323.678 498.672 324.11 499.472C324.558 500.272 325.158 500.896 325.91 501.344C326.678 501.792 327.542 502.016 328.502 502.016ZM341.65 503.096C340.642 503.096 339.682 502.944 338.77 502.64C337.858 502.336 337.146 501.952 336.634 501.488L337.186 500.528C337.698 500.96 338.354 501.32 339.154 501.608C339.97 501.896 340.818 502.04 341.698 502.04C342.962 502.04 343.89 501.832 344.482 501.416C345.09 501 345.394 500.424 345.394 499.688C345.394 499.16 345.226 498.744 344.89 498.44C344.57 498.136 344.17 497.912 343.69 497.768C343.21 497.624 342.546 497.472 341.698 497.312C340.706 497.136 339.906 496.944 339.298 496.736C338.69 496.528 338.17 496.192 337.738 495.728C337.306 495.264 337.09 494.624 337.09 493.808C337.09 492.816 337.498 492 338.314 491.36C339.146 490.704 340.322 490.376 341.842 490.376C342.642 490.376 343.434 490.488 344.218 490.712C345.002 490.936 345.642 491.232 346.138 491.6L345.586 492.56C345.074 492.192 344.49 491.912 343.834 491.72C343.178 491.528 342.506 491.432 341.818 491.432C340.65 491.432 339.77 491.648 339.178 492.08C338.586 492.512 338.29 493.08 338.29 493.784C338.29 494.344 338.458 494.784 338.794 495.104C339.13 495.408 339.538 495.64 340.018 495.8C340.514 495.944 341.202 496.104 342.082 496.28C343.058 496.456 343.842 496.648 344.434 496.856C345.042 497.048 345.554 497.368 345.97 497.816C346.386 498.264 346.594 498.88 346.594 499.664C346.594 500.704 346.162 501.536 345.298 502.16C344.434 502.784 343.218 503.096 341.65 503.096ZM368.155 503L364.147 497.384C363.555 497.464 363.011 497.504 362.515 497.504H357.715V503H356.491V486.2H362.515C364.627 486.2 366.283 486.704 367.483 487.712C368.683 488.704 369.283 490.088 369.283 491.864C369.283 493.192 368.939 494.312 368.251 495.224C367.579 496.12 366.611 496.752 365.347 497.12L369.547 503H368.155ZM362.515 496.424C364.307 496.424 365.675 496.032 366.619 495.248C367.563 494.448 368.035 493.32 368.035 491.864C368.035 490.408 367.563 489.288 366.619 488.504C365.675 487.704 364.307 487.304 362.515 487.304H357.715V496.424H362.515ZM384.348 490.472V503H383.196V500.312C382.78 501.192 382.164 501.88 381.348 502.376C380.532 502.856 379.572 503.096 378.468 503.096C376.836 503.096 375.556 502.64 374.628 501.728C373.7 500.816 373.236 499.504 373.236 497.792V490.472H374.436V497.696C374.436 499.104 374.796 500.176 375.516 500.912C376.236 501.648 377.252 502.016 378.564 502.016C379.972 502.016 381.084 501.576 381.9 500.696C382.732 499.816 383.148 498.632 383.148 497.144V490.472H384.348ZM395.555 490.376C397.123 490.376 398.363 490.832 399.275 491.744C400.187 492.656 400.643 493.968 400.643 495.68V503H399.443V495.776C399.443 494.368 399.083 493.296 398.363 492.56C397.659 491.824 396.667 491.456 395.387 491.456C393.915 491.456 392.755 491.896 391.907 492.776C391.059 493.656 390.635 494.84 390.635 496.328V503H389.435V490.472H390.587V493.184C391.019 492.304 391.659 491.616 392.507 491.12C393.371 490.624 394.387 490.376 395.555 490.376Z" fill="white"/>
<path d="M346.208 394V406.4L321.508 464H299.908L323.508 409.7H305.108V420.5H288.208V394H346.208Z" fill="white"/>
<path d="M405.61 239.12C404.378 239.12 403.202 238.912 402.082 238.496C400.978 238.064 400.114 237.512 399.49 236.84L400.042 235.928C400.634 236.552 401.426 237.064 402.418 237.464C403.426 237.848 404.482 238.04 405.586 238.04C407.186 238.04 408.394 237.736 409.21 237.128C410.026 236.52 410.434 235.728 410.434 234.752C410.434 234 410.218 233.4 409.786 232.952C409.354 232.504 408.818 232.16 408.178 231.92C407.538 231.68 406.674 231.432 405.586 231.176C404.354 230.872 403.362 230.576 402.61 230.288C401.874 230 401.242 229.56 400.714 228.968C400.202 228.36 399.946 227.552 399.946 226.544C399.946 225.728 400.162 224.984 400.594 224.312C401.026 223.624 401.682 223.08 402.562 222.68C403.458 222.28 404.57 222.08 405.898 222.08C406.826 222.08 407.738 222.216 408.634 222.488C409.53 222.76 410.306 223.128 410.962 223.592L410.506 224.576C409.834 224.112 409.09 223.76 408.274 223.52C407.474 223.28 406.682 223.16 405.898 223.16C404.346 223.16 403.17 223.472 402.37 224.096C401.57 224.72 401.17 225.528 401.17 226.52C401.17 227.272 401.386 227.872 401.818 228.32C402.25 228.768 402.786 229.112 403.426 229.352C404.066 229.592 404.938 229.848 406.042 230.12C407.274 230.424 408.258 230.72 408.994 231.008C409.73 231.296 410.354 231.736 410.866 232.328C411.394 232.904 411.658 233.688 411.658 234.68C411.658 235.496 411.434 236.24 410.986 236.912C410.554 237.584 409.882 238.12 408.97 238.52C408.058 238.92 406.938 239.12 405.61 239.12ZM426.403 226.472V239H425.251V236.312C424.835 237.192 424.219 237.88 423.403 238.376C422.587 238.856 421.627 239.096 420.523 239.096C418.891 239.096 417.611 238.64 416.683 237.728C415.755 236.816 415.291 235.504 415.291 233.792V226.472H416.491V233.696C416.491 235.104 416.851 236.176 417.571 236.912C418.291 237.648 419.307 238.016 420.619 238.016C422.027 238.016 423.139 237.576 423.955 236.696C424.787 235.816 425.203 234.632 425.203 233.144V226.472H426.403ZM437.777 226.376C438.945 226.376 440.001 226.648 440.945 227.192C441.889 227.72 442.625 228.472 443.153 229.448C443.697 230.408 443.969 231.504 443.969 232.736C443.969 233.968 443.697 235.064 443.153 236.024C442.625 236.984 441.889 237.736 440.945 238.28C440.001 238.824 438.945 239.096 437.777 239.096C436.657 239.096 435.641 238.832 434.729 238.304C433.833 237.76 433.137 237.008 432.641 236.048V239H431.489V221.192H432.689V229.328C433.185 228.4 433.881 227.68 434.777 227.168C435.673 226.64 436.673 226.376 437.777 226.376ZM437.705 238.016C438.665 238.016 439.529 237.792 440.297 237.344C441.065 236.896 441.665 236.272 442.097 235.472C442.545 234.672 442.769 233.76 442.769 232.736C442.769 231.712 442.545 230.8 442.097 230C441.665 229.2 441.065 228.576 440.297 228.128C439.529 227.68 438.665 227.456 437.705 227.456C436.745 227.456 435.881 227.68 435.113 228.128C434.361 228.576 433.761 229.2 433.313 230C432.881 230.8 432.665 231.712 432.665 232.736C432.665 233.76 432.881 234.672 433.313 235.472C433.761 236.272 434.361 236.896 435.113 237.344C435.881 237.792 436.745 238.016 437.705 238.016ZM450.853 239.096C449.845 239.096 448.885 238.944 447.973 238.64C447.061 238.336 446.349 237.952 445.837 237.488L446.389 236.528C446.901 236.96 447.557 237.32 448.357 237.608C449.173 237.896 450.021 238.04 450.901 238.04C452.165 238.04 453.093 237.832 453.685 237.416C454.293 237 454.597 236.424 454.597 235.688C454.597 235.16 454.429 234.744 454.093 234.44C453.773 234.136 453.373 233.912 452.893 233.768C452.413 233.624 451.749 233.472 450.901 233.312C449.909 233.136 449.109 232.944 448.501 232.736C447.893 232.528 447.373 232.192 446.941 231.728C446.509 231.264 446.293 230.624 446.293 229.808C446.293 228.816 446.701 228 447.517 227.36C448.349 226.704 449.525 226.376 451.045 226.376C451.845 226.376 452.637 226.488 453.421 226.712C454.205 226.936 454.845 227.232 455.341 227.6L454.789 228.56C454.277 228.192 453.693 227.912 453.037 227.72C452.381 227.528 451.709 227.432 451.021 227.432C449.853 227.432 448.973 227.648 448.381 228.08C447.789 228.512 447.493 229.08 447.493 229.784C447.493 230.344 447.661 230.784 447.997 231.104C448.333 231.408 448.741 231.64 449.221 231.8C449.717 231.944 450.405 232.104 451.285 232.28C452.261 232.456 453.045 232.648 453.637 232.856C454.245 233.048 454.757 233.368 455.173 233.816C455.589 234.264 455.797 234.88 455.797 235.664C455.797 236.704 455.365 237.536 454.501 238.16C453.637 238.784 452.421 239.096 450.853 239.096ZM464.114 239.096C462.898 239.096 461.81 238.824 460.85 238.28C459.89 237.736 459.138 236.984 458.594 236.024C458.05 235.048 457.778 233.952 457.778 232.736C457.778 231.504 458.05 230.408 458.594 229.448C459.138 228.472 459.89 227.72 460.85 227.192C461.81 226.648 462.898 226.376 464.114 226.376C465.122 226.376 466.034 226.576 466.85 226.976C467.682 227.36 468.354 227.928 468.866 228.68L467.978 229.328C467.53 228.704 466.97 228.24 466.298 227.936C465.642 227.616 464.914 227.456 464.114 227.456C463.138 227.456 462.258 227.68 461.474 228.128C460.706 228.56 460.098 229.176 459.65 229.976C459.218 230.776 459.002 231.696 459.002 232.736C459.002 233.776 459.218 234.696 459.65 235.496C460.098 236.296 460.706 236.92 461.474 237.368C462.258 237.8 463.138 238.016 464.114 238.016C464.914 238.016 465.642 237.864 466.298 237.56C466.97 237.24 467.53 236.768 467.978 236.144L468.866 236.792C468.354 237.544 467.682 238.12 466.85 238.52C466.034 238.904 465.122 239.096 464.114 239.096ZM473.61 229.208C473.994 228.296 474.594 227.6 475.41 227.12C476.226 226.624 477.218 226.376 478.386 226.376V227.552L478.098 227.528C476.706 227.528 475.618 227.968 474.834 228.848C474.05 229.712 473.658 230.92 473.658 232.472V239H472.458V226.472H473.61V229.208ZM481.692 226.472H482.892V239H481.692V226.472ZM482.292 223.424C482.02 223.424 481.788 223.336 481.596 223.16C481.404 222.968 481.308 222.736 481.308 222.464C481.308 222.192 481.404 221.96 481.596 221.768C481.788 221.576 482.02 221.48 482.292 221.48C482.564 221.48 482.796 221.576 482.988 221.768C483.18 221.944 483.276 222.168 483.276 222.44C483.276 222.712 483.18 222.944 482.988 223.136C482.796 223.328 482.564 223.424 482.292 223.424ZM494.238 226.376C495.406 226.376 496.462 226.648 497.406 227.192C498.35 227.72 499.086 228.472 499.614 229.448C500.158 230.408 500.43 231.504 500.43 232.736C500.43 233.968 500.158 235.064 499.614 236.024C499.086 236.984 498.35 237.736 497.406 238.28C496.462 238.824 495.406 239.096 494.238 239.096C493.118 239.096 492.102 238.832 491.19 238.304C490.294 237.76 489.598 237.008 489.102 236.048V239H487.95V221.192H489.15V229.328C489.646 228.4 490.342 227.68 491.238 227.168C492.134 226.64 493.134 226.376 494.238 226.376ZM494.166 238.016C495.126 238.016 495.99 237.792 496.758 237.344C497.526 236.896 498.126 236.272 498.558 235.472C499.006 234.672 499.23 233.76 499.23 232.736C499.23 231.712 499.006 230.8 498.558 230C498.126 229.2 497.526 228.576 496.758 228.128C495.99 227.68 495.126 227.456 494.166 227.456C493.206 227.456 492.342 227.68 491.574 228.128C490.822 228.576 490.222 229.2 489.774 230C489.342 230.8 489.126 231.712 489.126 232.736C489.126 233.76 489.342 234.672 489.774 235.472C490.222 236.272 490.822 236.896 491.574 237.344C492.342 237.792 493.206 238.016 494.166 238.016ZM514.73 233.024H503.954C503.986 234 504.234 234.872 504.698 235.64C505.162 236.392 505.786 236.976 506.57 237.392C507.37 237.808 508.266 238.016 509.258 238.016C510.074 238.016 510.826 237.872 511.514 237.584C512.218 237.28 512.802 236.84 513.266 236.264L513.962 237.056C513.418 237.712 512.73 238.216 511.898 238.568C511.082 238.92 510.194 239.096 509.234 239.096C507.986 239.096 506.874 238.824 505.898 238.28C504.922 237.736 504.154 236.984 503.594 236.024C503.05 235.064 502.778 233.968 502.778 232.736C502.778 231.52 503.034 230.432 503.546 229.472C504.074 228.496 504.794 227.736 505.706 227.192C506.618 226.648 507.642 226.376 508.778 226.376C509.914 226.376 510.93 226.648 511.826 227.192C512.738 227.72 513.45 228.464 513.962 229.424C514.49 230.384 514.754 231.472 514.754 232.688L514.73 233.024ZM508.778 227.432C507.898 227.432 507.106 227.632 506.402 228.032C505.698 228.416 505.13 228.968 504.698 229.688C504.282 230.392 504.042 231.192 503.978 232.088H513.578C513.53 231.192 513.29 230.392 512.858 229.688C512.426 228.984 511.858 228.432 511.154 228.032C510.45 227.632 509.658 227.432 508.778 227.432ZM519.618 229.208C520.002 228.296 520.602 227.6 521.418 227.12C522.234 226.624 523.226 226.376 524.394 226.376V227.552L524.106 227.528C522.714 227.528 521.626 227.968 520.842 228.848C520.058 229.712 519.666 230.92 519.666 232.472V239H518.466V226.472H519.618V229.208ZM530.985 239.096C529.977 239.096 529.017 238.944 528.105 238.64C527.193 238.336 526.481 237.952 525.969 237.488L526.521 236.528C527.033 236.96 527.689 237.32 528.489 237.608C529.305 237.896 530.153 238.04 531.033 238.04C532.297 238.04 533.225 237.832 533.817 237.416C534.425 237 534.729 236.424 534.729 235.688C534.729 235.16 534.561 234.744 534.225 234.44C533.905 234.136 533.505 233.912 533.025 233.768C532.545 233.624 531.881 233.472 531.033 233.312C530.041 233.136 529.241 232.944 528.633 232.736C528.025 232.528 527.505 232.192 527.073 231.728C526.641 231.264 526.425 230.624 526.425 229.808C526.425 228.816 526.833 228 527.649 227.36C528.481 226.704 529.657 226.376 531.177 226.376C531.977 226.376 532.769 226.488 533.553 226.712C534.337 226.936 534.977 227.232 535.473 227.6L534.921 228.56C534.409 228.192 533.825 227.912 533.169 227.72C532.513 227.528 531.841 227.432 531.153 227.432C529.985 227.432 529.105 227.648 528.513 228.08C527.921 228.512 527.625 229.08 527.625 229.784C527.625 230.344 527.793 230.784 528.129 231.104C528.465 231.408 528.873 231.64 529.353 231.8C529.849 231.944 530.537 232.104 531.417 232.28C532.393 232.456 533.177 232.648 533.769 232.856C534.377 233.048 534.889 233.368 535.305 233.816C535.721 234.264 535.929 234.88 535.929 235.664C535.929 236.704 535.497 237.536 534.633 238.16C533.769 238.784 532.553 239.096 530.985 239.096Z" fill="white"/>
<path d="M669.043 225.6V241H667.921V233.674H657.625V241H656.503V225.6H657.625V232.684H667.921V225.6H669.043ZM677.941 229.428C679.364 229.428 680.457 229.795 681.219 230.528C681.982 231.247 682.363 232.31 682.363 233.718V241H681.307V238.954C680.941 239.629 680.405 240.157 679.701 240.538C678.997 240.905 678.154 241.088 677.171 241.088C675.895 241.088 674.883 240.787 674.135 240.186C673.402 239.585 673.035 238.793 673.035 237.81C673.035 236.857 673.373 236.087 674.047 235.5C674.737 234.899 675.829 234.598 677.325 234.598H681.263V233.674C681.263 232.603 680.97 231.789 680.383 231.232C679.811 230.675 678.968 230.396 677.853 230.396C677.091 230.396 676.357 230.528 675.653 230.792C674.964 231.056 674.377 231.408 673.893 231.848L673.343 231.056C673.915 230.543 674.605 230.147 675.411 229.868C676.218 229.575 677.061 229.428 677.941 229.428ZM677.325 240.186C678.279 240.186 679.085 239.966 679.745 239.526C680.42 239.086 680.926 238.448 681.263 237.612V235.456H677.347C676.218 235.456 675.397 235.661 674.883 236.072C674.385 236.483 674.135 237.047 674.135 237.766C674.135 238.514 674.414 239.108 674.971 239.548C675.529 239.973 676.313 240.186 677.325 240.186ZM691.471 241.088C690.356 241.088 689.359 240.839 688.479 240.34C687.599 239.841 686.91 239.152 686.411 238.272C685.912 237.377 685.663 236.373 685.663 235.258C685.663 234.129 685.912 233.124 686.411 232.244C686.91 231.349 687.599 230.66 688.479 230.176C689.359 229.677 690.356 229.428 691.471 229.428C692.395 229.428 693.231 229.611 693.979 229.978C694.742 230.33 695.358 230.851 695.827 231.54L695.013 232.134C694.602 231.562 694.089 231.137 693.473 230.858C692.872 230.565 692.204 230.418 691.471 230.418C690.576 230.418 689.77 230.623 689.051 231.034C688.347 231.43 687.79 231.995 687.379 232.728C686.983 233.461 686.785 234.305 686.785 235.258C686.785 236.211 686.983 237.055 687.379 237.788C687.79 238.521 688.347 239.093 689.051 239.504C689.77 239.9 690.576 240.098 691.471 240.098C692.204 240.098 692.872 239.959 693.473 239.68C694.089 239.387 694.602 238.954 695.013 238.382L695.827 238.976C695.358 239.665 694.742 240.193 693.979 240.56C693.231 240.912 692.395 241.088 691.471 241.088ZM703.019 234.862L700.027 237.59V241H698.927V224.676H700.027V236.226L707.375 229.516H708.783L703.833 234.158L709.267 241H707.903L703.019 234.862ZM715.517 229.428C716.94 229.428 718.033 229.795 718.795 230.528C719.558 231.247 719.939 232.31 719.939 233.718V241H718.883V238.954C718.517 239.629 717.981 240.157 717.277 240.538C716.573 240.905 715.73 241.088 714.747 241.088C713.471 241.088 712.459 240.787 711.711 240.186C710.978 239.585 710.611 238.793 710.611 237.81C710.611 236.857 710.949 236.087 711.623 235.5C712.313 234.899 713.405 234.598 714.901 234.598H718.839V233.674C718.839 232.603 718.546 231.789 717.959 231.232C717.387 230.675 716.544 230.396 715.429 230.396C714.667 230.396 713.933 230.528 713.229 230.792C712.54 231.056 711.953 231.408 711.469 231.848L710.919 231.056C711.491 230.543 712.181 230.147 712.987 229.868C713.794 229.575 714.637 229.428 715.517 229.428ZM714.901 240.186C715.855 240.186 716.661 239.966 717.321 239.526C717.996 239.086 718.502 238.448 718.839 237.612V235.456H714.923C713.794 235.456 712.973 235.661 712.459 236.072C711.961 236.483 711.711 237.047 711.711 237.766C711.711 238.514 711.99 239.108 712.547 239.548C713.105 239.973 713.889 240.186 714.901 240.186ZM730.17 240.274C729.891 240.538 729.539 240.743 729.114 240.89C728.703 241.022 728.27 241.088 727.816 241.088C726.818 241.088 726.048 240.817 725.506 240.274C724.963 239.717 724.692 238.947 724.692 237.964V230.462H722.58V229.516H724.692V227.008H725.792V229.516H729.444V230.462H725.792V237.854C725.792 238.602 725.968 239.174 726.32 239.57C726.686 239.951 727.222 240.142 727.926 240.142C728.644 240.142 729.238 239.929 729.708 239.504L730.17 240.274ZM738.847 229.428C740.285 229.428 741.421 229.846 742.257 230.682C743.093 231.518 743.511 232.721 743.511 234.29V241H742.411V234.378C742.411 233.087 742.081 232.105 741.421 231.43C740.776 230.755 739.867 230.418 738.693 230.418C737.344 230.418 736.281 230.821 735.503 231.628C734.726 232.435 734.337 233.52 734.337 234.884V241H733.237V224.676H734.337V231.914C734.733 231.122 735.32 230.513 736.097 230.088C736.875 229.648 737.791 229.428 738.847 229.428ZM752.549 241.088C751.464 241.088 750.481 240.839 749.601 240.34C748.736 239.841 748.054 239.152 747.555 238.272C747.057 237.377 746.807 236.373 746.807 235.258C746.807 234.143 747.057 233.146 747.555 232.266C748.054 231.371 748.736 230.675 749.601 230.176C750.481 229.677 751.464 229.428 752.549 229.428C753.635 229.428 754.61 229.677 755.475 230.176C756.355 230.675 757.045 231.371 757.543 232.266C758.042 233.146 758.291 234.143 758.291 235.258C758.291 236.373 758.042 237.377 757.543 238.272C757.045 239.152 756.355 239.841 755.475 240.34C754.61 240.839 753.635 241.088 752.549 241.088ZM752.549 240.098C753.429 240.098 754.214 239.893 754.903 239.482C755.607 239.071 756.157 238.499 756.553 237.766C756.964 237.033 757.169 236.197 757.169 235.258C757.169 234.319 756.964 233.483 756.553 232.75C756.157 232.017 755.607 231.445 754.903 231.034C754.214 230.623 753.429 230.418 752.549 230.418C751.669 230.418 750.877 230.623 750.173 231.034C749.484 231.445 748.934 232.017 748.523 232.75C748.127 233.483 747.929 234.319 747.929 235.258C747.929 236.197 748.127 237.033 748.523 237.766C748.934 238.499 749.484 239.071 750.173 239.482C750.877 239.893 751.669 240.098 752.549 240.098ZM767.314 229.428C768.751 229.428 769.888 229.846 770.724 230.682C771.56 231.518 771.978 232.721 771.978 234.29V241H770.878V234.378C770.878 233.087 770.548 232.105 769.888 231.43C769.243 230.755 768.333 230.418 767.16 230.418C765.811 230.418 764.747 230.821 763.97 231.628C763.193 232.435 762.804 233.52 762.804 234.884V241H761.704V229.516H762.76V232.002C763.156 231.195 763.743 230.565 764.52 230.11C765.312 229.655 766.243 229.428 767.314 229.428ZM788.031 225.6C789.967 225.6 791.485 226.062 792.585 226.986C793.685 227.895 794.235 229.164 794.235 230.792C794.235 232.405 793.685 233.674 792.585 234.598C791.485 235.507 789.967 235.962 788.031 235.962H783.631V241H782.509V225.6H788.031ZM788.031 234.95C789.674 234.95 790.928 234.591 791.793 233.872C792.659 233.153 793.091 232.127 793.091 230.792C793.091 229.457 792.659 228.431 791.793 227.712C790.928 226.979 789.674 226.612 788.031 226.612H783.631V234.95H788.031ZM801.433 229.428C802.856 229.428 803.949 229.795 804.711 230.528C805.474 231.247 805.855 232.31 805.855 233.718V241H804.799V238.954C804.433 239.629 803.897 240.157 803.193 240.538C802.489 240.905 801.646 241.088 800.663 241.088C799.387 241.088 798.375 240.787 797.627 240.186C796.894 239.585 796.527 238.793 796.527 237.81C796.527 236.857 796.865 236.087 797.539 235.5C798.229 234.899 799.321 234.598 800.817 234.598H804.755V233.674C804.755 232.603 804.462 231.789 803.875 231.232C803.303 230.675 802.46 230.396 801.345 230.396C800.583 230.396 799.849 230.528 799.145 230.792C798.456 231.056 797.869 231.408 797.385 231.848L796.835 231.056C797.407 230.543 798.097 230.147 798.903 229.868C799.71 229.575 800.553 229.428 801.433 229.428ZM800.817 240.186C801.771 240.186 802.577 239.966 803.237 239.526C803.912 239.086 804.418 238.448 804.755 237.612V235.456H800.839C799.71 235.456 798.889 235.661 798.375 236.072C797.877 236.483 797.627 237.047 797.627 237.766C797.627 238.514 797.906 239.108 798.463 239.548C799.021 239.973 799.805 240.186 800.817 240.186ZM811.444 232.024C811.796 231.188 812.346 230.55 813.094 230.11C813.842 229.655 814.751 229.428 815.822 229.428V230.506L815.558 230.484C814.282 230.484 813.284 230.887 812.566 231.694C811.847 232.486 811.488 233.593 811.488 235.016V241H810.388V229.516H811.444V232.024ZM825.066 240.274C824.787 240.538 824.435 240.743 824.01 240.89C823.599 241.022 823.167 241.088 822.712 241.088C821.715 241.088 820.945 240.817 820.402 240.274C819.859 239.717 819.588 238.947 819.588 237.964V230.462H817.476V229.516H819.588V227.008H820.688V229.516H824.34V230.462H820.688V237.854C820.688 238.602 820.864 239.174 821.216 239.57C821.583 239.951 822.118 240.142 822.822 240.142C823.541 240.142 824.135 239.929 824.604 239.504L825.066 240.274ZM828.134 229.516H829.234V241H828.134V229.516ZM828.684 226.722C828.434 226.722 828.222 226.641 828.046 226.48C827.87 226.304 827.782 226.091 827.782 225.842C827.782 225.593 827.87 225.38 828.046 225.204C828.222 225.028 828.434 224.94 828.684 224.94C828.933 224.94 829.146 225.028 829.322 225.204C829.498 225.365 829.586 225.571 829.586 225.82C829.586 226.069 829.498 226.282 829.322 226.458C829.146 226.634 828.933 226.722 828.684 226.722ZM838.424 241.088C837.309 241.088 836.312 240.839 835.432 240.34C834.552 239.841 833.863 239.152 833.364 238.272C832.865 237.377 832.616 236.373 832.616 235.258C832.616 234.129 832.865 233.124 833.364 232.244C833.863 231.349 834.552 230.66 835.432 230.176C836.312 229.677 837.309 229.428 838.424 229.428C839.348 229.428 840.184 229.611 840.932 229.978C841.695 230.33 842.311 230.851 842.78 231.54L841.966 232.134C841.555 231.562 841.042 231.137 840.426 230.858C839.825 230.565 839.157 230.418 838.424 230.418C837.529 230.418 836.723 230.623 836.004 231.034C835.3 231.43 834.743 231.995 834.332 232.728C833.936 233.461 833.738 234.305 833.738 235.258C833.738 236.211 833.936 237.055 834.332 237.788C834.743 238.521 835.3 239.093 836.004 239.504C836.723 239.9 837.529 240.098 838.424 240.098C839.157 240.098 839.825 239.959 840.426 239.68C841.042 239.387 841.555 238.954 841.966 238.382L842.78 238.976C842.311 239.665 841.695 240.193 840.932 240.56C840.184 240.912 839.348 241.088 838.424 241.088ZM846.073 229.516H847.173V241H846.073V229.516ZM846.623 226.722C846.374 226.722 846.161 226.641 845.985 226.48C845.809 226.304 845.721 226.091 845.721 225.842C845.721 225.593 845.809 225.38 845.985 225.204C846.161 225.028 846.374 224.94 846.623 224.94C846.873 224.94 847.085 225.028 847.261 225.204C847.437 225.365 847.525 225.571 847.525 225.82C847.525 226.069 847.437 226.282 847.261 226.458C847.085 226.634 846.873 226.722 846.623 226.722ZM857.574 229.428C858.644 229.428 859.612 229.677 860.478 230.176C861.343 230.675 862.018 231.364 862.502 232.244C863 233.124 863.25 234.129 863.25 235.258C863.25 236.387 863 237.399 862.502 238.294C862.018 239.174 861.343 239.863 860.478 240.362C859.612 240.846 858.644 241.088 857.574 241.088C856.562 241.088 855.645 240.853 854.824 240.384C854.002 239.9 853.364 239.233 852.91 238.382V245.268H851.81V229.516H852.866V232.222C853.32 231.342 853.958 230.66 854.78 230.176C855.616 229.677 856.547 229.428 857.574 229.428ZM857.508 240.098C858.388 240.098 859.18 239.893 859.884 239.482C860.588 239.071 861.138 238.499 861.534 237.766C861.944 237.033 862.15 236.197 862.15 235.258C862.15 234.319 861.944 233.483 861.534 232.75C861.138 232.017 860.588 231.445 859.884 231.034C859.18 230.623 858.388 230.418 857.508 230.418C856.628 230.418 855.836 230.623 855.132 231.034C854.442 231.445 853.892 232.017 853.482 232.75C853.086 233.483 852.888 234.319 852.888 235.258C852.888 236.197 853.086 237.033 853.482 237.766C853.892 238.499 854.442 239.071 855.132 239.482C855.836 239.893 856.628 240.098 857.508 240.098ZM870.484 229.428C871.907 229.428 873 229.795 873.762 230.528C874.525 231.247 874.906 232.31 874.906 233.718V241H873.85V238.954C873.484 239.629 872.948 240.157 872.244 240.538C871.54 240.905 870.697 241.088 869.714 241.088C868.438 241.088 867.426 240.787 866.678 240.186C865.945 239.585 865.578 238.793 865.578 237.81C865.578 236.857 865.916 236.087 866.59 235.5C867.28 234.899 868.372 234.598 869.868 234.598H873.806V233.674C873.806 232.603 873.513 231.789 872.926 231.232C872.354 230.675 871.511 230.396 870.396 230.396C869.634 230.396 868.9 230.528 868.196 230.792C867.507 231.056 866.92 231.408 866.436 231.848L865.886 231.056C866.458 230.543 867.148 230.147 867.954 229.868C868.761 229.575 869.604 229.428 870.484 229.428ZM869.868 240.186C870.822 240.186 871.628 239.966 872.288 239.526C872.963 239.086 873.469 238.448 873.806 237.612V235.456H869.89C868.761 235.456 867.94 235.661 867.426 236.072C866.928 236.483 866.678 237.047 866.678 237.766C866.678 238.514 866.957 239.108 867.514 239.548C868.072 239.973 868.856 240.186 869.868 240.186ZM885.048 229.428C886.486 229.428 887.622 229.846 888.458 230.682C889.294 231.518 889.712 232.721 889.712 234.29V241H888.612V234.378C888.612 233.087 888.282 232.105 887.622 231.43C886.977 230.755 886.068 230.418 884.894 230.418C883.545 230.418 882.482 230.821 881.704 231.628C880.927 232.435 880.538 233.52 880.538 234.884V241H879.438V229.516H880.494V232.002C880.89 231.195 881.477 230.565 882.254 230.11C883.046 229.655 883.978 229.428 885.048 229.428ZM899.939 240.274C899.661 240.538 899.309 240.743 898.883 240.89C898.473 241.022 898.04 241.088 897.585 241.088C896.588 241.088 895.818 240.817 895.275 240.274C894.733 239.717 894.461 238.947 894.461 237.964V230.462H892.349V229.516H894.461V227.008H895.561V229.516H899.213V230.462H895.561V237.854C895.561 238.602 895.737 239.174 896.089 239.57C896.456 239.951 896.991 240.142 897.695 240.142C898.414 240.142 899.008 239.929 899.477 239.504L899.939 240.274ZM905.911 241.088C904.987 241.088 904.107 240.949 903.271 240.67C902.435 240.391 901.782 240.039 901.313 239.614L901.819 238.734C902.288 239.13 902.889 239.46 903.623 239.724C904.371 239.988 905.148 240.12 905.955 240.12C907.113 240.12 907.964 239.929 908.507 239.548C909.064 239.167 909.343 238.639 909.343 237.964C909.343 237.48 909.189 237.099 908.881 236.82C908.587 236.541 908.221 236.336 907.781 236.204C907.341 236.072 906.732 235.933 905.955 235.786C905.045 235.625 904.312 235.449 903.755 235.258C903.197 235.067 902.721 234.759 902.325 234.334C901.929 233.909 901.731 233.322 901.731 232.574C901.731 231.665 902.105 230.917 902.853 230.33C903.615 229.729 904.693 229.428 906.087 229.428C906.82 229.428 907.546 229.531 908.265 229.736C908.983 229.941 909.57 230.213 910.025 230.55L909.519 231.43C909.049 231.093 908.514 230.836 907.913 230.66C907.311 230.484 906.695 230.396 906.065 230.396C904.994 230.396 904.187 230.594 903.645 230.99C903.102 231.386 902.831 231.907 902.831 232.552C902.831 233.065 902.985 233.469 903.293 233.762C903.601 234.041 903.975 234.253 904.415 234.4C904.869 234.532 905.5 234.679 906.307 234.84C907.201 235.001 907.92 235.177 908.463 235.368C909.02 235.544 909.489 235.837 909.871 236.248C910.252 236.659 910.443 237.223 910.443 237.942C910.443 238.895 910.047 239.658 909.255 240.23C908.463 240.802 907.348 241.088 905.911 241.088Z" fill="white"/>
<path d="M731.537 134V204H711.737V149.3H698.737V134H731.537ZM768.264 159.5C778.064 159.5 785.297 161.5 789.964 165.5C794.697 169.5 797.064 174.833 797.064 181.5C797.064 185.833 795.931 189.833 793.664 193.5C791.464 197.1 788.064 200 783.464 202.2C778.931 204.333 773.297 205.4 766.564 205.4C761.631 205.4 756.731 204.8 751.864 203.6C747.064 202.4 742.931 200.7 739.464 198.5L746.564 183.6C749.364 185.467 752.431 186.9 755.764 187.9C759.164 188.9 762.564 189.4 765.964 189.4C769.364 189.4 772.064 188.767 774.064 187.5C776.131 186.167 777.164 184.333 777.164 182C777.164 179.667 776.164 177.9 774.164 176.7C772.164 175.5 768.631 174.9 763.564 174.9H744.564L748.064 134H792.664V149.3H764.464L763.564 159.5H768.264ZM833.706 205.4C827.706 205.4 822.373 203.967 817.706 201.1C813.04 198.233 809.373 194.067 806.706 188.6C804.106 183.067 802.806 176.533 802.806 169C802.806 161.467 804.106 154.967 806.706 149.5C809.373 143.967 813.04 139.767 817.706 136.9C822.373 134.033 827.706 132.6 833.706 132.6C839.64 132.6 844.94 134.033 849.606 136.9C854.273 139.767 857.906 143.967 860.506 149.5C863.173 154.967 864.506 161.467 864.506 169C864.506 176.533 863.173 183.067 860.506 188.6C857.906 194.067 854.273 198.233 849.606 201.1C844.94 203.967 839.64 205.4 833.706 205.4ZM833.706 189.2C837.04 189.2 839.673 187.6 841.606 184.4C843.606 181.133 844.606 176 844.606 169C844.606 162 843.606 156.9 841.606 153.7C839.673 150.433 837.04 148.8 833.706 148.8C830.306 148.8 827.606 150.433 825.606 153.7C823.673 156.9 822.706 162 822.706 169C822.706 176 823.673 181.133 825.606 184.4C827.606 187.6 830.306 189.2 833.706 189.2Z" fill="white"/>
<path d="M38.9645 234.272H29.2205L27.0845 239H25.7645L33.4925 222.2H34.7165L42.4445 239H41.1245L38.9645 234.272ZM38.5085 233.24L34.0925 223.544L29.7005 233.24H38.5085ZM49.9612 239.096C48.7452 239.096 47.6572 238.824 46.6972 238.28C45.7372 237.736 44.9852 236.984 44.4412 236.024C43.8972 235.048 43.6252 233.952 43.6252 232.736C43.6252 231.504 43.8972 230.408 44.4412 229.448C44.9852 228.472 45.7372 227.72 46.6972 227.192C47.6572 226.648 48.7452 226.376 49.9612 226.376C50.9692 226.376 51.8812 226.576 52.6972 226.976C53.5292 227.36 54.2012 227.928 54.7132 228.68L53.8252 229.328C53.3772 228.704 52.8172 228.24 52.1452 227.936C51.4892 227.616 50.7612 227.456 49.9612 227.456C48.9852 227.456 48.1052 227.68 47.3212 228.128C46.5532 228.56 45.9452 229.176 45.4972 229.976C45.0652 230.776 44.8492 231.696 44.8492 232.736C44.8492 233.776 45.0652 234.696 45.4972 235.496C45.9452 236.296 46.5532 236.92 47.3212 237.368C48.1052 237.8 48.9852 238.016 49.9612 238.016C50.7612 238.016 51.4892 237.864 52.1452 237.56C52.8172 237.24 53.3772 236.768 53.8252 236.144L54.7132 236.792C54.2012 237.544 53.5292 238.12 52.6972 238.52C51.8812 238.904 50.9692 239.096 49.9612 239.096ZM62.5297 226.376C64.0817 226.376 65.2737 226.776 66.1057 227.576C66.9377 228.36 67.3537 229.52 67.3537 231.056V239H66.2017V236.768C65.8017 237.504 65.2177 238.08 64.4497 238.496C63.6817 238.896 62.7617 239.096 61.6897 239.096C60.2977 239.096 59.1937 238.768 58.3777 238.112C57.5777 237.456 57.1777 236.592 57.1777 235.52C57.1777 234.48 57.5457 233.64 58.2817 233C59.0337 232.344 60.2257 232.016 61.8577 232.016H66.1537V231.008C66.1537 229.84 65.8337 228.952 65.1937 228.344C64.5697 227.736 63.6497 227.432 62.4337 227.432C61.6017 227.432 60.8017 227.576 60.0337 227.864C59.2817 228.152 58.6417 228.536 58.1137 229.016L57.5137 228.152C58.1377 227.592 58.8897 227.16 59.7697 226.856C60.6497 226.536 61.5697 226.376 62.5297 226.376ZM61.8577 238.112C62.8977 238.112 63.7777 237.872 64.4977 237.392C65.2337 236.912 65.7857 236.216 66.1537 235.304V232.952H61.8817C60.6497 232.952 59.7537 233.176 59.1937 233.624C58.6497 234.072 58.3777 234.688 58.3777 235.472C58.3777 236.288 58.6817 236.936 59.2897 237.416C59.8977 237.88 60.7537 238.112 61.8577 238.112ZM83.4573 221.192V239H82.2813V236.048C81.7853 237.024 81.0893 237.776 80.1933 238.304C79.2973 238.832 78.2813 239.096 77.1453 239.096C75.9773 239.096 74.9213 238.824 73.9773 238.28C73.0333 237.736 72.2893 236.984 71.7453 236.024C71.2173 235.064 70.9533 233.968 70.9533 232.736C70.9533 231.504 71.2173 230.408 71.7453 229.448C72.2893 228.472 73.0333 227.72 73.9773 227.192C74.9213 226.648 75.9773 226.376 77.1453 226.376C78.2653 226.376 79.2653 226.64 80.1453 227.168C81.0413 227.696 81.7453 228.432 82.2573 229.376V221.192H83.4573ZM77.2173 238.016C78.1773 238.016 79.0333 237.792 79.7853 237.344C80.5533 236.896 81.1533 236.272 81.5853 235.472C82.0333 234.672 82.2573 233.76 82.2573 232.736C82.2573 231.712 82.0333 230.8 81.5853 230C81.1533 229.2 80.5533 228.576 79.7853 228.128C79.0333 227.68 78.1773 227.456 77.2173 227.456C76.2573 227.456 75.3933 227.68 74.6253 228.128C73.8733 228.576 73.2733 229.2 72.8253 230C72.3933 230.8 72.1773 231.712 72.1773 232.736C72.1773 233.76 72.3933 234.672 72.8253 235.472C73.2733 236.272 73.8733 236.896 74.6253 237.344C75.3933 237.792 76.2573 238.016 77.2173 238.016ZM99.1007 233.024H88.3247C88.3567 234 88.6047 234.872 89.0687 235.64C89.5327 236.392 90.1567 236.976 90.9407 237.392C91.7407 237.808 92.6367 238.016 93.6287 238.016C94.4447 238.016 95.1967 237.872 95.8847 237.584C96.5887 237.28 97.1727 236.84 97.6367 236.264L98.3327 237.056C97.7887 237.712 97.1007 238.216 96.2687 238.568C95.4527 238.92 94.5647 239.096 93.6047 239.096C92.3567 239.096 91.2447 238.824 90.2687 238.28C89.2927 237.736 88.5247 236.984 87.9647 236.024C87.4207 235.064 87.1487 233.968 87.1487 232.736C87.1487 231.52 87.4047 230.432 87.9167 229.472C88.4447 228.496 89.1647 227.736 90.0767 227.192C90.9887 226.648 92.0127 226.376 93.1487 226.376C94.2847 226.376 95.3007 226.648 96.1967 227.192C97.1087 227.72 97.8207 228.464 98.3327 229.424C98.8607 230.384 99.1247 231.472 99.1247 232.688L99.1007 233.024ZM93.1487 227.432C92.2687 227.432 91.4767 227.632 90.7727 228.032C90.0687 228.416 89.5007 228.968 89.0687 229.688C88.6527 230.392 88.4127 231.192 88.3487 232.088H97.9487C97.9007 231.192 97.6607 230.392 97.2287 229.688C96.7967 228.984 96.2287 228.432 95.5247 228.032C94.8207 227.632 94.0287 227.432 93.1487 227.432ZM118.437 226.376C119.989 226.376 121.205 226.832 122.085 227.744C122.981 228.656 123.429 229.968 123.429 231.68V239H122.229V231.776C122.229 230.368 121.885 229.296 121.197 228.56C120.509 227.824 119.549 227.456 118.317 227.456C116.909 227.456 115.789 227.896 114.957 228.776C114.141 229.656 113.733 230.84 113.733 232.328V239H112.533V231.776C112.533 230.368 112.189 229.296 111.501 228.56C110.813 227.824 109.853 227.456 108.621 227.456C107.213 227.456 106.093 227.896 105.261 228.776C104.445 229.656 104.037 230.84 104.037 232.328V239H102.837V226.472H103.989V229.16C104.405 228.28 105.021 227.6 105.837 227.12C106.669 226.624 107.653 226.376 108.789 226.376C109.925 226.376 110.885 226.632 111.669 227.144C112.469 227.656 113.037 228.408 113.373 229.4C113.789 228.472 114.437 227.736 115.317 227.192C116.213 226.648 117.253 226.376 118.437 226.376ZM128.384 226.472H129.584V239H128.384V226.472ZM128.984 223.424C128.712 223.424 128.48 223.336 128.288 223.16C128.096 222.968 128 222.736 128 222.464C128 222.192 128.096 221.96 128.288 221.768C128.48 221.576 128.712 221.48 128.984 221.48C129.256 221.48 129.488 221.576 129.68 221.768C129.872 221.944 129.968 222.168 129.968 222.44C129.968 222.712 129.872 222.944 129.68 223.136C129.488 223.328 129.256 223.424 128.984 223.424ZM139.61 239.096C138.394 239.096 137.306 238.824 136.346 238.28C135.386 237.736 134.634 236.984 134.09 236.024C133.546 235.048 133.274 233.952 133.274 232.736C133.274 231.504 133.546 230.408 134.09 229.448C134.634 228.472 135.386 227.72 136.346 227.192C137.306 226.648 138.394 226.376 139.61 226.376C140.618 226.376 141.53 226.576 142.346 226.976C143.178 227.36 143.85 227.928 144.362 228.68L143.474 229.328C143.026 228.704 142.466 228.24 141.794 227.936C141.138 227.616 140.41 227.456 139.61 227.456C138.634 227.456 137.754 227.68 136.97 228.128C136.202 228.56 135.594 229.176 135.146 229.976C134.714 230.776 134.498 231.696 134.498 232.736C134.498 233.776 134.714 234.696 135.146 235.496C135.594 236.296 136.202 236.92 136.97 237.368C137.754 237.8 138.634 238.016 139.61 238.016C140.41 238.016 141.138 237.864 141.794 237.56C142.466 237.24 143.026 236.768 143.474 236.144L144.362 236.792C143.85 237.544 143.178 238.12 142.346 238.52C141.53 238.904 140.618 239.096 139.61 239.096ZM154.502 222.2H161.15C162.894 222.2 164.438 222.56 165.782 223.28C167.142 224 168.198 225 168.95 226.28C169.702 227.544 170.078 228.984 170.078 230.6C170.078 232.216 169.702 233.664 168.95 234.944C168.198 236.208 167.142 237.2 165.782 237.92C164.438 238.64 162.894 239 161.15 239H154.502V222.2ZM161.054 237.896C162.606 237.896 163.974 237.592 165.158 236.984C166.342 236.36 167.254 235.496 167.894 234.392C168.534 233.288 168.854 232.024 168.854 230.6C168.854 229.176 168.534 227.912 167.894 226.808C167.254 225.704 166.342 224.848 165.158 224.24C163.974 223.616 162.606 223.304 161.054 223.304H155.726V237.896H161.054ZM173.946 226.472H175.146V239H173.946V226.472ZM174.546 223.424C174.274 223.424 174.042 223.336 173.85 223.16C173.658 222.968 173.562 222.736 173.562 222.464C173.562 222.192 173.658 221.96 173.85 221.768C174.042 221.576 174.274 221.48 174.546 221.48C174.818 221.48 175.05 221.576 175.242 221.768C175.434 221.944 175.53 222.168 175.53 222.44C175.53 222.712 175.434 222.944 175.242 223.136C175.05 223.328 174.818 223.424 174.546 223.424ZM183.372 239.096C182.364 239.096 181.404 238.944 180.492 238.64C179.58 238.336 178.868 237.952 178.356 237.488L178.908 236.528C179.42 236.96 180.076 237.32 180.876 237.608C181.692 237.896 182.54 238.04 183.42 238.04C184.684 238.04 185.612 237.832 186.204 237.416C186.812 237 187.116 236.424 187.116 235.688C187.116 235.16 186.948 234.744 186.612 234.44C186.292 234.136 185.892 233.912 185.412 233.768C184.932 233.624 184.268 233.472 183.42 233.312C182.428 233.136 181.628 232.944 181.02 232.736C180.412 232.528 179.892 232.192 179.46 231.728C179.028 231.264 178.812 230.624 178.812 229.808C178.812 228.816 179.22 228 180.036 227.36C180.868 226.704 182.044 226.376 183.564 226.376C184.364 226.376 185.156 226.488 185.94 226.712C186.724 226.936 187.364 227.232 187.86 227.6L187.308 228.56C186.796 228.192 186.212 227.912 185.556 227.72C184.9 227.528 184.228 227.432 183.54 227.432C182.372 227.432 181.492 227.648 180.9 228.08C180.308 228.512 180.012 229.08 180.012 229.784C180.012 230.344 180.18 230.784 180.516 231.104C180.852 231.408 181.26 231.64 181.74 231.8C182.236 231.944 182.924 232.104 183.804 232.28C184.78 232.456 185.564 232.648 186.156 232.856C186.764 233.048 187.276 233.368 187.692 233.816C188.108 234.264 188.316 234.88 188.316 235.664C188.316 236.704 187.884 237.536 187.02 238.16C186.156 238.784 184.94 239.096 183.372 239.096ZM196.633 239.096C195.417 239.096 194.329 238.824 193.369 238.28C192.409 237.736 191.657 236.984 191.113 236.024C190.569 235.048 190.297 233.952 190.297 232.736C190.297 231.504 190.569 230.408 191.113 229.448C191.657 228.472 192.409 227.72 193.369 227.192C194.329 226.648 195.417 226.376 196.633 226.376C197.641 226.376 198.553 226.576 199.369 226.976C200.201 227.36 200.873 227.928 201.385 228.68L200.497 229.328C200.049 228.704 199.489 228.24 198.817 227.936C198.161 227.616 197.433 227.456 196.633 227.456C195.657 227.456 194.777 227.68 193.993 228.128C193.225 228.56 192.617 229.176 192.169 229.976C191.737 230.776 191.521 231.696 191.521 232.736C191.521 233.776 191.737 234.696 192.169 235.496C192.617 236.296 193.225 236.92 193.993 237.368C194.777 237.8 195.657 238.016 196.633 238.016C197.433 238.016 198.161 237.864 198.817 237.56C199.489 237.24 200.049 236.768 200.497 236.144L201.385 236.792C200.873 237.544 200.201 238.12 199.369 238.52C198.553 238.904 197.641 239.096 196.633 239.096ZM204.978 226.472H206.178V239H204.978V226.472ZM205.578 223.424C205.306 223.424 205.074 223.336 204.882 223.16C204.69 222.968 204.594 222.736 204.594 222.464C204.594 222.192 204.69 221.96 204.882 221.768C205.074 221.576 205.306 221.48 205.578 221.48C205.85 221.48 206.082 221.576 206.274 221.768C206.466 221.944 206.562 222.168 206.562 222.44C206.562 222.712 206.466 222.944 206.274 223.136C206.082 223.328 205.85 223.424 205.578 223.424ZM217.523 226.376C218.691 226.376 219.747 226.648 220.691 227.192C221.635 227.736 222.371 228.488 222.899 229.448C223.443 230.408 223.715 231.504 223.715 232.736C223.715 233.968 223.443 235.072 222.899 236.048C222.371 237.008 221.635 237.76 220.691 238.304C219.747 238.832 218.691 239.096 217.523 239.096C216.419 239.096 215.419 238.84 214.523 238.328C213.627 237.8 212.931 237.072 212.435 236.144V243.656H211.235V226.472H212.387V229.424C212.883 228.464 213.579 227.72 214.475 227.192C215.387 226.648 216.403 226.376 217.523 226.376ZM217.451 238.016C218.411 238.016 219.275 237.792 220.043 237.344C220.811 236.896 221.411 236.272 221.843 235.472C222.291 234.672 222.515 233.76 222.515 232.736C222.515 231.712 222.291 230.8 221.843 230C221.411 229.2 220.811 228.576 220.043 228.128C219.275 227.68 218.411 227.456 217.451 227.456C216.491 227.456 215.627 227.68 214.859 228.128C214.107 228.576 213.507 229.2 213.059 230C212.627 230.8 212.411 231.712 212.411 232.736C212.411 233.76 212.627 234.672 213.059 235.472C213.507 236.272 214.107 236.896 214.859 237.344C215.627 237.792 216.491 238.016 217.451 238.016ZM227.431 221.192H228.631V239H227.431V221.192ZM233.689 226.472H234.889V239H233.689V226.472ZM234.289 223.424C234.017 223.424 233.785 223.336 233.593 223.16C233.401 222.968 233.305 222.736 233.305 222.464C233.305 222.192 233.401 221.96 233.593 221.768C233.785 221.576 234.017 221.48 234.289 221.48C234.561 221.48 234.793 221.576 234.985 221.768C235.177 221.944 235.273 222.168 235.273 222.44C235.273 222.712 235.177 222.944 234.985 223.136C234.793 223.328 234.561 223.424 234.289 223.424ZM246.066 226.376C247.634 226.376 248.874 226.832 249.786 227.744C250.698 228.656 251.154 229.968 251.154 231.68V239H249.954V231.776C249.954 230.368 249.594 229.296 248.874 228.56C248.17 227.824 247.178 227.456 245.898 227.456C244.426 227.456 243.266 227.896 242.418 228.776C241.57 229.656 241.146 230.84 241.146 232.328V239H239.946V226.472H241.098V229.184C241.53 228.304 242.17 227.616 243.018 227.12C243.882 226.624 244.898 226.376 246.066 226.376ZM266.702 233.024H255.926C255.958 234 256.206 234.872 256.67 235.64C257.134 236.392 257.758 236.976 258.542 237.392C259.342 237.808 260.238 238.016 261.23 238.016C262.046 238.016 262.798 237.872 263.486 237.584C264.19 237.28 264.774 236.84 265.238 236.264L265.934 237.056C265.39 237.712 264.702 238.216 263.87 238.568C263.054 238.92 262.166 239.096 261.206 239.096C259.958 239.096 258.846 238.824 257.87 238.28C256.894 237.736 256.126 236.984 255.566 236.024C255.022 235.064 254.75 233.968 254.75 232.736C254.75 231.52 255.006 230.432 255.518 229.472C256.046 228.496 256.766 227.736 257.678 227.192C258.59 226.648 259.614 226.376 260.75 226.376C261.886 226.376 262.902 226.648 263.798 227.192C264.71 227.72 265.422 228.464 265.934 229.424C266.462 230.384 266.726 231.472 266.726 232.688L266.702 233.024ZM260.75 227.432C259.87 227.432 259.078 227.632 258.374 228.032C257.67 228.416 257.102 228.968 256.67 229.688C256.254 230.392 256.014 231.192 255.95 232.088H265.55C265.502 231.192 265.262 230.392 264.83 229.688C264.398 228.984 263.83 228.432 263.126 228.032C262.422 227.632 261.63 227.432 260.75 227.432ZM273.607 239.096C272.599 239.096 271.639 238.944 270.727 238.64C269.815 238.336 269.103 237.952 268.591 237.488L269.143 236.528C269.655 236.96 270.311 237.32 271.111 237.608C271.927 237.896 272.775 238.04 273.655 238.04C274.919 238.04 275.847 237.832 276.439 237.416C277.047 237 277.351 236.424 277.351 235.688C277.351 235.16 277.183 234.744 276.847 234.44C276.527 234.136 276.127 233.912 275.647 233.768C275.167 233.624 274.503 233.472 273.655 233.312C272.663 233.136 271.863 232.944 271.255 232.736C270.647 232.528 270.127 232.192 269.695 231.728C269.263 231.264 269.047 230.624 269.047 229.808C269.047 228.816 269.455 228 270.271 227.36C271.103 226.704 272.279 226.376 273.799 226.376C274.599 226.376 275.391 226.488 276.175 226.712C276.959 226.936 277.599 227.232 278.095 227.6L277.543 228.56C277.031 228.192 276.447 227.912 275.791 227.72C275.135 227.528 274.463 227.432 273.775 227.432C272.607 227.432 271.727 227.648 271.135 228.08C270.543 228.512 270.247 229.08 270.247 229.784C270.247 230.344 270.415 230.784 270.751 231.104C271.087 231.408 271.495 231.64 271.975 231.8C272.471 231.944 273.159 232.104 274.039 232.28C275.015 232.456 275.799 232.648 276.391 232.856C276.999 233.048 277.511 233.368 277.927 233.816C278.343 234.264 278.551 234.88 278.551 235.664C278.551 236.704 278.119 237.536 277.255 238.16C276.391 238.784 275.175 239.096 273.607 239.096ZM90.6975 268L86.6895 262.384C86.0975 262.464 85.5535 262.504 85.0575 262.504H80.2575V268H79.0335V251.2H85.0575C87.1695 251.2 88.8255 251.704 90.0255 252.712C91.2255 253.704 91.8255 255.088 91.8255 256.864C91.8255 258.192 91.4815 259.312 90.7935 260.224C90.1215 261.12 89.1535 261.752 87.8895 262.12L92.0895 268H90.6975ZM85.0575 261.424C86.8495 261.424 88.2175 261.032 89.1615 260.248C90.1055 259.448 90.5775 258.32 90.5775 256.864C90.5775 255.408 90.1055 254.288 89.1615 253.504C88.2175 252.704 86.8495 252.304 85.0575 252.304H80.2575V261.424H85.0575ZM106.507 262.024H95.7309C95.7629 263 96.0109 263.872 96.4749 264.64C96.9389 265.392 97.5629 265.976 98.3469 266.392C99.1469 266.808 100.043 267.016 101.035 267.016C101.851 267.016 102.603 266.872 103.291 266.584C103.995 266.28 104.579 265.84 105.043 265.264L105.739 266.056C105.195 266.712 104.507 267.216 103.675 267.568C102.859 267.92 101.971 268.096 101.011 268.096C99.7629 268.096 98.6509 267.824 97.6749 267.28C96.6989 266.736 95.9309 265.984 95.3709 265.024C94.8269 264.064 94.5549 262.968 94.5549 261.736C94.5549 260.52 94.8109 259.432 95.3229 258.472C95.8509 257.496 96.5709 256.736 97.4829 256.192C98.3949 255.648 99.4189 255.376 100.555 255.376C101.691 255.376 102.707 255.648 103.603 256.192C104.515 256.72 105.227 257.464 105.739 258.424C106.267 259.384 106.531 260.472 106.531 261.688L106.507 262.024ZM100.555 256.432C99.6749 256.432 98.8829 256.632 98.1789 257.032C97.4749 257.416 96.9069 257.968 96.4749 258.688C96.0589 259.392 95.8189 260.192 95.7549 261.088H105.355C105.307 260.192 105.067 259.392 104.635 258.688C104.203 257.984 103.635 257.432 102.931 257.032C102.227 256.632 101.435 256.432 100.555 256.432ZM116.531 255.376C117.699 255.376 118.755 255.648 119.699 256.192C120.643 256.736 121.379 257.488 121.907 258.448C122.451 259.408 122.723 260.504 122.723 261.736C122.723 262.968 122.451 264.072 121.907 265.048C121.379 266.008 120.643 266.76 119.699 267.304C118.755 267.832 117.699 268.096 116.531 268.096C115.427 268.096 114.427 267.84 113.531 267.328C112.635 266.8 111.939 266.072 111.443 265.144V272.656H110.243V255.472H111.395V258.424C111.891 257.464 112.587 256.72 113.483 256.192C114.395 255.648 115.411 255.376 116.531 255.376ZM116.459 267.016C117.419 267.016 118.283 266.792 119.051 266.344C119.819 265.896 120.419 265.272 120.851 264.472C121.299 263.672 121.523 262.76 121.523 261.736C121.523 260.712 121.299 259.8 120.851 259C120.419 258.2 119.819 257.576 119.051 257.128C118.283 256.68 117.419 256.456 116.459 256.456C115.499 256.456 114.635 256.68 113.867 257.128C113.115 257.576 112.515 258.2 112.067 259C111.635 259.8 111.419 260.712 111.419 261.736C111.419 262.76 111.635 263.672 112.067 264.472C112.515 265.272 113.115 265.896 113.867 266.344C114.635 266.792 115.499 267.016 116.459 267.016ZM127.591 258.208C127.975 257.296 128.575 256.6 129.391 256.12C130.207 255.624 131.199 255.376 132.367 255.376V256.552L132.079 256.528C130.687 256.528 129.599 256.968 128.815 257.848C128.031 258.712 127.639 259.92 127.639 261.472V268H126.439V255.472H127.591V258.208ZM146.14 262.024H135.364C135.396 263 135.644 263.872 136.108 264.64C136.572 265.392 137.196 265.976 137.98 266.392C138.78 266.808 139.676 267.016 140.668 267.016C141.484 267.016 142.236 266.872 142.924 266.584C143.628 266.28 144.212 265.84 144.676 265.264L145.372 266.056C144.828 266.712 144.14 267.216 143.308 267.568C142.492 267.92 141.604 268.096 140.644 268.096C139.396 268.096 138.284 267.824 137.308 267.28C136.332 266.736 135.564 265.984 135.004 265.024C134.46 264.064 134.188 262.968 134.188 261.736C134.188 260.52 134.444 259.432 134.956 258.472C135.484 257.496 136.204 256.736 137.116 256.192C138.028 255.648 139.052 255.376 140.188 255.376C141.324 255.376 142.34 255.648 143.236 256.192C144.148 256.72 144.86 257.464 145.372 258.424C145.9 259.384 146.164 260.472 146.164 261.688L146.14 262.024ZM140.188 256.432C139.308 256.432 138.516 256.632 137.812 257.032C137.108 257.416 136.54 257.968 136.108 258.688C135.692 259.392 135.452 260.192 135.388 261.088H144.988C144.94 260.192 144.7 259.392 144.268 258.688C143.836 257.984 143.268 257.432 142.564 257.032C141.86 256.632 141.068 256.432 140.188 256.432ZM153.044 268.096C152.036 268.096 151.076 267.944 150.164 267.64C149.252 267.336 148.54 266.952 148.028 266.488L148.58 265.528C149.092 265.96 149.748 266.32 150.548 266.608C151.364 266.896 152.212 267.04 153.092 267.04C154.356 267.04 155.284 266.832 155.876 266.416C156.484 266 156.788 265.424 156.788 264.688C156.788 264.16 156.62 263.744 156.284 263.44C155.964 263.136 155.564 262.912 155.084 262.768C154.604 262.624 153.94 262.472 153.092 262.312C152.1 262.136 151.3 261.944 150.692 261.736C150.084 261.528 149.564 261.192 149.132 260.728C148.7 260.264 148.484 259.624 148.484 258.808C148.484 257.816 148.892 257 149.708 256.36C150.54 255.704 151.716 255.376 153.236 255.376C154.036 255.376 154.828 255.488 155.612 255.712C156.396 255.936 157.036 256.232 157.532 256.6L156.98 257.56C156.468 257.192 155.884 256.912 155.228 256.72C154.572 256.528 153.9 256.432 153.212 256.432C152.044 256.432 151.164 256.648 150.572 257.08C149.98 257.512 149.684 258.08 149.684 258.784C149.684 259.344 149.852 259.784 150.188 260.104C150.524 260.408 150.932 260.64 151.412 260.8C151.908 260.944 152.596 261.104 153.476 261.28C154.452 261.456 155.236 261.648 155.828 261.856C156.436 262.048 156.948 262.368 157.364 262.816C157.78 263.264 157.988 263.88 157.988 264.664C157.988 265.704 157.556 266.536 156.692 267.16C155.828 267.784 154.612 268.096 153.044 268.096ZM171.921 262.024H161.145C161.177 263 161.425 263.872 161.889 264.64C162.353 265.392 162.977 265.976 163.761 266.392C164.561 266.808 165.457 267.016 166.449 267.016C167.265 267.016 168.017 266.872 168.705 266.584C169.409 266.28 169.993 265.84 170.457 265.264L171.153 266.056C170.609 266.712 169.921 267.216 169.089 267.568C168.273 267.92 167.385 268.096 166.425 268.096C165.177 268.096 164.065 267.824 163.089 267.28C162.113 266.736 161.345 265.984 160.785 265.024C160.241 264.064 159.969 262.968 159.969 261.736C159.969 260.52 160.225 259.432 160.737 258.472C161.265 257.496 161.985 256.736 162.897 256.192C163.809 255.648 164.833 255.376 165.969 255.376C167.105 255.376 168.121 255.648 169.017 256.192C169.929 256.72 170.641 257.464 171.153 258.424C171.681 259.384 171.945 260.472 171.945 261.688L171.921 262.024ZM165.969 256.432C165.089 256.432 164.297 256.632 163.593 257.032C162.889 257.416 162.321 257.968 161.889 258.688C161.473 259.392 161.233 260.192 161.169 261.088H170.769C170.721 260.192 170.481 259.392 170.049 258.688C169.617 257.984 169.049 257.432 168.345 257.032C167.641 256.632 166.849 256.432 165.969 256.432ZM181.777 255.376C183.345 255.376 184.585 255.832 185.497 256.744C186.409 257.656 186.865 258.968 186.865 260.68V268H185.665V260.776C185.665 259.368 185.305 258.296 184.585 257.56C183.881 256.824 182.889 256.456 181.609 256.456C180.137 256.456 178.977 256.896 178.129 257.776C177.281 258.656 176.857 259.84 176.857 261.328V268H175.657V255.472H176.809V258.184C177.241 257.304 177.881 256.616 178.729 256.12C179.593 255.624 180.609 255.376 181.777 255.376ZM198.022 267.208C197.718 267.496 197.334 267.72 196.87 267.88C196.422 268.024 195.95 268.096 195.454 268.096C194.366 268.096 193.526 267.8 192.934 267.208C192.342 266.6 192.046 265.76 192.046 264.688V256.504H189.742V255.472H192.046V252.736H193.246V255.472H197.23V256.504H193.246V264.568C193.246 265.384 193.438 266.008 193.822 266.44C194.222 266.856 194.806 267.064 195.574 267.064C196.358 267.064 197.006 266.832 197.518 266.368L198.022 267.208ZM211.507 262.024H200.731C200.763 263 201.011 263.872 201.475 264.64C201.939 265.392 202.563 265.976 203.347 266.392C204.147 266.808 205.043 267.016 206.035 267.016C206.851 267.016 207.603 266.872 208.291 266.584C208.995 266.28 209.579 265.84 210.043 265.264L210.739 266.056C210.195 266.712 209.507 267.216 208.675 267.568C207.859 267.92 206.971 268.096 206.011 268.096C204.763 268.096 203.651 267.824 202.675 267.28C201.699 266.736 200.931 265.984 200.371 265.024C199.827 264.064 199.555 262.968 199.555 261.736C199.555 260.52 199.811 259.432 200.323 258.472C200.851 257.496 201.571 256.736 202.483 256.192C203.395 255.648 204.419 255.376 205.555 255.376C206.691 255.376 207.707 255.648 208.603 256.192C209.515 256.72 210.227 257.464 210.739 258.424C211.267 259.384 211.531 260.472 211.531 261.688L211.507 262.024ZM205.555 256.432C204.675 256.432 203.883 256.632 203.179 257.032C202.475 257.416 201.907 257.968 201.475 258.688C201.059 259.392 200.819 260.192 200.755 261.088H210.355C210.307 260.192 210.067 259.392 209.635 258.688C209.203 257.984 208.635 257.432 207.931 257.032C207.227 256.632 206.435 256.432 205.555 256.432ZM226.379 250.192V268H225.203V265.048C224.707 266.024 224.011 266.776 223.115 267.304C222.219 267.832 221.203 268.096 220.067 268.096C218.899 268.096 217.843 267.824 216.899 267.28C215.955 266.736 215.211 265.984 214.667 265.024C214.139 264.064 213.875 262.968 213.875 261.736C213.875 260.504 214.139 259.408 214.667 258.448C215.211 257.472 215.955 256.72 216.899 256.192C217.843 255.648 218.899 255.376 220.067 255.376C221.187 255.376 222.187 255.64 223.067 256.168C223.963 256.696 224.667 257.432 225.179 258.376V250.192H226.379ZM220.139 267.016C221.099 267.016 221.955 266.792 222.707 266.344C223.475 265.896 224.075 265.272 224.507 264.472C224.955 263.672 225.179 262.76 225.179 261.736C225.179 260.712 224.955 259.8 224.507 259C224.075 258.2 223.475 257.576 222.707 257.128C221.955 256.68 221.099 256.456 220.139 256.456C219.179 256.456 218.315 256.68 217.547 257.128C216.795 257.576 216.195 258.2 215.747 259C215.315 259.8 215.099 260.712 215.099 261.736C215.099 262.76 215.315 263.672 215.747 264.472C216.195 265.272 216.795 265.896 217.547 266.344C218.315 266.792 219.179 267.016 220.139 267.016Z" fill="white"/>
<path d="M92.9906 159.95C101.811 159.95 108.321 161.75 112.521 165.35C116.781 168.95 118.911 173.75 118.911 179.75C118.911 183.65 117.891 187.25 115.851 190.55C113.871 193.79 110.811 196.4 106.671 198.38C102.591 200.3 97.5206 201.26 91.4606 201.26C87.0206 201.26 82.6106 200.72 78.2306 199.64C73.9106 198.56 70.1906 197.03 67.0706 195.05L73.4606 181.64C75.9806 183.32 78.7406 184.61 81.7406 185.51C84.8006 186.41 87.8606 186.86 90.9206 186.86C93.9806 186.86 96.4106 186.29 98.2106 185.15C100.071 183.95 101.001 182.3 101.001 180.2C101.001 178.1 100.101 176.51 98.3006 175.43C96.5006 174.35 93.3206 173.81 88.7606 173.81H71.6606L74.8106 137H114.951V150.77H89.5706L88.7606 159.95H92.9906ZM151.889 201.26C146.489 201.26 141.689 199.97 137.489 197.39C133.289 194.81 129.989 191.06 127.589 186.14C125.249 181.16 124.079 175.28 124.079 168.5C124.079 161.72 125.249 155.87 127.589 150.95C129.989 145.97 133.289 142.19 137.489 139.61C141.689 137.03 146.489 135.74 151.889 135.74C157.229 135.74 161.999 137.03 166.199 139.61C170.399 142.19 173.669 145.97 176.009 150.95C178.409 155.87 179.609 161.72 179.609 168.5C179.609 175.28 178.409 181.16 176.009 186.14C173.669 191.06 170.399 194.81 166.199 197.39C161.999 199.97 157.229 201.26 151.889 201.26ZM151.889 186.68C154.889 186.68 157.259 185.24 158.999 182.36C160.799 179.42 161.699 174.8 161.699 168.5C161.699 162.2 160.799 157.61 158.999 154.73C157.259 151.79 154.889 150.32 151.889 150.32C148.829 150.32 146.399 151.79 144.599 154.73C142.859 157.61 141.989 162.2 141.989 168.5C141.989 174.8 142.859 179.42 144.599 182.36C146.399 185.24 148.829 186.68 151.889 186.68ZM232.396 175.07H217.186V189.92H203.326V175.07H188.026V161.93H203.326V147.08H217.186V161.93H232.396V175.07Z" fill="white"/>
<path d="M395.685 191.085V206H343.91V194.22L368.8 170.945C371.207 168.665 372.822 166.733 373.645 165.15C374.468 163.503 374.88 161.857 374.88 160.21C374.88 158.057 374.152 156.378 372.695 155.175C371.238 153.972 369.117 153.37 366.33 153.37C363.86 153.37 361.58 153.94 359.49 155.08C357.463 156.157 355.785 157.74 354.455 159.83L340.49 152.04C343.087 147.733 346.728 144.345 351.415 141.875C356.102 139.405 361.643 138.17 368.04 138.17C373.107 138.17 377.572 138.993 381.435 140.64C385.362 142.287 388.402 144.662 390.555 147.765C392.772 150.805 393.88 154.352 393.88 158.405C393.88 162.015 393.088 165.435 391.505 168.665C389.985 171.832 387.008 175.442 382.575 179.495L370.035 191.085H395.685ZM430.422 207.33C424.722 207.33 419.656 205.968 415.222 203.245C410.789 200.522 407.306 196.563 404.772 191.37C402.302 186.113 401.067 179.907 401.067 172.75C401.067 165.593 402.302 159.418 404.772 154.225C407.306 148.968 410.789 144.978 415.222 142.255C419.656 139.532 424.722 138.17 430.422 138.17C436.059 138.17 441.094 139.532 445.527 142.255C449.961 144.978 453.412 148.968 455.882 154.225C458.416 159.418 459.682 165.593 459.682 172.75C459.682 179.907 458.416 186.113 455.882 191.37C453.412 196.563 449.961 200.522 445.527 203.245C441.094 205.968 436.059 207.33 430.422 207.33ZM430.422 191.94C433.589 191.94 436.091 190.42 437.927 187.38C439.827 184.277 440.777 179.4 440.777 172.75C440.777 166.1 439.827 161.255 437.927 158.215C436.091 155.112 433.589 153.56 430.422 153.56C427.192 153.56 424.627 155.112 422.727 158.215C420.891 161.255 419.972 166.1 419.972 172.75C419.972 179.4 420.891 184.277 422.727 187.38C424.627 190.42 427.192 191.94 430.422 191.94ZM495.457 207.33C489.757 207.33 484.69 205.968 480.257 203.245C475.823 200.522 472.34 196.563 469.807 191.37C467.337 186.113 466.102 179.907 466.102 172.75C466.102 165.593 467.337 159.418 469.807 154.225C472.34 148.968 475.823 144.978 480.257 142.255C484.69 139.532 489.757 138.17 495.457 138.17C501.093 138.17 506.128 139.532 510.562 142.255C514.995 144.978 518.447 148.968 520.917 154.225C523.45 159.418 524.717 165.593 524.717 172.75C524.717 179.907 523.45 186.113 520.917 191.37C518.447 196.563 514.995 200.522 510.562 203.245C506.128 205.968 501.093 207.33 495.457 207.33ZM495.457 191.94C498.623 191.94 501.125 190.42 502.962 187.38C504.862 184.277 505.812 179.4 505.812 172.75C505.812 166.1 504.862 161.255 502.962 158.215C501.125 155.112 498.623 153.56 495.457 153.56C492.227 153.56 489.662 155.112 487.762 158.215C485.925 161.255 485.007 166.1 485.007 172.75C485.007 179.4 485.925 184.277 487.762 187.38C489.662 190.42 492.227 191.94 495.457 191.94ZM560.491 207.33C554.791 207.33 549.724 205.968 545.291 203.245C540.857 200.522 537.374 196.563 534.841 191.37C532.371 186.113 531.136 179.907 531.136 172.75C531.136 165.593 532.371 159.418 534.841 154.225C537.374 148.968 540.857 144.978 545.291 142.255C549.724 139.532 554.791 138.17 560.491 138.17C566.127 138.17 571.162 139.532 575.596 142.255C580.029 144.978 583.481 148.968 585.951 154.225C588.484 159.418 589.751 165.593 589.751 172.75C589.751 179.907 588.484 186.113 585.951 191.37C583.481 196.563 580.029 200.522 575.596 203.245C571.162 205.968 566.127 207.33 560.491 207.33ZM560.491 191.94C563.657 191.94 566.159 190.42 567.996 187.38C569.896 184.277 570.846 179.4 570.846 172.75C570.846 166.1 569.896 161.255 567.996 158.215C566.159 155.112 563.657 153.56 560.491 153.56C557.261 153.56 554.696 155.112 552.796 158.215C550.959 161.255 550.041 166.1 550.041 172.75C550.041 179.4 550.959 184.277 552.796 187.38C554.696 190.42 557.261 191.94 560.491 191.94Z" fill="white"/>
<path d="M464.5 3L318 86.5V260.5L464.5 346.5L615.5 260.5V86.5L464.5 3Z" stroke="url(#paint0_linear_4_9)" stroke-width="5"/>
<path d="M776.5 3L630 86.5V260.5L776.5 346.5L927.5 260.5V86.5L776.5 3Z" stroke="url(#paint1_linear_4_9)" stroke-width="5"/>
<path d="M306.5 271L160 354.5V528.5L306.5 614.5L457.5 528.5V354.5L306.5 271Z" stroke="url(#paint2_linear_4_9)" stroke-width="5"/>
<path d="M149.5 3L3 86.5V260.5L149.5 346.5L300.5 260.5V86.5L149.5 3Z" stroke="url(#paint3_linear_4_9)" stroke-width="5"/>
<path d="M621.5 277L475 360.5V534.5L621.5 620.5L772.5 534.5V360.5L621.5 277Z" stroke="url(#paint4_linear_4_9)" stroke-width="5"/>
<defs>
<linearGradient id="paint0_linear_4_9" x1="466.75" y1="3" x2="466.75" y2="346.5" gradientUnits="userSpaceOnUse">
<stop stop-color="#6E2F62"/>
<stop offset="1" stop-color="#003399"/>
</linearGradient>
<linearGradient id="paint1_linear_4_9" x1="778.75" y1="3" x2="778.75" y2="346.5" gradientUnits="userSpaceOnUse">
<stop stop-color="#003399"/>
<stop offset="1" stop-color="#3399CC"/>
</linearGradient>
<linearGradient id="paint2_linear_4_9" x1="308.75" y1="271" x2="308.75" y2="614.5" gradientUnits="userSpaceOnUse">
<stop stop-color="#003399"/>
<stop offset="1" stop-color="#3399CC"/>
</linearGradient>
<linearGradient id="paint3_linear_4_9" x1="151.75" y1="3" x2="151.75" y2="346.5" gradientUnits="userSpaceOnUse">
<stop stop-color="#CC0000"/>
<stop offset="1" stop-color="#6E2F62"/>
</linearGradient>
<linearGradient id="paint4_linear_4_9" x1="623.75" y1="277" x2="623.75" y2="620.5" gradientUnits="userSpaceOnUse">
<stop stop-color="#CC0000"/>
<stop offset="1" stop-color="#6E2F62"/>
</linearGradient>
</defs>
</svg>
