<svg width="68" height="51" viewBox="0 0 68 51" fill="none" xmlns="http://www.w3.org/2000/svg">
<mask id="mask0" mask-type="alpha" maskUnits="userSpaceOnUse" x="0" y="0" width="68" height="51">
<path d="M66.5081 19.7595H61.1722V17.0939C61.1722 14.2584 59.6685 11.7666 57.4132 10.3615C58.5486 9.26405 59.256 7.73105 59.256 6.03615C59.256 2.70785 56.5322 0 53.1843 0C49.8366 0 47.1128 2.70785 47.1128 6.03615C47.1128 7.7309 47.8202 9.2639 48.9556 10.3615C46.7005 11.7666 45.1966 14.2582 45.1966 17.0939V19.7595H41.9876V17.0939C41.9876 14.2584 40.4839 11.7666 38.2286 10.3615C39.364 9.26405 40.0713 7.73105 40.0713 6.03615C40.0713 2.70785 37.3475 0 33.9998 0C30.652 0 27.9282 2.70785 27.9282 6.03615C27.9282 7.7309 28.6355 9.2639 29.771 10.3615C27.5157 11.7666 26.012 14.2582 26.012 17.0939V19.7595H22.8029V17.0939C22.8029 14.2584 21.2992 11.7666 19.0439 10.3615C20.1794 9.26405 20.8867 7.73105 20.8867 6.03615C20.8867 2.70785 18.1629 0 14.815 0C11.4672 0 8.74373 2.70801 8.74373 6.0363C8.74373 7.73121 9.45106 9.26406 10.5865 10.3616C8.33134 11.7668 6.82764 14.2584 6.82764 17.0941V19.7596H1.49192C0.667908 19.7596 0 20.4236 0 21.2428V41.0865C0 41.9057 0.667908 42.5697 1.49192 42.5697H6.83266V49.5168C6.83266 50.336 7.50057 51 8.32458 51C9.14859 51 9.8165 50.336 9.8165 49.5168V42.5697H58.1833V49.5168C58.1833 50.336 58.8512 51 59.6753 51C60.4993 51 61.1672 50.336 61.1672 49.5168V42.5697H66.5081C67.3321 42.5697 68 41.9057 68 41.0865V21.2428C68 20.4235 67.3322 19.7595 66.5081 19.7595ZM56.2723 6.0363C56.2723 7.72887 54.8871 9.10606 53.1845 9.10606C51.482 9.10606 50.0968 7.72902 50.0968 6.0363C50.0968 4.34358 51.482 2.96655 53.1845 2.96655C54.887 2.96655 56.2723 4.34358 56.2723 6.0363ZM48.1804 17.0939C48.1804 14.3508 50.4252 12.1191 53.1843 12.1191C55.9436 12.1191 58.1884 14.3508 58.1884 17.0939V23.0498C58.1884 23.2644 58.0128 23.4387 57.797 23.4387C57.5812 23.4387 57.4058 23.2642 57.4058 23.0498V18.8486C57.4058 18.0294 56.7379 17.3654 55.9139 17.3654C55.0899 17.3654 54.422 18.0294 54.422 18.8486V19.7593H51.947V18.8486C51.947 18.0294 51.2791 17.3654 50.4551 17.3654C49.631 17.3654 48.9631 18.0294 48.9631 18.8486V23.0498C48.9631 23.2644 48.7876 23.4387 48.5718 23.4387C48.356 23.4387 48.1806 23.2642 48.1806 23.0498V17.0939H48.1804ZM37.0876 6.0363C37.0876 7.72887 35.7025 9.10606 34 9.10606C32.2975 9.10606 30.9122 7.72902 30.9122 6.0363C30.9122 4.34358 32.2973 2.96655 34 2.96655C35.7024 2.96655 37.0876 4.34358 37.0876 6.0363ZM28.996 17.0939C28.996 14.3508 31.2407 12.1191 34 12.1191C36.7591 12.1191 39.0039 14.3508 39.0039 17.0939V23.0498C39.0039 23.2644 38.8285 23.4387 38.6127 23.4387C38.3969 23.4387 38.2213 23.2642 38.2213 23.0498V18.8486C38.2213 18.0294 37.5534 17.3654 36.7294 17.3654C35.9054 17.3654 35.2375 18.0294 35.2375 18.8486V19.7593H32.7625V18.8486C32.7625 18.0294 32.0946 17.3654 31.2706 17.3654C30.4466 17.3654 29.7787 18.0294 29.7787 18.8486V23.0498C29.7787 23.2644 29.6031 23.4387 29.3873 23.4387C29.1715 23.4387 28.996 23.2642 28.996 23.0498V17.0939V17.0939ZM17.903 6.0363C17.903 7.72887 16.5179 9.10606 14.8152 9.10606C13.1125 9.10606 11.7274 7.72902 11.7274 6.0363C11.7274 4.34358 13.1125 2.96655 14.8152 2.96655C16.5179 2.96655 17.903 4.34358 17.903 6.0363ZM9.81132 17.0939C9.81132 14.3508 12.0561 12.1191 14.8152 12.1191C17.5745 12.1191 19.8193 14.3508 19.8193 17.0939V23.0498C19.8193 23.2644 19.6437 23.4387 19.4279 23.4387C19.2121 23.4387 19.0367 23.2642 19.0367 23.0498V18.8486C19.0367 18.0294 18.3688 17.3654 17.5448 17.3654C16.7208 17.3654 16.0529 18.0294 16.0529 18.8486V19.7593H13.5777V18.8486C13.5777 18.0294 12.9098 17.3654 12.0858 17.3654C11.2618 17.3654 10.5939 18.0294 10.5939 18.8486V23.0498C10.5939 23.2644 10.4183 23.4387 10.2025 23.4387C9.98673 23.4387 9.81132 23.2642 9.81132 23.0498V17.0939V17.0939ZM65.0162 39.6029H2.98383V22.7257H6.82748V23.0497C6.82748 24.8998 8.34154 26.405 10.2027 26.405C12.0636 26.405 13.5777 24.8998 13.5777 23.0497V22.7257H16.0529V23.0497C16.0529 24.8998 17.5669 26.405 19.4279 26.405C21.289 26.405 22.8031 24.8998 22.8031 23.0497V22.7257H26.0121V23.0497C26.0121 24.8998 27.5262 26.405 29.3873 26.405C31.2484 26.405 32.7625 24.8998 32.7625 23.0497V22.7257H35.2375V23.0497C35.2375 24.8998 36.7517 26.405 38.6127 26.405C40.4737 26.405 41.9877 24.8998 41.9877 23.0497V22.7257H45.1968V23.0497C45.1968 24.8998 46.711 26.405 48.5719 26.405C50.4329 26.405 51.947 24.8998 51.947 23.0497V22.7257H54.4221V23.0497C54.4221 24.8998 55.9362 26.405 57.7972 26.405C59.6581 26.405 61.1724 24.8998 61.1724 23.0497V22.7257H65.0162V39.6029Z" fill="black"/>
</mask>
<g mask="url(#mask0)">
<rect x="-9" y="-9" width="98" height="65" fill="white"/>
</g>
</svg>
