<svg xmlns="http://www.w3.org/2000/svg" viewBox="0 0 300 200"><style>.st1{fill:#fff}.st2{font-family:&apos;Montserrat-ExtraBold&apos;}.st3{font-size:30px}.st4{font-family:&apos;Montserrat-Bold&apos;}.st5{font-size:10px}.st7{font-size:8px}.st11{font-size:7px}.st13{font-size:6px}</style><g id="Layer_1"><linearGradient id="SVGID_1_" gradientUnits="userSpaceOnUse" x1="-97.344" y1="349.365" x2="-97.344" y2="348.365" gradientTransform="matrix(90 0 0 -98 8816 34250)"><stop offset="0" stop-color="#c00"/><stop offset="1" stop-color="#6e2f62"/></linearGradient><path fill="none" stroke="url(#SVGID_1_)" stroke-width="2" d="M55 12.2l45 24v50l-45 24-45-24v-50z"/><text transform="translate(39.94 61.19)" class="st1 st2 st3">12</text><text transform="translate(17.976 76.19)" class="st1 st4 st5">Past Sponsors</text><linearGradient id="SVGID_2_" gradientUnits="userSpaceOnUse" x1="-97.344" y1="349.365" x2="-97.344" y2="348.365" gradientTransform="matrix(90 0 0 -98 8911 34250)"><stop offset="0" stop-color="#6e2f62"/><stop offset="1" stop-color="#039"/></linearGradient><path fill="none" stroke="url(#SVGID_2_)" stroke-width="2" d="M150 12.2l45 24v50l-45 24-45-24v-50z"/><text transform="translate(133.89 61.19)" class="st1 st2 st3">18</text><text transform="translate(117.084 74.19)" class="st1 st4 st7">Executive Team</text><text transform="translate(128.844 82.19)" class="st1 st4 st7">members</text><linearGradient id="SVGID_3_" gradientUnits="userSpaceOnUse" x1="-97.344" y1="349.365" x2="-97.344" y2="348.365" gradientTransform="matrix(90 0 0 -98 9006 34250)"><stop offset="0" stop-color="#039"/><stop offset="1" stop-color="#39c"/></linearGradient><path fill="none" stroke="url(#SVGID_3_)" stroke-width="2" d="M245 12.2l45 24v50l-45 24-45-24v-50z"/><text transform="translate(211.151 60.817)" class="st1 st2" font-size="22">2000+</text><text transform="translate(214.26 78.189)" class="st1 st4 st5">Subscribers</text><linearGradient id="SVGID_4_" gradientUnits="userSpaceOnUse" x1="-97.339" y1="349.395" x2="-97.339" y2="348.395" gradientTransform="matrix(90 0 0 -98 8863 34331)"><stop offset="0" stop-color="#039"/><stop offset="1" stop-color="#39c"/></linearGradient><path fill="none" stroke="url(#SVGID_4_)" stroke-width="2" d="M102.5 90.3l45 24v50l-45 24-45-24v-50z"/><text transform="translate(83.12 139.311)" class="st1 st2 st3">50</text><text transform="translate(63.748 152.311)" class="st1 st4 st11">Academic disciplines</text><text transform="translate(79.313 159.311)" class="st1 st4 st11">represented</text><linearGradient id="SVGID_5_" gradientUnits="userSpaceOnUse" x1="-97.361" y1="349.395" x2="-97.361" y2="348.395" gradientTransform="matrix(90 0 0 -98 8960 34331)"><stop offset="0" stop-color="#c00"/><stop offset="1" stop-color="#6e2f62"/></linearGradient><path fill="none" stroke="url(#SVGID_5_)" stroke-width="2" d="M197.5 90.3l45 24v50l-45 24-45-24v-50z"/><text transform="translate(166.01 140.312)" class="st1 st2 st3">34%</text><text transform="translate(168.136 153.311)" class="st1 st4 st13">Graduate students</text><text transform="translate(160.426 159.311)" class="st1 st4 st13">attending ImplementAI</text></g></svg>