<?xml version="1.0" encoding="utf-8"?>
<!-- Generator: Adobe Illustrator 23.0.4, SVG Export Plug-In . SVG Version: 6.00 Build 0)  -->
<svg version="1.1" id="Layer_1" xmlns="http://www.w3.org/2000/svg" xmlns:xlink="http://www.w3.org/1999/xlink" x="0px" y="0px"
	 viewBox="0 0 282 178.4" style="enable-background:new 0 0 282 178.4;" xml:space="preserve">
<style type="text/css">
	.st0{fill:none;stroke:url(#SVGID_1_);stroke-width:2;}
	.st1{enable-background:new    ;}
	.st2{fill:#FFFFFF;}
	.st3{fill:none;stroke:url(#SVGID_2_);stroke-width:2;}
	.st4{fill:none;stroke:url(#SVGID_3_);stroke-width:2;}
	.st5{fill:none;stroke:url(#SVGID_4_);stroke-width:2;}
	.st6{fill:none;stroke:url(#SVGID_5_);stroke-width:2;}
</style>
<linearGradient id="SVGID_1_" gradientUnits="userSpaceOnUse" x1="-204.2444" y1="-7.9112" x2="-204.2444" y2="-6.9112" gradientTransform="matrix(90 0 0 98 18428 776.4667)">
	<stop  offset="0" style="stop-color:#CC0000"/>
	<stop  offset="1" style="stop-color:#6E2F62"/>
</linearGradient>
<path class="st0" d="M46,1.1l45,24v50l-45,24l-45-24v-50L46,1.1z"/>
<g class="st1">
	<path class="st2" d="M41,29.1v21H35V33.7h-3.9v-4.6H41z"/>
	<path class="st2" d="M60.3,45.4v4.7H44v-3.7l7.9-7.4c0.8-0.7,1.3-1.3,1.5-1.8c0.3-0.5,0.4-1,0.4-1.5c0-0.7-0.2-1.2-0.7-1.6
		c-0.5-0.4-1.1-0.6-2-0.6c-0.8,0-1.5,0.2-2.1,0.5s-1.2,0.9-1.6,1.5l-4.4-2.5c0.8-1.4,2-2.4,3.5-3.2c1.5-0.8,3.2-1.2,5.2-1.2
		c1.6,0,3,0.3,4.2,0.8c1.2,0.5,2.2,1.3,2.9,2.2c0.7,1,1,2.1,1,3.4c0,1.1-0.2,2.2-0.7,3.2s-1.4,2.2-2.8,3.4l-4,3.7H60.3z"/>
</g>
<g class="st1">
	<path class="st2" d="M14.5,58.4c0.5,0.2,0.8,0.5,1.1,0.9c0.2,0.4,0.4,0.8,0.4,1.3c0,0.5-0.1,1-0.4,1.3c-0.2,0.4-0.6,0.7-1.1,0.9
		c-0.5,0.2-1,0.3-1.6,0.3h-1.4v1.9H9.8v-7h3C13.5,58.1,14,58.2,14.5,58.4z M13.9,61.6c0.3-0.2,0.4-0.5,0.4-0.9
		c0-0.4-0.1-0.7-0.4-0.9s-0.6-0.3-1.1-0.3h-1.3v2.4h1.3C13.2,61.9,13.6,61.8,13.9,61.6z"/>
	<path class="st2" d="M21,60.3c0.4,0.4,0.7,1,0.7,1.8v3.1h-1.5v-0.7c-0.3,0.5-0.8,0.8-1.6,0.8c-0.4,0-0.8-0.1-1.1-0.2
		c-0.3-0.1-0.5-0.3-0.7-0.6c-0.2-0.2-0.2-0.5-0.2-0.8c0-0.5,0.2-0.9,0.6-1.2c0.4-0.3,1-0.4,1.7-0.4h1.2c0-0.3-0.1-0.6-0.3-0.8
		c-0.2-0.2-0.5-0.3-0.9-0.3c-0.3,0-0.6,0-0.8,0.1c-0.3,0.1-0.5,0.2-0.7,0.4l-0.6-1.1c0.3-0.2,0.6-0.4,1.1-0.5s0.8-0.2,1.3-0.2
		C19.9,59.7,20.5,59.9,21,60.3z M19.6,64c0.2-0.1,0.4-0.3,0.4-0.5v-0.5H19c-0.6,0-1,0.2-1,0.6c0,0.2,0.1,0.4,0.2,0.5
		c0.2,0.1,0.4,0.2,0.6,0.2C19.2,64.2,19.4,64.1,19.6,64z"/>
	<path class="st2" d="M23.5,65c-0.4-0.1-0.8-0.2-1-0.4l0.5-1.1c0.2,0.2,0.5,0.3,0.9,0.4c0.3,0.1,0.7,0.1,1,0.1c0.7,0,1-0.2,1-0.5
		c0-0.2-0.1-0.3-0.3-0.3s-0.5-0.1-0.8-0.2c-0.4-0.1-0.8-0.1-1.1-0.2c-0.3-0.1-0.5-0.2-0.7-0.5c-0.2-0.2-0.3-0.5-0.3-0.9
		c0-0.3,0.1-0.6,0.3-0.9s0.5-0.5,0.9-0.6s0.8-0.2,1.3-0.2c0.4,0,0.8,0,1.1,0.1c0.4,0.1,0.7,0.2,0.9,0.3l-0.5,1.1
		c-0.5-0.3-1-0.4-1.6-0.4c-0.3,0-0.6,0-0.8,0.1c-0.2,0.1-0.2,0.2-0.2,0.4c0,0.2,0.1,0.3,0.3,0.4c0.2,0.1,0.5,0.1,0.9,0.2
		c0.4,0.1,0.8,0.2,1.1,0.2c0.3,0.1,0.5,0.2,0.7,0.5c0.2,0.2,0.3,0.5,0.3,0.9c0,0.3-0.1,0.6-0.3,0.9s-0.5,0.5-0.9,0.6
		c-0.4,0.1-0.8,0.2-1.4,0.2C24.4,65.2,24,65.1,23.5,65z"/>
	<path class="st2" d="M31.8,64.9c-0.2,0.1-0.3,0.2-0.6,0.3c-0.2,0.1-0.5,0.1-0.7,0.1c-0.6,0-1.1-0.2-1.5-0.5
		c-0.4-0.3-0.5-0.8-0.5-1.4v-2.2h-0.8v-1.2h0.8v-1.3h1.6v1.3h1.3v1.2h-1.3v2.2c0,0.2,0.1,0.4,0.2,0.5c0.1,0.1,0.3,0.2,0.5,0.2
		c0.2,0,0.5-0.1,0.6-0.2L31.8,64.9z"/>
	<path class="st2" d="M36.3,65c-0.5-0.1-0.9-0.3-1.2-0.6l0.6-1.2c0.3,0.2,0.7,0.4,1.1,0.5s0.8,0.2,1.2,0.2c0.5,0,0.8-0.1,1-0.2
		c0.2-0.1,0.3-0.3,0.3-0.5c0-0.2-0.1-0.3-0.2-0.4c-0.1-0.1-0.3-0.2-0.5-0.3c-0.2-0.1-0.5-0.1-0.8-0.2c-0.5-0.1-1-0.3-1.3-0.4
		c-0.3-0.1-0.6-0.3-0.9-0.6c-0.2-0.3-0.4-0.7-0.4-1.1c0-0.4,0.1-0.8,0.3-1.1s0.6-0.6,1-0.8s1-0.3,1.6-0.3c0.4,0,0.9,0.1,1.3,0.2
		c0.4,0.1,0.8,0.3,1.1,0.5l-0.5,1.2c-0.6-0.4-1.3-0.6-1.9-0.6c-0.5,0-0.8,0.1-1,0.2s-0.3,0.3-0.3,0.6c0,0.2,0.1,0.4,0.4,0.5
		c0.2,0.1,0.6,0.2,1.1,0.3c0.5,0.1,1,0.3,1.3,0.4c0.3,0.1,0.6,0.3,0.9,0.6c0.2,0.3,0.4,0.6,0.4,1.1c0,0.4-0.1,0.8-0.3,1.1
		c-0.2,0.3-0.6,0.6-1,0.8c-0.4,0.2-1,0.3-1.6,0.3C37.4,65.2,36.8,65.2,36.3,65z"/>
	<path class="st2" d="M46.5,60c0.4,0.2,0.7,0.6,1,1c0.2,0.4,0.4,0.9,0.4,1.5c0,0.6-0.1,1-0.4,1.5c-0.2,0.4-0.6,0.7-1,1
		c-0.4,0.2-0.9,0.3-1.4,0.3c-0.7,0-1.2-0.2-1.6-0.7v2.5h-1.6v-7.3h1.5v0.6c0.4-0.5,1-0.7,1.7-0.7C45.6,59.7,46,59.8,46.5,60z
		 M45.8,63.5c0.3-0.3,0.4-0.6,0.4-1.1c0-0.5-0.1-0.8-0.4-1.1c-0.3-0.3-0.6-0.4-1-0.4s-0.7,0.1-1,0.4c-0.3,0.3-0.4,0.6-0.4,1.1
		c0,0.5,0.1,0.8,0.4,1.1c0.3,0.3,0.6,0.4,1,0.4S45.5,63.8,45.8,63.5z"/>
	<path class="st2" d="M49.8,64.8c-0.4-0.2-0.8-0.6-1.1-1c-0.3-0.4-0.4-0.9-0.4-1.4c0-0.5,0.1-1,0.4-1.4c0.3-0.4,0.6-0.7,1.1-1
		c0.5-0.2,1-0.4,1.5-0.4c0.6,0,1.1,0.1,1.5,0.4c0.4,0.2,0.8,0.6,1.1,1s0.4,0.9,0.4,1.4c0,0.5-0.1,1-0.4,1.4s-0.6,0.7-1.1,1
		c-0.4,0.2-1,0.4-1.5,0.4C50.8,65.2,50.3,65.1,49.8,64.8z M52.4,63.5c0.3-0.3,0.4-0.6,0.4-1.1c0-0.5-0.1-0.8-0.4-1.1
		c-0.3-0.3-0.6-0.4-1-0.4c-0.4,0-0.7,0.1-1,0.4C50.1,61.6,50,62,50,62.4c0,0.5,0.1,0.8,0.4,1.1c0.3,0.3,0.6,0.4,1,0.4
		C51.8,63.9,52.1,63.8,52.4,63.5z"/>
	<path class="st2" d="M60.2,60.3c0.4,0.4,0.6,1,0.6,1.8v3.1h-1.6v-2.8c0-0.4-0.1-0.7-0.3-1S58.6,61,58.2,61c-0.4,0-0.7,0.1-0.9,0.4
		s-0.4,0.6-0.4,1.1v2.7h-1.6v-5.4h1.5v0.6c0.2-0.2,0.5-0.4,0.8-0.5c0.3-0.1,0.6-0.2,1-0.2C59.3,59.7,59.8,59.9,60.2,60.3z"/>
	<path class="st2" d="M62.8,65c-0.4-0.1-0.8-0.2-1-0.4l0.5-1.1c0.2,0.2,0.5,0.3,0.9,0.4c0.3,0.1,0.7,0.1,1,0.1c0.7,0,1-0.2,1-0.5
		c0-0.2-0.1-0.3-0.3-0.3S64.4,63.1,64,63c-0.4-0.1-0.8-0.1-1.1-0.2c-0.3-0.1-0.5-0.2-0.7-0.5c-0.2-0.2-0.3-0.5-0.3-0.9
		c0-0.3,0.1-0.6,0.3-0.9s0.5-0.5,0.9-0.6s0.8-0.2,1.3-0.2c0.4,0,0.8,0,1.1,0.1c0.4,0.1,0.7,0.2,0.9,0.3l-0.5,1.1
		c-0.5-0.3-1-0.4-1.6-0.4c-0.3,0-0.6,0-0.8,0.1c-0.2,0.1-0.2,0.2-0.2,0.4c0,0.2,0.1,0.3,0.3,0.4c0.2,0.1,0.5,0.1,0.9,0.2
		c0.4,0.1,0.8,0.2,1.1,0.2c0.3,0.1,0.5,0.2,0.7,0.5c0.2,0.2,0.3,0.5,0.3,0.9c0,0.3-0.1,0.6-0.3,0.9s-0.5,0.5-0.9,0.6
		c-0.4,0.1-0.8,0.2-1.4,0.2C63.6,65.2,63.2,65.1,62.8,65z"/>
	<path class="st2" d="M68.6,64.8c-0.4-0.2-0.8-0.6-1.1-1c-0.3-0.4-0.4-0.9-0.4-1.4c0-0.5,0.1-1,0.4-1.4c0.3-0.4,0.6-0.7,1.1-1
		c0.5-0.2,1-0.4,1.5-0.4c0.6,0,1.1,0.1,1.5,0.4c0.4,0.2,0.8,0.6,1.1,1s0.4,0.9,0.4,1.4c0,0.5-0.1,1-0.4,1.4s-0.6,0.7-1.1,1
		c-0.4,0.2-1,0.4-1.5,0.4C69.6,65.2,69.1,65.1,68.6,64.8z M71.1,63.5c0.3-0.3,0.4-0.6,0.4-1.1c0-0.5-0.1-0.8-0.4-1.1
		c-0.3-0.3-0.6-0.4-1-0.4c-0.4,0-0.7,0.1-1,0.4c-0.3,0.3-0.4,0.6-0.4,1.1c0,0.5,0.1,0.8,0.4,1.1c0.3,0.3,0.6,0.4,1,0.4
		C70.5,63.9,70.9,63.8,71.1,63.5z"/>
	<path class="st2" d="M76.4,59.9c0.3-0.1,0.7-0.2,1.1-0.2v1.4c-0.2,0-0.3,0-0.4,0c-0.4,0-0.8,0.1-1,0.4c-0.3,0.2-0.4,0.6-0.4,1.1
		v2.5h-1.6v-5.4h1.5v0.7C75.8,60.2,76.1,60,76.4,59.9z"/>
	<path class="st2" d="M78.9,65c-0.4-0.1-0.8-0.2-1-0.4l0.5-1.1c0.2,0.2,0.5,0.3,0.9,0.4c0.3,0.1,0.7,0.1,1,0.1c0.7,0,1-0.2,1-0.5
		c0-0.2-0.1-0.3-0.3-0.3s-0.5-0.1-0.8-0.2c-0.4-0.1-0.8-0.1-1.1-0.2c-0.3-0.1-0.5-0.2-0.7-0.5c-0.2-0.2-0.3-0.5-0.3-0.9
		c0-0.3,0.1-0.6,0.3-0.9s0.5-0.5,0.9-0.6s0.8-0.2,1.3-0.2c0.4,0,0.8,0,1.1,0.1c0.4,0.1,0.7,0.2,0.9,0.3l-0.5,1.1
		c-0.5-0.3-1-0.4-1.6-0.4c-0.3,0-0.6,0-0.8,0.1c-0.2,0.1-0.2,0.2-0.2,0.4c0,0.2,0.1,0.3,0.3,0.4c0.2,0.1,0.5,0.1,0.9,0.2
		c0.4,0.1,0.8,0.2,1.1,0.2c0.3,0.1,0.5,0.2,0.7,0.5c0.2,0.2,0.3,0.5,0.3,0.9c0,0.3-0.1,0.6-0.3,0.9S82,64.8,81.6,65
		c-0.4,0.1-0.8,0.2-1.4,0.2C79.8,65.2,79.4,65.1,78.9,65z"/>
</g>
<linearGradient id="SVGID_2_" gradientUnits="userSpaceOnUse" x1="-204.2444" y1="-7.9112" x2="-204.2444" y2="-6.9112" gradientTransform="matrix(90 0 0 98 18523 776.4667)">
	<stop  offset="0" style="stop-color:#6E2F62"/>
	<stop  offset="1" style="stop-color:#003399"/>
</linearGradient>
<path class="st3" d="M141,1.1l45,24v50l-45,24l-45-24v-50L141,1.1z"/>
<g class="st1">
	<path class="st2" d="M134.9,29.1v21H129V33.7h-3.9v-4.6H134.9z"/>
	<path class="st2" d="M155.4,41.1c0.5,0.8,0.8,1.8,0.8,2.8c0,1.3-0.4,2.5-1.1,3.5c-0.8,1-1.8,1.8-3.2,2.3s-3,0.8-4.8,0.8
		s-3.4-0.3-4.8-0.8s-2.5-1.3-3.2-2.3c-0.8-1-1.1-2.2-1.1-3.5c0-1.1,0.3-2,0.8-2.8c0.5-0.8,1.3-1.5,2.2-2.1c-0.7-0.5-1.3-1.1-1.7-1.8
		c-0.4-0.7-0.6-1.5-0.6-2.4c0-1.2,0.3-2.3,1.1-3.2c0.7-0.9,1.7-1.6,3-2.1c1.3-0.5,2.7-0.8,4.4-0.8s3.1,0.2,4.4,0.8
		c1.3,0.5,2.3,1.2,3,2.1c0.7,0.9,1,2,1,3.2c0,0.9-0.2,1.7-0.6,2.4c-0.4,0.7-0.9,1.3-1.7,1.8C154.1,39.6,154.9,40.3,155.4,41.1z
		 M149.4,45.7c0.6-0.5,0.9-1.1,0.9-1.9c0-0.8-0.3-1.4-0.9-1.9c-0.6-0.5-1.3-0.7-2.3-0.7s-1.7,0.2-2.3,0.7s-0.9,1.1-0.9,1.9
		c0,0.8,0.3,1.4,0.9,1.9c0.6,0.5,1.3,0.7,2.3,0.7S148.8,46.1,149.4,45.7z M145.3,33.5c-0.5,0.4-0.7,0.9-0.7,1.6
		c0,0.7,0.2,1.2,0.7,1.6c0.4,0.4,1.1,0.6,1.8,0.6s1.4-0.2,1.8-0.6c0.5-0.4,0.7-0.9,0.7-1.6c0-0.7-0.2-1.2-0.7-1.6s-1.1-0.6-1.8-0.6
		C146.3,32.9,145.7,33.1,145.3,33.5z"/>
</g>
<g class="st1">
	<path class="st2" d="M113.1,62.1v1h-4.3v-5.6h4.2v1H110v1.2h2.6v1H110v1.3H113.1z"/>
	<path class="st2" d="M116.7,63.1l-0.9-1.3l-1,1.3h-1.4l1.7-2.2l-1.6-2.1h1.4l0.9,1.3l0.9-1.3h1.3l-1.6,2.1l1.7,2.2H116.7z"/>
	<path class="st2" d="M122.8,61.3h-3.3c0.1,0.3,0.2,0.5,0.4,0.6c0.2,0.2,0.5,0.2,0.8,0.2c0.2,0,0.4,0,0.6-0.1s0.3-0.2,0.5-0.3
		l0.7,0.7c-0.4,0.5-1,0.7-1.8,0.7c-0.5,0-0.9-0.1-1.3-0.3c-0.4-0.2-0.7-0.5-0.9-0.8s-0.3-0.7-0.3-1.1c0-0.4,0.1-0.8,0.3-1.1
		c0.2-0.3,0.5-0.6,0.8-0.8c0.3-0.2,0.7-0.3,1.2-0.3c0.4,0,0.8,0.1,1.1,0.3c0.3,0.2,0.6,0.4,0.8,0.8c0.2,0.3,0.3,0.7,0.3,1.2
		C122.8,61,122.8,61.1,122.8,61.3z M119.9,59.9c-0.2,0.2-0.3,0.4-0.4,0.7h2.1c0-0.3-0.2-0.5-0.4-0.7c-0.2-0.2-0.4-0.2-0.7-0.2
		C120.3,59.7,120.1,59.8,119.9,59.9z"/>
	<path class="st2" d="M124.5,62.9c-0.4-0.2-0.7-0.5-0.9-0.8c-0.2-0.3-0.3-0.7-0.3-1.1s0.1-0.8,0.3-1.1c0.2-0.3,0.5-0.6,0.9-0.8
		s0.8-0.3,1.2-0.3c0.5,0,0.8,0.1,1.2,0.3c0.3,0.2,0.6,0.5,0.7,0.8l-1,0.5c-0.2-0.4-0.5-0.6-1-0.6c-0.3,0-0.6,0.1-0.8,0.3
		c-0.2,0.2-0.3,0.5-0.3,0.9c0,0.4,0.1,0.7,0.3,0.9c0.2,0.2,0.5,0.3,0.8,0.3c0.4,0,0.7-0.2,1-0.6l1,0.5c-0.2,0.3-0.4,0.6-0.7,0.8
		c-0.3,0.2-0.7,0.3-1.2,0.3C125.3,63.2,124.9,63.1,124.5,62.9z"/>
	<path class="st2" d="M132.7,58.8v4.3h-1.2v-0.5c-0.2,0.2-0.4,0.3-0.6,0.4c-0.2,0.1-0.5,0.1-0.7,0.1c-0.6,0-1-0.2-1.3-0.5
		s-0.5-0.8-0.5-1.4v-2.4h1.2v2.2c0,0.7,0.3,1,0.9,1c0.3,0,0.5-0.1,0.7-0.3c0.2-0.2,0.3-0.5,0.3-0.9v-2.1H132.7z"/>
	<path class="st2" d="M136.6,62.9c-0.1,0.1-0.3,0.2-0.5,0.2s-0.4,0.1-0.6,0.1c-0.5,0-0.9-0.1-1.2-0.4c-0.3-0.3-0.4-0.6-0.4-1.2v-1.8
		h-0.7v-1h0.7v-1h1.2v1h1.1v1h-1.1v1.8c0,0.2,0,0.3,0.1,0.4c0.1,0.1,0.2,0.1,0.4,0.1c0.2,0,0.4-0.1,0.5-0.2L136.6,62.9z"/>
	<path class="st2" d="M137.4,58c-0.1-0.1-0.2-0.3-0.2-0.5s0.1-0.4,0.2-0.5c0.1-0.1,0.3-0.2,0.6-0.2c0.2,0,0.4,0.1,0.6,0.2
		c0.1,0.1,0.2,0.3,0.2,0.5c0,0.2-0.1,0.4-0.2,0.5c-0.1,0.1-0.3,0.2-0.6,0.2C137.7,58.2,137.6,58.2,137.4,58z M137.3,58.8h1.2v4.3
		h-1.2V58.8z"/>
	<path class="st2" d="M144,58.8l-1.8,4.3h-1.3l-1.8-4.3h1.3l1.2,2.9l1.2-2.9H144z"/>
	<path class="st2" d="M148.6,61.3h-3.3c0.1,0.3,0.2,0.5,0.4,0.6c0.2,0.2,0.5,0.2,0.8,0.2c0.2,0,0.4,0,0.6-0.1
		c0.2-0.1,0.3-0.2,0.5-0.3l0.7,0.7c-0.4,0.5-1,0.7-1.8,0.7c-0.5,0-0.9-0.1-1.3-0.3c-0.4-0.2-0.7-0.5-0.9-0.8
		c-0.2-0.3-0.3-0.7-0.3-1.1c0-0.4,0.1-0.8,0.3-1.1c0.2-0.3,0.5-0.6,0.8-0.8c0.3-0.2,0.7-0.3,1.2-0.3c0.4,0,0.8,0.1,1.1,0.3
		c0.3,0.2,0.6,0.4,0.8,0.8c0.2,0.3,0.3,0.7,0.3,1.2C148.6,61,148.6,61.1,148.6,61.3z M145.7,59.9c-0.2,0.2-0.3,0.4-0.4,0.7h2.1
		c0-0.3-0.2-0.5-0.4-0.7c-0.2-0.2-0.4-0.2-0.7-0.2C146.1,59.7,145.9,59.8,145.7,59.9z"/>
	<path class="st2" d="M153,58.6h-1.8v-1.1h4.9v1.1h-1.8v4.5H153V58.6z"/>
	<path class="st2" d="M160.4,61.3h-3.3c0.1,0.3,0.2,0.5,0.4,0.6s0.5,0.2,0.8,0.2c0.2,0,0.4,0,0.6-0.1c0.2-0.1,0.3-0.2,0.5-0.3
		l0.7,0.7c-0.4,0.5-1,0.7-1.8,0.7c-0.5,0-0.9-0.1-1.3-0.3s-0.7-0.5-0.9-0.8c-0.2-0.3-0.3-0.7-0.3-1.1c0-0.4,0.1-0.8,0.3-1.1
		s0.5-0.6,0.8-0.8s0.7-0.3,1.2-0.3c0.4,0,0.8,0.1,1.1,0.3c0.3,0.2,0.6,0.4,0.8,0.8c0.2,0.3,0.3,0.7,0.3,1.2
		C160.5,61,160.4,61.1,160.4,61.3z M157.5,59.9c-0.2,0.2-0.3,0.4-0.4,0.7h2.1c0-0.3-0.2-0.5-0.4-0.7c-0.2-0.2-0.4-0.2-0.7-0.2
		C157.9,59.7,157.7,59.8,157.5,59.9z"/>
	<path class="st2" d="M164.4,59.2c0.4,0.3,0.5,0.8,0.5,1.4v2.5h-1.2v-0.5c-0.2,0.4-0.7,0.6-1.3,0.6c-0.3,0-0.6-0.1-0.9-0.2
		c-0.2-0.1-0.4-0.3-0.6-0.5c-0.1-0.2-0.2-0.4-0.2-0.7c0-0.4,0.2-0.7,0.5-0.9c0.3-0.2,0.8-0.3,1.4-0.3h1c0-0.3-0.1-0.5-0.2-0.6
		c-0.2-0.1-0.4-0.2-0.7-0.2c-0.2,0-0.5,0-0.7,0.1c-0.2,0.1-0.4,0.2-0.6,0.3l-0.4-0.9c0.2-0.2,0.5-0.3,0.8-0.4c0.3-0.1,0.7-0.1,1-0.1
		C163.6,58.8,164.1,58.9,164.4,59.2z M163.4,62.2c0.2-0.1,0.3-0.2,0.4-0.4v-0.4h-0.9c-0.5,0-0.8,0.2-0.8,0.5c0,0.2,0.1,0.3,0.2,0.4
		c0.1,0.1,0.3,0.1,0.5,0.1C163,62.3,163.2,62.3,163.4,62.2z"/>
	<path class="st2" d="M172.9,59.2c0.3,0.3,0.5,0.8,0.5,1.4v2.5h-1.2v-2.3c0-0.3-0.1-0.6-0.2-0.8c-0.1-0.2-0.3-0.3-0.6-0.3
		c-0.3,0-0.5,0.1-0.7,0.3c-0.2,0.2-0.3,0.5-0.3,0.8v2.2h-1.2v-2.3c0-0.7-0.3-1-0.8-1c-0.3,0-0.5,0.1-0.7,0.3s-0.3,0.5-0.3,0.8v2.2
		h-1.2v-4.3h1.2v0.5c0.2-0.2,0.4-0.3,0.6-0.4c0.2-0.1,0.5-0.1,0.8-0.1c0.3,0,0.6,0.1,0.8,0.2c0.2,0.1,0.4,0.3,0.6,0.5
		c0.2-0.2,0.4-0.4,0.7-0.5c0.3-0.1,0.6-0.2,0.9-0.2C172.2,58.8,172.6,58.9,172.9,59.2z"/>
</g>
<g class="st1">
	<path class="st2" d="M127.2,67.2c0.3,0.3,0.5,0.8,0.5,1.4v2.5h-1.2v-2.3c0-0.3-0.1-0.6-0.2-0.8c-0.1-0.2-0.3-0.3-0.6-0.3
		c-0.3,0-0.5,0.1-0.7,0.3c-0.2,0.2-0.3,0.5-0.3,0.8v2.2h-1.2v-2.3c0-0.7-0.3-1-0.8-1c-0.3,0-0.5,0.1-0.7,0.3s-0.3,0.5-0.3,0.8v2.2
		h-1.2v-4.3h1.2v0.5c0.2-0.2,0.4-0.3,0.6-0.4c0.2-0.1,0.5-0.1,0.8-0.1c0.3,0,0.6,0.1,0.8,0.2c0.2,0.1,0.4,0.3,0.6,0.5
		c0.2-0.2,0.4-0.4,0.7-0.5c0.3-0.1,0.6-0.2,0.9-0.2C126.5,66.8,126.9,66.9,127.2,67.2z"/>
	<path class="st2" d="M133,69.3h-3.3c0.1,0.3,0.2,0.5,0.4,0.6c0.2,0.2,0.5,0.2,0.8,0.2c0.2,0,0.4,0,0.6-0.1c0.2-0.1,0.3-0.2,0.5-0.3
		l0.7,0.7c-0.4,0.5-1,0.7-1.8,0.7c-0.5,0-0.9-0.1-1.3-0.3c-0.4-0.2-0.7-0.5-0.9-0.8c-0.2-0.3-0.3-0.7-0.3-1.1c0-0.4,0.1-0.8,0.3-1.1
		c0.2-0.3,0.5-0.6,0.8-0.8c0.3-0.2,0.7-0.3,1.2-0.3c0.4,0,0.8,0.1,1.1,0.3c0.3,0.2,0.6,0.4,0.8,0.8c0.2,0.3,0.3,0.7,0.3,1.2
		C133.1,69,133.1,69.1,133,69.3z M130.1,67.9c-0.2,0.2-0.3,0.4-0.4,0.7h2.1c0-0.3-0.2-0.5-0.4-0.7c-0.2-0.2-0.4-0.2-0.7-0.2
		C130.5,67.7,130.3,67.8,130.1,67.9z"/>
	<path class="st2" d="M140.7,67.2c0.3,0.3,0.5,0.8,0.5,1.4v2.5h-1.2v-2.3c0-0.3-0.1-0.6-0.2-0.8c-0.1-0.2-0.3-0.3-0.6-0.3
		c-0.3,0-0.5,0.1-0.7,0.3c-0.2,0.2-0.3,0.5-0.3,0.8v2.2h-1.2v-2.3c0-0.7-0.3-1-0.8-1c-0.3,0-0.5,0.1-0.7,0.3s-0.3,0.5-0.3,0.8v2.2
		h-1.2v-4.3h1.2v0.5c0.2-0.2,0.4-0.3,0.6-0.4c0.2-0.1,0.5-0.1,0.8-0.1c0.3,0,0.6,0.1,0.8,0.2c0.2,0.1,0.4,0.3,0.6,0.5
		c0.2-0.2,0.4-0.4,0.7-0.5c0.3-0.1,0.6-0.2,0.9-0.2C139.9,66.8,140.4,66.9,140.7,67.2z"/>
	<path class="st2" d="M145.9,67c0.3,0.2,0.6,0.4,0.8,0.8c0.2,0.3,0.3,0.7,0.3,1.2c0,0.4-0.1,0.8-0.3,1.2c-0.2,0.3-0.4,0.6-0.8,0.8
		c-0.3,0.2-0.7,0.3-1.1,0.3c-0.6,0-1-0.2-1.4-0.6v0.5h-1.2v-5.9h1.2v2.1c0.3-0.3,0.7-0.5,1.3-0.5C145.2,66.8,145.6,66.8,145.9,67z
		 M145.4,69.8c0.2-0.2,0.3-0.5,0.3-0.9c0-0.4-0.1-0.7-0.3-0.9c-0.2-0.2-0.5-0.3-0.8-0.3c-0.3,0-0.6,0.1-0.8,0.3
		c-0.2,0.2-0.3,0.5-0.3,0.9c0,0.4,0.1,0.7,0.3,0.9c0.2,0.2,0.5,0.3,0.8,0.3C144.9,70.2,145.2,70.1,145.4,69.8z"/>
	<path class="st2" d="M152,69.3h-3.3c0.1,0.3,0.2,0.5,0.4,0.6c0.2,0.2,0.5,0.2,0.8,0.2c0.2,0,0.4,0,0.6-0.1c0.2-0.1,0.3-0.2,0.5-0.3
		l0.7,0.7c-0.4,0.5-1,0.7-1.8,0.7c-0.5,0-0.9-0.1-1.3-0.3c-0.4-0.2-0.7-0.5-0.9-0.8c-0.2-0.3-0.3-0.7-0.3-1.1c0-0.4,0.1-0.8,0.3-1.1
		c0.2-0.3,0.5-0.6,0.8-0.8c0.3-0.2,0.7-0.3,1.2-0.3c0.4,0,0.8,0.1,1.1,0.3c0.3,0.2,0.6,0.4,0.8,0.8c0.2,0.3,0.3,0.7,0.3,1.2
		C152,69,152,69.1,152,69.3z M149.1,67.9c-0.2,0.2-0.3,0.4-0.4,0.7h2.1c0-0.3-0.2-0.5-0.4-0.7c-0.2-0.2-0.4-0.2-0.7-0.2
		C149.5,67.7,149.3,67.8,149.1,67.9z"/>
	<path class="st2" d="M154.6,66.9c0.3-0.1,0.5-0.2,0.9-0.2v1.2c-0.1,0-0.2,0-0.3,0c-0.4,0-0.6,0.1-0.8,0.3c-0.2,0.2-0.3,0.5-0.3,0.9
		v2h-1.2v-4.3h1.2v0.6C154.2,67.2,154.4,67,154.6,66.9z"/>
	<path class="st2" d="M156.7,71.1c-0.3-0.1-0.6-0.2-0.8-0.3l0.4-0.9c0.2,0.1,0.4,0.2,0.7,0.3c0.3,0.1,0.5,0.1,0.8,0.1
		c0.5,0,0.8-0.1,0.8-0.4c0-0.1-0.1-0.2-0.2-0.3c-0.1-0.1-0.4-0.1-0.7-0.1c-0.4-0.1-0.6-0.1-0.9-0.2c-0.2-0.1-0.4-0.2-0.6-0.4
		c-0.2-0.2-0.3-0.4-0.3-0.8c0-0.3,0.1-0.5,0.2-0.7c0.2-0.2,0.4-0.4,0.7-0.5c0.3-0.1,0.7-0.2,1.1-0.2c0.3,0,0.6,0,0.9,0.1
		c0.3,0.1,0.6,0.2,0.7,0.3l-0.4,0.9c-0.4-0.2-0.8-0.3-1.2-0.3c-0.3,0-0.5,0-0.6,0.1c-0.1,0.1-0.2,0.2-0.2,0.3c0,0.1,0.1,0.2,0.2,0.3
		c0.1,0.1,0.4,0.1,0.7,0.2c0.4,0.1,0.6,0.1,0.9,0.2c0.2,0.1,0.4,0.2,0.6,0.4c0.2,0.2,0.2,0.4,0.2,0.7c0,0.3-0.1,0.5-0.2,0.7
		s-0.4,0.4-0.7,0.5c-0.3,0.1-0.7,0.2-1.1,0.2C157.4,71.2,157,71.1,156.7,71.1z"/>
</g>
<linearGradient id="SVGID_3_" gradientUnits="userSpaceOnUse" x1="-204.2444" y1="-7.9112" x2="-204.2444" y2="-6.9112" gradientTransform="matrix(90 0 0 98 18618 776.4667)">
	<stop  offset="0" style="stop-color:#003399"/>
	<stop  offset="1" style="stop-color:#3399CC"/>
</linearGradient>
<path class="st4" d="M236,1.1l45,24v50l-45,24l-45-24v-50L236,1.1z"/>
<g class="st1">
	<path class="st2" d="M214.8,46.3v3.5h-12V47l5.8-5.4c0.6-0.5,0.9-1,1.1-1.4c0.2-0.4,0.3-0.8,0.3-1.1c0-0.5-0.2-0.9-0.5-1.2
		c-0.3-0.3-0.8-0.4-1.5-0.4c-0.6,0-1.1,0.1-1.6,0.4s-0.9,0.6-1.2,1.1l-3.2-1.8c0.6-1,1.4-1.8,2.5-2.4c1.1-0.6,2.4-0.9,3.9-0.9
		c1.2,0,2.2,0.2,3.1,0.6c0.9,0.4,1.6,0.9,2.1,1.6c0.5,0.7,0.8,1.5,0.8,2.5c0,0.8-0.2,1.6-0.5,2.4c-0.4,0.7-1.1,1.6-2.1,2.5l-2.9,2.7
		H214.8z"/>
	<path class="st2" d="M219.4,49.1c-1-0.6-1.8-1.6-2.4-2.8c-0.6-1.2-0.9-2.6-0.9-4.3c0-1.7,0.3-3.1,0.9-4.3c0.6-1.2,1.4-2.1,2.4-2.8
		s2.2-0.9,3.5-0.9c1.3,0,2.5,0.3,3.5,0.9c1,0.6,1.8,1.6,2.4,2.8c0.6,1.2,0.9,2.6,0.9,4.3c0,1.7-0.3,3.1-0.9,4.3
		c-0.6,1.2-1.4,2.1-2.4,2.8c-1,0.6-2.2,0.9-3.5,0.9C221.6,50.1,220.4,49.7,219.4,49.1z M224.6,45.4c0.4-0.7,0.6-1.8,0.6-3.4
		s-0.2-2.7-0.6-3.4c-0.4-0.7-1-1.1-1.7-1.1c-0.7,0-1.3,0.4-1.8,1.1c-0.4,0.7-0.6,1.8-0.6,3.4s0.2,2.7,0.6,3.4c0.4,0.7,1,1.1,1.8,1.1
		C223.6,46.5,224.2,46.1,224.6,45.4z"/>
	<path class="st2" d="M234.4,49.1c-1-0.6-1.8-1.6-2.4-2.8c-0.6-1.2-0.9-2.6-0.9-4.3c0-1.7,0.3-3.1,0.9-4.3c0.6-1.2,1.4-2.1,2.4-2.8
		s2.2-0.9,3.5-0.9c1.3,0,2.5,0.3,3.5,0.9c1,0.6,1.8,1.6,2.4,2.8c0.6,1.2,0.9,2.6,0.9,4.3c0,1.7-0.3,3.1-0.9,4.3
		c-0.6,1.2-1.4,2.1-2.4,2.8c-1,0.6-2.2,0.9-3.5,0.9C236.6,50.1,235.5,49.7,234.4,49.1z M239.7,45.4c0.4-0.7,0.6-1.8,0.6-3.4
		s-0.2-2.7-0.6-3.4c-0.4-0.7-1-1.1-1.7-1.1c-0.7,0-1.3,0.4-1.8,1.1c-0.4,0.7-0.6,1.8-0.6,3.4s0.2,2.7,0.6,3.4c0.4,0.7,1,1.1,1.8,1.1
		C238.7,46.5,239.3,46.1,239.7,45.4z"/>
	<path class="st2" d="M249.5,49.1c-1-0.6-1.8-1.6-2.4-2.8s-0.9-2.6-0.9-4.3c0-1.7,0.3-3.1,0.9-4.3s1.4-2.1,2.4-2.8
		c1-0.6,2.2-0.9,3.5-0.9c1.3,0,2.5,0.3,3.5,0.9s1.8,1.6,2.4,2.8s0.9,2.6,0.9,4.3c0,1.7-0.3,3.1-0.9,4.3s-1.4,2.1-2.4,2.8
		s-2.2,0.9-3.5,0.9C251.7,50.1,250.5,49.7,249.5,49.1z M254.8,45.4c0.4-0.7,0.6-1.8,0.6-3.4s-0.2-2.7-0.6-3.4
		c-0.4-0.7-1-1.1-1.7-1.1c-0.7,0-1.3,0.4-1.8,1.1c-0.4,0.7-0.6,1.8-0.6,3.4s0.2,2.7,0.6,3.4c0.4,0.7,1,1.1,1.8,1.1
		C253.7,46.5,254.3,46.1,254.8,45.4z"/>
	<path class="st2" d="M272.7,43.7H269v3.6h-3.4v-3.6h-3.7v-3.2h3.7v-3.6h3.4v3.6h3.7V43.7z"/>
</g>
<g class="st1">
	<path class="st2" d="M206.8,67c-0.5-0.1-0.9-0.3-1.2-0.6l0.5-1.2c0.3,0.2,0.7,0.4,1.1,0.5c0.4,0.1,0.8,0.2,1.2,0.2
		c0.5,0,0.8-0.1,1-0.2s0.3-0.3,0.3-0.5c0-0.2-0.1-0.3-0.2-0.4c-0.1-0.1-0.3-0.2-0.5-0.3c-0.2-0.1-0.5-0.1-0.8-0.2
		c-0.5-0.1-1-0.3-1.3-0.4s-0.6-0.3-0.9-0.6c-0.2-0.3-0.4-0.7-0.4-1.1c0-0.4,0.1-0.8,0.3-1.1c0.2-0.3,0.6-0.6,1-0.8s1-0.3,1.6-0.3
		c0.4,0,0.9,0.1,1.3,0.2c0.4,0.1,0.8,0.3,1.1,0.5l-0.5,1.2c-0.6-0.4-1.3-0.6-1.9-0.6c-0.5,0-0.8,0.1-1,0.2s-0.3,0.3-0.3,0.6
		c0,0.2,0.1,0.4,0.4,0.5c0.2,0.1,0.6,0.2,1.1,0.3c0.5,0.1,1,0.3,1.3,0.4s0.6,0.3,0.9,0.6s0.4,0.6,0.4,1.1c0,0.4-0.1,0.8-0.3,1.1
		c-0.2,0.3-0.6,0.6-1,0.8c-0.4,0.2-1,0.3-1.6,0.3C207.8,67.2,207.3,67.2,206.8,67z"/>
	<path class="st2" d="M217.8,61.7v5.4h-1.5v-0.6c-0.2,0.2-0.5,0.4-0.7,0.5c-0.3,0.1-0.6,0.2-0.9,0.2c-0.7,0-1.3-0.2-1.7-0.6
		c-0.4-0.4-0.6-1-0.6-1.8v-3h1.6v2.8c0,0.9,0.4,1.3,1.1,1.3c0.4,0,0.7-0.1,0.9-0.4s0.3-0.6,0.3-1.1v-2.7H217.8z"/>
	<path class="st2" d="M223.8,62c0.4,0.2,0.7,0.6,1,1c0.2,0.4,0.3,0.9,0.3,1.5c0,0.6-0.1,1-0.3,1.5c-0.2,0.4-0.6,0.7-1,1
		c-0.4,0.2-0.9,0.3-1.4,0.3c-0.7,0-1.3-0.2-1.7-0.7v0.6h-1.5v-7.4h1.6v2.6c0.4-0.4,0.9-0.7,1.6-0.7C222.9,61.7,223.4,61.8,223.8,62z
		 M223.1,65.5c0.3-0.3,0.4-0.6,0.4-1.1c0-0.5-0.1-0.8-0.4-1.1c-0.3-0.3-0.6-0.4-1-0.4c-0.4,0-0.7,0.1-1,0.4
		c-0.3,0.3-0.4,0.6-0.4,1.1c0,0.5,0.1,0.8,0.4,1.1c0.3,0.3,0.6,0.4,1,0.4C222.5,65.9,222.9,65.8,223.1,65.5z"/>
	<path class="st2" d="M226.6,67c-0.4-0.1-0.8-0.2-1-0.4l0.5-1.1c0.2,0.2,0.5,0.3,0.9,0.4s0.7,0.1,1,0.1c0.7,0,1-0.2,1-0.5
		c0-0.2-0.1-0.3-0.3-0.3c-0.2-0.1-0.5-0.1-0.8-0.2c-0.4-0.1-0.8-0.1-1.1-0.2c-0.3-0.1-0.5-0.2-0.7-0.5c-0.2-0.2-0.3-0.5-0.3-0.9
		c0-0.3,0.1-0.6,0.3-0.9c0.2-0.3,0.5-0.5,0.9-0.6c0.4-0.1,0.8-0.2,1.3-0.2c0.4,0,0.8,0,1.1,0.1c0.4,0.1,0.7,0.2,0.9,0.3l-0.5,1.1
		c-0.5-0.3-1-0.4-1.6-0.4c-0.3,0-0.6,0-0.8,0.1c-0.2,0.1-0.2,0.2-0.2,0.4c0,0.2,0.1,0.3,0.3,0.4s0.5,0.1,0.9,0.2
		c0.4,0.1,0.8,0.2,1.1,0.2c0.3,0.1,0.5,0.2,0.7,0.5s0.3,0.5,0.3,0.9c0,0.3-0.1,0.6-0.3,0.9s-0.5,0.5-0.9,0.6
		c-0.4,0.1-0.8,0.2-1.4,0.2C227.5,67.2,227.1,67.1,226.6,67z"/>
	<path class="st2" d="M232.5,66.8c-0.5-0.2-0.8-0.6-1.1-1c-0.3-0.4-0.4-0.9-0.4-1.4c0-0.5,0.1-1,0.4-1.4c0.3-0.4,0.6-0.7,1.1-1
		c0.5-0.2,1-0.4,1.5-0.4c0.6,0,1.1,0.1,1.5,0.4c0.4,0.2,0.7,0.6,0.9,1l-1.2,0.6c-0.3-0.5-0.7-0.7-1.2-0.7c-0.4,0-0.7,0.1-1,0.4
		s-0.4,0.6-0.4,1.1s0.1,0.8,0.4,1.1s0.6,0.4,1,0.4c0.5,0,0.9-0.2,1.2-0.7l1.2,0.7c-0.2,0.4-0.5,0.8-0.9,1c-0.4,0.2-0.9,0.4-1.5,0.4
		C233.5,67.2,233,67.1,232.5,66.8z"/>
	<path class="st2" d="M239.6,61.9c0.3-0.1,0.7-0.2,1.1-0.2v1.4c-0.2,0-0.3,0-0.3,0c-0.4,0-0.8,0.1-1,0.4c-0.3,0.2-0.4,0.6-0.4,1.1
		v2.5h-1.6v-5.4h1.5v0.7C239,62.2,239.3,62,239.6,61.9z"/>
	<path class="st2" d="M241.7,60.7c-0.2-0.2-0.3-0.4-0.3-0.6c0-0.2,0.1-0.5,0.3-0.6c0.2-0.2,0.4-0.2,0.7-0.2c0.3,0,0.5,0.1,0.7,0.2
		s0.3,0.4,0.3,0.6c0,0.3-0.1,0.5-0.3,0.6s-0.4,0.3-0.7,0.3C242.1,61,241.9,60.9,241.7,60.7z M241.6,61.7h1.6v5.4h-1.6V61.7z"/>
	<path class="st2" d="M249.2,62c0.4,0.2,0.7,0.6,1,1c0.2,0.4,0.3,0.9,0.3,1.5c0,0.6-0.1,1-0.3,1.5c-0.2,0.4-0.6,0.7-1,1
		c-0.4,0.2-0.9,0.3-1.4,0.3c-0.7,0-1.3-0.2-1.7-0.7v0.6h-1.5v-7.4h1.6v2.6c0.4-0.4,0.9-0.7,1.6-0.7C248.3,61.7,248.8,61.8,249.2,62z
		 M248.5,65.5c0.3-0.3,0.4-0.6,0.4-1.1c0-0.5-0.1-0.8-0.4-1.1c-0.3-0.3-0.6-0.4-1-0.4c-0.4,0-0.7,0.1-1,0.4
		c-0.3,0.3-0.4,0.6-0.4,1.1c0,0.5,0.1,0.8,0.4,1.1c0.3,0.3,0.6,0.4,1,0.4C247.9,65.9,248.3,65.8,248.5,65.5z"/>
	<path class="st2" d="M256.8,64.9h-4.1c0.1,0.3,0.2,0.6,0.5,0.8c0.3,0.2,0.6,0.3,1,0.3c0.3,0,0.5,0,0.7-0.1s0.4-0.2,0.6-0.4l0.8,0.9
		c-0.5,0.6-1.2,0.9-2.2,0.9c-0.6,0-1.1-0.1-1.6-0.4c-0.5-0.2-0.8-0.6-1.1-1c-0.3-0.4-0.4-0.9-0.4-1.4c0-0.5,0.1-1,0.4-1.4
		c0.2-0.4,0.6-0.8,1-1c0.4-0.2,0.9-0.4,1.5-0.4c0.5,0,1,0.1,1.4,0.3c0.4,0.2,0.8,0.6,1,1c0.2,0.4,0.4,0.9,0.4,1.5
		C256.8,64.5,256.8,64.6,256.8,64.9z M253.1,63.1c-0.2,0.2-0.4,0.5-0.4,0.8h2.6c-0.1-0.3-0.2-0.6-0.4-0.8c-0.2-0.2-0.5-0.3-0.9-0.3
		C253.7,62.8,253.4,62.9,253.1,63.1z"/>
	<path class="st2" d="M260.1,61.9c0.3-0.1,0.7-0.2,1.1-0.2v1.4c-0.2,0-0.3,0-0.4,0c-0.4,0-0.8,0.1-1,0.4s-0.4,0.6-0.4,1.1v2.5h-1.6
		v-5.4h1.5v0.7C259.5,62.2,259.8,62,260.1,61.9z"/>
	<path class="st2" d="M262.6,67c-0.4-0.1-0.8-0.2-1-0.4l0.5-1.1c0.2,0.2,0.5,0.3,0.9,0.4s0.7,0.1,1,0.1c0.7,0,1-0.2,1-0.5
		c0-0.2-0.1-0.3-0.3-0.3c-0.2-0.1-0.5-0.1-0.8-0.2c-0.4-0.1-0.8-0.1-1.1-0.2c-0.3-0.1-0.5-0.2-0.7-0.5c-0.2-0.2-0.3-0.5-0.3-0.9
		c0-0.3,0.1-0.6,0.3-0.9c0.2-0.3,0.5-0.5,0.9-0.6c0.4-0.1,0.8-0.2,1.3-0.2c0.4,0,0.8,0,1.1,0.1c0.4,0.1,0.7,0.2,0.9,0.3l-0.5,1.1
		c-0.5-0.3-1-0.4-1.6-0.4c-0.3,0-0.6,0-0.8,0.1c-0.2,0.1-0.2,0.2-0.2,0.4c0,0.2,0.1,0.3,0.3,0.4s0.5,0.1,0.9,0.2
		c0.4,0.1,0.8,0.2,1.1,0.2c0.3,0.1,0.5,0.2,0.7,0.5s0.3,0.5,0.3,0.9c0,0.3-0.1,0.6-0.3,0.9s-0.5,0.5-0.9,0.6
		c-0.4,0.1-0.8,0.2-1.4,0.2C263.5,67.2,263.1,67.1,262.6,67z"/>
</g>
<linearGradient id="SVGID_4_" gradientUnits="userSpaceOnUse" x1="-204.2389" y1="-7.9412" x2="-204.2389" y2="-6.9412" gradientTransform="matrix(90 0 0 98 18475 857.4667)">
	<stop  offset="0" style="stop-color:#003399"/>
	<stop  offset="1" style="stop-color:#3399CC"/>
</linearGradient>
<path class="st5" d="M93.5,79.2l45,24v50l-45,24l-45-24v-50L93.5,79.2z"/>
<g class="st1">
	<path class="st2" d="M89.5,116.7c1.4,1.2,2.1,2.8,2.1,4.8c0,1.3-0.3,2.5-1,3.6c-0.7,1.1-1.7,2-3.1,2.6c-1.4,0.6-3.1,1-5.1,1
		c-1.5,0-2.9-0.2-4.4-0.5c-1.5-0.4-2.7-0.9-3.7-1.5l2.1-4.5c0.8,0.6,1.8,1,2.8,1.3c1,0.3,2,0.5,3,0.5s1.8-0.2,2.4-0.6
		c0.6-0.4,0.9-0.9,0.9-1.6s-0.3-1.2-0.9-1.6c-0.6-0.4-1.7-0.5-3.2-0.5h-5.7l1-12.3h13.4v4.6h-8.5l-0.3,3.1H83
		C85.9,114.9,88.1,115.5,89.5,116.7z"/>
	<path class="st2" d="M97.8,127.4c-1.4-0.9-2.5-2.1-3.3-3.8c-0.8-1.7-1.2-3.6-1.2-5.9c0-2.3,0.4-4.2,1.2-5.9
		c0.8-1.6,1.9-2.9,3.3-3.8c1.4-0.9,3-1.3,4.8-1.3c1.8,0,3.4,0.4,4.8,1.3c1.4,0.9,2.5,2.1,3.3,3.8c0.8,1.7,1.2,3.6,1.2,5.9
		c0,2.3-0.4,4.2-1.2,5.9c-0.8,1.6-1.9,2.9-3.3,3.8c-1.4,0.9-3,1.3-4.8,1.3C100.8,128.7,99.2,128.2,97.8,127.4z M105,122.3
		c0.6-1,0.9-2.5,0.9-4.6s-0.3-3.6-0.9-4.6c-0.6-1-1.4-1.5-2.4-1.5c-1,0-1.8,0.5-2.4,1.5c-0.6,1-0.9,2.5-0.9,4.6s0.3,3.6,0.9,4.6
		c0.6,1,1.4,1.5,2.4,1.5C103.6,123.8,104.4,123.3,105,122.3z"/>
</g>
<g class="st1">
	<path class="st2" d="M58.6,140.2h-2.3l-0.4,1h-1.2l2.2-4.9H58l2.2,4.9H59L58.6,140.2z M58.2,139.3l-0.8-1.9l-0.8,1.9H58.2z"/>
	<path class="st2" d="M61.3,141.1c-0.3-0.2-0.6-0.4-0.7-0.7c-0.2-0.3-0.3-0.6-0.3-1s0.1-0.7,0.3-1c0.2-0.3,0.4-0.5,0.7-0.7
		c0.3-0.2,0.7-0.2,1.1-0.2c0.4,0,0.7,0.1,1,0.2c0.3,0.2,0.5,0.4,0.6,0.7l-0.8,0.5c-0.2-0.3-0.5-0.5-0.8-0.5c-0.3,0-0.5,0.1-0.7,0.3
		c-0.2,0.2-0.3,0.4-0.3,0.8s0.1,0.6,0.3,0.8s0.4,0.3,0.7,0.3c0.4,0,0.7-0.2,0.8-0.5l0.8,0.5c-0.1,0.3-0.4,0.5-0.6,0.7
		s-0.6,0.3-1,0.3C62,141.3,61.6,141.2,61.3,141.1z"/>
	<path class="st2" d="M67.6,137.8c0.3,0.3,0.5,0.7,0.5,1.3v2.1h-1v-0.5c-0.2,0.3-0.6,0.5-1.1,0.5c-0.3,0-0.5,0-0.8-0.1
		c-0.2-0.1-0.4-0.2-0.5-0.4c-0.1-0.2-0.2-0.4-0.2-0.6c0-0.3,0.1-0.6,0.4-0.8c0.3-0.2,0.7-0.3,1.2-0.3H67c0-0.2-0.1-0.4-0.2-0.5
		c-0.1-0.1-0.4-0.2-0.7-0.2c-0.2,0-0.4,0-0.6,0.1c-0.2,0.1-0.4,0.1-0.5,0.3l-0.4-0.8c0.2-0.1,0.5-0.3,0.7-0.3
		c0.3-0.1,0.6-0.1,0.9-0.1C66.8,137.4,67.3,137.6,67.6,137.8z M66.6,140.4c0.1-0.1,0.2-0.2,0.3-0.4v-0.4h-0.7
		c-0.4,0-0.7,0.1-0.7,0.4c0,0.1,0.1,0.3,0.2,0.3c0.1,0.1,0.3,0.1,0.5,0.1C66.3,140.6,66.5,140.5,66.6,140.4z"/>
	<path class="st2" d="M72.9,136v5.2h-1v-0.4c-0.3,0.3-0.7,0.5-1.2,0.5c-0.4,0-0.7-0.1-1-0.2c-0.3-0.2-0.5-0.4-0.7-0.7
		c-0.2-0.3-0.2-0.6-0.2-1s0.1-0.7,0.2-1c0.2-0.3,0.4-0.5,0.7-0.7c0.3-0.2,0.6-0.2,1-0.2c0.5,0,0.9,0.2,1.1,0.5V136H72.9z
		 M71.6,140.1c0.2-0.2,0.3-0.4,0.3-0.8s-0.1-0.6-0.3-0.8c-0.2-0.2-0.4-0.3-0.7-0.3c-0.3,0-0.5,0.1-0.7,0.3c-0.2,0.2-0.3,0.4-0.3,0.8
		s0.1,0.6,0.3,0.8c0.2,0.2,0.4,0.3,0.7,0.3C71.1,140.4,71.4,140.3,71.6,140.1z"/>
	<path class="st2" d="M77.6,139.7h-2.8c0.1,0.2,0.2,0.4,0.4,0.6c0.2,0.1,0.4,0.2,0.7,0.2c0.2,0,0.4,0,0.5-0.1
		c0.2-0.1,0.3-0.2,0.4-0.3l0.6,0.6c-0.4,0.4-0.9,0.6-1.6,0.6c-0.4,0-0.8-0.1-1.1-0.2s-0.6-0.4-0.8-0.7c-0.2-0.3-0.3-0.6-0.3-1
		c0-0.4,0.1-0.7,0.3-1c0.2-0.3,0.4-0.5,0.7-0.7c0.3-0.2,0.6-0.2,1-0.2c0.4,0,0.7,0.1,1,0.2s0.5,0.4,0.7,0.7c0.2,0.3,0.3,0.6,0.3,1
		C77.6,139.4,77.6,139.5,77.6,139.7z M75,138.5c-0.2,0.1-0.3,0.3-0.3,0.6h1.9c0-0.2-0.1-0.4-0.3-0.6s-0.4-0.2-0.6-0.2
		C75.4,138.2,75.2,138.3,75,138.5z"/>
	<path class="st2" d="M84.3,137.8c0.3,0.3,0.4,0.7,0.4,1.2v2.2h-1.1v-2c0-0.3-0.1-0.5-0.2-0.7c-0.1-0.1-0.3-0.2-0.5-0.2
		c-0.3,0-0.5,0.1-0.6,0.2c-0.1,0.2-0.2,0.4-0.2,0.7v1.9H81v-2c0-0.6-0.2-0.9-0.7-0.9c-0.3,0-0.5,0.1-0.6,0.2
		c-0.1,0.2-0.2,0.4-0.2,0.7v1.9h-1.1v-3.8h1v0.4c0.1-0.2,0.3-0.3,0.5-0.4s0.4-0.1,0.7-0.1c0.3,0,0.5,0.1,0.7,0.2
		c0.2,0.1,0.4,0.3,0.5,0.5c0.2-0.2,0.3-0.3,0.6-0.5c0.2-0.1,0.5-0.2,0.8-0.2C83.6,137.4,84,137.6,84.3,137.8z"/>
	<path class="st2" d="M85.7,136.8c-0.1-0.1-0.2-0.3-0.2-0.4c0-0.2,0.1-0.3,0.2-0.4s0.3-0.2,0.5-0.2s0.4,0.1,0.5,0.2s0.2,0.3,0.2,0.4
		c0,0.2-0.1,0.3-0.2,0.5s-0.3,0.2-0.5,0.2S85.8,136.9,85.7,136.8z M85.7,137.5h1.1v3.8h-1.1V137.5z"/>
	<path class="st2" d="M88.5,141.1c-0.3-0.2-0.6-0.4-0.7-0.7c-0.2-0.3-0.3-0.6-0.3-1s0.1-0.7,0.3-1c0.2-0.3,0.4-0.5,0.7-0.7
		c0.3-0.2,0.7-0.2,1.1-0.2c0.4,0,0.7,0.1,1,0.2c0.3,0.2,0.5,0.4,0.6,0.7l-0.8,0.5c-0.2-0.3-0.5-0.5-0.8-0.5c-0.3,0-0.5,0.1-0.7,0.3
		c-0.2,0.2-0.3,0.4-0.3,0.8s0.1,0.6,0.3,0.8s0.4,0.3,0.7,0.3c0.4,0,0.7-0.2,0.8-0.5l0.8,0.5c-0.1,0.3-0.4,0.5-0.6,0.7
		s-0.6,0.3-1,0.3C89.2,141.3,88.8,141.2,88.5,141.1z"/>
	<path class="st2" d="M97.7,136v5.2h-1v-0.4c-0.3,0.3-0.7,0.5-1.2,0.5c-0.4,0-0.7-0.1-1-0.2c-0.3-0.2-0.5-0.4-0.7-0.7
		c-0.2-0.3-0.2-0.6-0.2-1s0.1-0.7,0.2-1c0.2-0.3,0.4-0.5,0.7-0.7c0.3-0.2,0.6-0.2,1-0.2c0.5,0,0.9,0.2,1.1,0.5V136H97.7z
		 M96.4,140.1c0.2-0.2,0.3-0.4,0.3-0.8s-0.1-0.6-0.3-0.8c-0.2-0.2-0.4-0.3-0.7-0.3c-0.3,0-0.5,0.1-0.7,0.3c-0.2,0.2-0.3,0.4-0.3,0.8
		s0.1,0.6,0.3,0.8c0.2,0.2,0.4,0.3,0.7,0.3C96,140.4,96.2,140.3,96.4,140.1z"/>
	<path class="st2" d="M98.8,136.8c-0.1-0.1-0.2-0.3-0.2-0.4c0-0.2,0.1-0.3,0.2-0.4s0.3-0.2,0.5-0.2s0.4,0.1,0.5,0.2s0.2,0.3,0.2,0.4
		c0,0.2-0.1,0.3-0.2,0.5s-0.3,0.2-0.5,0.2S98.9,136.9,98.8,136.8z M98.7,137.5h1.1v3.8h-1.1V137.5z"/>
	<path class="st2" d="M101.2,141.2c-0.3-0.1-0.5-0.2-0.7-0.3l0.4-0.8c0.2,0.1,0.4,0.2,0.6,0.3c0.2,0.1,0.5,0.1,0.7,0.1
		c0.5,0,0.7-0.1,0.7-0.3c0-0.1-0.1-0.2-0.2-0.2s-0.3-0.1-0.6-0.1c-0.3,0-0.6-0.1-0.8-0.2s-0.4-0.2-0.5-0.3c-0.1-0.2-0.2-0.4-0.2-0.7
		c0-0.2,0.1-0.4,0.2-0.6s0.3-0.3,0.6-0.4s0.6-0.2,0.9-0.2c0.3,0,0.5,0,0.8,0.1s0.5,0.1,0.7,0.2l-0.4,0.8c-0.3-0.2-0.7-0.3-1.1-0.3
		c-0.2,0-0.4,0-0.5,0.1c-0.1,0.1-0.2,0.1-0.2,0.3c0,0.1,0.1,0.2,0.2,0.2c0.1,0,0.3,0.1,0.6,0.1c0.3,0.1,0.6,0.1,0.8,0.2
		c0.2,0.1,0.4,0.2,0.5,0.3s0.2,0.4,0.2,0.6c0,0.2-0.1,0.4-0.2,0.6c-0.1,0.2-0.3,0.3-0.6,0.4c-0.3,0.1-0.6,0.2-1,0.2
		C101.8,141.3,101.5,141.3,101.2,141.2z"/>
	<path class="st2" d="M105.3,141.1c-0.3-0.2-0.6-0.4-0.7-0.7c-0.2-0.3-0.3-0.6-0.3-1s0.1-0.7,0.3-1c0.2-0.3,0.4-0.5,0.7-0.7
		c0.3-0.2,0.7-0.2,1.1-0.2c0.4,0,0.7,0.1,1,0.2c0.3,0.2,0.5,0.4,0.6,0.7l-0.8,0.5c-0.2-0.3-0.5-0.5-0.8-0.5c-0.3,0-0.5,0.1-0.7,0.3
		c-0.2,0.2-0.3,0.4-0.3,0.8s0.1,0.6,0.3,0.8s0.4,0.3,0.7,0.3c0.4,0,0.7-0.2,0.8-0.5l0.8,0.5c-0.1,0.3-0.4,0.5-0.6,0.7
		s-0.6,0.3-1,0.3C106,141.3,105.6,141.2,105.3,141.1z"/>
	<path class="st2" d="M108.7,136.8c-0.1-0.1-0.2-0.3-0.2-0.4c0-0.2,0.1-0.3,0.2-0.4s0.3-0.2,0.5-0.2s0.4,0.1,0.5,0.2
		s0.2,0.3,0.2,0.4c0,0.2-0.1,0.3-0.2,0.5s-0.3,0.2-0.5,0.2S108.9,136.9,108.7,136.8z M108.7,137.5h1.1v3.8h-1.1V137.5z"/>
	<path class="st2" d="M114,137.7c0.3,0.2,0.5,0.4,0.7,0.7c0.2,0.3,0.2,0.6,0.2,1s-0.1,0.7-0.2,1c-0.2,0.3-0.4,0.5-0.7,0.7
		s-0.6,0.2-1,0.2c-0.5,0-0.9-0.2-1.1-0.5v1.8h-1.1v-5.1h1v0.4c0.3-0.3,0.7-0.5,1.2-0.5C113.4,137.4,113.7,137.5,114,137.7z
		 M113.5,140.1c0.2-0.2,0.3-0.4,0.3-0.8s-0.1-0.6-0.3-0.8c-0.2-0.2-0.4-0.3-0.7-0.3s-0.5,0.1-0.7,0.3c-0.2,0.2-0.3,0.4-0.3,0.8
		s0.1,0.6,0.3,0.8c0.2,0.2,0.4,0.3,0.7,0.3S113.3,140.3,113.5,140.1z"/>
	<path class="st2" d="M115.6,136h1.1v5.2h-1.1V136z"/>
	<path class="st2" d="M117.8,136.8c-0.1-0.1-0.2-0.3-0.2-0.4c0-0.2,0.1-0.3,0.2-0.4s0.3-0.2,0.5-0.2s0.4,0.1,0.5,0.2
		s0.2,0.3,0.2,0.4c0,0.2-0.1,0.3-0.2,0.5s-0.3,0.2-0.5,0.2S117.9,136.9,117.8,136.8z M117.7,137.5h1.1v3.8h-1.1V137.5z"/>
	<path class="st2" d="M123.2,137.8c0.3,0.3,0.4,0.7,0.4,1.2v2.2h-1.1v-2c0-0.3-0.1-0.5-0.2-0.7c-0.1-0.1-0.3-0.2-0.6-0.2
		c-0.3,0-0.5,0.1-0.7,0.3c-0.2,0.2-0.2,0.4-0.2,0.8v1.9h-1.1v-3.8h1v0.4c0.1-0.2,0.3-0.3,0.5-0.4s0.5-0.1,0.7-0.1
		C122.6,137.4,123,137.6,123.2,137.8z"/>
	<path class="st2" d="M128.4,139.7h-2.8c0.1,0.2,0.2,0.4,0.4,0.6c0.2,0.1,0.4,0.2,0.7,0.2c0.2,0,0.4,0,0.5-0.1
		c0.2-0.1,0.3-0.2,0.4-0.3l0.6,0.6c-0.4,0.4-0.9,0.6-1.6,0.6c-0.4,0-0.8-0.1-1.1-0.2s-0.6-0.4-0.8-0.7c-0.2-0.3-0.3-0.6-0.3-1
		c0-0.4,0.1-0.7,0.3-1c0.2-0.3,0.4-0.5,0.7-0.7c0.3-0.2,0.6-0.2,1-0.2c0.4,0,0.7,0.1,1,0.2s0.5,0.4,0.7,0.7c0.2,0.3,0.3,0.6,0.3,1
		C128.4,139.4,128.4,139.5,128.4,139.7z M125.8,138.5c-0.2,0.1-0.3,0.3-0.3,0.6h1.9c0-0.2-0.1-0.4-0.3-0.6s-0.4-0.2-0.6-0.2
		C126.2,138.2,126,138.3,125.8,138.5z"/>
	<path class="st2" d="M129.5,141.2c-0.3-0.1-0.5-0.2-0.7-0.3l0.4-0.8c0.2,0.1,0.4,0.2,0.6,0.3c0.2,0.1,0.5,0.1,0.7,0.1
		c0.5,0,0.7-0.1,0.7-0.3c0-0.1-0.1-0.2-0.2-0.2s-0.3-0.1-0.6-0.1c-0.3,0-0.6-0.1-0.8-0.2s-0.4-0.2-0.5-0.3c-0.1-0.2-0.2-0.4-0.2-0.7
		c0-0.2,0.1-0.4,0.2-0.6s0.3-0.3,0.6-0.4s0.6-0.2,0.9-0.2c0.3,0,0.5,0,0.8,0.1s0.5,0.1,0.7,0.2l-0.4,0.8c-0.3-0.2-0.7-0.3-1.1-0.3
		c-0.2,0-0.4,0-0.5,0.1c-0.1,0.1-0.2,0.1-0.2,0.3c0,0.1,0.1,0.2,0.2,0.2c0.1,0,0.3,0.1,0.6,0.1c0.3,0.1,0.6,0.1,0.8,0.2
		c0.2,0.1,0.4,0.2,0.5,0.3s0.2,0.4,0.2,0.6c0,0.2-0.1,0.4-0.2,0.6c-0.1,0.2-0.3,0.3-0.6,0.4c-0.3,0.1-0.6,0.2-1,0.2
		C130.1,141.3,129.8,141.3,129.5,141.2z"/>
</g>
<g class="st1">
	<path class="st2" d="M72.4,144.6c0.2-0.1,0.5-0.1,0.8-0.1v1c-0.1,0-0.2,0-0.2,0c-0.3,0-0.6,0.1-0.7,0.3s-0.3,0.4-0.3,0.8v1.8h-1.1
		v-3.8h1v0.5C72,144.8,72.2,144.7,72.4,144.6z"/>
	<path class="st2" d="M77.4,146.7h-2.8c0.1,0.2,0.2,0.4,0.4,0.6c0.2,0.1,0.4,0.2,0.7,0.2c0.2,0,0.4,0,0.5-0.1
		c0.2-0.1,0.3-0.2,0.4-0.3l0.6,0.6c-0.4,0.4-0.9,0.6-1.6,0.6c-0.4,0-0.8-0.1-1.1-0.2s-0.6-0.4-0.8-0.7c-0.2-0.3-0.3-0.6-0.3-1
		c0-0.4,0.1-0.7,0.3-1c0.2-0.3,0.4-0.5,0.7-0.7c0.3-0.2,0.6-0.2,1-0.2c0.4,0,0.7,0.1,1,0.2s0.5,0.4,0.7,0.7c0.2,0.3,0.3,0.6,0.3,1
		C77.5,146.4,77.5,146.5,77.4,146.7z M74.9,145.5c-0.2,0.1-0.3,0.3-0.3,0.6h1.9c0-0.2-0.1-0.4-0.3-0.6s-0.4-0.2-0.6-0.2
		C75.3,145.2,75.1,145.3,74.9,145.5z"/>
	<path class="st2" d="M81.4,144.7c0.3,0.2,0.5,0.4,0.7,0.7c0.2,0.3,0.2,0.6,0.2,1s-0.1,0.7-0.2,1c-0.2,0.3-0.4,0.5-0.7,0.7
		s-0.6,0.2-1,0.2c-0.5,0-0.9-0.2-1.1-0.5v1.8h-1.1v-5.1h1v0.4c0.3-0.3,0.7-0.5,1.2-0.5C80.8,144.4,81.1,144.5,81.4,144.7z
		 M80.9,147.1c0.2-0.2,0.3-0.4,0.3-0.8s-0.1-0.6-0.3-0.8c-0.2-0.2-0.4-0.3-0.7-0.3s-0.5,0.1-0.7,0.3c-0.2,0.2-0.3,0.4-0.3,0.8
		s0.1,0.6,0.3,0.8c0.2,0.2,0.4,0.3,0.7,0.3S80.7,147.3,80.9,147.1z"/>
	<path class="st2" d="M84.6,144.6c0.2-0.1,0.5-0.1,0.8-0.1v1c-0.1,0-0.2,0-0.2,0c-0.3,0-0.6,0.1-0.7,0.3s-0.3,0.4-0.3,0.8v1.8H83
		v-3.8h1v0.5C84.2,144.8,84.4,144.7,84.6,144.6z"/>
	<path class="st2" d="M89.6,146.7h-2.8c0.1,0.2,0.2,0.4,0.4,0.6c0.2,0.1,0.4,0.2,0.7,0.2c0.2,0,0.4,0,0.5-0.1
		c0.2-0.1,0.3-0.2,0.4-0.3l0.6,0.6c-0.4,0.4-0.9,0.6-1.6,0.6c-0.4,0-0.8-0.1-1.1-0.2s-0.6-0.4-0.8-0.7c-0.2-0.3-0.3-0.6-0.3-1
		c0-0.4,0.1-0.7,0.3-1c0.2-0.3,0.4-0.5,0.7-0.7c0.3-0.2,0.6-0.2,1-0.2c0.4,0,0.7,0.1,1,0.2s0.5,0.4,0.7,0.7c0.2,0.3,0.3,0.6,0.3,1
		C89.7,146.4,89.7,146.5,89.6,146.7z M87.1,145.5c-0.2,0.1-0.3,0.3-0.3,0.6h1.9c0-0.2-0.1-0.4-0.3-0.6s-0.4-0.2-0.6-0.2
		C87.5,145.2,87.3,145.3,87.1,145.5z"/>
	<path class="st2" d="M90.7,148.2c-0.3-0.1-0.5-0.2-0.7-0.3l0.4-0.8c0.2,0.1,0.4,0.2,0.6,0.3c0.2,0.1,0.5,0.1,0.7,0.1
		c0.5,0,0.7-0.1,0.7-0.3c0-0.1-0.1-0.2-0.2-0.2s-0.3-0.1-0.6-0.1c-0.3,0-0.6-0.1-0.8-0.2s-0.4-0.2-0.5-0.3c-0.1-0.2-0.2-0.4-0.2-0.7
		c0-0.2,0.1-0.4,0.2-0.6s0.3-0.3,0.6-0.4s0.6-0.2,0.9-0.2c0.3,0,0.5,0,0.8,0.1s0.5,0.1,0.7,0.2l-0.4,0.8c-0.3-0.2-0.7-0.3-1.1-0.3
		c-0.2,0-0.4,0-0.5,0.1c-0.1,0.1-0.2,0.1-0.2,0.3c0,0.1,0.1,0.2,0.2,0.2c0.1,0,0.3,0.1,0.6,0.1c0.3,0.1,0.6,0.1,0.8,0.2
		c0.2,0.1,0.4,0.2,0.5,0.3s0.2,0.4,0.2,0.6c0,0.2-0.1,0.4-0.2,0.6c-0.1,0.2-0.3,0.3-0.6,0.4c-0.3,0.1-0.6,0.2-1,0.2
		C91.3,148.3,91,148.3,90.7,148.2z"/>
	<path class="st2" d="M97.8,146.7h-2.8c0.1,0.2,0.2,0.4,0.4,0.6c0.2,0.1,0.4,0.2,0.7,0.2c0.2,0,0.4,0,0.5-0.1
		c0.2-0.1,0.3-0.2,0.4-0.3l0.6,0.6c-0.4,0.4-0.9,0.6-1.6,0.6c-0.4,0-0.8-0.1-1.1-0.2s-0.6-0.4-0.8-0.7c-0.2-0.3-0.3-0.6-0.3-1
		c0-0.4,0.1-0.7,0.3-1c0.2-0.3,0.4-0.5,0.7-0.7c0.3-0.2,0.6-0.2,1-0.2c0.4,0,0.7,0.1,1,0.2s0.5,0.4,0.7,0.7c0.2,0.3,0.3,0.6,0.3,1
		C97.8,146.4,97.8,146.5,97.8,146.7z M95.2,145.5c-0.2,0.1-0.3,0.3-0.3,0.6h1.9c0-0.2-0.1-0.4-0.3-0.6s-0.4-0.2-0.6-0.2
		C95.6,145.2,95.4,145.3,95.2,145.5z"/>
	<path class="st2" d="M101.9,144.8c0.3,0.3,0.4,0.7,0.4,1.2v2.2h-1.1v-2c0-0.3-0.1-0.5-0.2-0.7c-0.1-0.1-0.3-0.2-0.6-0.2
		c-0.3,0-0.5,0.1-0.7,0.3c-0.2,0.2-0.2,0.4-0.2,0.8v1.9h-1.1v-3.8h1v0.4c0.1-0.2,0.3-0.3,0.5-0.4s0.5-0.1,0.7-0.1
		C101.3,144.4,101.7,144.6,101.9,144.8z"/>
	<path class="st2" d="M105.8,148.1c-0.1,0.1-0.2,0.1-0.4,0.2c-0.2,0-0.3,0.1-0.5,0.1c-0.4,0-0.8-0.1-1-0.3s-0.4-0.6-0.4-1v-1.5h-0.6
		v-0.8h0.6v-0.9h1.1v0.9h0.9v0.8h-0.9v1.5c0,0.2,0,0.3,0.1,0.4s0.2,0.1,0.3,0.1c0.2,0,0.3,0,0.4-0.1L105.8,148.1z"/>
	<path class="st2" d="M110,146.7h-2.8c0.1,0.2,0.2,0.4,0.4,0.6c0.2,0.1,0.4,0.2,0.7,0.2c0.2,0,0.4,0,0.5-0.1
		c0.2-0.1,0.3-0.2,0.4-0.3l0.6,0.6c-0.4,0.4-0.9,0.6-1.6,0.6c-0.4,0-0.8-0.1-1.1-0.2s-0.6-0.4-0.8-0.7c-0.2-0.3-0.3-0.6-0.3-1
		c0-0.4,0.1-0.7,0.3-1c0.2-0.3,0.4-0.5,0.7-0.7c0.3-0.2,0.6-0.2,1-0.2c0.4,0,0.7,0.1,1,0.2s0.5,0.4,0.7,0.7c0.2,0.3,0.3,0.6,0.3,1
		C110,146.4,110,146.5,110,146.7z M107.4,145.5c-0.2,0.1-0.3,0.3-0.3,0.6h1.9c0-0.2-0.1-0.4-0.3-0.6s-0.4-0.2-0.6-0.2
		C107.8,145.2,107.6,145.3,107.4,145.5z"/>
	<path class="st2" d="M114.5,143v5.2h-1v-0.4c-0.3,0.3-0.7,0.5-1.2,0.5c-0.4,0-0.7-0.1-1-0.2c-0.3-0.2-0.5-0.4-0.7-0.7
		c-0.2-0.3-0.2-0.6-0.2-1s0.1-0.7,0.2-1c0.2-0.3,0.4-0.5,0.7-0.7c0.3-0.2,0.6-0.2,1-0.2c0.5,0,0.9,0.2,1.1,0.5V143H114.5z
		 M113.2,147.1c0.2-0.2,0.3-0.4,0.3-0.8s-0.1-0.6-0.3-0.8c-0.2-0.2-0.4-0.3-0.7-0.3c-0.3,0-0.5,0.1-0.7,0.3
		c-0.2,0.2-0.3,0.4-0.3,0.8s0.1,0.6,0.3,0.8c0.2,0.2,0.4,0.3,0.7,0.3C112.8,147.4,113,147.3,113.2,147.1z"/>
</g>
<linearGradient id="SVGID_5_" gradientUnits="userSpaceOnUse" x1="-204.2611" y1="-7.9412" x2="-204.2611" y2="-6.9412" gradientTransform="matrix(90 0 0 98 18572 857.4667)">
	<stop  offset="0" style="stop-color:#CC0000"/>
	<stop  offset="1" style="stop-color:#6E2F62"/>
</linearGradient>
<path class="st6" d="M188.5,79.2l45,24v50l-45,24l-45-24v-50L188.5,79.2z"/>
<g class="st1">
	<path class="st2" d="M172.8,118.8c0.9,1.1,1.4,2.4,1.4,3.9c0,1.2-0.3,2.4-1,3.4c-0.7,1.1-1.7,1.9-3.1,2.6c-1.4,0.6-3.1,1-5.1,1
		c-1.5,0-2.9-0.2-4.4-0.5c-1.5-0.4-2.7-0.9-3.8-1.5l2.2-4.5c0.8,0.6,1.7,1,2.8,1.3c1,0.3,2,0.4,3,0.4c1,0,1.8-0.2,2.4-0.6
		c0.6-0.4,0.9-0.9,0.9-1.6c0-1.4-1.1-2-3.2-2h-2.5v-3.8l3.8-4H158v-4.6h15.2v3.7l-4.4,4.7C170.5,117,171.9,117.7,172.8,118.8z"/>
	<path class="st2" d="M195.9,125.2h-3.1v4H187v-4h-11.1v-3.9l9.4-13.1h6.1l-8.5,12.3h4.3v-3.6h5.6v3.6h3.1V125.2z"/>
	<path class="st2" d="M197.4,118.1c-1-1-1.5-2.5-1.5-4.3c0-1.2,0.2-2.2,0.7-3.1c0.5-0.9,1.1-1.6,1.9-2c0.8-0.5,1.7-0.7,2.8-0.7
		c1.6,0,2.9,0.5,3.9,1.6s1.5,2.5,1.5,4.2c0,1.8-0.5,3.2-1.5,4.3c-1,1-2.3,1.6-3.9,1.6C199.6,119.6,198.4,119.1,197.4,118.1z
		 M213.7,108.2h4.3l-14.3,21h-4.3L213.7,108.2z M202.5,116c0.3-0.5,0.5-1.2,0.5-2.2c0-1-0.2-1.8-0.5-2.2c-0.3-0.5-0.8-0.7-1.3-0.7
		c-0.5,0-0.9,0.2-1.3,0.7s-0.5,1.2-0.5,2.2c0,1,0.2,1.7,0.5,2.2s0.8,0.7,1.3,0.7C201.8,116.8,202.2,116.5,202.5,116z M212.2,128
		c-1-1-1.5-2.5-1.5-4.3c0-1.8,0.5-3.2,1.5-4.2c1-1.1,2.3-1.6,3.9-1.6c1.6,0,2.9,0.5,3.9,1.6c1,1,1.5,2.5,1.5,4.2
		c0,1.8-0.5,3.2-1.5,4.3c-1,1-2.3,1.6-3.9,1.6C214.4,129.5,213.2,129,212.2,128z M217.3,125.9c0.3-0.5,0.5-1.2,0.5-2.2
		s-0.2-1.8-0.5-2.2c-0.3-0.5-0.8-0.7-1.3-0.7s-1,0.2-1.3,0.7s-0.5,1.2-0.5,2.2s0.2,1.8,0.5,2.2s0.8,0.7,1.3,0.7
		S217,126.4,217.3,125.9z"/>
</g>
<g class="st1">
	<path class="st2" d="M162.5,140.1h0.9v1.7c-0.2,0.2-0.5,0.3-0.8,0.4c-0.3,0.1-0.6,0.1-0.9,0.1c-0.4,0-0.8-0.1-1.2-0.3
		c-0.3-0.2-0.6-0.4-0.8-0.8c-0.2-0.3-0.3-0.7-0.3-1.1s0.1-0.8,0.3-1.1s0.5-0.6,0.8-0.8c0.4-0.2,0.7-0.3,1.2-0.3c0.4,0,0.7,0.1,1,0.2
		c0.3,0.1,0.6,0.3,0.8,0.5l-0.6,0.6c-0.3-0.3-0.7-0.5-1.1-0.5c-0.3,0-0.5,0.1-0.7,0.2c-0.2,0.1-0.4,0.3-0.5,0.5
		c-0.1,0.2-0.2,0.4-0.2,0.7c0,0.3,0.1,0.5,0.2,0.7c0.1,0.2,0.3,0.4,0.5,0.5c0.2,0.1,0.4,0.2,0.7,0.2c0.3,0,0.5-0.1,0.8-0.2V140.1z"
		/>
	<path class="st2" d="M165.5,139.1c0.2-0.1,0.4-0.1,0.7-0.1v0.9c-0.1,0-0.2,0-0.2,0c-0.3,0-0.5,0.1-0.6,0.2
		c-0.2,0.2-0.2,0.4-0.2,0.7v1.5h-0.9V139h0.9v0.4C165.2,139.3,165.4,139.2,165.5,139.1z"/>
	<path class="st2" d="M169,139.3c0.3,0.2,0.4,0.6,0.4,1.1v1.8h-0.9v-0.4c-0.2,0.3-0.5,0.5-1,0.5c-0.2,0-0.5,0-0.6-0.1
		c-0.2-0.1-0.3-0.2-0.4-0.3c-0.1-0.1-0.1-0.3-0.1-0.5c0-0.3,0.1-0.5,0.3-0.7c0.2-0.2,0.6-0.3,1-0.3h0.7c0-0.2-0.1-0.4-0.2-0.5
		c-0.1-0.1-0.3-0.2-0.6-0.2c-0.2,0-0.3,0-0.5,0.1s-0.3,0.1-0.4,0.2l-0.3-0.7c0.2-0.1,0.4-0.2,0.6-0.3s0.5-0.1,0.8-0.1
		C168.3,139,168.7,139.1,169,139.3z M168.2,141.6c0.1-0.1,0.2-0.2,0.3-0.3v-0.3h-0.6c-0.4,0-0.6,0.1-0.6,0.4c0,0.1,0,0.2,0.1,0.3
		c0.1,0.1,0.2,0.1,0.4,0.1C167.9,141.7,168.1,141.6,168.2,141.6z"/>
	<path class="st2" d="M173.6,137.8v4.5h-0.9v-0.4c-0.2,0.3-0.6,0.4-1,0.4c-0.3,0-0.6-0.1-0.8-0.2c-0.2-0.1-0.4-0.3-0.6-0.6
		c-0.1-0.3-0.2-0.5-0.2-0.9s0.1-0.6,0.2-0.9c0.1-0.3,0.3-0.4,0.6-0.6c0.2-0.1,0.5-0.2,0.8-0.2c0.4,0,0.7,0.1,1,0.4v-1.6H173.6z
		 M172.4,141.3c0.2-0.2,0.2-0.4,0.2-0.7c0-0.3-0.1-0.5-0.2-0.7s-0.4-0.2-0.6-0.2c-0.2,0-0.4,0.1-0.6,0.2c-0.2,0.2-0.2,0.4-0.2,0.7
		c0,0.3,0.1,0.5,0.2,0.7c0.2,0.2,0.4,0.2,0.6,0.2C172.1,141.5,172.3,141.4,172.4,141.3z"/>
	<path class="st2" d="M177.7,139v3.2h-0.9v-0.4c-0.1,0.1-0.3,0.2-0.4,0.3c-0.2,0.1-0.4,0.1-0.6,0.1c-0.4,0-0.8-0.1-1-0.4
		c-0.2-0.2-0.4-0.6-0.4-1.1V139h0.9v1.7c0,0.5,0.2,0.8,0.7,0.8c0.2,0,0.4-0.1,0.5-0.2c0.1-0.1,0.2-0.4,0.2-0.7V139H177.7z"/>
	<path class="st2" d="M181,139.3c0.3,0.2,0.4,0.6,0.4,1.1v1.8h-0.9v-0.4c-0.2,0.3-0.5,0.5-1,0.5c-0.2,0-0.5,0-0.6-0.1
		c-0.2-0.1-0.3-0.2-0.4-0.3c-0.1-0.1-0.1-0.3-0.1-0.5c0-0.3,0.1-0.5,0.3-0.7c0.2-0.2,0.6-0.3,1-0.3h0.7c0-0.2-0.1-0.4-0.2-0.5
		c-0.1-0.1-0.3-0.2-0.6-0.2c-0.2,0-0.3,0-0.5,0.1s-0.3,0.1-0.4,0.2l-0.3-0.7c0.2-0.1,0.4-0.2,0.6-0.3s0.5-0.1,0.8-0.1
		C180.3,139,180.7,139.1,181,139.3z M180.2,141.6c0.1-0.1,0.2-0.2,0.3-0.3v-0.3h-0.6c-0.4,0-0.6,0.1-0.6,0.4c0,0.1,0,0.2,0.1,0.3
		c0.1,0.1,0.2,0.1,0.4,0.1C179.9,141.7,180.1,141.6,180.2,141.6z"/>
	<path class="st2" d="M184.3,142.1c-0.1,0.1-0.2,0.1-0.3,0.2c-0.1,0-0.3,0.1-0.4,0.1c-0.4,0-0.7-0.1-0.9-0.3s-0.3-0.5-0.3-0.9v-1.3
		h-0.5v-0.7h0.5v-0.8h0.9v0.8h0.8v0.7h-0.8v1.3c0,0.1,0,0.2,0.1,0.3c0.1,0.1,0.2,0.1,0.3,0.1c0.1,0,0.3,0,0.4-0.1L184.3,142.1z"/>
	<path class="st2" d="M187.9,140.9h-2.4c0,0.2,0.1,0.4,0.3,0.5s0.4,0.2,0.6,0.2c0.2,0,0.3,0,0.4-0.1c0.1,0,0.3-0.1,0.4-0.2l0.5,0.5
		c-0.3,0.3-0.7,0.5-1.3,0.5c-0.4,0-0.7-0.1-1-0.2c-0.3-0.1-0.5-0.3-0.6-0.6c-0.2-0.3-0.2-0.5-0.2-0.9c0-0.3,0.1-0.6,0.2-0.9
		c0.1-0.3,0.4-0.5,0.6-0.6c0.3-0.1,0.6-0.2,0.9-0.2c0.3,0,0.6,0.1,0.9,0.2c0.3,0.1,0.5,0.3,0.6,0.6c0.1,0.3,0.2,0.5,0.2,0.9
		C187.9,140.7,187.9,140.7,187.9,140.9z M185.7,139.9c-0.1,0.1-0.2,0.3-0.3,0.5h1.6c0-0.2-0.1-0.4-0.3-0.5c-0.1-0.1-0.3-0.2-0.5-0.2
		C186,139.7,185.9,139.7,185.7,139.9z"/>
	<path class="st2" d="M190.5,142.2c-0.3-0.1-0.5-0.1-0.6-0.2l0.3-0.7c0.1,0.1,0.3,0.2,0.5,0.2s0.4,0.1,0.6,0.1
		c0.4,0,0.6-0.1,0.6-0.3c0-0.1-0.1-0.2-0.2-0.2s-0.3-0.1-0.5-0.1c-0.3,0-0.5-0.1-0.7-0.1c-0.2-0.1-0.3-0.1-0.4-0.3s-0.2-0.3-0.2-0.6
		c0-0.2,0.1-0.4,0.2-0.5c0.1-0.2,0.3-0.3,0.5-0.4c0.2-0.1,0.5-0.1,0.8-0.1c0.2,0,0.5,0,0.7,0.1c0.2,0,0.4,0.1,0.6,0.2l-0.3,0.7
		c-0.3-0.2-0.6-0.2-0.9-0.2c-0.2,0-0.4,0-0.5,0.1c-0.1,0.1-0.2,0.1-0.2,0.2c0,0.1,0.1,0.2,0.2,0.2c0.1,0,0.3,0.1,0.5,0.1
		c0.3,0,0.5,0.1,0.6,0.1s0.3,0.1,0.4,0.3s0.2,0.3,0.2,0.6c0,0.2-0.1,0.4-0.2,0.5c-0.1,0.2-0.3,0.3-0.5,0.4c-0.2,0.1-0.5,0.1-0.8,0.1
		C191.1,142.3,190.8,142.3,190.5,142.2z"/>
	<path class="st2" d="M195.5,142.1c-0.1,0.1-0.2,0.1-0.3,0.2c-0.1,0-0.3,0.1-0.4,0.1c-0.4,0-0.7-0.1-0.9-0.3s-0.3-0.5-0.3-0.9v-1.3
		H193v-0.7h0.5v-0.8h0.9v0.8h0.8v0.7h-0.8v1.3c0,0.1,0,0.2,0.1,0.3c0.1,0.1,0.2,0.1,0.3,0.1c0.1,0,0.3,0,0.4-0.1L195.5,142.1z"/>
	<path class="st2" d="M199.3,139v3.2h-0.9v-0.4c-0.1,0.1-0.3,0.2-0.4,0.3c-0.2,0.1-0.4,0.1-0.6,0.1c-0.4,0-0.8-0.1-1-0.4
		c-0.2-0.2-0.4-0.6-0.4-1.1V139h0.9v1.7c0,0.5,0.2,0.8,0.7,0.8c0.2,0,0.4-0.1,0.5-0.2c0.1-0.1,0.2-0.4,0.2-0.7V139H199.3z"/>
	<path class="st2" d="M203.4,137.8v4.5h-0.9v-0.4c-0.2,0.3-0.6,0.4-1,0.4c-0.3,0-0.6-0.1-0.8-0.2c-0.2-0.1-0.4-0.3-0.6-0.6
		c-0.1-0.3-0.2-0.5-0.2-0.9s0.1-0.6,0.2-0.9c0.1-0.3,0.3-0.4,0.6-0.6c0.2-0.1,0.5-0.2,0.8-0.2c0.4,0,0.7,0.1,1,0.4v-1.6H203.4z
		 M202.3,141.3c0.2-0.2,0.2-0.4,0.2-0.7c0-0.3-0.1-0.5-0.2-0.7s-0.4-0.2-0.6-0.2c-0.2,0-0.4,0.1-0.6,0.2c-0.2,0.2-0.2,0.4-0.2,0.7
		c0,0.3,0.1,0.5,0.2,0.7c0.2,0.2,0.4,0.2,0.6,0.2C201.9,141.5,202.1,141.4,202.3,141.3z"/>
	<path class="st2" d="M207.5,140.9H205c0,0.2,0.1,0.4,0.3,0.5s0.4,0.2,0.6,0.2c0.2,0,0.3,0,0.4-0.1c0.1,0,0.3-0.1,0.4-0.2l0.5,0.5
		c-0.3,0.3-0.7,0.5-1.3,0.5c-0.4,0-0.7-0.1-1-0.2c-0.3-0.1-0.5-0.3-0.6-0.6c-0.2-0.3-0.2-0.5-0.2-0.9c0-0.3,0.1-0.6,0.2-0.9
		c0.1-0.3,0.4-0.5,0.6-0.6c0.3-0.1,0.6-0.2,0.9-0.2c0.3,0,0.6,0.1,0.9,0.2c0.3,0.1,0.5,0.3,0.6,0.6c0.1,0.3,0.2,0.5,0.2,0.9
		C207.5,140.7,207.5,140.7,207.5,140.9z M205.3,139.9c-0.1,0.1-0.2,0.3-0.3,0.5h1.6c0-0.2-0.1-0.4-0.3-0.5c-0.1-0.1-0.3-0.2-0.5-0.2
		C205.6,139.7,205.4,139.7,205.3,139.9z"/>
	<path class="st2" d="M211,139.3c0.2,0.2,0.4,0.6,0.4,1.1v1.8h-0.9v-1.7c0-0.3-0.1-0.4-0.2-0.6c-0.1-0.1-0.3-0.2-0.5-0.2
		c-0.2,0-0.4,0.1-0.6,0.2c-0.1,0.1-0.2,0.4-0.2,0.7v1.6h-0.9V139h0.9v0.4c0.1-0.1,0.3-0.2,0.5-0.3c0.2-0.1,0.4-0.1,0.6-0.1
		C210.5,139,210.8,139.1,211,139.3z"/>
	<path class="st2" d="M214.3,142.1c-0.1,0.1-0.2,0.1-0.3,0.2s-0.3,0.1-0.4,0.1c-0.4,0-0.7-0.1-0.9-0.3s-0.3-0.5-0.3-0.9v-1.3h-0.5
		v-0.7h0.5v-0.8h0.9v0.8h0.8v0.7h-0.8v1.3c0,0.1,0,0.2,0.1,0.3c0.1,0.1,0.2,0.1,0.3,0.1c0.1,0,0.3,0,0.4-0.1L214.3,142.1z"/>
	<path class="st2" d="M215.2,142.2c-0.3-0.1-0.5-0.1-0.6-0.2l0.3-0.7c0.1,0.1,0.3,0.2,0.5,0.2s0.4,0.1,0.6,0.1
		c0.4,0,0.6-0.1,0.6-0.3c0-0.1-0.1-0.2-0.2-0.2c-0.1,0-0.3-0.1-0.5-0.1c-0.3,0-0.5-0.1-0.7-0.1c-0.2-0.1-0.3-0.1-0.4-0.3
		s-0.2-0.3-0.2-0.6c0-0.2,0.1-0.4,0.2-0.5c0.1-0.2,0.3-0.3,0.5-0.4c0.2-0.1,0.5-0.1,0.8-0.1c0.2,0,0.5,0,0.7,0.1
		c0.2,0,0.4,0.1,0.6,0.2l-0.3,0.7c-0.3-0.2-0.6-0.2-0.9-0.2c-0.2,0-0.3,0-0.4,0.1c-0.1,0.1-0.2,0.1-0.2,0.2c0,0.1,0.1,0.2,0.2,0.2
		c0.1,0,0.3,0.1,0.5,0.1c0.3,0,0.5,0.1,0.6,0.1s0.3,0.1,0.4,0.3s0.2,0.3,0.2,0.6c0,0.2-0.1,0.4-0.2,0.5c-0.1,0.2-0.3,0.3-0.5,0.4
		c-0.2,0.1-0.5,0.1-0.8,0.1C215.7,142.3,215.4,142.3,215.2,142.2z"/>
</g>
<g class="st1">
	<path class="st2" d="M154.3,145.3c0.3,0.2,0.4,0.6,0.4,1.1v1.8h-0.9v-0.4c-0.2,0.3-0.5,0.5-1,0.5c-0.2,0-0.5,0-0.6-0.1
		s-0.3-0.2-0.4-0.3c-0.1-0.1-0.1-0.3-0.1-0.5c0-0.3,0.1-0.5,0.3-0.7c0.2-0.2,0.6-0.3,1-0.3h0.7c0-0.2-0.1-0.4-0.2-0.5
		c-0.1-0.1-0.3-0.2-0.6-0.2c-0.2,0-0.3,0-0.5,0.1s-0.3,0.1-0.4,0.2l-0.3-0.7c0.2-0.1,0.4-0.2,0.6-0.3s0.5-0.1,0.8-0.1
		C153.7,145,154,145.1,154.3,145.3z M153.5,147.6c0.1-0.1,0.2-0.2,0.3-0.3v-0.3h-0.6c-0.4,0-0.6,0.1-0.6,0.4c0,0.1,0,0.2,0.1,0.3
		c0.1,0.1,0.2,0.1,0.4,0.1C153.2,147.7,153.4,147.6,153.5,147.6z"/>
	<path class="st2" d="M157.6,148.1c-0.1,0.1-0.2,0.1-0.3,0.2c-0.1,0-0.3,0.1-0.4,0.1c-0.4,0-0.7-0.1-0.9-0.3s-0.3-0.5-0.3-0.9v-1.3
		h-0.5v-0.7h0.5v-0.8h0.9v0.8h0.8v0.7h-0.8v1.3c0,0.1,0,0.2,0.1,0.3c0.1,0.1,0.2,0.1,0.3,0.1c0.1,0,0.3,0,0.4-0.1L157.6,148.1z"/>
	<path class="st2" d="M160.2,148.1c-0.1,0.1-0.2,0.1-0.3,0.2s-0.3,0.1-0.4,0.1c-0.4,0-0.7-0.1-0.9-0.3s-0.3-0.5-0.3-0.9v-1.3h-0.5
		v-0.7h0.5v-0.8h0.9v0.8h0.8v0.7h-0.8v1.3c0,0.1,0,0.2,0.1,0.3c0.1,0.1,0.2,0.1,0.3,0.1c0.1,0,0.3,0,0.4-0.1L160.2,148.1z"/>
	<path class="st2" d="M163.8,146.9h-2.4c0,0.2,0.1,0.4,0.3,0.5s0.4,0.2,0.6,0.2c0.2,0,0.3,0,0.4-0.1c0.1,0,0.3-0.1,0.4-0.2l0.5,0.5
		c-0.3,0.3-0.7,0.5-1.3,0.5c-0.4,0-0.7-0.1-1-0.2s-0.5-0.3-0.6-0.6c-0.2-0.3-0.2-0.5-0.2-0.9c0-0.3,0.1-0.6,0.2-0.9
		c0.2-0.3,0.4-0.5,0.6-0.6c0.3-0.1,0.6-0.2,0.9-0.2c0.3,0,0.6,0.1,0.9,0.2c0.3,0.1,0.5,0.3,0.6,0.6c0.1,0.3,0.2,0.5,0.2,0.9
		C163.8,146.7,163.8,146.7,163.8,146.9z M161.6,145.9c-0.1,0.1-0.2,0.3-0.3,0.5h1.6c0-0.2-0.1-0.4-0.3-0.5s-0.3-0.2-0.5-0.2
		C161.9,145.7,161.7,145.7,161.6,145.9z"/>
	<path class="st2" d="M167.3,145.3c0.2,0.2,0.4,0.6,0.4,1.1v1.8h-0.9v-1.7c0-0.3-0.1-0.4-0.2-0.6c-0.1-0.1-0.3-0.2-0.5-0.2
		c-0.2,0-0.4,0.1-0.6,0.2c-0.1,0.1-0.2,0.4-0.2,0.7v1.6h-0.9V145h0.9v0.4c0.1-0.1,0.3-0.2,0.5-0.3c0.2-0.1,0.4-0.1,0.6-0.1
		C166.8,145,167.1,145.1,167.3,145.3z"/>
	<path class="st2" d="M171.9,143.8v4.5H171v-0.4c-0.2,0.3-0.6,0.4-1,0.4c-0.3,0-0.6-0.1-0.8-0.2c-0.2-0.1-0.4-0.3-0.6-0.6
		c-0.1-0.3-0.2-0.5-0.2-0.9s0.1-0.6,0.2-0.9c0.1-0.3,0.3-0.4,0.6-0.6c0.2-0.1,0.5-0.2,0.8-0.2c0.4,0,0.7,0.1,1,0.4v-1.6H171.9z
		 M170.7,147.3c0.2-0.2,0.2-0.4,0.2-0.7c0-0.3-0.1-0.5-0.2-0.7s-0.4-0.2-0.6-0.2c-0.2,0-0.4,0.1-0.6,0.2c-0.2,0.2-0.2,0.4-0.2,0.7
		c0,0.3,0.1,0.5,0.2,0.7c0.2,0.2,0.4,0.2,0.6,0.2C170.3,147.5,170.5,147.4,170.7,147.3z"/>
	<path class="st2" d="M172.8,144.4c-0.1-0.1-0.2-0.2-0.2-0.4c0-0.1,0.1-0.3,0.2-0.4c0.1-0.1,0.2-0.1,0.4-0.1s0.3,0,0.4,0.1
		c0.1,0.1,0.2,0.2,0.2,0.4c0,0.2-0.1,0.3-0.2,0.4c-0.1,0.1-0.2,0.2-0.4,0.2S172.9,144.5,172.8,144.4z M172.7,145h0.9v3.2h-0.9V145z"
		/>
	<path class="st2" d="M177.5,145.3c0.2,0.2,0.4,0.6,0.4,1.1v1.8h-0.9v-1.7c0-0.3-0.1-0.4-0.2-0.6c-0.1-0.1-0.3-0.2-0.5-0.2
		c-0.2,0-0.4,0.1-0.6,0.2c-0.1,0.1-0.2,0.4-0.2,0.7v1.6h-0.9V145h0.9v0.4c0.1-0.1,0.3-0.2,0.5-0.3c0.2-0.1,0.4-0.1,0.6-0.1
		C176.9,145,177.2,145.1,177.5,145.3z"/>
	<path class="st2" d="M182,145v2.7c0,0.6-0.2,1-0.5,1.3c-0.3,0.3-0.8,0.4-1.3,0.4c-0.3,0-0.6,0-0.9-0.1s-0.5-0.2-0.7-0.3l0.4-0.7
		c0.1,0.1,0.3,0.2,0.5,0.3c0.2,0.1,0.4,0.1,0.6,0.1c0.3,0,0.6-0.1,0.7-0.2c0.2-0.1,0.2-0.4,0.2-0.7v-0.1c-0.2,0.3-0.6,0.4-1,0.4
		c-0.3,0-0.6-0.1-0.8-0.2c-0.2-0.1-0.4-0.3-0.6-0.5c-0.1-0.2-0.2-0.5-0.2-0.8c0-0.3,0.1-0.6,0.2-0.8c0.1-0.2,0.3-0.4,0.6-0.5
		c0.2-0.1,0.5-0.2,0.8-0.2c0.5,0,0.8,0.2,1.1,0.5V145H182z M180.9,147.1c0.2-0.1,0.2-0.3,0.2-0.6s-0.1-0.4-0.2-0.6
		c-0.2-0.1-0.4-0.2-0.6-0.2c-0.2,0-0.5,0.1-0.6,0.2c-0.2,0.1-0.2,0.3-0.2,0.6s0.1,0.4,0.2,0.6c0.2,0.1,0.4,0.2,0.6,0.2
		C180.5,147.3,180.7,147.2,180.9,147.1z"/>
	<path class="st2" d="M184.7,144h1v4.2h-1V144z"/>
	<path class="st2" d="M191.7,145.3c0.2,0.2,0.4,0.6,0.4,1.1v1.8h-0.9v-1.7c0-0.3-0.1-0.4-0.2-0.6c-0.1-0.1-0.3-0.2-0.5-0.2
		c-0.2,0-0.4,0.1-0.5,0.2s-0.2,0.4-0.2,0.6v1.6h-0.9v-1.7c0-0.5-0.2-0.8-0.6-0.8c-0.2,0-0.4,0.1-0.5,0.2s-0.2,0.4-0.2,0.6v1.6h-0.9
		V145h0.9v0.4c0.1-0.1,0.3-0.2,0.4-0.3s0.4-0.1,0.6-0.1c0.2,0,0.4,0,0.6,0.1c0.2,0.1,0.3,0.2,0.4,0.4c0.1-0.2,0.3-0.3,0.5-0.4
		c0.2-0.1,0.4-0.1,0.7-0.1C191.1,145,191.4,145.1,191.7,145.3z"/>
	<path class="st2" d="M195.6,145.2c0.2,0.1,0.4,0.3,0.6,0.6c0.1,0.2,0.2,0.5,0.2,0.9s-0.1,0.6-0.2,0.9c-0.1,0.2-0.3,0.4-0.6,0.6
		c-0.2,0.1-0.5,0.2-0.8,0.2c-0.4,0-0.7-0.1-1-0.4v1.5h-0.9V145h0.9v0.4c0.2-0.3,0.6-0.4,1-0.4C195.1,145,195.3,145,195.6,145.2z
		 M195.2,147.3c0.2-0.2,0.2-0.4,0.2-0.7c0-0.3-0.1-0.5-0.2-0.7s-0.4-0.2-0.6-0.2s-0.4,0.1-0.6,0.2c-0.2,0.2-0.2,0.4-0.2,0.7
		c0,0.3,0.1,0.5,0.2,0.7c0.2,0.2,0.4,0.2,0.6,0.2S195,147.4,195.2,147.3z"/>
	<path class="st2" d="M197,143.8h0.9v4.5H197V143.8z"/>
	<path class="st2" d="M201.9,146.9h-2.4c0,0.2,0.1,0.4,0.3,0.5s0.4,0.2,0.6,0.2c0.2,0,0.3,0,0.4-0.1c0.1,0,0.3-0.1,0.4-0.2l0.5,0.5
		c-0.3,0.3-0.7,0.5-1.3,0.5c-0.4,0-0.7-0.1-1-0.2s-0.5-0.3-0.6-0.6c-0.2-0.3-0.2-0.5-0.2-0.9c0-0.3,0.1-0.6,0.2-0.9
		c0.2-0.3,0.4-0.5,0.6-0.6c0.3-0.1,0.6-0.2,0.9-0.2c0.3,0,0.6,0.1,0.9,0.2c0.3,0.1,0.5,0.3,0.6,0.6c0.1,0.3,0.2,0.5,0.2,0.9
		C202,146.7,202,146.7,201.9,146.9z M199.8,145.9c-0.1,0.1-0.2,0.3-0.3,0.5h1.6c0-0.2-0.1-0.4-0.3-0.5s-0.3-0.2-0.5-0.2
		C200.1,145.7,199.9,145.7,199.8,145.9z"/>
	<path class="st2" d="M207.7,145.3c0.2,0.2,0.4,0.6,0.4,1.1v1.8h-0.9v-1.7c0-0.3-0.1-0.4-0.2-0.6c-0.1-0.1-0.3-0.2-0.5-0.2
		c-0.2,0-0.4,0.1-0.5,0.2s-0.2,0.4-0.2,0.6v1.6h-0.9v-1.7c0-0.5-0.2-0.8-0.6-0.8c-0.2,0-0.4,0.1-0.5,0.2s-0.2,0.4-0.2,0.6v1.6h-0.9
		V145h0.9v0.4c0.1-0.1,0.3-0.2,0.4-0.3c0.2-0.1,0.4-0.1,0.6-0.1c0.2,0,0.4,0,0.6,0.1c0.2,0.1,0.3,0.2,0.4,0.4
		c0.1-0.2,0.3-0.3,0.5-0.4s0.4-0.1,0.7-0.1C207.1,145,207.4,145.1,207.7,145.3z"/>
	<path class="st2" d="M212,146.9h-2.4c0,0.2,0.1,0.4,0.3,0.5s0.4,0.2,0.6,0.2c0.2,0,0.3,0,0.4-0.1c0.1,0,0.3-0.1,0.4-0.2l0.5,0.5
		c-0.3,0.3-0.7,0.5-1.3,0.5c-0.4,0-0.7-0.1-1-0.2c-0.3-0.1-0.5-0.3-0.6-0.6c-0.2-0.3-0.2-0.5-0.2-0.9c0-0.3,0.1-0.6,0.2-0.9
		c0.1-0.3,0.4-0.5,0.6-0.6c0.3-0.1,0.6-0.2,0.9-0.2c0.3,0,0.6,0.1,0.9,0.2c0.3,0.1,0.5,0.3,0.6,0.6c0.1,0.3,0.2,0.5,0.2,0.9
		C212.1,146.7,212.1,146.7,212,146.9z M209.9,145.9c-0.1,0.1-0.2,0.3-0.3,0.5h1.6c0-0.2-0.1-0.4-0.3-0.5c-0.1-0.1-0.3-0.2-0.5-0.2
		C210.2,145.7,210,145.7,209.9,145.9z"/>
	<path class="st2" d="M215.6,145.3c0.2,0.2,0.4,0.6,0.4,1.1v1.8H215v-1.7c0-0.3-0.1-0.4-0.2-0.6c-0.1-0.1-0.3-0.2-0.5-0.2
		c-0.2,0-0.4,0.1-0.6,0.2c-0.1,0.1-0.2,0.4-0.2,0.7v1.6h-0.9V145h0.9v0.4c0.1-0.1,0.3-0.2,0.5-0.3c0.2-0.1,0.4-0.1,0.6-0.1
		C215,145,215.4,145.1,215.6,145.3z"/>
	<path class="st2" d="M218.9,148.1c-0.1,0.1-0.2,0.1-0.3,0.2s-0.3,0.1-0.4,0.1c-0.4,0-0.7-0.1-0.9-0.3s-0.3-0.5-0.3-0.9v-1.3h-0.5
		v-0.7h0.5v-0.8h0.9v0.8h0.8v0.7h-0.8v1.3c0,0.1,0,0.2,0.1,0.3c0.1,0.1,0.2,0.1,0.3,0.1c0.1,0,0.3,0,0.4-0.1L218.9,148.1z"/>
	<path class="st2" d="M222.3,147.3h-2l-0.4,0.9h-1l1.9-4.2h1l1.9,4.2h-1L222.3,147.3z M222,146.6l-0.7-1.6l-0.7,1.6H222z"/>
	<path class="st2" d="M224.1,144h1v4.2h-1V144z"/>
</g>
</svg>
