<?xml version="1.0" encoding="utf-8"?>
<!-- Generator: Adobe Illustrator 23.0.4, SVG Export Plug-In . SVG Version: 6.00 Build 0)  -->
<svg version="1.1" id="Layer_1" xmlns="http://www.w3.org/2000/svg" xmlns:xlink="http://www.w3.org/1999/xlink" x="0px" y="0px"
	 viewBox="0 0 930 624" style="enable-background:new 0 0 930 624;" xml:space="preserve">
<style type="text/css">
	.st0{fill:none;stroke:url(#SVGID_1_);stroke-width:5;}
	.st1{fill:none;stroke:url(#SVGID_2_);stroke-width:5;}
	.st2{fill:none;stroke:url(#SVGID_3_);stroke-width:5;}
	.st3{fill:none;stroke:url(#SVGID_4_);stroke-width:5;}
	.st4{fill:none;stroke:url(#SVGID_5_);stroke-width:5;}
	.st5{fill:none;}
	.st6{enable-background:new    ;}
	.st7{fill:#FFFFFF;}
</style>
<linearGradient id="SVGID_1_" gradientUnits="userSpaceOnUse" x1="466.75" y1="-121" x2="466.75" y2="222.5" gradientTransform="matrix(1 0 0 1 0 124)">
	<stop  offset="0" style="stop-color:#6E2F62"/>
	<stop  offset="1" style="stop-color:#003399"/>
</linearGradient>
<path class="st0" d="M464.5,3L318,86.5v174l146.5,86l151-86v-174L464.5,3z"/>
<linearGradient id="SVGID_2_" gradientUnits="userSpaceOnUse" x1="778.75" y1="-121" x2="778.75" y2="222.5" gradientTransform="matrix(1 0 0 1 0 124)">
	<stop  offset="0" style="stop-color:#003399"/>
	<stop  offset="1" style="stop-color:#3399CC"/>
</linearGradient>
<path class="st1" d="M776.5,3L630,86.5v174l146.5,86l151-86v-174L776.5,3z"/>
<linearGradient id="SVGID_3_" gradientUnits="userSpaceOnUse" x1="308.75" y1="147" x2="308.75" y2="490.5" gradientTransform="matrix(1 0 0 1 0 124)">
	<stop  offset="0" style="stop-color:#003399"/>
	<stop  offset="1" style="stop-color:#3399CC"/>
</linearGradient>
<path class="st2" d="M306.5,271L160,354.5v174l146.5,86l151-86v-174L306.5,271z"/>
<linearGradient id="SVGID_4_" gradientUnits="userSpaceOnUse" x1="151.75" y1="-121" x2="151.75" y2="222.5" gradientTransform="matrix(1 0 0 1 0 124)">
	<stop  offset="0" style="stop-color:#CC0000"/>
	<stop  offset="1" style="stop-color:#6E2F62"/>
</linearGradient>
<path class="st3" d="M149.5,3L3,86.5v174l146.5,86l151-86v-174L149.5,3z"/>
<linearGradient id="SVGID_5_" gradientUnits="userSpaceOnUse" x1="623.75" y1="153" x2="623.75" y2="496.5" gradientTransform="matrix(1 0 0 1 0 124)">
	<stop  offset="0" style="stop-color:#CC0000"/>
	<stop  offset="1" style="stop-color:#6E2F62"/>
</linearGradient>
<path class="st4" d="M621.5,277L475,360.5v174l146.5,86l151-86v-174L621.5,277z"/>
<rect x="35.4" y="116.9" class="st5" width="230" height="124"/>
<g class="st6">
	<path class="st7" d="M130.1,121.1v70h-19.8v-54.7h-13v-15.3H130.1z"/>
	<path class="st7" d="M198.4,161.1c1.7,2.7,2.6,5.9,2.6,9.4c0,4.4-1.3,8.3-3.8,11.6c-2.5,3.3-6.1,5.9-10.7,7.7s-9.9,2.7-15.9,2.7
		s-11.3-0.9-15.9-2.7c-4.6-1.8-8.2-4.4-10.7-7.7c-2.5-3.3-3.8-7.2-3.8-11.6c0-3.5,0.9-6.7,2.6-9.4c1.7-2.7,4.2-5,7.4-6.9
		c-2.4-1.7-4.2-3.7-5.5-6.1c-1.3-2.4-2-5.1-2-8c0-4.1,1.2-7.7,3.5-10.8c2.3-3.1,5.6-5.5,9.8-7.2c4.2-1.7,9.1-2.5,14.5-2.5
		c5.5,0,10.3,0.8,14.6,2.5c4.2,1.7,7.5,4.1,9.8,7.2c2.3,3.1,3.5,6.7,3.5,10.8c0,2.9-0.7,5.6-2,8s-3.1,4.4-5.5,6.1
		C194.2,156.1,196.7,158.4,198.4,161.1z M178.2,176.2c1.9-1.6,2.8-3.7,2.8-6.4c0-2.7-0.9-4.8-2.8-6.3c-1.9-1.6-4.5-2.4-7.7-2.4
		c-3.2,0-5.8,0.8-7.6,2.4c-1.9,1.6-2.9,3.7-2.9,6.3c0,2.7,1,4.8,2.9,6.4c1.9,1.6,4.5,2.3,7.6,2.3
		C173.8,178.6,176.3,177.8,178.2,176.2z M164.6,135.5c-1.5,1.3-2.3,3.1-2.3,5.5c0,2.3,0.8,4,2.2,5.3s3.5,2,6,2c2.5,0,4.6-0.7,6.1-2
		c1.5-1.3,2.3-3.1,2.3-5.3c0-2.3-0.8-4.2-2.3-5.5c-1.5-1.3-3.6-2-6.1-2C168.1,133.6,166.1,134.2,164.6,135.5z"/>
</g>
<rect x="49.2" y="207.7" class="st5" width="205" height="79"/>
<g class="st6">
	<path class="st7" d="M81.2,209.4c1.1,0.5,1.9,1.2,2.5,2.1s0.9,2,0.9,3.2c0,1.2-0.3,2.3-0.9,3.2s-1.4,1.6-2.5,2.1
		c-1.1,0.5-2.4,0.7-3.9,0.7h-3.4v4.6H70v-16.8h7.3C78.8,208.7,80.1,208.9,81.2,209.4z M79.7,216.9c0.6-0.5,0.9-1.2,0.9-2.1
		c0-0.9-0.3-1.7-0.9-2.2c-0.6-0.5-1.5-0.8-2.7-0.8h-3.2v5.8h3.2C78.2,217.7,79.1,217.4,79.7,216.9z"/>
	<path class="st7" d="M96.8,213.8c1.1,1,1.6,2.4,1.6,4.3v7.4h-3.5v-1.6c-0.7,1.2-2,1.8-3.9,1.8c-1,0-1.9-0.2-2.6-0.5
		c-0.7-0.3-1.3-0.8-1.7-1.4c-0.4-0.6-0.6-1.3-0.6-2c0-1.2,0.5-2.1,1.4-2.8c0.9-0.7,2.3-1,4.2-1h3c0-0.8-0.2-1.4-0.7-1.9
		c-0.5-0.4-1.2-0.7-2.2-0.7c-0.7,0-1.4,0.1-2,0.3s-1.2,0.5-1.7,0.9l-1.3-2.6c0.7-0.5,1.5-0.9,2.5-1.2c1-0.3,2-0.4,3-0.4
		C94.2,212.4,95.7,212.9,96.8,213.8z M93.6,222.7c0.5-0.3,0.8-0.7,1.1-1.3v-1.3h-2.6c-1.5,0-2.3,0.5-2.3,1.5c0,0.5,0.2,0.9,0.6,1.1
		c0.4,0.3,0.9,0.4,1.5,0.4C92.5,223.2,93.1,223,93.6,222.7z"/>
	<path class="st7" d="M103,225.3c-1-0.3-1.8-0.6-2.4-1l1.2-2.7c0.6,0.4,1.3,0.7,2.1,0.9c0.8,0.2,1.6,0.3,2.4,0.3
		c1.6,0,2.4-0.4,2.4-1.2c0-0.4-0.2-0.6-0.6-0.8c-0.4-0.2-1.1-0.3-2-0.4c-1.1-0.2-1.9-0.3-2.6-0.6c-0.7-0.2-1.3-0.6-1.8-1.1
		s-0.8-1.3-0.8-2.3c0-0.8,0.2-1.5,0.7-2.2c0.5-0.6,1.2-1.1,2.1-1.5c0.9-0.4,2-0.5,3.2-0.5c0.9,0,1.8,0.1,2.7,0.3
		c0.9,0.2,1.7,0.5,2.2,0.8l-1.2,2.7c-1.1-0.6-2.4-1-3.7-1c-0.8,0-1.4,0.1-1.8,0.3c-0.4,0.2-0.6,0.5-0.6,0.9c0,0.4,0.2,0.7,0.6,0.8
		c0.4,0.2,1.1,0.3,2.1,0.5c1.1,0.2,1.9,0.4,2.6,0.6c0.7,0.2,1.3,0.6,1.8,1.1s0.7,1.3,0.7,2.2c0,0.8-0.2,1.5-0.7,2.1
		c-0.5,0.6-1.2,1.1-2.1,1.5c-0.9,0.3-2,0.5-3.3,0.5C105,225.7,104,225.6,103,225.3z"/>
	<path class="st7" d="M122.8,224.9c-0.4,0.3-0.8,0.5-1.4,0.6c-0.5,0.1-1.1,0.2-1.7,0.2c-1.5,0-2.7-0.4-3.6-1.2
		c-0.8-0.8-1.3-1.9-1.3-3.5v-5.3h-2v-2.9h2v-3.1h3.7v3.1h3.2v2.9h-3.2v5.3c0,0.5,0.1,1,0.4,1.3c0.3,0.3,0.7,0.4,1.2,0.4
		c0.6,0,1.1-0.2,1.5-0.5L122.8,224.9z"/>
	<path class="st7" d="M133.7,225.2c-1.2-0.4-2.2-0.8-3-1.4l1.3-2.9c0.7,0.5,1.6,1,2.6,1.3c1,0.3,2,0.5,3,0.5c1.1,0,1.9-0.2,2.4-0.5
		c0.5-0.3,0.8-0.8,0.8-1.3c0-0.4-0.2-0.7-0.5-1s-0.7-0.5-1.2-0.6c-0.5-0.2-1.1-0.3-2-0.5c-1.3-0.3-2.3-0.6-3.1-0.9
		c-0.8-0.3-1.5-0.8-2.1-1.5s-0.9-1.6-0.9-2.7c0-1,0.3-1.9,0.8-2.7c0.5-0.8,1.3-1.4,2.4-1.9c1.1-0.5,2.4-0.7,3.9-0.7
		c1.1,0,2.1,0.1,3.1,0.4s1.9,0.6,2.7,1.1l-1.2,3c-1.6-0.9-3.1-1.3-4.7-1.3c-1.1,0-1.9,0.2-2.4,0.5c-0.5,0.4-0.8,0.8-0.8,1.4
		s0.3,1,0.9,1.3s1.5,0.6,2.7,0.8c1.3,0.3,2.3,0.6,3.1,0.9c0.8,0.3,1.5,0.8,2.1,1.4c0.6,0.7,0.9,1.5,0.9,2.7c0,1-0.3,1.8-0.8,2.6
		s-1.3,1.4-2.4,1.9s-2.4,0.7-3.9,0.7C136.2,225.8,134.9,225.6,133.7,225.2z"/>
	<path class="st7" d="M158,213.2c1,0.6,1.8,1.3,2.3,2.3c0.6,1,0.8,2.2,0.8,3.5s-0.3,2.5-0.8,3.5c-0.6,1-1.3,1.8-2.3,2.3
		c-1,0.6-2.1,0.8-3.3,0.8c-1.6,0-2.9-0.5-3.9-1.6v6H147v-17.6h3.6v1.5c0.9-1.1,2.3-1.7,4.1-1.7C155.9,212.4,157,212.7,158,213.2z
		 M156.4,221.6c0.6-0.6,0.9-1.5,0.9-2.6s-0.3-2-0.9-2.6c-0.6-0.6-1.4-1-2.4-1s-1.7,0.3-2.4,1c-0.6,0.6-0.9,1.5-0.9,2.6
		s0.3,2,0.9,2.6c0.6,0.6,1.4,1,2.4,1S155.8,222.3,156.4,221.6z"/>
	<path class="st7" d="M166.1,224.8c-1.1-0.6-1.9-1.4-2.5-2.4c-0.6-1-0.9-2.2-0.9-3.4s0.3-2.4,0.9-3.4c0.6-1,1.5-1.8,2.5-2.4
		c1.1-0.6,2.3-0.9,3.7-0.9c1.4,0,2.6,0.3,3.6,0.9c1.1,0.6,1.9,1.4,2.5,2.4c0.6,1,0.9,2.2,0.9,3.4s-0.3,2.4-0.9,3.4
		c-0.6,1-1.4,1.8-2.5,2.4c-1.1,0.6-2.3,0.9-3.6,0.9C168.4,225.7,167.2,225.4,166.1,224.8z M172.1,221.6c0.6-0.6,0.9-1.5,0.9-2.6
		s-0.3-2-0.9-2.6c-0.6-0.6-1.4-1-2.4-1s-1.8,0.3-2.4,1c-0.6,0.6-0.9,1.5-0.9,2.6s0.3,2,0.9,2.6c0.6,0.6,1.4,1,2.4,1
		S171.5,222.3,172.1,221.6z"/>
	<path class="st7" d="M191,213.8c1,1,1.5,2.4,1.5,4.3v7.4h-3.7v-6.8c0-1-0.2-1.8-0.7-2.3c-0.4-0.5-1.1-0.8-1.9-0.8
		c-0.9,0-1.7,0.3-2.3,0.9c-0.6,0.6-0.8,1.5-0.8,2.6v6.4h-3.7v-12.9h3.6v1.5c0.5-0.5,1.1-1,1.8-1.3c0.7-0.3,1.5-0.4,2.4-0.4
		C188.8,212.4,190.1,212.9,191,213.8z"/>
	<path class="st7" d="M197.1,225.3c-1-0.3-1.8-0.6-2.4-1l1.2-2.7c0.6,0.4,1.3,0.7,2.1,0.9c0.8,0.2,1.6,0.3,2.4,0.3
		c1.6,0,2.4-0.4,2.4-1.2c0-0.4-0.2-0.6-0.6-0.8c-0.4-0.2-1.1-0.3-2-0.4c-1.1-0.2-1.9-0.3-2.6-0.6c-0.7-0.2-1.3-0.6-1.8-1.1
		s-0.8-1.3-0.8-2.3c0-0.8,0.2-1.5,0.7-2.2c0.5-0.6,1.2-1.1,2.1-1.5c0.9-0.4,2-0.5,3.2-0.5c0.9,0,1.8,0.1,2.7,0.3
		c0.9,0.2,1.7,0.5,2.2,0.8l-1.2,2.7c-1.1-0.6-2.4-1-3.7-1c-0.8,0-1.4,0.1-1.8,0.3c-0.4,0.2-0.6,0.5-0.6,0.9c0,0.4,0.2,0.7,0.6,0.8
		c0.4,0.2,1.1,0.3,2.1,0.5c1.1,0.2,1.9,0.4,2.6,0.6c0.7,0.2,1.3,0.6,1.8,1.1s0.7,1.3,0.7,2.2c0,0.8-0.2,1.5-0.7,2.1
		c-0.5,0.6-1.2,1.1-2.1,1.5c-0.9,0.3-2,0.5-3.3,0.5C199.2,225.7,198.1,225.6,197.1,225.3z"/>
	<path class="st7" d="M211.1,224.8c-1.1-0.6-1.9-1.4-2.5-2.4c-0.6-1-0.9-2.2-0.9-3.4s0.3-2.4,0.9-3.4c0.6-1,1.5-1.8,2.5-2.4
		c1.1-0.6,2.3-0.9,3.7-0.9c1.4,0,2.6,0.3,3.6,0.9c1.1,0.6,1.9,1.4,2.5,2.4c0.6,1,0.9,2.2,0.9,3.4s-0.3,2.4-0.9,3.4
		c-0.6,1-1.4,1.8-2.5,2.4c-1.1,0.6-2.3,0.9-3.6,0.9C213.4,225.7,212.2,225.4,211.1,224.8z M217.2,221.6c0.6-0.6,0.9-1.5,0.9-2.6
		s-0.3-2-0.9-2.6c-0.6-0.6-1.4-1-2.4-1s-1.8,0.3-2.4,1c-0.6,0.6-0.9,1.5-0.9,2.6s0.3,2,0.9,2.6c0.6,0.6,1.4,1,2.4,1
		S216.5,222.3,217.2,221.6z"/>
	<path class="st7" d="M229.8,212.9c0.8-0.3,1.6-0.5,2.6-0.5v3.5c-0.4,0-0.7,0-0.8,0c-1.1,0-1.9,0.3-2.5,0.9
		c-0.6,0.6-0.9,1.5-0.9,2.7v6.1h-3.7v-12.9h3.6v1.7C228.4,213.7,229,213.2,229.8,212.9z"/>
	<path class="st7" d="M235.9,225.3c-1-0.3-1.8-0.6-2.4-1l1.2-2.7c0.6,0.4,1.3,0.7,2.1,0.9c0.8,0.2,1.6,0.3,2.4,0.3
		c1.6,0,2.4-0.4,2.4-1.2c0-0.4-0.2-0.6-0.6-0.8c-0.4-0.2-1.1-0.3-2-0.4c-1.1-0.2-1.9-0.3-2.6-0.6c-0.7-0.2-1.3-0.6-1.8-1.1
		s-0.8-1.3-0.8-2.3c0-0.8,0.2-1.5,0.7-2.2c0.5-0.6,1.2-1.1,2.1-1.5c0.9-0.4,2-0.5,3.2-0.5c0.9,0,1.8,0.1,2.7,0.3
		c0.9,0.2,1.7,0.5,2.2,0.8l-1.2,2.7c-1.1-0.6-2.4-1-3.7-1c-0.8,0-1.4,0.1-1.8,0.3c-0.4,0.2-0.6,0.5-0.6,0.9c0,0.4,0.2,0.7,0.6,0.8
		c0.4,0.2,1.1,0.3,2.1,0.5c1.1,0.2,1.9,0.4,2.6,0.6c0.7,0.2,1.3,0.6,1.8,1.1s0.7,1.3,0.7,2.2c0,0.8-0.2,1.5-0.7,2.1
		c-0.5,0.6-1.2,1.1-2.1,1.5c-0.9,0.3-2,0.5-3.3,0.5C238,225.7,236.9,225.6,235.9,225.3z"/>
</g>
<rect x="362.5" y="207.7" class="st5" width="205" height="79"/>
<g class="st6">
	<path class="st7" d="M360.8,219.8v3.3h5.8v2.3h-5.8v4.6h-2.9v-12.6h9.5v2.3H360.8z"/>
	<path class="st7" d="M378.4,226h-7.3c0.1,0.6,0.4,1.1,0.9,1.4s1.1,0.5,1.8,0.5c0.5,0,1-0.1,1.3-0.2c0.4-0.1,0.8-0.4,1.1-0.7
		l1.5,1.6c-0.9,1-2.2,1.6-4,1.6c-1.1,0-2.1-0.2-2.9-0.6c-0.8-0.4-1.5-1-1.9-1.8c-0.5-0.8-0.7-1.6-0.7-2.6c0-0.9,0.2-1.8,0.7-2.6
		c0.5-0.8,1.1-1.4,1.9-1.8c0.8-0.4,1.7-0.6,2.6-0.6c0.9,0,1.8,0.2,2.6,0.6s1.4,1,1.8,1.8s0.7,1.6,0.7,2.7
		C378.4,225.3,378.4,225.5,378.4,226z M371.8,222.9c-0.4,0.4-0.7,0.9-0.8,1.5h4.8c-0.1-0.6-0.4-1.1-0.8-1.5c-0.4-0.4-1-0.5-1.6-0.5
		C372.8,222.3,372.2,222.5,371.8,222.9z"/>
	<path class="st7" d="M395.6,221.3c0.7,0.7,1.1,1.8,1.1,3.2v5.5h-2.8v-5.1c0-0.8-0.2-1.3-0.5-1.7c-0.3-0.4-0.8-0.6-1.4-0.6
		c-0.7,0-1.2,0.2-1.6,0.6c-0.4,0.4-0.6,1.1-0.6,1.9v4.9h-2.8v-5.1c0-1.5-0.6-2.3-1.8-2.3c-0.6,0-1.2,0.2-1.5,0.6
		c-0.4,0.4-0.6,1.1-0.6,1.9v4.9h-2.8v-9.7h2.7v1.1c0.4-0.4,0.8-0.7,1.3-0.9c0.5-0.2,1.1-0.3,1.7-0.3c0.7,0,1.3,0.1,1.9,0.4
		c0.6,0.3,1,0.7,1.3,1.2c0.4-0.5,0.9-0.9,1.5-1.2c0.6-0.3,1.3-0.4,2-0.4C393.9,220.2,394.9,220.6,395.6,221.3z"/>
	<path class="st7" d="M406.5,221.3c0.8,0.7,1.2,1.8,1.2,3.2v5.5h-2.6v-1.2c-0.5,0.9-1.5,1.3-3,1.3c-0.7,0-1.4-0.1-1.9-0.4
		c-0.5-0.3-1-0.6-1.3-1c-0.3-0.4-0.4-0.9-0.4-1.5c0-0.9,0.3-1.6,1-2.1c0.7-0.5,1.7-0.8,3.1-0.8h2.2c0-0.6-0.2-1.1-0.6-1.4
		c-0.4-0.3-0.9-0.5-1.7-0.5c-0.5,0-1,0.1-1.5,0.2c-0.5,0.2-0.9,0.4-1.3,0.7l-1-2c0.5-0.4,1.2-0.7,1.9-0.9c0.7-0.2,1.5-0.3,2.3-0.3
		C404.6,220.2,405.7,220.6,406.5,221.3z M404.2,228c0.4-0.2,0.6-0.5,0.8-1v-1H403c-1.2,0-1.7,0.4-1.7,1.1c0,0.4,0.1,0.6,0.4,0.9
		c0.3,0.2,0.7,0.3,1.2,0.3C403.4,228.3,403.8,228.2,404.2,228z"/>
	<path class="st7" d="M410.3,216.7h2.8v13.4h-2.8V216.7z"/>
	<path class="st7" d="M425.1,226h-7.3c0.1,0.6,0.4,1.1,0.9,1.4s1.1,0.5,1.8,0.5c0.5,0,1-0.1,1.3-0.2c0.4-0.1,0.8-0.4,1.1-0.7
		l1.5,1.6c-0.9,1-2.2,1.6-4,1.6c-1.1,0-2.1-0.2-2.9-0.6c-0.8-0.4-1.5-1-1.9-1.8c-0.5-0.8-0.7-1.6-0.7-2.6c0-0.9,0.2-1.8,0.7-2.6
		c0.5-0.8,1.1-1.4,1.9-1.8c0.8-0.4,1.7-0.6,2.6-0.6c0.9,0,1.8,0.2,2.6,0.6s1.4,1,1.8,1.8s0.7,1.6,0.7,2.7
		C425.2,225.3,425.2,225.5,425.1,226z M418.6,222.9c-0.4,0.4-0.7,0.9-0.8,1.5h4.8c-0.1-0.6-0.4-1.1-0.8-1.5c-0.4-0.4-1-0.5-1.6-0.5
		C419.5,222.3,419,222.5,418.6,222.9z"/>
	<path class="st7" d="M440.7,218c0.8,0.4,1.5,0.9,1.9,1.6s0.7,1.5,0.7,2.4c0,0.9-0.2,1.7-0.7,2.4c-0.4,0.7-1.1,1.2-1.9,1.6
		c-0.8,0.4-1.8,0.5-2.9,0.5h-2.5v3.5h-2.9v-12.6h5.5C438.9,217.5,439.9,217.6,440.7,218z M439.6,223.6c0.5-0.4,0.7-0.9,0.7-1.6
		c0-0.7-0.2-1.3-0.7-1.6c-0.5-0.4-1.1-0.6-2-0.6h-2.4v4.4h2.4C438.5,224.2,439.2,224,439.6,223.6z"/>
	<path class="st7" d="M452.4,221.3c0.8,0.7,1.2,1.8,1.2,3.2v5.5H451v-1.2c-0.5,0.9-1.5,1.3-3,1.3c-0.7,0-1.4-0.1-1.9-0.4
		c-0.5-0.3-1-0.6-1.3-1c-0.3-0.4-0.4-0.9-0.4-1.5c0-0.9,0.3-1.6,1-2.1c0.7-0.5,1.7-0.8,3.1-0.8h2.2c0-0.6-0.2-1.1-0.6-1.4
		c-0.4-0.3-0.9-0.5-1.7-0.5c-0.5,0-1,0.1-1.5,0.2c-0.5,0.2-0.9,0.4-1.3,0.7l-1-2c0.5-0.4,1.2-0.7,1.9-0.9c0.7-0.2,1.5-0.3,2.3-0.3
		C450.5,220.2,451.6,220.6,452.4,221.3z M450,228c0.4-0.2,0.6-0.5,0.8-1v-1h-1.9c-1.2,0-1.7,0.4-1.7,1.1c0,0.4,0.1,0.6,0.4,0.9
		c0.3,0.2,0.7,0.3,1.2,0.3C449.2,228.3,449.7,228.2,450,228z"/>
	<path class="st7" d="M460.2,220.6c0.6-0.2,1.2-0.4,2-0.4v2.6c-0.3,0-0.5,0-0.6,0c-0.8,0-1.4,0.2-1.9,0.7c-0.5,0.4-0.7,1.1-0.7,2
		v4.6h-2.8v-9.7h2.7v1.3C459.2,221.2,459.6,220.8,460.2,220.6z"/>
	<path class="st7" d="M470.4,229.6c-0.3,0.2-0.6,0.4-1,0.5c-0.4,0.1-0.8,0.2-1.3,0.2c-1.2,0-2-0.3-2.7-0.9s-0.9-1.5-0.9-2.6v-4H463
		v-2.2h1.5v-2.4h2.8v2.4h2.4v2.2h-2.4v3.9c0,0.4,0.1,0.7,0.3,0.9s0.5,0.3,0.9,0.3c0.4,0,0.8-0.1,1.1-0.4L470.4,229.6z"/>
	<path class="st7" d="M472.2,218.6c-0.3-0.3-0.5-0.7-0.5-1.1c0-0.4,0.2-0.8,0.5-1.1c0.3-0.3,0.7-0.5,1.3-0.5c0.5,0,0.9,0.1,1.3,0.4
		s0.5,0.6,0.5,1.1c0,0.5-0.2,0.9-0.5,1.2c-0.3,0.3-0.7,0.5-1.3,0.5C472.9,219,472.5,218.9,472.2,218.6z M472,220.4h2.8v9.7H472
		V220.4z"/>
	<path class="st7" d="M479.3,229.6c-0.8-0.4-1.5-1-1.9-1.8c-0.5-0.8-0.7-1.6-0.7-2.6s0.2-1.8,0.7-2.6s1.1-1.3,1.9-1.8
		c0.8-0.4,1.7-0.6,2.8-0.6c1,0,1.9,0.2,2.7,0.6c0.8,0.4,1.3,1,1.7,1.8l-2.2,1.2c-0.5-0.9-1.2-1.3-2.2-1.3c-0.7,0-1.3,0.2-1.8,0.7
		c-0.5,0.5-0.7,1.1-0.7,2s0.2,1.5,0.7,2c0.5,0.5,1.1,0.7,1.8,0.7c1,0,1.7-0.4,2.2-1.3l2.2,1.2c-0.3,0.8-0.9,1.4-1.7,1.8
		c-0.8,0.4-1.7,0.6-2.7,0.6C481.1,230.2,480.2,230,479.3,229.6z"/>
	<path class="st7" d="M488.2,218.6c-0.3-0.3-0.5-0.7-0.5-1.1c0-0.4,0.2-0.8,0.5-1.1s0.7-0.5,1.3-0.5s0.9,0.1,1.3,0.4
		c0.3,0.3,0.5,0.6,0.5,1.1c0,0.5-0.2,0.9-0.5,1.2c-0.3,0.3-0.7,0.5-1.3,0.5S488.5,218.9,488.2,218.6z M488,220.4h2.8v9.7H488V220.4z
		"/>
	<path class="st7" d="M501.6,220.8c0.7,0.4,1.3,1,1.7,1.7s0.6,1.6,0.6,2.6s-0.2,1.9-0.6,2.6s-1,1.3-1.7,1.7
		c-0.7,0.4-1.6,0.6-2.5,0.6c-1.2,0-2.2-0.4-2.9-1.2v4.5h-2.8v-13.2h2.7v1.1c0.7-0.8,1.7-1.3,3-1.3
		C500.1,220.2,500.9,220.4,501.6,220.8z M500.4,227.2c0.5-0.5,0.7-1.1,0.7-2s-0.2-1.5-0.7-2c-0.5-0.5-1.1-0.7-1.8-0.7
		s-1.3,0.2-1.8,0.7c-0.5,0.5-0.7,1.1-0.7,2s0.2,1.5,0.7,2c0.5,0.5,1.1,0.7,1.8,0.7S500,227.6,500.4,227.2z"/>
	<path class="st7" d="M513.1,221.3c0.8,0.7,1.2,1.8,1.2,3.2v5.5h-2.6v-1.2c-0.5,0.9-1.5,1.3-3,1.3c-0.7,0-1.4-0.1-1.9-0.4
		c-0.5-0.3-1-0.6-1.3-1c-0.3-0.4-0.4-0.9-0.4-1.5c0-0.9,0.3-1.6,1-2.1c0.7-0.5,1.7-0.8,3.1-0.8h2.2c0-0.6-0.2-1.1-0.6-1.4
		s-0.9-0.5-1.7-0.5c-0.5,0-1,0.1-1.5,0.2c-0.5,0.2-0.9,0.4-1.3,0.7l-1-2c0.5-0.4,1.2-0.7,1.9-0.9c0.7-0.2,1.5-0.3,2.3-0.3
		C511.1,220.2,512.2,220.6,513.1,221.3z M510.7,228c0.4-0.2,0.6-0.5,0.8-1v-1h-1.9c-1.2,0-1.7,0.4-1.7,1.1c0,0.4,0.1,0.6,0.4,0.9
		s0.7,0.3,1.2,0.3C509.9,228.3,510.3,228.2,510.7,228z"/>
	<path class="st7" d="M525.6,221.3c0.7,0.7,1.1,1.8,1.1,3.2v5.5h-2.8v-5.1c0-0.8-0.2-1.3-0.5-1.7s-0.8-0.6-1.5-0.6
		c-0.7,0-1.3,0.2-1.7,0.7c-0.4,0.4-0.6,1.1-0.6,2v4.8h-2.8v-9.7h2.7v1.1c0.4-0.4,0.8-0.7,1.4-0.9c0.6-0.2,1.2-0.3,1.8-0.3
		C523.9,220.2,524.9,220.6,525.6,221.3z"/>
	<path class="st7" d="M535.5,229.6c-0.3,0.2-0.6,0.4-1,0.5c-0.4,0.1-0.8,0.2-1.3,0.2c-1.2,0-2-0.3-2.7-0.9s-0.9-1.5-0.9-2.6v-4h-1.5
		v-2.2h1.5v-2.4h2.8v2.4h2.4v2.2h-2.4v3.9c0,0.4,0.1,0.7,0.3,0.9s0.5,0.3,0.9,0.3c0.4,0,0.8-0.1,1.1-0.4L535.5,229.6z"/>
	<path class="st7" d="M538,229.9c-0.8-0.2-1.4-0.4-1.8-0.7l0.9-2c0.4,0.3,1,0.5,1.6,0.7c0.6,0.2,1.2,0.3,1.8,0.3
		c1.2,0,1.8-0.3,1.8-0.9c0-0.3-0.2-0.5-0.5-0.6s-0.8-0.2-1.5-0.3c-0.8-0.1-1.4-0.3-2-0.4c-0.5-0.2-1-0.4-1.3-0.8
		c-0.4-0.4-0.6-1-0.6-1.7c0-0.6,0.2-1.2,0.5-1.6c0.4-0.5,0.9-0.8,1.5-1.1c0.7-0.3,1.5-0.4,2.4-0.4c0.7,0,1.4,0.1,2,0.2
		c0.7,0.1,1.2,0.4,1.7,0.6l-0.9,2c-0.9-0.5-1.8-0.7-2.8-0.7c-0.6,0-1.1,0.1-1.4,0.3s-0.5,0.4-0.5,0.6c0,0.3,0.2,0.5,0.5,0.6
		s0.8,0.2,1.5,0.3c0.8,0.1,1.4,0.3,1.9,0.4c0.5,0.2,0.9,0.4,1.3,0.8c0.4,0.4,0.6,0.9,0.6,1.7c0,0.6-0.2,1.1-0.5,1.6
		c-0.4,0.5-0.9,0.8-1.6,1.1c-0.7,0.3-1.5,0.4-2.5,0.4C539.5,230.2,538.7,230.1,538,229.9z"/>
	<path class="st7" d="M554.8,220.6h2.5v2.2h-2.4v7.3h-2.8v-7.3h-1.5v-2.2h1.5v-0.4c0-1.1,0.3-2,1-2.6c0.7-0.6,1.6-1,2.8-1
		c0.4,0,0.8,0,1.2,0.1s0.7,0.2,0.9,0.4l-0.7,2c-0.3-0.2-0.7-0.3-1.1-0.3c-0.9,0-1.3,0.5-1.3,1.4V220.6z"/>
	<path class="st7" d="M560.4,229.6c-0.8-0.4-1.4-1-1.9-1.8c-0.5-0.8-0.7-1.6-0.7-2.6s0.2-1.8,0.7-2.6s1.1-1.3,1.9-1.8
		c0.8-0.4,1.7-0.6,2.7-0.6c1,0,1.9,0.2,2.7,0.6c0.8,0.4,1.4,1,1.9,1.8s0.7,1.6,0.7,2.6s-0.2,1.8-0.7,2.6c-0.5,0.8-1.1,1.3-1.9,1.8
		c-0.8,0.4-1.7,0.6-2.7,0.6C562.1,230.2,561.2,230,560.4,229.6z M564.9,227.2c0.5-0.5,0.7-1.1,0.7-2s-0.2-1.5-0.7-2
		s-1.1-0.7-1.8-0.7s-1.3,0.2-1.8,0.7s-0.7,1.1-0.7,2s0.2,1.5,0.7,2c0.5,0.5,1.1,0.7,1.8,0.7S564.5,227.6,564.9,227.2z"/>
	<path class="st7" d="M574.4,220.6c0.6-0.2,1.2-0.4,2-0.4v2.6c-0.3,0-0.5,0-0.6,0c-0.8,0-1.4,0.2-1.9,0.7c-0.5,0.4-0.7,1.1-0.7,2
		v4.6h-2.8v-9.7h2.7v1.3C573.4,221.2,573.8,220.8,574.4,220.6z"/>
</g>
<g class="st6">
	<path class="st7" d="M375.4,239.2l-4.1,12.6h-3.1l-2.8-8.5l-2.9,8.5h-3.1l-4.1-12.6h3l2.8,8.9l3-8.9h2.7l2.9,8.9l2.9-8.9H375.4z"/>
	<path class="st7" d="M377.1,240.3c-0.3-0.3-0.5-0.7-0.5-1.1c0-0.4,0.2-0.8,0.5-1.1c0.3-0.3,0.7-0.5,1.3-0.5c0.5,0,0.9,0.1,1.3,0.4
		c0.3,0.3,0.5,0.6,0.5,1.1c0,0.5-0.2,0.9-0.5,1.2c-0.3,0.3-0.7,0.5-1.3,0.5C377.8,240.7,377.4,240.6,377.1,240.3z M377,242.1h2.8
		v9.7H377V242.1z"/>
	<path class="st7" d="M391.2,243c0.7,0.7,1.1,1.8,1.1,3.2v5.5h-2.8v-5.1c0-0.8-0.2-1.3-0.5-1.7s-0.8-0.6-1.5-0.6
		c-0.7,0-1.3,0.2-1.7,0.7c-0.4,0.4-0.6,1.1-0.6,2v4.8h-2.8v-9.7h2.7v1.1c0.4-0.4,0.8-0.7,1.4-0.9c0.6-0.2,1.2-0.3,1.8-0.3
		C389.5,241.9,390.4,242.3,391.2,243z"/>
	<path class="st7" d="M401.1,251.3c-0.3,0.2-0.6,0.4-1,0.5s-0.8,0.2-1.3,0.2c-1.2,0-2-0.3-2.7-0.9s-0.9-1.5-0.9-2.6v-4h-1.5v-2.2
		h1.5v-2.4h2.8v2.4h2.4v2.2H398v3.9c0,0.4,0.1,0.7,0.3,0.9c0.2,0.2,0.5,0.3,0.9,0.3c0.4,0,0.8-0.1,1.1-0.4L401.1,251.3z"/>
	<path class="st7" d="M411.8,247.7h-7.3c0.1,0.6,0.4,1.1,0.9,1.4s1.1,0.5,1.8,0.5c0.5,0,1-0.1,1.3-0.2c0.4-0.1,0.8-0.4,1.1-0.7
		l1.5,1.6c-0.9,1-2.2,1.6-4,1.6c-1.1,0-2.1-0.2-2.9-0.6c-0.8-0.4-1.5-1-1.9-1.8c-0.5-0.8-0.7-1.6-0.7-2.6c0-0.9,0.2-1.8,0.7-2.6
		c0.5-0.8,1.1-1.4,1.9-1.8c0.8-0.4,1.7-0.6,2.6-0.6c0.9,0,1.8,0.2,2.6,0.6s1.4,1,1.8,1.8s0.7,1.6,0.7,2.7
		C411.8,247,411.8,247.2,411.8,247.7z M405.2,244.6c-0.4,0.4-0.7,0.9-0.8,1.5h4.8c-0.1-0.6-0.4-1.1-0.8-1.5c-0.4-0.4-1-0.5-1.6-0.5
		C406.2,244,405.6,244.2,405.2,244.6z"/>
	<path class="st7" d="M417.7,242.3c0.6-0.2,1.2-0.4,2-0.4v2.6c-0.3,0-0.5,0-0.6,0c-0.8,0-1.4,0.2-1.9,0.7c-0.5,0.4-0.7,1.1-0.7,2
		v4.6h-2.8v-9.7h2.7v1.3C416.7,242.9,417.2,242.5,417.7,242.3z"/>
	<path class="st7" d="M435.4,249.4v2.4h-9.5v-1.9l4.9-4.6c0.5-0.5,0.9-0.9,1-1.3c0.2-0.4,0.3-0.7,0.3-1.1c0-0.5-0.2-0.9-0.5-1.2
		c-0.3-0.3-0.8-0.4-1.5-0.4c-0.6,0-1.1,0.1-1.5,0.3s-0.8,0.5-1.1,0.9l-2.1-1.4c0.5-0.7,1.2-1.3,2-1.7c0.9-0.4,1.9-0.6,3-0.6
		c0.9,0,1.8,0.2,2.5,0.5c0.7,0.3,1.2,0.7,1.6,1.3c0.4,0.6,0.6,1.2,0.6,2c0,0.7-0.1,1.3-0.4,1.9c-0.3,0.6-0.8,1.3-1.7,2.1l-2.9,2.7
		H435.4z"/>
	<path class="st7" d="M439.2,251.2c-0.8-0.5-1.5-1.3-1.9-2.2c-0.5-1-0.7-2.1-0.7-3.5s0.2-2.5,0.7-3.5c0.5-1,1.1-1.7,1.9-2.2
		c0.8-0.5,1.7-0.8,2.8-0.8s2,0.3,2.8,0.8c0.8,0.5,1.5,1.3,1.9,2.2c0.5,1,0.7,2.1,0.7,3.5s-0.2,2.5-0.7,3.5c-0.5,1-1.1,1.7-1.9,2.2
		c-0.8,0.5-1.7,0.8-2.8,0.8S440,251.7,439.2,251.2z M443.8,248.5c0.4-0.7,0.7-1.7,0.7-3.1s-0.2-2.4-0.7-3.1c-0.4-0.7-1-1-1.8-1
		c-0.8,0-1.4,0.3-1.8,1c-0.4,0.7-0.7,1.7-0.7,3.1s0.2,2.4,0.7,3.1c0.4,0.7,1,1,1.8,1C442.7,249.5,443.3,249.2,443.8,248.5z"/>
	<path class="st7" d="M458.1,249.4v2.4h-9.5v-1.9l4.9-4.6c0.5-0.5,0.9-0.9,1-1.3c0.2-0.4,0.3-0.7,0.3-1.1c0-0.5-0.2-0.9-0.5-1.2
		c-0.3-0.3-0.8-0.4-1.5-0.4c-0.6,0-1.1,0.1-1.5,0.3s-0.8,0.5-1.1,0.9l-2.1-1.4c0.5-0.7,1.2-1.3,2-1.7c0.9-0.4,1.9-0.6,3-0.6
		c0.9,0,1.8,0.2,2.5,0.5c0.7,0.3,1.2,0.7,1.6,1.3c0.4,0.6,0.6,1.2,0.6,2c0,0.7-0.1,1.3-0.4,1.9c-0.3,0.6-0.8,1.3-1.7,2.1l-2.9,2.7
		H458.1z"/>
	<path class="st7" d="M462,251.2c-0.8-0.5-1.5-1.3-1.9-2.2c-0.5-1-0.7-2.1-0.7-3.5s0.2-2.5,0.7-3.5c0.5-1,1.1-1.7,1.9-2.2
		c0.8-0.5,1.7-0.8,2.8-0.8c1,0,2,0.3,2.8,0.8c0.8,0.5,1.5,1.3,1.9,2.2c0.5,1,0.7,2.1,0.7,3.5s-0.2,2.5-0.7,3.5
		c-0.5,1-1.1,1.7-1.9,2.2c-0.8,0.5-1.7,0.8-2.8,0.8C463.7,252,462.8,251.7,462,251.2z M466.6,248.5c0.4-0.7,0.7-1.7,0.7-3.1
		s-0.2-2.4-0.7-3.1c-0.4-0.7-1-1-1.8-1c-0.8,0-1.4,0.3-1.8,1c-0.4,0.7-0.7,1.7-0.7,3.1s0.2,2.4,0.7,3.1c0.4,0.7,1,1,1.8,1
		C465.5,249.5,466.1,249.2,466.6,248.5z"/>
	<path class="st7" d="M488.4,246.3c0.4,0.5,0.6,1.2,0.6,2c0,1.1-0.4,2-1.3,2.5c-0.9,0.6-2.1,0.9-3.8,0.9h-6.5v-12.6h6.2
		c1.5,0,2.7,0.3,3.5,0.9c0.8,0.6,1.2,1.4,1.2,2.4c0,0.6-0.1,1.2-0.4,1.6c-0.3,0.5-0.7,0.9-1.2,1.1
		C487.4,245.4,488,245.8,488.4,246.3z M480.4,241.3v3h2.9c0.7,0,1.3-0.1,1.6-0.4c0.4-0.3,0.6-0.6,0.6-1.1s-0.2-0.9-0.6-1.1
		c-0.4-0.2-0.9-0.4-1.6-0.4H480.4z M485.5,249.2c0.4-0.3,0.6-0.6,0.6-1.2c0-1-0.8-1.6-2.3-1.6h-3.4v3.1h3.4
		C484.5,249.6,485.1,249.4,485.5,249.2z"/>
	<path class="st7" d="M492.9,251.3c-0.8-0.4-1.4-1-1.9-1.8c-0.5-0.8-0.7-1.6-0.7-2.6s0.2-1.8,0.7-2.6s1.1-1.3,1.9-1.8
		c0.8-0.4,1.7-0.6,2.7-0.6c1,0,1.9,0.2,2.7,0.6c0.8,0.4,1.4,1,1.9,1.8s0.7,1.6,0.7,2.6s-0.2,1.8-0.7,2.6c-0.5,0.8-1.1,1.3-1.9,1.8
		s-1.7,0.6-2.7,0.6C494.6,251.9,493.7,251.7,492.9,251.3z M497.4,248.9c0.5-0.5,0.7-1.1,0.7-2s-0.2-1.5-0.7-2s-1.1-0.7-1.8-0.7
		c-0.7,0-1.3,0.2-1.8,0.7c-0.5,0.5-0.7,1.1-0.7,2s0.2,1.5,0.7,2c0.5,0.5,1.1,0.7,1.8,0.7C496.4,249.6,496.9,249.3,497.4,248.9z"/>
	<path class="st7" d="M504.7,251.3c-0.8-0.4-1.4-1-1.9-1.8c-0.5-0.8-0.7-1.6-0.7-2.6s0.2-1.8,0.7-2.6s1.1-1.3,1.9-1.8
		c0.8-0.4,1.7-0.6,2.7-0.6c1,0,1.9,0.2,2.7,0.6c0.8,0.4,1.4,1,1.9,1.8s0.7,1.6,0.7,2.6s-0.2,1.8-0.7,2.6c-0.5,0.8-1.1,1.3-1.9,1.8
		s-1.7,0.6-2.7,0.6C506.4,251.9,505.5,251.7,504.7,251.3z M509.2,248.9c0.5-0.5,0.7-1.1,0.7-2s-0.2-1.5-0.7-2s-1.1-0.7-1.8-0.7
		c-0.7,0-1.3,0.2-1.8,0.7c-0.5,0.5-0.7,1.1-0.7,2s0.2,1.5,0.7,2c0.5,0.5,1.1,0.7,1.8,0.7C508.1,249.6,508.7,249.3,509.2,248.9z"/>
	<path class="st7" d="M520.9,251.3c-0.3,0.2-0.6,0.4-1,0.5c-0.4,0.1-0.8,0.2-1.3,0.2c-1.2,0-2-0.3-2.7-0.9s-0.9-1.5-0.9-2.6v-4h-1.5
		v-2.2h1.5v-2.4h2.8v2.4h2.4v2.2h-2.4v3.9c0,0.4,0.1,0.7,0.3,0.9s0.5,0.3,0.9,0.3c0.4,0,0.8-0.1,1.1-0.4L520.9,251.3z"/>
	<path class="st7" d="M524,251.3c-0.8-0.4-1.5-1-1.9-1.8c-0.5-0.8-0.7-1.6-0.7-2.6s0.2-1.8,0.7-2.6s1.1-1.3,1.9-1.8
		c0.8-0.4,1.7-0.6,2.8-0.6c1,0,1.9,0.2,2.7,0.6c0.8,0.4,1.3,1,1.7,1.8l-2.2,1.2c-0.5-0.9-1.2-1.3-2.2-1.3c-0.7,0-1.3,0.2-1.8,0.7
		c-0.5,0.5-0.7,1.1-0.7,2s0.2,1.5,0.7,2c0.5,0.5,1.1,0.7,1.8,0.7c1,0,1.7-0.4,2.2-1.3l2.2,1.2c-0.3,0.8-0.9,1.4-1.7,1.8
		c-0.8,0.4-1.7,0.6-2.7,0.6C525.8,251.9,524.9,251.7,524,251.3z"/>
	<path class="st7" d="M540.1,243c0.8,0.7,1.2,1.8,1.2,3.2v5.5h-2.6v-1.2c-0.5,0.9-1.5,1.3-3,1.3c-0.7,0-1.4-0.1-1.9-0.4
		c-0.5-0.3-1-0.6-1.3-1c-0.3-0.4-0.4-0.9-0.4-1.5c0-0.9,0.3-1.6,1-2.1c0.7-0.5,1.7-0.8,3.1-0.8h2.2c0-0.6-0.2-1.1-0.6-1.4
		s-0.9-0.5-1.7-0.5c-0.5,0-1,0.1-1.5,0.2c-0.5,0.2-0.9,0.4-1.3,0.7l-1-2c0.5-0.4,1.2-0.7,1.9-0.9c0.7-0.2,1.5-0.3,2.3-0.3
		C538.2,241.9,539.3,242.3,540.1,243z M537.7,249.7c0.4-0.2,0.6-0.5,0.8-1v-1h-1.9c-1.2,0-1.7,0.4-1.7,1.1c0,0.4,0.1,0.6,0.4,0.9
		s0.7,0.3,1.2,0.3C536.9,250,537.4,249.9,537.7,249.7z"/>
	<path class="st7" d="M559.2,243c0.7,0.7,1.1,1.8,1.1,3.2v5.5h-2.8v-5.1c0-0.8-0.2-1.3-0.5-1.7c-0.3-0.4-0.8-0.6-1.4-0.6
		c-0.7,0-1.2,0.2-1.6,0.6c-0.4,0.4-0.6,1.1-0.6,1.9v4.9h-2.8v-5.1c0-1.5-0.6-2.3-1.8-2.3c-0.6,0-1.2,0.2-1.5,0.6s-0.6,1.1-0.6,1.9
		v4.9h-2.8v-9.7h2.7v1.1c0.4-0.4,0.8-0.7,1.3-0.9s1.1-0.3,1.7-0.3c0.7,0,1.3,0.1,1.9,0.4c0.6,0.3,1,0.7,1.3,1.2
		c0.4-0.5,0.9-0.9,1.5-1.2c0.6-0.3,1.3-0.4,2-0.4C557.5,241.9,558.5,242.3,559.2,243z"/>
	<path class="st7" d="M570.9,242.5c0.7,0.4,1.3,1,1.7,1.7s0.6,1.6,0.6,2.6s-0.2,1.9-0.6,2.6s-1,1.3-1.7,1.7
		c-0.7,0.4-1.6,0.6-2.5,0.6c-1.2,0-2.2-0.4-2.9-1.2v4.5h-2.8v-13.2h2.7v1.1c0.7-0.8,1.7-1.3,3-1.3
		C569.4,241.9,570.2,242.1,570.9,242.5z M569.8,248.9c0.5-0.5,0.7-1.1,0.7-2s-0.2-1.5-0.7-2s-1.1-0.7-1.8-0.7
		c-0.7,0-1.3,0.2-1.8,0.7s-0.7,1.1-0.7,2s0.2,1.5,0.7,2c0.5,0.5,1.1,0.7,1.8,0.7C568.7,249.6,569.3,249.3,569.8,248.9z"/>
</g>
<rect x="342.5" y="116.9" class="st5" width="230" height="124"/>
<g class="st6">
	<path class="st7" d="M416.7,177.7h-10.4v13.4H387v-13.4h-37v-12.9l31.4-43.7h20.5L373.4,162h14.2v-11.9h18.7V162h10.4V177.7z"/>
	<path class="st7" d="M486.7,177.7h-10.4v13.4H457v-13.4h-37v-12.9l31.4-43.7h20.5L443.4,162h14.2v-11.9h18.7V162h10.4V177.7z"/>
	<path class="st7" d="M491.5,153.8c-3.3-3.5-5-8.2-5-14.2c0-3.9,0.8-7.4,2.3-10.3c1.5-2.9,3.6-5.2,6.3-6.8c2.7-1.6,5.8-2.4,9.2-2.4
		c5.3,0,9.7,1.8,13,5.2c3.3,3.5,5,8.2,5,14.2c0,6-1.7,10.7-5,14.2c-3.3,3.5-7.7,5.2-13,5.2C499.1,159,494.8,157.3,491.5,153.8z
		 M545.8,121.1h14.4l-47.8,70H498L545.8,121.1z M508.7,147.1c1.1-1.6,1.6-4.1,1.6-7.5s-0.5-5.9-1.6-7.5s-2.5-2.4-4.3-2.4
		c-1.7,0-3.1,0.8-4.2,2.5c-1.1,1.6-1.6,4.1-1.6,7.5c0,3.3,0.5,5.8,1.6,7.5c1.1,1.6,2.5,2.5,4.2,2.5
		C506.2,149.5,507.6,148.7,508.7,147.1z M540.8,186.8c-3.3-3.5-5-8.2-5-14.2c0-5.9,1.7-10.7,5-14.2c3.3-3.5,7.6-5.2,12.9-5.2
		c5.3,0,9.7,1.8,13,5.2c3.3,3.5,5,8.2,5,14.2c0,6-1.7,10.7-5,14.2c-3.3,3.5-7.7,5.2-13,5.2C548.5,192,544.1,190.3,540.8,186.8z
		 M558.1,180.1c1.1-1.6,1.6-4.1,1.6-7.5s-0.5-5.9-1.6-7.5c-1.1-1.6-2.5-2.4-4.3-2.4s-3.2,0.8-4.3,2.4c-1.1,1.6-1.6,4.1-1.6,7.5
		s0.5,5.9,1.6,7.5c1.1,1.6,2.5,2.4,4.3,2.4S557,181.7,558.1,180.1z"/>
</g>
<rect x="679.2" y="207.7" class="st5" width="205" height="79"/>
<g class="st6">
	<path class="st7" d="M716,225.2c-1.2-0.4-2.2-0.8-3-1.4l1.3-2.9c0.7,0.5,1.6,1,2.6,1.3c1,0.3,2,0.5,3,0.5c1.1,0,1.9-0.2,2.4-0.5
		c0.5-0.3,0.8-0.8,0.8-1.3c0-0.4-0.2-0.7-0.5-1c-0.3-0.3-0.7-0.5-1.2-0.6c-0.5-0.2-1.1-0.3-2-0.5c-1.3-0.3-2.3-0.6-3.1-0.9
		c-0.8-0.3-1.5-0.8-2.1-1.5s-0.9-1.6-0.9-2.7c0-1,0.3-1.9,0.8-2.7c0.5-0.8,1.3-1.4,2.4-1.9c1.1-0.5,2.4-0.7,3.9-0.7
		c1.1,0,2.1,0.1,3.1,0.4c1,0.3,1.9,0.6,2.7,1.1l-1.2,3c-1.6-0.9-3.1-1.3-4.7-1.3c-1.1,0-1.9,0.2-2.4,0.5c-0.5,0.4-0.8,0.8-0.8,1.4
		s0.3,1,0.9,1.3c0.6,0.3,1.5,0.6,2.7,0.8c1.3,0.3,2.3,0.6,3.1,0.9c0.8,0.3,1.5,0.8,2.1,1.4c0.6,0.7,0.9,1.5,0.9,2.7
		c0,1-0.3,1.8-0.8,2.6s-1.3,1.4-2.4,1.9c-1.1,0.5-2.4,0.7-3.9,0.7C718.5,225.8,717.2,225.6,716,225.2z"/>
	<path class="st7" d="M742.4,212.6v12.9h-3.6V224c-0.5,0.6-1.1,1-1.8,1.3c-0.7,0.3-1.4,0.4-2.2,0.4c-1.7,0-3-0.5-4-1.5
		c-1-1-1.5-2.4-1.5-4.3v-7.3h3.7v6.7c0,2.1,0.9,3.1,2.6,3.1c0.9,0,1.6-0.3,2.2-0.9s0.8-1.5,0.8-2.6v-6.4H742.4z"/>
	<path class="st7" d="M756.8,213.2c1,0.6,1.8,1.3,2.3,2.3c0.6,1,0.8,2.2,0.8,3.5s-0.3,2.5-0.8,3.5c-0.6,1-1.3,1.8-2.3,2.3
		c-1,0.6-2.1,0.8-3.3,0.8c-1.8,0-3.1-0.6-4.1-1.7v1.5h-3.6v-17.8h3.7v6.3c0.9-1,2.2-1.6,3.9-1.6
		C754.7,212.4,755.8,212.7,756.8,213.2z M755.2,221.6c0.6-0.6,0.9-1.5,0.9-2.6s-0.3-2-0.9-2.6c-0.6-0.6-1.4-1-2.4-1s-1.7,0.3-2.4,1
		c-0.6,0.6-0.9,1.5-0.9,2.6s0.3,2,0.9,2.6c0.6,0.6,1.4,1,2.4,1S754.6,222.3,755.2,221.6z"/>
	<path class="st7" d="M763.6,225.3c-1-0.3-1.8-0.6-2.4-1l1.2-2.7c0.6,0.4,1.3,0.7,2.1,0.9c0.8,0.2,1.6,0.3,2.4,0.3
		c1.6,0,2.4-0.4,2.4-1.2c0-0.4-0.2-0.6-0.6-0.8c-0.4-0.2-1.1-0.3-2-0.4c-1.1-0.2-1.9-0.3-2.6-0.6c-0.7-0.2-1.3-0.6-1.8-1.1
		s-0.8-1.3-0.8-2.3c0-0.8,0.2-1.5,0.7-2.2s1.2-1.1,2.1-1.5c0.9-0.4,2-0.5,3.2-0.5c0.9,0,1.8,0.1,2.7,0.3c0.9,0.2,1.7,0.5,2.2,0.8
		l-1.2,2.7c-1.1-0.6-2.4-1-3.7-1c-0.8,0-1.4,0.1-1.8,0.3c-0.4,0.2-0.6,0.5-0.6,0.9c0,0.4,0.2,0.7,0.6,0.8c0.4,0.2,1.1,0.3,2.1,0.5
		c1.1,0.2,1.9,0.4,2.6,0.6c0.7,0.2,1.3,0.6,1.8,1.1s0.7,1.3,0.7,2.2c0,0.8-0.2,1.5-0.7,2.1s-1.2,1.1-2.1,1.5c-0.9,0.3-2,0.5-3.3,0.5
		C765.7,225.7,764.6,225.6,763.6,225.3z"/>
	<path class="st7" d="M777.7,224.8c-1.1-0.6-2-1.4-2.6-2.4c-0.6-1-0.9-2.2-0.9-3.4s0.3-2.4,0.9-3.4c0.6-1,1.5-1.8,2.6-2.4
		c1.1-0.6,2.3-0.9,3.7-0.9c1.4,0,2.5,0.3,3.6,0.9c1,0.6,1.8,1.4,2.2,2.4l-2.9,1.6c-0.7-1.2-1.6-1.8-2.9-1.8c-1,0-1.8,0.3-2.4,1
		c-0.6,0.6-1,1.5-1,2.6c0,1.1,0.3,2,1,2.6s1.4,1,2.4,1c1.3,0,2.2-0.6,2.9-1.8l2.9,1.6c-0.5,1-1.2,1.8-2.2,2.4
		c-1,0.6-2.2,0.9-3.6,0.9C780,225.7,778.8,225.4,777.7,224.8z"/>
	<path class="st7" d="M794.7,212.9c0.8-0.3,1.6-0.5,2.6-0.5v3.5c-0.4,0-0.7,0-0.8,0c-1.1,0-1.9,0.3-2.5,0.9
		c-0.6,0.6-0.9,1.5-0.9,2.7v6.1h-3.7v-12.9h3.6v1.7C793.4,213.7,794,213.2,794.7,212.9z"/>
	<path class="st7" d="M799.8,210.2c-0.4-0.4-0.6-0.9-0.6-1.5s0.2-1.1,0.6-1.5c0.4-0.4,1-0.6,1.7-0.6s1.2,0.2,1.7,0.6
		c0.4,0.4,0.6,0.9,0.6,1.4c0,0.6-0.2,1.1-0.6,1.5c-0.4,0.4-1,0.6-1.7,0.6S800.2,210.6,799.8,210.2z M799.6,212.6h3.7v12.9h-3.7
		V212.6z"/>
	<path class="st7" d="M817.7,213.2c1,0.6,1.8,1.3,2.3,2.3c0.6,1,0.8,2.2,0.8,3.5s-0.3,2.5-0.8,3.5c-0.6,1-1.3,1.8-2.3,2.3
		c-1,0.6-2.1,0.8-3.3,0.8c-1.8,0-3.1-0.6-4.1-1.7v1.5h-3.6v-17.8h3.7v6.3c0.9-1,2.2-1.6,3.9-1.6
		C815.7,212.4,816.7,212.7,817.7,213.2z M816.2,221.6c0.6-0.6,0.9-1.5,0.9-2.6s-0.3-2-0.9-2.6c-0.6-0.6-1.4-1-2.4-1s-1.7,0.3-2.4,1
		c-0.6,0.6-0.9,1.5-0.9,2.6s0.3,2,0.9,2.6c0.6,0.6,1.4,1,2.4,1S815.5,222.3,816.2,221.6z"/>
	<path class="st7" d="M836,220.1h-9.8c0.2,0.8,0.6,1.4,1.2,1.9s1.5,0.7,2.4,0.7c0.7,0,1.3-0.1,1.8-0.3c0.5-0.2,1-0.5,1.5-0.9l2,2.2
		c-1.2,1.4-3,2.1-5.3,2.1c-1.5,0-2.7-0.3-3.9-0.9c-1.1-0.6-2-1.4-2.6-2.4c-0.6-1-0.9-2.2-0.9-3.4c0-1.3,0.3-2.4,0.9-3.4
		c0.6-1,1.4-1.8,2.5-2.4c1-0.6,2.2-0.9,3.5-0.9c1.3,0,2.4,0.3,3.4,0.8c1,0.5,1.8,1.3,2.4,2.3c0.6,1,0.9,2.2,0.9,3.5
		C836,219.1,836,219.5,836,220.1z M827.2,215.9c-0.6,0.5-0.9,1.1-1.1,2h6.4c-0.1-0.8-0.5-1.5-1.1-2s-1.3-0.7-2.1-0.7
		C828.5,215.2,827.8,215.5,827.2,215.9z"/>
	<path class="st7" d="M843.9,212.9c0.8-0.3,1.6-0.5,2.6-0.5v3.5c-0.4,0-0.7,0-0.8,0c-1.1,0-1.9,0.3-2.5,0.9
		c-0.6,0.6-0.9,1.5-0.9,2.7v6.1h-3.7v-12.9h3.6v1.7C842.5,213.7,843.1,213.2,843.9,212.9z"/>
	<path class="st7" d="M850.1,225.3c-1-0.3-1.8-0.6-2.4-1l1.2-2.7c0.6,0.4,1.3,0.7,2.1,0.9c0.8,0.2,1.6,0.3,2.4,0.3
		c1.6,0,2.4-0.4,2.4-1.2c0-0.4-0.2-0.6-0.6-0.8c-0.4-0.2-1.1-0.3-2-0.4c-1.1-0.2-1.9-0.3-2.6-0.6c-0.7-0.2-1.3-0.6-1.8-1.1
		s-0.8-1.3-0.8-2.3c0-0.8,0.2-1.5,0.7-2.2c0.5-0.6,1.2-1.1,2.1-1.5c0.9-0.4,2-0.5,3.2-0.5c0.9,0,1.8,0.1,2.7,0.3
		c0.9,0.2,1.7,0.5,2.2,0.8l-1.2,2.7c-1.1-0.6-2.4-1-3.7-1c-0.8,0-1.4,0.1-1.8,0.3c-0.4,0.2-0.6,0.5-0.6,0.9c0,0.4,0.2,0.7,0.6,0.8
		c0.4,0.2,1.1,0.3,2.1,0.5c1.1,0.2,1.9,0.4,2.6,0.6s1.3,0.6,1.8,1.1s0.7,1.3,0.7,2.2c0,0.8-0.2,1.5-0.7,2.1
		c-0.5,0.6-1.2,1.1-2.1,1.5s-2,0.5-3.3,0.5C852.1,225.7,851.1,225.6,850.1,225.3z"/>
</g>
<rect x="679.2" y="132.7" class="st5" width="230" height="124"/>
<g class="st6">
	<path class="st7" d="M707.8,135.7v50.4h-14.3v-39.4h-9.4v-11H707.8z"/>
	<path class="st7" d="M726.1,184c-3.4-2.1-6-5.1-7.9-9c-1.9-4-2.8-8.7-2.8-14.1c0-5.4,0.9-10.1,2.8-14.1c1.9-4,4.5-7,7.9-9
		c3.4-2.1,7.2-3.1,11.5-3.1c4.3,0,8.1,1,11.4,3.1s6,5.1,7.9,9c1.9,4,2.8,8.7,2.8,14.1c0,5.4-0.9,10.1-2.8,14.1c-1.9,4-4.5,7-7.9,9
		c-3.4,2.1-7.2,3.1-11.4,3.1C733.3,187.1,729.5,186.1,726.1,184z M743.3,172c1.4-2.3,2.1-6,2.1-11.1s-0.7-8.7-2.1-11.1
		c-1.4-2.3-3.3-3.5-5.7-3.5c-2.4,0-4.4,1.2-5.8,3.5c-1.4,2.3-2.1,6-2.1,11.1s0.7,8.7,2.1,11.1c1.4,2.3,3.3,3.5,5.8,3.5
		C740,175.5,741.9,174.3,743.3,172z"/>
	<path class="st7" d="M775.4,184c-3.4-2.1-6-5.1-7.9-9c-1.9-4-2.8-8.7-2.8-14.1c0-5.4,0.9-10.1,2.8-14.1c1.9-4,4.5-7,7.9-9
		c3.4-2.1,7.2-3.1,11.5-3.1c4.3,0,8.1,1,11.4,3.1c3.4,2.1,6,5.1,7.9,9s2.8,8.7,2.8,14.1c0,5.4-0.9,10.1-2.8,14.1s-4.5,7-7.9,9
		c-3.4,2.1-7.2,3.1-11.4,3.1C782.6,187.1,778.8,186.1,775.4,184z M792.7,172c1.4-2.3,2.1-6,2.1-11.1s-0.7-8.7-2.1-11.1
		c-1.4-2.3-3.3-3.5-5.7-3.5c-2.4,0-4.4,1.2-5.8,3.5c-1.4,2.3-2.1,6-2.1,11.1s0.7,8.7,2.1,11.1c1.4,2.3,3.3,3.5,5.8,3.5
		C789.3,175.5,791.2,174.3,792.7,172z"/>
	<path class="st7" d="M824.7,184c-3.4-2.1-6-5.1-7.9-9c-1.9-4-2.8-8.7-2.8-14.1c0-5.4,0.9-10.1,2.8-14.1c1.9-4,4.5-7,7.9-9
		c3.4-2.1,7.2-3.1,11.5-3.1c4.3,0,8.1,1,11.4,3.1c3.4,2.1,6,5.1,7.9,9s2.8,8.7,2.8,14.1c0,5.4-0.9,10.1-2.8,14.1s-4.5,7-7.9,9
		c-3.4,2.1-7.2,3.1-11.4,3.1C831.9,187.1,828.1,186.1,824.7,184z M842,172c1.4-2.3,2.1-6,2.1-11.1s-0.7-8.7-2.1-11.1
		c-1.4-2.3-3.3-3.5-5.7-3.5c-2.4,0-4.4,1.2-5.8,3.5c-1.4,2.3-2.1,6-2.1,11.1s0.7,8.7,2.1,11.1c1.4,2.3,3.3,3.5,5.8,3.5
		C838.7,175.5,840.6,174.3,842,172z"/>
	<path class="st7" d="M900.7,166.2h-12.2v11.9h-11.1v-11.9h-12.2v-10.5h12.2v-11.9h11.1v11.9h12.2V166.2z"/>
</g>
<rect x="192.9" y="394.5" class="st5" width="230" height="124"/>
<g class="st6">
	<path class="st7" d="M264.2,430.2c4.7,4,7,9.3,7,16c0,4.3-1.1,8.3-3.4,12c-2.2,3.6-5.6,6.5-10.2,8.7c-4.6,2.2-10.2,3.2-17,3.2
		c-4.9,0-9.8-0.6-14.6-1.8c-4.8-1.2-9-2.9-12.5-5.1l7.1-14.9c2.8,1.9,5.9,3.3,9.2,4.3c3.4,1,6.8,1.5,10.1,1.5c3.4,0,6.1-0.7,8.2-2
		c2-1.3,3-3.1,3-5.5c0-2.3-1-4.1-3-5.3s-5.5-1.8-10.6-1.8h-19l3.5-40.9h44.6V414h-28.2l-0.9,10.2h4.7
		C252.3,424.2,259.5,426.2,264.2,430.2z"/>
	<path class="st7" d="M291.9,465.8c-4.7-2.9-8.3-7-10.9-12.5c-2.6-5.5-4-12-4-19.5c0-7.5,1.3-14,4-19.5c2.6-5.5,6.3-9.7,10.9-12.5
		c4.7-2.9,10-4.3,16-4.3c5.9,0,11.2,1.4,15.9,4.3c4.7,2.9,8.3,7,10.9,12.5c2.6,5.5,4,12,4,19.5c0,7.5-1.3,14-4,19.5
		c-2.6,5.5-6.3,9.7-10.9,12.5c-4.7,2.9-10,4.3-15.9,4.3C301.9,470.1,296.5,468.7,291.9,465.8z M315.8,449c2-3.2,3-8.3,3-15.3
		s-1-12.1-3-15.3c-2-3.2-4.6-4.9-8-4.9c-3.4,0-6.1,1.6-8,4.9c-2,3.2-3,8.3-3,15.3s1,12.1,3,15.3c2,3.2,4.6,4.9,8,4.9
		C311.2,453.9,313.8,452.3,315.8,449z"/>
	<path class="st7" d="M397.4,441h-16.9v16.5h-15.4V441h-17v-14.6h17v-16.5h15.4v16.5h16.9V441z"/>
</g>
<rect x="206.2" y="488.5" class="st5" width="205" height="79"/>
<g class="st6">
	<path class="st7" d="M223.3,499.2h-5.9l-1.1,2.7h-3l5.6-12.6h2.9l5.6,12.6h-3.1L223.3,499.2z M222.4,497l-2-4.8l-2,4.8H222.4z"/>
	<path class="st7" d="M230.4,501.4c-0.8-0.4-1.5-1-1.9-1.8c-0.5-0.8-0.7-1.6-0.7-2.6s0.2-1.8,0.7-2.6s1.1-1.3,1.9-1.8
		c0.8-0.4,1.7-0.6,2.8-0.6c1,0,1.9,0.2,2.7,0.6c0.8,0.4,1.3,1,1.7,1.8l-2.2,1.2c-0.5-0.9-1.2-1.3-2.2-1.3c-0.7,0-1.3,0.2-1.8,0.7
		c-0.5,0.5-0.7,1.1-0.7,2s0.2,1.5,0.7,2c0.5,0.5,1.1,0.7,1.8,0.7c1,0,1.7-0.4,2.2-1.3l2.2,1.2c-0.3,0.8-0.9,1.4-1.7,1.8
		s-1.7,0.6-2.7,0.6C232.2,502,231.3,501.8,230.4,501.4z"/>
	<path class="st7" d="M246.5,493.1c0.8,0.7,1.2,1.8,1.2,3.2v5.5h-2.6v-1.2c-0.5,0.9-1.5,1.3-3,1.3c-0.7,0-1.4-0.1-1.9-0.4
		c-0.5-0.3-1-0.6-1.3-1c-0.3-0.4-0.4-0.9-0.4-1.5c0-0.9,0.3-1.6,1-2.1c0.7-0.5,1.7-0.8,3.1-0.8h2.2c0-0.6-0.2-1.1-0.6-1.4
		c-0.4-0.3-0.9-0.5-1.7-0.5c-0.5,0-1,0.1-1.5,0.2c-0.5,0.2-0.9,0.4-1.3,0.7l-1-2c0.5-0.4,1.2-0.7,1.9-0.9c0.7-0.2,1.5-0.3,2.3-0.3
		C244.6,492.1,245.7,492.4,246.5,493.1z M244.1,499.8c0.4-0.2,0.6-0.5,0.8-1v-1H243c-1.2,0-1.7,0.4-1.7,1.1c0,0.4,0.1,0.6,0.4,0.9
		c0.3,0.2,0.7,0.3,1.2,0.3C243.4,500.2,243.8,500,244.1,499.8z"/>
	<path class="st7" d="M260.2,488.5v13.4h-2.7v-1.1c-0.7,0.8-1.7,1.3-3,1.3c-0.9,0-1.7-0.2-2.5-0.6s-1.3-1-1.7-1.7
		c-0.4-0.8-0.6-1.6-0.6-2.6s0.2-1.9,0.6-2.6c0.4-0.8,1-1.3,1.7-1.7s1.6-0.6,2.5-0.6c1.2,0,2.2,0.4,2.9,1.2v-4.7H260.2z M256.8,499
		c0.5-0.5,0.7-1.1,0.7-2s-0.2-1.5-0.7-2c-0.5-0.5-1.1-0.7-1.8-0.7c-0.7,0-1.3,0.2-1.8,0.7c-0.5,0.5-0.7,1.1-0.7,2s0.2,1.5,0.7,2
		c0.5,0.5,1.1,0.7,1.8,0.7C255.7,499.7,256.3,499.5,256.8,499z"/>
	<path class="st7" d="M272.2,497.9h-7.3c0.1,0.6,0.4,1.1,0.9,1.4s1.1,0.5,1.8,0.5c0.5,0,1-0.1,1.3-0.2c0.4-0.1,0.8-0.4,1.1-0.7
		l1.5,1.6c-0.9,1-2.2,1.6-4,1.6c-1.1,0-2.1-0.2-2.9-0.6c-0.8-0.4-1.5-1-1.9-1.8c-0.5-0.8-0.7-1.6-0.7-2.6c0-0.9,0.2-1.8,0.7-2.6
		c0.5-0.8,1.1-1.4,1.9-1.8c0.8-0.4,1.7-0.6,2.6-0.6c0.9,0,1.8,0.2,2.6,0.6s1.4,1,1.8,1.8s0.7,1.6,0.7,2.7
		C272.3,497.1,272.3,497.4,272.2,497.9z M265.7,494.7c-0.4,0.4-0.7,0.9-0.8,1.5h4.8c-0.1-0.6-0.4-1.1-0.8-1.5
		c-0.4-0.4-1-0.5-1.6-0.5C266.6,494.2,266.1,494.4,265.7,494.7z"/>
	<path class="st7" d="M289.5,493.1c0.7,0.7,1.1,1.8,1.1,3.2v5.5h-2.8v-5.1c0-0.8-0.2-1.3-0.5-1.7c-0.3-0.4-0.8-0.6-1.4-0.6
		c-0.7,0-1.2,0.2-1.6,0.6c-0.4,0.4-0.6,1.1-0.6,1.9v4.9h-2.8v-5.1c0-1.5-0.6-2.3-1.8-2.3c-0.6,0-1.2,0.2-1.5,0.6
		c-0.4,0.4-0.6,1.1-0.6,1.9v4.9h-2.8v-9.7h2.7v1.1c0.4-0.4,0.8-0.7,1.3-0.9c0.5-0.2,1.1-0.3,1.7-0.3c0.7,0,1.3,0.1,1.9,0.4
		c0.6,0.3,1,0.7,1.3,1.2c0.4-0.5,0.9-0.9,1.5-1.2c0.6-0.3,1.3-0.4,2-0.4C287.8,492.1,288.8,492.4,289.5,493.1z"/>
	<path class="st7" d="M293.2,490.4c-0.3-0.3-0.5-0.7-0.5-1.1c0-0.4,0.2-0.8,0.5-1.1c0.3-0.3,0.7-0.5,1.3-0.5c0.5,0,0.9,0.1,1.3,0.4
		c0.3,0.3,0.5,0.6,0.5,1.1c0,0.5-0.2,0.9-0.5,1.2c-0.3,0.3-0.7,0.5-1.3,0.5C293.9,490.9,293.5,490.7,293.2,490.4z M293.1,492.2h2.8
		v9.7h-2.8V492.2z"/>
	<path class="st7" d="M300.4,501.4c-0.8-0.4-1.5-1-1.9-1.8c-0.5-0.8-0.7-1.6-0.7-2.6s0.2-1.8,0.7-2.6s1.1-1.3,1.9-1.8
		c0.8-0.4,1.7-0.6,2.8-0.6c1,0,1.9,0.2,2.7,0.6c0.8,0.4,1.3,1,1.7,1.8l-2.2,1.2c-0.5-0.9-1.2-1.3-2.2-1.3c-0.7,0-1.3,0.2-1.8,0.7
		c-0.5,0.5-0.7,1.1-0.7,2s0.2,1.5,0.7,2c0.5,0.5,1.1,0.7,1.8,0.7c1,0,1.7-0.4,2.2-1.3l2.2,1.2c-0.3,0.8-0.9,1.4-1.7,1.8
		s-1.7,0.6-2.7,0.6C302.1,502,301.2,501.8,300.4,501.4z"/>
	<path class="st7" d="M314.4,489.3h5.7c1.4,0,2.6,0.3,3.6,0.8c1,0.5,1.9,1.3,2.4,2.2c0.6,0.9,0.9,2.1,0.9,3.3s-0.3,2.4-0.9,3.3
		c-0.6,0.9-1.4,1.7-2.4,2.2c-1.1,0.5-2.3,0.8-3.6,0.8h-5.7V489.3z M320,499.5c1.3,0,2.3-0.4,3-1.1s1.1-1.7,1.1-2.9s-0.4-2.2-1.1-2.9
		s-1.8-1.1-3-1.1h-2.7v7.8H320z"/>
	<path class="st7" d="M329.2,490.4c-0.3-0.3-0.5-0.7-0.5-1.1c0-0.4,0.2-0.8,0.5-1.1c0.3-0.3,0.7-0.5,1.3-0.5c0.5,0,0.9,0.1,1.3,0.4
		c0.3,0.3,0.5,0.6,0.5,1.1c0,0.5-0.2,0.9-0.5,1.2c-0.3,0.3-0.7,0.5-1.3,0.5C330,490.9,329.5,490.7,329.2,490.4z M329.1,492.2h2.8
		v9.7h-2.8V492.2z"/>
	<path class="st7" d="M335.4,501.8c-0.8-0.2-1.4-0.4-1.8-0.7l0.9-2c0.4,0.3,1,0.5,1.6,0.7c0.6,0.2,1.2,0.3,1.8,0.3
		c1.2,0,1.8-0.3,1.8-0.9c0-0.3-0.2-0.5-0.5-0.6s-0.8-0.2-1.5-0.3c-0.8-0.1-1.4-0.3-2-0.4c-0.5-0.2-1-0.4-1.3-0.8
		c-0.4-0.4-0.6-1-0.6-1.7c0-0.6,0.2-1.2,0.5-1.6c0.4-0.5,0.9-0.8,1.5-1.1c0.7-0.3,1.5-0.4,2.4-0.4c0.7,0,1.4,0.1,2,0.2
		c0.7,0.1,1.2,0.4,1.7,0.6l-0.9,2c-0.9-0.5-1.8-0.7-2.8-0.7c-0.6,0-1.1,0.1-1.4,0.3c-0.3,0.2-0.5,0.4-0.5,0.6c0,0.3,0.2,0.5,0.5,0.6
		c0.3,0.1,0.8,0.2,1.5,0.3c0.8,0.1,1.4,0.3,1.9,0.4c0.5,0.2,0.9,0.4,1.3,0.8c0.4,0.4,0.6,0.9,0.6,1.7c0,0.6-0.2,1.1-0.5,1.6
		s-0.9,0.8-1.6,1.1c-0.7,0.3-1.5,0.4-2.5,0.4C336.9,502,336.2,501.9,335.4,501.8z"/>
	<path class="st7" d="M345.9,501.4c-0.8-0.4-1.5-1-1.9-1.8c-0.5-0.8-0.7-1.6-0.7-2.6s0.2-1.8,0.7-2.6s1.1-1.3,1.9-1.8
		c0.8-0.4,1.7-0.6,2.8-0.6c1,0,1.9,0.2,2.7,0.6c0.8,0.4,1.3,1,1.7,1.8l-2.2,1.2c-0.5-0.9-1.2-1.3-2.2-1.3c-0.7,0-1.3,0.2-1.8,0.7
		c-0.5,0.5-0.7,1.1-0.7,2s0.2,1.5,0.7,2c0.5,0.5,1.1,0.7,1.8,0.7c1,0,1.7-0.4,2.2-1.3l2.2,1.2c-0.3,0.8-0.9,1.4-1.7,1.8
		s-1.7,0.6-2.7,0.6C347.7,502,346.8,501.8,345.9,501.4z"/>
	<path class="st7" d="M354.8,490.4c-0.3-0.3-0.5-0.7-0.5-1.1c0-0.4,0.2-0.8,0.5-1.1c0.3-0.3,0.7-0.5,1.3-0.5c0.5,0,0.9,0.1,1.3,0.4
		c0.3,0.3,0.5,0.6,0.5,1.1c0,0.5-0.2,0.9-0.5,1.2c-0.3,0.3-0.7,0.5-1.3,0.5C355.5,490.9,355.1,490.7,354.8,490.4z M354.6,492.2h2.8
		v9.7h-2.8V492.2z"/>
	<path class="st7" d="M368.2,492.7c0.7,0.4,1.3,1,1.7,1.7s0.6,1.6,0.6,2.6s-0.2,1.9-0.6,2.6s-1,1.3-1.7,1.7
		c-0.7,0.4-1.6,0.6-2.5,0.6c-1.2,0-2.2-0.4-2.9-1.2v4.5H360v-13.2h2.7v1.1c0.7-0.8,1.7-1.3,3-1.3
		C366.7,492.1,367.5,492.3,368.2,492.7z M367,499c0.5-0.5,0.7-1.1,0.7-2s-0.2-1.5-0.7-2c-0.5-0.5-1.1-0.7-1.8-0.7
		c-0.7,0-1.3,0.2-1.8,0.7c-0.5,0.5-0.7,1.1-0.7,2s0.2,1.5,0.7,2c0.5,0.5,1.1,0.7,1.8,0.7C366,499.7,366.6,499.5,367,499z"/>
	<path class="st7" d="M372.5,488.5h2.8v13.4h-2.8V488.5z"/>
	<path class="st7" d="M378,490.4c-0.3-0.3-0.5-0.7-0.5-1.1c0-0.4,0.2-0.8,0.5-1.1c0.3-0.3,0.7-0.5,1.3-0.5c0.5,0,0.9,0.1,1.3,0.4
		c0.3,0.3,0.5,0.6,0.5,1.1c0,0.5-0.2,0.9-0.5,1.2c-0.3,0.3-0.7,0.5-1.3,0.5C378.8,490.9,378.3,490.7,378,490.4z M377.9,492.2h2.8
		v9.7h-2.8V492.2z"/>
	<path class="st7" d="M392.1,493.2c0.7,0.7,1.1,1.8,1.1,3.2v5.5h-2.8v-5.1c0-0.8-0.2-1.3-0.5-1.7s-0.8-0.6-1.5-0.6
		c-0.7,0-1.3,0.2-1.7,0.7c-0.4,0.4-0.6,1.1-0.6,2v4.8h-2.8v-9.7h2.7v1.1c0.4-0.4,0.8-0.7,1.4-0.9c0.6-0.2,1.2-0.3,1.8-0.3
		C390.4,492.1,391.3,492.4,392.1,493.2z"/>
	<path class="st7" d="M405.2,497.9h-7.3c0.1,0.6,0.4,1.1,0.9,1.4s1.1,0.5,1.8,0.5c0.5,0,1-0.1,1.3-0.2c0.4-0.1,0.8-0.4,1.1-0.7
		l1.5,1.6c-0.9,1-2.2,1.6-4,1.6c-1.1,0-2.1-0.2-2.9-0.6c-0.8-0.4-1.5-1-1.9-1.8c-0.5-0.8-0.7-1.6-0.7-2.6c0-0.9,0.2-1.8,0.7-2.6
		c0.5-0.8,1.1-1.4,1.9-1.8c0.8-0.4,1.7-0.6,2.6-0.6c0.9,0,1.8,0.2,2.6,0.6s1.4,1,1.8,1.8s0.7,1.6,0.7,2.7
		C405.3,497.1,405.3,497.4,405.2,497.9z M398.7,494.7c-0.4,0.4-0.7,0.9-0.8,1.5h4.8c-0.1-0.6-0.4-1.1-0.8-1.5
		c-0.4-0.4-1-0.5-1.6-0.5C399.6,494.2,399.1,494.4,398.7,494.7z"/>
	<path class="st7" d="M408.1,501.8c-0.8-0.2-1.4-0.4-1.8-0.7l0.9-2c0.4,0.3,1,0.5,1.6,0.7c0.6,0.2,1.2,0.3,1.8,0.3
		c1.2,0,1.8-0.3,1.8-0.9c0-0.3-0.2-0.5-0.5-0.6s-0.8-0.2-1.5-0.3c-0.8-0.1-1.4-0.3-2-0.4c-0.5-0.2-1-0.4-1.3-0.8
		c-0.4-0.4-0.6-1-0.6-1.7c0-0.6,0.2-1.2,0.5-1.6c0.4-0.5,0.9-0.8,1.5-1.1c0.7-0.3,1.5-0.4,2.4-0.4c0.7,0,1.4,0.1,2,0.2
		c0.7,0.1,1.2,0.4,1.7,0.6l-0.9,2c-0.9-0.5-1.8-0.7-2.8-0.7c-0.6,0-1.1,0.1-1.4,0.3c-0.3,0.2-0.5,0.4-0.5,0.6c0,0.3,0.2,0.5,0.5,0.6
		c0.3,0.1,0.8,0.2,1.5,0.3c0.8,0.1,1.4,0.3,1.9,0.4c0.5,0.2,0.9,0.4,1.3,0.8c0.4,0.4,0.6,0.9,0.6,1.7c0,0.6-0.2,1.1-0.5,1.6
		s-0.9,0.8-1.6,1.1c-0.7,0.3-1.5,0.4-2.5,0.4C409.6,502,408.8,501.9,408.1,501.8z"/>
</g>
<g class="st6">
	<path class="st7" d="M260.7,523.5l-2.4-3.5h-0.1h-2.5v3.5h-2.9v-12.6h5.5c1.1,0,2.1,0.2,2.9,0.6c0.8,0.4,1.5,0.9,1.9,1.6
		s0.7,1.5,0.7,2.4c0,0.9-0.2,1.7-0.7,2.4c-0.5,0.7-1.1,1.2-1.9,1.6l2.8,4H260.7z M259.9,513.8c-0.5-0.4-1.1-0.6-2-0.6h-2.4v4.4h2.4
		c0.9,0,1.5-0.2,2-0.6c0.5-0.4,0.7-0.9,0.7-1.6C260.6,514.8,260.4,514.2,259.9,513.8z"/>
	<path class="st7" d="M275.1,519.5h-7.3c0.1,0.6,0.4,1.1,0.9,1.4s1.1,0.5,1.8,0.5c0.5,0,1-0.1,1.3-0.2c0.4-0.1,0.8-0.4,1.1-0.7
		l1.5,1.6c-0.9,1-2.2,1.6-4,1.6c-1.1,0-2.1-0.2-2.9-0.6c-0.8-0.4-1.5-1-1.9-1.8c-0.5-0.8-0.7-1.6-0.7-2.6c0-0.9,0.2-1.8,0.7-2.6
		c0.5-0.8,1.1-1.4,1.9-1.8c0.8-0.4,1.7-0.6,2.6-0.6c0.9,0,1.8,0.2,2.6,0.6s1.4,1,1.8,1.8s0.7,1.6,0.7,2.7
		C275.2,518.7,275.1,519,275.1,519.5z M268.5,516.3c-0.4,0.4-0.7,0.9-0.8,1.5h4.8c-0.1-0.6-0.4-1.1-0.8-1.5c-0.4-0.4-1-0.5-1.6-0.5
		C269.5,515.8,269,516,268.5,516.3z"/>
	<path class="st7" d="M285.2,514.3c0.7,0.4,1.3,1,1.7,1.7s0.6,1.6,0.6,2.6s-0.2,1.9-0.6,2.6s-1,1.3-1.7,1.7
		c-0.7,0.4-1.6,0.6-2.5,0.6c-1.2,0-2.2-0.4-2.9-1.2v4.5H277v-13.2h2.7v1.1c0.7-0.8,1.7-1.3,3-1.3
		C283.7,513.7,284.5,513.9,285.2,514.3z M284,520.6c0.5-0.5,0.7-1.1,0.7-2s-0.2-1.5-0.7-2c-0.5-0.5-1.1-0.7-1.8-0.7
		c-0.7,0-1.3,0.2-1.8,0.7c-0.5,0.5-0.7,1.1-0.7,2s0.2,1.5,0.7,2c0.5,0.5,1.1,0.7,1.8,0.7C283,521.3,283.6,521.1,284,520.6z"/>
	<path class="st7" d="M293.5,514c0.6-0.2,1.2-0.4,2-0.4v2.6c-0.3,0-0.5,0-0.6,0c-0.8,0-1.4,0.2-1.9,0.7c-0.5,0.4-0.7,1.1-0.7,2v4.6
		h-2.8v-9.7h2.7v1.3C292.5,514.6,292.9,514.3,293.5,514z"/>
	<path class="st7" d="M306.5,519.5h-7.3c0.1,0.6,0.4,1.1,0.9,1.4s1.1,0.5,1.8,0.5c0.5,0,1-0.1,1.3-0.2c0.4-0.1,0.8-0.4,1.1-0.7
		l1.5,1.6c-0.9,1-2.2,1.6-4,1.6c-1.1,0-2.1-0.2-2.9-0.6c-0.8-0.4-1.5-1-1.9-1.8c-0.5-0.8-0.7-1.6-0.7-2.6c0-0.9,0.2-1.8,0.7-2.6
		c0.5-0.8,1.1-1.4,1.9-1.8c0.8-0.4,1.7-0.6,2.6-0.6c0.9,0,1.8,0.2,2.6,0.6s1.4,1,1.8,1.8s0.7,1.6,0.7,2.7
		C306.5,518.7,306.5,519,306.5,519.5z M299.9,516.3c-0.4,0.4-0.7,0.9-0.8,1.5h4.8c-0.1-0.6-0.4-1.1-0.8-1.5c-0.4-0.4-1-0.5-1.6-0.5
		C300.9,515.8,300.3,516,299.9,516.3z"/>
	<path class="st7" d="M309.3,523.4c-0.8-0.2-1.4-0.4-1.8-0.7l0.9-2c0.4,0.3,1,0.5,1.6,0.7c0.6,0.2,1.2,0.3,1.8,0.3
		c1.2,0,1.8-0.3,1.8-0.9c0-0.3-0.2-0.5-0.5-0.6s-0.8-0.2-1.5-0.3c-0.8-0.1-1.4-0.3-2-0.4c-0.5-0.2-1-0.4-1.3-0.8
		c-0.4-0.4-0.6-1-0.6-1.7c0-0.6,0.2-1.2,0.5-1.6c0.4-0.5,0.9-0.8,1.5-1.1c0.7-0.3,1.5-0.4,2.4-0.4c0.7,0,1.4,0.1,2,0.2
		c0.7,0.1,1.2,0.4,1.7,0.6l-0.9,2c-0.9-0.5-1.8-0.7-2.8-0.7c-0.6,0-1.1,0.1-1.4,0.3c-0.3,0.2-0.5,0.4-0.5,0.6c0,0.3,0.2,0.5,0.5,0.6
		c0.3,0.1,0.8,0.2,1.5,0.3c0.8,0.1,1.4,0.3,1.9,0.4c0.5,0.2,0.9,0.4,1.3,0.8c0.4,0.4,0.6,0.9,0.6,1.7c0,0.6-0.2,1.1-0.5,1.6
		s-0.9,0.8-1.6,1.1c-0.7,0.3-1.5,0.4-2.5,0.4C310.9,523.6,310.1,523.5,309.3,523.4z"/>
	<path class="st7" d="M327.4,519.5h-7.3c0.1,0.6,0.4,1.1,0.9,1.4s1.1,0.5,1.8,0.5c0.5,0,1-0.1,1.3-0.2c0.4-0.1,0.8-0.4,1.1-0.7
		l1.5,1.6c-0.9,1-2.2,1.6-4,1.6c-1.1,0-2.1-0.2-2.9-0.6c-0.8-0.4-1.5-1-1.9-1.8c-0.5-0.8-0.7-1.6-0.7-2.6c0-0.9,0.2-1.8,0.7-2.6
		c0.5-0.8,1.1-1.4,1.9-1.8c0.8-0.4,1.7-0.6,2.6-0.6c0.9,0,1.8,0.2,2.6,0.6s1.4,1,1.8,1.8s0.7,1.6,0.7,2.7
		C327.5,518.7,327.4,519,327.4,519.5z M320.8,516.3c-0.4,0.4-0.7,0.9-0.8,1.5h4.8c-0.1-0.6-0.4-1.1-0.8-1.5c-0.4-0.4-1-0.5-1.6-0.5
		C321.8,515.8,321.3,516,320.8,516.3z"/>
	<path class="st7" d="M338.1,514.8c0.7,0.7,1.1,1.8,1.1,3.2v5.5h-2.8v-5.1c0-0.8-0.2-1.3-0.5-1.7s-0.8-0.6-1.5-0.6
		c-0.7,0-1.3,0.2-1.7,0.7c-0.4,0.4-0.6,1.1-0.6,2v4.8h-2.8v-9.7h2.7v1.1c0.4-0.4,0.8-0.7,1.4-0.9c0.6-0.2,1.2-0.3,1.8-0.3
		C336.4,513.7,337.4,514,338.1,514.8z"/>
	<path class="st7" d="M348,523c-0.3,0.2-0.6,0.4-1,0.5s-0.8,0.2-1.3,0.2c-1.2,0-2-0.3-2.7-0.9s-0.9-1.5-0.9-2.6v-4h-1.5V514h1.5
		v-2.4h2.8v2.4h2.4v2.2h-2.4v3.9c0,0.4,0.1,0.7,0.3,0.9c0.2,0.2,0.5,0.3,0.9,0.3c0.4,0,0.8-0.1,1.1-0.4L348,523z"/>
	<path class="st7" d="M358.7,519.5h-7.3c0.1,0.6,0.4,1.1,0.9,1.4s1.1,0.5,1.8,0.5c0.5,0,1-0.1,1.3-0.2c0.4-0.1,0.8-0.4,1.1-0.7
		l1.5,1.6c-0.9,1-2.2,1.6-4,1.6c-1.1,0-2.1-0.2-2.9-0.6c-0.8-0.4-1.5-1-1.9-1.8c-0.5-0.8-0.7-1.6-0.7-2.6c0-0.9,0.2-1.8,0.7-2.6
		c0.5-0.8,1.1-1.4,1.9-1.8c0.8-0.4,1.7-0.6,2.6-0.6c0.9,0,1.8,0.2,2.6,0.6s1.4,1,1.8,1.8s0.7,1.6,0.7,2.7
		C358.8,518.7,358.8,519,358.7,519.5z M352.1,516.3c-0.4,0.4-0.7,0.9-0.8,1.5h4.8c-0.1-0.6-0.4-1.1-0.8-1.5c-0.4-0.4-1-0.5-1.6-0.5
		C353.1,515.8,352.6,516,352.1,516.3z"/>
	<path class="st7" d="M370.5,510.1v13.4h-2.7v-1.1c-0.7,0.8-1.7,1.3-3,1.3c-0.9,0-1.7-0.2-2.5-0.6s-1.3-1-1.7-1.7
		c-0.4-0.8-0.6-1.6-0.6-2.6s0.2-1.9,0.6-2.6c0.4-0.8,1-1.3,1.7-1.7s1.6-0.6,2.5-0.6c1.2,0,2.2,0.4,2.9,1.2v-4.7H370.5z M367.1,520.6
		c0.5-0.5,0.7-1.1,0.7-2s-0.2-1.5-0.7-2c-0.5-0.5-1.1-0.7-1.8-0.7c-0.7,0-1.3,0.2-1.8,0.7c-0.5,0.5-0.7,1.1-0.7,2s0.2,1.5,0.7,2
		c0.5,0.5,1.1,0.7,1.8,0.7C366,521.3,366.6,521.1,367.1,520.6z"/>
</g>
<rect x="515" y="394.5" class="st5" width="230" height="124"/>
<g class="st6">
	<path class="st7" d="M572.7,433.8c3.1,3.6,4.7,7.9,4.7,12.9c0,4.1-1.1,8-3.3,11.5c-2.2,3.5-5.6,6.4-10.2,8.6
		c-4.6,2.2-10.2,3.2-17,3.2c-4.9,0-9.8-0.6-14.7-1.8c-4.8-1.2-9-2.9-12.5-5.1l7.2-14.9c2.7,1.9,5.8,3.3,9.2,4.3s6.8,1.5,10.2,1.5
		c3.4,0,6.1-0.6,8.1-1.9c2-1.3,3-3.1,3-5.4c0-4.5-3.6-6.8-10.7-6.8h-8.3v-12.5l12.5-13.5h-27.6v-15.3h50.6v12.4l-14.5,15.6
		C565.1,427.9,569.6,430.3,572.7,433.8z"/>
	<path class="st7" d="M649.7,455.3h-10.4v13.4H620v-13.4h-37v-12.9l31.4-43.7h20.5l-28.5,40.9h14.2v-11.9h18.7v11.9h10.4V455.3z"/>
	<path class="st7" d="M654.5,431.4c-3.3-3.5-5-8.2-5-14.2c0-3.9,0.8-7.4,2.3-10.3c1.5-2.9,3.6-5.2,6.3-6.8c2.7-1.6,5.8-2.4,9.2-2.4
		c5.3,0,9.7,1.8,13,5.2c3.3,3.5,5,8.2,5,14.2c0,6-1.7,10.7-5,14.2c-3.3,3.5-7.7,5.2-13,5.2C662.1,436.6,657.8,434.9,654.5,431.4z
		 M708.8,398.7h14.4l-47.8,70H661L708.8,398.7z M671.7,424.7c1.1-1.6,1.6-4.1,1.6-7.5s-0.5-5.9-1.6-7.5c-1.1-1.6-2.5-2.4-4.3-2.4
		c-1.7,0-3.2,0.8-4.2,2.5c-1.1,1.6-1.7,4.1-1.7,7.5c0,3.3,0.6,5.8,1.7,7.5c1.1,1.6,2.5,2.5,4.2,2.5
		C669.2,427.1,670.6,426.3,671.7,424.7z M703.8,464.4c-3.3-3.5-4.9-8.2-4.9-14.2c0-5.9,1.7-10.7,5-14.2c3.3-3.5,7.6-5.2,12.9-5.2
		c5.3,0,9.7,1.8,13,5.2c3.3,3.5,5,8.2,5,14.2c0,6-1.7,10.7-5,14.2c-3.3,3.5-7.7,5.2-13,5.2C711.5,469.6,707.2,467.9,703.8,464.4z
		 M721.1,457.7c1.1-1.6,1.6-4.1,1.6-7.5s-0.5-5.9-1.6-7.5s-2.5-2.4-4.3-2.4c-1.8,0-3.2,0.8-4.3,2.4s-1.6,4.1-1.6,7.5
		s0.5,5.9,1.6,7.5s2.5,2.4,4.3,2.4C718.6,460.1,720,459.3,721.1,457.7z"/>
</g>
<rect x="521.2" y="488.5" class="st5" width="205" height="79"/>
<g class="st6">
	<path class="st7" d="M548.9,495.4h2.7v5.1c-0.7,0.5-1.5,0.9-2.4,1.2c-0.9,0.3-1.8,0.4-2.7,0.4c-1.3,0-2.5-0.3-3.5-0.8
		c-1-0.6-1.9-1.3-2.5-2.3c-0.6-1-0.9-2.1-0.9-3.4s0.3-2.4,0.9-3.4c0.6-1,1.4-1.8,2.5-2.3c1.1-0.6,2.2-0.8,3.6-0.8
		c1.1,0,2.1,0.2,3,0.6c0.9,0.4,1.7,0.9,2.3,1.6L550,493c-0.9-0.9-2-1.4-3.3-1.4c-0.8,0-1.5,0.2-2.1,0.5c-0.6,0.3-1.1,0.8-1.5,1.4
		c-0.3,0.6-0.5,1.3-0.5,2.1c0,0.8,0.2,1.5,0.5,2.1c0.3,0.6,0.8,1.1,1.4,1.4c0.6,0.3,1.3,0.5,2.1,0.5c0.8,0,1.6-0.2,2.3-0.5V495.4z"
		/>
	<path class="st7" d="M558.1,492.4c0.6-0.2,1.2-0.4,2-0.4v2.6c-0.3,0-0.5,0-0.6,0c-0.8,0-1.4,0.2-1.9,0.7c-0.5,0.4-0.7,1.1-0.7,2
		v4.6h-2.8v-9.7h2.7v1.3C557.1,493,557.6,492.7,558.1,492.4z"/>
	<path class="st7" d="M568.5,493.1c0.8,0.7,1.2,1.8,1.2,3.2v5.5h-2.6v-1.2c-0.5,0.9-1.5,1.3-3,1.3c-0.7,0-1.4-0.1-1.9-0.4
		c-0.5-0.3-1-0.6-1.3-1c-0.3-0.4-0.4-0.9-0.4-1.5c0-0.9,0.3-1.6,1-2.1c0.7-0.5,1.7-0.8,3.1-0.8h2.2c0-0.6-0.2-1.1-0.6-1.4
		c-0.4-0.3-0.9-0.5-1.7-0.5c-0.5,0-1,0.1-1.5,0.2c-0.5,0.2-0.9,0.4-1.3,0.7l-1-2c0.5-0.4,1.2-0.7,1.9-0.9c0.7-0.2,1.5-0.3,2.3-0.3
		C566.6,492.1,567.7,492.4,568.5,493.1z M566.1,499.8c0.4-0.2,0.6-0.5,0.8-1v-1H565c-1.2,0-1.7,0.4-1.7,1.1c0,0.4,0.1,0.6,0.4,0.9
		s0.7,0.3,1.2,0.3C565.3,500.2,565.7,500,566.1,499.8z"/>
	<path class="st7" d="M582.2,488.5v13.4h-2.7v-1.1c-0.7,0.8-1.7,1.3-3,1.3c-0.9,0-1.7-0.2-2.5-0.6c-0.7-0.4-1.3-1-1.7-1.7
		s-0.6-1.6-0.6-2.6s0.2-1.9,0.6-2.6s1-1.3,1.7-1.7c0.7-0.4,1.6-0.6,2.5-0.6c1.2,0,2.2,0.4,2.9,1.2v-4.7H582.2z M578.7,499
		c0.5-0.5,0.7-1.1,0.7-2s-0.2-1.5-0.7-2s-1.1-0.7-1.8-0.7c-0.7,0-1.3,0.2-1.8,0.7c-0.5,0.5-0.7,1.1-0.7,2s0.2,1.5,0.7,2
		c0.5,0.5,1.1,0.7,1.8,0.7C577.7,499.7,578.3,499.5,578.7,499z"/>
	<path class="st7" d="M594.5,492.2v9.7h-2.7v-1.2c-0.4,0.4-0.8,0.7-1.3,1c-0.5,0.2-1.1,0.3-1.7,0.3c-1.3,0-2.3-0.4-3-1.1
		c-0.7-0.7-1.1-1.8-1.1-3.3v-5.5h2.8v5.1c0,1.6,0.7,2.3,2,2.3c0.7,0,1.2-0.2,1.6-0.7c0.4-0.4,0.6-1.1,0.6-2v-4.8H594.5z"/>
	<path class="st7" d="M604.5,493.1c0.8,0.7,1.2,1.8,1.2,3.2v5.5h-2.6v-1.2c-0.5,0.9-1.5,1.3-3,1.3c-0.7,0-1.4-0.1-1.9-0.4
		s-1-0.6-1.3-1c-0.3-0.4-0.4-0.9-0.4-1.5c0-0.9,0.3-1.6,1-2.1c0.7-0.5,1.7-0.8,3.1-0.8h2.2c0-0.6-0.2-1.1-0.6-1.4
		c-0.4-0.3-0.9-0.5-1.7-0.5c-0.5,0-1,0.1-1.5,0.2c-0.5,0.2-0.9,0.4-1.3,0.7l-1-2c0.5-0.4,1.2-0.7,1.9-0.9c0.7-0.2,1.5-0.3,2.3-0.3
		C602.6,492.1,603.7,492.4,604.5,493.1z M602.1,499.8c0.4-0.2,0.6-0.5,0.8-1v-1H601c-1.2,0-1.7,0.4-1.7,1.1c0,0.4,0.1,0.6,0.4,0.9
		c0.3,0.2,0.7,0.3,1.2,0.3C601.3,500.2,601.7,500,602.1,499.8z"/>
	<path class="st7" d="M614.5,501.4c-0.3,0.2-0.6,0.4-1,0.5c-0.4,0.1-0.8,0.2-1.3,0.2c-1.2,0-2-0.3-2.7-0.9s-0.9-1.5-0.9-2.6v-4h-1.5
		v-2.2h1.5v-2.4h2.8v2.4h2.4v2.2h-2.4v3.9c0,0.4,0.1,0.7,0.3,0.9c0.2,0.2,0.5,0.3,0.9,0.3c0.4,0,0.8-0.1,1.1-0.4L614.5,501.4z"/>
	<path class="st7" d="M625.2,497.9h-7.3c0.1,0.6,0.4,1.1,0.9,1.4s1.1,0.5,1.8,0.5c0.5,0,1-0.1,1.3-0.2c0.4-0.1,0.8-0.4,1.1-0.7
		l1.5,1.6c-0.9,1-2.2,1.6-4,1.6c-1.1,0-2.1-0.2-2.9-0.6c-0.8-0.4-1.5-1-1.9-1.8c-0.5-0.8-0.7-1.6-0.7-2.6c0-0.9,0.2-1.8,0.7-2.6
		c0.4-0.8,1.1-1.4,1.9-1.8c0.8-0.4,1.7-0.6,2.6-0.6c0.9,0,1.8,0.2,2.6,0.6s1.4,1,1.8,1.8c0.4,0.8,0.7,1.6,0.7,2.7
		C625.3,497.1,625.2,497.4,625.2,497.9z M618.6,494.7c-0.4,0.4-0.7,0.9-0.8,1.5h4.8c-0.1-0.6-0.4-1.1-0.8-1.5
		c-0.4-0.4-1-0.5-1.6-0.5C619.6,494.2,619.1,494.4,618.6,494.7z"/>
	<path class="st7" d="M633.7,501.7c-0.9-0.3-1.7-0.6-2.2-1.1l1-2.2c0.5,0.4,1.2,0.7,1.9,1c0.7,0.2,1.5,0.4,2.2,0.4
		c0.8,0,1.4-0.1,1.8-0.4c0.4-0.2,0.6-0.6,0.6-1c0-0.3-0.1-0.5-0.4-0.7c-0.2-0.2-0.5-0.4-0.9-0.5c-0.4-0.1-0.9-0.3-1.5-0.4
		c-1-0.2-1.7-0.5-2.4-0.7c-0.6-0.2-1.1-0.6-1.6-1.1c-0.4-0.5-0.7-1.2-0.7-2c0-0.7,0.2-1.4,0.6-2c0.4-0.6,1-1.1,1.8-1.4
		c0.8-0.3,1.8-0.5,2.9-0.5c0.8,0,1.6,0.1,2.4,0.3c0.8,0.2,1.4,0.5,2,0.8l-0.9,2.2c-1.2-0.7-2.3-1-3.5-1c-0.8,0-1.4,0.1-1.8,0.4
		c-0.4,0.3-0.6,0.6-0.6,1c0,0.4,0.2,0.8,0.7,1c0.4,0.2,1.1,0.4,2.1,0.6c1,0.2,1.7,0.5,2.4,0.7c0.6,0.2,1.1,0.6,1.6,1.1
		c0.4,0.5,0.7,1.2,0.7,2c0,0.7-0.2,1.4-0.6,2c-0.4,0.6-1,1.1-1.8,1.4c-0.8,0.3-1.8,0.5-2.9,0.5C635.6,502.1,634.6,502,633.7,501.7z"
		/>
	<path class="st7" d="M650,501.4c-0.3,0.2-0.6,0.4-1,0.5s-0.8,0.2-1.3,0.2c-1.2,0-2-0.3-2.7-0.9c-0.6-0.6-0.9-1.5-0.9-2.6v-4h-1.5
		v-2.2h1.5v-2.4h2.8v2.4h2.4v2.2h-2.4v3.9c0,0.4,0.1,0.7,0.3,0.9c0.2,0.2,0.5,0.3,0.9,0.3c0.4,0,0.8-0.1,1.1-0.4L650,501.4z"/>
	<path class="st7" d="M661.3,492.2v9.7h-2.7v-1.2c-0.4,0.4-0.8,0.7-1.3,1c-0.5,0.2-1.1,0.3-1.7,0.3c-1.3,0-2.3-0.4-3-1.1
		c-0.7-0.7-1.1-1.8-1.1-3.3v-5.5h2.8v5.1c0,1.6,0.7,2.3,2,2.3c0.7,0,1.2-0.2,1.6-0.7c0.4-0.4,0.6-1.1,0.6-2v-4.8H661.3z"/>
	<path class="st7" d="M673.8,488.5v13.4h-2.7v-1.1c-0.7,0.8-1.7,1.3-3,1.3c-0.9,0-1.7-0.2-2.5-0.6c-0.7-0.4-1.3-1-1.7-1.7
		c-0.4-0.8-0.6-1.6-0.6-2.6s0.2-1.9,0.6-2.6c0.4-0.8,1-1.3,1.7-1.7c0.7-0.4,1.6-0.6,2.5-0.6c1.2,0,2.2,0.4,2.9,1.2v-4.7H673.8z
		 M670.3,499c0.5-0.5,0.7-1.1,0.7-2s-0.2-1.5-0.7-2c-0.5-0.5-1.1-0.7-1.8-0.7c-0.7,0-1.3,0.2-1.8,0.7s-0.7,1.1-0.7,2s0.2,1.5,0.7,2
		c0.5,0.5,1.1,0.7,1.8,0.7C669.3,499.7,669.8,499.5,670.3,499z"/>
	<path class="st7" d="M685.8,497.9h-7.3c0.1,0.6,0.4,1.1,0.9,1.4s1.1,0.5,1.8,0.5c0.5,0,1-0.1,1.3-0.2c0.4-0.1,0.8-0.4,1.1-0.7
		l1.5,1.6c-0.9,1-2.2,1.6-4,1.6c-1.1,0-2.1-0.2-2.9-0.6s-1.5-1-1.9-1.8c-0.5-0.8-0.7-1.6-0.7-2.6c0-0.9,0.2-1.8,0.7-2.6
		c0.5-0.8,1.1-1.4,1.9-1.8c0.8-0.4,1.7-0.6,2.6-0.6c0.9,0,1.8,0.2,2.6,0.6s1.4,1,1.8,1.8c0.4,0.8,0.7,1.6,0.7,2.7
		C685.8,497.1,685.8,497.4,685.8,497.9z M679.2,494.7c-0.4,0.4-0.7,0.9-0.8,1.5h4.8c-0.1-0.6-0.4-1.1-0.8-1.5
		c-0.4-0.4-1-0.5-1.6-0.5C680.2,494.2,679.7,494.4,679.2,494.7z"/>
	<path class="st7" d="M696.5,493.2c0.7,0.7,1.1,1.8,1.1,3.2v5.5h-2.8v-5.1c0-0.8-0.2-1.3-0.5-1.7s-0.8-0.6-1.5-0.6
		c-0.7,0-1.3,0.2-1.7,0.7c-0.4,0.4-0.6,1.1-0.6,2v4.8h-2.8v-9.7h2.7v1.1c0.4-0.4,0.8-0.7,1.4-0.9c0.6-0.2,1.2-0.3,1.8-0.3
		C694.8,492.1,695.8,492.4,696.5,493.2z"/>
	<path class="st7" d="M706.4,501.4c-0.3,0.2-0.6,0.4-1,0.5s-0.8,0.2-1.3,0.2c-1.2,0-2-0.3-2.7-0.9c-0.6-0.6-0.9-1.5-0.9-2.6v-4H699
		v-2.2h1.5v-2.4h2.8v2.4h2.4v2.2h-2.4v3.9c0,0.4,0.1,0.7,0.3,0.9c0.2,0.2,0.5,0.3,0.9,0.3c0.4,0,0.8-0.1,1.1-0.4L706.4,501.4z"/>
	<path class="st7" d="M708.9,501.8c-0.8-0.2-1.4-0.4-1.8-0.7l0.9-2c0.4,0.3,1,0.5,1.6,0.7s1.2,0.3,1.8,0.3c1.2,0,1.8-0.3,1.8-0.9
		c0-0.3-0.2-0.5-0.5-0.6s-0.8-0.2-1.5-0.3c-0.8-0.1-1.4-0.3-2-0.4s-1-0.4-1.3-0.8c-0.4-0.4-0.6-1-0.6-1.7c0-0.6,0.2-1.2,0.5-1.6
		c0.4-0.5,0.9-0.8,1.5-1.1c0.7-0.3,1.5-0.4,2.4-0.4c0.7,0,1.4,0.1,2,0.2c0.7,0.1,1.2,0.4,1.7,0.6l-0.9,2c-0.9-0.5-1.8-0.7-2.8-0.7
		c-0.6,0-1,0.1-1.3,0.3c-0.3,0.2-0.5,0.4-0.5,0.6c0,0.3,0.2,0.5,0.5,0.6c0.3,0.1,0.8,0.2,1.5,0.3c0.8,0.1,1.4,0.3,1.9,0.4
		c0.5,0.2,0.9,0.4,1.3,0.8c0.4,0.4,0.6,0.9,0.6,1.7c0,0.6-0.2,1.1-0.5,1.6c-0.4,0.5-0.9,0.8-1.6,1.1c-0.7,0.3-1.5,0.4-2.5,0.4
		C710.4,502,709.7,501.9,708.9,501.8z"/>
</g>
<g class="st6">
	<path class="st7" d="M536.3,520.8h-5.9l-1.1,2.7h-3l5.6-12.6h2.9l5.6,12.6h-3.1L536.3,520.8z M535.4,518.6l-2-4.8l-2,4.8H535.4z"/>
	<path class="st7" d="M547.8,523c-0.3,0.2-0.6,0.4-1,0.5c-0.4,0.1-0.8,0.2-1.3,0.2c-1.2,0-2-0.3-2.7-0.9s-0.9-1.5-0.9-2.6v-4h-1.5
		V514h1.5v-2.4h2.8v2.4h2.4v2.2h-2.4v3.9c0,0.4,0.1,0.7,0.3,0.9s0.5,0.3,0.9,0.3c0.4,0,0.8-0.1,1.1-0.4L547.8,523z"/>
	<path class="st7" d="M555.4,523c-0.3,0.2-0.6,0.4-1,0.5c-0.4,0.1-0.8,0.2-1.3,0.2c-1.2,0-2-0.3-2.7-0.9s-0.9-1.5-0.9-2.6v-4H548
		V514h1.5v-2.4h2.8v2.4h2.4v2.2h-2.4v3.9c0,0.4,0.1,0.7,0.3,0.9c0.2,0.2,0.5,0.3,0.9,0.3c0.4,0,0.8-0.1,1.1-0.4L555.4,523z"/>
	<path class="st7" d="M566.1,519.5h-7.3c0.1,0.6,0.4,1.1,0.9,1.4s1.1,0.5,1.8,0.5c0.5,0,1-0.1,1.3-0.2c0.4-0.1,0.8-0.4,1.1-0.7
		l1.5,1.6c-0.9,1-2.2,1.6-4,1.6c-1.1,0-2.1-0.2-2.9-0.6c-0.8-0.4-1.5-1-1.9-1.8c-0.5-0.8-0.7-1.6-0.7-2.6c0-0.9,0.2-1.8,0.7-2.6
		c0.5-0.8,1.1-1.4,1.9-1.8c0.8-0.4,1.7-0.6,2.6-0.6c0.9,0,1.8,0.2,2.6,0.6c0.8,0.4,1.4,1,1.8,1.8c0.4,0.8,0.7,1.6,0.7,2.7
		C566.1,518.7,566.1,519,566.1,519.5z M559.5,516.3c-0.4,0.4-0.7,0.9-0.8,1.5h4.8c-0.1-0.6-0.4-1.1-0.8-1.5c-0.4-0.4-1-0.5-1.6-0.5
		C560.5,515.8,559.9,516,559.5,516.3z"/>
	<path class="st7" d="M576.8,514.8c0.7,0.7,1.1,1.8,1.1,3.2v5.5h-2.8v-5.1c0-0.8-0.2-1.3-0.5-1.7s-0.8-0.6-1.5-0.6
		c-0.7,0-1.3,0.2-1.7,0.7c-0.4,0.4-0.6,1.1-0.6,2v4.8H568v-9.7h2.7v1.1c0.4-0.4,0.8-0.7,1.4-0.9c0.6-0.2,1.2-0.3,1.8-0.3
		C575.1,513.7,576.1,514,576.8,514.8z"/>
	<path class="st7" d="M590.4,510.1v13.4h-2.7v-1.1c-0.7,0.8-1.7,1.3-3,1.3c-0.9,0-1.7-0.2-2.5-0.6c-0.7-0.4-1.3-1-1.7-1.7
		c-0.4-0.8-0.6-1.6-0.6-2.6s0.2-1.9,0.6-2.6c0.4-0.8,1-1.3,1.7-1.7c0.7-0.4,1.6-0.6,2.5-0.6c1.2,0,2.2,0.4,2.9,1.2v-4.7H590.4z
		 M586.9,520.6c0.5-0.5,0.7-1.1,0.7-2s-0.2-1.5-0.7-2c-0.5-0.5-1.1-0.7-1.8-0.7c-0.7,0-1.3,0.2-1.8,0.7c-0.5,0.5-0.7,1.1-0.7,2
		s0.2,1.5,0.7,2c0.5,0.5,1.1,0.7,1.8,0.7C585.9,521.3,586.5,521.1,586.9,520.6z"/>
	<path class="st7" d="M593.1,512c-0.3-0.3-0.5-0.7-0.5-1.1c0-0.4,0.2-0.8,0.5-1.1s0.7-0.5,1.3-0.5s0.9,0.1,1.3,0.4
		c0.3,0.3,0.5,0.6,0.5,1.1c0,0.5-0.2,0.9-0.5,1.2c-0.3,0.3-0.7,0.5-1.3,0.5S593.4,512.3,593.1,512z M593,513.8h2.8v9.7H593V513.8z"
		/>
	<path class="st7" d="M607.2,514.8c0.7,0.7,1.1,1.8,1.1,3.2v5.5h-2.8v-5.1c0-0.8-0.2-1.3-0.5-1.7s-0.8-0.6-1.5-0.6
		c-0.7,0-1.3,0.2-1.7,0.7c-0.4,0.4-0.6,1.1-0.6,2v4.8h-2.8v-9.7h2.7v1.1c0.4-0.4,0.8-0.7,1.4-0.9c0.6-0.2,1.2-0.3,1.8-0.3
		C605.5,513.7,606.4,514,607.2,514.8z"/>
	<path class="st7" d="M620.9,513.8v8.1c0,1.8-0.5,3.1-1.4,4c-0.9,0.9-2.3,1.3-4,1.3c-0.9,0-1.8-0.1-2.7-0.3c-0.8-0.2-1.5-0.6-2.1-1
		l1.1-2c0.4,0.3,0.9,0.6,1.5,0.8c0.6,0.2,1.2,0.3,1.9,0.3c1,0,1.7-0.2,2.2-0.7c0.5-0.4,0.7-1.1,0.7-2v-0.4c-0.7,0.8-1.8,1.2-3.1,1.2
		c-0.9,0-1.7-0.2-2.4-0.6c-0.7-0.4-1.3-0.9-1.8-1.6c-0.4-0.7-0.6-1.5-0.6-2.4c0-0.9,0.2-1.7,0.6-2.4c0.4-0.7,1-1.3,1.8-1.6
		c0.7-0.4,1.6-0.6,2.4-0.6c1.4,0,2.5,0.5,3.2,1.4v-1.2H620.9z M617.4,520.1c0.5-0.4,0.7-1,0.7-1.7c0-0.7-0.2-1.3-0.7-1.7
		c-0.5-0.4-1.1-0.7-1.8-0.7c-0.7,0-1.4,0.2-1.8,0.7c-0.5,0.4-0.7,1-0.7,1.7c0,0.7,0.2,1.3,0.7,1.7c0.5,0.4,1.1,0.7,1.8,0.7
		C616.3,520.7,616.9,520.5,617.4,520.1z"/>
	<path class="st7" d="M640.3,510.9v12.6h-2.9v-5.2h-5.7v5.2h-2.9v-12.6h2.9v5h5.7v-5H640.3z"/>
	<path class="st7" d="M650.5,514.7c0.8,0.7,1.2,1.8,1.2,3.2v5.5h-2.6v-1.2c-0.5,0.9-1.5,1.3-3,1.3c-0.7,0-1.4-0.1-1.9-0.4
		s-1-0.6-1.3-1c-0.3-0.4-0.4-0.9-0.4-1.5c0-0.9,0.3-1.6,1-2.1c0.7-0.5,1.7-0.8,3.1-0.8h2.2c0-0.6-0.2-1.1-0.6-1.4
		c-0.4-0.3-0.9-0.5-1.7-0.5c-0.5,0-1,0.1-1.5,0.2c-0.5,0.2-0.9,0.4-1.3,0.7l-1-2c0.5-0.4,1.2-0.7,1.9-0.9c0.7-0.2,1.5-0.3,2.3-0.3
		C648.5,513.7,649.7,514,650.5,514.7z M648.1,521.4c0.4-0.2,0.6-0.5,0.8-1v-1H647c-1.2,0-1.7,0.4-1.7,1.1c0,0.4,0.1,0.6,0.4,0.9
		c0.3,0.2,0.7,0.3,1.2,0.3C647.3,521.8,647.7,521.6,648.1,521.4z"/>
	<path class="st7" d="M656.2,523c-0.8-0.4-1.5-1-1.9-1.8c-0.5-0.8-0.7-1.6-0.7-2.6s0.2-1.8,0.7-2.6s1.1-1.3,1.9-1.8
		c0.8-0.4,1.7-0.6,2.8-0.6c1,0,1.9,0.2,2.7,0.6c0.8,0.4,1.3,1,1.7,1.8l-2.2,1.2c-0.5-0.9-1.2-1.3-2.2-1.3c-0.7,0-1.3,0.2-1.8,0.7
		c-0.5,0.5-0.7,1.1-0.7,2s0.2,1.5,0.7,2c0.5,0.5,1.1,0.7,1.8,0.7c1,0,1.7-0.4,2.2-1.3l2.2,1.2c-0.3,0.8-0.9,1.4-1.7,1.8
		c-0.8,0.4-1.7,0.6-2.7,0.6C658,523.6,657,523.4,656.2,523z"/>
	<path class="st7" d="M669,519.7l-1.3,1.3v2.5h-2.8v-13.4h2.8v7.6l4.1-3.9h3.3l-4,4.1l4.4,5.6h-3.4L669,519.7z"/>
	<path class="st7" d="M683.9,514.7c0.8,0.7,1.2,1.8,1.2,3.2v5.5h-2.6v-1.2c-0.5,0.9-1.5,1.3-3,1.3c-0.7,0-1.4-0.1-1.9-0.4
		s-1-0.6-1.3-1c-0.3-0.4-0.4-0.9-0.4-1.5c0-0.9,0.3-1.6,1-2.1c0.7-0.5,1.7-0.8,3.1-0.8h2.2c0-0.6-0.2-1.1-0.6-1.4
		c-0.4-0.3-0.9-0.5-1.7-0.5c-0.5,0-1,0.1-1.5,0.2c-0.5,0.2-0.9,0.4-1.3,0.7l-1-2c0.5-0.4,1.2-0.7,1.9-0.9c0.7-0.2,1.5-0.3,2.3-0.3
		C682,513.7,683.1,514,683.9,514.7z M681.5,521.4c0.4-0.2,0.6-0.5,0.8-1v-1h-1.9c-1.2,0-1.7,0.4-1.7,1.1c0,0.4,0.1,0.6,0.4,0.9
		c0.3,0.2,0.7,0.3,1.2,0.3C680.8,521.8,681.2,521.6,681.5,521.4z"/>
	<path class="st7" d="M693.9,523c-0.3,0.2-0.6,0.4-1,0.5c-0.4,0.1-0.8,0.2-1.3,0.2c-1.2,0-2-0.3-2.7-0.9s-0.9-1.5-0.9-2.6v-4h-1.5
		V514h1.5v-2.4h2.8v2.4h2.4v2.2h-2.4v3.9c0,0.4,0.1,0.7,0.3,0.9c0.2,0.2,0.5,0.3,0.9,0.3c0.4,0,0.8-0.1,1.1-0.4L693.9,523z"/>
	<path class="st7" d="M704.3,514.8c0.7,0.7,1.1,1.8,1.1,3.2v5.5h-2.8v-5.1c0-0.8-0.2-1.3-0.5-1.7s-0.8-0.6-1.5-0.6
		c-0.7,0-1.3,0.2-1.7,0.7c-0.4,0.4-0.6,1.1-0.6,2v4.8h-2.8v-13.4h2.8v4.7c0.4-0.4,0.8-0.7,1.3-0.9c0.5-0.2,1.1-0.3,1.7-0.3
		C702.6,513.7,703.6,514,704.3,514.8z"/>
	<path class="st7" d="M709.9,523c-0.8-0.4-1.4-1-1.9-1.8c-0.5-0.8-0.7-1.6-0.7-2.6s0.2-1.8,0.7-2.6s1.1-1.3,1.9-1.8
		c0.8-0.4,1.7-0.6,2.7-0.6c1,0,1.9,0.2,2.7,0.6c0.8,0.4,1.4,1,1.9,1.8s0.7,1.6,0.7,2.6s-0.2,1.8-0.7,2.6c-0.5,0.8-1.1,1.3-1.9,1.8
		c-0.8,0.4-1.7,0.6-2.7,0.6C711.6,523.6,710.7,523.4,709.9,523z M714.4,520.6c0.5-0.5,0.7-1.1,0.7-2s-0.2-1.5-0.7-2
		s-1.1-0.7-1.8-0.7s-1.3,0.2-1.8,0.7s-0.7,1.1-0.7,2s0.2,1.5,0.7,2c0.5,0.5,1.1,0.7,1.8,0.7S713.9,521.1,714.4,520.6z"/>
	<path class="st7" d="M728.6,514.8c0.7,0.7,1.1,1.8,1.1,3.2v5.5h-2.8v-5.1c0-0.8-0.2-1.3-0.5-1.7s-0.8-0.6-1.5-0.6
		c-0.7,0-1.3,0.2-1.7,0.7c-0.4,0.4-0.6,1.1-0.6,2v4.8h-2.8v-9.7h2.7v1.1c0.4-0.4,0.8-0.7,1.4-0.9c0.6-0.2,1.2-0.3,1.8-0.3
		C726.9,513.7,727.9,514,728.6,514.8z"/>
</g>
</svg>
