<?xml version="1.0" encoding="utf-8"?>
<!-- Generator: Adobe Illustrator 23.0.4, SVG Export Plug-In . SVG Version: 6.00 Build 0)  -->
<svg version="1.1" id="Layer_1" xmlns="http://www.w3.org/2000/svg" xmlns:xlink="http://www.w3.org/1999/xlink" x="0px" y="0px"
	 viewBox="0 0 930 624" style="enable-background:new 0 0 930 624;" xml:space="preserve">
<style type="text/css">
	.st0{fill:none;stroke:url(#SVGID_1_);stroke-width:5;}
	.st1{fill:none;stroke:url(#SVGID_2_);stroke-width:5;}
	.st2{fill:none;stroke:url(#SVGID_3_);stroke-width:5;}
	.st3{fill:none;stroke:url(#SVGID_4_);stroke-width:5;}
	.st4{fill:none;stroke:url(#SVGID_5_);stroke-width:5;}
	.st5{fill:#FFFFFF;}
</style>
<linearGradient id="SVGID_1_" gradientUnits="userSpaceOnUse" x1="466.75" y1="621" x2="466.75" y2="277.5" gradientTransform="matrix(1 0 0 -1 0 624)">
	<stop  offset="0" style="stop-color:#6E2F62"/>
	<stop  offset="1" style="stop-color:#003399"/>
</linearGradient>
<path class="st0" d="M464.5,3L318,86.5v174l146.5,86l151-86v-174L464.5,3z"/>
<linearGradient id="SVGID_2_" gradientUnits="userSpaceOnUse" x1="778.75" y1="621" x2="778.75" y2="277.5" gradientTransform="matrix(1 0 0 -1 0 624)">
	<stop  offset="0" style="stop-color:#003399"/>
	<stop  offset="1" style="stop-color:#3399CC"/>
</linearGradient>
<path class="st1" d="M776.5,3L630,86.5v174l146.5,86l151-86v-174L776.5,3z"/>
<linearGradient id="SVGID_3_" gradientUnits="userSpaceOnUse" x1="308.75" y1="353" x2="308.75" y2="9.5" gradientTransform="matrix(1 0 0 -1 0 624)">
	<stop  offset="0" style="stop-color:#003399"/>
	<stop  offset="1" style="stop-color:#3399CC"/>
</linearGradient>
<path class="st2" d="M306.5,271L160,354.5v174l146.5,86l151-86v-174L306.5,271z"/>
<linearGradient id="SVGID_4_" gradientUnits="userSpaceOnUse" x1="151.75" y1="621" x2="151.75" y2="277.5" gradientTransform="matrix(1 0 0 -1 0 624)">
	<stop  offset="0" style="stop-color:#CC0000"/>
	<stop  offset="1" style="stop-color:#6E2F62"/>
</linearGradient>
<path class="st3" d="M149.5,3L3,86.5v174l146.5,86l151-86v-174L149.5,3z"/>
<linearGradient id="SVGID_5_" gradientUnits="userSpaceOnUse" x1="623.75" y1="347" x2="623.75" y2="3.5" gradientTransform="matrix(1 0 0 -1 0 624)">
	<stop  offset="0" style="stop-color:#CC0000"/>
	<stop  offset="1" style="stop-color:#6E2F62"/>
</linearGradient>
<path class="st4" d="M621.5,277L475,360.5v174l146.5,86l151-86v-174L621.5,277z"/>
<g>
	<path class="st5" d="M130.1,121.1v70h-19.8v-54.7h-13v-15.3H130.1z"/>
	<path class="st5" d="M198.4,161.1c1.7,2.7,2.6,5.9,2.6,9.4c0,4.4-1.3,8.3-3.8,11.6c-2.5,3.3-6.1,5.9-10.7,7.7
		c-4.6,1.8-9.9,2.7-15.9,2.7s-11.3-0.9-15.9-2.7c-4.6-1.8-8.2-4.4-10.7-7.7c-2.5-3.3-3.8-7.2-3.8-11.6c0-3.5,0.9-6.7,2.6-9.4
		c1.7-2.7,4.2-5,7.4-6.9c-2.4-1.7-4.2-3.7-5.5-6.1c-1.3-2.4-2-5.1-2-8c0-4.1,1.2-7.6,3.5-10.8c2.3-3.1,5.6-5.5,9.9-7.1
		c4.2-1.7,9.1-2.5,14.5-2.5c5.5,0,10.3,0.8,14.6,2.5c4.2,1.7,7.5,4,9.8,7.1c2.3,3.1,3.5,6.7,3.5,10.8c0,2.9-0.6,5.6-1.9,8
		c-1.3,2.4-3.1,4.4-5.6,6.1C194.2,156.1,196.7,158.4,198.4,161.1z M178.2,176.2c1.9-1.6,2.9-3.7,2.9-6.4c0-2.7-0.9-4.8-2.9-6.3
		c-1.9-1.6-4.4-2.4-7.6-2.4c-3.2,0-5.8,0.8-7.6,2.4c-1.9,1.6-2.9,3.7-2.9,6.3c0,2.7,1,4.8,2.9,6.4c1.9,1.6,4.5,2.4,7.6,2.4
		C173.8,178.6,176.3,177.8,178.2,176.2z M164.6,135.5c-1.5,1.3-2.3,3.1-2.3,5.4c0,2.3,0.8,4.1,2.2,5.4s3.5,2,6,2
		c2.5,0,4.6-0.7,6.1-2c1.5-1.3,2.3-3.1,2.3-5.4c0-2.3-0.8-4.1-2.3-5.4c-1.5-1.3-3.6-2-6.1-2C168.1,133.6,166.1,134.2,164.6,135.5z"
		/>
</g>
<g>
	<path class="st5" d="M82.2,210.2c1.2,1,1.8,2.4,1.8,4.2c0,1.8-0.6,3.1-1.8,4.1c-1.2,1-2.9,1.5-5,1.5h-4.8v5.5h-1.2v-16.8h6
		C79.3,208.7,81,209.2,82.2,210.2z M81.3,217.7c0.9-0.8,1.4-1.9,1.4-3.4s-0.5-2.6-1.4-3.4c-0.9-0.8-2.3-1.2-4.1-1.2h-4.8v9.1h4.8
		C79,218.9,80.3,218.5,81.3,217.7z"/>
	<path class="st5" d="M95.4,214.1c0.8,0.8,1.2,2,1.2,3.5v7.9h-1.2v-2.2c-0.4,0.7-1,1.3-1.8,1.7c-0.8,0.4-1.7,0.6-2.8,0.6
		c-1.4,0-2.5-0.3-3.3-1c-0.8-0.7-1.2-1.5-1.2-2.6c0-1,0.4-1.9,1.1-2.5c0.7-0.6,1.9-1,3.6-1h4.3v-1c0-1.2-0.3-2.1-0.9-2.7
		c-0.6-0.6-1.6-0.9-2.8-0.9c-0.8,0-1.6,0.1-2.4,0.4c-0.8,0.3-1.4,0.7-1.9,1.2l-0.6-0.9c0.6-0.6,1.4-1,2.3-1.3
		c0.9-0.3,1.8-0.5,2.8-0.5C93.4,212.9,94.5,213.3,95.4,214.1z M93.8,223.9c0.7-0.5,1.3-1.2,1.6-2.1v-2.4h-4.3
		c-1.2,0-2.1,0.2-2.7,0.7c-0.6,0.4-0.8,1.1-0.8,1.8c0,0.8,0.3,1.5,0.9,1.9s1.5,0.7,2.6,0.7C92.2,224.6,93.1,224.4,93.8,223.9z"/>
	<path class="st5" d="M101.9,225.1c-0.9-0.3-1.6-0.7-2.1-1.2l0.6-1c0.5,0.4,1.2,0.8,2,1.1c0.8,0.3,1.7,0.4,2.5,0.4
		c1.3,0,2.2-0.2,2.8-0.6c0.6-0.4,0.9-1,0.9-1.7c0-0.5-0.2-0.9-0.5-1.2s-0.7-0.5-1.2-0.7c-0.5-0.1-1.1-0.3-2-0.5
		c-1-0.2-1.8-0.4-2.4-0.6s-1.1-0.5-1.6-1c-0.4-0.5-0.6-1.1-0.6-1.9c0-1,0.4-1.8,1.2-2.5c0.8-0.6,2-1,3.5-1c0.8,0,1.6,0.1,2.4,0.3
		c0.8,0.2,1.4,0.5,1.9,0.9l-0.6,1c-0.5-0.4-1.1-0.6-1.8-0.8c-0.7-0.2-1.3-0.3-2-0.3c-1.2,0-2,0.2-2.6,0.6c-0.6,0.4-0.9,1-0.9,1.7
		c0,0.6,0.2,1,0.5,1.3c0.3,0.3,0.7,0.5,1.2,0.7s1.2,0.3,2.1,0.5c1,0.2,1.8,0.4,2.4,0.6c0.6,0.2,1.1,0.5,1.5,1
		c0.4,0.4,0.6,1.1,0.6,1.8c0,1-0.4,1.9-1.3,2.5c-0.9,0.6-2.1,0.9-3.6,0.9C103.7,225.6,102.8,225.4,101.9,225.1z"/>
	<path class="st5" d="M119.3,224.7c-0.3,0.3-0.7,0.5-1.1,0.7c-0.5,0.2-0.9,0.2-1.4,0.2c-1.1,0-1.9-0.3-2.5-0.9
		c-0.6-0.6-0.9-1.4-0.9-2.5V214H111v-1h2.3v-2.7h1.2v2.7h4v1h-4v8.1c0,0.8,0.2,1.4,0.6,1.9c0.4,0.4,1,0.6,1.7,0.6
		c0.8,0,1.4-0.2,1.9-0.7L119.3,224.7z"/>
	<path class="st5" d="M130,225c-1.1-0.4-2-1-2.6-1.6l0.6-0.9c0.6,0.6,1.4,1.1,2.4,1.5c1,0.4,2.1,0.6,3.2,0.6c1.6,0,2.8-0.3,3.6-0.9
		c0.8-0.6,1.2-1.4,1.2-2.4c0-0.8-0.2-1.4-0.6-1.8s-1-0.8-1.6-1c-0.6-0.2-1.5-0.5-2.6-0.7c-1.2-0.3-2.2-0.6-3-0.9s-1.4-0.7-1.9-1.3
		s-0.8-1.4-0.8-2.4c0-0.8,0.2-1.6,0.6-2.2c0.4-0.7,1.1-1.2,2-1.6c0.9-0.4,2-0.6,3.3-0.6c0.9,0,1.8,0.1,2.7,0.4
		c0.9,0.3,1.7,0.6,2.3,1.1l-0.5,1c-0.7-0.5-1.4-0.8-2.2-1.1c-0.8-0.2-1.6-0.4-2.4-0.4c-1.6,0-2.7,0.3-3.5,0.9
		c-0.8,0.6-1.2,1.4-1.2,2.4c0,0.8,0.2,1.4,0.6,1.8c0.4,0.4,1,0.8,1.6,1c0.6,0.2,1.5,0.5,2.6,0.8c1.2,0.3,2.2,0.6,3,0.9
		c0.7,0.3,1.4,0.7,1.9,1.3s0.8,1.4,0.8,2.4c0,0.8-0.2,1.6-0.7,2.2s-1.1,1.2-2,1.6c-0.9,0.4-2,0.6-3.4,0.6
		C132.3,225.6,131.2,225.4,130,225z"/>
	<path class="st5" d="M152.8,213.7c0.9,0.5,1.7,1.3,2.2,2.3c0.5,1,0.8,2.1,0.8,3.3c0,1.2-0.3,2.3-0.8,3.3c-0.5,1-1.3,1.7-2.2,2.3
		c-0.9,0.5-2,0.8-3.2,0.8c-1.1,0-2.1-0.3-3-0.8c-0.9-0.5-1.6-1.2-2.1-2.2v7.5h-1.2V213h1.2v3c0.5-1,1.2-1.7,2.1-2.2
		c0.9-0.5,1.9-0.8,3-0.8C150.8,212.9,151.9,213.1,152.8,213.7z M152.2,223.8c0.8-0.4,1.4-1.1,1.8-1.9c0.4-0.8,0.7-1.7,0.7-2.7
		c0-1-0.2-1.9-0.7-2.7c-0.4-0.8-1-1.4-1.8-1.9c-0.8-0.4-1.6-0.7-2.6-0.7c-1,0-1.8,0.2-2.6,0.7c-0.8,0.4-1.4,1.1-1.8,1.9
		s-0.7,1.7-0.7,2.7c0,1,0.2,1.9,0.7,2.7c0.4,0.8,1,1.4,1.8,1.9c0.8,0.4,1.6,0.7,2.6,0.7C150.6,224.5,151.4,224.3,152.2,223.8z"/>
	<path class="st5" d="M161.3,224.8c-1-0.5-1.7-1.3-2.2-2.3c-0.5-1-0.8-2.1-0.8-3.3s0.3-2.3,0.8-3.3c0.5-1,1.3-1.7,2.2-2.3
		s2-0.8,3.2-0.8s2.3,0.3,3.2,0.8c1,0.5,1.7,1.3,2.2,2.3c0.5,1,0.8,2.1,0.8,3.3s-0.3,2.3-0.8,3.3c-0.5,1-1.3,1.7-2.2,2.3
		c-1,0.5-2,0.8-3.2,0.8S162.2,225.3,161.3,224.8z M167,223.8c0.8-0.4,1.4-1.1,1.8-1.9c0.4-0.8,0.7-1.7,0.7-2.7c0-1-0.2-1.9-0.7-2.7
		s-1-1.4-1.8-1.9c-0.8-0.4-1.6-0.7-2.6-0.7s-1.8,0.2-2.6,0.7c-0.8,0.4-1.4,1.1-1.8,1.9c-0.4,0.8-0.7,1.7-0.7,2.7
		c0,1,0.2,1.9,0.7,2.7c0.4,0.8,1,1.4,1.8,1.9c0.8,0.4,1.6,0.7,2.6,0.7S166.3,224.3,167,223.8z"/>
	<path class="st5" d="M184.3,214.2c0.9,0.9,1.4,2.2,1.4,3.9v7.3h-1.2v-7.2c0-1.4-0.4-2.5-1.1-3.2c-0.7-0.7-1.7-1.1-3-1.1
		c-1.5,0-2.6,0.4-3.5,1.3c-0.8,0.9-1.3,2.1-1.3,3.6v6.7h-1.2V213h1.2v2.7c0.4-0.9,1.1-1.6,1.9-2.1s1.9-0.7,3-0.7
		C182.1,212.9,183.4,213.3,184.3,214.2z"/>
	<path class="st5" d="M190.9,225.1c-0.9-0.3-1.6-0.7-2.1-1.2l0.6-1c0.5,0.4,1.2,0.8,2,1.1c0.8,0.3,1.7,0.4,2.5,0.4
		c1.3,0,2.2-0.2,2.8-0.6c0.6-0.4,0.9-1,0.9-1.7c0-0.5-0.2-0.9-0.5-1.2s-0.7-0.5-1.2-0.7c-0.5-0.1-1.1-0.3-2-0.5
		c-1-0.2-1.8-0.4-2.4-0.6s-1.1-0.5-1.6-1c-0.4-0.5-0.6-1.1-0.6-1.9c0-1,0.4-1.8,1.2-2.5c0.8-0.6,2-1,3.5-1c0.8,0,1.6,0.1,2.4,0.3
		c0.8,0.2,1.4,0.5,1.9,0.9l-0.6,1c-0.5-0.4-1.1-0.6-1.8-0.8c-0.7-0.2-1.3-0.3-2-0.3c-1.2,0-2,0.2-2.6,0.6c-0.6,0.4-0.9,1-0.9,1.7
		c0,0.6,0.2,1,0.5,1.3c0.3,0.3,0.7,0.5,1.2,0.7s1.2,0.3,2.1,0.5c1,0.2,1.8,0.4,2.4,0.6c0.6,0.2,1.1,0.5,1.5,1
		c0.4,0.4,0.6,1.1,0.6,1.8c0,1-0.4,1.9-1.3,2.5c-0.9,0.6-2.1,0.9-3.6,0.9C192.8,225.6,191.8,225.4,190.9,225.1z"/>
	<path class="st5" d="M203.8,224.8c-1-0.5-1.7-1.3-2.2-2.3c-0.5-1-0.8-2.1-0.8-3.3s0.3-2.3,0.8-3.3c0.5-1,1.3-1.7,2.2-2.3
		s2-0.8,3.2-0.8s2.3,0.3,3.2,0.8c1,0.5,1.7,1.3,2.2,2.3c0.5,1,0.8,2.1,0.8,3.3s-0.3,2.3-0.8,3.3c-0.5,1-1.3,1.7-2.2,2.3
		c-1,0.5-2,0.8-3.2,0.8S204.7,225.3,203.8,224.8z M209.6,223.8c0.8-0.4,1.4-1.1,1.8-1.9c0.4-0.8,0.7-1.7,0.7-2.7
		c0-1-0.2-1.9-0.7-2.7s-1-1.4-1.8-1.9c-0.8-0.4-1.6-0.7-2.6-0.7s-1.8,0.2-2.6,0.7c-0.8,0.4-1.4,1.1-1.8,1.9
		c-0.4,0.8-0.7,1.7-0.7,2.7c0,1,0.2,1.9,0.7,2.7c0.4,0.8,1,1.4,1.8,1.9c0.8,0.4,1.6,0.7,2.6,0.7S208.8,224.3,209.6,223.8z"/>
	<path class="st5" d="M219.9,213.6c0.8-0.5,1.8-0.7,3-0.7v1.2l-0.3,0c-1.4,0-2.5,0.4-3.3,1.3c-0.8,0.9-1.2,2.1-1.2,3.6v6.5H217V213
		h1.2v2.7C218.5,214.8,219.1,214.1,219.9,213.6z"/>
	<path class="st5" d="M226.6,225.1c-0.9-0.3-1.6-0.7-2.1-1.2l0.6-1c0.5,0.4,1.2,0.8,2,1.1c0.8,0.3,1.7,0.4,2.5,0.4
		c1.3,0,2.2-0.2,2.8-0.6c0.6-0.4,0.9-1,0.9-1.7c0-0.5-0.2-0.9-0.5-1.2s-0.7-0.5-1.2-0.7c-0.5-0.1-1.1-0.3-2-0.5
		c-1-0.2-1.8-0.4-2.4-0.6s-1.1-0.5-1.6-1c-0.4-0.5-0.6-1.1-0.6-1.9c0-1,0.4-1.8,1.2-2.5c0.8-0.6,2-1,3.5-1c0.8,0,1.6,0.1,2.4,0.3
		c0.8,0.2,1.4,0.5,1.9,0.9l-0.6,1c-0.5-0.4-1.1-0.6-1.8-0.8c-0.7-0.2-1.3-0.3-2-0.3c-1.2,0-2,0.2-2.6,0.6c-0.6,0.4-0.9,1-0.9,1.7
		c0,0.6,0.2,1,0.5,1.3c0.3,0.3,0.7,0.5,1.2,0.7s1.2,0.3,2.1,0.5c1,0.2,1.8,0.4,2.4,0.6c0.6,0.2,1.1,0.5,1.5,1
		c0.4,0.4,0.6,1.1,0.6,1.8c0,1-0.4,1.9-1.3,2.5c-0.9,0.6-2.1,0.9-3.6,0.9C228.5,225.6,227.5,225.4,226.6,225.1z"/>
</g>
<g>
	<path class="st5" d="M386.7,224.4v1.1h-11.6v-16.8h11.2v1.1h-10v6.6h9v1.1h-9v6.9H386.7z"/>
	<path class="st5" d="M398.3,225.5l-4.3-5.6l-4.3,5.6h-1.4l5-6.5l-4.7-6.1h1.4l4,5.2l4-5.2h1.3l-4.7,6.1l5,6.5H398.3z"/>
	<path class="st5" d="M412.9,219.5h-10.8c0,1,0.3,1.8,0.7,2.6c0.5,0.8,1.1,1.3,1.9,1.8c0.8,0.4,1.7,0.6,2.7,0.6
		c0.8,0,1.6-0.1,2.3-0.4c0.7-0.3,1.3-0.7,1.7-1.3l0.7,0.8c-0.5,0.7-1.2,1.2-2.1,1.5c-0.8,0.4-1.7,0.5-2.7,0.5
		c-1.2,0-2.4-0.3-3.3-0.8s-1.7-1.3-2.3-2.3c-0.6-1-0.8-2.1-0.8-3.3c0-1.2,0.3-2.3,0.8-3.3c0.5-1,1.2-1.7,2.1-2.3s1.9-0.8,3.1-0.8
		s2.2,0.3,3.1,0.8c0.9,0.5,1.6,1.3,2.1,2.2c0.5,1,0.8,2,0.8,3.3L412.9,219.5z M404.6,214.5c-0.7,0.4-1.3,0.9-1.7,1.7
		s-0.7,1.5-0.7,2.4h9.6c0-0.9-0.3-1.7-0.7-2.4c-0.4-0.7-1-1.3-1.7-1.7c-0.7-0.4-1.5-0.6-2.4-0.6S405.3,214.1,404.6,214.5z"/>
	<path class="st5" d="M418.4,224.8c-1-0.5-1.7-1.3-2.3-2.3c-0.5-1-0.8-2.1-0.8-3.3c0-1.2,0.3-2.3,0.8-3.3c0.5-1,1.3-1.7,2.3-2.3
		c1-0.5,2-0.8,3.3-0.8c1,0,1.9,0.2,2.7,0.6c0.8,0.4,1.5,1,2,1.7l-0.9,0.6c-0.4-0.6-1-1.1-1.7-1.4c-0.7-0.3-1.4-0.5-2.2-0.5
		c-1,0-1.9,0.2-2.6,0.7s-1.4,1.1-1.8,1.9c-0.4,0.8-0.7,1.7-0.7,2.8s0.2,2,0.7,2.8c0.4,0.8,1,1.4,1.8,1.9c0.8,0.4,1.7,0.7,2.6,0.7
		c0.8,0,1.5-0.2,2.2-0.5c0.7-0.3,1.2-0.8,1.7-1.4l0.9,0.6c-0.5,0.8-1.2,1.3-2,1.7c-0.8,0.4-1.7,0.6-2.7,0.6
		C420.4,225.6,419.4,225.3,418.4,224.8z"/>
	<path class="st5" d="M441,213v12.5h-1.2v-2.7c-0.4,0.9-1,1.6-1.8,2.1c-0.8,0.5-1.8,0.7-2.9,0.7c-1.6,0-2.9-0.5-3.8-1.4
		c-0.9-0.9-1.4-2.2-1.4-3.9V213h1.2v7.2c0,1.4,0.4,2.5,1.1,3.2c0.7,0.7,1.7,1.1,3,1.1c1.4,0,2.5-0.4,3.3-1.3
		c0.8-0.9,1.2-2.1,1.2-3.6V213H441z"/>
	<path class="st5" d="M452.3,224.7c-0.3,0.3-0.7,0.5-1.1,0.7c-0.5,0.2-0.9,0.2-1.4,0.2c-1.1,0-1.9-0.3-2.5-0.9
		c-0.6-0.6-0.9-1.4-0.9-2.5V214H444v-1h2.3v-2.7h1.2v2.7h4v1h-4v8.1c0,0.8,0.2,1.4,0.6,1.9c0.4,0.4,1,0.6,1.7,0.6
		c0.8,0,1.4-0.2,1.9-0.7L452.3,224.7z"/>
	<path class="st5" d="M455.5,209.6c-0.2-0.2-0.3-0.4-0.3-0.7c0-0.3,0.1-0.5,0.3-0.7c0.2-0.2,0.4-0.3,0.7-0.3c0.3,0,0.5,0.1,0.7,0.3
		c0.2,0.2,0.3,0.4,0.3,0.7c0,0.3-0.1,0.5-0.3,0.7c-0.2,0.2-0.4,0.3-0.7,0.3C455.9,209.9,455.7,209.8,455.5,209.6z M455.6,213h1.2
		v12.5h-1.2V213z"/>
	<path class="st5" d="M471.9,213l-5.7,12.5H465l-5.6-12.5h1.3l5,11.2l5-11.2H471.9z"/>
	<path class="st5" d="M484.8,219.5H474c0,1,0.3,1.8,0.7,2.6c0.5,0.8,1.1,1.3,1.9,1.8c0.8,0.4,1.7,0.6,2.7,0.6c0.8,0,1.6-0.1,2.3-0.4
		s1.3-0.7,1.7-1.3l0.7,0.8c-0.5,0.7-1.2,1.2-2.1,1.5c-0.8,0.4-1.7,0.5-2.7,0.5c-1.2,0-2.4-0.3-3.3-0.8s-1.7-1.3-2.3-2.3
		s-0.8-2.1-0.8-3.3c0-1.2,0.3-2.3,0.8-3.3c0.5-1,1.2-1.7,2.1-2.3s1.9-0.8,3.1-0.8s2.2,0.3,3.1,0.8c0.9,0.5,1.6,1.3,2.1,2.2
		s0.8,2,0.8,3.3L484.8,219.5z M476.4,214.5c-0.7,0.4-1.3,0.9-1.7,1.7s-0.7,1.5-0.7,2.4h9.6c0-0.9-0.3-1.7-0.7-2.4
		c-0.4-0.7-1-1.3-1.7-1.7c-0.7-0.4-1.5-0.6-2.4-0.6S477.2,214.1,476.4,214.5z"/>
	<path class="st5" d="M498.3,209.8h-6v-1.1h13.3v1.1h-6v15.7h-1.2V209.8z"/>
	<path class="st5" d="M517.5,219.5h-10.8c0,1,0.3,1.8,0.7,2.6c0.5,0.8,1.1,1.3,1.9,1.8c0.8,0.4,1.7,0.6,2.7,0.6
		c0.8,0,1.6-0.1,2.3-0.4s1.3-0.7,1.7-1.3l0.7,0.8c-0.5,0.7-1.2,1.2-2.1,1.5c-0.8,0.4-1.7,0.5-2.7,0.5c-1.2,0-2.4-0.3-3.3-0.8
		s-1.7-1.3-2.3-2.3s-0.8-2.1-0.8-3.3c0-1.2,0.3-2.3,0.8-3.3c0.5-1,1.2-1.7,2.1-2.3s1.9-0.8,3.1-0.8s2.2,0.3,3.1,0.8
		c0.9,0.5,1.6,1.3,2.1,2.2s0.8,2,0.8,3.3L517.5,219.5z M509.1,214.5c-0.7,0.4-1.3,0.9-1.7,1.7s-0.7,1.5-0.7,2.4h9.6
		c0-0.9-0.3-1.7-0.7-2.4c-0.4-0.7-1-1.3-1.7-1.7c-0.7-0.4-1.5-0.6-2.4-0.6S509.8,214.1,509.1,214.5z"/>
	<path class="st5" d="M528.6,214.1c0.8,0.8,1.2,2,1.2,3.5v7.9h-1.2v-2.2c-0.4,0.7-1,1.3-1.8,1.7c-0.8,0.4-1.7,0.6-2.8,0.6
		c-1.4,0-2.5-0.3-3.3-1s-1.2-1.5-1.2-2.6c0-1,0.4-1.9,1.1-2.5c0.7-0.6,1.9-1,3.6-1h4.3v-1c0-1.2-0.3-2.1-0.9-2.7
		c-0.6-0.6-1.6-0.9-2.8-0.9c-0.8,0-1.6,0.1-2.4,0.4c-0.8,0.3-1.4,0.7-1.9,1.2l-0.6-0.9c0.6-0.6,1.4-1,2.3-1.3
		c0.9-0.3,1.8-0.5,2.8-0.5C526.6,212.9,527.8,213.3,528.6,214.1z M527.1,223.9c0.7-0.5,1.3-1.2,1.6-2.1v-2.4h-4.3
		c-1.2,0-2.1,0.2-2.7,0.7c-0.6,0.4-0.8,1.1-0.8,1.8c0,0.8,0.3,1.5,0.9,1.9c0.6,0.5,1.5,0.7,2.6,0.7
		C525.4,224.6,526.3,224.4,527.1,223.9z"/>
	<path class="st5" d="M554.1,214.2c0.9,0.9,1.3,2.2,1.3,3.9v7.3h-1.2v-7.2c0-1.4-0.3-2.5-1-3.2c-0.7-0.7-1.6-1.1-2.9-1.1
		c-1.4,0-2.5,0.4-3.3,1.3s-1.2,2.1-1.2,3.6v6.7h-1.2v-7.2c0-1.4-0.3-2.5-1-3.2c-0.7-0.7-1.6-1.1-2.9-1.1c-1.4,0-2.5,0.4-3.3,1.3
		c-0.8,0.9-1.2,2.1-1.2,3.6v6.7h-1.2V213h1.2v2.7c0.4-0.9,1-1.6,1.9-2.1c0.8-0.5,1.8-0.7,2.9-0.7c1.1,0,2.1,0.3,2.9,0.8
		c0.8,0.5,1.4,1.3,1.7,2.3c0.4-0.9,1.1-1.7,2-2.2c0.9-0.5,1.9-0.8,3.1-0.8C552,212.9,553.2,213.3,554.1,214.2z"/>
	<path class="st5" d="M426.7,254.3l0-14.4l-7,12.1h-0.6l-7-12.1v14.3h-1.2v-16.8h1l7.5,13l7.5-13h1l0,16.8H426.7z"/>
	<path class="st5" d="M444,248.3h-10.8c0,1,0.3,1.8,0.7,2.6c0.5,0.8,1.1,1.3,1.9,1.8c0.8,0.4,1.7,0.6,2.7,0.6c0.8,0,1.6-0.1,2.3-0.4
		c0.7-0.3,1.3-0.7,1.7-1.3l0.7,0.8c-0.5,0.7-1.2,1.2-2.1,1.5c-0.8,0.4-1.7,0.5-2.7,0.5c-1.2,0-2.4-0.3-3.3-0.8s-1.7-1.3-2.3-2.3
		c-0.6-1-0.8-2.1-0.8-3.3c0-1.2,0.3-2.3,0.8-3.3c0.5-1,1.2-1.7,2.1-2.3s1.9-0.8,3.1-0.8s2.2,0.3,3.1,0.8c0.9,0.5,1.6,1.3,2.1,2.2
		c0.5,1,0.8,2,0.8,3.3L444,248.3z M435.6,243.3c-0.7,0.4-1.3,0.9-1.7,1.7s-0.7,1.5-0.7,2.4h9.6c0-0.9-0.3-1.7-0.7-2.4
		c-0.4-0.7-1-1.3-1.7-1.7c-0.7-0.4-1.5-0.6-2.4-0.6S436.4,242.9,435.6,243.3z"/>
	<path class="st5" d="M467,243c0.9,0.9,1.3,2.2,1.3,3.9v7.3h-1.2v-7.2c0-1.4-0.3-2.5-1-3.2c-0.7-0.7-1.6-1.1-2.9-1.1
		c-1.4,0-2.5,0.4-3.3,1.3s-1.2,2.1-1.2,3.6v6.7h-1.2v-7.2c0-1.4-0.3-2.5-1-3.2c-0.7-0.7-1.6-1.1-2.9-1.1c-1.4,0-2.5,0.4-3.3,1.3
		c-0.8,0.9-1.2,2.1-1.2,3.6v6.7h-1.2v-12.5h1.2v2.7c0.4-0.9,1-1.6,1.9-2.1c0.8-0.5,1.8-0.7,2.9-0.7c1.1,0,2.1,0.3,2.9,0.8
		c0.8,0.5,1.4,1.3,1.7,2.3c0.4-0.9,1.1-1.7,2-2.2c0.9-0.5,1.9-0.8,3.1-0.8C464.9,241.7,466.1,242.1,467,243z"/>
	<path class="st5" d="M482.7,242.5c0.9,0.5,1.7,1.3,2.2,2.3c0.5,1,0.8,2.1,0.8,3.3c0,1.2-0.3,2.3-0.8,3.3s-1.3,1.7-2.2,2.3
		s-2,0.8-3.2,0.8c-1.1,0-2.1-0.3-3-0.8s-1.6-1.3-2.1-2.2v3h-1.2v-17.8h1.2v8.1c0.5-0.9,1.2-1.7,2.1-2.2c0.9-0.5,1.9-0.8,3-0.8
		C480.7,241.7,481.8,241.9,482.7,242.5z M482.1,252.6c0.8-0.4,1.4-1.1,1.8-1.9c0.4-0.8,0.7-1.7,0.7-2.7c0-1-0.2-1.9-0.7-2.7
		s-1-1.4-1.8-1.9c-0.8-0.4-1.6-0.7-2.6-0.7s-1.8,0.2-2.6,0.7c-0.8,0.4-1.4,1.1-1.8,1.9s-0.7,1.7-0.7,2.7c0,1,0.2,1.9,0.7,2.7
		c0.4,0.8,1,1.4,1.8,1.9c0.8,0.4,1.6,0.7,2.6,0.7S481.3,253.1,482.1,252.6z"/>
	<path class="st5" d="M500,248.3h-10.8c0,1,0.3,1.8,0.7,2.6c0.5,0.8,1.1,1.3,1.9,1.8c0.8,0.4,1.7,0.6,2.7,0.6c0.8,0,1.6-0.1,2.3-0.4
		c0.7-0.3,1.3-0.7,1.7-1.3l0.7,0.8c-0.5,0.7-1.2,1.2-2.1,1.5c-0.8,0.4-1.7,0.5-2.7,0.5c-1.2,0-2.4-0.3-3.3-0.8
		c-1-0.5-1.7-1.3-2.3-2.3c-0.6-1-0.8-2.1-0.8-3.3c0-1.2,0.3-2.3,0.8-3.3c0.5-1,1.2-1.7,2.1-2.3s1.9-0.8,3.1-0.8
		c1.1,0,2.2,0.3,3.1,0.8c0.9,0.5,1.6,1.3,2.1,2.2s0.8,2,0.8,3.3L500,248.3z M491.7,243.3c-0.7,0.4-1.3,0.9-1.7,1.7s-0.7,1.5-0.7,2.4
		h9.6c0-0.9-0.3-1.7-0.7-2.4s-1-1.3-1.7-1.7c-0.7-0.4-1.5-0.6-2.4-0.6C493.2,242.7,492.4,242.9,491.7,243.3z"/>
	<path class="st5" d="M506.7,242.4c0.8-0.5,1.8-0.7,3-0.7v1.2l-0.3,0c-1.4,0-2.5,0.4-3.3,1.3s-1.2,2.1-1.2,3.6v6.5h-1.2v-12.5h1.2
		v2.7C505.3,243.6,505.9,242.9,506.7,242.4z"/>
	<path class="st5" d="M513.5,253.9c-0.9-0.3-1.6-0.7-2.1-1.2l0.6-1c0.5,0.4,1.2,0.8,2,1.1c0.8,0.3,1.7,0.4,2.5,0.4
		c1.3,0,2.2-0.2,2.8-0.6s0.9-1,0.9-1.7c0-0.5-0.2-0.9-0.5-1.2s-0.7-0.5-1.2-0.7c-0.5-0.1-1.1-0.3-2-0.5c-1-0.2-1.8-0.4-2.4-0.6
		s-1.1-0.5-1.6-1c-0.4-0.5-0.6-1.1-0.6-1.9c0-1,0.4-1.8,1.2-2.5c0.8-0.6,2-1,3.5-1c0.8,0,1.6,0.1,2.4,0.3c0.8,0.2,1.4,0.5,1.9,0.9
		l-0.6,1c-0.5-0.4-1.1-0.6-1.8-0.8c-0.7-0.2-1.3-0.3-2-0.3c-1.2,0-2,0.2-2.6,0.6s-0.9,1-0.9,1.7c0,0.6,0.2,1,0.5,1.3
		c0.3,0.3,0.7,0.5,1.2,0.7s1.2,0.3,2.1,0.5c1,0.2,1.8,0.4,2.4,0.6c0.6,0.2,1.1,0.5,1.5,1c0.4,0.4,0.6,1.1,0.6,1.8
		c0,1-0.4,1.9-1.3,2.5s-2.1,0.9-3.6,0.9C515.3,254.4,514.4,254.2,513.5,253.9z"/>
</g>
<g>
	<path class="st5" d="M445.1,121.1v70h-19.8v-54.7h-13v-15.3H445.1z"/>
	<path class="st5" d="M503.5,152.6c4.7,4,7,9.3,7,16c0,4.3-1.1,8.3-3.3,12c-2.2,3.6-5.6,6.5-10.2,8.7c-4.6,2.2-10.2,3.2-17,3.2
		c-4.9,0-9.8-0.6-14.6-1.8c-4.8-1.2-9-2.9-12.5-5.1l7.1-14.9c2.8,1.9,5.9,3.3,9.2,4.3c3.4,1,6.8,1.5,10.2,1.5s6.1-0.6,8.2-1.9
		c2-1.3,3-3.1,3-5.5c0-2.3-1-4.1-3-5.3c-2-1.2-5.5-1.8-10.6-1.8h-19l3.5-40.9h44.6v15.3H478l-0.9,10.2h4.7
		C491.6,146.6,498.8,148.6,503.5,152.6z"/>
</g>
<g>
	<path class="st5" d="M716.3,225c-1.1-0.4-2-1-2.6-1.6l0.6-0.9c0.6,0.6,1.4,1.1,2.4,1.5c1,0.4,2.1,0.6,3.2,0.6
		c1.6,0,2.8-0.3,3.6-0.9c0.8-0.6,1.2-1.4,1.2-2.4c0-0.8-0.2-1.4-0.6-1.8c-0.4-0.4-1-0.8-1.6-1c-0.6-0.2-1.5-0.5-2.6-0.7
		c-1.2-0.3-2.2-0.6-3-0.9s-1.4-0.7-1.9-1.3s-0.8-1.4-0.8-2.4c0-0.8,0.2-1.6,0.6-2.2c0.4-0.7,1.1-1.2,2-1.6c0.9-0.4,2-0.6,3.3-0.6
		c0.9,0,1.8,0.1,2.7,0.4c0.9,0.3,1.7,0.6,2.3,1.1l-0.5,1c-0.7-0.5-1.4-0.8-2.2-1.1c-0.8-0.2-1.6-0.4-2.4-0.4c-1.6,0-2.7,0.3-3.5,0.9
		c-0.8,0.6-1.2,1.4-1.2,2.4c0,0.8,0.2,1.4,0.6,1.8c0.4,0.4,1,0.8,1.6,1c0.6,0.2,1.5,0.5,2.6,0.8c1.2,0.3,2.2,0.6,3,0.9
		c0.7,0.3,1.4,0.7,1.9,1.3c0.5,0.6,0.8,1.4,0.8,2.4c0,0.8-0.2,1.6-0.7,2.2c-0.4,0.7-1.1,1.2-2,1.6c-0.9,0.4-2,0.6-3.4,0.6
		C718.6,225.6,717.4,225.4,716.3,225z"/>
	<path class="st5" d="M740.6,213v12.5h-1.2v-2.7c-0.4,0.9-1,1.6-1.8,2.1c-0.8,0.5-1.8,0.7-2.9,0.7c-1.6,0-2.9-0.5-3.8-1.4
		c-0.9-0.9-1.4-2.2-1.4-3.9V213h1.2v7.2c0,1.4,0.4,2.5,1.1,3.2s1.7,1.1,3,1.1c1.4,0,2.5-0.4,3.3-1.3s1.2-2.1,1.2-3.6V213H740.6z"/>
	<path class="st5" d="M755.1,213.7c0.9,0.5,1.7,1.3,2.2,2.3c0.5,1,0.8,2.1,0.8,3.3c0,1.2-0.3,2.3-0.8,3.3s-1.3,1.7-2.2,2.3
		c-0.9,0.5-2,0.8-3.2,0.8c-1.1,0-2.1-0.3-3-0.8c-0.9-0.5-1.6-1.3-2.1-2.2v3h-1.2v-17.8h1.2v8.1c0.5-0.9,1.2-1.7,2.1-2.2
		c0.9-0.5,1.9-0.8,3-0.8C753.1,212.9,754.2,213.1,755.1,213.7z M754.5,223.8c0.8-0.4,1.4-1.1,1.8-1.9c0.4-0.8,0.7-1.7,0.7-2.7
		c0-1-0.2-1.9-0.7-2.7c-0.4-0.8-1-1.4-1.8-1.9c-0.8-0.4-1.6-0.7-2.6-0.7c-1,0-1.8,0.2-2.6,0.7c-0.8,0.4-1.4,1.1-1.8,1.9
		c-0.4,0.8-0.7,1.7-0.7,2.7c0,1,0.2,1.9,0.7,2.7c0.4,0.8,1,1.4,1.8,1.9c0.8,0.4,1.6,0.7,2.6,0.7
		C752.9,224.5,753.7,224.3,754.5,223.8z"/>
	<path class="st5" d="M762.2,225.1c-0.9-0.3-1.6-0.7-2.1-1.2l0.6-1c0.5,0.4,1.2,0.8,2,1.1c0.8,0.3,1.7,0.4,2.5,0.4
		c1.3,0,2.2-0.2,2.8-0.6c0.6-0.4,0.9-1,0.9-1.7c0-0.5-0.2-0.9-0.5-1.2s-0.7-0.5-1.2-0.7c-0.5-0.1-1.1-0.3-2-0.5
		c-1-0.2-1.8-0.4-2.4-0.6c-0.6-0.2-1.1-0.5-1.6-1c-0.4-0.5-0.6-1.1-0.6-1.9c0-1,0.4-1.8,1.2-2.5c0.8-0.6,2-1,3.5-1
		c0.8,0,1.6,0.1,2.4,0.3c0.8,0.2,1.4,0.5,1.9,0.9l-0.6,1c-0.5-0.4-1.1-0.6-1.8-0.8c-0.7-0.2-1.3-0.3-2-0.3c-1.2,0-2,0.2-2.6,0.6
		s-0.9,1-0.9,1.7c0,0.6,0.2,1,0.5,1.3c0.3,0.3,0.7,0.5,1.2,0.7s1.2,0.3,2.1,0.5c1,0.2,1.8,0.4,2.4,0.6c0.6,0.2,1.1,0.5,1.5,1
		c0.4,0.4,0.6,1.1,0.6,1.8c0,1-0.4,1.9-1.3,2.5c-0.9,0.6-2.1,0.9-3.6,0.9C764,225.6,763.1,225.4,762.2,225.1z"/>
	<path class="st5" d="M775.1,224.8c-1-0.5-1.7-1.3-2.3-2.3c-0.5-1-0.8-2.1-0.8-3.3c0-1.2,0.3-2.3,0.8-3.3c0.5-1,1.3-1.7,2.3-2.3
		c1-0.5,2-0.8,3.3-0.8c1,0,1.9,0.2,2.7,0.6c0.8,0.4,1.5,1,2,1.7l-0.9,0.6c-0.4-0.6-1-1.1-1.7-1.4c-0.7-0.3-1.4-0.5-2.2-0.5
		c-1,0-1.9,0.2-2.6,0.7s-1.4,1.1-1.8,1.9c-0.4,0.8-0.7,1.7-0.7,2.8s0.2,2,0.7,2.8c0.4,0.8,1,1.4,1.8,1.9c0.8,0.4,1.7,0.7,2.6,0.7
		c0.8,0,1.5-0.2,2.2-0.5c0.7-0.3,1.2-0.8,1.7-1.4l0.9,0.6c-0.5,0.8-1.2,1.3-2,1.7c-0.8,0.4-1.7,0.6-2.7,0.6
		C777.1,225.6,776,225.3,775.1,224.8z"/>
	<path class="st5" d="M789.6,213.6c0.8-0.5,1.8-0.7,3-0.7v1.2l-0.3,0c-1.4,0-2.5,0.4-3.3,1.3c-0.8,0.9-1.2,2.1-1.2,3.6v6.5h-1.2V213
		h1.2v2.7C788.2,214.8,788.8,214.1,789.6,213.6z"/>
	<path class="st5" d="M795.8,209.6c-0.2-0.2-0.3-0.4-0.3-0.7c0-0.3,0.1-0.5,0.3-0.7c0.2-0.2,0.4-0.3,0.7-0.3c0.3,0,0.5,0.1,0.7,0.3
		c0.2,0.2,0.3,0.4,0.3,0.7c0,0.3-0.1,0.5-0.3,0.7c-0.2,0.2-0.4,0.3-0.7,0.3C796.2,209.9,796,209.8,795.8,209.6z M795.9,213h1.2v12.5
		h-1.2V213z"/>
	<path class="st5" d="M811.6,213.7c0.9,0.5,1.7,1.3,2.2,2.3c0.5,1,0.8,2.1,0.8,3.3c0,1.2-0.3,2.3-0.8,3.3c-0.5,1-1.3,1.7-2.2,2.3
		c-0.9,0.5-2,0.8-3.2,0.8c-1.1,0-2.1-0.3-3-0.8c-0.9-0.5-1.6-1.3-2.1-2.2v3h-1.2v-17.8h1.2v8.1c0.5-0.9,1.2-1.7,2.1-2.2
		s1.9-0.8,3-0.8C809.6,212.9,810.7,213.1,811.6,213.7z M811,223.8c0.8-0.4,1.4-1.1,1.8-1.9c0.4-0.8,0.7-1.7,0.7-2.7
		c0-1-0.2-1.9-0.7-2.7c-0.4-0.8-1-1.4-1.8-1.9c-0.8-0.4-1.6-0.7-2.6-0.7c-1,0-1.8,0.2-2.6,0.7c-0.8,0.4-1.4,1.1-1.8,1.9
		c-0.4,0.8-0.7,1.7-0.7,2.7c0,1,0.2,1.9,0.7,2.7c0.4,0.8,1,1.4,1.8,1.9c0.8,0.4,1.6,0.7,2.6,0.7C809.4,224.5,810.2,224.3,811,223.8z
		"/>
	<path class="st5" d="M829,219.5h-10.8c0,1,0.3,1.8,0.7,2.6c0.5,0.8,1.1,1.3,1.9,1.8c0.8,0.4,1.7,0.6,2.7,0.6c0.8,0,1.6-0.1,2.3-0.4
		s1.3-0.7,1.7-1.3l0.7,0.8c-0.5,0.7-1.2,1.2-2.1,1.5c-0.8,0.4-1.7,0.5-2.7,0.5c-1.2,0-2.4-0.3-3.3-0.8s-1.7-1.3-2.3-2.3
		s-0.8-2.1-0.8-3.3c0-1.2,0.3-2.3,0.8-3.3c0.5-1,1.2-1.7,2.1-2.3s1.9-0.8,3.1-0.8s2.2,0.3,3.1,0.8c0.9,0.5,1.6,1.3,2.1,2.2
		s0.8,2,0.8,3.3L829,219.5z M820.6,214.5c-0.7,0.4-1.3,0.9-1.7,1.7s-0.7,1.5-0.7,2.4h9.6c0-0.9-0.3-1.7-0.7-2.4
		c-0.4-0.7-1-1.3-1.7-1.7c-0.7-0.4-1.5-0.6-2.4-0.6S821.3,214.1,820.6,214.5z"/>
	<path class="st5" d="M835.7,213.6c0.8-0.5,1.8-0.7,3-0.7v1.2l-0.3,0c-1.4,0-2.5,0.4-3.3,1.3c-0.8,0.9-1.2,2.1-1.2,3.6v6.5h-1.2V213
		h1.2v2.7C834.2,214.8,834.8,214.1,835.7,213.6z"/>
	<path class="st5" d="M842.4,225.1c-0.9-0.3-1.6-0.7-2.1-1.2l0.6-1c0.5,0.4,1.2,0.8,2,1.1c0.8,0.3,1.7,0.4,2.5,0.4
		c1.3,0,2.2-0.2,2.8-0.6c0.6-0.4,0.9-1,0.9-1.7c0-0.5-0.2-0.9-0.5-1.2s-0.7-0.5-1.2-0.7c-0.5-0.1-1.1-0.3-2-0.5
		c-1-0.2-1.8-0.4-2.4-0.6c-0.6-0.2-1.1-0.5-1.6-1c-0.4-0.5-0.6-1.1-0.6-1.9c0-1,0.4-1.8,1.2-2.5c0.8-0.6,2-1,3.5-1
		c0.8,0,1.6,0.1,2.4,0.3c0.8,0.2,1.4,0.5,1.9,0.9l-0.6,1c-0.5-0.4-1.1-0.6-1.8-0.8c-0.7-0.2-1.3-0.3-2-0.3c-1.2,0-2,0.2-2.6,0.6
		s-0.9,1-0.9,1.7c0,0.6,0.2,1,0.5,1.3c0.3,0.3,0.7,0.5,1.2,0.7s1.2,0.3,2.1,0.5c1,0.2,1.8,0.4,2.4,0.6c0.6,0.2,1.1,0.5,1.5,1
		c0.4,0.4,0.6,1.1,0.6,1.8c0,1-0.4,1.9-1.3,2.5c-0.9,0.6-2.1,0.9-3.6,0.9C844.3,225.6,843.3,225.4,842.4,225.1z"/>
</g>
<g>
	<path class="st5" d="M707.7,135.7v50.4h-14.3v-39.4h-9.4v-11H707.7z"/>
	<path class="st5" d="M726,184c-3.4-2.1-6-5.1-7.9-9c-1.9-4-2.8-8.7-2.8-14.1c0-5.4,0.9-10.1,2.8-14.1c1.9-4,4.5-7,7.9-9
		c3.4-2.1,7.2-3.1,11.5-3.1c4.3,0,8.1,1,11.4,3.1c3.4,2.1,6,5.1,7.9,9c1.9,4,2.8,8.7,2.8,14.1c0,5.4-0.9,10.1-2.8,14.1
		c-1.9,4-4.5,7-7.9,9c-3.4,2.1-7.2,3.1-11.4,3.1C733.2,187.1,729.4,186.1,726,184z M743.3,172c1.4-2.3,2.1-6,2.1-11.1
		s-0.7-8.7-2.1-11.1c-1.4-2.3-3.3-3.5-5.7-3.5c-2.4,0-4.4,1.2-5.8,3.5c-1.4,2.3-2.1,6-2.1,11.1s0.7,8.7,2.1,11.1
		c1.4,2.3,3.3,3.5,5.8,3.5C740,175.5,741.9,174.3,743.3,172z"/>
	<path class="st5" d="M775.3,184c-3.4-2.1-6-5.1-7.9-9c-1.9-4-2.8-8.7-2.8-14.1c0-5.4,0.9-10.1,2.8-14.1c1.9-4,4.5-7,7.9-9
		c3.4-2.1,7.2-3.1,11.5-3.1c4.3,0,8.1,1,11.4,3.1c3.4,2.1,6,5.1,7.9,9c1.9,4,2.8,8.7,2.8,14.1c0,5.4-0.9,10.1-2.8,14.1
		c-1.9,4-4.5,7-7.9,9c-3.4,2.1-7.2,3.1-11.4,3.1C782.6,187.1,778.7,186.1,775.3,184z M792.6,172c1.4-2.3,2.1-6,2.1-11.1
		s-0.7-8.7-2.1-11.1c-1.4-2.3-3.3-3.5-5.7-3.5c-2.4,0-4.4,1.2-5.8,3.5c-1.4,2.3-2.1,6-2.1,11.1s0.7,8.7,2.1,11.1
		c1.4,2.3,3.3,3.5,5.8,3.5C789.3,175.5,791.2,174.3,792.6,172z"/>
	<path class="st5" d="M824.7,184c-3.4-2.1-6-5.1-7.9-9c-1.9-4-2.8-8.7-2.8-14.1c0-5.4,0.9-10.1,2.8-14.1c1.9-4,4.5-7,7.9-9
		c3.4-2.1,7.2-3.1,11.5-3.1c4.3,0,8.1,1,11.4,3.1c3.4,2.1,6,5.1,7.9,9s2.8,8.7,2.8,14.1c0,5.4-0.9,10.1-2.8,14.1s-4.5,7-7.9,9
		c-3.4,2.1-7.2,3.1-11.4,3.1C831.9,187.1,828,186.1,824.7,184z M841.9,172c1.4-2.3,2.1-6,2.1-11.1s-0.7-8.7-2.1-11.1
		c-1.4-2.3-3.3-3.5-5.7-3.5c-2.4,0-4.4,1.2-5.8,3.5c-1.4,2.3-2.1,6-2.1,11.1s0.7,8.7,2.1,11.1c1.4,2.3,3.3,3.5,5.8,3.5
		C838.6,175.5,840.5,174.3,841.9,172z"/>
	<path class="st5" d="M900.6,166.2h-12.2v11.9h-11.1v-11.9h-12.2v-10.5h12.2v-11.9h11.1v11.9h12.2V166.2z"/>
</g>
<g>
	<path class="st5" d="M264.1,430.2c4.7,4,7,9.3,7,16c0,4.3-1.1,8.3-3.4,11.9c-2.2,3.6-5.6,6.5-10.2,8.7c-4.6,2.2-10.2,3.2-17,3.2
		c-4.9,0-9.8-0.6-14.6-1.8c-4.8-1.2-9-2.9-12.5-5.1l7.1-14.9c2.8,1.9,5.9,3.3,9.2,4.3c3.4,1,6.8,1.5,10.1,1.5c3.4,0,6.1-0.6,8.2-2
		c2-1.3,3-3.1,3-5.4s-1-4.1-3-5.3c-2-1.2-5.5-1.8-10.6-1.8h-19l3.5-40.9h44.6V414h-28.2l-0.9,10.2h4.7
		C252.2,424.2,259.4,426.2,264.1,430.2z"/>
	<path class="st5" d="M291.8,465.8c-4.7-2.9-8.3-7.1-10.9-12.6c-2.6-5.5-4-12-4-19.5s1.3-14.1,4-19.6c2.6-5.5,6.3-9.7,10.9-12.5
		c4.7-2.9,10-4.3,16-4.3c5.9,0,11.2,1.4,15.9,4.3c4.7,2.9,8.3,7,10.9,12.5c2.6,5.5,4,12,4,19.6s-1.3,14-4,19.5
		c-2.6,5.5-6.3,9.7-10.9,12.6c-4.7,2.9-10,4.3-15.9,4.3C301.8,470.1,296.4,468.7,291.8,465.8z M315.7,449c2-3.2,3-8.3,3-15.3
		s-1-12.1-3-15.4c-2-3.2-4.6-4.9-8-4.9c-3.4,0-6.1,1.6-8,4.9c-2,3.2-3,8.4-3,15.4s1,12.1,3,15.3c2,3.2,4.6,4.8,8,4.8
		C311.1,453.9,313.7,452.3,315.7,449z"/>
	<path class="st5" d="M397.3,441h-16.9v16.5H365V441h-17v-14.6h17v-16.5h15.4v16.5h16.9V441z"/>
</g>
<g>
	<path class="st5" d="M223.7,498.4h-7.3l-1.6,3.5h-1l5.8-12.6h0.9l5.8,12.6h-1L223.7,498.4z M223.3,497.6l-3.3-7.3l-3.3,7.3H223.3z"
		/>
	<path class="st5" d="M229.5,501.4c-0.7-0.4-1.3-1-1.7-1.7c-0.4-0.7-0.6-1.5-0.6-2.5c0-0.9,0.2-1.7,0.6-2.5c0.4-0.7,1-1.3,1.7-1.7
		c0.7-0.4,1.5-0.6,2.4-0.6c0.8,0,1.4,0.1,2.1,0.4c0.6,0.3,1.1,0.7,1.5,1.3l-0.7,0.5c-0.3-0.5-0.8-0.8-1.3-1.1
		c-0.5-0.2-1-0.4-1.6-0.4c-0.7,0-1.4,0.2-2,0.5s-1,0.8-1.4,1.4c-0.3,0.6-0.5,1.3-0.5,2.1c0,0.8,0.2,1.5,0.5,2.1
		c0.3,0.6,0.8,1.1,1.4,1.4c0.6,0.3,1.2,0.5,2,0.5c0.6,0,1.1-0.1,1.6-0.4c0.5-0.2,0.9-0.6,1.3-1.1l0.7,0.5c-0.4,0.6-0.9,1-1.5,1.3
		s-1.3,0.4-2.1,0.4C231,502,230.2,501.8,229.5,501.4z"/>
	<path class="st5" d="M244,493.3c0.6,0.6,0.9,1.5,0.9,2.6v6h-0.9v-1.7c-0.3,0.6-0.7,1-1.3,1.3c-0.6,0.3-1.3,0.5-2.1,0.5
		c-1,0-1.9-0.2-2.5-0.7c-0.6-0.5-0.9-1.1-0.9-1.9c0-0.8,0.3-1.4,0.8-1.9c0.6-0.5,1.4-0.7,2.7-0.7h3.2v-0.8c0-0.9-0.2-1.5-0.7-2
		s-1.2-0.7-2.1-0.7c-0.6,0-1.2,0.1-1.8,0.3c-0.6,0.2-1.1,0.5-1.4,0.9l-0.5-0.6c0.5-0.4,1-0.7,1.7-1c0.7-0.2,1.4-0.4,2.1-0.4
		C242.5,492.4,243.4,492.7,244,493.3z M242.8,500.7c0.5-0.4,1-0.9,1.2-1.6v-1.8h-3.2c-0.9,0-1.6,0.2-2,0.5s-0.6,0.8-0.6,1.4
		c0,0.6,0.2,1.1,0.7,1.4c0.5,0.4,1.1,0.5,1.9,0.5C241.6,501.2,242.3,501.1,242.8,500.7z"/>
	<path class="st5" d="M257,488.5v13.4h-0.9v-2.2c-0.4,0.7-0.9,1.3-1.6,1.7c-0.7,0.4-1.4,0.6-2.3,0.6c-0.9,0-1.7-0.2-2.4-0.6
		s-1.3-1-1.7-1.7c-0.4-0.7-0.6-1.5-0.6-2.5c0-0.9,0.2-1.7,0.6-2.5s1-1.3,1.7-1.7c0.7-0.4,1.5-0.6,2.4-0.6c0.8,0,1.6,0.2,2.3,0.6
		c0.7,0.4,1.2,0.9,1.6,1.7v-6.1H257z M254.3,500.7c0.6-0.3,1-0.8,1.4-1.4c0.3-0.6,0.5-1.3,0.5-2.1c0-0.8-0.2-1.5-0.5-2.1
		c-0.3-0.6-0.8-1.1-1.4-1.4c-0.6-0.3-1.2-0.5-1.9-0.5c-0.7,0-1.4,0.2-1.9,0.5c-0.6,0.3-1,0.8-1.4,1.4c-0.3,0.6-0.5,1.3-0.5,2.1
		c0,0.8,0.2,1.5,0.5,2.1c0.3,0.6,0.8,1.1,1.4,1.4c0.6,0.3,1.2,0.5,1.9,0.5C253.1,501.2,253.7,501,254.3,500.7z"/>
	<path class="st5" d="M268.8,497.4h-8.1c0,0.7,0.2,1.4,0.6,2c0.3,0.6,0.8,1,1.4,1.3c0.6,0.3,1.3,0.5,2,0.5c0.6,0,1.2-0.1,1.7-0.3
		c0.5-0.2,1-0.5,1.3-1l0.5,0.6c-0.4,0.5-0.9,0.9-1.5,1.1c-0.6,0.3-1.3,0.4-2,0.4c-0.9,0-1.8-0.2-2.5-0.6c-0.7-0.4-1.3-1-1.7-1.7
		c-0.4-0.7-0.6-1.5-0.6-2.5c0-0.9,0.2-1.7,0.6-2.5c0.4-0.7,0.9-1.3,1.6-1.7c0.7-0.4,1.5-0.6,2.3-0.6s1.6,0.2,2.3,0.6
		c0.7,0.4,1.2,1,1.6,1.7c0.4,0.7,0.6,1.5,0.6,2.4L268.8,497.4z M262.5,493.7c-0.5,0.3-1,0.7-1.3,1.2c-0.3,0.5-0.5,1.1-0.5,1.8h7.2
		c0-0.7-0.2-1.3-0.5-1.8c-0.3-0.5-0.8-0.9-1.3-1.2c-0.5-0.3-1.1-0.5-1.8-0.5S263,493.4,262.5,493.7z"/>
	<path class="st5" d="M286,493.5c0.7,0.7,1,1.7,1,3v5.5h-0.9v-5.4c0-1.1-0.3-1.9-0.8-2.4c-0.5-0.6-1.2-0.8-2.2-0.8
		c-1.1,0-1.9,0.3-2.5,1s-0.9,1.5-0.9,2.7v5h-0.9v-5.4c0-1.1-0.3-1.9-0.8-2.4c-0.5-0.6-1.2-0.8-2.2-0.8c-1.1,0-1.9,0.3-2.5,1
		s-0.9,1.5-0.9,2.7v5h-0.9v-9.4h0.9v2c0.3-0.7,0.8-1.2,1.4-1.5c0.6-0.4,1.4-0.5,2.2-0.5s1.6,0.2,2.2,0.6c0.6,0.4,1,0.9,1.3,1.7
		c0.3-0.7,0.8-1.2,1.5-1.7c0.7-0.4,1.4-0.6,2.3-0.6C284.4,492.4,285.3,492.8,286,493.5z"/>
	<path class="st5" d="M290.6,490c-0.1-0.1-0.2-0.3-0.2-0.5c0-0.2,0.1-0.4,0.2-0.5c0.1-0.1,0.3-0.2,0.5-0.2s0.4,0.1,0.5,0.2
		c0.1,0.1,0.2,0.3,0.2,0.5s-0.1,0.4-0.2,0.5c-0.1,0.1-0.3,0.2-0.5,0.2S290.8,490.2,290.6,490z M290.7,492.5h0.9v9.4h-0.9V492.5z"/>
	<path class="st5" d="M296.7,501.4c-0.7-0.4-1.3-1-1.7-1.7c-0.4-0.7-0.6-1.5-0.6-2.5c0-0.9,0.2-1.7,0.6-2.5c0.4-0.7,1-1.3,1.7-1.7
		c0.7-0.4,1.5-0.6,2.4-0.6c0.8,0,1.4,0.1,2.1,0.4c0.6,0.3,1.1,0.7,1.5,1.3l-0.7,0.5c-0.3-0.5-0.8-0.8-1.3-1.1
		c-0.5-0.2-1-0.4-1.6-0.4c-0.7,0-1.4,0.2-2,0.5s-1,0.8-1.4,1.4c-0.3,0.6-0.5,1.3-0.5,2.1c0,0.8,0.2,1.5,0.5,2.1
		c0.3,0.6,0.8,1.1,1.4,1.4c0.6,0.3,1.2,0.5,2,0.5c0.6,0,1.1-0.1,1.6-0.4c0.5-0.2,0.9-0.6,1.3-1.1l0.7,0.5c-0.4,0.6-0.9,1-1.5,1.3
		s-1.3,0.4-2.1,0.4C298.2,502,297.4,501.8,296.7,501.4z"/>
	<path class="st5" d="M310.3,489.3h5c1.3,0,2.5,0.3,3.5,0.8c1,0.5,1.8,1.3,2.4,2.2c0.6,1,0.8,2,0.8,3.2s-0.3,2.3-0.8,3.2
		c-0.6,1-1.4,1.7-2.4,2.2c-1,0.5-2.2,0.8-3.5,0.8h-5V489.3z M315.2,501.1c1.2,0,2.2-0.2,3.1-0.7c0.9-0.5,1.6-1.1,2.1-1.9
		c0.5-0.8,0.7-1.8,0.7-2.8s-0.2-2-0.7-2.8c-0.5-0.8-1.2-1.5-2.1-1.9c-0.9-0.5-1.9-0.7-3.1-0.7h-4v10.9H315.2z"/>
	<path class="st5" d="M324.8,490c-0.1-0.1-0.2-0.3-0.2-0.5c0-0.2,0.1-0.4,0.2-0.5c0.1-0.1,0.3-0.2,0.5-0.2s0.4,0.1,0.5,0.2
		c0.1,0.1,0.2,0.3,0.2,0.5s-0.1,0.4-0.2,0.5c-0.1,0.1-0.3,0.2-0.5,0.2S325,490.2,324.8,490z M324.9,492.5h0.9v9.4h-0.9V492.5z"/>
	<path class="st5" d="M329.8,501.6c-0.7-0.2-1.2-0.5-1.6-0.9l0.4-0.7c0.4,0.3,0.9,0.6,1.5,0.8s1.2,0.3,1.9,0.3
		c0.9,0,1.6-0.2,2.1-0.5c0.5-0.3,0.7-0.7,0.7-1.3c0-0.4-0.1-0.7-0.4-0.9c-0.2-0.2-0.5-0.4-0.9-0.5c-0.4-0.1-0.9-0.2-1.5-0.3
		c-0.7-0.1-1.3-0.3-1.8-0.4c-0.5-0.2-0.8-0.4-1.2-0.8c-0.3-0.3-0.5-0.8-0.5-1.4c0-0.7,0.3-1.4,0.9-1.8c0.6-0.5,1.5-0.7,2.6-0.7
		c0.6,0,1.2,0.1,1.8,0.3s1.1,0.4,1.4,0.7l-0.4,0.7c-0.4-0.3-0.8-0.5-1.3-0.6s-1-0.2-1.5-0.2c-0.9,0-1.5,0.2-2,0.5
		c-0.4,0.3-0.7,0.8-0.7,1.3c0,0.4,0.1,0.7,0.4,1c0.3,0.2,0.6,0.4,0.9,0.5c0.4,0.1,0.9,0.2,1.5,0.4c0.7,0.1,1.3,0.3,1.8,0.4
		c0.5,0.2,0.8,0.4,1.1,0.7s0.5,0.8,0.5,1.4c0,0.8-0.3,1.4-1,1.9s-1.6,0.7-2.7,0.7C331.2,502,330.5,501.9,329.8,501.6z"/>
	<path class="st5" d="M339.5,501.4c-0.7-0.4-1.3-1-1.7-1.7c-0.4-0.7-0.6-1.5-0.6-2.5c0-0.9,0.2-1.7,0.6-2.5c0.4-0.7,1-1.3,1.7-1.7
		c0.7-0.4,1.5-0.6,2.4-0.6c0.8,0,1.4,0.1,2.1,0.4c0.6,0.3,1.1,0.7,1.5,1.3l-0.7,0.5c-0.3-0.5-0.8-0.8-1.3-1.1
		c-0.5-0.2-1-0.4-1.6-0.4c-0.7,0-1.4,0.2-2,0.5s-1,0.8-1.4,1.4c-0.3,0.6-0.5,1.3-0.5,2.1c0,0.8,0.2,1.5,0.5,2.1
		c0.3,0.6,0.8,1.1,1.4,1.4c0.6,0.3,1.2,0.5,2,0.5c0.6,0,1.1-0.1,1.6-0.4c0.5-0.2,0.9-0.6,1.3-1.1l0.7,0.5c-0.4,0.6-0.9,1-1.5,1.3
		s-1.3,0.4-2.1,0.4C341,502,340.2,501.8,339.5,501.4z"/>
	<path class="st5" d="M348,490c-0.1-0.1-0.2-0.3-0.2-0.5c0-0.2,0.1-0.4,0.2-0.5c0.1-0.1,0.3-0.2,0.5-0.2s0.4,0.1,0.5,0.2
		c0.1,0.1,0.2,0.3,0.2,0.5s-0.1,0.4-0.2,0.5c-0.1,0.1-0.3,0.2-0.5,0.2S348.1,490.2,348,490z M348,492.5h0.9v9.4H348V492.5z"/>
	<path class="st5" d="M359.8,493c0.7,0.4,1.3,1,1.7,1.7c0.4,0.7,0.6,1.5,0.6,2.5c0,0.9-0.2,1.7-0.6,2.5c-0.4,0.7-1,1.3-1.7,1.7
		c-0.7,0.4-1.5,0.6-2.4,0.6c-0.8,0-1.6-0.2-2.2-0.6c-0.7-0.4-1.2-0.9-1.6-1.6v5.6h-0.9v-12.9h0.9v2.2c0.4-0.7,0.9-1.3,1.6-1.7
		c0.7-0.4,1.4-0.6,2.3-0.6C358.3,492.4,359.1,492.6,359.8,493z M359.3,500.7c0.6-0.3,1-0.8,1.4-1.4c0.3-0.6,0.5-1.3,0.5-2.1
		c0-0.8-0.2-1.5-0.5-2.1c-0.3-0.6-0.8-1.1-1.4-1.4c-0.6-0.3-1.2-0.5-1.9-0.5c-0.7,0-1.4,0.2-1.9,0.5s-1,0.8-1.3,1.4
		c-0.3,0.6-0.5,1.3-0.5,2.1c0,0.8,0.2,1.5,0.5,2.1c0.3,0.6,0.8,1.1,1.3,1.4s1.2,0.5,1.9,0.5C358.1,501.2,358.8,501,359.3,500.7z"/>
	<path class="st5" d="M364.9,488.5h0.9v13.4h-0.9V488.5z"/>
	<path class="st5" d="M369.5,490c-0.1-0.1-0.2-0.3-0.2-0.5c0-0.2,0.1-0.4,0.2-0.5c0.1-0.1,0.3-0.2,0.5-0.2s0.4,0.1,0.5,0.2
		c0.1,0.1,0.2,0.3,0.2,0.5s-0.1,0.4-0.2,0.5c-0.1,0.1-0.3,0.2-0.5,0.2S369.6,490.2,369.5,490z M369.6,492.5h0.9v9.4h-0.9V492.5z"/>
	<path class="st5" d="M381.6,493.5c0.7,0.7,1,1.7,1,3v5.5h-0.9v-5.4c0-1.1-0.3-1.9-0.8-2.4c-0.5-0.6-1.3-0.8-2.2-0.8
		c-1.1,0-2,0.3-2.6,1c-0.6,0.7-1,1.5-1,2.7v5h-0.9v-9.4h0.9v2c0.3-0.7,0.8-1.2,1.4-1.5c0.6-0.4,1.4-0.6,2.3-0.6
		C380,492.4,381,492.8,381.6,493.5z"/>
	<path class="st5" d="M394.3,497.4h-8.1c0,0.7,0.2,1.4,0.6,2c0.3,0.6,0.8,1,1.4,1.3c0.6,0.3,1.3,0.5,2,0.5c0.6,0,1.2-0.1,1.7-0.3
		c0.5-0.2,1-0.5,1.3-1l0.5,0.6c-0.4,0.5-0.9,0.9-1.5,1.1c-0.6,0.3-1.3,0.4-2,0.4c-0.9,0-1.8-0.2-2.5-0.6c-0.7-0.4-1.3-1-1.7-1.7
		c-0.4-0.7-0.6-1.5-0.6-2.5c0-0.9,0.2-1.7,0.6-2.5c0.4-0.7,0.9-1.3,1.6-1.7c0.7-0.4,1.5-0.6,2.3-0.6s1.6,0.2,2.3,0.6
		c0.7,0.4,1.2,1,1.6,1.7c0.4,0.7,0.6,1.5,0.6,2.4L394.3,497.4z M388.1,493.7c-0.5,0.3-1,0.7-1.3,1.2c-0.3,0.5-0.5,1.1-0.5,1.8h7.2
		c0-0.7-0.2-1.3-0.5-1.8c-0.3-0.5-0.8-0.9-1.3-1.2c-0.5-0.3-1.1-0.5-1.8-0.5S388.6,493.4,388.1,493.7z"/>
	<path class="st5" d="M397.3,501.6c-0.7-0.2-1.2-0.5-1.6-0.9l0.4-0.7c0.4,0.3,0.9,0.6,1.5,0.8s1.2,0.3,1.9,0.3
		c0.9,0,1.6-0.2,2.1-0.5c0.5-0.3,0.7-0.7,0.7-1.3c0-0.4-0.1-0.7-0.4-0.9c-0.2-0.2-0.5-0.4-0.9-0.5c-0.4-0.1-0.9-0.2-1.5-0.3
		c-0.7-0.1-1.3-0.3-1.8-0.4c-0.5-0.2-0.8-0.4-1.2-0.8c-0.3-0.3-0.5-0.8-0.5-1.4c0-0.7,0.3-1.4,0.9-1.8c0.6-0.5,1.5-0.7,2.6-0.7
		c0.6,0,1.2,0.1,1.8,0.3s1.1,0.4,1.4,0.7l-0.4,0.7c-0.4-0.3-0.8-0.5-1.3-0.6s-1-0.2-1.5-0.2c-0.9,0-1.5,0.2-2,0.5
		c-0.4,0.3-0.7,0.8-0.7,1.3c0,0.4,0.1,0.7,0.4,1c0.3,0.2,0.6,0.4,0.9,0.5c0.4,0.1,0.9,0.2,1.5,0.4c0.7,0.1,1.3,0.3,1.8,0.4
		c0.5,0.2,0.8,0.4,1.1,0.7s0.5,0.8,0.5,1.4c0,0.8-0.3,1.4-1,1.9s-1.6,0.7-2.7,0.7C398.7,502,398,501.9,397.3,501.6z"/>
	<path class="st5" d="M262.4,523.5l-3-4.2c-0.4,0.1-0.9,0.1-1.2,0.1h-3.6v4.1h-0.9v-12.6h4.5c1.6,0,2.8,0.4,3.7,1.1s1.4,1.8,1.4,3.1
		c0,1-0.3,1.8-0.8,2.5c-0.5,0.7-1.2,1.2-2.2,1.4l3.1,4.4H262.4z M258.2,518.6c1.3,0,2.4-0.3,3.1-0.9c0.7-0.6,1.1-1.4,1.1-2.5
		s-0.4-1.9-1.1-2.5s-1.7-0.9-3.1-0.9h-3.6v6.8H258.2z"/>
	<path class="st5" d="M274.2,519h-8.1c0,0.7,0.2,1.4,0.6,2c0.3,0.6,0.8,1,1.4,1.3c0.6,0.3,1.3,0.5,2,0.5c0.6,0,1.2-0.1,1.7-0.3
		c0.5-0.2,1-0.5,1.3-1l0.5,0.6c-0.4,0.5-0.9,0.9-1.5,1.1c-0.6,0.3-1.3,0.4-2,0.4c-0.9,0-1.8-0.2-2.5-0.6c-0.7-0.4-1.3-1-1.7-1.7
		c-0.4-0.7-0.6-1.5-0.6-2.5c0-0.9,0.2-1.7,0.6-2.5c0.4-0.7,0.9-1.3,1.6-1.7c0.7-0.4,1.5-0.6,2.3-0.6s1.6,0.2,2.3,0.6
		c0.7,0.4,1.2,1,1.6,1.7c0.4,0.7,0.6,1.5,0.6,2.4L274.2,519z M268,515.3c-0.5,0.3-1,0.7-1.3,1.2c-0.3,0.5-0.5,1.1-0.5,1.8h7.2
		c0-0.7-0.2-1.3-0.5-1.8c-0.3-0.5-0.8-0.9-1.3-1.2c-0.5-0.3-1.1-0.5-1.8-0.5S268.5,515,268,515.3z"/>
	<path class="st5" d="M284.1,514.6c0.7,0.4,1.3,1,1.7,1.7c0.4,0.7,0.6,1.5,0.6,2.5c0,0.9-0.2,1.7-0.6,2.5c-0.4,0.7-1,1.3-1.7,1.7
		c-0.7,0.4-1.5,0.6-2.4,0.6c-0.8,0-1.6-0.2-2.2-0.6c-0.7-0.4-1.2-0.9-1.6-1.6v5.6h-0.9v-12.9h0.9v2.2c0.4-0.7,0.9-1.3,1.6-1.7
		c0.7-0.4,1.4-0.6,2.3-0.6C282.6,514,283.4,514.2,284.1,514.6z M283.7,522.3c0.6-0.3,1-0.8,1.4-1.4c0.3-0.6,0.5-1.3,0.5-2.1
		c0-0.8-0.2-1.5-0.5-2.1c-0.3-0.6-0.8-1.1-1.4-1.4c-0.6-0.3-1.2-0.5-1.9-0.5c-0.7,0-1.4,0.2-1.9,0.5s-1,0.8-1.3,1.4
		c-0.3,0.6-0.5,1.3-0.5,2.1c0,0.8,0.2,1.5,0.5,2.1c0.3,0.6,0.8,1.1,1.3,1.4s1.2,0.5,1.9,0.5C282.4,522.8,283.1,522.6,283.7,522.3z"
		/>
	<path class="st5" d="M291.4,514.6c0.6-0.4,1.4-0.5,2.2-0.5v0.9l-0.2,0c-1,0-1.9,0.3-2.4,1s-0.9,1.6-0.9,2.7v4.9h-0.9v-9.4h0.9v2.1
		C290.4,515.5,290.8,515,291.4,514.6z"/>
	<path class="st5" d="M304,519h-8.1c0,0.7,0.2,1.4,0.6,2c0.3,0.6,0.8,1,1.4,1.3c0.6,0.3,1.3,0.5,2,0.5c0.6,0,1.2-0.1,1.7-0.3
		c0.5-0.2,1-0.5,1.3-1l0.5,0.6c-0.4,0.5-0.9,0.9-1.5,1.1c-0.6,0.3-1.3,0.4-2,0.4c-0.9,0-1.8-0.2-2.5-0.6c-0.7-0.4-1.3-1-1.7-1.7
		c-0.4-0.7-0.6-1.5-0.6-2.5c0-0.9,0.2-1.7,0.6-2.5c0.4-0.7,0.9-1.3,1.6-1.7c0.7-0.4,1.5-0.6,2.3-0.6s1.6,0.2,2.3,0.6
		c0.7,0.4,1.2,1,1.6,1.7c0.4,0.7,0.6,1.5,0.6,2.4L304,519z M297.7,515.3c-0.5,0.3-1,0.7-1.3,1.2c-0.3,0.5-0.5,1.1-0.5,1.8h7.2
		c0-0.7-0.2-1.3-0.5-1.8c-0.3-0.5-0.8-0.9-1.3-1.2c-0.5-0.3-1.1-0.5-1.8-0.5S298.3,515,297.7,515.3z"/>
	<path class="st5" d="M307,523.2c-0.7-0.2-1.2-0.5-1.6-0.9l0.4-0.7c0.4,0.3,0.9,0.6,1.5,0.8s1.2,0.3,1.9,0.3c0.9,0,1.6-0.2,2.1-0.5
		c0.5-0.3,0.7-0.7,0.7-1.3c0-0.4-0.1-0.7-0.4-0.9c-0.2-0.2-0.5-0.4-0.9-0.5c-0.4-0.1-0.9-0.2-1.5-0.3c-0.7-0.1-1.3-0.3-1.8-0.4
		c-0.5-0.2-0.8-0.4-1.2-0.8c-0.3-0.3-0.5-0.8-0.5-1.4c0-0.7,0.3-1.4,0.9-1.8c0.6-0.5,1.5-0.7,2.6-0.7c0.6,0,1.2,0.1,1.8,0.3
		s1.1,0.4,1.4,0.7l-0.4,0.7c-0.4-0.3-0.8-0.5-1.3-0.6s-1-0.2-1.5-0.2c-0.9,0-1.5,0.2-2,0.5c-0.4,0.3-0.7,0.8-0.7,1.3
		c0,0.4,0.1,0.7,0.4,1c0.3,0.2,0.6,0.4,0.9,0.5c0.4,0.1,0.9,0.2,1.5,0.4c0.7,0.1,1.3,0.3,1.8,0.4c0.5,0.2,0.8,0.4,1.1,0.7
		s0.5,0.8,0.5,1.4c0,0.8-0.3,1.4-1,1.9s-1.6,0.7-2.7,0.7C308.4,523.6,307.7,523.5,307,523.2z"/>
	<path class="st5" d="M323.3,519h-8.1c0,0.7,0.2,1.4,0.6,2c0.3,0.6,0.8,1,1.4,1.3c0.6,0.3,1.3,0.5,2,0.5c0.6,0,1.2-0.1,1.7-0.3
		c0.5-0.2,1-0.5,1.3-1l0.5,0.6c-0.4,0.5-0.9,0.9-1.5,1.1c-0.6,0.3-1.3,0.4-2,0.4c-0.9,0-1.8-0.2-2.5-0.6c-0.7-0.4-1.3-1-1.7-1.7
		c-0.4-0.7-0.6-1.5-0.6-2.5c0-0.9,0.2-1.7,0.6-2.5c0.4-0.7,0.9-1.3,1.6-1.7c0.7-0.4,1.5-0.6,2.3-0.6s1.6,0.2,2.3,0.6
		c0.7,0.4,1.2,1,1.6,1.7c0.4,0.7,0.6,1.5,0.6,2.4L323.3,519z M317.1,515.3c-0.5,0.3-1,0.7-1.3,1.2c-0.3,0.5-0.5,1.1-0.5,1.8h7.2
		c0-0.7-0.2-1.3-0.5-1.8c-0.3-0.5-0.8-0.9-1.3-1.2c-0.5-0.3-1.1-0.5-1.8-0.5S317.6,515,317.1,515.3z"/>
	<path class="st5" d="M333.5,515.1c0.7,0.7,1,1.7,1,3v5.5h-0.9v-5.4c0-1.1-0.3-1.9-0.8-2.4c-0.5-0.6-1.3-0.8-2.2-0.8
		c-1.1,0-2,0.3-2.6,1c-0.6,0.7-1,1.5-1,2.7v5h-0.9v-9.4h0.9v2c0.3-0.7,0.8-1.2,1.4-1.5c0.6-0.4,1.4-0.6,2.3-0.6
		C331.9,514,332.8,514.4,333.5,515.1z"/>
	<path class="st5" d="M342.9,522.9c-0.2,0.2-0.5,0.4-0.9,0.5c-0.3,0.1-0.7,0.2-1.1,0.2c-0.8,0-1.4-0.2-1.9-0.7
		c-0.4-0.5-0.7-1.1-0.7-1.9v-6.1h-1.7v-0.8h1.7v-2.1h0.9v2.1h3v0.8h-3v6c0,0.6,0.1,1.1,0.4,1.4c0.3,0.3,0.7,0.5,1.3,0.5
		c0.6,0,1.1-0.2,1.5-0.5L342.9,522.9z"/>
	<path class="st5" d="M353,519h-8.1c0,0.7,0.2,1.4,0.6,2c0.3,0.6,0.8,1,1.4,1.3c0.6,0.3,1.3,0.5,2,0.5c0.6,0,1.2-0.1,1.7-0.3
		c0.5-0.2,1-0.5,1.3-1l0.5,0.6c-0.4,0.5-0.9,0.9-1.5,1.1c-0.6,0.3-1.3,0.4-2,0.4c-0.9,0-1.8-0.2-2.5-0.6c-0.7-0.4-1.3-1-1.7-1.7
		c-0.4-0.7-0.6-1.5-0.6-2.5c0-0.9,0.2-1.7,0.6-2.5c0.4-0.7,0.9-1.3,1.6-1.7c0.7-0.4,1.5-0.6,2.3-0.6s1.6,0.2,2.3,0.6
		c0.7,0.4,1.2,1,1.6,1.7c0.4,0.7,0.6,1.5,0.6,2.4L353,519z M346.8,515.3c-0.5,0.3-1,0.7-1.3,1.2c-0.3,0.5-0.5,1.1-0.5,1.8h7.2
		c0-0.7-0.2-1.3-0.5-1.8c-0.3-0.5-0.8-0.9-1.3-1.2c-0.5-0.3-1.1-0.5-1.8-0.5S347.3,515,346.8,515.3z"/>
	<path class="st5" d="M364.2,510.1v13.4h-0.9v-2.2c-0.4,0.7-0.9,1.3-1.6,1.7c-0.7,0.4-1.4,0.6-2.3,0.6c-0.9,0-1.7-0.2-2.4-0.6
		s-1.3-1-1.7-1.7c-0.4-0.7-0.6-1.5-0.6-2.5c0-0.9,0.2-1.7,0.6-2.5s1-1.3,1.7-1.7c0.7-0.4,1.5-0.6,2.4-0.6c0.8,0,1.6,0.2,2.3,0.6
		c0.7,0.4,1.2,0.9,1.6,1.7v-6.1H364.2z M361.4,522.3c0.6-0.3,1-0.8,1.4-1.4c0.3-0.6,0.5-1.3,0.5-2.1c0-0.8-0.2-1.5-0.5-2.1
		c-0.3-0.6-0.8-1.1-1.4-1.4c-0.6-0.3-1.2-0.5-1.9-0.5c-0.7,0-1.4,0.2-1.9,0.5c-0.6,0.3-1,0.8-1.4,1.4c-0.3,0.6-0.5,1.3-0.5,2.1
		c0,0.8,0.2,1.5,0.5,2.1c0.3,0.6,0.8,1.1,1.4,1.4c0.6,0.3,1.2,0.5,1.9,0.5C360.2,522.8,360.9,522.6,361.4,522.3z"/>
</g>
<g>
	<path class="st5" d="M574.2,433.8c3.1,3.6,4.7,7.9,4.7,13c0,4.1-1.1,8-3.3,11.5c-2.2,3.5-5.6,6.4-10.2,8.5
		c-4.6,2.2-10.2,3.2-17,3.2c-4.9,0-9.8-0.6-14.7-1.8c-4.8-1.2-9-2.9-12.5-5.1l7.2-14.9c2.7,1.9,5.8,3.3,9.2,4.3s6.8,1.5,10.2,1.5
		c3.4,0,6.1-0.6,8.1-1.9c2-1.3,3-3.1,3-5.4c0-4.5-3.6-6.8-10.7-6.8h-8.3v-12.5l12.5-13.5h-27.6v-15.3h50.6v12.4l-14.5,15.6
		C566.6,427.9,571.1,430.3,574.2,433.8z"/>
	<path class="st5" d="M651.2,455.3h-10.4v13.4h-19.3v-13.4h-37v-12.9l31.4-43.7h20.5l-28.5,40.9h14.2v-11.9h18.7v11.9h10.4V455.3z"
		/>
	<path class="st5" d="M656,431.4c-3.3-3.5-5-8.2-5-14.2c0-3.9,0.8-7.4,2.3-10.3c1.5-2.9,3.6-5.2,6.3-6.8c2.7-1.6,5.8-2.3,9.2-2.3
		c5.3,0,9.7,1.8,13,5.2c3.3,3.5,5,8.2,5,14.2c0,6-1.7,10.7-5,14.2c-3.3,3.5-7.7,5.2-13,5.2C663.6,436.6,659.3,434.9,656,431.4z
		 M710.3,398.7h14.4l-47.8,70h-14.4L710.3,398.7z M673.2,424.7c1.1-1.6,1.6-4.1,1.6-7.5c0-3.4-0.5-5.9-1.6-7.5
		c-1.1-1.6-2.5-2.4-4.3-2.4c-1.7,0-3.2,0.8-4.2,2.4c-1.1,1.6-1.7,4.1-1.7,7.5s0.6,5.8,1.7,7.4c1.1,1.6,2.5,2.5,4.2,2.5
		C670.7,427.1,672.1,426.3,673.2,424.7z M705.3,464.4c-3.3-3.5-4.9-8.2-4.9-14.2c0-5.9,1.7-10.7,5-14.2c3.3-3.5,7.6-5.2,12.9-5.2
		c5.3,0,9.7,1.8,13,5.2c3.3,3.5,5,8.2,5,14.2c0,6-1.7,10.7-5,14.2c-3.3,3.5-7.7,5.2-13,5.2C713,469.6,708.7,467.9,705.3,464.4z
		 M722.6,457.7c1.1-1.6,1.6-4.1,1.6-7.5c0-3.4-0.5-5.9-1.6-7.5c-1.1-1.6-2.5-2.4-4.3-2.4c-1.8,0-3.2,0.8-4.3,2.4
		c-1.1,1.6-1.6,4.1-1.6,7.5c0,3.4,0.5,5.9,1.6,7.5c1.1,1.6,2.5,2.4,4.3,2.4C720.1,460.1,721.5,459.3,722.6,457.7z"/>
</g>
<g>
	<path class="st5" d="M550.7,495.7h0.9v4.7c-0.6,0.5-1.2,0.9-2,1.2c-0.8,0.3-1.6,0.4-2.5,0.4c-1.2,0-2.4-0.3-3.4-0.8
		c-1-0.6-1.8-1.3-2.4-2.3c-0.6-1-0.9-2.1-0.9-3.3s0.3-2.3,0.9-3.3c0.6-1,1.4-1.7,2.4-2.3c1-0.6,2.1-0.8,3.4-0.8
		c0.9,0,1.8,0.1,2.5,0.4s1.4,0.7,2,1.3l-0.6,0.6c-0.5-0.5-1.1-0.9-1.8-1.1c-0.7-0.2-1.4-0.4-2.2-0.4c-1.1,0-2.1,0.2-2.9,0.7
		c-0.9,0.5-1.6,1.1-2,2c-0.5,0.8-0.7,1.8-0.7,2.8c0,1,0.2,2,0.7,2.8c0.5,0.8,1.2,1.5,2,2c0.9,0.5,1.8,0.7,2.9,0.7
		c1.4,0,2.6-0.4,3.6-1.2V495.7z"/>
	<path class="st5" d="M557.6,493c0.6-0.4,1.4-0.5,2.2-0.5v0.9l-0.2,0c-1,0-1.9,0.3-2.4,1s-0.9,1.6-0.9,2.7v4.9h-0.9v-9.4h0.9v2.1
		C556.5,493.9,556.9,493.4,557.6,493z"/>
	<path class="st5" d="M567.4,493.3c0.6,0.6,0.9,1.5,0.9,2.6v6h-0.9v-1.7c-0.3,0.6-0.7,1-1.3,1.3c-0.6,0.3-1.3,0.5-2.1,0.5
		c-1,0-1.9-0.2-2.5-0.7s-0.9-1.1-0.9-1.9c0-0.8,0.3-1.4,0.8-1.9c0.6-0.5,1.4-0.7,2.7-0.7h3.2v-0.8c0-0.9-0.2-1.5-0.7-2
		s-1.2-0.7-2.1-0.7c-0.6,0-1.2,0.1-1.8,0.3c-0.6,0.2-1.1,0.5-1.4,0.9l-0.4-0.6c0.5-0.4,1-0.7,1.7-1c0.7-0.2,1.3-0.4,2.1-0.4
		C565.9,492.4,566.8,492.7,567.4,493.3z M566.2,500.7c0.5-0.4,1-0.9,1.2-1.6v-1.8h-3.2c-0.9,0-1.6,0.2-2,0.5s-0.6,0.8-0.6,1.4
		c0,0.6,0.2,1.1,0.7,1.4c0.5,0.4,1.1,0.5,1.9,0.5C565,501.2,565.7,501.1,566.2,500.7z"/>
	<path class="st5" d="M580.4,488.5v13.4h-0.9v-2.2c-0.4,0.7-0.9,1.3-1.6,1.7c-0.7,0.4-1.4,0.6-2.3,0.6c-0.9,0-1.7-0.2-2.4-0.6
		s-1.3-1-1.7-1.7c-0.4-0.7-0.6-1.5-0.6-2.5c0-0.9,0.2-1.7,0.6-2.5s1-1.3,1.7-1.7c0.7-0.4,1.5-0.6,2.4-0.6c0.8,0,1.6,0.2,2.3,0.6
		c0.7,0.4,1.2,0.9,1.6,1.7v-6.1H580.4z M577.7,500.7c0.6-0.3,1-0.8,1.4-1.4c0.3-0.6,0.5-1.3,0.5-2.1c0-0.8-0.2-1.5-0.5-2.1
		c-0.3-0.6-0.8-1.1-1.4-1.4c-0.6-0.3-1.2-0.5-1.9-0.5c-0.7,0-1.4,0.2-1.9,0.5s-1,0.8-1.3,1.4c-0.3,0.6-0.5,1.3-0.5,2.1
		c0,0.8,0.2,1.5,0.5,2.1c0.3,0.6,0.8,1.1,1.3,1.4s1.2,0.5,1.9,0.5C576.5,501.2,577.1,501,577.7,500.7z"/>
	<path class="st5" d="M592.4,492.5v9.4h-0.9v-2c-0.3,0.7-0.8,1.2-1.4,1.5c-0.6,0.4-1.3,0.5-2.2,0.5c-1.2,0-2.2-0.3-2.9-1
		c-0.7-0.7-1-1.7-1-3v-5.5h0.9v5.4c0,1.1,0.3,1.9,0.8,2.4c0.5,0.6,1.3,0.8,2.3,0.8c1.1,0,1.9-0.3,2.5-1c0.6-0.7,0.9-1.5,0.9-2.7v-5
		H592.4z"/>
	<path class="st5" d="M602.1,493.3c0.6,0.6,0.9,1.5,0.9,2.6v6h-0.9v-1.7c-0.3,0.6-0.7,1-1.3,1.3c-0.6,0.3-1.3,0.5-2.1,0.5
		c-1,0-1.9-0.2-2.5-0.7s-0.9-1.1-0.9-1.9c0-0.8,0.3-1.4,0.8-1.9c0.6-0.5,1.4-0.7,2.7-0.7h3.2v-0.8c0-0.9-0.2-1.5-0.7-2
		s-1.2-0.7-2.1-0.7c-0.6,0-1.2,0.1-1.8,0.3c-0.6,0.2-1.1,0.5-1.4,0.9l-0.4-0.6c0.5-0.4,1-0.7,1.7-1c0.7-0.2,1.3-0.4,2.1-0.4
		C600.6,492.4,601.5,492.7,602.1,493.3z M600.9,500.7c0.5-0.4,1-0.9,1.2-1.6v-1.8h-3.2c-0.9,0-1.6,0.2-2,0.5s-0.6,0.8-0.6,1.4
		c0,0.6,0.2,1.1,0.7,1.4c0.5,0.4,1.1,0.5,1.9,0.5C599.7,501.2,600.4,501.1,600.9,500.7z"/>
	<path class="st5" d="M611.4,501.3c-0.2,0.2-0.5,0.4-0.9,0.5c-0.3,0.1-0.7,0.2-1.1,0.2c-0.8,0-1.4-0.2-1.9-0.7
		c-0.4-0.5-0.7-1.1-0.7-1.9v-6.1h-1.7v-0.8h1.7v-2.1h0.9v2.1h3v0.8h-3v6c0,0.6,0.1,1.1,0.4,1.4c0.3,0.3,0.7,0.5,1.3,0.5
		c0.6,0,1.1-0.2,1.5-0.5L611.4,501.3z"/>
	<path class="st5" d="M621.5,497.4h-8.1c0,0.7,0.2,1.4,0.6,2c0.3,0.6,0.8,1,1.4,1.3c0.6,0.3,1.3,0.5,2,0.5c0.6,0,1.2-0.1,1.7-0.3
		c0.5-0.2,1-0.5,1.3-1l0.5,0.6c-0.4,0.5-0.9,0.9-1.5,1.1c-0.6,0.3-1.3,0.4-2,0.4c-0.9,0-1.8-0.2-2.5-0.6c-0.7-0.4-1.3-1-1.7-1.7
		c-0.4-0.7-0.6-1.5-0.6-2.5c0-0.9,0.2-1.7,0.6-2.5c0.4-0.7,0.9-1.3,1.6-1.7c0.7-0.4,1.5-0.6,2.3-0.6c0.9,0,1.6,0.2,2.3,0.6
		c0.7,0.4,1.2,1,1.6,1.7c0.4,0.7,0.6,1.5,0.6,2.4L621.5,497.4z M615.3,493.7c-0.5,0.3-1,0.7-1.3,1.2c-0.3,0.5-0.5,1.1-0.5,1.8h7.2
		c0-0.7-0.2-1.3-0.5-1.8c-0.3-0.5-0.8-0.9-1.3-1.2c-0.5-0.3-1.1-0.5-1.8-0.5S615.8,493.4,615.3,493.7z"/>
	<path class="st5" d="M629.9,501.5c-0.8-0.3-1.5-0.7-2-1.2l0.4-0.7c0.4,0.5,1,0.8,1.8,1.1s1.5,0.4,2.4,0.4c1.2,0,2.1-0.2,2.7-0.7
		s0.9-1,0.9-1.8c0-0.6-0.2-1-0.5-1.4c-0.3-0.3-0.7-0.6-1.2-0.8c-0.5-0.2-1.1-0.4-1.9-0.6c-0.9-0.2-1.7-0.5-2.2-0.7
		c-0.6-0.2-1-0.5-1.4-1c-0.4-0.5-0.6-1.1-0.6-1.8c0-0.6,0.2-1.2,0.5-1.7c0.3-0.5,0.8-0.9,1.5-1.2c0.7-0.3,1.5-0.5,2.5-0.5
		c0.7,0,1.4,0.1,2.1,0.3s1.3,0.5,1.7,0.8l-0.3,0.7c-0.5-0.3-1.1-0.6-1.7-0.8c-0.6-0.2-1.2-0.3-1.8-0.3c-1.2,0-2,0.2-2.6,0.7
		c-0.6,0.5-0.9,1.1-0.9,1.8c0,0.6,0.2,1,0.5,1.4s0.7,0.6,1.2,0.8c0.5,0.2,1.1,0.4,2,0.6c0.9,0.2,1.7,0.5,2.2,0.7s1,0.5,1.4,1
		c0.4,0.4,0.6,1,0.6,1.8c0,0.6-0.2,1.2-0.5,1.7c-0.3,0.5-0.8,0.9-1.5,1.2c-0.7,0.3-1.5,0.5-2.5,0.5
		C631.6,502,630.7,501.8,629.9,501.5z"/>
	<path class="st5" d="M644.6,501.3c-0.2,0.2-0.5,0.4-0.9,0.5c-0.3,0.1-0.7,0.2-1.1,0.2c-0.8,0-1.4-0.2-1.9-0.7
		c-0.4-0.5-0.7-1.1-0.7-1.9v-6.1h-1.7v-0.8h1.7v-2.1h0.9v2.1h3v0.8h-3v6c0,0.6,0.1,1.1,0.4,1.4c0.3,0.3,0.7,0.5,1.3,0.5
		c0.6,0,1.1-0.2,1.5-0.5L644.6,501.3z"/>
	<path class="st5" d="M655.3,492.5v9.4h-0.9v-2c-0.3,0.7-0.8,1.2-1.4,1.5c-0.6,0.4-1.3,0.5-2.2,0.5c-1.2,0-2.2-0.3-2.9-1
		c-0.7-0.7-1-1.7-1-3v-5.5h0.9v5.4c0,1.1,0.3,1.9,0.8,2.4c0.5,0.6,1.3,0.8,2.3,0.8c1.1,0,1.9-0.3,2.5-1c0.6-0.7,0.9-1.5,0.9-2.7v-5
		H655.3z"/>
	<path class="st5" d="M667.5,488.5v13.4h-0.9v-2.2c-0.4,0.7-0.9,1.3-1.6,1.7c-0.7,0.4-1.4,0.6-2.3,0.6c-0.9,0-1.7-0.2-2.4-0.6
		c-0.7-0.4-1.3-1-1.7-1.7c-0.4-0.7-0.6-1.5-0.6-2.5c0-0.9,0.2-1.7,0.6-2.5c0.4-0.7,1-1.3,1.7-1.7c0.7-0.4,1.5-0.6,2.4-0.6
		c0.8,0,1.6,0.2,2.3,0.6c0.7,0.4,1.2,0.9,1.6,1.7v-6.1H667.5z M664.7,500.7c0.6-0.3,1-0.8,1.3-1.4c0.3-0.6,0.5-1.3,0.5-2.1
		c0-0.8-0.2-1.5-0.5-2.1c-0.3-0.6-0.8-1.1-1.3-1.4c-0.6-0.3-1.2-0.5-1.9-0.5c-0.7,0-1.4,0.2-1.9,0.5s-1,0.8-1.3,1.4
		c-0.3,0.6-0.5,1.3-0.5,2.1c0,0.8,0.2,1.5,0.5,2.1c0.3,0.6,0.8,1.1,1.3,1.4s1.2,0.5,1.9,0.5C663.5,501.2,664.1,501,664.7,500.7z"/>
	<path class="st5" d="M679.2,497.4h-8.1c0,0.7,0.2,1.4,0.6,2c0.3,0.6,0.8,1,1.4,1.3c0.6,0.3,1.3,0.5,2,0.5c0.6,0,1.2-0.1,1.7-0.3
		c0.5-0.2,1-0.5,1.3-1l0.5,0.6c-0.4,0.5-0.9,0.9-1.5,1.1c-0.6,0.3-1.3,0.4-2,0.4c-0.9,0-1.8-0.2-2.5-0.6c-0.7-0.4-1.3-1-1.7-1.7
		c-0.4-0.7-0.6-1.5-0.6-2.5c0-0.9,0.2-1.7,0.6-2.5c0.4-0.7,0.9-1.3,1.6-1.7c0.7-0.4,1.5-0.6,2.3-0.6c0.9,0,1.6,0.2,2.3,0.6
		c0.7,0.4,1.2,1,1.6,1.7c0.4,0.7,0.6,1.5,0.6,2.4L679.2,497.4z M673,493.7c-0.5,0.3-1,0.7-1.3,1.2c-0.3,0.5-0.5,1.1-0.5,1.8h7.2
		c0-0.7-0.2-1.3-0.5-1.8c-0.3-0.5-0.8-0.9-1.3-1.2c-0.5-0.3-1.1-0.5-1.8-0.5S673.5,493.4,673,493.7z"/>
	<path class="st5" d="M689.4,493.5c0.7,0.7,1,1.7,1,3v5.5h-0.9v-5.4c0-1.1-0.3-1.9-0.8-2.4c-0.5-0.6-1.3-0.8-2.2-0.8
		c-1.1,0-2,0.3-2.6,1c-0.6,0.7-1,1.5-1,2.7v5H682v-9.4h0.9v2c0.3-0.7,0.8-1.2,1.4-1.5c0.6-0.4,1.4-0.6,2.3-0.6
		C687.8,492.4,688.7,492.8,689.4,493.5z"/>
	<path class="st5" d="M698.8,501.3c-0.2,0.2-0.5,0.4-0.9,0.5c-0.3,0.1-0.7,0.2-1.1,0.2c-0.8,0-1.4-0.2-1.9-0.7
		c-0.4-0.5-0.7-1.1-0.7-1.9v-6.1h-1.7v-0.8h1.7v-2.1h0.9v2.1h3v0.8h-3v6c0,0.6,0.1,1.1,0.4,1.4c0.3,0.3,0.7,0.5,1.3,0.5
		c0.6,0,1.1-0.2,1.5-0.5L698.8,501.3z"/>
	<path class="st5" d="M701.5,501.6c-0.7-0.2-1.2-0.5-1.6-0.9l0.4-0.7c0.4,0.3,0.9,0.6,1.5,0.8c0.6,0.2,1.2,0.3,1.9,0.3
		c0.9,0,1.6-0.2,2.1-0.5c0.5-0.3,0.7-0.7,0.7-1.3c0-0.4-0.1-0.7-0.4-0.9s-0.5-0.4-0.9-0.5c-0.4-0.1-0.9-0.2-1.5-0.3
		c-0.7-0.1-1.3-0.3-1.8-0.4c-0.5-0.2-0.8-0.4-1.2-0.8c-0.3-0.3-0.5-0.8-0.5-1.4c0-0.7,0.3-1.4,0.9-1.8c0.6-0.5,1.5-0.7,2.6-0.7
		c0.6,0,1.2,0.1,1.8,0.3s1.1,0.4,1.4,0.7l-0.4,0.7c-0.4-0.3-0.8-0.5-1.3-0.6s-1-0.2-1.5-0.2c-0.9,0-1.5,0.2-2,0.5
		c-0.4,0.3-0.7,0.8-0.7,1.3c0,0.4,0.1,0.7,0.4,1c0.3,0.2,0.6,0.4,0.9,0.5c0.4,0.1,0.9,0.2,1.5,0.4c0.7,0.1,1.3,0.3,1.8,0.4
		c0.4,0.2,0.8,0.4,1.1,0.7s0.5,0.8,0.5,1.4c0,0.8-0.3,1.4-1,1.9s-1.6,0.7-2.7,0.7C702.9,502,702.2,501.9,701.5,501.6z"/>
	<path class="st5" d="M537,520h-7.3l-1.6,3.5h-1l5.8-12.6h0.9l5.8,12.6h-1L537,520z M536.7,519.2l-3.3-7.3l-3.3,7.3H536.7z"/>
	<path class="st5" d="M546.2,522.9c-0.2,0.2-0.5,0.4-0.9,0.5c-0.3,0.1-0.7,0.2-1.1,0.2c-0.8,0-1.4-0.2-1.9-0.7
		c-0.4-0.5-0.7-1.1-0.7-1.9v-6.1H540v-0.8h1.7v-2.1h0.9v2.1h3v0.8h-3v6c0,0.6,0.1,1.1,0.4,1.4c0.3,0.3,0.7,0.5,1.3,0.5
		c0.6,0,1.1-0.2,1.5-0.5L546.2,522.9z"/>
	<path class="st5" d="M553.1,522.9c-0.2,0.2-0.5,0.4-0.9,0.5c-0.3,0.1-0.7,0.2-1.1,0.2c-0.8,0-1.4-0.2-1.9-0.7
		c-0.4-0.5-0.7-1.1-0.7-1.9v-6.1h-1.7v-0.8h1.7v-2.1h0.9v2.1h3v0.8h-3v6c0,0.6,0.1,1.1,0.4,1.4c0.3,0.3,0.7,0.5,1.3,0.5
		c0.6,0,1.1-0.2,1.5-0.5L553.1,522.9z"/>
	<path class="st5" d="M563.2,519h-8.1c0,0.7,0.2,1.4,0.6,2c0.3,0.6,0.8,1,1.4,1.3c0.6,0.3,1.3,0.5,2,0.5c0.6,0,1.2-0.1,1.7-0.3
		c0.5-0.2,1-0.5,1.3-1l0.5,0.6c-0.4,0.5-0.9,0.9-1.5,1.1c-0.6,0.3-1.3,0.4-2,0.4c-0.9,0-1.8-0.2-2.5-0.6s-1.3-1-1.7-1.7
		c-0.4-0.7-0.6-1.5-0.6-2.5c0-0.9,0.2-1.7,0.6-2.5c0.4-0.7,0.9-1.3,1.6-1.7c0.7-0.4,1.5-0.6,2.3-0.6s1.6,0.2,2.3,0.6
		c0.7,0.4,1.2,1,1.6,1.7c0.4,0.7,0.6,1.5,0.6,2.4L563.2,519z M556.9,515.3c-0.5,0.3-1,0.7-1.3,1.2c-0.3,0.5-0.5,1.1-0.5,1.8h7.2
		c0-0.7-0.2-1.3-0.5-1.8c-0.3-0.5-0.8-0.9-1.3-1.2s-1.1-0.5-1.8-0.5S557.5,515,556.9,515.3z"/>
	<path class="st5" d="M573.4,515.1c0.7,0.7,1,1.7,1,3v5.5h-0.9v-5.4c0-1.1-0.3-1.9-0.8-2.4c-0.5-0.6-1.3-0.8-2.2-0.8
		c-1.1,0-2,0.3-2.6,1s-1,1.5-1,2.7v5H566v-9.4h0.9v2c0.3-0.7,0.8-1.2,1.4-1.5s1.4-0.6,2.3-0.6C571.8,514,572.7,514.4,573.4,515.1z"
		/>
	<path class="st5" d="M586.5,510.1v13.4h-0.9v-2.2c-0.4,0.7-0.9,1.3-1.6,1.7c-0.7,0.4-1.4,0.6-2.3,0.6c-0.9,0-1.7-0.2-2.4-0.6
		c-0.7-0.4-1.3-1-1.7-1.7c-0.4-0.7-0.6-1.5-0.6-2.5c0-0.9,0.2-1.7,0.6-2.5c0.4-0.7,1-1.3,1.7-1.7c0.7-0.4,1.5-0.6,2.4-0.6
		c0.8,0,1.6,0.2,2.3,0.6c0.7,0.4,1.2,0.9,1.6,1.7v-6.1H586.5z M583.7,522.3c0.6-0.3,1-0.8,1.4-1.4c0.3-0.6,0.5-1.3,0.5-2.1
		c0-0.8-0.2-1.5-0.5-2.1c-0.3-0.6-0.8-1.1-1.4-1.4s-1.2-0.5-1.9-0.5s-1.4,0.2-1.9,0.5c-0.6,0.3-1,0.8-1.4,1.4
		c-0.3,0.6-0.5,1.3-0.5,2.1c0,0.8,0.2,1.5,0.5,2.1c0.3,0.6,0.8,1.1,1.4,1.4c0.6,0.3,1.2,0.5,1.9,0.5S583.1,522.6,583.7,522.3z"/>
	<path class="st5" d="M590.2,511.6c-0.1-0.1-0.2-0.3-0.2-0.5c0-0.2,0.1-0.4,0.2-0.5c0.1-0.1,0.3-0.2,0.5-0.2s0.4,0.1,0.5,0.2
		c0.1,0.1,0.2,0.3,0.2,0.5s-0.1,0.4-0.2,0.5c-0.1,0.1-0.3,0.2-0.5,0.2S590.3,511.8,590.2,511.6z M590.3,514.1h0.9v9.4h-0.9V514.1z"
		/>
	<path class="st5" d="M602.3,515.1c0.7,0.7,1,1.7,1,3v5.5h-0.9v-5.4c0-1.1-0.3-1.9-0.8-2.4c-0.5-0.6-1.3-0.8-2.2-0.8
		c-1.1,0-2,0.3-2.6,1c-0.6,0.7-1,1.5-1,2.7v5H595v-9.4h0.9v2c0.3-0.7,0.8-1.2,1.4-1.5c0.6-0.4,1.4-0.6,2.3-0.6
		C600.7,514,601.7,514.4,602.3,515.1z"/>
	<path class="st5" d="M615.5,514.1v8.4c0,1.6-0.4,2.7-1.1,3.5c-0.8,0.7-1.9,1.1-3.4,1.1c-0.9,0-1.7-0.1-2.4-0.4s-1.4-0.6-1.9-1.1
		l0.5-0.7c0.5,0.4,1,0.8,1.7,1c0.7,0.2,1.4,0.4,2.1,0.4c1.2,0,2.2-0.3,2.8-0.9c0.6-0.6,0.9-1.5,0.9-2.8V521
		c-0.4,0.7-0.9,1.2-1.6,1.6c-0.7,0.4-1.5,0.6-2.3,0.6c-0.9,0-1.7-0.2-2.4-0.6c-0.7-0.4-1.3-0.9-1.7-1.6c-0.4-0.7-0.6-1.5-0.6-2.4
		s0.2-1.7,0.6-2.4c0.4-0.7,1-1.2,1.7-1.6c0.7-0.4,1.5-0.6,2.4-0.6c0.9,0,1.6,0.2,2.3,0.6c0.7,0.4,1.2,0.9,1.6,1.6v-2.1H615.5z
		 M612.8,521.9c0.6-0.3,1-0.8,1.4-1.3s0.5-1.2,0.5-2c0-0.7-0.2-1.4-0.5-1.9c-0.3-0.6-0.8-1-1.4-1.3c-0.6-0.3-1.2-0.5-2-0.5
		c-0.7,0-1.4,0.2-2,0.5c-0.6,0.3-1,0.8-1.4,1.3c-0.3,0.6-0.5,1.2-0.5,1.9c0,0.7,0.2,1.4,0.5,2s0.8,1,1.4,1.3s1.2,0.5,2,0.5
		C611.5,522.4,612.2,522.2,612.8,521.9z"/>
	<path class="st5" d="M634.5,510.9v12.6h-0.9v-6h-8.4v6h-0.9v-12.6h0.9v5.8h8.4v-5.8H634.5z"/>
	<path class="st5" d="M644.5,514.9c0.6,0.6,0.9,1.5,0.9,2.6v6h-0.9v-1.7c-0.3,0.6-0.7,1-1.3,1.3c-0.6,0.3-1.3,0.5-2.1,0.5
		c-1,0-1.9-0.2-2.5-0.7c-0.6-0.5-0.9-1.1-0.9-1.9c0-0.8,0.3-1.4,0.8-1.9c0.6-0.5,1.4-0.7,2.7-0.7h3.2v-0.8c0-0.9-0.2-1.5-0.7-2
		c-0.5-0.5-1.2-0.7-2.1-0.7c-0.6,0-1.2,0.1-1.8,0.3c-0.6,0.2-1.1,0.5-1.4,0.9l-0.5-0.6c0.5-0.4,1-0.7,1.7-1c0.7-0.2,1.4-0.4,2.1-0.4
		C643,514,643.9,514.3,644.5,514.9z M643.3,522.3c0.5-0.4,1-0.9,1.2-1.6V519h-3.2c-0.9,0-1.6,0.2-2,0.5s-0.6,0.8-0.6,1.4
		c0,0.6,0.2,1.1,0.7,1.4c0.5,0.4,1.1,0.5,1.9,0.5C642.1,522.8,642.7,522.7,643.3,522.3z"/>
	<path class="st5" d="M650.4,523c-0.7-0.4-1.3-1-1.7-1.7c-0.4-0.7-0.6-1.5-0.6-2.5c0-0.9,0.2-1.7,0.6-2.5s1-1.3,1.7-1.7
		c0.7-0.4,1.5-0.6,2.4-0.6c0.8,0,1.4,0.1,2.1,0.4c0.6,0.3,1.1,0.7,1.5,1.3l-0.7,0.5c-0.3-0.5-0.8-0.8-1.3-1.1
		c-0.5-0.2-1-0.4-1.6-0.4c-0.7,0-1.4,0.2-2,0.5s-1,0.8-1.4,1.4c-0.3,0.6-0.5,1.3-0.5,2.1c0,0.8,0.2,1.5,0.5,2.1
		c0.3,0.6,0.8,1.1,1.4,1.4c0.6,0.3,1.2,0.5,2,0.5c0.6,0,1.1-0.1,1.6-0.4c0.5-0.2,0.9-0.6,1.3-1.1l0.7,0.5c-0.4,0.6-0.9,1-1.5,1.3
		c-0.6,0.3-1.3,0.4-2.1,0.4C651.9,523.6,651.1,523.4,650.4,523z"/>
	<path class="st5" d="M662.3,518.5l-2.4,2.2v2.8h-0.9v-13.4h0.9v9.5l6-5.5h1.2l-4.1,3.8l4.4,5.6h-1.1L662.3,518.5z"/>
	<path class="st5" d="M675.2,514.9c0.6,0.6,0.9,1.5,0.9,2.6v6h-0.9v-1.7c-0.3,0.6-0.7,1-1.3,1.3c-0.6,0.3-1.3,0.5-2.1,0.5
		c-1,0-1.9-0.2-2.5-0.7c-0.6-0.5-0.9-1.1-0.9-1.9c0-0.8,0.3-1.4,0.8-1.9c0.6-0.5,1.4-0.7,2.7-0.7h3.2v-0.8c0-0.9-0.2-1.5-0.7-2
		c-0.5-0.5-1.2-0.7-2.1-0.7c-0.6,0-1.2,0.1-1.8,0.3c-0.6,0.2-1.1,0.5-1.4,0.9l-0.5-0.6c0.5-0.4,1-0.7,1.7-1c0.7-0.2,1.3-0.4,2.1-0.4
		C673.7,514,674.6,514.3,675.2,514.9z M674,522.3c0.5-0.4,1-0.9,1.2-1.6V519H672c-0.9,0-1.6,0.2-2,0.5s-0.6,0.8-0.6,1.4
		c0,0.6,0.2,1.1,0.7,1.4c0.5,0.4,1.1,0.5,1.9,0.5C672.8,522.8,673.5,522.7,674,522.3z"/>
	<path class="st5" d="M684.5,522.9c-0.2,0.2-0.5,0.4-0.9,0.5c-0.3,0.1-0.7,0.2-1.1,0.2c-0.8,0-1.4-0.2-1.9-0.7
		c-0.4-0.5-0.7-1.1-0.7-1.9v-6.1h-1.7v-0.8h1.7v-2.1h0.9v2.1h3v0.8h-3v6c0,0.6,0.1,1.1,0.4,1.4c0.3,0.3,0.7,0.5,1.3,0.5
		c0.6,0,1.1-0.2,1.5-0.5L684.5,522.9z"/>
	<path class="st5" d="M694.4,515.1c0.7,0.7,1,1.7,1,3v5.5h-0.9v-5.4c0-1.1-0.3-1.9-0.8-2.4c-0.5-0.6-1.3-0.8-2.2-0.8
		c-1.1,0-2,0.3-2.6,1c-0.6,0.7-1,1.5-1,2.7v5H687v-13.4h0.9v5.9c0.3-0.6,0.8-1.1,1.4-1.5c0.6-0.4,1.4-0.5,2.2-0.5
		C692.8,514,693.7,514.4,694.4,515.1z"/>
	<path class="st5" d="M700.4,523c-0.7-0.4-1.3-1-1.7-1.7c-0.4-0.7-0.6-1.5-0.6-2.5c0-0.9,0.2-1.7,0.6-2.5c0.4-0.7,1-1.3,1.7-1.7
		c0.7-0.4,1.5-0.6,2.4-0.6c0.9,0,1.7,0.2,2.4,0.6c0.7,0.4,1.3,1,1.7,1.7c0.4,0.7,0.6,1.5,0.6,2.5c0,0.9-0.2,1.7-0.6,2.5
		c-0.4,0.7-1,1.3-1.7,1.7s-1.5,0.6-2.4,0.6C701.9,523.6,701.1,523.4,700.4,523z M704.7,522.3c0.6-0.3,1-0.8,1.4-1.4
		c0.3-0.6,0.5-1.3,0.5-2.1c0-0.8-0.2-1.5-0.5-2.1c-0.3-0.6-0.8-1.1-1.4-1.4c-0.6-0.3-1.2-0.5-1.9-0.5c-0.7,0-1.4,0.2-1.9,0.5
		s-1,0.8-1.3,1.4c-0.3,0.6-0.5,1.3-0.5,2.1c0,0.8,0.2,1.5,0.5,2.1c0.3,0.6,0.8,1.1,1.3,1.4s1.2,0.5,1.9,0.5
		C703.5,522.8,704.2,522.6,704.7,522.3z"/>
	<path class="st5" d="M717.7,515.1c0.7,0.7,1,1.7,1,3v5.5h-0.9v-5.4c0-1.1-0.3-1.9-0.8-2.4c-0.5-0.6-1.3-0.8-2.2-0.8
		c-1.1,0-2,0.3-2.6,1c-0.6,0.7-1,1.5-1,2.7v5h-0.9v-9.4h0.9v2c0.3-0.7,0.8-1.2,1.4-1.5c0.6-0.4,1.4-0.6,2.3-0.6
		C716,514,717,514.4,717.7,515.1z"/>
</g>
</svg>
