<svg width="127" height="95" viewBox="0 0 127 95" fill="none" xmlns="http://www.w3.org/2000/svg">
<path d="M67.568 56.6H57.168V70H37.868V56.6H0.867969V43.7L32.268 -4.76837e-06H52.768L24.268 40.9H38.468V29H57.168V40.9H67.568V56.6ZM97.6898 25.5C107.49 25.5 114.723 27.5 119.39 31.5C124.123 35.5 126.49 40.8333 126.49 47.5C126.49 51.8333 125.357 55.8333 123.09 59.5C120.89 63.1 117.49 66 112.89 68.2C108.357 70.3333 102.723 71.4 95.9898 71.4C91.0565 71.4 86.1565 70.8 81.2898 69.6C76.4898 68.4 72.3565 66.7 68.8898 64.5L75.9898 49.6C78.7898 51.4667 81.8565 52.9 85.1898 53.9C88.5898 54.9 91.9898 55.4 95.3898 55.4C98.7898 55.4 101.49 54.7667 103.49 53.5C105.557 52.1667 106.59 50.3333 106.59 48C106.59 45.6667 105.59 43.9 103.59 42.7C101.59 41.5 98.0565 40.9 92.9898 40.9H73.9898L77.4898 -4.76837e-06H122.09V15.3H93.8898L92.9898 25.5H97.6898ZM32.4552 82.98C34.2552 82.98 35.6286 83.3933 36.5752 84.22C37.5219 85.0333 37.9952 86.2867 37.9952 87.98V94H34.4552V92.6C33.9086 93.6533 32.8419 94.18 31.2552 94.18C30.4152 94.18 29.6886 94.0333 29.0752 93.74C28.4619 93.4467 27.9952 93.0533 27.6752 92.56C27.3686 92.0533 27.2152 91.48 27.2152 90.84C27.2152 89.8133 27.6086 89.02 28.3952 88.46C29.1819 87.8867 30.3952 87.6 32.0352 87.6H34.1952C34.1286 86.4533 33.3619 85.88 31.8952 85.88C31.3752 85.88 30.8486 85.9667 30.3152 86.14C29.7819 86.3 29.3286 86.5267 28.9552 86.82L27.6752 84.24C28.2752 83.84 29.0019 83.5333 29.8552 83.32C30.7219 83.0933 31.5886 82.98 32.4552 82.98ZM32.3152 91.78C32.7552 91.78 33.1419 91.6733 33.4752 91.46C33.8086 91.2467 34.0486 90.9333 34.1952 90.52V89.58H32.5552C31.4486 89.58 30.8952 89.9467 30.8952 90.68C30.8952 91.0133 31.0219 91.28 31.2752 91.48C31.5286 91.68 31.8752 91.78 32.3152 91.78ZM40.3938 79.16H44.1938V94H40.3938V79.16ZM58.0634 83.16V94H54.4434V92.84C54.0434 93.28 53.5634 93.6133 53.0034 93.84C52.4434 94.0667 51.85 94.18 51.2234 94.18C49.8234 94.18 48.7034 93.7667 47.8634 92.94C47.0367 92.1133 46.6234 90.8733 46.6234 89.22V83.16H50.4234V88.6C50.4234 89.4133 50.5767 90.0067 50.8834 90.38C51.19 90.7533 51.6367 90.94 52.2234 90.94C52.8234 90.94 53.31 90.7333 53.6834 90.32C54.07 89.8933 54.2634 89.2467 54.2634 88.38V83.16H58.0634ZM74.631 82.98C75.9643 82.98 77.0243 83.38 77.811 84.18C78.611 84.98 79.011 86.1867 79.011 87.8V94H75.211V88.42C75.211 87.66 75.0644 87.1 74.771 86.74C74.491 86.38 74.091 86.2 73.571 86.2C72.9977 86.2 72.5377 86.4 72.191 86.8C71.8443 87.2 71.671 87.8067 71.671 88.62V94H67.871V88.42C67.871 86.94 67.3243 86.2 66.231 86.2C65.6443 86.2 65.1777 86.4 64.831 86.8C64.4843 87.2 64.311 87.8067 64.311 88.62V94H60.511V83.16H64.131V84.3C64.531 83.86 65.0043 83.5333 65.551 83.32C66.111 83.0933 66.7177 82.98 67.371 82.98C68.131 82.98 68.811 83.12 69.411 83.4C70.011 83.68 70.4977 84.1067 70.871 84.68C71.2977 84.1333 71.8377 83.7133 72.491 83.42C73.1443 83.1267 73.8577 82.98 74.631 82.98ZM88.4695 82.98C89.8161 82.98 90.8961 83.38 91.7095 84.18C92.5361 84.98 92.9495 86.1867 92.9495 87.8V94H89.1495V88.42C89.1495 86.94 88.5561 86.2 87.3695 86.2C86.7161 86.2 86.1895 86.4133 85.7895 86.84C85.4028 87.2667 85.2095 87.9067 85.2095 88.76V94H81.4095V83.16H85.0295V84.34C85.4561 83.9 85.9628 83.5667 86.5495 83.34C87.1361 83.1 87.7761 82.98 88.4695 82.98ZM95.3352 83.16H99.1352V94H95.3352V83.16ZM97.2352 81.96C96.5419 81.96 95.9819 81.7667 95.5552 81.38C95.1286 80.9933 94.9152 80.5133 94.9152 79.94C94.9152 79.3667 95.1286 78.8867 95.5552 78.5C95.9819 78.1133 96.5419 77.92 97.2352 77.92C97.9286 77.92 98.4886 78.1067 98.9152 78.48C99.3419 78.84 99.5552 79.3067 99.5552 79.88C99.5552 80.48 99.3419 80.98 98.9152 81.38C98.4886 81.7667 97.9286 81.96 97.2352 81.96Z" fill="white"/>
</svg>
