<svg width="53" height="53" viewBox="0 0 53 53" fill="none" xmlns="http://www.w3.org/2000/svg">
<mask id="mask0" mask-type="alpha" maskUnits="userSpaceOnUse" x="0" y="0" width="53" height="53">
<path d="M49.7248 51.2135H48.236V4.46629C48.236 3.97283 47.836 3.57305 47.3428 3.57305H30.6686C30.1752 3.57305 29.7754 3.97283 29.7754 4.46629V8.33705H27.9889V4.46629C27.9889 3.97283 27.5889 3.57305 27.0956 3.57305H23.2248V0.893236C23.2248 0.399777 22.8248 0 22.3316 0C21.8383 0 21.4383 0.399777 21.4383 0.893236V3.57305H17.5676C17.0742 3.57305 16.6743 3.97283 16.6743 4.46629V8.33705H13.9945C13.5011 8.33705 13.1013 8.73682 13.1013 9.23028V16.6741H5.65746C5.16411 16.6741 4.76422 17.0739 4.76422 17.5673V51.2134H3.27526C2.7819 51.2134 2.38202 51.6132 2.38202 52.1067C2.38202 52.6001 2.782 53 3.27526 53H49.7248C50.2181 53 50.618 52.6002 50.618 52.1068C50.618 51.6133 50.218 51.2135 49.7248 51.2135ZM18.4607 5.35952H26.2022V8.33705H18.4607V5.35952ZM15.4832 51.2135H14.8876V49.7248C14.8876 49.2313 14.4877 48.8315 13.9944 48.8315C13.5011 48.8315 13.1012 49.2313 13.1012 49.7248V51.2135H12.5056V48.236H15.4832V51.2135ZM21.4382 28.2865V29.8232V51.2135H17.2696V47.3428C17.2696 46.8493 16.8697 46.4495 16.3764 46.4495H11.6124C11.119 46.4495 10.7192 46.8493 10.7192 47.3428V51.2135H6.55059V18.4607H21.4382V28.2865ZM22.3314 16.6742H14.8876V10.1236H29.7753V27.3932H23.2248V24.4157H25.9046C26.398 24.4157 26.7978 24.0159 26.7978 23.5225C26.7978 23.029 26.3979 22.6292 25.9046 22.6292H23.2248V19.6517H25.9046C26.398 19.6517 26.7978 19.2519 26.7978 18.7585C26.7978 18.265 26.3979 17.8652 25.9046 17.8652H23.2248V17.5675C23.2248 17.074 22.8248 16.6742 22.3314 16.6742ZM38.1124 51.2135H23.2248V29.8232V29.1798H38.1124V51.2135ZM46.4494 51.2135H39.8989V28.2865V27.0954C39.8989 26.602 39.4989 26.2022 39.0056 26.2022C38.5124 26.2022 38.1124 26.602 38.1124 27.0954V27.3931H36.3259V27.0954C36.3259 26.602 35.9259 26.2022 35.4327 26.2022C34.9394 26.2022 34.5395 26.602 34.5395 27.0954V27.3931H31.5619V9.23038V5.35952H46.4496V51.2135H46.4494Z" fill="black"/>
<path d="M27.0956 49.4271C27.5889 49.4271 27.9888 49.0271 27.9888 48.5339V31.8598C27.9888 31.3663 27.5888 30.9666 27.0956 30.9666C26.6023 30.9666 26.2023 31.3663 26.2023 31.8598V48.534C26.2023 49.0272 26.6022 49.4271 27.0956 49.4271Z" fill="black"/>
<path d="M30.6686 49.4271C31.1619 49.4271 31.5618 49.0271 31.5618 48.5339V31.8598C31.5618 31.3663 31.1618 30.9666 30.6686 30.9666C30.1753 30.9666 29.7753 31.3663 29.7753 31.8598V48.534C29.7752 49.0272 30.1752 49.4271 30.6686 49.4271Z" fill="black"/>
<path d="M34.2415 49.4271C34.7349 49.4271 35.1347 49.0271 35.1347 48.5339V31.8598C35.1347 31.3663 34.7348 30.9666 34.2415 30.9666C33.7483 30.9666 33.3483 31.3663 33.3483 31.8598V48.534C33.3483 49.0272 33.7483 49.4271 34.2415 49.4271Z" fill="black"/>
<path d="M35.4326 11.3146C35.926 11.3146 36.3258 10.9148 36.3258 10.4213V9.23039C36.3258 8.73694 35.9259 8.33716 35.4326 8.33716C34.9394 8.33716 34.5394 8.73694 34.5394 9.23039V10.4214C34.5394 10.9148 34.9392 11.3146 35.4326 11.3146Z" fill="black"/>
<path d="M39.0057 11.3146C39.499 11.3146 39.8989 10.9148 39.8989 10.4213V9.23039C39.8989 8.73694 39.4989 8.33716 39.0057 8.33716C38.5124 8.33716 38.1124 8.73694 38.1124 9.23039V10.4214C38.1124 10.9148 38.5123 11.3146 39.0057 11.3146Z" fill="black"/>
<path d="M42.5787 11.3146C43.0721 11.3146 43.472 10.9148 43.472 10.4213V9.23039C43.472 8.73694 43.072 8.33716 42.5787 8.33716C42.0855 8.33716 41.6855 8.73694 41.6855 9.23039V10.4214C41.6855 10.9148 42.0854 11.3146 42.5787 11.3146Z" fill="black"/>
<path d="M35.4326 17.2698C35.926 17.2698 36.3258 16.87 36.3258 16.3765V15.1855C36.3258 14.692 35.9259 14.2922 35.4326 14.2922C34.9394 14.2922 34.5394 14.692 34.5394 15.1855V16.3765C34.5394 16.87 34.9392 17.2698 35.4326 17.2698Z" fill="black"/>
<path d="M39.0057 17.2698C39.499 17.2698 39.8989 16.87 39.8989 16.3765V15.1855C39.8989 14.692 39.4989 14.2922 39.0057 14.2922C38.5124 14.2922 38.1124 14.692 38.1124 15.1855V16.3765C38.1124 16.87 38.5123 17.2698 39.0057 17.2698Z" fill="black"/>
<path d="M42.5787 17.2698C43.0721 17.2698 43.472 16.87 43.472 16.3765V15.1855C43.472 14.692 43.072 14.2922 42.5787 14.2922C42.0855 14.2922 41.6855 14.692 41.6855 15.1855V16.3765C41.6855 16.87 42.0854 17.2698 42.5787 17.2698Z" fill="black"/>
<path d="M35.4326 23.2248C35.926 23.2248 36.3258 22.8251 36.3258 22.3316V21.1406C36.3258 20.6471 35.9259 20.2473 35.4326 20.2473C34.9394 20.2473 34.5394 20.6471 34.5394 21.1406V22.3316C34.5394 22.825 34.9392 23.2248 35.4326 23.2248Z" fill="black"/>
<path d="M39.0057 23.2248C39.499 23.2248 39.8989 22.8251 39.8989 22.3316V21.1406C39.8989 20.6471 39.4989 20.2473 39.0057 20.2473C38.5124 20.2473 38.1124 20.6471 38.1124 21.1406V22.3316C38.1124 22.825 38.5123 23.2248 39.0057 23.2248Z" fill="black"/>
<path d="M42.5787 23.2248C43.0721 23.2248 43.472 22.8251 43.472 22.3316V21.1406C43.472 20.6471 43.072 20.2473 42.5787 20.2473C42.0855 20.2473 41.6855 20.6471 41.6855 21.1406V22.3316C41.6855 22.825 42.0854 23.2248 42.5787 23.2248Z" fill="black"/>
<path d="M10.4214 25.6069C10.9147 25.6069 11.3146 25.2071 11.3146 24.7137V23.5226C11.3146 23.0292 10.9146 22.6294 10.4214 22.6294C9.92812 22.6294 9.52814 23.0292 9.52814 23.5226V24.7137C9.52814 25.207 9.92812 25.6069 10.4214 25.6069Z" fill="black"/>
<path d="M13.9944 25.6069C14.4877 25.6069 14.8876 25.2071 14.8876 24.7137V23.5226C14.8876 23.0292 14.4876 22.6294 13.9944 22.6294C13.5011 22.6294 13.1011 23.0292 13.1011 23.5226V24.7137C13.1011 25.207 13.501 25.6069 13.9944 25.6069Z" fill="black"/>
<path d="M17.5674 25.6069C18.0608 25.6069 18.4607 25.2071 18.4607 24.7137V23.5226C18.4607 23.0292 18.0607 22.6294 17.5674 22.6294C17.0742 22.6294 16.6742 23.0292 16.6742 23.5226V24.7137C16.6742 25.207 17.0741 25.6069 17.5674 25.6069Z" fill="black"/>
<path d="M10.4214 31.5617C10.9147 31.5617 11.3146 31.162 11.3146 30.6685V29.4775C11.3146 28.984 10.9146 28.5842 10.4214 28.5842C9.92812 28.5842 9.52814 28.984 9.52814 29.4775V30.6685C9.52814 31.1619 9.92812 31.5617 10.4214 31.5617Z" fill="black"/>
<path d="M13.9944 31.5617C14.4877 31.5617 14.8876 31.162 14.8876 30.6685V29.4775C14.8876 28.984 14.4876 28.5842 13.9944 28.5842C13.5011 28.5842 13.1011 28.984 13.1011 29.4775V30.6685C13.1011 31.1619 13.501 31.5617 13.9944 31.5617Z" fill="black"/>
<path d="M17.5674 31.5617C18.0608 31.5617 18.4607 31.162 18.4607 30.6685V29.4775C18.4607 28.984 18.0607 28.5842 17.5674 28.5842C17.0742 28.5842 16.6742 28.984 16.6742 29.4775V30.6685C16.6742 31.1619 17.0741 31.5617 17.5674 31.5617Z" fill="black"/>
<path d="M10.4214 37.5168C10.9147 37.5168 11.3146 37.1171 11.3146 36.6236V35.4325C11.3146 34.9391 10.9146 34.5393 10.4214 34.5393C9.92812 34.5393 9.52814 34.9391 9.52814 35.4325V36.6236C9.52814 37.1171 9.92812 37.5168 10.4214 37.5168Z" fill="black"/>
<path d="M13.9944 37.5168C14.4877 37.5168 14.8876 37.1171 14.8876 36.6236V35.4325C14.8876 34.9391 14.4876 34.5393 13.9944 34.5393C13.5011 34.5393 13.1011 34.9391 13.1011 35.4325V36.6236C13.1011 37.1171 13.501 37.5168 13.9944 37.5168Z" fill="black"/>
<path d="M17.5674 37.5168C18.0608 37.5168 18.4607 37.1171 18.4607 36.6236V35.4325C18.4607 34.9391 18.0607 34.5393 17.5674 34.5393C17.0742 34.5393 16.6742 34.9391 16.6742 35.4325V36.6236C16.6742 37.1171 17.0741 37.5168 17.5674 37.5168Z" fill="black"/>
<path d="M10.4214 43.4719C10.9147 43.4719 11.3146 43.0721 11.3146 42.5787V41.3876C11.3146 40.8942 10.9146 40.4944 10.4214 40.4944C9.92812 40.4944 9.52814 40.8942 9.52814 41.3876V42.5787C9.52814 43.0721 9.92812 43.4719 10.4214 43.4719Z" fill="black"/>
<path d="M13.9944 43.4719C14.4877 43.4719 14.8876 43.0721 14.8876 42.5787V41.3876C14.8876 40.8942 14.4876 40.4944 13.9944 40.4944C13.5011 40.4944 13.1011 40.8942 13.1011 41.3876V42.5787C13.1011 43.0721 13.501 43.4719 13.9944 43.4719Z" fill="black"/>
<path d="M17.5674 43.4719C18.0608 43.4719 18.4607 43.0721 18.4607 42.5787V41.3876C18.4607 40.8942 18.0607 40.4944 17.5674 40.4944C17.0742 40.4944 16.6742 40.8942 16.6742 41.3876V42.5787C16.6742 43.0721 17.0741 43.4719 17.5674 43.4719Z" fill="black"/>
<path d="M42.5787 29.1799C43.0721 29.1799 43.472 28.7801 43.472 28.2867V27.0956C43.472 26.6022 43.072 26.2024 42.5787 26.2024C42.0855 26.2024 41.6855 26.6022 41.6855 27.0956V28.2867C41.6855 28.78 42.0854 29.1799 42.5787 29.1799Z" fill="black"/>
<path d="M42.5787 35.1347C43.0721 35.1347 43.472 34.735 43.472 34.2415V33.0505C43.472 32.557 43.072 32.1572 42.5787 32.1572C42.0855 32.1572 41.6855 32.557 41.6855 33.0505V34.2415C41.6855 34.7349 42.0854 35.1347 42.5787 35.1347Z" fill="black"/>
<path d="M42.5787 41.0898C43.0721 41.0898 43.472 40.6901 43.472 40.1966V39.0055C43.472 38.5121 43.072 38.1123 42.5787 38.1123C42.0855 38.1123 41.6855 38.5121 41.6855 39.0055V40.1966C41.6855 40.69 42.0854 41.0898 42.5787 41.0898Z" fill="black"/>
<path d="M42.5787 47.0449C43.0721 47.0449 43.472 46.6451 43.472 46.1517V44.9606C43.472 44.4672 43.072 44.0674 42.5787 44.0674C42.0855 44.0674 41.6855 44.4672 41.6855 44.9606V46.1517C41.6855 46.645 42.0854 47.0449 42.5787 47.0449Z" fill="black"/>
<path d="M26.7977 13.9943C26.7977 13.5009 26.3978 13.1011 25.9045 13.1011H18.7584C18.2651 13.1011 17.8652 13.5009 17.8652 13.9943C17.8652 14.4878 18.2652 14.8875 18.7584 14.8875H25.9045C26.3979 14.8875 26.7977 14.4878 26.7977 13.9943Z" fill="black"/>
</mask>
<g mask="url(#mask0)">
<rect x="-8" y="-8" width="74" height="77" fill="white"/>
</g>
</svg>
